<?xml version="1.0" encoding="UTF-8" standalone="no"?>
<!-- Created with Inkscape (http://www.inkscape.org/) -->

<svg
   width="100%"
   height="100%"
   viewBox="0 0 255.59273 96.115584"
   version="1.1"
   id="svg5"
   xmlns="http://www.w3.org/2000/svg"
   xmlns:svg="http://www.w3.org/2000/svg">
  <defs
     id="defs2" />
  <g
     id="layer1"
     transform="translate(182.29217,-108.51328)">
    <g
       aria-label="מה־לי עושרך, מה־לי רישך?
למה משיך לי עם־ששך?
משיי שיערך, חיקך כרי,
את מטמוני עם־אוצרי...
"
       id="text1463"
       style="font-size:16.9333px;line-height:110%;font-family:Sans;-inkscape-font-specification:'Adobe Helvetica';letter-spacing:0px;word-spacing:0px;direction:rtl;stroke-width:0.264583px">
      <path
         d="m 65.848979,114.83034 c 0.355599,2.35373 0.474132,4.57199 0.270933,7.28132 l -6.451588,-7.02732 c -0.592665,-0.0169 -1.33773,-0.0847 -1.930396,-0.254 0.626532,3.48826 0.507999,6.36692 -0.372532,9.82131 1.083731,-0.28786 2.167462,-0.38946 3.251193,0 -0.558799,-2.57386 -0.558799,-4.94452 -0.270933,-7.41678 l 6.519321,7.16278 c 0.592665,0 1.134531,0.0677 1.64253,0.254 -0.507999,-3.43746 -0.304799,-6.62092 0.541866,-9.82131 -0.982132,0.33866 -2.04893,0.33866 -3.200394,0 z"
         style="font-weight:bold;font-stretch:expanded;font-family:'Anka CLM';-inkscape-font-specification:'Anka CLM Bold Expanded'"
         id="path30688" />
      <path
         d="m 47.15462,119.21606 c -0.863598,0.6604 -1.811863,0.98213 -2.861727,0.94827 0.440265,1.94733 0.203199,3.25119 -0.186267,4.48732 1.117598,-0.3048 2.167463,-0.37253 3.098794,0 -0.575732,-1.778 -0.507999,-3.96239 -0.0508,-5.43559 z m -3.471326,-2.76013 0.321733,0.57574 c 1.49013,-0.9144 2.844794,-1.30387 4.588924,-1.30387 1.320797,0 2.404528,0.23707 3.217327,1.04987 0.812798,0.77893 1.168398,1.79493 1.168398,3.09879 0,1.8288 -0.524933,3.20039 -1.320798,4.77519 0.948265,-0.32173 1.981196,-0.3556 3.149594,0 0.491066,-1.50706 0.694265,-2.84479 0.694265,-4.21639 0,-1.8288 -0.507999,-3.26813 -1.625597,-4.26719 -1.151464,-1.016 -2.539995,-1.33773 -4.301058,-1.33773 -2.370662,0 -4.233325,0.49106 -5.892788,1.62559 z"
         style="font-weight:bold;font-stretch:expanded;font-family:'Anka CLM';-inkscape-font-specification:'Anka CLM Bold Expanded'"
         id="path30690" />
      <path
         d="m 34.336138,116.98087 c 2.523062,-0.22014 5.198523,-0.23707 7.992518,0.0508 -0.220133,-0.8128 -0.254,-1.016 0,-1.778 -2.743195,0.23707 -5.537189,0.28787 -7.992518,-0.0169 0.1524,0.81279 0.2032,0.99906 0,1.74413 z"
         style="font-weight:bold;font-stretch:expanded;font-family:'Anka CLM';-inkscape-font-specification:'Anka CLM Bold Expanded'"
         id="path30692" />
      <path
         d="m 23.464968,120.60459 c 0,1.13453 0.3048,2.06587 1.015998,2.77706 0.829732,0.84667 2.065863,1.27 3.53906,1.27 1.456264,0 2.709328,-0.42333 3.53906,-1.27 0.728132,-0.72813 1.083731,-1.77799 1.083731,-2.92946 0,-0.7112 -0.2032,-1.52399 -0.457199,-2.50613 l -0.761999,-2.99719 c -0.169333,-0.6604 -0.321732,-1.30386 -0.321732,-1.89653 0,-0.49107 0.101599,-0.9652 0.355599,-1.40546 0.406399,-0.6604 0.931331,-1.1176 2.015063,-1.3208 0.253999,-0.0339 0.507999,-0.0677 0.745065,-0.0677 0.423332,0 0.846665,0.0677 1.286931,0.18626 l 0.237066,-0.59266 c -0.592666,-0.22014 -1.219198,-0.33867 -1.913463,-0.33867 -0.423333,0 -0.863598,0.0508 -1.354664,0.13547 -1.253064,0.22013 -2.624662,0.98213 -3.217327,2.06586 -0.321733,0.5588 -0.457199,1.18533 -0.457199,1.8796 0,0.62653 0.118533,1.30386 0.321732,2.04893 l 0.999065,3.74225 c 0.254,0.9144 0.406399,1.6764 0.406399,2.286 0,0.7112 -0.135466,1.3208 -0.592665,1.778 -0.372533,0.37253 -0.914398,0.5588 -1.507064,0.5588 -0.745065,0 -1.422397,-0.3556 -1.879596,-0.89747 -0.575732,-0.6604 -0.880532,-1.65946 -0.880532,-2.74319 0,-1.5748 0.457199,-2.87866 1.473197,-3.87773 l -0.406399,-0.54187 c -0.965198,0.42334 -1.862663,1.1176 -2.489195,2.01507 -0.524932,0.74506 -0.778932,1.62559 -0.778932,2.64159 z"
         style="font-weight:bold;font-stretch:expanded;font-family:'Anka CLM';-inkscape-font-specification:'Anka CLM Bold Expanded'"
         id="path30694" />
      <path
         d="m 18.689797,114.83034 c 0.626533,1.81186 0.558799,3.75919 0,5.84199 0.812799,-0.5588 1.69333,-1.03294 3.031061,-0.9652 -0.423332,-1.55787 -0.457199,-3.18346 0.0508,-4.87679 -0.982131,0.28786 -1.981196,0.38946 -3.081861,0 z"
         style="font-weight:bold;font-stretch:expanded;font-family:'Anka CLM';-inkscape-font-specification:'Anka CLM Bold Expanded'"
         id="path30696" />
      <path
         d="m 1.553324,124.65165 c 1.7779966,0 3.3189269,-0.27093 4.4365247,-1.15146 0.9990647,-0.79587 1.523997,-1.9812 1.523997,-3.3528 0,-1.35466 -0.6434654,-2.57386 -1.7271966,-3.36972 -0.8297317,-0.6096 -1.523997,-0.93133 -2.4383952,-1.18533 1.0667979,-0.22014 2.201329,-0.33867 3.3189268,-0.38947 v -0.52493 c -1.7610632,-0.0169 -3.2511936,0.1016 -5.1138567,0.47413 -1.87959625,-0.37253 -3.3527934,-0.49107 -5.1307899,-0.47413 v 0.52493 c 1.1175978,0.0508 2.2521289,0.16933 3.31892685,0.38947 -0.91439825,0.254 -1.60866355,0.57573 -2.42146195,1.18533 -1.1006645,0.79586 -1.7441299,2.01506 -1.7441299,3.36972 0,1.3716 0.5249323,2.55693 1.523997,3.3528 1.1175978,0.88053 2.65852815,1.15146 4.4534579,1.15146 z m 0,-8.58518 c 1.9811962,0.67733 3.4035934,1.96426 3.4035934,4.16559 0,1.1176 -0.3217327,2.0828 -0.9313315,2.70933 -0.6603987,0.67733 -1.4223972,1.0668 -2.4722619,1.0668 -1.06679785,0 -1.82879635,-0.38947 -2.48919505,-1.0668 -0.59266555,-0.62653 -0.93133155,-1.59173 -0.93133155,-2.70933 0,-2.20133 1.42239725,-3.48826 3.4205266,-4.16559 z"
         style="font-weight:bold;font-stretch:expanded;font-family:'Anka CLM';-inkscape-font-specification:'Anka CLM Bold Expanded'"
         id="path30698" />
      <path
         d="m -9.2331462,114.83034 c 0.5587989,3.69146 0.5587989,6.85798 -0.067733,9.82131 1.0667979,-0.32173 2.0658626,-0.37253 2.9971941,0 -0.5926655,-3.47133 -0.7450652,-6.67172 0.016933,-9.82131 -0.9821314,0.33866 -1.9642628,0.33866 -2.9463941,0 z"
         style="font-weight:bold;font-stretch:expanded;font-family:'Anka CLM';-inkscape-font-specification:'Anka CLM Bold Expanded'"
         id="path30700" />
      <path
         d="m -20.781654,119.36846 c 0,-1.1684 0.474133,-2.15053 1.168398,-2.79399 0.761998,-0.7112 1.79493,-1.08373 2.844794,-1.08373 0.999065,0 1.777997,0.254 2.370662,0.84666 0.423333,0.42333 0.694266,1.03293 0.694266,1.71026 0,0.8636 -0.338666,1.5748 -1.015998,2.11667 -0.965199,0.762 -2.133596,1.13453 -3.53906,1.26999 l 0.0508,0.508 c 1.507063,0.0169 3.014127,-0.0847 4.436524,-0.62653 1.422398,-0.54186 2.624662,-1.5748 2.624662,-3.04799 0,-1.25307 -0.846665,-2.21827 -2.031996,-2.76013 -1.049865,-0.49107 -2.302929,-0.67733 -3.843859,-0.67733 -1.456264,0 -2.844795,0.22013 -4.030126,0.9144 -1.557863,0.93133 -2.252129,2.31986 -2.252129,3.87772 0,1.45626 0.643466,2.8448 2.065863,3.84386 1.117598,0.77893 2.421462,1.18533 4.047059,1.18533 2.015062,0 3.589859,-0.54186 4.97839,-1.38853 l -0.287866,-0.52493 c -1.320798,0.67733 -2.692395,0.9652 -3.809993,0.9652 -1.269997,0 -2.353728,-0.33867 -3.115727,-1.03293 -0.914398,-0.8128 -1.354664,-2.01507 -1.354664,-3.302 z"
         style="font-weight:bold;font-stretch:expanded;font-family:'Anka CLM';-inkscape-font-specification:'Anka CLM Bold Expanded'"
         id="path30702" />
      <path
         d="m -26.572834,116.16807 c -1.100665,-0.98213 -2.336796,-1.33773 -3.962393,-1.33773 -2.184395,0 -3.894659,0.49106 -5.418656,1.62559 l 0.270933,0.57574 c 1.371597,-0.9144 2.607728,-1.30387 4.216392,-1.30387 1.151464,0 2.015063,0.16934 2.844794,0.9144 0.728132,0.6604 1.117598,1.86266 1.117598,3.11573 0,1.62559 -0.507999,3.30199 -1.303864,4.89372 1.032931,-0.3556 2.082796,-0.33866 3.115727,0.0339 0.457199,-1.35467 0.711199,-2.72626 0.711199,-3.97933 0,-2.03199 -0.372533,-3.45439 -1.59173,-4.53812 z"
         style="font-weight:bold;font-stretch:expanded;font-family:'Anka CLM';-inkscape-font-specification:'Anka CLM Bold Expanded'"
         id="path30704" />
      <path
         d="m -48.213572,116.37127 0.338666,0.54186 c 1.388531,-0.79586 2.556928,-1.08373 3.708393,-1.08373 1.320797,0 2.421462,0.27093 3.217327,1.0668 0.761998,0.74506 1.117598,1.64253 1.117598,2.96333 0,1.25306 -0.524933,2.28599 -1.269998,2.96332 -0.812798,0.72814 -1.727197,0.98214 -2.980261,0.98214 -1.185331,0 -1.981196,-0.23707 -2.980261,-0.69427 0.321733,1.7272 0.2032,3.65759 -0.372532,5.53719 0.982131,-0.3048 2.031996,-0.37253 3.166527,0 -0.440266,-1.33773 -0.474132,-2.87866 -0.474132,-4.18253 0.660398,0.11854 1.219197,0.18627 2.015062,0.18627 1.659464,0 2.912528,-0.22013 4.131725,-1.40546 0.846665,-0.84667 1.286931,-2.11667 1.286931,-3.57293 0,-1.35466 -0.507999,-2.52306 -1.38853,-3.36973 -0.914399,-0.88053 -2.285996,-1.47319 -4.199459,-1.47319 -2.167462,0 -3.742259,0.47413 -5.317056,1.54093 z"
         style="font-weight:bold;font-stretch:expanded;font-family:'Anka CLM';-inkscape-font-specification:'Anka CLM Bold Expanded'"
         id="path30706" />
      <path
         d="m -50.431805,123.29699 c 0,-0.84667 -0.761998,-1.45627 -1.727196,-1.45627 -0.982132,0 -1.761063,0.6096 -1.761063,1.35467 0,0.72813 0.778931,1.33773 1.761063,1.33773 0.08467,0 0.186266,0 0.270933,-0.0169 -0.118533,0.72814 -0.609599,1.38854 -1.134531,1.8796 l 0.355599,0.42333 c 0.711198,-0.47413 1.38853,-1.13453 1.79493,-1.87959 0.304799,-0.5588 0.440265,-1.10067 0.440265,-1.64253 z"
         style="font-weight:bold;font-stretch:expanded;font-family:'Anka CLM';-inkscape-font-specification:'Anka CLM Bold Expanded'"
         id="path30708" />
      <path
         d="m -68.279462,114.83034 c 0.355599,2.35373 0.474132,4.57199 0.270933,7.28132 l -6.451587,-7.02732 c -0.592666,-0.0169 -1.337731,-0.0847 -1.930397,-0.254 0.626532,3.48826 0.507999,6.36692 -0.372532,9.82131 1.083731,-0.28786 2.167462,-0.38946 3.251193,0 -0.558799,-2.57386 -0.558799,-4.94452 -0.270932,-7.41678 l 6.51932,7.16278 c 0.592666,0 1.134531,0.0677 1.64253,0.254 -0.507999,-3.43746 -0.304799,-6.62092 0.541866,-9.82131 -0.982132,0.33866 -2.04893,0.33866 -3.200394,0 z"
         style="font-weight:bold;font-stretch:expanded;font-family:'Anka CLM';-inkscape-font-specification:'Anka CLM Bold Expanded'"
         id="path30710" />
      <path
         d="m -86.973821,119.21606 c -0.863598,0.6604 -1.811863,0.98213 -2.861727,0.94827 0.440266,1.94733 0.203199,3.25119 -0.186267,4.48732 1.117598,-0.3048 2.167463,-0.37253 3.098794,0 -0.575732,-1.778 -0.507999,-3.96239 -0.0508,-5.43559 z m -3.471326,-2.76013 0.321733,0.57574 c 1.49013,-0.9144 2.844794,-1.30387 4.588924,-1.30387 1.320797,0 2.404529,0.23707 3.217327,1.04987 0.812798,0.77893 1.168398,1.79493 1.168398,3.09879 0,1.8288 -0.524933,3.20039 -1.320798,4.77519 0.948265,-0.32173 1.981196,-0.3556 3.149594,0 0.491066,-1.50706 0.694265,-2.84479 0.694265,-4.21639 0,-1.8288 -0.507999,-3.26813 -1.625596,-4.26719 -1.151465,-1.016 -2.539995,-1.33773 -4.301059,-1.33773 -2.370662,0 -4.233325,0.49106 -5.892788,1.62559 z"
         style="font-weight:bold;font-stretch:expanded;font-family:'Anka CLM';-inkscape-font-specification:'Anka CLM Bold Expanded'"
         id="path30712" />
      <path
         d="m -99.792303,116.98087 c 2.523062,-0.22014 5.198524,-0.23707 7.992518,0.0508 -0.220133,-0.8128 -0.253999,-1.016 0,-1.778 -2.743195,0.23707 -5.537189,0.28787 -7.992518,-0.0169 0.1524,0.81279 0.2032,0.99906 0,1.74413 z"
         style="font-weight:bold;font-stretch:expanded;font-family:'Anka CLM';-inkscape-font-specification:'Anka CLM Bold Expanded'"
         id="path30714" />
      <path
         d="m -110.66346,120.60459 c 0,1.13453 0.3048,2.06587 1.016,2.77706 0.82973,0.84667 2.06586,1.27 3.53906,1.27 1.45626,0 2.70933,-0.42333 3.53906,-1.27 0.72813,-0.72813 1.08373,-1.77799 1.08373,-2.92946 0,-0.7112 -0.2032,-1.52399 -0.4572,-2.50613 l -0.762,-2.99719 c -0.16933,-0.6604 -0.32173,-1.30386 -0.32173,-1.89653 0,-0.49107 0.1016,-0.9652 0.3556,-1.40546 0.4064,-0.6604 0.93133,-1.1176 2.01506,-1.3208 0.254,-0.0339 0.508,-0.0677 0.745068,-0.0677 0.423333,0 0.846665,0.0677 1.286931,0.18626 l 0.237066,-0.59266 c -0.592665,-0.22014 -1.219197,-0.33867 -1.913465,-0.33867 -0.42333,0 -0.8636,0.0508 -1.35466,0.13547 -1.25307,0.22013 -2.62466,0.98213 -3.21733,2.06586 -0.32173,0.5588 -0.4572,1.18533 -0.4572,1.8796 0,0.62653 0.11854,1.30386 0.32173,2.04893 l 0.99907,3.74225 c 0.254,0.9144 0.4064,1.6764 0.4064,2.286 0,0.7112 -0.13547,1.3208 -0.59267,1.778 -0.37253,0.37253 -0.91439,0.5588 -1.50706,0.5588 -0.74507,0 -1.4224,-0.3556 -1.8796,-0.89747 -0.57573,-0.6604 -0.88053,-1.65946 -0.88053,-2.74319 0,-1.5748 0.4572,-2.87866 1.4732,-3.87773 l -0.4064,-0.54187 c -0.9652,0.42334 -1.86266,1.1176 -2.4892,2.01507 -0.52493,0.74506 -0.77893,1.62559 -0.77893,2.64159 z"
         style="font-weight:bold;font-stretch:expanded;font-family:'Anka CLM';-inkscape-font-specification:'Anka CLM Bold Expanded'"
         id="path30716" />
      <path
         d="m -115.43864,114.83034 c 0.62653,1.81186 0.5588,3.75919 0,5.84199 0.8128,-0.5588 1.69333,-1.03294 3.03106,-0.9652 -0.42334,-1.55787 -0.4572,-3.18346 0.0508,-4.87679 -0.98213,0.28786 -1.9812,0.38946 -3.08186,0 z"
         style="font-weight:bold;font-stretch:expanded;font-family:'Anka CLM';-inkscape-font-specification:'Anka CLM Bold Expanded'"
         id="path30718" />
      <path
         d="m -128.1894,116.16807 c -1.10066,-0.98213 -2.33679,-1.33773 -3.96239,-1.33773 -2.18439,0 -3.89466,0.49106 -5.41865,1.62559 l 0.27093,0.57574 c 1.3716,-0.9144 2.60773,-1.30387 4.21639,-1.30387 1.15146,0 2.01506,0.16934 2.84479,0.9144 0.72814,0.6604 1.1176,1.86266 1.1176,3.11573 0,1.62559 -0.508,3.30199 -1.30386,4.89372 1.03293,-0.3556 2.08279,-0.33866 3.11573,0.0339 0.45719,-1.35467 0.71119,-2.72626 0.71119,-3.97933 0,-2.03199 -0.37253,-3.45439 -1.59173,-4.53812 z"
         style="font-weight:bold;font-stretch:expanded;font-family:'Anka CLM';-inkscape-font-specification:'Anka CLM Bold Expanded'"
         id="path30720" />
      <path
         d="m -142.00696,114.83034 c 0.62653,1.81186 0.55879,3.75919 0,5.84199 0.81279,-0.5588 1.69333,-1.03294 3.03106,-0.9652 -0.42334,-1.55787 -0.4572,-3.18346 0.0508,-4.87679 -0.98214,0.28786 -1.9812,0.38946 -3.08186,0 z"
         style="font-weight:bold;font-stretch:expanded;font-family:'Anka CLM';-inkscape-font-specification:'Anka CLM Bold Expanded'"
         id="path30722" />
      <path
         d="m -153.48773,119.36846 c 0,-1.1684 0.47413,-2.15053 1.16839,-2.79399 0.762,-0.7112 1.79493,-1.08373 2.8448,-1.08373 0.99906,0 1.778,0.254 2.37066,0.84666 0.42333,0.42333 0.69427,1.03293 0.69427,1.71026 0,0.8636 -0.33867,1.5748 -1.016,2.11667 -0.9652,0.762 -2.1336,1.13453 -3.53906,1.26999 l 0.0508,0.508 c 1.50706,0.0169 3.01413,-0.0847 4.43652,-0.62653 1.4224,-0.54186 2.62466,-1.5748 2.62466,-3.04799 0,-1.25307 -0.84666,-2.21827 -2.03199,-2.76013 -1.04987,-0.49107 -2.30293,-0.67733 -3.84386,-0.67733 -1.45626,0 -2.8448,0.22013 -4.03013,0.9144 -1.55786,0.93133 -2.25213,2.31986 -2.25213,3.87772 0,1.45626 0.64347,2.8448 2.06587,3.84386 1.1176,0.77893 2.42146,1.18533 4.04706,1.18533 2.01506,0 3.58986,-0.54186 4.97839,-1.38853 l -0.28787,-0.52493 c -1.3208,0.67733 -2.69239,0.9652 -3.80999,0.9652 -1.27,0 -2.35373,-0.33867 -3.11573,-1.03293 -0.9144,-0.8128 -1.35466,-2.01507 -1.35466,-3.302 z"
         style="font-weight:bold;font-stretch:expanded;font-family:'Anka CLM';-inkscape-font-specification:'Anka CLM Bold Expanded'"
         id="path30724" />
      <path
         d="m -168.60915,116.37127 0.33866,0.54186 c 1.38853,-0.79586 2.55693,-1.08373 3.7084,-1.08373 1.32079,0 2.42146,0.27093 3.21732,1.0668 0.762,0.74506 1.1176,1.64253 1.1176,2.96333 0,1.25306 -0.52493,2.28599 -1.27,2.96332 -0.81279,0.72814 -1.72719,0.98214 -2.98026,0.98214 -1.18533,0 -1.98119,-0.23707 -2.98026,-0.69427 0.32173,1.7272 0.2032,3.65759 -0.37253,5.53719 0.98213,-0.3048 2.032,-0.37253 3.16653,0 -0.44027,-1.33773 -0.47414,-2.87866 -0.47414,-4.18253 0.6604,0.11854 1.2192,0.18627 2.01507,0.18627 1.65946,0 2.91252,-0.22013 4.13172,-1.40546 0.84667,-0.84667 1.28693,-2.11667 1.28693,-3.57293 0,-1.35466 -0.508,-2.52306 -1.38853,-3.36973 -0.9144,-0.88053 -2.28599,-1.47319 -4.19946,-1.47319 -2.16746,0 -3.74226,0.47413 -5.31705,1.54093 z"
         style="font-weight:bold;font-stretch:expanded;font-family:'Anka CLM';-inkscape-font-specification:'Anka CLM Bold Expanded'"
         id="path30726" />
      <path
         d="m -173.85845,119.53779 c 1.01599,-0.1016 1.74413,-0.2032 2.64159,-0.74506 0.79587,-0.49107 1.2192,-1.18533 1.27,-2.032 0.0508,-1.08373 -0.44027,-1.94733 -1.45626,-2.50613 -0.89747,-0.50799 -1.96427,-0.66039 -3.2512,-0.72813 -1.15146,-0.0677 -2.15053,-0.0339 -3.14959,0.0847 -1.08373,0.13547 -2.3876,0.47413 -3.48826,0.88053 l 0.254,0.62653 c 1.82879,-0.6096 3.80999,-0.88053 5.82505,-0.77893 0.89747,0.0508 1.65947,0.28787 2.16747,0.762 0.44026,0.42333 0.66039,0.9652 0.60959,1.76106 -0.0339,0.62654 -0.508,1.45627 -1.30386,1.81187 -0.77893,0.3556 -1.79493,0.4064 -2.91253,0.3556 0.1016,0.71119 0.0508,1.40546 -0.13546,2.11666 0.99906,-0.23707 1.99813,-0.28787 2.86172,0 0.0169,-0.47413 0.0339,-1.15147 0.0677,-1.60867 z m -3.1496,3.84386 c 0,0.69427 0.74507,1.27 1.65947,1.27 0.93133,0 1.67639,-0.57573 1.67639,-1.27 0,-0.71119 -0.74506,-1.28693 -1.67639,-1.28693 -0.9144,0 -1.65947,0.57574 -1.65947,1.28693 z"
         style="font-weight:bold;font-stretch:expanded;font-family:'Anka CLM';-inkscape-font-specification:'Anka CLM Bold Expanded'"
         id="path30728" />
      <path
         d="m 60.023909,139.48734 c 0,1.13453 0.3048,2.06586 1.015998,2.77706 0.829732,0.84666 2.065863,1.26999 3.53906,1.26999 1.456264,0 2.709328,-0.42333 3.53906,-1.26999 0.728132,-0.72813 1.083731,-1.778 1.083731,-2.92946 0,-0.7112 -0.2032,-1.524 -0.457199,-2.50613 l -0.761999,-2.9972 c -0.169333,-0.66039 -0.321732,-1.30386 -0.321732,-1.89653 0,-0.49106 0.101599,-0.96519 0.355599,-1.40546 0.406399,-0.6604 0.931331,-1.1176 2.015063,-1.3208 0.253999,-0.0339 0.507999,-0.0677 0.745065,-0.0677 0.423332,0 0.846665,0.0677 1.286931,0.18627 l 0.237066,-0.59267 c -0.592666,-0.22013 -1.219198,-0.33867 -1.913463,-0.33867 -0.423333,0 -0.863598,0.0508 -1.354664,0.13547 -1.253064,0.22013 -2.624662,0.98213 -3.217327,2.06586 -0.321733,0.5588 -0.457199,1.18533 -0.457199,1.8796 0,0.62653 0.118533,1.30386 0.321733,2.04893 l 0.999064,3.74226 c 0.254,0.9144 0.406399,1.6764 0.406399,2.28599 0,0.7112 -0.135466,1.3208 -0.592665,1.778 -0.372533,0.37253 -0.914398,0.5588 -1.507064,0.5588 -0.745065,0 -1.422397,-0.3556 -1.879596,-0.89747 -0.575732,-0.66039 -0.880532,-1.65946 -0.880532,-2.74319 0,-1.5748 0.457199,-2.87866 1.473197,-3.87773 l -0.406399,-0.54186 c -0.965198,0.42333 -1.862663,1.1176 -2.489195,2.01506 -0.524932,0.74507 -0.778932,1.6256 -0.778932,2.6416 z"
         style="font-weight:bold;font-stretch:expanded;font-family:'Anka CLM';-inkscape-font-specification:'Anka CLM Bold Expanded'"
         id="path30730" />
      <path
         d="m 54.97782,133.71308 c 0.3556,2.35373 0.474133,4.57199 0.270933,7.28132 l -6.451587,-7.02732 c -0.592666,-0.0169 -1.337731,-0.0847 -1.930396,-0.254 0.626532,3.48826 0.507999,6.36692 -0.372533,9.82131 1.083731,-0.28786 2.167463,-0.38946 3.251194,0 -0.558799,-2.57386 -0.558799,-4.94452 -0.270933,-7.41678 l 6.51932,7.16279 c 0.592666,0 1.134532,0.0677 1.642531,0.25399 -0.507999,-3.43746 -0.3048,-6.62092 0.541865,-9.82131 -0.982131,0.33867 -2.048929,0.33867 -3.200394,0 z"
         style="font-weight:bold;font-stretch:expanded;font-family:'Anka CLM';-inkscape-font-specification:'Anka CLM Bold Expanded'"
         id="path30732" />
      <path
         d="m 36.283462,138.09881 c -0.863598,0.66039 -1.811863,0.98213 -2.861728,0.94826 0.440266,1.94733 0.2032,3.25119 -0.186266,4.48732 1.117598,-0.30479 2.167462,-0.37253 3.098794,0 -0.575732,-1.77799 -0.507999,-3.96239 -0.0508,-5.43558 z m -3.471327,-2.76013 0.321733,0.57573 c 1.49013,-0.9144 2.844795,-1.30386 4.588924,-1.30386 1.320798,0 2.404529,0.23706 3.217327,1.04986 0.812799,0.77893 1.168398,1.79493 1.168398,3.09879 0,1.8288 -0.524932,3.2004 -1.320797,4.77519 0.948265,-0.32173 1.981196,-0.35559 3.149594,0 0.491065,-1.50706 0.694265,-2.84479 0.694265,-4.21639 0,-1.82879 -0.507999,-3.26812 -1.625597,-4.26719 -1.151464,-1.016 -2.539995,-1.33773 -4.301058,-1.33773 -2.370662,0 -4.233325,0.49107 -5.892789,1.6256 z"
         style="font-weight:bold;font-stretch:expanded;font-family:'Anka CLM';-inkscape-font-specification:'Anka CLM Bold Expanded'"
         id="path30734" />
      <path
         d="m 18.791404,133.71308 c 0.355599,2.35373 0.474132,4.57199 0.270933,7.28132 l -6.451588,-7.02732 c -0.592665,-0.0169 -1.33773,-0.0847 -1.930396,-0.254 0.626532,3.48826 0.507999,6.36692 -0.372532,9.82131 1.083731,-0.28786 2.167462,-0.38946 3.251193,0 -0.558799,-2.57386 -0.558799,-4.94452 -0.270933,-7.41678 l 6.519321,7.16279 c 0.592665,0 1.134531,0.0677 1.64253,0.25399 -0.507999,-3.43746 -0.304799,-6.62092 0.541866,-9.82131 -0.982132,0.33867 -2.04893,0.33867 -3.200394,0 z"
         style="font-weight:bold;font-stretch:expanded;font-family:'Anka CLM';-inkscape-font-specification:'Anka CLM Bold Expanded'"
         id="path30736" />
      <path
         d="m -1.1729539,138.25121 c 0,-1.1684 0.47413238,-2.15053 1.16839769,-2.794 0.7619985,-0.7112 1.79492981,-1.08373 2.84479441,-1.08373 0.9990647,0 1.7779965,0.254 2.370662,0.84666 0.4233325,0.42334 0.6942653,1.03294 0.6942653,1.71027 0,0.8636 -0.338666,1.57479 -1.015998,2.11666 -0.9651981,0.762 -2.1335958,1.13453 -3.5390597,1.27 l 0.0508,0.508 c 1.5070637,0.0169 3.0141274,-0.0847 4.4365246,-0.62654 1.4223972,-0.54186 2.6246615,-1.57479 2.6246615,-3.04799 0,-1.25306 -0.846665,-2.21826 -2.031996,-2.76013 -1.0498646,-0.49106 -2.3029288,-0.67733 -3.8438591,-0.67733 -1.4562638,0 -2.84479441,0.22013 -4.0301254,0.9144 -1.5578636,0.93133 -2.2521289,2.31986 -2.2521289,3.87772 0,1.45627 0.6434654,2.8448 2.0658626,3.84386 1.11759779,0.77894 2.42146189,1.18533 4.0470587,1.18533 2.0150627,0 3.5898596,-0.54186 4.9783902,-1.38853 l -0.2878661,-0.52493 c -1.3207974,0.67733 -2.6923947,0.9652 -3.8099925,0.9652 -1.2699975,0 -2.35372871,-0.33867 -3.11572721,-1.03293 -0.91439821,-0.8128 -1.35466399,-2.01506 -1.35466409,-3.30199 z"
         style="font-weight:bold;font-stretch:expanded;font-family:'Anka CLM';-inkscape-font-specification:'Anka CLM Bold Expanded'"
         id="path30738" />
      <path
         d="m -8.4711864,133.71308 c 0.6265321,1.81186 0.5587989,3.75919 0,5.84199 0.8127984,-0.5588 1.69333,-1.03293 3.0310607,-0.9652 -0.4233325,-1.55786 -0.4571991,-3.18346 0.0508,-4.87679 -0.9821314,0.28787 -1.9811961,0.38947 -3.0818607,0 z"
         style="font-weight:bold;font-stretch:expanded;font-family:'Anka CLM';-inkscape-font-specification:'Anka CLM Bold Expanded'"
         id="path30740" />
      <path
         d="m -21.238875,135.25401 0.338666,0.54187 c 1.388531,-0.79587 2.556929,-1.08373 3.708393,-1.08373 1.320797,0 2.421462,0.27093 3.217327,1.06679 0.761998,0.74507 1.117598,1.64253 1.117598,2.96333 0,1.25306 -0.524933,2.286 -1.269998,2.96333 -0.812798,0.72813 -1.727196,0.98213 -2.980261,0.98213 -1.185331,0 -1.981196,-0.23707 -2.98026,-0.69427 0.321732,1.7272 0.203199,3.6576 -0.372533,5.53719 0.982131,-0.3048 2.031996,-0.37253 3.166527,0 -0.440266,-1.33773 -0.474132,-2.87866 -0.474132,-4.18252 0.660398,0.11853 1.219197,0.18626 2.015062,0.18626 1.659464,0 2.912528,-0.22013 4.131726,-1.40546 0.846665,-0.84666 1.28693,-2.11666 1.28693,-3.57293 0,-1.35466 -0.507999,-2.52306 -1.38853,-3.36972 -0.914398,-0.88053 -2.285996,-1.4732 -4.199459,-1.4732 -2.167462,0 -3.742259,0.47413 -5.317056,1.54093 z"
         style="font-weight:bold;font-stretch:expanded;font-family:'Anka CLM';-inkscape-font-specification:'Anka CLM Bold Expanded'"
         id="path30742" />
      <path
         d="m -41.084665,139.48734 c 0,1.13453 0.3048,2.06586 1.015998,2.77706 0.829732,0.84666 2.065863,1.26999 3.53906,1.26999 1.456264,0 2.709328,-0.42333 3.53906,-1.26999 0.728132,-0.72813 1.083731,-1.778 1.083731,-2.92946 0,-0.7112 -0.2032,-1.524 -0.457199,-2.50613 l -0.761999,-2.9972 c -0.169333,-0.66039 -0.321732,-1.30386 -0.321732,-1.89653 0,-0.49106 0.1016,-0.96519 0.355599,-1.40546 0.406399,-0.6604 0.931332,-1.1176 2.015063,-1.3208 0.253999,-0.0339 0.507999,-0.0677 0.745065,-0.0677 0.423332,0 0.846665,0.0677 1.286931,0.18627 l 0.237066,-0.59267 c -0.592666,-0.22013 -1.219198,-0.33867 -1.913463,-0.33867 -0.423332,0 -0.863598,0.0508 -1.354664,0.13547 -1.253064,0.22013 -2.624661,0.98213 -3.217327,2.06586 -0.321733,0.5588 -0.457199,1.18533 -0.457199,1.8796 0,0.62653 0.118533,1.30386 0.321733,2.04893 l 0.999064,3.74226 c 0.254,0.9144 0.4064,1.6764 0.4064,2.28599 0,0.7112 -0.135467,1.3208 -0.592666,1.778 -0.372533,0.37253 -0.914398,0.5588 -1.507064,0.5588 -0.745065,0 -1.422397,-0.3556 -1.879596,-0.89747 -0.575732,-0.66039 -0.880532,-1.65946 -0.880532,-2.74319 0,-1.5748 0.457199,-2.87866 1.473197,-3.87773 l -0.406399,-0.54186 c -0.965198,0.42333 -1.862663,1.1176 -2.489195,2.01506 -0.524932,0.74507 -0.778932,1.6256 -0.778932,2.6416 z"
         style="font-weight:bold;font-stretch:expanded;font-family:'Anka CLM';-inkscape-font-specification:'Anka CLM Bold Expanded'"
         id="path30744" />
      <path
         d="m -45.859858,133.71308 c 0.626532,1.81186 0.558799,3.75919 0,5.84199 0.812798,-0.5588 1.69333,-1.03293 3.03106,-0.9652 -0.423332,-1.55786 -0.457199,-3.18346 0.0508,-4.87679 -0.982131,0.28787 -1.981196,0.38947 -3.08186,0 z"
         style="font-weight:bold;font-stretch:expanded;font-family:'Anka CLM';-inkscape-font-specification:'Anka CLM Bold Expanded'"
         id="path30746" />
      <path
         d="m -62.996316,143.53439 c 1.777996,0 3.318926,-0.27093 4.436524,-1.15146 0.999065,-0.79586 1.523997,-1.9812 1.523997,-3.35279 0,-1.35467 -0.643465,-2.57386 -1.727196,-3.36973 -0.829732,-0.6096 -1.523997,-0.93133 -2.438396,-1.18533 1.066798,-0.22013 2.201329,-0.33867 3.318927,-0.38947 v -0.52493 c -1.761063,-0.0169 -3.251193,0.1016 -5.113856,0.47413 -1.879597,-0.37253 -3.352794,-0.49106 -5.13079,-0.47413 v 0.52493 c 1.117597,0.0508 2.252129,0.16934 3.318926,0.38947 -0.914398,0.254 -1.608663,0.57573 -2.421461,1.18533 -1.100665,0.79587 -1.74413,2.01506 -1.74413,3.36973 0,1.37159 0.524932,2.55693 1.523997,3.35279 1.117597,0.88053 2.658528,1.15146 4.453458,1.15146 z m 0,-8.58518 c 1.981196,0.67733 3.403593,1.96426 3.403593,4.16559 0,1.1176 -0.321733,2.0828 -0.931332,2.70933 -0.660398,0.67733 -1.422397,1.0668 -2.472261,1.0668 -1.066798,0 -1.828797,-0.38947 -2.489196,-1.0668 -0.592665,-0.62653 -0.931331,-1.59173 -0.931331,-2.70933 0,-2.20133 1.422397,-3.48826 3.420527,-4.16559 z"
         style="font-weight:bold;font-stretch:expanded;font-family:'Anka CLM';-inkscape-font-specification:'Anka CLM Bold Expanded'"
         id="path30748" />
      <path
         d="m -80.081998,134.79681 c 0.0508,-0.27093 0.08467,-0.5588 0.135467,-0.82973 -0.863599,0.3048 -1.862663,0.42333 -2.997195,0.37253 0.592666,3.18346 0.491066,6.28226 -0.592665,9.27945 0.965198,-0.3556 2.031996,-0.38946 3.18346,-0.0508 -0.03387,-0.49106 -0.0508,-0.99906 -0.06773,-1.49013 1.405464,0.8128 2.793995,1.43933 4.724391,1.43933 1.354664,0 2.523062,-0.27093 3.589859,-1.30386 0.795866,-0.77893 1.439331,-1.84573 1.439331,-3.52213 0,-1.54093 -0.457199,-2.69239 -1.49013,-3.67453 -0.965199,-0.88053 -2.387596,-1.30386 -4.013193,-1.30386 -1.134531,0 -2.455328,0.2032 -3.911592,1.08373 z m -0.1016,0.82973 c 0.660399,-0.52493 1.659464,-1.01599 2.912528,-1.01599 1.269997,0 2.269062,0.40639 3.031061,1.13453 0.728132,0.7112 1.015998,1.64253 1.015998,2.79399 0,1.1684 -0.389466,2.20133 -1.032932,2.8448 -0.812798,0.77893 -1.69333,1.11759 -2.709328,1.11759 -1.38853,0 -2.641594,-0.62653 -3.471326,-1.18533 -0.03387,-1.91346 0.03387,-3.80999 0.253999,-5.68959 z"
         style="font-weight:bold;font-stretch:expanded;font-family:'Anka CLM';-inkscape-font-specification:'Anka CLM Bold Expanded'"
         id="path30750" />
      <path
         d="m -93.391549,135.86361 c 2.523061,-0.22013 5.198523,-0.23707 7.992517,0.0508 -0.220133,-0.8128 -0.253999,-1.016 0,-1.778 -2.743194,0.23707 -5.537189,0.28787 -7.992517,-0.0169 0.152399,0.8128 0.203199,0.99906 0,1.74413 z"
         style="font-weight:bold;font-stretch:expanded;font-family:'Anka CLM';-inkscape-font-specification:'Anka CLM Bold Expanded'"
         id="path30752" />
      <path
         d="m -104.70298,138.25121 c 0,-1.1684 0.47413,-2.15053 1.16839,-2.794 0.762,-0.7112 1.79493,-1.08373 2.8448,-1.08373 0.999064,0 1.777995,0.254 2.370661,0.84666 0.423332,0.42334 0.694265,1.03294 0.694265,1.71027 0,0.8636 -0.338666,1.57479 -1.015998,2.11666 -0.965198,0.762 -2.133598,1.13453 -3.539058,1.27 l 0.0508,0.508 c 1.50706,0.0169 3.014126,-0.0847 4.436523,-0.62654 1.422397,-0.54186 2.624661,-1.57479 2.624661,-3.04799 0,-1.25306 -0.846665,-2.21826 -2.031996,-2.76013 -1.049864,-0.49106 -2.302928,-0.67733 -3.843858,-0.67733 -1.45626,0 -2.8448,0.22013 -4.03013,0.9144 -1.55786,0.93133 -2.25212,2.31986 -2.25212,3.87772 0,1.45627 0.64346,2.8448 2.06586,3.84386 1.1176,0.77894 2.42146,1.18533 4.04706,1.18533 2.015059,0 3.589856,-0.54186 4.978387,-1.38853 l -0.287867,-0.52493 c -1.320797,0.67733 -2.692394,0.9652 -3.80999,0.9652 -1.27,0 -2.35373,-0.33867 -3.11573,-1.03293 -0.9144,-0.8128 -1.35466,-2.01506 -1.35466,-3.30199 z"
         style="font-weight:bold;font-stretch:expanded;font-family:'Anka CLM';-inkscape-font-specification:'Anka CLM Bold Expanded'"
         id="path30754" />
      <path
         d="m -118.53748,138.25121 c 0,-1.1684 0.47413,-2.15053 1.1684,-2.794 0.762,-0.7112 1.79493,-1.08373 2.84479,-1.08373 0.99907,0 1.778,0.254 2.37066,0.84666 0.42334,0.42334 0.69427,1.03294 0.69427,1.71027 0,0.8636 -0.33867,1.57479 -1.016,2.11666 -0.9652,0.762 -2.1336,1.13453 -3.53906,1.27 l 0.0508,0.508 c 1.50706,0.0169 3.01413,-0.0847 4.43653,-0.62654 1.42239,-0.54186 2.62466,-1.57479 2.62466,-3.04799 0,-1.25306 -0.84667,-2.21826 -2.032,-2.76013 -1.04986,-0.49106 -2.30293,-0.67733 -3.84386,-0.67733 -1.45626,0 -2.84479,0.22013 -4.03012,0.9144 -1.55787,0.93133 -2.25213,2.31986 -2.25213,3.87772 0,1.45627 0.64346,2.8448 2.06586,3.84386 1.1176,0.77894 2.42146,1.18533 4.04706,1.18533 2.01506,0 3.58986,-0.54186 4.97839,-1.38853 l -0.28787,-0.52493 c -1.32079,0.67733 -2.69239,0.9652 -3.80999,0.9652 -1.27,0 -2.35373,-0.33867 -3.11573,-1.03293 -0.91439,-0.8128 -1.35466,-2.01506 -1.35466,-3.30199 z"
         style="font-weight:bold;font-stretch:expanded;font-family:'Anka CLM';-inkscape-font-specification:'Anka CLM Bold Expanded'"
         id="path30756" />
      <path
         d="m -133.6589,135.25401 0.33867,0.54187 c 1.38853,-0.79587 2.55692,-1.08373 3.70839,-1.08373 1.3208,0 2.42146,0.27093 3.21733,1.06679 0.76199,0.74507 1.11759,1.64253 1.11759,2.96333 0,1.25306 -0.52493,2.286 -1.26999,2.96333 -0.8128,0.72813 -1.7272,0.98213 -2.98026,0.98213 -1.18534,0 -1.9812,-0.23707 -2.98027,-0.69427 0.32174,1.7272 0.2032,3.6576 -0.37253,5.53719 0.98213,-0.3048 2.032,-0.37253 3.16653,0 -0.44027,-1.33773 -0.47413,-2.87866 -0.47413,-4.18252 0.6604,0.11853 1.21919,0.18626 2.01506,0.18626 1.65946,0 2.91253,-0.22013 4.13172,-1.40546 0.84667,-0.84666 1.28694,-2.11666 1.28694,-3.57293 0,-1.35466 -0.508,-2.52306 -1.38853,-3.36972 -0.9144,-0.88053 -2.286,-1.4732 -4.19946,-1.4732 -2.16747,0 -3.74226,0.47413 -5.31706,1.54093 z"
         style="font-weight:bold;font-stretch:expanded;font-family:'Anka CLM';-inkscape-font-specification:'Anka CLM Bold Expanded'"
         id="path30758" />
      <path
         d="m -138.9082,138.42054 c 1.016,-0.1016 1.74413,-0.2032 2.6416,-0.74507 0.79586,-0.49106 1.21919,-1.18533 1.26999,-2.03199 0.0508,-1.08373 -0.44026,-1.94733 -1.45626,-2.50613 -0.89747,-0.508 -1.96426,-0.6604 -3.25119,-0.72813 -1.15147,-0.0677 -2.15053,-0.0339 -3.1496,0.0847 -1.08373,0.13547 -2.38759,0.47414 -3.48826,0.88053 l 0.254,0.62654 c 1.8288,-0.6096 3.80999,-0.88053 5.82506,-0.77894 0.89746,0.0508 1.65946,0.28787 2.16746,0.762 0.44026,0.42334 0.6604,0.9652 0.6096,1.76107 -0.0339,0.62653 -0.508,1.45626 -1.30387,1.81186 -0.77893,0.3556 -1.79493,0.4064 -2.91252,0.3556 0.1016,0.7112 0.0508,1.40546 -0.13547,2.11666 0.99906,-0.23706 1.99813,-0.28786 2.86173,0 0.0169,-0.47413 0.0339,-1.15146 0.0677,-1.60866 z m -3.14959,3.84386 c 0,0.69426 0.74506,1.26999 1.65946,1.26999 0.93133,0 1.6764,-0.57573 1.6764,-1.26999 0,-0.7112 -0.74507,-1.28693 -1.6764,-1.28693 -0.9144,0 -1.65946,0.57573 -1.65946,1.28693 z"
         style="font-weight:bold;font-stretch:expanded;font-family:'Anka CLM';-inkscape-font-specification:'Anka CLM Bold Expanded'"
         id="path30760" />
      <path
         d="m 65.848977,152.59582 c 0.3556,2.35373 0.474133,4.572 0.270933,7.28132 l -6.451587,-7.02732 c -0.592666,-0.0169 -1.337731,-0.0847 -1.930396,-0.254 0.626532,3.48826 0.507999,6.36692 -0.372533,9.82132 1.083731,-0.28787 2.167462,-0.38947 3.251194,0 -0.558799,-2.57386 -0.558799,-4.94453 -0.270933,-7.41679 l 6.51932,7.16279 c 0.592666,0 1.134531,0.0677 1.64253,0.254 -0.507999,-3.43746 -0.304799,-6.62092 0.541866,-9.82132 -0.982131,0.33867 -2.048929,0.33867 -3.200394,0 z"
         style="font-weight:bold;font-stretch:expanded;font-family:'Anka CLM';-inkscape-font-specification:'Anka CLM Bold Expanded'"
         id="path30762" />
      <path
         d="m 45.884619,157.13395 c 0,-1.1684 0.474133,-2.15053 1.168398,-2.794 0.761999,-0.71119 1.79493,-1.08373 2.844795,-1.08373 0.999064,0 1.777996,0.254 2.370662,0.84667 0.423332,0.42333 0.694265,1.03293 0.694265,1.71026 0,0.8636 -0.338666,1.5748 -1.015998,2.11666 -0.965198,0.762 -2.133596,1.13453 -3.53906,1.27 l 0.0508,0.508 c 1.507064,0.0169 3.014127,-0.0847 4.436525,-0.62653 1.422397,-0.54187 2.624661,-1.5748 2.624661,-3.048 0,-1.25306 -0.846665,-2.21826 -2.031996,-2.76012 -1.049864,-0.49107 -2.302929,-0.67734 -3.843859,-0.67734 -1.456264,0 -2.844794,0.22014 -4.030125,0.9144 -1.557864,0.93133 -2.252129,2.31986 -2.252129,3.87773 0,1.45626 0.643465,2.84479 2.065862,3.84386 1.117598,0.77893 2.421462,1.18533 4.047059,1.18533 2.015063,0 3.58986,-0.54187 4.97839,-1.38853 l -0.287866,-0.52493 c -1.320797,0.67733 -2.692395,0.96519 -3.809992,0.96519 -1.269998,0 -2.353729,-0.33866 -3.115728,-1.03293 -0.914398,-0.8128 -1.354664,-2.01506 -1.354664,-3.30199 z"
         style="font-weight:bold;font-stretch:expanded;font-family:'Anka CLM';-inkscape-font-specification:'Anka CLM Bold Expanded'"
         id="path30764" />
      <path
         d="m 38.586372,152.59582 c 0.626532,1.81187 0.558799,3.7592 0,5.84199 0.812798,-0.5588 1.69333,-1.03293 3.03106,-0.9652 -0.423332,-1.55786 -0.457199,-3.18346 0.0508,-4.87679 -0.982131,0.28787 -1.981196,0.38947 -3.08186,0 z"
         style="font-weight:bold;font-stretch:expanded;font-family:'Anka CLM';-inkscape-font-specification:'Anka CLM Bold Expanded'"
         id="path30766" />
      <path
         d="m 33.641853,152.59582 c 0.626532,1.81187 0.558799,3.7592 0,5.84199 0.812798,-0.5588 1.69333,-1.03293 3.03106,-0.9652 -0.423332,-1.55786 -0.457199,-3.18346 0.0508,-4.87679 -0.982131,0.28787 -1.981196,0.38947 -3.08186,0 z"
         style="font-weight:bold;font-stretch:expanded;font-family:'Anka CLM';-inkscape-font-specification:'Anka CLM Bold Expanded'"
         id="path30768" />
      <path
         d="m 12.847769,157.13395 c 0,-1.1684 0.474133,-2.15053 1.168398,-2.794 0.761999,-0.71119 1.79493,-1.08373 2.844795,-1.08373 0.999064,0 1.777996,0.254 2.370662,0.84667 0.423332,0.42333 0.694265,1.03293 0.694265,1.71026 0,0.8636 -0.338666,1.5748 -1.015998,2.11666 -0.965198,0.762 -2.133596,1.13453 -3.53906,1.27 l 0.0508,0.508 c 1.507064,0.0169 3.014127,-0.0847 4.436525,-0.62653 1.422397,-0.54187 2.624661,-1.5748 2.624661,-3.048 0,-1.25306 -0.846665,-2.21826 -2.031996,-2.76012 -1.049864,-0.49107 -2.302929,-0.67734 -3.843859,-0.67734 -1.456264,0 -2.844794,0.22014 -4.030125,0.9144 -1.557864,0.93133 -2.252129,2.31986 -2.252129,3.87773 0,1.45626 0.643465,2.84479 2.065862,3.84386 1.117598,0.77893 2.421462,1.18533 4.047059,1.18533 2.015063,0 3.58986,-0.54187 4.97839,-1.38853 l -0.287866,-0.52493 c -1.320797,0.67733 -2.692395,0.96519 -3.809992,0.96519 -1.269998,0 -2.353729,-0.33866 -3.115728,-1.03293 -0.914398,-0.8128 -1.354664,-2.01506 -1.354664,-3.30199 z"
         style="font-weight:bold;font-stretch:expanded;font-family:'Anka CLM';-inkscape-font-specification:'Anka CLM Bold Expanded'"
         id="path30770" />
      <path
         d="m 5.549537,152.59582 c 0.6265321,1.81187 0.5587989,3.7592 0,5.84199 0.8127984,-0.5588 1.69333,-1.03293 3.0310607,-0.9652 -0.4233325,-1.55786 -0.4571991,-3.18346 0.0508,-4.87679 -0.9821314,0.28787 -1.9811961,0.38947 -3.0818607,0 z"
         style="font-weight:bold;font-stretch:expanded;font-family:'Anka CLM';-inkscape-font-specification:'Anka CLM Bold Expanded'"
         id="path30772" />
      <path
         d="m -2.2736277,162.41714 c 1.77799646,0 3.3189268,-0.27093 4.4365246,-1.15147 0.9990647,-0.79586 1.523997,-1.98119 1.523997,-3.35279 0,-1.35466 -0.6434654,-2.57386 -1.7271966,-3.36973 -0.8297317,-0.6096 -1.52399704,-0.93133 -2.43839524,-1.18533 1.0667979,-0.22013 2.20132904,-0.33866 3.31892684,-0.38946 v -0.52494 c -1.7610632,-0.0169 -3.25119364,0.1016 -5.1138566,0.47414 -1.8795963,-0.37254 -3.3527934,-0.49107 -5.1307899,-0.47414 v 0.52494 c 1.1175978,0.0508 2.2521289,0.16933 3.3189268,0.38946 -0.9143982,0.254 -1.6086635,0.57573 -2.4214619,1.18533 -1.1006645,0.79587 -1.7441299,2.01507 -1.7441299,3.36973 0,1.3716 0.5249323,2.55693 1.523997,3.35279 1.1175978,0.88054 2.6585281,1.15147 4.4534579,1.15147 z m 0,-8.58518 c 1.98119606,0.67733 3.4035933,1.96426 3.4035933,4.16559 0,1.11759 -0.32173274,2.08279 -0.93133154,2.70932 -0.6603987,0.67734 -1.42239716,1.0668 -2.47226176,1.0668 -1.0667979,0 -1.8287964,-0.38946 -2.4891951,-1.0668 -0.5926655,-0.62653 -0.9313315,-1.59173 -0.9313315,-2.70932 0,-2.20133 1.4223972,-3.48826 3.4205266,-4.16559 z"
         style="font-weight:bold;font-stretch:expanded;font-family:'Anka CLM';-inkscape-font-specification:'Anka CLM Bold Expanded'"
         id="path30774" />
      <path
         d="m -11.519194,153.93355 c -1.100664,-0.98213 -2.336795,-1.33773 -3.962392,-1.33773 -2.184396,0 -3.894659,0.49107 -5.418656,1.6256 l 0.270933,0.57573 c 1.371597,-0.9144 2.607728,-1.30386 4.216391,-1.30386 1.151465,0 2.015063,0.16933 2.844795,0.9144 0.728132,0.6604 1.117598,1.86266 1.117598,3.11572 0,1.6256 -0.507999,3.302 -1.303865,4.89373 1.032932,-0.3556 2.082796,-0.33867 3.115728,0.0339 0.457199,-1.35466 0.7111983,-2.72626 0.7111983,-3.97932 0,-2.032 -0.3725323,-3.45439 -1.5917303,-4.53813 z"
         style="font-weight:bold;font-stretch:expanded;font-family:'Anka CLM';-inkscape-font-specification:'Anka CLM Bold Expanded'"
         id="path30776" />
      <path
         d="m -33.159931,154.13675 0.338666,0.54187 c 1.38853,-0.79587 2.556928,-1.08373 3.708392,-1.08373 1.320798,0 2.421462,0.27093 3.217327,1.0668 0.761999,0.74506 1.117598,1.64253 1.117598,2.96332 0,1.25307 -0.524932,2.286 -1.269997,2.96333 -0.812799,0.72813 -1.727197,0.98213 -2.980261,0.98213 -1.185331,0 -1.981196,-0.23706 -2.980261,-0.69426 0.321733,1.72719 0.2032,3.65759 -0.372533,5.53719 0.982132,-0.3048 2.031996,-0.37254 3.166527,0 -0.440265,-1.33773 -0.474132,-2.87866 -0.474132,-4.18253 0.660399,0.11853 1.219198,0.18627 2.015063,0.18627 1.659463,0 2.912527,-0.22013 4.131725,-1.40547 0.846665,-0.84666 1.286931,-2.11666 1.286931,-3.57292 0,-1.35467 -0.507999,-2.52306 -1.388531,-3.36973 -0.914398,-0.88053 -2.285995,-1.4732 -4.199458,-1.4732 -2.167463,0 -3.74226,0.47414 -5.317056,1.54093 z"
         style="font-weight:bold;font-stretch:expanded;font-family:'Anka CLM';-inkscape-font-specification:'Anka CLM Bold Expanded'"
         id="path30778" />
      <path
         d="m -35.378164,161.06247 c 0,-0.84666 -0.761999,-1.45626 -1.727197,-1.45626 -0.982131,0 -1.761063,0.6096 -1.761063,1.35466 0,0.72814 0.778932,1.33774 1.761063,1.33774 0.08467,0 0.186267,0 0.270933,-0.0169 -0.118533,0.72813 -0.609599,1.38853 -1.134531,1.8796 l 0.355599,0.42333 c 0.711199,-0.47413 1.388531,-1.13453 1.79493,-1.8796 0.3048,-0.55879 0.440266,-1.10066 0.440266,-1.64253 z"
         style="font-weight:bold;font-stretch:expanded;font-family:'Anka CLM';-inkscape-font-specification:'Anka CLM Bold Expanded'"
         id="path30780" />
      <path
         d="m -59.677428,153.23929 0.1524,-0.6604 c -1.185331,0.47413 -2.269063,0.74507 -3.149594,0.54187 0.592665,3.77612 0.575732,6.79025 0,9.29638 1.134531,-0.37253 2.133596,-0.3048 3.200393,0 -0.728131,-2.96333 -0.812798,-5.72346 -0.372532,-8.33119 0.948265,-0.42333 1.947329,-0.62653 3.064927,-0.62653 1.337731,0 2.472262,0.254 3.28506,1.0668 0.778932,0.77893 1.100665,1.84573 1.100665,3.25119 0,1.524 -0.541866,3.16653 -1.354664,4.63973 1.015998,-0.28787 2.048929,-0.38947 3.149594,0 0.524932,-1.40547 0.728132,-2.794 0.728132,-4.45346 0,-1.54093 -0.507999,-3.06493 -1.608664,-4.06399 -1.151464,-1.04987 -2.556928,-1.30387 -4.385725,-1.30387 -1.473197,0 -2.692394,0.22014 -3.809992,0.64347 z"
         style="font-weight:bold;font-stretch:expanded;font-family:'Anka CLM';-inkscape-font-specification:'Anka CLM Bold Expanded'"
         id="path30782" />
      <path
         d="m -67.619141,152.59582 c 0.626532,1.81187 0.558799,3.7592 0,5.84199 0.812798,-0.5588 1.69333,-1.03293 3.03106,-0.9652 -0.423332,-1.55786 -0.457199,-3.18346 0.0508,-4.87679 -0.982131,0.28787 -1.981196,0.38947 -3.08186,0 z"
         style="font-weight:bold;font-stretch:expanded;font-family:'Anka CLM';-inkscape-font-specification:'Anka CLM Bold Expanded'"
         id="path30784" />
      <path
         d="m -77.609767,156.93075 c -0.457199,0.7112 -1.151465,1.38853 -2.319862,1.9812 0.270933,2.74319 -0.03387,5.23238 -0.761999,7.53531 1.032932,-0.4064 2.167463,-0.3556 3.38666,-0.0169 -0.457199,-2.47226 -0.711198,-5.33399 -0.304799,-9.49958 z m -3.014128,-2.6416 0.4064,0.4572 c 1.33773,-0.96519 2.235195,-1.30386 3.759192,-1.30386 1.371598,0 2.472262,0.3556 3.301994,1.1684 0.728132,0.72813 1.202264,1.82879 1.202264,3.13266 0,0.98213 -0.304799,2.11666 -1.151464,2.96332 -0.609599,0.57574 -1.523997,1.016 -2.675462,1.016 -0.372532,0 -0.694265,-0.0169 -0.999064,-0.0677 l 0.0508,0.62653 c 0.491066,0.1016 1.049865,0.1016 1.676397,0.1016 1.269998,0 3.200394,-0.59266 4.267192,-1.64253 0.965198,-0.94826 1.303864,-1.778 1.303864,-3.08186 0,-1.54093 -0.575732,-2.67546 -1.608664,-3.69146 -1.202264,-1.1684 -3.064927,-1.3716 -4.131725,-1.3716 -2.184396,0 -3.606793,0.3048 -5.401723,1.69333 z"
         style="font-weight:bold;font-stretch:expanded;font-family:'Anka CLM';-inkscape-font-specification:'Anka CLM Bold Expanded'"
         id="path30786" />
      <path
         d="m -92.951321,154.13675 0.338666,0.54187 c 1.388531,-0.79587 2.556928,-1.08373 3.708393,-1.08373 1.320797,0 2.421462,0.27093 3.217327,1.0668 0.761998,0.74506 1.117598,1.64253 1.117598,2.96332 0,1.25307 -0.524933,2.286 -1.269998,2.96333 -0.812798,0.72813 -1.727197,0.98213 -2.980261,0.98213 -1.185331,0 -1.981196,-0.23706 -2.980261,-0.69426 0.321733,1.72719 0.2032,3.65759 -0.372532,5.53719 0.982131,-0.3048 2.031996,-0.37254 3.166527,0 -0.440266,-1.33773 -0.474132,-2.87866 -0.474132,-4.18253 0.660398,0.11853 1.219197,0.18627 2.015062,0.18627 1.659464,0 2.912528,-0.22013 4.131725,-1.40547 0.846665,-0.84666 1.286931,-2.11666 1.286931,-3.57292 0,-1.35467 -0.507999,-2.52306 -1.38853,-3.36973 -0.914399,-0.88053 -2.285996,-1.4732 -4.199459,-1.4732 -2.167462,0 -3.742259,0.47414 -5.317056,1.54093 z"
         style="font-weight:bold;font-stretch:expanded;font-family:'Anka CLM';-inkscape-font-specification:'Anka CLM Bold Expanded'"
         id="path30788" />
      <path
         d="m -110.49419,153.51022 c 1.27,0 2.4384,0.4064 3.1496,1.1176 0.71119,0.7112 1.18533,1.69333 1.18533,2.91253 0,1.2192 -0.42334,2.18439 -1.2192,2.89559 -0.762,0.69427 -1.84573,1.03293 -3.11573,1.03293 -1.1176,0 -2.48919,-0.28786 -3.80999,-0.96519 l -0.28787,0.52493 c 1.38853,0.8636 3.1496,1.38853 5.01226,1.38853 2.64159,0 3.64066,-0.4572 4.70746,-1.524 0.8128,-0.8128 1.25306,-1.98119 1.25306,-3.38666 0,-1.35466 -0.3048,-2.42146 -1.3208,-3.43746 -1.06679,-1.0668 -2.43839,-1.4732 -4.40265,-1.4732 -1.9304,0 -3.69146,0.42334 -5.18159,1.524 l 0.3048,0.52493 c 1.33773,-0.79586 2.64159,-1.13453 3.72532,-1.13453 z"
         style="font-weight:bold;font-stretch:expanded;font-family:'Anka CLM';-inkscape-font-specification:'Anka CLM Bold Expanded'"
         id="path30790" />
      <path
         d="m -117.52149,153.93355 c -1.10067,-0.98213 -2.3368,-1.33773 -3.9624,-1.33773 -2.18439,0 -3.89466,0.49107 -5.41865,1.6256 l 0.27093,0.57573 c 1.3716,-0.9144 2.60773,-1.30386 4.21639,-1.30386 1.15147,0 2.01506,0.16933 2.8448,0.9144 0.72813,0.6604 1.11759,1.86266 1.11759,3.11572 0,1.6256 -0.50799,3.302 -1.30386,4.89373 1.03293,-0.3556 2.0828,-0.33867 3.11573,0.0339 0.4572,-1.35466 0.7112,-2.72626 0.7112,-3.97932 0,-2.032 -0.37254,-3.45439 -1.59173,-4.53813 z"
         style="font-weight:bold;font-stretch:expanded;font-family:'Anka CLM';-inkscape-font-specification:'Anka CLM Bold Expanded'"
         id="path30792" />
      <path
         d="m -131.33906,152.59582 c 0.62653,1.81187 0.55879,3.7592 0,5.84199 0.81279,-0.5588 1.69333,-1.03293 3.03106,-0.9652 -0.42334,-1.55786 -0.4572,-3.18346 0.0508,-4.87679 -0.98214,0.28787 -1.9812,0.38947 -3.08186,0 z"
         style="font-weight:bold;font-stretch:expanded;font-family:'Anka CLM';-inkscape-font-specification:'Anka CLM Bold Expanded'"
         id="path30794" />
      <path
         d="m -134.0653,161.06247 c 0,-0.84666 -0.762,-1.45626 -1.7272,-1.45626 -0.98213,0 -1.76106,0.6096 -1.76106,1.35466 0,0.72814 0.77893,1.33774 1.76106,1.33774 0.0847,0 0.18627,0 0.27094,-0.0169 -0.11854,0.72813 -0.6096,1.38853 -1.13453,1.8796 l 0.3556,0.42333 c 0.71119,-0.47413 1.38853,-1.13453 1.79492,-1.8796 0.3048,-0.55879 0.44027,-1.10066 0.44027,-1.64253 z"
         style="font-weight:bold;font-stretch:expanded;font-family:'Anka CLM';-inkscape-font-specification:'Anka CLM Bold Expanded'"
         id="path30796" />
      <path
         d="m 65.594955,181.29988 c 1.371597,0 2.946394,-0.44026 3.945459,-1.45626 l -0.338666,-0.4572 c -0.999065,0.79586 -1.930396,1.016 -3.251194,1.016 -1.083731,0 -2.048929,-0.32174 -2.827861,-1.0668 -0.711198,-0.67733 -1.049864,-1.5748 -1.049864,-2.7432 0,-1.20226 0.406399,-2.21826 1.134531,-2.92946 0.795865,-0.77893 1.828796,-1.13453 3.13266,-1.13453 1.185331,0 2.082796,0.28787 2.844795,0.82973 l 0.355599,-0.4064 c -1.168398,-0.99906 -2.506128,-1.47319 -4.182525,-1.47319 -1.64253,0 -3.064927,0.4064 -4.047059,1.38853 -0.829731,0.82973 -1.43933,2.01506 -1.43933,3.40359 0,1.27 0.220133,2.4892 1.253064,3.50519 1.083731,1.08374 2.607728,1.524 4.470391,1.524 z M 56.18004,168.85391 c 0.2032,1.94733 0.4064,4.06399 0.4064,6.09598 0,2.11667 -0.169333,4.2164 -0.524933,6.34999 0.812799,-0.32173 1.710264,-0.32173 2.793995,0 -0.1524,-2.04893 -0.270933,-3.94546 -0.270933,-5.75732 0,-2.45533 0.287866,-4.70746 0.711199,-6.68865 -1.015998,0.28786 -2.04893,0.33866 -3.115728,0 z"
         style="font-weight:bold;font-stretch:expanded;font-family:'Anka CLM';-inkscape-font-specification:'Anka CLM Bold Expanded'"
         id="path30798" />
      <path
         d="m 47.290065,172.37603 c 1.320797,0 2.404528,0.23707 3.217327,1.04987 0.812798,0.77893 1.168397,1.79493 1.168397,3.09879 0,1.8288 -0.524932,3.20039 -1.320797,4.77519 0.948265,-0.32173 1.981196,-0.3556 3.149594,0 0.491066,-1.50706 0.694265,-2.84479 0.694265,-4.21639 0,-1.8288 -0.507999,-3.26813 -1.625597,-4.26719 -1.151464,-1.016 -2.539995,-1.33773 -4.301058,-1.33773 -2.658528,0 -4.893724,0.62653 -6.637853,1.98119 l 0.423332,0.6096 c 0.1524,-0.1016 0.270933,-0.16933 0.406399,-0.27093 l 0.3048,4.43652 c 0.0508,0.62654 0.06773,1.2192 -0.135467,1.6256 -0.152399,0.3048 -0.457199,0.508 -0.880531,0.508 -0.474133,0 -0.897465,-0.16933 -1.236131,-0.44027 l -0.389466,0.57574 c 0.575732,0.4572 1.354664,0.84666 2.285995,0.84666 0.829732,0 1.371598,-0.13546 1.84573,-0.54186 0.982131,-0.84667 1.066798,-2.0828 0.948265,-3.57293 l -0.338666,-4.53812 c 0.778932,-0.254 1.777996,-0.32174 2.421462,-0.32174 z"
         style="font-weight:bold;font-stretch:expanded;font-family:'Anka CLM';-inkscape-font-specification:'Anka CLM Bold Expanded'"
         id="path30800" />
      <path
         d="m 26.343614,171.47857 c 0.355599,2.35373 0.474132,4.57199 0.270932,7.28132 l -6.451587,-7.02732 c -0.592665,-0.0169 -1.337731,-0.0847 -1.930396,-0.254 0.626532,3.48826 0.507999,6.36692 -0.372533,9.82131 1.083731,-0.28786 2.167463,-0.38946 3.251194,0 -0.558799,-2.57386 -0.558799,-4.94452 -0.270933,-7.41678 l 6.519321,7.16278 c 0.592665,0 1.134531,0.0677 1.64253,0.254 -0.507999,-3.43746 -0.3048,-6.62092 0.541865,-9.82131 -0.982131,0.33866 -2.048929,0.33866 -3.200393,0 z"
         style="font-weight:bold;font-stretch:expanded;font-family:'Anka CLM';-inkscape-font-specification:'Anka CLM Bold Expanded'"
         id="path30802" />
      <path
         d="m 11.340721,167.43151 c -1.6933305,0.37253 -3.0310612,1.0668 -4.2163922,2.20133 -1.5578636,1.45626 -2.3198621,3.36972 -2.3198621,5.55412 0,1.60866 0.4571991,3.08186 1.6086635,4.41959 1.1006645,1.28693 2.6246615,1.69333 4.3518578,1.69333 1.473197,0 2.675462,-0.47413 3.674526,-1.4224 1.151465,-1.10066 1.557864,-2.26906 1.557864,-3.77612 0,-1.18533 -0.270933,-2.1336 -1.015998,-3.01413 -0.761998,0.16933 -1.43933,0.18627 -2.235196,0.0169 0.4064,0.508 0.711199,1.59173 0.711199,2.70933 0,0.8128 -0.118533,2.57386 -0.897465,3.67453 -0.491066,0.67733 -1.219197,1.13453 -2.099729,1.13453 -0.423333,0 -1.4562639,-0.1016 -2.1674625,-1.3208 -0.6434654,-1.08373 -0.9482648,-2.43839 -0.9482648,-4.01319 0,-2.16746 0.4741324,-3.96239 1.6425301,-5.48639 0.7111986,-0.9144 1.5070642,-1.45626 2.4891952,-1.8288 z"
         style="font-weight:bold;font-stretch:expanded;font-family:'Anka CLM';-inkscape-font-specification:'Anka CLM Bold Expanded'"
         id="path30804" />
      <path
         d="m -0.24162208,171.47857 c 0.3555993,2.35373 0.4741324,4.57199 0.2709328,7.28132 l -6.45158732,-7.02732 c -0.5926655,-0.0169 -1.3377307,-0.0847 -1.9303962,-0.254 0.6265321,3.48826 0.507999,6.36692 -0.3725326,9.82131 1.0837312,-0.28786 2.1674624,-0.38946 3.2511936,0 -0.5587989,-2.57386 -0.5587989,-4.94452 -0.2709328,-7.41678 l 6.51932052,7.16278 c 0.59266548,0 1.13453108,0.0677 1.64253008,0.254 -0.507999,-3.43746 -0.3047994,-6.62092 0.5418656,-9.82131 -0.9821314,0.33866 -2.04892928,0.33866 -3.20039368,0 z"
         style="font-weight:bold;font-stretch:expanded;font-family:'Anka CLM';-inkscape-font-specification:'Anka CLM Bold Expanded'"
         id="path30806" />
      <path
         d="m -13.703569,171.47857 c 0.558799,3.69146 0.558799,6.85798 -0.06773,9.82131 1.066798,-0.32173 2.065862,-0.37253 2.997194,0 -0.592666,-3.47132 -0.745065,-6.67172 0.01693,-9.82131 -0.982131,0.33866 -1.964263,0.33866 -2.946394,0 z"
         style="font-weight:bold;font-stretch:expanded;font-family:'Anka CLM';-inkscape-font-specification:'Anka CLM Bold Expanded'"
         id="path30808" />
      <path
         d="m -16.920874,171.47857 0.1524,5.09692 c 0.0508,1.59173 -0.06773,2.50613 -0.761999,3.21733 -0.338666,0.33866 -0.931331,0.54186 -1.54093,0.54186 -0.609599,0 -1.354664,-0.2032 -1.89653,-0.57573 l -0.304799,0.47413 c 0.931331,0.74507 1.930396,1.0668 3.13266,1.0668 1.117598,0 2.015063,-0.3048 2.760128,-1.0668 0.829732,-0.81279 1.049865,-1.89653 1.100665,-3.23426 l 0.169333,-5.52025 c -0.897465,0.32173 -1.828797,0.3556 -2.810928,0 z"
         style="font-weight:bold;font-stretch:expanded;font-family:'Anka CLM';-inkscape-font-specification:'Anka CLM Bold Expanded'"
         id="path30810" />
      <path
         d="m -25.709252,171.47857 c 0.626532,1.81186 0.558799,3.75919 0,5.84199 0.812798,-0.5588 1.69333,-1.03294 3.03106,-0.9652 -0.423332,-1.55787 -0.457199,-3.18346 0.0508,-4.87679 -0.982131,0.28786 -1.981196,0.38946 -3.08186,0 z"
         style="font-weight:bold;font-stretch:expanded;font-family:'Anka CLM';-inkscape-font-specification:'Anka CLM Bold Expanded'"
         id="path30812" />
      <path
         d="m -42.84571,181.29988 c 1.777996,0 3.318926,-0.27093 4.436524,-1.15146 0.999065,-0.79587 1.523997,-1.9812 1.523997,-3.3528 0,-1.35466 -0.643465,-2.57386 -1.727196,-3.36972 -0.829732,-0.6096 -1.523997,-0.93133 -2.438396,-1.18533 1.066798,-0.22014 2.201329,-0.33867 3.318927,-0.38947 v -0.52493 c -1.761063,-0.0169 -3.251193,0.1016 -5.113856,0.47413 -1.879597,-0.37253 -3.352794,-0.49107 -5.13079,-0.47413 v 0.52493 c 1.117597,0.0508 2.252128,0.16933 3.318926,0.38947 -0.914398,0.254 -1.608663,0.57573 -2.421462,1.18533 -1.100664,0.79586 -1.744129,2.01506 -1.744129,3.36972 0,1.3716 0.524932,2.55693 1.523997,3.3528 1.117597,0.88053 2.658528,1.15146 4.453458,1.15146 z m 0,-8.58518 c 1.981196,0.67733 3.403593,1.96426 3.403593,4.16559 0,1.1176 -0.321733,2.0828 -0.931332,2.70933 -0.660398,0.67733 -1.422397,1.0668 -2.472261,1.0668 -1.066798,0 -1.828797,-0.38947 -2.489196,-1.0668 -0.592665,-0.62653 -0.931331,-1.59173 -0.931331,-2.70933 0,-2.20133 1.422397,-3.48826 3.420527,-4.16559 z"
         style="font-weight:bold;font-stretch:expanded;font-family:'Anka CLM';-inkscape-font-specification:'Anka CLM Bold Expanded'"
         id="path30814" />
      <path
         d="m -59.931396,172.5623 c 0.0508,-0.27093 0.08467,-0.5588 0.135467,-0.82973 -0.863599,0.3048 -1.862663,0.42333 -2.997194,0.37253 0.592665,3.18346 0.491065,6.28225 -0.592666,9.27945 0.965198,-0.3556 2.031996,-0.38947 3.183461,-0.0508 -0.03387,-0.49107 -0.0508,-0.99907 -0.06773,-1.49013 1.405464,0.8128 2.793995,1.43933 4.724391,1.43933 1.354664,0 2.523062,-0.27093 3.58986,-1.30387 0.795865,-0.77893 1.43933,-1.84573 1.43933,-3.52212 0,-1.54093 -0.457199,-2.6924 -1.49013,-3.67453 -0.965198,-0.88053 -2.387596,-1.30386 -4.013192,-1.30386 -1.134531,0 -2.455329,0.2032 -3.911593,1.08373 z m -0.101599,0.82973 c 0.660398,-0.52493 1.659463,-1.016 2.912527,-1.016 1.269998,0 2.269062,0.4064 3.031061,1.13453 0.728132,0.7112 1.015998,1.64253 1.015998,2.794 0,1.1684 -0.389466,2.20133 -1.032931,2.84479 -0.812799,0.77893 -1.69333,1.1176 -2.709328,1.1176 -1.388531,0 -2.641595,-0.62653 -3.471327,-1.18533 -0.03387,-1.91346 0.03387,-3.80999 0.254,-5.68959 z"
         style="font-weight:bold;font-stretch:expanded;font-family:'Anka CLM';-inkscape-font-specification:'Anka CLM Bold Expanded'"
         id="path30816" />
      <path
         d="m -73.240943,173.6291 c 2.523061,-0.22014 5.198523,-0.23707 7.992517,0.0508 -0.220133,-0.8128 -0.253999,-1.016 0,-1.778 -2.743194,0.23707 -5.537189,0.28787 -7.992517,-0.0169 0.152399,0.8128 0.203199,0.99906 0,1.74413 z"
         style="font-weight:bold;font-stretch:expanded;font-family:'Anka CLM';-inkscape-font-specification:'Anka CLM Bold Expanded'"
         id="path30818" />
      <path
         d="m -78.541062,181.29988 c 1.371598,0 2.946395,-0.44026 3.945459,-1.45626 l -0.338666,-0.4572 c -0.999064,0.79586 -1.930396,1.016 -3.251193,1.016 -1.083732,0 -2.04893,-0.32174 -2.827861,-1.0668 -0.711199,-0.67733 -1.049865,-1.5748 -1.049865,-2.7432 0,-1.20226 0.406399,-2.21826 1.134531,-2.92946 0.795865,-0.77893 1.828796,-1.13453 3.132661,-1.13453 1.185331,0 2.082795,0.28787 2.844794,0.82973 l 0.355599,-0.4064 c -1.168397,-0.99906 -2.506128,-1.47319 -4.182525,-1.47319 -1.64253,0 -3.064927,0.4064 -4.047059,1.38853 -0.829731,0.82973 -1.43933,2.01506 -1.43933,3.40359 0,1.27 0.220133,2.4892 1.253064,3.50519 1.083731,1.08374 2.607728,1.524 4.470391,1.524 z m -9.414914,-12.44597 c 0.203199,1.94733 0.406399,4.06399 0.406399,6.09598 0,2.11667 -0.169333,4.2164 -0.524933,6.34999 0.812799,-0.32173 1.710264,-0.32173 2.793995,0 -0.1524,-2.04893 -0.270933,-3.94546 -0.270933,-5.75732 0,-2.45533 0.287866,-4.70746 0.711199,-6.68865 -1.015998,0.28786 -2.04893,0.33866 -3.115727,0 z"
         style="font-weight:bold;font-stretch:expanded;font-family:'Anka CLM';-inkscape-font-specification:'Anka CLM Bold Expanded'"
         id="path30820" />
      <path
         d="m -93.052873,171.47857 c 0.558799,3.69146 0.558799,6.85798 -0.06773,9.82131 1.066798,-0.32173 2.065862,-0.37253 2.997194,0 -0.592666,-3.47132 -0.745065,-6.67172 0.01693,-9.82131 -0.982131,0.33866 -1.964263,0.33866 -2.946394,0 z"
         style="font-weight:bold;font-stretch:expanded;font-family:'Anka CLM';-inkscape-font-specification:'Anka CLM Bold Expanded'"
         id="path30822" />
      <path
         d="m -95.982326,179.96215 c 0.643466,-0.6096 1.015998,-1.54093 1.015998,-2.55693 0,-1.37159 -0.948264,-2.65853 -2.760127,-3.18346 0.609598,-0.18626 1.117597,-0.49106 1.49013,-0.89746 0.406399,-0.4572 0.558799,-0.98213 0.558799,-1.59173 0,-0.79587 -0.355599,-1.59173 -1.117598,-2.1336 -0.778932,-0.52493 -1.84573,-0.7112 -3.081861,-0.7112 -1.896525,0 -3.285055,0.47414 -4.690525,1.28693 l 0.27093,0.49107 c 1.0668,-0.49107 2.1336,-0.9144 3.302,-0.9144 0.98213,0 1.710261,0.16933 2.201327,0.62653 0.372532,0.37254 0.609598,0.84667 0.609598,1.43933 0,0.84667 -0.524932,1.64253 -1.710263,1.94733 -0.575732,-0.0169 -1.117602,-0.0508 -1.744132,-0.0677 l -0.0339,0.62653 c 1.04986,0.0339 2.048925,0.0847 3.014123,0.8128 0.711199,0.54187 1.100665,1.27 1.100665,2.26906 0,0.79587 -0.287867,1.50707 -0.795866,1.9812 -0.745065,0.69426 -1.828792,0.9652 -3.098792,0.9652 -1.43933,0 -2.81093,-0.4572 -4.13173,-1.13453 l -0.28786,0.54186 c 1.42239,0.9144 3.38666,1.54093 5.33399,1.54093 2.184392,0 3.623723,-0.4572 4.555054,-1.33773 z"
         style="font-weight:bold;font-stretch:expanded;font-family:'Anka CLM';-inkscape-font-specification:'Anka CLM Bold Expanded'"
         id="path30824" />
      <path
         d="m -108.80082,172.8163 c -1.10067,-0.98213 -2.3368,-1.33773 -3.96239,-1.33773 -2.1844,0 -3.89466,0.49106 -5.41866,1.62559 l 0.27093,0.57574 c 1.3716,-0.9144 2.60773,-1.30387 4.21639,-1.30387 1.15147,0 2.01507,0.16934 2.8448,0.9144 0.72813,0.6604 1.1176,1.86266 1.1176,3.11573 0,1.62559 -0.508,3.30199 -1.30387,4.89372 1.03293,-0.3556 2.0828,-0.33866 3.11573,0.0339 0.4572,-1.35467 0.7112,-2.72626 0.7112,-3.97933 0,-2.03199 -0.37253,-3.45439 -1.59173,-4.53812 z"
         style="font-weight:bold;font-stretch:expanded;font-family:'Anka CLM';-inkscape-font-specification:'Anka CLM Bold Expanded'"
         id="path30826" />
      <path
         d="m -122.61839,171.47857 c 0.62653,1.81186 0.5588,3.75919 0,5.84199 0.8128,-0.5588 1.69333,-1.03294 3.03106,-0.9652 -0.42333,-1.55787 -0.4572,-3.18346 0.0508,-4.87679 -0.98213,0.28786 -1.9812,0.38946 -3.08186,0 z"
         style="font-weight:bold;font-stretch:expanded;font-family:'Anka CLM';-inkscape-font-specification:'Anka CLM Bold Expanded'"
         id="path30828" />
      <path
         d="m -128.83289,179.84362 c 0,0.72813 0.77894,1.33773 1.76107,1.33773 0.9652,0 1.74413,-0.6096 1.74413,-1.33773 0,-0.74507 -0.77893,-1.35467 -1.74413,-1.35467 -0.98213,0 -1.76107,0.6096 -1.76107,1.35467 z"
         style="font-weight:bold;font-stretch:expanded;font-family:'Anka CLM';-inkscape-font-specification:'Anka CLM Bold Expanded'"
         id="path30830" />
      <path
         d="m -134.87805,179.84362 c 0,0.72813 0.77893,1.33773 1.76107,1.33773 0.96519,0 1.74413,-0.6096 1.74413,-1.33773 0,-0.74507 -0.77894,-1.35467 -1.74413,-1.35467 -0.98214,0 -1.76107,0.6096 -1.76107,1.35467 z"
         style="font-weight:bold;font-stretch:expanded;font-family:'Anka CLM';-inkscape-font-specification:'Anka CLM Bold Expanded'"
         id="path30832" />
      <path
         d="m -140.92321,179.84362 c 0,0.72813 0.77893,1.33773 1.76106,1.33773 0.9652,0 1.74413,-0.6096 1.74413,-1.33773 0,-0.74507 -0.77893,-1.35467 -1.74413,-1.35467 -0.98213,0 -1.76106,0.6096 -1.76106,1.35467 z"
         style="font-weight:bold;font-stretch:expanded;font-family:'Anka CLM';-inkscape-font-specification:'Anka CLM Bold Expanded'"
         id="path30834" />
    </g>
    <g
       aria-label="ח.נ. ביאליק, מתוך &quot;בין נהר פרת ונהר חדקל&quot;"
       id="text15803"
       style="font-size:8.46667px;line-height:100%;font-family:Sans;-inkscape-font-specification:'Adobe Helvetica';letter-spacing:0px;word-spacing:0px;direction:rtl;stroke-width:0.264583px">
      <path
         d="m 22.466385,197.02487 0.0762,-0.3302 c -0.592667,0.23706 -1.134534,0.37253 -1.5748,0.27093 0.296333,1.88807 0.287866,3.39513 0,4.6482 0.567266,-0.18627 1.0668,-0.1524 1.6002,0 -0.364067,-1.48167 -0.4064,-2.86173 -0.186267,-4.1656 0.474134,-0.21167 0.973667,-0.31327 1.532468,-0.31327 0.668867,0 1.236134,0.127 1.642534,0.5334 0.389466,0.38947 0.550333,0.92287 0.550333,1.6256 0,0.762 -0.270933,1.58327 -0.677333,2.31987 0.508,-0.14393 1.024467,-0.19473 1.5748,0 0.262467,-0.70273 0.364067,-1.397 0.364067,-2.22673 0,-0.77047 -0.254,-1.53247 -0.804334,-2.032 -0.575733,-0.52494 -1.278467,-0.65194 -2.192867,-0.65194 -0.7366,0 -1.346201,0.11007 -1.905001,0.32174 z"
         style="font-weight:bold;font-stretch:expanded;line-height:100%;font-family:'Anka CLM';-inkscape-font-specification:'Anka CLM Bold Expanded'"
         id="path30601" />
      <path
         d="m 17.86052,200.88567 c 0,0.36406 0.389466,0.66886 0.880533,0.66886 0.4826,0 0.872067,-0.3048 0.872067,-0.66886 0,-0.37254 -0.389467,-0.67734 -0.872067,-0.67734 -0.491067,0 -0.880533,0.3048 -0.880533,0.67734 z"
         style="font-weight:bold;font-stretch:expanded;line-height:100%;font-family:'Anka CLM';-inkscape-font-specification:'Anka CLM Bold Expanded'"
         id="path30603" />
      <path
         d="m 15.523737,196.70313 0.0762,2.54847 c 0.0254,0.79587 -0.03387,1.25307 -0.381001,1.60867 -0.169333,0.16933 -0.465666,0.27093 -0.770467,0.27093 -0.3048,0 -0.677333,-0.1016 -0.948267,-0.28787 l -0.1524,0.23707 c 0.465667,0.37253 0.965201,0.5334 1.566334,0.5334 0.558801,0 1.007534,-0.1524 1.380068,-0.5334 0.414866,-0.4064 0.524933,-0.94827 0.550333,-1.61713 l 0.08467,-2.76014 c -0.448734,0.16087 -0.914401,0.1778 -1.405467,0 z"
         style="font-weight:bold;font-stretch:expanded;line-height:100%;font-family:'Anka CLM';-inkscape-font-specification:'Anka CLM Bold Expanded'"
         id="path30605" />
      <path
         d="m 10.494553,200.88567 c 0,0.36406 0.389467,0.66886 0.880533,0.66886 0.482601,0 0.872067,-0.3048 0.872067,-0.66886 0,-0.37254 -0.389466,-0.67734 -0.872067,-0.67734 -0.491066,0 -0.880533,0.3048 -0.880533,0.67734 z"
         style="font-weight:bold;font-stretch:expanded;line-height:100%;font-family:'Anka CLM';-inkscape-font-specification:'Anka CLM Bold Expanded'"
         id="path30607" />
      <path
         d="m -0.60525851,197.40587 0.16086673,0.254 c 0.56726689,-0.32174 1.16840046,-0.508 1.92193408,-0.508 0.6011336,0 1.2192005,0.22013 1.6340673,0.60113 0.3386668,0.31327 0.6265336,0.8636 0.6265336,1.6002 0,0.65193 -0.2455334,1.0922 -0.6180669,1.50707 -0.5080002,-0.24554 -1.1006671,-0.47414 -1.6510007,-0.6096 -0.4148668,-0.1016 -0.7789336,-0.16934 -1.21920044,-0.19474 -0.16086673,-0.008 -0.30480012,0.0847 -0.36406681,0.21167 -0.18626674,0.38947 -0.37253348,0.82973 -0.52493354,1.3462 0.44873351,-0.1524 1.04140041,-0.19473 1.54940061,0 0.0931334,-0.2794 0.18626678,-0.5588 0.27093348,-0.79587 0.0254,-0.0847 0.1185333,-0.1524 0.2794001,-0.13546 0.5588002,0.0677 1.5832673,0.47413 2.463801,0.93133 0.6434669,-0.55033 1.0668004,-1.35467 1.0668004,-2.3622 0,-0.70273 -0.2286001,-1.3208 -0.7620003,-1.8288 -0.5334002,-0.49953 -1.3546672,-0.71967 -2.1505342,-0.71967 -1.09220045,0 -1.83726741,0.16087 -2.68393441,0.70274 z"
         style="font-weight:bold;font-stretch:expanded;line-height:100%;font-family:'Anka CLM';-inkscape-font-specification:'Anka CLM Bold Expanded'"
         id="path30609" />
      <path
         d="m -2.9420361,196.70313 c 0.3132668,0.90594 0.2794002,1.8796 0,2.921 0.4064002,-0.2794 0.846667,-0.51646 1.515534,-0.4826 -0.2116668,-0.77893 -0.2286001,-1.59173 0.0254,-2.4384 -0.4910669,0.14394 -0.9906004,0.19474 -1.540934,0 z"
         style="font-weight:bold;font-stretch:expanded;line-height:100%;font-family:'Anka CLM';-inkscape-font-specification:'Anka CLM Bold Expanded'"
         id="path30611" />
      <path
         d="m -5.6767809,201.6138 c 0.6858002,0 1.4732006,-0.22013 1.9727341,-0.72813 l -0.1693334,-0.2286 c -0.4995335,0.39793 -0.9652004,0.508 -1.6256007,0.508 -0.5418668,0 -1.024467,-0.16087 -1.4139339,-0.5334 -0.3556001,-0.33867 -0.5249335,-0.7874 -0.5249335,-1.3716 0,-0.60114 0.2032001,-1.10914 0.5672669,-1.46474 0.3979335,-0.38946 0.9144004,-0.56726 1.566334,-0.56726 0.5926669,0 1.0414004,0.14393 1.4224005,0.41486 l 0.1778001,-0.2032 c -0.5842002,-0.49953 -1.2530672,-0.7366 -2.0912675,-0.7366 -0.821267,0 -1.5324673,0.2032 -2.0235341,0.69427 -0.4148669,0.41487 -0.719667,1.00753 -0.719667,1.7018 0,0.635 0.1100667,1.2446 0.6265336,1.7526 0.5418669,0.54187 1.3038672,0.762 2.2352009,0.762 z m -4.7074681,-6.223 c 0.1016,0.97367 0.2032,2.032 0.2032,3.048 0,1.05833 -0.08467,2.1082 -0.262467,3.175 0.4064,-0.16087 0.8551335,-0.16087 1.3970004,0 -0.0762,-1.02447 -0.1354667,-1.97273 -0.1354667,-2.87867 0,-1.22766 0.1439334,-2.35373 0.3556001,-3.34433 -0.5080002,0.14393 -1.0244671,0.16933 -1.5578668,0 z"
         style="font-weight:bold;font-stretch:expanded;line-height:100%;font-family:'Anka CLM';-inkscape-font-specification:'Anka CLM Bold Expanded'"
         id="path30613" />
      <path
         d="m -15.963776,199.59027 c 0,0.56726 0.152401,1.03293 0.508001,1.38853 0.414867,0.42333 1.032933,0.635 1.769534,0.635 0.728133,0 1.354667,-0.21167 1.769534,-0.635 0.364067,-0.36407 0.541867,-0.889 0.541867,-1.46473 0,-0.3556 -0.1016,-0.762 -0.2286,-1.25307 l -0.381001,-1.4986 c -0.08467,-0.3302 -0.160866,-0.65193 -0.160866,-0.94827 0,-0.24553 0.0508,-0.4826 0.1778,-0.70273 0.2032,-0.3302 0.465667,-0.5588 1.007533,-0.6604 0.127001,-0.0169 0.254001,-0.0339 0.372534,-0.0339 0.211667,0 0.423333,0.0339 0.6434669,0.0931 l 0.1185334,-0.29634 c -0.2963333,-0.11007 -0.6096003,-0.16933 -0.9567333,-0.16933 -0.211667,0 -0.431801,0.0254 -0.677334,0.0677 -0.626534,0.11007 -1.312334,0.49107 -1.608667,1.03294 -0.160867,0.2794 -0.2286,0.59266 -0.2286,0.9398 0,0.31326 0.05927,0.65193 0.160866,1.02446 l 0.499534,1.87114 c 0.127,0.4572 0.2032,0.8382 0.2032,1.143 0,0.3556 -0.06773,0.6604 -0.296334,0.889 -0.186266,0.18626 -0.4572,0.2794 -0.753533,0.2794 -0.372534,0 -0.7112,-0.1778 -0.939801,-0.44874 -0.287866,-0.3302 -0.440266,-0.82973 -0.440266,-1.3716 0,-0.7874 0.2286,-1.43933 0.7366,-1.93886 l -0.2032,-0.27094 c -0.4826,0.21167 -0.931334,0.5588 -1.244601,1.00754 -0.262466,0.37253 -0.389467,0.8128 -0.389467,1.3208 z"
         style="font-weight:bold;font-stretch:expanded;line-height:100%;font-family:'Anka CLM';-inkscape-font-specification:'Anka CLM Bold Expanded'"
         id="path30615" />
      <path
         d="m -18.351368,196.70313 c 0.313266,0.90594 0.2794,1.8796 0,2.921 0.4064,-0.2794 0.846667,-0.51646 1.515534,-0.4826 -0.211667,-0.77893 -0.2286,-1.59173 0.0254,-2.4384 -0.491067,0.14394 -0.990601,0.19474 -1.540934,0 z"
         style="font-weight:bold;font-stretch:expanded;line-height:100%;font-family:'Anka CLM';-inkscape-font-specification:'Anka CLM Bold Expanded'"
         id="path30617" />
      <path
         d="m -23.346692,198.8706 c -0.2286,0.3556 -0.575733,0.69427 -1.159933,0.9906 0.135466,1.3716 -0.01693,2.6162 -0.381001,3.76767 0.516467,-0.2032 1.083734,-0.1778 1.693334,-0.008 -0.2286,-1.23613 -0.3556,-2.667 -0.1524,-4.7498 z m -1.507067,-1.3208 0.2032,0.2286 c 0.668867,-0.4826 1.117601,-0.65193 1.879601,-0.65193 0.6858,0 1.236134,0.1778 1.651001,0.5842 0.364066,0.36406 0.601133,0.9144 0.601133,1.56633 0,0.49107 -0.1524,1.05833 -0.575733,1.48167 -0.3048,0.28786 -0.762001,0.508 -1.337734,0.508 -0.186267,0 -0.347134,-0.008 -0.499534,-0.0339 l 0.0254,0.31327 c 0.245534,0.0508 0.524934,0.0508 0.838201,0.0508 0.635,0 1.6002,-0.29634 2.1336,-0.82127 0.482601,-0.47413 0.651934,-0.889 0.651934,-1.54093 0,-0.77047 -0.287867,-1.33774 -0.804334,-1.84574 -0.601133,-0.5842 -1.532467,-0.6858 -2.065867,-0.6858 -1.092201,0 -1.803401,0.1524 -2.700868,0.84667 z"
         style="font-weight:bold;font-stretch:expanded;line-height:100%;font-family:'Anka CLM';-inkscape-font-specification:'Anka CLM Bold Expanded'"
         id="path30619" />
      <path
         d="m -25.996741,200.93647 c 0,-0.42334 -0.381,-0.72814 -0.8636,-0.72814 -0.491067,0 -0.880534,0.3048 -0.880534,0.67734 0,0.36406 0.389467,0.66886 0.880534,0.66886 0.04233,0 0.09313,0 0.135466,-0.008 -0.05927,0.36406 -0.3048,0.69426 -0.567267,0.9398 l 0.1778,0.21166 c 0.355601,-0.23706 0.694267,-0.56726 0.897467,-0.9398 0.152401,-0.2794 0.220134,-0.55033 0.220134,-0.82126 z"
         style="font-weight:bold;font-stretch:expanded;line-height:100%;font-family:'Anka CLM';-inkscape-font-specification:'Anka CLM Bold Expanded'"
         id="path30621" />
      <path
         d="m -34.920602,196.70313 c 0.1778,1.17687 0.237067,2.286 0.135467,3.64067 l -3.225801,-3.51367 c -0.296334,-0.008 -0.668867,-0.0423 -0.965201,-0.127 0.313267,1.74414 0.254,3.18347 -0.186266,4.91067 0.541866,-0.14393 1.083733,-0.19473 1.6256,0 -0.2794,-1.28693 -0.2794,-2.47227 -0.135467,-3.7084 l 3.259668,3.5814 c 0.296334,0 0.567267,0.0339 0.821267,0.127 -0.254,-1.71873 -0.1524,-3.31047 0.270934,-4.91067 -0.491067,0.16934 -1.024467,0.16934 -1.600201,0 z"
         style="font-weight:bold;font-stretch:expanded;line-height:100%;font-family:'Anka CLM';-inkscape-font-specification:'Anka CLM Bold Expanded'"
         id="path30623" />
      <path
         d="m -43.54814,197.15187 c 0.6604,0 1.202267,0.11853 1.608667,0.52493 0.4064,0.38947 0.584201,0.89747 0.584201,1.5494 0,0.9144 -0.262467,1.6002 -0.660401,2.3876 0.474134,-0.16087 0.990601,-0.1778 1.574801,0 0.245533,-0.75353 0.347133,-1.4224 0.347133,-2.1082 0,-0.9144 -0.254,-1.63407 -0.8128,-2.1336 -0.575734,-0.508 -1.27,-0.66887 -2.150534,-0.66887 -1.329267,0 -2.446868,0.31327 -3.318935,0.9906 l 0.211667,0.3048 c 0.0762,-0.0508 0.135467,-0.0847 0.2032,-0.13546 l 0.1524,2.21826 c 0.0254,0.31327 0.03387,0.6096 -0.06773,0.8128 -0.0762,0.1524 -0.2286,0.254 -0.440267,0.254 -0.237067,0 -0.448734,-0.0847 -0.618067,-0.22013 l -0.194733,0.28787 c 0.287866,0.2286 0.677333,0.42333 1.143,0.42333 0.414867,0 0.6858,-0.0677 0.922867,-0.27093 0.491067,-0.42334 0.5334,-1.0414 0.474134,-1.78647 l -0.169334,-2.26907 c 0.389467,-0.127 0.889001,-0.16086 1.210734,-0.16086 z"
         style="font-weight:bold;font-stretch:expanded;line-height:100%;font-family:'Anka CLM';-inkscape-font-specification:'Anka CLM Bold Expanded'"
         id="path30625" />
      <path
         d="m -49.246182,196.70313 c 0.2794,1.84574 0.2794,3.429 -0.03387,4.91067 0.5334,-0.16087 1.032934,-0.18627 1.498601,0 -0.296334,-1.73567 -0.372534,-3.33587 0.0085,-4.91067 -0.491067,0.16934 -0.982134,0.16934 -1.473201,0 z"
         style="font-weight:bold;font-stretch:expanded;line-height:100%;font-family:'Anka CLM';-inkscape-font-specification:'Anka CLM Bold Expanded'"
         id="path30627" />
      <path
         d="m -55.663909,197.4736 0.169334,0.27093 c 0.694267,-0.39793 1.278467,-0.54186 1.8542,-0.54186 0.660401,0 1.210734,0.13546 1.608668,0.5334 0.381,0.37253 0.5588,0.82126 0.5588,1.48166 0,0.62654 -0.262467,1.143 -0.635,1.48167 -0.406401,0.36407 -0.863601,0.49107 -1.490134,0.49107 -0.592667,0 -0.990601,-0.11854 -1.490134,-0.34714 0.160867,0.8636 0.1016,1.8288 -0.186267,2.76861 0.491067,-0.1524 1.016,-0.18627 1.583267,0 -0.220133,-0.66887 -0.237066,-1.43934 -0.237066,-2.09127 0.3302,0.0593 0.6096,0.0931 1.007533,0.0931 0.829734,0 1.456268,-0.11007 2.065868,-0.70273 0.423333,-0.42334 0.643467,-1.05834 0.643467,-1.78647 0,-0.67733 -0.254,-1.26153 -0.694267,-1.68487 -0.4572,-0.44026 -1.143001,-0.7366 -2.099734,-0.7366 -1.083734,0 -1.871134,0.23707 -2.658535,0.77047 z"
         style="font-weight:bold;font-stretch:expanded;line-height:100%;font-family:'Anka CLM';-inkscape-font-specification:'Anka CLM Bold Expanded'"
         id="path30629" />
      <path
         d="m -62.208627,195.99193 c 0.127,0.59267 0.321734,1.2954 -0.0085,2.17594 l 0.2032,0.19473 c 0.5842,-0.508 1.185334,-1.55787 1.312334,-2.37067 -0.465667,0.16934 -1.032934,0.16934 -1.507068,0 z m -2.269067,0 c 0.127,0.59267 0.313267,1.2954 -0.0085,2.17594 l 0.194734,0.19473 c 0.592666,-0.508 1.185333,-1.55787 1.312333,-2.37067 -0.4572,0.16934 -1.024467,0.16934 -1.4986,0 z"
         style="font-weight:bold;font-stretch:expanded;line-height:100%;font-family:'Anka CLM';-inkscape-font-specification:'Anka CLM Bold Expanded'"
         id="path30631" />
      <path
         d="m -70.734554,197.40587 0.160867,0.254 c 0.567267,-0.32174 1.1684,-0.508 1.921934,-0.508 0.601134,0 1.2192,0.22013 1.634067,0.60113 0.338667,0.31327 0.626534,0.8636 0.626534,1.6002 0,0.65193 -0.245534,1.0922 -0.618067,1.50707 -0.508,-0.24554 -1.100667,-0.47414 -1.651001,-0.6096 -0.414867,-0.1016 -0.778933,-0.16934 -1.2192,-0.19474 -0.160867,-0.008 -0.3048,0.0847 -0.364067,0.21167 -0.186267,0.38947 -0.372533,0.82973 -0.524934,1.3462 0.448734,-0.1524 1.041401,-0.19473 1.549401,0 0.09313,-0.2794 0.186267,-0.5588 0.270934,-0.79587 0.0254,-0.0847 0.118533,-0.1524 0.2794,-0.13546 0.5588,0.0677 1.583267,0.47413 2.463801,0.93133 0.643467,-0.55033 1.0668,-1.35467 1.0668,-2.3622 0,-0.70273 -0.2286,-1.3208 -0.762,-1.8288 -0.5334,-0.49953 -1.354667,-0.71967 -2.150534,-0.71967 -1.092201,0 -1.837268,0.16087 -2.683935,0.70274 z"
         style="font-weight:bold;font-stretch:expanded;line-height:100%;font-family:'Anka CLM';-inkscape-font-specification:'Anka CLM Bold Expanded'"
         id="path30633" />
      <path
         d="m -73.071354,196.70313 c 0.313266,0.90594 0.2794,1.8796 0,2.921 0.4064,-0.2794 0.846667,-0.51646 1.515534,-0.4826 -0.211667,-0.77893 -0.2286,-1.59173 0.0254,-2.4384 -0.491067,0.14394 -0.990601,0.19474 -1.540934,0 z"
         style="font-weight:bold;font-stretch:expanded;line-height:100%;font-family:'Anka CLM';-inkscape-font-specification:'Anka CLM Bold Expanded'"
         id="path30635" />
      <path
         d="m -75.535145,196.70313 c 0.237067,2.21827 0.474133,4.4196 0.0085,6.90034 0.465667,-0.1524 0.948268,-0.14393 1.430868,0 -0.313267,-2.667 -0.2794,-4.42807 0.0085,-6.90034 -0.499533,0.1524 -0.9906,0.18627 -1.4478,0 z"
         style="font-weight:bold;font-stretch:expanded;line-height:100%;font-family:'Anka CLM';-inkscape-font-specification:'Anka CLM Bold Expanded'"
         id="path30637" />
      <path
         d="m -82.613264,196.70313 0.0762,2.54847 c 0.0254,0.79587 -0.03387,1.25307 -0.381001,1.60867 -0.169333,0.16933 -0.465666,0.27093 -0.770467,0.27093 -0.3048,0 -0.677333,-0.1016 -0.948267,-0.28787 l -0.1524,0.23707 c 0.465667,0.37253 0.965201,0.5334 1.566334,0.5334 0.5588,0 1.007534,-0.1524 1.380067,-0.5334 0.414867,-0.4064 0.524934,-0.94827 0.550334,-1.61713 l 0.08467,-2.76014 c -0.448734,0.16087 -0.914401,0.1778 -1.405467,0 z"
         style="font-weight:bold;font-stretch:expanded;line-height:100%;font-family:'Anka CLM';-inkscape-font-specification:'Anka CLM Bold Expanded'"
         id="path30639" />
      <path
         d="m -89.640598,198.896 c -0.4318,0.3302 -0.905934,0.49107 -1.430867,0.47413 0.220133,0.97367 0.1016,1.6256 -0.09313,2.24367 0.558801,-0.1524 1.083734,-0.18627 1.549401,0 -0.287867,-0.889 -0.254,-1.9812 -0.0254,-2.7178 z m -1.735667,-1.38007 0.160866,0.28787 c 0.745067,-0.4572 1.422401,-0.65193 2.294468,-0.65193 0.6604,0 1.202267,0.11853 1.608667,0.52493 0.4064,0.38947 0.584201,0.89747 0.584201,1.5494 0,0.9144 -0.262467,1.6002 -0.660401,2.3876 0.474134,-0.16087 0.990601,-0.1778 1.574801,0 0.245533,-0.75353 0.347133,-1.4224 0.347133,-2.1082 0,-0.9144 -0.254,-1.63407 -0.8128,-2.1336 -0.575734,-0.508 -1.27,-0.66887 -2.150534,-0.66887 -1.185334,0 -2.116668,0.24554 -2.946401,0.8128 z"
         style="font-weight:bold;font-stretch:expanded;line-height:100%;font-family:'Anka CLM';-inkscape-font-specification:'Anka CLM Bold Expanded'"
         id="path30641" />
      <path
         d="m -92.840996,197.372 c -0.550334,-0.49107 -1.1684,-0.66887 -1.981201,-0.66887 -1.0922,0 -1.947334,0.24554 -2.709334,0.8128 l 0.135467,0.28787 c 0.6858,-0.4572 1.303867,-0.65193 2.1082,-0.65193 0.575734,0 1.007534,0.0847 1.422401,0.4572 0.364067,0.3302 0.5588,0.93133 0.5588,1.55786 0,0.8128 -0.254,1.651 -0.651933,2.44687 0.516466,-0.1778 1.0414,-0.16933 1.557867,0.0169 0.2286,-0.67733 0.3556,-1.36313 0.3556,-1.98966 0,-1.016 -0.186267,-1.7272 -0.795867,-2.26907 z"
         style="font-weight:bold;font-stretch:expanded;line-height:100%;font-family:'Anka CLM';-inkscape-font-specification:'Anka CLM Bold Expanded'"
         id="path30643" />
      <path
         d="m -106.40459,198.95527 0.0593,-0.3302 c -0.11853,-0.008 -0.23707,-0.0169 -0.36407,-0.0169 -0.74506,0 -1.35466,0.18627 -1.76106,0.56727 -0.22014,0.21167 -0.37254,0.52493 -0.37254,0.889 0,0.6096 0.39794,1.0668 1.13454,1.32927 0.4064,0.13546 0.9398,0.22013 1.6002,0.22013 1.31233,0 2.0574,-0.254 2.55693,-0.75353 0.4318,-0.42334 0.6858,-1.07527 0.6858,-1.76954 0,-0.6858 -0.3302,-1.2954 -0.82126,-1.71873 -0.57574,-0.508 -1.27001,-0.66887 -2.15054,-0.66887 -1.18533,0 -2.11667,0.24554 -2.9464,0.8128 l 0.16087,0.28787 c 0.74506,-0.4572 1.43933,-0.65193 2.29446,-0.65193 0.65194,0 1.15994,0.1524 1.58327,0.51646 0.44873,0.39794 0.6096,0.9906 0.6096,1.5494 0,0.5842 -0.2032,1.1176 -0.57573,1.49014 -0.381,0.38946 -0.89747,0.52493 -1.35467,0.52493 -0.37253,0 -0.80433,-0.0677 -1.12607,-0.33867 -0.23706,-0.19473 -0.37253,-0.47413 -0.37253,-0.87206 0,-0.28787 0.1016,-0.5334 0.254,-0.69427 0.27093,-0.26247 0.5842,-0.37253 0.90593,-0.37253 z"
         style="font-weight:bold;font-stretch:expanded;line-height:100%;font-family:'Anka CLM';-inkscape-font-specification:'Anka CLM Bold Expanded'"
         id="path30645" />
      <path
         d="m -110.47705,197.372 c -0.55033,-0.49107 -1.1684,-0.66887 -1.9812,-0.66887 -1.0922,0 -1.94734,0.24554 -2.70934,0.8128 l 0.13547,0.28787 c 0.6858,-0.4572 1.30387,-0.65193 2.1082,-0.65193 0.57573,0 1.00754,0.0847 1.4224,0.4572 0.36407,0.3302 0.5588,0.93133 0.5588,1.55786 0,0.8128 -0.254,1.651 -0.65193,2.44687 0.51647,-0.1778 1.0414,-0.16933 1.55787,0.0169 0.2286,-0.67733 0.3556,-1.36313 0.3556,-1.98966 0,-1.016 -0.18627,-1.7272 -0.79587,-2.26907 z"
         style="font-weight:bold;font-stretch:expanded;line-height:100%;font-family:'Anka CLM';-inkscape-font-specification:'Anka CLM Bold Expanded'"
         id="path30647" />
      <path
         d="m -119.29931,197.15187 c 0.6604,0 1.20226,0.11853 1.60866,0.52493 0.4064,0.38947 0.5842,0.89747 0.5842,1.5494 0,0.9144 -0.26246,1.6002 -0.6604,2.3876 0.47414,-0.16087 0.9906,-0.1778 1.5748,0 0.24554,-0.75353 0.34714,-1.4224 0.34714,-2.1082 0,-0.9144 -0.254,-1.63407 -0.8128,-2.1336 -0.57574,-0.508 -1.27,-0.66887 -2.15054,-0.66887 -1.32927,0 -2.44687,0.31327 -3.31893,0.9906 l 0.21166,0.3048 c 0.0762,-0.0508 0.13547,-0.0847 0.2032,-0.13546 l 0.1524,2.21826 c 0.0254,0.31327 0.0339,0.6096 -0.0677,0.8128 -0.0762,0.1524 -0.2286,0.254 -0.44027,0.254 -0.23706,0 -0.44873,-0.0847 -0.61806,-0.22013 l -0.19474,0.28787 c 0.28787,0.2286 0.67734,0.42333 1.143,0.42333 0.41487,0 0.6858,-0.0677 0.92287,-0.27093 0.49107,-0.42334 0.5334,-1.0414 0.47413,-1.78647 l -0.16933,-2.26907 c 0.38947,-0.127 0.889,-0.16086 1.21074,-0.16086 z"
         style="font-weight:bold;font-stretch:expanded;line-height:100%;font-family:'Anka CLM';-inkscape-font-specification:'Anka CLM Bold Expanded'"
         id="path30649" />
      <path
         d="m -129.65403,196.70313 c 0.2794,1.84574 0.2794,3.429 -0.0339,4.91067 0.5334,-0.16087 1.03293,-0.18627 1.4986,0 -0.29633,-1.73567 -0.37253,-3.33587 0.008,-4.91067 -0.49107,0.16934 -0.98214,0.16934 -1.4732,0 z"
         style="font-weight:bold;font-stretch:expanded;line-height:100%;font-family:'Anka CLM';-inkscape-font-specification:'Anka CLM Bold Expanded'"
         id="path30651" />
      <path
         d="m -132.10936,196.70313 0.0762,2.54847 c 0.0254,0.79587 -0.0339,1.25307 -0.381,1.60867 -0.16933,0.16933 -0.46567,0.27093 -0.77047,0.27093 -0.3048,0 -0.67733,-0.1016 -0.94826,-0.28787 l -0.1524,0.23707 c 0.46566,0.37253 0.9652,0.5334 1.56633,0.5334 0.5588,0 1.00754,-0.1524 1.38007,-0.5334 0.41487,-0.4064 0.52493,-0.94827 0.55033,-1.61713 l 0.0847,-2.76014 c -0.44873,0.16087 -0.9144,0.1778 -1.40547,0 z"
         style="font-weight:bold;font-stretch:expanded;line-height:100%;font-family:'Anka CLM';-inkscape-font-specification:'Anka CLM Bold Expanded'"
         id="path30653" />
      <path
         d="m -139.13669,198.896 c -0.4318,0.3302 -0.90593,0.49107 -1.43087,0.47413 0.22014,0.97367 0.1016,1.6256 -0.0931,2.24367 0.5588,-0.1524 1.08374,-0.18627 1.5494,0 -0.28786,-0.889 -0.254,-1.9812 -0.0254,-2.7178 z m -1.73567,-1.38007 0.16087,0.28787 c 0.74507,-0.4572 1.4224,-0.65193 2.29447,-0.65193 0.6604,0 1.20227,0.11853 1.60867,0.52493 0.4064,0.38947 0.5842,0.89747 0.5842,1.5494 0,0.9144 -0.26247,1.6002 -0.6604,2.3876 0.47413,-0.16087 0.9906,-0.1778 1.5748,0 0.24553,-0.75353 0.34713,-1.4224 0.34713,-2.1082 0,-0.9144 -0.254,-1.63407 -0.8128,-2.1336 -0.57573,-0.508 -1.27,-0.66887 -2.15053,-0.66887 -1.18534,0 -2.11667,0.24554 -2.94641,0.8128 z"
         style="font-weight:bold;font-stretch:expanded;line-height:100%;font-family:'Anka CLM';-inkscape-font-specification:'Anka CLM Bold Expanded'"
         id="path30655" />
      <path
         d="m -142.33709,197.372 c -0.55033,-0.49107 -1.1684,-0.66887 -1.9812,-0.66887 -1.0922,0 -1.94733,0.24554 -2.70933,0.8128 l 0.13547,0.28787 c 0.6858,-0.4572 1.30386,-0.65193 2.1082,-0.65193 0.57573,0 1.00753,0.0847 1.4224,0.4572 0.36406,0.3302 0.5588,0.93133 0.5588,1.55786 0,0.8128 -0.254,1.651 -0.65194,2.44687 0.51647,-0.1778 1.0414,-0.16933 1.55787,0.0169 0.2286,-0.67733 0.3556,-1.36313 0.3556,-1.98966 0,-1.016 -0.18627,-1.7272 -0.79587,-2.26907 z"
         style="font-weight:bold;font-stretch:expanded;line-height:100%;font-family:'Anka CLM';-inkscape-font-specification:'Anka CLM Bold Expanded'"
         id="path30657" />
      <path
         d="m -157.26381,197.02487 0.0762,-0.3302 c -0.59267,0.23706 -1.13454,0.37253 -1.5748,0.27093 0.29633,1.88807 0.28786,3.39513 0,4.6482 0.56726,-0.18627 1.0668,-0.1524 1.6002,0 -0.36407,-1.48167 -0.4064,-2.86173 -0.18627,-4.1656 0.47413,-0.21167 0.97367,-0.31327 1.53247,-0.31327 0.66886,0 1.23613,0.127 1.64253,0.5334 0.38947,0.38947 0.55034,0.92287 0.55034,1.6256 0,0.762 -0.27094,1.58327 -0.67734,2.31987 0.508,-0.14393 1.02447,-0.19473 1.5748,0 0.26247,-0.70273 0.36407,-1.397 0.36407,-2.22673 0,-0.77047 -0.254,-1.53247 -0.80433,-2.032 -0.57574,-0.52494 -1.27847,-0.65194 -2.19287,-0.65194 -0.7366,0 -1.3462,0.11007 -1.905,0.32174 z"
         style="font-weight:bold;font-stretch:expanded;line-height:100%;font-family:'Anka CLM';-inkscape-font-specification:'Anka CLM Bold Expanded'"
         id="path30659" />
      <path
         d="m -165.40874,197.35507 0.14393,0.31326 c 0.89747,-0.3556 1.8796,-0.54186 2.88714,-0.54186 0.44873,0 0.8382,0.0931 1.10066,0.32173 0.2286,0.2032 0.3556,0.46567 0.3556,0.8636 0,0.31327 -0.22013,0.7366 -0.60113,0.9398 -0.381,0.2032 -0.89747,0.24553 -1.4478,0.254 l -0.0339,0.254 c 0.3048,0.0762 0.635,0.28787 0.8128,0.56727 0.24554,0.381 0.28787,0.8636 0.24554,1.2954 0.4572,-0.1524 0.9144,-0.2032 1.38006,-0.0169 0.0339,-0.7874 -0.254,-1.43933 -0.99906,-1.92193 0.508,-0.0762 0.8636,-0.14393 1.2954,-0.44027 0.38946,-0.26246 0.5842,-0.62653 0.5842,-1.04986 0,-0.54187 -0.27094,-0.95674 -0.79587,-1.21074 -0.4572,-0.2286 -0.9906,-0.2794 -1.64253,-0.2794 -0.56727,0 -1.07527,0.0423 -1.56634,0.127 -0.54186,0.0931 -1.18533,0.29634 -1.71873,0.52494 z"
         style="font-weight:bold;font-stretch:expanded;line-height:100%;font-family:'Anka CLM';-inkscape-font-specification:'Anka CLM Bold Expanded'"
         id="path30661" />
      <path
         d="m -170.15006,198.8706 c -0.2286,0.3556 -0.57574,0.69427 -1.15994,0.9906 0.13547,1.3716 -0.0169,2.6162 -0.381,3.76767 0.51647,-0.2032 1.08373,-0.1778 1.69334,-0.008 -0.2286,-1.23613 -0.3556,-2.667 -0.1524,-4.7498 z m -1.50707,-1.3208 0.2032,0.2286 c 0.66886,-0.4826 1.1176,-0.65193 1.8796,-0.65193 0.6858,0 1.23613,0.1778 1.651,0.5842 0.36407,0.36406 0.60113,0.9144 0.60113,1.56633 0,0.49107 -0.1524,1.05833 -0.57573,1.48167 -0.3048,0.28786 -0.762,0.508 -1.33773,0.508 -0.18627,0 -0.34714,-0.008 -0.49954,-0.0339 l 0.0254,0.31327 c 0.24554,0.0508 0.52494,0.0508 0.8382,0.0508 0.635,0 1.6002,-0.29634 2.1336,-0.82127 0.4826,-0.47413 0.65194,-0.889 0.65194,-1.54093 0,-0.77047 -0.28787,-1.33774 -0.80434,-1.84574 -0.60113,-0.5842 -1.53246,-0.6858 -2.06586,-0.6858 -1.0922,0 -1.80341,0.1524 -2.70087,0.84667 z"
         style="font-weight:bold;font-stretch:expanded;line-height:100%;font-family:'Anka CLM';-inkscape-font-specification:'Anka CLM Bold Expanded'"
         id="path30663" />
      <path
         d="m -176.95725,199.59027 c 0,0.56726 0.1524,1.03293 0.508,1.38853 0.41486,0.42333 1.03293,0.635 1.76953,0.635 0.72813,0 1.35467,-0.21167 1.76953,-0.635 0.36407,-0.36407 0.54187,-0.889 0.54187,-1.46473 0,-0.3556 -0.1016,-0.762 -0.2286,-1.25307 l -0.381,-1.4986 c -0.0847,-0.3302 -0.16087,-0.65193 -0.16087,-0.94827 0,-0.24553 0.0508,-0.4826 0.1778,-0.70273 0.20321,-0.3302 0.46567,-0.5588 1.00754,-0.6604 0.127,-0.0169 0.254,-0.0339 0.37253,-0.0339 0.21167,0 0.42334,0.0339 0.64347,0.0931 l 0.11853,-0.29634 c -0.29633,-0.11007 -0.6096,-0.16933 -0.95673,-0.16933 -0.21167,0 -0.4318,0.0254 -0.67733,0.0677 -0.62654,0.11007 -1.31234,0.49107 -1.60867,1.03294 -0.16087,0.2794 -0.2286,0.59266 -0.2286,0.9398 0,0.31326 0.0593,0.65193 0.16086,1.02446 l 0.49954,1.87114 c 0.127,0.4572 0.2032,0.8382 0.2032,1.143 0,0.3556 -0.0677,0.6604 -0.29634,0.889 -0.18626,0.18626 -0.4572,0.2794 -0.75353,0.2794 -0.37253,0 -0.7112,-0.1778 -0.9398,-0.44874 -0.28787,-0.3302 -0.44027,-0.82973 -0.44027,-1.3716 0,-0.7874 0.2286,-1.43933 0.7366,-1.93886 l -0.2032,-0.27094 c -0.4826,0.21167 -0.93133,0.5588 -1.2446,1.00754 -0.26246,0.37253 -0.38946,0.8128 -0.38946,1.3208 z"
         style="font-weight:bold;font-stretch:expanded;line-height:100%;font-family:'Anka CLM';-inkscape-font-specification:'Anka CLM Bold Expanded'"
         id="path30665" />
      <path
         d="m -179.01464,195.99193 c 0.127,0.59267 0.32173,1.2954 -0.008,2.17594 l 0.2032,0.19473 c 0.5842,-0.508 1.18534,-1.55787 1.31234,-2.37067 -0.46567,0.16934 -1.03294,0.16934 -1.50707,0 z m -2.26907,0 c 0.127,0.59267 0.31327,1.2954 -0.008,2.17594 l 0.19473,0.19473 c 0.59267,-0.508 1.18533,-1.55787 1.31233,-2.37067 -0.4572,0.16934 -1.02446,0.16934 -1.4986,0 z"
         style="font-weight:bold;font-stretch:expanded;line-height:100%;font-family:'Anka CLM';-inkscape-font-specification:'Anka CLM Bold Expanded'"
         id="path30667" />
    </g>
  </g>
</svg>
