<?xml version="1.0" encoding="UTF-8" standalone="no"?>
<!-- Created with Inkscape (http://www.inkscape.org/) -->

<svg
   width="100%"
   height="100%"
   viewBox="0 0 177.14644 69.478675"
   version="1.1"
   id="svg5"
   xmlns="http://www.w3.org/2000/svg"
   xmlns:svg="http://www.w3.org/2000/svg">
  <defs
     id="defs2" />
  <g
     id="layer1"
     transform="translate(70.421567,-110.23699)">
    <g
       aria-label="אני תעיתי על פני שדות
עם הדממה בין ערבים,
חלומות מתים נדים, נעים..."
       id="text1463"
       style="font-size:16.9333px;line-height:90%;font-family:Sans;-inkscape-font-specification:'Adobe Helvetica';letter-spacing:0px;word-spacing:0px;direction:rtl;stroke-width:0.264583px">
      <path
         d="m 103.69287,121.61777 c 0.80434,-1.36878 1.73567,-3.03388 1.83444,-5.03766 0.0141,-0.381 -0.28222,-0.71966 -0.67733,-0.73377 -0.381,-0.0282 -0.71966,0.28222 -0.73377,0.66322 -0.0706,1.46755 -0.762,2.83632 -1.48167,4.12043 0,0 -1.76388,-1.62277 -2.864548,-2.69521 -0.634999,-0.62089 -1.594552,-1.63689 -1.594552,-1.63689 -0.268111,-0.26811 -0.719666,-0.28222 -0.987776,0 -0.282222,0.26811 -0.296333,0.71967 -0.01411,0.98778 0.606776,0.60677 1.185331,1.24177 1.806218,1.83444 -0.818442,1.45344 -1.411108,2.83632 -1.933218,4.4591 -0.127,0.36689 0.08467,0.762 0.451555,0.889 0.380999,0.11289 0.776109,-0.0847 0.888998,-0.45156 0.465666,-1.43933 0.959554,-2.63877 1.650993,-3.89466 l 1.97555,1.86267 c 0.0282,0.32455 0.31045,0.62088 0.67734,0.635 l 1.63688,1.5381 c 0.28222,0.254 0.71967,0.254 0.98778,-0.0423 0.26811,-0.28222 0.254,-0.71967 -0.0282,-0.98778 z"
         style="font-family:'Comix No2 CLM';-inkscape-font-specification:'Comix No2 CLM'"
         id="path28770" />
      <path
         d="m 93.250683,115.83222 c -0.52211,0 -0.987776,0.15523 -1.312331,0.36689 -0.324555,0.19756 -0.409221,0.64911 -0.197555,0.97367 0.211666,0.32455 0.64911,0.40922 0.973665,0.19755 0.141111,-0.0847 0.282222,-0.127 0.536221,-0.127 1.04422,0 1.56633,1.73567 1.56633,3.59833 0,1.87677 -0.761998,2.28599 -2.935105,2.28599 -0.155222,0 -0.296333,0 -0.479777,-0.0282 -0.380999,-0.0423 -0.733776,0.23989 -0.776109,0.62089 -0.04233,0.381 0.225777,0.73378 0.620887,0.79022 0.239889,0.0282 0.437444,0.0282 0.634999,0.0282 3.13266,0 4.346214,-0.79022 4.346214,-3.6971 0,-1.63689 -0.493888,-5.00944 -2.977439,-5.00944 z"
         style="font-family:'Comix No2 CLM';-inkscape-font-specification:'Comix No2 CLM'"
         id="path28772" />
      <path
         d="m 89.90636,119.96677 c -0.02822,-1.28411 -0.127,-2.46944 -0.310444,-3.65477 -0.05644,-0.39511 -0.423332,-0.64911 -0.804331,-0.59266 -0.395111,0.0564 -0.64911,0.42333 -0.592666,0.80433 0.183444,1.12888 0.282222,2.24366 0.310444,3.48543 0,0.381 0.324555,0.69145 0.719665,0.67734 0.380999,0 0.691443,-0.32456 0.677332,-0.71967 z"
         style="font-family:'Comix No2 CLM';-inkscape-font-specification:'Comix No2 CLM'"
         id="path28774" />
      <path
         d="m 73.890297,117.11633 c -0.127,-0.0847 -0.254,-0.127 -0.409222,-0.11289 -0.380999,0 -0.691443,0.32456 -0.677332,0.71967 0.02822,1.60866 0.183445,3.03388 0.183445,4.52966 0,0.40922 -0.127,0.66322 -0.282222,0.86077 -0.536221,0 -0.77611,-0.16933 -1.368775,-0.60677 -0.310444,-0.22578 -0.761999,-0.16934 -0.987776,0.15522 -0.225777,0.31044 -0.155222,0.74789 0.155222,0.98777 0.564443,0.40923 1.227664,0.87489 2.201329,0.87489 1.185331,0 1.69333,-1.31233 1.69333,-2.27188 0,-1.35467 -0.112889,-2.61055 -0.169333,-3.92288 0.253999,0.0564 0.536221,-0.0423 0.705554,-0.26811 0.380999,-0.49389 1.185331,-0.84667 1.94733,-0.84667 1.665107,0 3.146771,0.98778 3.146771,2.83633 0,1.07244 -0.324555,2.13077 -0.52211,3.33021 -0.05644,0.381 0.197555,0.74789 0.578554,0.81845 0.381,0.0564 0.747888,-0.19756 0.818443,-0.57856 0.183444,-1.08655 0.536221,-2.22955 0.536221,-3.5701 0,-2.77989 -2.271884,-4.24744 -4.557879,-4.24744 -1.100665,0 -2.271885,0.42333 -2.99155,1.31233 z"
         style="font-family:'Comix No2 CLM';-inkscape-font-specification:'Comix No2 CLM'"
         id="path28776" />
      <path
         d="m 66.340905,122.63377 c -0.52211,0.254 -1.213553,0.45155 -1.904996,0.45155 -0.677332,0 -1.312331,-0.18344 -1.679219,-0.46566 -0.310444,-0.22578 -0.747887,-0.16934 -0.987776,0.14111 -0.239888,0.31044 -0.183444,0.74788 0.127,0.98777 0.719665,0.53622 1.636886,0.74789 2.539995,0.74789 0.691443,0 1.382886,-0.11289 2.003774,-0.36689 2.285995,-0.90311 3.443104,-2.83633 3.443104,-5.74321 0,-0.84666 -0.127,-1.80622 -0.620887,-2.31422 -0.268111,-0.28222 -0.719666,-0.28222 -1.001887,0 -0.268111,0.26811 -0.282222,0.71967 0,0.98778 0.155222,0.16933 0.211666,0.73377 0.211666,1.32644 0,1.76389 -0.423333,2.97744 -1.368775,3.75355 0.09878,-0.33867 -0.07056,-0.71967 -0.409222,-0.86078 -1.69333,-0.69144 -3.951103,-2.44122 -3.965214,-4.5861 -0.01411,-0.381 -0.324555,-0.70555 -0.719665,-0.69144 -0.395111,0 -0.691443,0.32455 -0.691443,0.70555 0,3.10444 3.189104,5.31988 5.023545,5.92666 z"
         style="font-family:'Comix No2 CLM';-inkscape-font-specification:'Comix No2 CLM'"
         id="path28778" />
      <path
         d="m 60.273143,119.96677 c -0.02822,-1.28411 -0.126999,-2.46944 -0.310443,-3.65477 -0.05644,-0.39511 -0.423333,-0.64911 -0.804332,-0.59266 -0.395111,0.0564 -0.64911,0.42333 -0.592666,0.80433 0.183444,1.12888 0.282222,2.24366 0.310444,3.48543 0,0.381 0.324555,0.69145 0.719665,0.67734 0.381,0 0.691443,-0.32456 0.677332,-0.71967 z"
         style="font-family:'Comix No2 CLM';-inkscape-font-specification:'Comix No2 CLM'"
         id="path28780" />
      <path
         d="m 49.901497,117.11633 c -0.127,-0.0847 -0.254,-0.127 -0.409222,-0.11289 -0.380999,0 -0.691443,0.32456 -0.677332,0.71967 0.02822,1.60866 0.183444,3.03388 0.183444,4.52966 0,0.40922 -0.126999,0.66322 -0.282221,0.86077 -0.536221,0 -0.77611,-0.16933 -1.368775,-0.60677 -0.310444,-0.22578 -0.761999,-0.16934 -0.987776,0.15522 -0.225777,0.31044 -0.155222,0.74789 0.155222,0.98777 0.564443,0.40923 1.227664,0.87489 2.201329,0.87489 1.185331,0 1.69333,-1.31233 1.69333,-2.27188 0,-1.35467 -0.112889,-2.61055 -0.169333,-3.92288 0.253999,0.0564 0.536221,-0.0423 0.705554,-0.26811 0.380999,-0.49389 1.185331,-0.84667 1.947329,-0.84667 1.665108,0 3.146772,0.98778 3.146772,2.83633 0,1.07244 -0.324555,2.13077 -0.52211,3.33021 -0.05644,0.381 0.197555,0.74789 0.578554,0.81845 0.381,0.0564 0.747888,-0.19756 0.818443,-0.57856 0.183444,-1.08655 0.536221,-2.22955 0.536221,-3.5701 0,-2.77989 -2.271884,-4.24744 -4.55788,-4.24744 -1.100664,0 -2.271884,0.42333 -2.991549,1.31233 z"
         style="font-family:'Comix No2 CLM';-inkscape-font-specification:'Comix No2 CLM'"
         id="path28782" />
      <path
         d="m 45.52708,119.96677 c -0.02822,-1.28411 -0.127,-2.46944 -0.310444,-3.65477 -0.05644,-0.39511 -0.423332,-0.64911 -0.804331,-0.59266 -0.395111,0.0564 -0.64911,0.42333 -0.592666,0.80433 0.183444,1.12888 0.282222,2.24366 0.310444,3.48543 0,0.381 0.324555,0.69145 0.719665,0.67734 0.380999,0 0.691443,-0.32456 0.677332,-0.71967 z"
         style="font-family:'Comix No2 CLM';-inkscape-font-specification:'Comix No2 CLM'"
         id="path28784" />
      <path
         d="m 33.589151,122.63377 c -0.522111,0.254 -1.213554,0.45155 -1.904997,0.45155 -0.677332,0 -1.31233,-0.18344 -1.679219,-0.46566 -0.310443,-0.22578 -0.747887,-0.16934 -0.987775,0.14111 -0.239889,0.31044 -0.183445,0.74788 0.126999,0.98777 0.719666,0.53622 1.636886,0.74789 2.539995,0.74789 0.691443,0 1.382886,-0.11289 2.003774,-0.36689 2.285996,-0.90311 3.443104,-2.83633 3.443104,-5.74321 0,-0.84666 -0.126999,-1.80622 -0.620887,-2.31422 -0.268111,-0.28222 -0.719665,-0.28222 -1.001887,0 -0.268111,0.26811 -0.282222,0.71967 0,0.98778 0.155222,0.16933 0.211666,0.73377 0.211666,1.32644 0,1.76389 -0.423332,2.97744 -1.368775,3.75355 0.09878,-0.33867 -0.07055,-0.71967 -0.409221,-0.86078 -1.69333,-0.69144 -3.951104,-2.44122 -3.965215,-4.5861 -0.01411,-0.381 -0.324555,-0.70555 -0.719665,-0.69144 -0.39511,0 -0.691443,0.32455 -0.691443,0.70555 0,3.10444 3.189105,5.31988 5.023546,5.92666 z"
         style="font-family:'Comix No2 CLM';-inkscape-font-specification:'Comix No2 CLM'"
         id="path28786" />
      <path
         d="m 23.908954,123.14177 c -0.705554,0 -1.354664,-0.0706 -2.060218,-0.127 -0.39511,-0.0423 -0.733776,0.23988 -0.776109,0.63499 -0.02822,0.381 0.253999,0.73378 0.634998,0.762 0.719666,0.0706 1.411109,0.14111 2.201329,0.14111 2.384774,0 4.120437,-3.52777 4.120437,-5.43276 0,-2.56822 -2.116663,-3.28789 -4.600213,-3.28789 -0.747888,0 -1.55222,0.0988 -2.088441,0.0847 0.141111,-0.889 0.352777,-1.98966 0.352777,-3.00566 0,-0.39511 -0.02822,-0.79022 -0.126999,-1.15711 -0.09878,-0.36689 -0.493888,-0.59266 -0.860776,-0.49389 -0.381,0.0988 -0.606777,0.49389 -0.493888,0.86078 0.04233,0.19755 0.07056,0.47978 0.07056,0.79022 0,0.94544 -0.253999,2.20133 -0.409221,3.1891 -0.127,0.83256 1.142997,1.25589 1.735663,1.25589 0.705554,0 1.157109,-0.11289 1.82033,-0.11289 2.158995,0 3.189104,0.508 3.189104,1.87678 0,1.5381 -1.56633,4.02166 -2.709328,4.02166 z"
         style="font-family:'Comix No2 CLM';-inkscape-font-specification:'Comix No2 CLM'"
         id="path28788" />
      <path
         d="m 7.5683581,118.01944 c 0.169333,0 0.338666,-0.0564 0.4797769,-0.18344 0.4233325,-0.39511 0.9736647,-0.62089 1.7215521,-0.62089 2.1025519,0 2.8363279,1.46755 2.8363279,2.83633 0,1.22766 -0.437444,2.25777 -1.086554,2.99155 -0.634998,0.0141 -1.354664,0.0423 -2.0319955,0.0423 -1.0442202,0 -2.0461071,-0.11289 -2.3001066,-0.26811 -0.2963328,-0.18344 -0.7478874,-0.21167 -1.015998,0.16933 -0.2116663,0.31045 -0.1411108,0.762 0.1834441,0.97367 0.8184428,0.508 1.9191073,0.53622 3.1326605,0.53622 0.7619985,0 1.5381085,-0.0282 2.1731065,-0.0423 0,0 0,0 0,0 0.155222,0 0.64911,-0.18345 0.747888,-0.29634 0.776109,-0.94544 1.608663,-2.31421 1.608663,-4.10632 0,-2.00378 -1.241775,-4.24744 -4.2474359,-4.24744 -0.9031093,0 -1.7215521,0.254 -2.384773,0.74789 -0.4233325,-0.40922 -1.1571089,-0.127 -1.185331,0.47978 -0.014111,0.45155 -0.056444,0.88899 -0.056444,1.34055 0,1.10066 0.3245549,1.79211 0.9313315,2.24366 0.9031094,0.52211 1.1288867,0.46567 1.7921076,0.46567 0.4656658,0 0.8889983,-0.0423 1.2841078,-0.23989 0.338666,-0.16933 0.493888,-0.59267 0.324555,-0.94544 -0.183444,-0.33867 -0.6067759,-0.49389 -0.9454419,-0.32456 -0.042333,0.0282 -0.338666,0.0988 -0.6632209,0.0988 -0.3951103,0 -0.7761096,-0.0706 -0.9454426,-0.18345 -0.2822216,-0.18344 -0.3668881,-0.47977 -0.3668881,-1.11477 0,-0.11289 0,-0.22578 0.014111,-0.35278 z"
         style="font-family:'Comix No2 CLM';-inkscape-font-specification:'Comix No2 CLM'"
         id="path28790" />
      <path
         d="m 2.2061465,115.83222 c -0.5221101,0 -0.9877759,0.15523 -1.31233078,0.36689 -0.32455492,0.19756 -0.40922142,0.64911 -0.19755517,0.97367 0.21166625,0.32455 0.64910985,0.40922 0.97366475,0.19755 0.1411108,-0.0847 0.2822217,-0.127 0.5362212,-0.127 1.0442201,0 1.5663302,1.73567 1.5663302,3.59833 0,1.87677 -0.7619985,2.28599 -2.93510531,2.28599 -0.15522192,0 -0.29633275,0 -0.47977684,-0.0282 -0.38099925,-0.0423 -0.73377633,0.23989 -0.77610958,0.62089 -0.0423332,0.381 0.22577733,0.73378 0.62088767,0.79022 0.23988841,0.0282 0.43744358,0.0282 0.63499875,0.0282 3.13266051,0 4.34621371,-0.79022 4.34621371,-3.6971 0,-1.63689 -0.493888,-5.00944 -2.9774386,-5.00944 z"
         style="font-family:'Comix No2 CLM';-inkscape-font-specification:'Comix No2 CLM'"
         id="path28792" />
      <path
         d="m -1.1381688,119.96677 c -0.028222,-1.28411 -0.1269997,-2.46944 -0.3104438,-3.65477 -0.056444,-0.39511 -0.4233325,-0.64911 -0.8043317,-0.59266 -0.3951104,0.0564 -0.6491099,0.42333 -0.5926655,0.80433 0.183444,1.12888 0.2822216,2.24366 0.3104438,3.48543 0,0.381 0.3245549,0.69145 0.7196652,0.67734 0.3809993,0 0.6914431,-0.32456 0.677332,-0.71967 z"
         style="font-family:'Comix No2 CLM';-inkscape-font-specification:'Comix No2 CLM'"
         id="path28794" />
      <path
         d="m -17.986751,120.94044 c -0.141111,-0.62089 -0.169333,-1.38289 -0.169333,-2.17311 0,-0.74789 0.01411,-1.48166 -0.07056,-2.17311 -0.04233,-0.39511 -0.39511,-0.66322 -0.790221,-0.62089 -0.380999,0.0564 -0.66322,0.40923 -0.606776,0.79023 0.07055,0.55033 0.05644,1.32644 0.05644,2.00377 0,0.889 0.01411,1.84855 0.268111,2.75166 0.592665,2.11666 2.300106,2.97744 4.656657,2.97744 1.749775,0 2.963328,-0.52211 3.90877,-1.35466 0.183444,-0.16934 0.254,-0.42334 0.225778,-0.64911 0.366888,-1.07245 0.6914428,-2.72344 0.6914428,-4.26155 0,-0.49389 -0.028222,-1.00189 -0.098778,-1.50989 -0.056444,-0.39511 -0.4092208,-0.66322 -0.7902198,-0.60677 -0.395111,0.0423 -0.663221,0.39511 -0.606777,0.79022 0.05644,0.45155 0.08467,0.88899 0.08467,1.32644 0,1.34055 -0.253999,2.62466 -0.592665,3.73944 -0.02822,0.0847 -0.02822,0.16933 -0.02822,0.25399 -0.691443,0.57856 -1.368775,0.86078 -2.793995,0.86078 -1.269997,0 -2.130773,-0.254 -2.681106,-0.81844 0.832554,-0.127 1.919108,-0.19756 2.737551,-0.83256 0.564443,-0.45155 0.832554,-1.10066 0.832554,-2.11666 0,-0.94544 -0.183445,-1.89088 -0.423333,-2.97744 -0.07055,-0.381 -0.451555,-0.62088 -0.832554,-0.53622 -0.380999,0.0847 -0.620888,0.45156 -0.536221,0.83256 0.225777,1.05833 0.380999,1.93321 0.380999,2.6811 0,0.49389 -0.02822,0.80433 -0.296333,1.00189 -0.39511,0.31044 -1.467552,0.42333 -2.497661,0.60678 -0.01411,0.0141 -0.02822,0.0141 -0.02822,0.0141 z"
         style="font-family:'Comix No2 CLM';-inkscape-font-specification:'Comix No2 CLM'"
         id="path28796" />
      <path
         d="m -23.828715,117.37033 c 0,0 -0.01411,0.0141 -0.01411,0.0282 -0.225778,1.00189 -0.268111,2.06022 -0.268111,3.09033 0,1.93322 0.211666,2.42711 0.253999,3.34433 0.01411,0.39511 0.338666,0.69144 0.733777,0.67733 0.380999,-0.0141 0.691443,-0.33867 0.663221,-0.73378 -0.04233,-1.1571 -0.239889,-1.48166 -0.239889,-3.28788 0,-0.98777 0.04233,-1.96144 0.239889,-2.77988 0.02822,-0.127 0.01411,-0.26811 -0.02822,-0.39511 0.352777,-0.0282 0.719665,-0.0706 1.128886,-0.14111 0.381,-0.0564 0.64911,-0.40922 0.592666,-0.80433 -0.05645,-0.381 -0.423333,-0.64911 -0.804332,-0.57856 -0.874887,0.127 -1.580441,0.16933 -2.243662,0.16933 -0.846665,0 -1.650997,-0.0705 -2.59644,-0.0705 -1.284108,0 -2.102551,0.16933 -2.935105,0.52211 -0.352777,0.16933 -0.507999,0.57855 -0.352777,0.93133 0.155222,0.36689 0.578554,0.52211 0.931331,0.36689 0.663221,-0.29633 1.157109,-0.40922 2.356551,-0.40922 0.874888,0 1.665108,0.0564 2.582329,0.0705 z"
         style="font-family:'Comix No2 CLM';-inkscape-font-specification:'Comix No2 CLM'"
         id="path28798" />
      <path
         d="m -30.997139,119.12011 c 0,-0.97367 -0.02822,-1.89089 -0.09878,-2.76578 -0.02822,-0.381 -0.366888,-0.67733 -0.761999,-0.63499 -0.380999,0.0282 -0.677332,0.36688 -0.634998,0.76199 0.05644,0.80434 0.08467,1.67922 0.08467,2.63878 0,1.42522 -0.04233,3.00566 -0.04233,4.76954 0,0.39511 0.310444,0.70556 0.705554,0.70556 0.380999,0 0.705554,-0.31045 0.705554,-0.70556 0,-1.73566 0.04233,-3.3161 0.04233,-4.76954 z"
         style="font-family:'Comix No2 CLM';-inkscape-font-specification:'Comix No2 CLM'"
         id="path28800" />
      <path
         d="m -41.524005,117.11633 c -0.126999,-0.0847 -0.253999,-0.127 -0.409221,-0.11289 -0.380999,0 -0.691443,0.32456 -0.677332,0.71967 0.02822,1.60866 0.183444,3.03388 0.183444,4.52966 0,0.40922 -0.127,0.66322 -0.282222,0.86077 -0.536221,0 -0.776109,-0.16933 -1.368775,-0.60677 -0.310444,-0.22578 -0.761998,-0.16934 -0.987776,0.15522 -0.225777,0.31044 -0.155221,0.74789 0.155222,0.98777 0.564444,0.40923 1.227665,0.87489 2.201329,0.87489 1.185331,0 1.69333,-1.31233 1.69333,-2.27188 0,-1.35467 -0.112888,-2.61055 -0.169333,-3.92288 0.254,0.0564 0.536222,-0.0423 0.705555,-0.26811 0.380999,-0.49389 1.185331,-0.84667 1.947329,-0.84667 1.665108,0 3.146772,0.98778 3.146772,2.83633 0,1.07244 -0.324555,2.13077 -0.52211,3.33021 -0.05645,0.381 0.197555,0.74789 0.578554,0.81845 0.380999,0.0564 0.747887,-0.19756 0.818443,-0.57856 0.183444,-1.08655 0.536221,-2.22955 0.536221,-3.5701 0,-2.77989 -2.271884,-4.24744 -4.55788,-4.24744 -1.100664,0 -2.271884,0.42333 -2.99155,1.31233 z"
         style="font-family:'Comix No2 CLM';-inkscape-font-specification:'Comix No2 CLM'"
         id="path28802" />
      <path
         d="m 102.15476,139.8754 c -0.52211,0.254 -1.21356,0.45155 -1.905,0.45155 -0.67733,0 -1.312329,-0.18344 -1.679217,-0.46566 -0.310444,-0.22578 -0.747888,-0.16934 -0.987776,0.14111 -0.239889,0.31044 -0.183444,0.74788 0.127,0.98777 0.719665,0.53622 1.636885,0.74789 2.539993,0.74789 0.69144,0 1.38289,-0.11289 2.00378,-0.36689 2.28599,-0.90311 3.4431,-2.83633 3.4431,-5.74321 0,-0.84666 -0.127,-1.80622 -0.62089,-2.31422 -0.26811,-0.28222 -0.71966,-0.28222 -1.00188,0 -0.26812,0.26811 -0.28223,0.71967 0,0.98778 0.15522,0.16933 0.21166,0.73377 0.21166,1.32644 0,1.76389 -0.42333,2.97744 -1.36877,3.75355 0.0988,-0.33867 -0.0706,-0.71967 -0.40923,-0.86078 -1.69333,-0.69144 -3.951098,-2.44122 -3.965209,-4.5861 -0.01411,-0.381 -0.324555,-0.70555 -0.719666,-0.69144 -0.39511,0 -0.691443,0.32455 -0.691443,0.70555 0,3.10444 3.189108,5.31988 5.023548,5.92666 z"
         style="font-family:'Comix No2 CLM';-inkscape-font-specification:'Comix No2 CLM'"
         id="path28804" />
      <path
         d="m 89.003254,133.29963 c -0.127,0 -0.239888,0.0141 -0.338666,0.0564 -0.52211,0.0705 -1.04422,0.18344 -1.594552,0.32455 -0.366888,0.0988 -0.592666,0.49389 -0.493888,0.87489 0.112888,0.36689 0.493888,0.59266 0.874887,0.49389 0.225777,-0.0706 0.437444,-0.127 0.663221,-0.16934 -0.07056,0.74789 -0.112889,1.50989 -0.112889,2.34244 0,0.508 0.01411,1.04422 0.05644,1.60867 0.14111,2.28599 1.721552,2.94921 3.400771,2.94921 1.213553,0 2.878661,-0.0705 3.824103,-0.28222 0.338666,-0.0705 0.578555,-0.381 0.550332,-0.71966 0.366889,-0.66323 0.409222,-1.48167 0.409222,-2.286 0,-0.57855 -0.04233,-1.18533 -0.07056,-1.74977 -0.155221,-2.72344 -2.074329,-3.64066 -4.120436,-3.64066 -1.058331,0 -2.060218,0.0705 -3.047994,0.19755 z m 0.550332,1.36878 c 0.77611,-0.0847 1.636886,-0.15523 2.497662,-0.15523 1.495775,0 2.610551,0.52211 2.709328,2.30011 0.02822,0.57856 0.07056,1.15711 0.07056,1.67922 0,0.81844 -0.141111,1.46755 -0.296333,1.70744 -0.818443,0.11289 -2.130774,0.16933 -3.076216,0.16933 -1.142998,0 -1.919108,-0.29633 -1.989663,-1.62277 -0.04233,-0.55033 -0.05644,-1.04422 -0.05644,-1.524 0,-0.91722 0.05644,-1.73566 0.14111,-2.5541 z"
         style="font-family:'Comix No2 CLM';-inkscape-font-specification:'Comix No2 CLM'"
         id="path28806" />
      <path
         d="m 72.761425,138.23851 c -0.141111,0.90311 0.02822,1.83444 -0.01411,2.76577 -0.02822,0.39511 0.282221,0.71967 0.663221,0.73378 0.39511,0.0282 0.719665,-0.28222 0.733776,-0.66322 0.05644,-0.91722 -0.112889,-1.82033 0.01411,-2.59644 0.05644,-0.39511 -0.197555,-0.74789 -0.578554,-0.81844 -0.395111,-0.0565 -0.747888,0.19755 -0.818443,0.57855 z m 3.739437,-5.20699 c -1.82033,0 -3.287883,0.42333 -4.68488,0.889 -0.366888,0.127 -0.578554,0.52211 -0.451554,0.889 0.126999,0.36689 0.52211,0.57855 0.888998,0.45155 1.368775,-0.45155 2.638772,-0.81844 4.247436,-0.81844 1.82033,0 2.398884,1.29822 2.398884,3.07622 0,1.24177 -0.282222,2.41299 -0.606777,3.41488 -0.126999,0.36689 0.08467,0.762 0.451555,0.889 0.366888,0.127 0.761999,-0.0847 0.888998,-0.45156 0.352777,-1.08655 0.677332,-2.39888 0.677332,-3.85232 0,-2.286 -0.945442,-4.48733 -3.809992,-4.48733 z"
         style="font-family:'Comix No2 CLM';-inkscape-font-specification:'Comix No2 CLM'"
         id="path28808" />
      <path
         d="m 67.610906,134.61196 c 0,0 -0.01411,0.0141 -0.01411,0.0282 -0.225777,1.00189 -0.268111,2.06022 -0.268111,3.09033 0,1.93322 0.211667,2.42711 0.254,3.34433 0.01411,0.39511 0.338666,0.69144 0.733776,0.67733 0.380999,-0.0141 0.691443,-0.33867 0.663221,-0.73378 -0.04233,-1.1571 -0.239888,-1.48166 -0.239888,-3.28788 0,-0.98777 0.04233,-1.96144 0.239888,-2.77988 0.02822,-0.127 0.01411,-0.26811 -0.02822,-0.39511 0.352777,-0.0282 0.719665,-0.0706 1.128887,-0.14111 0.380999,-0.0565 0.649109,-0.40922 0.592665,-0.80433 -0.05644,-0.381 -0.423332,-0.64911 -0.804332,-0.57856 -0.874887,0.127 -1.580441,0.16933 -2.243662,0.16933 -0.846665,0 -1.650997,-0.0705 -2.596439,-0.0705 -1.284109,0 -2.102552,0.16933 -2.935106,0.52211 -0.352777,0.16933 -0.507999,0.57855 -0.352777,0.93133 0.155222,0.36689 0.578555,0.52211 0.931332,0.36689 0.663221,-0.29633 1.157109,-0.40922 2.356551,-0.40922 0.874887,0 1.665108,0.0564 2.582328,0.0705 z"
         style="font-family:'Comix No2 CLM';-inkscape-font-specification:'Comix No2 CLM'"
         id="path28810" />
      <path
         d="m 54.360623,134.6543 c -0.02822,-0.23989 -0.05644,-0.47978 -0.09878,-0.70556 -0.07056,-0.381 -0.437444,-0.635 -0.818443,-0.56444 -0.380999,0.0564 -0.64911,0.42333 -0.578555,0.81844 0.169333,0.889 0.211667,1.97555 0.211667,3.10444 0,1.11477 -0.04233,2.27188 -0.04233,3.37255 0,0.39511 0.310444,0.70555 0.705555,0.70555 0.380999,0 0.705554,-0.31044 0.705554,-0.70555 0,-1.22767 0.05644,-2.58233 0.02822,-3.88055 0.05644,-0.0423 0.112889,-0.0988 0.155222,-0.16933 0.761998,-1.17122 1.650997,-2.159 2.99155,-2.159 1.298219,0 2.031996,1.05833 2.031996,2.63877 0,1.82033 -0.423333,3.20322 -1.269998,3.27378 -0.804332,0.0705 -1.481664,-0.0141 -2.116662,-0.28223 -0.352778,-0.14111 -0.761999,0.0282 -0.917221,0.381 -0.141111,0.36689 0.02822,0.77611 0.380999,0.93133 0.874888,0.35278 1.721553,0.46567 2.765773,0.381 2.21544,-0.18344 2.568217,-3.01977 2.568217,-4.68488 0,-2.11666 -1.142998,-4.04988 -3.443104,-4.04988 -1.453442,0 -2.483551,0.73378 -3.259661,1.59456 z"
         style="font-family:'Comix No2 CLM';-inkscape-font-specification:'Comix No2 CLM'"
         id="path28812" />
      <path
         d="m 44.962666,134.6543 c -0.02822,-0.23989 -0.05644,-0.47978 -0.09878,-0.70556 -0.07056,-0.381 -0.437444,-0.635 -0.818443,-0.56444 -0.380999,0.0564 -0.64911,0.42333 -0.578554,0.81844 0.169333,0.889 0.211666,1.97555 0.211666,3.10444 0,1.11477 -0.04233,2.27188 -0.04233,3.37255 0,0.39511 0.310443,0.70555 0.705554,0.70555 0.380999,0 0.705554,-0.31044 0.705554,-0.70555 0,-1.22767 0.05644,-2.58233 0.02822,-3.88055 0.05644,-0.0423 0.112889,-0.0988 0.155222,-0.16933 0.761999,-1.17122 1.650997,-2.159 2.99155,-2.159 1.298219,0 2.031996,1.05833 2.031996,2.63877 0,1.82033 -0.423333,3.20322 -1.269998,3.27378 -0.804332,0.0705 -1.481664,-0.0141 -2.116662,-0.28223 -0.352777,-0.14111 -0.761999,0.0282 -0.917221,0.381 -0.141111,0.36689 0.02822,0.77611 0.381,0.93133 0.874887,0.35278 1.721552,0.46567 2.765772,0.381 2.21544,-0.18344 2.568217,-3.01977 2.568217,-4.68488 0,-2.11666 -1.142998,-4.04988 -3.443104,-4.04988 -1.453442,0 -2.483551,0.73378 -3.259661,1.59456 z"
         style="font-family:'Comix No2 CLM';-inkscape-font-specification:'Comix No2 CLM'"
         id="path28814" />
      <path
         d="m 34.760364,138.23851 c -0.141111,0.90311 0.02822,1.83444 -0.01411,2.76577 -0.02822,0.39511 0.282222,0.71967 0.663221,0.73378 0.39511,0.0282 0.719665,-0.28222 0.733776,-0.66322 0.05644,-0.91722 -0.112888,-1.82033 0.01411,-2.59644 0.05644,-0.39511 -0.197556,-0.74789 -0.578555,-0.81844 -0.39511,-0.0565 -0.747887,0.19755 -0.818443,0.57855 z m 3.739437,-5.20699 c -1.820329,0 -3.287882,0.42333 -4.684879,0.889 -0.366888,0.127 -0.578555,0.52211 -0.451555,0.889 0.127,0.36689 0.52211,0.57855 0.888998,0.45155 1.368775,-0.45155 2.638773,-0.81844 4.247436,-0.81844 1.82033,0 2.398885,1.29822 2.398885,3.07622 0,1.24177 -0.282222,2.41299 -0.606777,3.41488 -0.127,0.36689 0.08467,0.762 0.451555,0.889 0.366888,0.127 0.761998,-0.0847 0.888998,-0.45156 0.352777,-1.08655 0.677332,-2.39888 0.677332,-3.85232 0,-2.286 -0.945443,-4.48733 -3.809993,-4.48733 z"
         style="font-family:'Comix No2 CLM';-inkscape-font-specification:'Comix No2 CLM'"
         id="path28816" />
      <path
         d="m 25.305986,139.84717 c 0.564443,-0.87488 1.058331,-2.01788 1.058331,-3.34432 0,-2.17311 -1.509886,-3.40077 -3.245549,-3.40077 -1.82033,0 -3.400771,0.508 -4.614324,1.39699 -0.310444,0.23989 -0.381,0.67734 -0.155222,0.98778 0.225777,0.32455 0.677332,0.381 0.987776,0.15522 0.959553,-0.69144 2.21544,-1.12889 3.78177,-1.12889 0.987776,0 1.834441,0.62089 1.834441,1.98967 0,1.18533 -0.564444,2.27188 -1.17122,3.04799 -0.07056,0.11289 -0.127,0.23989 -0.141111,0.35278 -1.43933,0.14111 -2.935105,0.42333 -4.346214,0.42333 -0.26811,0 -0.536221,-0.0141 -0.832554,-0.0423 -0.380999,-0.0423 -0.733776,0.254 -0.761998,0.635 -0.04233,0.39511 0.239888,0.73377 0.634999,0.77611 0.338666,0.0282 0.649109,0.0423 0.959553,0.0423 1.961441,0 3.838215,-0.49389 5.714989,-0.49389 0.409222,0 0.790221,0.0282 1.142998,0.0988 0.39511,0.0564 0.761998,-0.19756 0.818443,-0.57856 0.07055,-0.38099 -0.183444,-0.74788 -0.564444,-0.81844 -0.366888,-0.0564 -0.733776,-0.0988 -1.100664,-0.0988 z"
         style="font-family:'Comix No2 CLM';-inkscape-font-specification:'Comix No2 CLM'"
         id="path28818" />
      <path
         d="m 16.79701,137.2084 c -0.02822,-1.28411 -0.126999,-2.46944 -0.310444,-3.65477 -0.05644,-0.39511 -0.423332,-0.64911 -0.804331,-0.59266 -0.395111,0.0564 -0.64911,0.42333 -0.592666,0.80433 0.183444,1.12888 0.282222,2.24366 0.310444,3.48543 0,0.381 0.324555,0.69145 0.719665,0.67734 0.381,0 0.691443,-0.32456 0.677332,-0.71967 z"
         style="font-family:'Comix No2 CLM';-inkscape-font-specification:'Comix No2 CLM'"
         id="path28820" />
      <path
         d="m 13.438581,139.04284 c 0,-1.84855 0,-3.71121 0.01411,-5.6021 0,-0.39511 -0.310444,-0.70555 -0.705554,-0.71966 -0.381,0 -0.705555,0.32455 -0.705555,0.70555 -0.01411,1.89089 -0.01411,3.75355 -0.01411,5.61621 0,2.17311 0,4.3321 0.04233,6.50521 0.01411,0.39511 0.324554,0.70556 0.719665,0.69144 0.39511,0 0.705554,-0.32455 0.691443,-0.70555 -0.04233,-2.17311 -0.04233,-4.3321 -0.04233,-6.4911 z"
         style="font-family:'Comix No2 CLM';-inkscape-font-specification:'Comix No2 CLM'"
         id="path28822" />
      <path
         d="m 1.7264284,139.8754 c -0.5221101,0.254 -1.21355314,0.45155 -1.90499623,0.45155 -0.677332,0 -1.31233077,-0.18344 -1.67921887,-0.46566 -0.3104439,-0.22578 -0.7478875,-0.16934 -0.9877759,0.14111 -0.2398884,0.31044 -0.1834441,0.74788 0.1269998,0.98777 0.7196652,0.53622 1.6368856,0.74789 2.53999497,0.74789 0.69144309,0 1.38288613,-0.11289 2.00377383,-0.36689 2.2859955,-0.90311 3.4431043,-2.83633 3.4431043,-5.74321 0,-0.84666 -0.1269997,-1.80622 -0.6208876,-2.31422 -0.2681106,-0.28222 -0.7196653,-0.28222 -1.0018869,0 -0.2681106,0.26811 -0.2822217,0.71967 0,0.98778 0.1552219,0.16933 0.2116662,0.73377 0.2116662,1.32644 0,1.76389 -0.4233325,2.97744 -1.3687751,3.75355 0.098778,-0.33867 -0.070555,-0.71967 -0.4092214,-0.86078 -1.69333,-0.69144 -3.9511033,-2.44122 -3.9652144,-4.5861 -0.014111,-0.381 -0.3245549,-0.70555 -0.7196653,-0.69144 -0.3951103,0 -0.691443,0.32455 -0.691443,0.70555 0,3.10444 3.18910479,5.31988 5.0235456,5.92666 z"
         style="font-family:'Comix No2 CLM';-inkscape-font-specification:'Comix No2 CLM'"
         id="path28824" />
      <path
         d="m -8.4899776,133.04563 c -1.1429977,0 -2.2013294,0.28222 -3.0762164,0.73378 -0.338666,0.18344 -0.479777,0.60677 -0.296332,0.95955 0.183444,0.33867 0.606776,0.46567 0.959553,0.29633 0.64911,-0.35277 1.495775,-0.57855 2.4129954,-0.57855 1.679219,0 3.1044384,1.15711 3.1044384,2.72344 0,1.29822 -0.2116663,2.61055 -0.3951104,3.75355 -0.070555,0.381 0.1975552,0.74788 0.5785545,0.80433 0.3809992,0.0705 0.7478874,-0.19756 0.8043317,-0.57856 0.1834441,-1.14299 0.4233325,-2.52588 0.4233325,-3.97932 0,-2.48355 -2.201329,-4.13455 -4.5155467,-4.13455 z"
         style="font-family:'Comix No2 CLM';-inkscape-font-specification:'Comix No2 CLM'"
         id="path28826" />
      <path
         d="m -14.261391,139.84717 c 0.564443,-0.87488 1.058331,-2.01788 1.058331,-3.34432 0,-2.17311 -1.509886,-3.40077 -3.245549,-3.40077 -1.82033,0 -3.400771,0.508 -4.614324,1.39699 -0.310444,0.23989 -0.381,0.67734 -0.155222,0.98778 0.225777,0.32455 0.677332,0.381 0.987775,0.15522 0.959554,-0.69144 2.215441,-1.12889 3.781771,-1.12889 0.987776,0 1.834441,0.62089 1.834441,1.98967 0,1.18533 -0.564444,2.27188 -1.17122,3.04799 -0.07056,0.11289 -0.127,0.23989 -0.141111,0.35278 -1.439331,0.14111 -2.935105,0.42333 -4.346214,0.42333 -0.26811,0 -0.536221,-0.0141 -0.832554,-0.0423 -0.380999,-0.0423 -0.733776,0.254 -0.761998,0.635 -0.04233,0.39511 0.239888,0.73377 0.634999,0.77611 0.338666,0.0282 0.649109,0.0423 0.959553,0.0423 1.961441,0 3.838215,-0.49389 5.714989,-0.49389 0.409221,0 0.790221,0.0282 1.142998,0.0988 0.39511,0.0564 0.761998,-0.19756 0.818443,-0.57856 0.07055,-0.38099 -0.183445,-0.74788 -0.564444,-0.81844 -0.366888,-0.0564 -0.733776,-0.0988 -1.100664,-0.0988 z"
         style="font-family:'Comix No2 CLM';-inkscape-font-specification:'Comix No2 CLM'"
         id="path28828" />
      <path
         d="m -22.770362,137.2084 c -0.02822,-1.28411 -0.127,-2.46944 -0.310444,-3.65477 -0.05644,-0.39511 -0.423332,-0.64911 -0.804332,-0.59266 -0.39511,0.0564 -0.649109,0.42333 -0.592665,0.80433 0.183444,1.12888 0.282222,2.24366 0.310444,3.48543 0,0.381 0.324555,0.69145 0.719665,0.67734 0.380999,0 0.691443,-0.32456 0.677332,-0.71967 z"
         style="font-family:'Comix No2 CLM';-inkscape-font-specification:'Comix No2 CLM'"
         id="path28830" />
      <path
         d="m -32.972651,133.29963 c -0.127,0 -0.239888,0.0141 -0.338666,0.0564 -0.52211,0.0705 -1.04422,0.18344 -1.594552,0.32455 -0.366889,0.0988 -0.592666,0.49389 -0.493888,0.87489 0.112888,0.36689 0.493888,0.59266 0.874887,0.49389 0.225777,-0.0706 0.437443,-0.127 0.663221,-0.16934 -0.07056,0.74789 -0.112889,1.50989 -0.112889,2.34244 0,0.508 0.01411,1.04422 0.05644,1.60867 0.141111,2.28599 1.721553,2.94921 3.400771,2.94921 1.213554,0 2.878661,-0.0705 3.824104,-0.28222 0.338666,-0.0705 0.578554,-0.381 0.550332,-0.71966 0.366888,-0.66323 0.409222,-1.48167 0.409222,-2.286 0,-0.57855 -0.04233,-1.18533 -0.07056,-1.74977 -0.155222,-2.72344 -2.074329,-3.64066 -4.120436,-3.64066 -1.058331,0 -2.060218,0.0705 -3.047994,0.19755 z m 0.550332,1.36878 c 0.77611,-0.0847 1.636886,-0.15523 2.497662,-0.15523 1.495775,0 2.61055,0.52211 2.709328,2.30011 0.02822,0.57856 0.07055,1.15711 0.07055,1.67922 0,0.81844 -0.14111,1.46755 -0.296332,1.70744 -0.818443,0.11289 -2.130774,0.16933 -3.076217,0.16933 -1.142997,0 -1.919107,-0.29633 -1.989662,-1.62277 -0.04233,-0.55033 -0.05644,-1.04422 -0.05644,-1.524 0,-0.91722 0.05644,-1.73566 0.141111,-2.5541 z"
         style="font-family:'Comix No2 CLM';-inkscape-font-specification:'Comix No2 CLM'"
         id="path28832" />
      <path
         d="m -36.175859,141.2865 c 0.04233,-0.11288 0.07056,-0.23988 0.07056,-0.38099 0,-0.55034 -0.465666,-1.016 -1.015998,-1.016 -0.564444,0 -1.015998,0.46566 -1.015998,1.016 0,0.39511 0.211666,0.73377 0.536221,0.9031 -0.04233,0.77611 -0.225778,1.49578 -0.536221,2.21544 -0.155222,0.35278 0,0.762 0.366888,0.91723 0.352777,0.15522 0.761998,0 0.91722,-0.36689 0.423333,-0.94545 0.677332,-1.96144 0.677332,-3.06211 0,-0.0705 0,-0.15522 0,-0.22578 z"
         style="font-family:'Comix No2 CLM';-inkscape-font-specification:'Comix No2 CLM'"
         id="path28834" />
      <path
         d="m 97.82266,151.54315 c -0.719665,0.0705 -1.086553,0.39511 -1.17122,1.11477 -0.155222,0.26811 -0.183444,0.57856 -0.09878,0.86078 -0.07055,0.91722 -0.09878,1.83444 -0.09878,2.76577 0,0.53622 0,1.07244 0.02822,1.62278 0.01411,0.635 0.536221,1.11477 1.157109,1.10066 0.620888,-0.0282 1.114775,-0.55033 1.100664,-1.17122 -0.02822,-0.53622 -0.02822,-1.04422 -0.02822,-1.55222 0,-0.90311 0.02822,-1.77799 0.09878,-2.63877 0.79022,-0.69144 1.467557,-1.11478 2.568217,-1.11478 1.35467,0 2.08844,1.12889 2.08844,2.22956 0,1.00188 -0.16933,2.03199 -0.43744,2.70932 -0.21167,0.57856 0.0706,1.24178 0.64911,1.45344 0.57855,0.22578 1.24177,-0.0564 1.46755,-0.63499 0.39511,-1.05834 0.57856,-2.30011 0.57856,-3.52777 0,-2.10256 -1.524,-4.48733 -4.34622,-4.48733 -1.538108,0 -2.681106,0.59267 -3.555993,1.27 z"
         style="font-weight:bold;font-family:'Comix No2 CLM';-inkscape-font-specification:'Comix No2 CLM'"
         id="path28836" />
      <path
         d="m 89.722902,150.38604 c 0.112889,-0.80433 0.239889,-1.76389 0.239889,-2.61055 0,-0.43744 -0.02822,-0.83256 -0.141111,-1.24178 -0.155222,-0.60677 -0.77611,-0.95955 -1.382886,-0.80433 -0.606777,0.16933 -0.959554,0.79022 -0.790221,1.38289 0.01411,0.0988 0.05644,0.35278 0.05644,0.66322 0,0.93133 -0.253999,2.35655 -0.366888,3.20321 -0.225777,1.69333 1.255887,1.69333 2.017885,1.69333 0.733776,0 1.001887,-0.0988 1.622775,-0.0988 1.241775,0 2.314217,0.0988 2.314217,1.15711 0,0.88899 -1.058331,3.03388 -1.890885,3.03388 -0.564443,0 -1.030109,-0.0565 -1.806218,-0.11289 -0.620888,-0.0282 -1.157109,0.43744 -1.199443,1.05833 -0.04233,0.62089 0.437444,1.15711 1.058332,1.19944 0.677332,0.0423 1.199442,0.11289 1.947329,0.11289 2.497662,0 4.148659,-3.37255 4.148659,-5.29165 0,-2.45533 -1.904997,-3.41489 -4.571991,-3.41489 -0.409222,0 -0.931332,0.0282 -1.255887,0.0706 z"
         style="font-weight:bold;font-family:'Comix No2 CLM';-inkscape-font-specification:'Comix No2 CLM'"
         id="path28838" />
      <path
         d="m 86.392696,153.71625 c 0,-0.86077 -0.01411,-1.67921 -0.08467,-2.46943 -0.04233,-0.62089 -0.592665,-1.08656 -1.213553,-1.03011 -0.620888,0.0423 -1.086554,0.59266 -1.030109,1.21355 0.05644,0.69144 0.07055,1.45344 0.07055,2.28599 0,1.25589 -0.04233,2.65289 -0.04233,4.21922 0,0.635 0.507999,1.12889 1.128887,1.12889 0.620887,0 1.128886,-0.49389 1.128886,-1.12889 0,-1.524 0.04233,-2.921 0.04233,-4.21922 z"
         style="font-weight:bold;font-family:'Comix No2 CLM';-inkscape-font-specification:'Comix No2 CLM'"
         id="path28840" />
      <path
         d="m 76.275073,151.31737 c -0.183444,-0.508 -0.733776,-0.83255 -1.284109,-0.71966 -0.606776,0.127 -1.001887,0.71966 -0.888998,1.32644 0.141111,0.71966 0.183444,1.65099 0.183444,2.63877 0,0.97366 -0.02822,1.98966 -0.02822,2.97744 0,0.635 0.493888,1.12889 1.128887,1.12889 0.620887,0 1.128886,-0.49389 1.128886,-1.12889 0,-0.98778 0.04233,-2.11666 0.02822,-3.20322 0.705554,-1.03011 1.453441,-1.77799 2.596439,-1.77799 1.030109,0 1.538108,0.71966 1.538108,1.83444 0,0.81844 -0.141111,1.93322 -0.550332,2.27188 -0.169333,0.14111 -0.761999,0.15522 -1.284109,0.0988 -0.606776,-0.0706 -1.17122,0.36689 -1.255886,0.98777 -0.07056,0.62089 0.380999,1.18534 0.987776,1.25589 0.479776,0.0564 0.959553,0.0564 1.453441,0.0141 2.158996,-0.15522 2.906883,-2.37066 2.906883,-4.62843 0,-2.11667 -1.284108,-4.09222 -3.795881,-4.09222 -1.185331,0 -2.130774,0.43745 -2.86455,1.016 z"
         style="font-weight:bold;font-family:'Comix No2 CLM';-inkscape-font-specification:'Comix No2 CLM'"
         id="path28842" />
      <path
         d="m 72.817882,153.71625 c 0,-0.86077 -0.01411,-1.67921 -0.08467,-2.46943 -0.04233,-0.62089 -0.592665,-1.08656 -1.213553,-1.03011 -0.620888,0.0423 -1.086553,0.59266 -1.030109,1.21355 0.05644,0.69144 0.07055,1.45344 0.07055,2.28599 0,1.25589 -0.04233,2.65289 -0.04233,4.21922 0,0.635 0.507999,1.12889 1.128887,1.12889 0.620887,0 1.128886,-0.49389 1.128886,-1.12889 0,-1.524 0.04233,-2.921 0.04233,-4.21922 z"
         style="font-weight:bold;font-family:'Comix No2 CLM';-inkscape-font-specification:'Comix No2 CLM'"
         id="path28844" />
      <path
         d="m 62.079356,151.37382 c -0.790221,-0.127 -1.368775,0.43744 -1.354664,1.12888 0.04233,1.48167 0.211666,3.06211 0.127,4.2051 -0.211666,-0.0988 -0.324555,-0.18344 -0.620888,-0.39511 -0.493888,-0.38099 -1.199442,-0.26811 -1.56633,0.23989 -0.366888,0.49389 -0.268111,1.21356 0.239888,1.58044 0.564444,0.40923 1.284109,0.87489 2.243663,0.87489 1.284108,0 1.989662,-1.28411 1.989662,-2.52588 0,-1.05833 -0.07055,-2.032 -0.112888,-3.00566 0.183444,-0.0847 0.352777,-0.19756 0.493888,-0.381 0.39511,-0.42334 0.776109,-0.55033 1.326441,-0.55033 1.255887,0 2.257774,0.71966 2.257774,2.00377 0,0.86077 -0.268111,1.74977 -0.451555,2.85044 -0.09878,0.62089 0.310444,1.19944 0.931332,1.31233 0.606776,0.0988 1.199442,-0.31045 1.298219,-0.93133 0.155222,-0.90311 0.479777,-1.94733 0.479777,-3.23144 0,-2.77988 -2.285995,-4.26155 -4.515547,-4.26155 -1.086553,0 -1.749774,0.0988 -2.765772,1.08656 z"
         style="font-weight:bold;font-family:'Comix No2 CLM';-inkscape-font-specification:'Comix No2 CLM'"
         id="path28846" />
      <path
         d="m 45.597659,151.31737 c -0.183444,-0.508 -0.733776,-0.83255 -1.284109,-0.71966 -0.606776,0.127 -1.001887,0.71966 -0.888998,1.32644 0.141111,0.71966 0.183444,1.65099 0.183444,2.63877 0,0.97366 -0.02822,1.98966 -0.02822,2.97744 0,0.635 0.493888,1.12889 1.128887,1.12889 0.620887,0 1.128886,-0.49389 1.128886,-1.12889 0,-0.98778 0.04233,-2.11666 0.02822,-3.20322 0.705554,-1.03011 1.453441,-1.77799 2.596439,-1.77799 1.030109,0 1.538108,0.71966 1.538108,1.83444 0,0.81844 -0.141111,1.93322 -0.550332,2.27188 -0.169333,0.14111 -0.761999,0.15522 -1.284109,0.0988 -0.606776,-0.0706 -1.17122,0.36689 -1.255886,0.98777 -0.07056,0.62089 0.380999,1.18534 0.987776,1.25589 0.479776,0.0564 0.959553,0.0564 1.453441,0.0141 2.158996,-0.15522 2.906883,-2.37066 2.906883,-4.62843 0,-2.11667 -1.284108,-4.09222 -3.795881,-4.09222 -1.185331,0 -2.130774,0.43745 -2.86455,1.016 z"
         style="font-weight:bold;font-family:'Comix No2 CLM';-inkscape-font-specification:'Comix No2 CLM'"
         id="path28848" />
      <path
         d="m 35.282458,151.37382 c -0.79022,-0.127 -1.368775,0.43744 -1.354664,1.12888 0.04233,1.48167 0.211666,3.06211 0.127,4.2051 -0.211666,-0.0988 -0.324555,-0.18344 -0.620888,-0.39511 -0.493888,-0.38099 -1.199442,-0.26811 -1.56633,0.23989 -0.366888,0.49389 -0.268111,1.21356 0.239888,1.58044 0.564444,0.40923 1.284109,0.87489 2.243663,0.87489 1.284108,0 1.989662,-1.28411 1.989662,-2.52588 0,-1.05833 -0.07055,-2.032 -0.112888,-3.00566 0.183444,-0.0847 0.352777,-0.19756 0.493888,-0.381 0.39511,-0.42334 0.776109,-0.55033 1.326442,-0.55033 1.255886,0 2.257773,0.71966 2.257773,2.00377 0,0.86077 -0.268111,1.74977 -0.451555,2.85044 -0.09878,0.62089 0.310444,1.19944 0.931332,1.31233 0.606776,0.0988 1.199442,-0.31045 1.298219,-0.93133 0.155222,-0.90311 0.479777,-1.94733 0.479777,-3.23144 0,-2.77988 -2.285995,-4.26155 -4.515546,-4.26155 -1.086554,0 -1.749775,0.0988 -2.765773,1.08656 z"
         style="font-weight:bold;font-family:'Comix No2 CLM';-inkscape-font-specification:'Comix No2 CLM'"
         id="path28850" />
      <path
         d="m 30.752813,152.98248 c 0,-0.53622 -0.02822,-1.07244 -0.05645,-1.60866 -0.04233,-0.62089 -0.578554,-1.10067 -1.199442,-1.05834 -0.634998,0.0423 -1.100664,0.57856 -1.058331,1.21356 0.04233,0.47977 0.05644,0.95955 0.05644,1.45344 0,0.508 -0.01411,1.016 -0.05644,1.55222 -0.04233,0.62089 0.437444,1.15711 1.058331,1.19944 0.620888,0.0423 1.157109,-0.42333 1.199442,-1.04422 0.02822,-0.59267 0.05645,-1.15711 0.05645,-1.70744 z"
         style="font-weight:bold;font-family:'Comix No2 CLM';-inkscape-font-specification:'Comix No2 CLM'"
         id="path28852" />
      <path
         d="m 22.977623,150.34371 c -1.679219,0 -3.174994,0.16933 -4.543769,0.53622 -0.592665,0.15522 -0.945442,0.77611 -0.79022,1.38288 0.155222,0.56445 0.719665,0.91722 1.298219,0.81845 -0.04233,0.45155 -0.05644,0.91722 -0.05644,1.4111 0,1.524 0.07056,2.80811 0.931332,3.58422 0.719665,0.64911 1.354664,0.94544 2.638772,0.94544 1.100665,0 2.539995,-0.0564 3.471327,-0.254 0.507999,-0.11289 0.846665,-0.53622 0.888998,-1.016 0.26811,-0.57855 0.352777,-1.42521 0.352777,-2.14488 0,-1.21355 -0.02822,-2.32833 -0.437444,-3.20322 -0.634998,-1.32644 -1.989662,-2.06021 -3.753548,-2.06021 z m -1.749774,2.35655 c 0.52211,-0.0423 1.142998,-0.0988 1.749774,-0.0988 1.763886,0 1.933219,0.71966 1.933219,3.00566 0,0.45155 -0.04233,0.83255 -0.09878,1.04422 -0.677332,0.0706 -1.665108,0.11289 -2.356551,0.11289 -0.507999,0 -0.846665,-0.0423 -1.04422,-0.26811 -0.310444,-0.32456 -0.268111,-1.38289 -0.268111,-2.00378 0,-0.63499 0.02822,-1.21355 0.08467,-1.7921 z"
         style="font-weight:bold;font-family:'Comix No2 CLM';-inkscape-font-specification:'Comix No2 CLM'"
         id="path28854" />
      <path
         d="m 8.1045673,150.32959 c -0.9172204,0 -1.9332184,0.42334 -1.9332184,1.34056 0,0.64911 0.5503323,1.12888 1.1288867,1.12888 0.3809992,0 0.5644433,-0.21166 0.8043317,-0.21166 0.6208877,0 0.8748872,1.86266 0.8748872,2.66699 0,0.59267 -0.028222,1.00189 -0.2398884,1.19945 -0.338666,0.35277 -1.523997,0.28222 -2.3283288,0.28222 -0.5644433,0 -1.0583312,0.42333 -1.1288866,0.98777 -0.070555,0.67733 0.3809992,1.18533 0.9877758,1.25589 0.2398884,0.0282 0.4515547,0.0423 0.6208877,0.0423 3.1185498,0.0565 4.3462138,-1.17122 4.3462138,-3.76766 0,-2.11666 -0.747888,-4.92477 -3.1326607,-4.92477 z"
         style="font-weight:bold;font-family:'Comix No2 CLM';-inkscape-font-specification:'Comix No2 CLM'"
         id="path28856" />
      <path
         d="m 0.89383878,152.67203 c -0.11288866,0.762 -0.14111083,1.524 -0.14111083,2.27189 0,1.73566 0.19755517,2.24366 0.22577733,2.96333 0.0282222,0.62088 0.55033222,1.10066 1.17121992,1.08655 0.6208877,-0.0282 1.1147756,-0.55033 1.0865534,-1.18533 -0.042333,-1.10067 -0.2257773,-1.32644 -0.2257773,-2.86455 0,-0.87489 0.056444,-1.69333 0.2116662,-2.35655 0.169333,-0.0282 0.3527771,-0.0564 0.5503323,-0.0847 0.6208877,-0.0847 1.0442202,-0.66322 0.9454426,-1.28411 -0.098778,-0.60677 -0.677332,-1.03011 -1.2841086,-0.94544 -0.7478874,0.11289 -1.3405529,0.14111 -1.9049963,0.14111 -0.7337763,0 -1.42521938,-0.0564 -2.30010655,-0.0564 -1.15710885,0 -1.98966275,0.16933 -2.77988345,0.508 -0.5785544,0.254 -0.8325539,0.93133 -0.5785544,1.49577 0.2539995,0.56444 0.9172204,0.83255 1.4816638,0.57856 0.5362211,-0.23989 0.846665,-0.32456 1.87677405,-0.32456 0.56444333,0 1.08655342,0.0423 1.66510783,0.0564 z"
         style="font-weight:bold;font-family:'Comix No2 CLM';-inkscape-font-specification:'Comix No2 CLM'"
         id="path28858" />
      <path
         d="m -5.2726924,152.98248 c 0,-0.53622 -0.028222,-1.07244 -0.056444,-1.60866 -0.042333,-0.62089 -0.5785544,-1.10067 -1.1994421,-1.05834 -0.6349987,0.0423 -1.1006645,0.57856 -1.0583312,1.21356 0.042333,0.47977 0.056444,0.95955 0.056444,1.45344 0,0.508 -0.014111,1.016 -0.056444,1.55222 -0.042333,0.62089 0.4374436,1.15711 1.0583312,1.19944 0.6208877,0.0423 1.1571089,-0.42333 1.1994421,-1.04422 0.028222,-0.59267 0.056444,-1.15711 0.056444,-1.70744 z"
         style="font-weight:bold;font-family:'Comix No2 CLM';-inkscape-font-specification:'Comix No2 CLM'"
         id="path28860" />
      <path
         d="m -13.047882,150.34371 c -1.679219,0 -3.174994,0.16933 -4.543769,0.53622 -0.592665,0.15522 -0.945442,0.77611 -0.79022,1.38288 0.155222,0.56445 0.719665,0.91722 1.298219,0.81845 -0.04233,0.45155 -0.05644,0.91722 -0.05644,1.4111 0,1.524 0.07055,2.80811 0.931331,3.58422 0.719666,0.64911 1.354664,0.94544 2.638773,0.94544 1.100665,0 2.539995,-0.0564 3.471327,-0.254 0.5079985,-0.11289 0.8466646,-0.53622 0.8889978,-1.016 0.2681106,-0.57855 0.3527771,-1.42521 0.3527771,-2.14488 0,-1.21355 -0.028222,-2.32833 -0.4374436,-3.20322 -0.6349988,-1.32644 -1.9896623,-2.06021 -3.7535483,-2.06021 z m -1.749774,2.35655 c 0.52211,-0.0423 1.142998,-0.0988 1.749774,-0.0988 1.763886,0 1.933219,0.71966 1.933219,3.00566 0,0.45155 -0.04233,0.83255 -0.09878,1.04422 -0.677332,0.0706 -1.665108,0.11289 -2.356551,0.11289 -0.507999,0 -0.846665,-0.0423 -1.04422,-0.26811 -0.310444,-0.32456 -0.268111,-1.38289 -0.268111,-2.00378 0,-0.63499 0.02822,-1.21355 0.08467,-1.7921 z"
         style="font-weight:bold;font-family:'Comix No2 CLM';-inkscape-font-specification:'Comix No2 CLM'"
         id="path28862" />
      <path
         d="m -21.387525,158.90913 c -0.05645,0.635 -0.225778,1.25589 -0.493888,1.87678 -0.239889,0.53622 0.01411,1.15711 0.550332,1.38288 0.536221,0.23989 1.157109,0 1.382886,-0.53622 0.437444,-0.98777 0.705554,-2.06022 0.705554,-3.21732 0,-0.18345 -0.01411,-0.36689 -0.02822,-0.56445 0,-0.73377 -0.592665,-1.32644 -1.312331,-1.32644 -0.733776,0 -1.326441,0.59267 -1.326441,1.32644 0,0.42333 0.211666,0.81845 0.52211,1.05833 z"
         style="font-weight:bold;font-family:'Comix No2 CLM';-inkscape-font-specification:'Comix No2 CLM'"
         id="path28864" />
      <path
         d="m -31.843816,150.32959 c -0.91722,0 -1.933218,0.42334 -1.933218,1.34056 0,0.64911 0.550332,1.12888 1.128886,1.12888 0.381,0 0.564444,-0.21166 0.804332,-0.21166 0.620888,0 0.874887,1.86266 0.874887,2.66699 0,0.59267 -0.02822,1.00189 -0.239888,1.19945 -0.338666,0.35277 -1.523997,0.28222 -2.328329,0.28222 -0.564443,0 -1.058331,0.42333 -1.128887,0.98777 -0.07055,0.67733 0.381,1.18533 0.987776,1.25589 0.239889,0.0282 0.451555,0.0423 0.620888,0.0423 3.118549,0.0565 4.346214,-1.17122 4.346214,-3.76766 0,-2.11666 -0.747888,-4.92477 -3.132661,-4.92477 z"
         style="font-weight:bold;font-family:'Comix No2 CLM';-inkscape-font-specification:'Comix No2 CLM'"
         id="path28866" />
      <path
         d="m -37.699907,152.22048 c 0.169333,0.29633 0.127,0.55033 0.127,0.84667 0,0.95955 -0.169333,1.76388 -0.507999,2.32832 -0.09878,-0.11288 -0.225777,-0.19755 -0.366888,-0.254 -1.396998,-0.56444 -3.174994,-2.01788 -3.189105,-3.58421 0,-0.62089 -0.52211,-1.11478 -1.142998,-1.11478 -0.620888,0.0141 -1.114775,0.52211 -1.114775,1.143 0.02822,2.44122 1.890885,4.16277 3.513659,5.10821 -0.578554,0.0564 -1.185331,-0.11289 -1.425219,-0.29633 -0.493888,-0.36689 -1.199442,-0.28222 -1.580441,0.21167 -0.381,0.49388 -0.282222,1.19944 0.211666,1.58044 0.747887,0.57855 1.665108,0.77611 2.539995,0.77611 2.511773,0 5.319878,-1.70744 5.319878,-5.89843 0,-1.24178 -0.127,-1.83445 -0.691443,-2.413 -0.437443,-0.43744 -1.157109,-0.43744 -1.594552,0 -0.437444,0.42333 -0.423333,1.00189 -0.09878,1.56633 z"
         style="font-weight:bold;font-family:'Comix No2 CLM';-inkscape-font-specification:'Comix No2 CLM'"
         id="path28868" />
      <path
         d="m -45.023547,152.98248 c 0,-0.53622 -0.02822,-1.07244 -0.05644,-1.60866 -0.04233,-0.62089 -0.578555,-1.10067 -1.199442,-1.05834 -0.634999,0.0423 -1.100665,0.57856 -1.058332,1.21356 0.04233,0.47977 0.05644,0.95955 0.05644,1.45344 0,0.508 -0.01411,1.016 -0.05644,1.55222 -0.04233,0.62089 0.437444,1.15711 1.058332,1.19944 0.620887,0.0423 1.157109,-0.42333 1.199442,-1.04422 0.02822,-0.59267 0.05644,-1.15711 0.05644,-1.70744 z"
         style="font-weight:bold;font-family:'Comix No2 CLM';-inkscape-font-specification:'Comix No2 CLM'"
         id="path28870" />
      <path
         d="m -52.798734,150.34371 c -1.679219,0 -3.174994,0.16933 -4.543769,0.53622 -0.592666,0.15522 -0.945443,0.77611 -0.790221,1.38288 0.155222,0.56445 0.719665,0.91722 1.29822,0.81845 -0.04233,0.45155 -0.05644,0.91722 -0.05644,1.4111 0,1.524 0.07056,2.80811 0.931332,3.58422 0.719665,0.64911 1.354664,0.94544 2.638772,0.94544 1.100665,0 2.539995,-0.0564 3.471327,-0.254 0.507999,-0.11289 0.846665,-0.53622 0.888998,-1.016 0.268111,-0.57855 0.352777,-1.42521 0.352777,-2.14488 0,-1.21355 -0.02822,-2.32833 -0.437443,-3.20322 -0.634999,-1.32644 -1.989663,-2.06021 -3.753548,-2.06021 z m -1.749775,2.35655 c 0.52211,-0.0423 1.142998,-0.0988 1.749775,-0.0988 1.763885,0 1.933218,0.71966 1.933218,3.00566 0,0.45155 -0.04233,0.83255 -0.09878,1.04422 -0.677332,0.0706 -1.665107,0.11289 -2.356551,0.11289 -0.507999,0 -0.846665,-0.0423 -1.04422,-0.26811 -0.310444,-0.32456 -0.26811,-1.38289 -0.26811,-2.00378 0,-0.63499 0.02822,-1.21355 0.08467,-1.7921 z"
         style="font-weight:bold;font-family:'Comix No2 CLM';-inkscape-font-specification:'Comix No2 CLM'"
         id="path28872" />
      <path
         d="m -61.632265,157.8508 c 0,0.73378 0.578554,1.31233 1.312331,1.31233 0.733776,0 1.326442,-0.57855 1.326442,-1.31233 0,-0.73377 -0.592666,-1.32644 -1.326442,-1.32644 -0.733777,0 -1.312331,0.59267 -1.312331,1.32644 z"
         style="font-weight:bold;font-family:'Comix No2 CLM';-inkscape-font-specification:'Comix No2 CLM'"
         id="path28874" />
      <path
         d="m -65.526916,157.8508 c 0,0.73378 0.578555,1.31233 1.312331,1.31233 0.733776,0 1.326442,-0.57855 1.326442,-1.31233 0,-0.73377 -0.592666,-1.32644 -1.326442,-1.32644 -0.733776,0 -1.312331,0.59267 -1.312331,1.32644 z"
         style="font-weight:bold;font-family:'Comix No2 CLM';-inkscape-font-specification:'Comix No2 CLM'"
         id="path28876" />
      <path
         d="m -69.421567,157.8508 c 0,0.73378 0.578554,1.31233 1.312331,1.31233 0.733776,0 1.326441,-0.57855 1.326441,-1.31233 0,-0.73377 -0.592665,-1.32644 -1.326441,-1.32644 -0.733777,0 -1.312331,0.59267 -1.312331,1.32644 z"
         style="font-weight:bold;font-family:'Comix No2 CLM';-inkscape-font-specification:'Comix No2 CLM'"
         id="path28878" />
    </g>
    <g
       aria-label="א&quot;נ גנסין, &quot;שירה&quot;. תרגים: א. הופנשטיין."
       id="text15803"
       style="font-size:8.46667px;line-height:100%;font-family:Sans;-inkscape-font-specification:'Adobe Helvetica';letter-spacing:0px;word-spacing:0px;direction:rtl;stroke-width:0.264583px">
      <path
         d="m 54.692498,175.02538 c 0.402167,-0.68439 0.867834,-1.51694 0.917223,-2.51883 0.0071,-0.1905 -0.141111,-0.35983 -0.338667,-0.36689 -0.1905,-0.0141 -0.359833,0.14111 -0.366889,0.33161 -0.03528,0.73378 -0.381,1.41817 -0.740834,2.06022 0,0 -0.881944,-0.81138 -1.432278,-1.34761 -0.3175,-0.31044 -0.797278,-0.81844 -0.797278,-0.81844 -0.134056,-0.13406 -0.359834,-0.14111 -0.493889,0 -0.141111,0.13405 -0.148167,0.35983 -0.0071,0.49389 0.303389,0.30339 0.592667,0.62089 0.903112,0.91722 -0.409223,0.72672 -0.705556,1.41817 -0.966612,2.22956 -0.0635,0.18344 0.04233,0.381 0.225778,0.4445 0.1905,0.0564 0.388056,-0.0423 0.4445,-0.22578 0.232834,-0.71967 0.479778,-1.31939 0.825501,-1.94734 l 0.987778,0.93134 c 0.01411,0.16228 0.155222,0.31044 0.338667,0.3175 l 0.818444,0.76905 c 0.141112,0.127 0.359834,0.127 0.493889,-0.0212 0.134056,-0.14111 0.127001,-0.35984 -0.01411,-0.49389 z"
         style="line-height:100%;font-family:'Comix No2 CLM';-inkscape-font-specification:'Comix No2 CLM'"
         id="path28683" />
      <path
         d="m 50.494441,173.44494 c 0.310444,-0.45156 0.388055,-1.10067 0.395111,-1.87678 0.0071,-0.1905 -0.148167,-0.35278 -0.345722,-0.35278 -0.1905,-0.007 -0.352778,0.14817 -0.352778,0.34572 -0.01411,0.71967 -0.127,1.25589 -0.282223,1.48167 -0.105833,0.16228 -0.07055,0.381 0.09172,0.49389 0.162277,0.10583 0.381,0.0706 0.493889,-0.0917 z m -1.411112,0 c 0.310445,-0.45156 0.388056,-1.10067 0.395111,-1.87678 0.0071,-0.1905 -0.148166,-0.35278 -0.345722,-0.35278 -0.1905,-0.007 -0.352778,0.14817 -0.352778,0.34572 -0.01411,0.71967 -0.127,1.25589 -0.282222,1.48167 -0.105834,0.16228 -0.07056,0.381 0.09172,0.49389 0.162278,0.10583 0.381,0.0706 0.493889,-0.0917 z"
         style="line-height:100%;font-family:'Comix No2 CLM';-inkscape-font-specification:'Comix No2 CLM'"
         id="path28685" />
      <path
         d="m 46.599778,172.13261 c -0.261056,0 -0.493889,0.0776 -0.656167,0.18344 -0.162278,0.0988 -0.204611,0.32456 -0.09878,0.48683 0.105833,0.16228 0.324556,0.20461 0.486834,0.0988 0.07055,-0.0423 0.141111,-0.0635 0.268111,-0.0635 0.522111,0 0.783167,0.86783 0.783167,1.79917 0,0.93839 -0.381,1.143 -1.467556,1.143 -0.07761,0 -0.148167,0 -0.239889,-0.0141 -0.1905,-0.0212 -0.366889,0.11994 -0.388056,0.31044 -0.02117,0.1905 0.112889,0.36689 0.310444,0.39511 0.119945,0.0141 0.218723,0.0141 0.317501,0.0141 1.566334,0 2.173112,-0.39511 2.173112,-1.84855 0,-0.81845 -0.246945,-2.50472 -1.488723,-2.50472 z"
         style="line-height:100%;font-family:'Comix No2 CLM';-inkscape-font-specification:'Comix No2 CLM'"
         id="path28687" />
      <path
         d="m 41.230507,174.26338 c -0.105834,0.0635 -0.176389,0.17639 -0.176389,0.30339 v 0 c 0,0.52211 -1.227667,1.016 -1.996723,1.22767 -0.183445,0.0494 -0.296334,0.23989 -0.246945,0.43039 0.05644,0.1905 0.246945,0.29633 0.437445,0.24694 0.416278,-0.11289 1.615723,-0.41627 2.194279,-1.09361 0.04233,0.23284 0.08467,0.46567 0.119944,0.6985 0.02822,0.1905 0.211667,0.32456 0.402167,0.29634 0.1905,-0.0282 0.324556,-0.21167 0.296333,-0.40217 -0.169333,-1.07245 -0.373944,-2.0955 -0.627944,-3.07622 -0.119945,-0.46567 -0.529167,-0.74789 -1.00189,-0.74789 -0.345722,0 -0.613833,0.0988 -0.839611,0.23283 -0.169333,0.0988 -0.225778,0.3175 -0.127,0.47978 0.09172,0.16933 0.310444,0.22578 0.479778,0.127 0.176389,-0.0988 0.246944,-0.13406 0.486833,-0.13406 0.1905,0 0.289278,0.0847 0.3175,0.21872 0.105834,0.38806 0.197556,0.78317 0.282223,1.19239 z"
         style="line-height:100%;font-family:'Comix No2 CLM';-inkscape-font-specification:'Comix No2 CLM'"
         id="path28689" />
      <path
         d="m 37.159455,172.13261 c -0.261056,0 -0.493889,0.0776 -0.656167,0.18344 -0.162278,0.0988 -0.204611,0.32456 -0.09878,0.48683 0.105833,0.16228 0.324556,0.20461 0.486834,0.0988 0.07056,-0.0423 0.141111,-0.0635 0.268111,-0.0635 0.522111,0 0.783167,0.86783 0.783167,1.79917 0,0.93839 -0.381,1.143 -1.467556,1.143 -0.07761,0 -0.148167,0 -0.239889,-0.0141 -0.1905,-0.0212 -0.366889,0.11994 -0.388056,0.31044 -0.02117,0.1905 0.112889,0.36689 0.310445,0.39511 0.119944,0.0141 0.218722,0.0141 0.3175,0.0141 1.566334,0 2.173112,-0.39511 2.173112,-1.84855 0,-0.81845 -0.246945,-2.50472 -1.488723,-2.50472 z"
         style="line-height:100%;font-family:'Comix No2 CLM';-inkscape-font-specification:'Comix No2 CLM'"
         id="path28691" />
      <path
         d="m 32.44635,173.67072 c 0.134056,0.007 0.268112,-0.0706 0.331612,-0.20461 0.169333,-0.35278 0.762,-0.62089 1.171222,-0.62089 0,0 0.0071,0 0.0071,0 0.5715,0 1.044223,0.52916 1.044223,1.26294 0,0.49389 -0.232834,1.08656 -0.359834,1.2065 -0.331611,0.31045 -0.465667,0.43039 -0.754945,0.4445 0,0 -0.02117,0 -0.02117,0 -0.500945,0 -1.326445,-0.59972 -1.418168,-1.17828 -0.04233,-0.27516 -0.03528,-0.60677 0,-0.91016 z m 0.119945,-1.04423 c -0.04233,-0.10583 -0.134056,-0.1905 -0.261056,-0.21872 -0.1905,-0.0423 -0.373944,0.0776 -0.416278,0.26811 -0.119944,0.55739 -0.246944,1.34056 -0.141111,2.01084 0.155222,1.00189 1.291167,1.778 2.116668,1.778 0,0 0.04233,0 0.04233,0 0.578556,-0.0212 0.910167,-0.34572 1.220612,-0.635 0.373944,-0.35278 0.578555,-1.05128 0.578555,-1.72156 0,-1.03717 -0.705555,-1.9685 -1.749778,-1.9685 0,0 -0.01411,0 -0.01411,0 -0.395111,0 -0.959556,0.14817 -1.375834,0.48683 z"
         style="line-height:100%;font-family:'Comix No2 CLM';-inkscape-font-specification:'Comix No2 CLM'"
         id="path28693" />
      <path
         d="m 31.070522,174.19988 c -0.01411,-0.64205 -0.0635,-1.23472 -0.155222,-1.82739 -0.02822,-0.19755 -0.211667,-0.32455 -0.402167,-0.29633 -0.197556,0.0282 -0.324556,0.21167 -0.296333,0.40217 0.09172,0.56444 0.141111,1.12183 0.155222,1.74272 0,0.1905 0.162278,0.34572 0.359833,0.33867 0.1905,0 0.345723,-0.16228 0.338667,-0.35984 z"
         style="line-height:100%;font-family:'Comix No2 CLM';-inkscape-font-specification:'Comix No2 CLM'"
         id="path28695" />
      <path
         d="m 29.391303,175.11711 c 0,-0.92428 0,-1.85562 0.0071,-2.80106 0,-0.19756 -0.155222,-0.35278 -0.352778,-0.35983 -0.1905,0 -0.352778,0.16227 -0.352778,0.35277 -0.0071,0.94545 -0.0071,1.87678 -0.0071,2.80812 0,1.08655 0,2.16605 0.02117,3.25261 0.0071,0.19755 0.162278,0.35278 0.359834,0.34572 0.197555,0 0.352778,-0.16228 0.345722,-0.35278 -0.02117,-1.08655 -0.02117,-2.16605 -0.02117,-3.24555 z"
         style="line-height:100%;font-family:'Comix No2 CLM';-inkscape-font-specification:'Comix No2 CLM'"
         id="path28697" />
      <path
         d="m 28.036637,176.23894 c 0.02117,-0.0564 0.03528,-0.11994 0.03528,-0.1905 0,-0.27517 -0.232833,-0.508 -0.508,-0.508 -0.282222,0 -0.508,0.23283 -0.508,0.508 0,0.19756 0.105833,0.36689 0.268111,0.45156 -0.02117,0.38805 -0.112889,0.74788 -0.268111,1.10772 -0.07761,0.17639 0,0.381 0.183444,0.45861 0.176389,0.0776 0.381,0 0.458612,-0.18344 0.211666,-0.47273 0.338666,-0.98073 0.338666,-1.53106 0,-0.0353 0,-0.0776 0,-0.11289 z"
         style="line-height:100%;font-family:'Comix No2 CLM';-inkscape-font-specification:'Comix No2 CLM'"
         id="path28699" />
      <path
         d="m 23.210672,173.35322 c 0.289278,-0.41628 0.345723,-0.95956 0.352778,-1.57339 0.0071,-0.31045 -0.239889,-0.56445 -0.550333,-0.5715 -0.317501,0 -0.571501,0.24694 -0.571501,0.55739 -0.01411,0.55033 -0.07761,0.83255 -0.155222,0.9525 -0.176389,0.254 -0.112889,0.60677 0.141111,0.78316 0.261056,0.17639 0.606778,0.10584 0.783167,-0.14816 z m -1.693334,0 c 0.289278,-0.41628 0.345723,-0.95956 0.352778,-1.57339 0.0071,-0.31045 -0.239889,-0.56445 -0.550333,-0.5715 -0.317501,0 -0.571501,0.24694 -0.571501,0.55739 -0.01411,0.55033 -0.07761,0.83255 -0.155222,0.9525 -0.176389,0.23989 -0.112889,0.60677 0.141111,0.78316 0.261056,0.17639 0.606778,0.10584 0.783167,-0.14816 z"
         style="font-weight:bold"
         id="path28701" />
      <path
         d="m 17.333394,175.33583 c 0.409223,-0.28222 0.698501,-0.71967 0.698501,-1.41111 0,-0.46567 -0.09878,-0.91017 -0.225778,-1.38995 -0.07761,-0.30339 -0.388056,-0.47978 -0.684389,-0.40216 -0.303389,0.0776 -0.486834,0.381 -0.409223,0.68438 0.119945,0.46567 0.1905,0.8255 0.1905,1.10773 0,0.254 -0.01411,0.35277 -0.225778,0.48683 -0.183444,0.127 -0.536222,0.22578 -0.853722,0.27517 -0.119945,-0.30339 -0.119945,-0.79728 -0.119945,-1.27706 0,-0.23989 0,-0.48683 -0.03528,-0.73378 -0.04939,-0.31044 -0.338667,-0.52211 -0.642056,-0.47272 -0.310445,0.0423 -0.522111,0.33161 -0.479778,0.64206 0.02117,0.14111 0.02822,0.33866 0.02822,0.56444 0,0.57856 -0.03528,1.016 0.155222,1.58045 0.373945,1.09361 1.397001,1.47461 2.645835,1.47461 1.030111,0 1.629834,-0.24695 2.159001,-0.635 0.148166,-0.10584 0.225777,-0.27517 0.225777,-0.45156 0.204612,-0.55739 0.359834,-1.22061 0.359834,-1.93322 0,-0.23283 -0.01411,-0.47272 -0.05645,-0.71967 -0.04939,-0.30339 -0.338666,-0.51505 -0.642055,-0.46566 -0.310445,0.0494 -0.522112,0.33866 -0.472723,0.64205 0.02822,0.18345 0.04233,0.36689 0.04233,0.54328 0,0.57855 -0.134056,1.12889 -0.310445,1.60161 -0.324556,0.22578 -0.804334,0.28928 -1.347612,0.28928 z"
         style="font-weight:bold"
         id="path28703" />
      <path
         d="m 13.939674,173.46611 c 0,-0.26812 -0.01411,-0.53623 -0.02822,-0.80434 -0.02117,-0.31044 -0.289278,-0.55033 -0.599723,-0.52916 -0.3175,0.0212 -0.550333,0.28927 -0.529167,0.60677 0.02117,0.23989 0.02822,0.47978 0.02822,0.72673 0,0.254 -0.0071,0.508 -0.02822,0.77611 -0.02117,0.31044 0.218723,0.57855 0.529167,0.59972 0.310445,0.0212 0.578556,-0.21167 0.599723,-0.52211 0.01411,-0.29634 0.02822,-0.57856 0.02822,-0.85372 z"
         style="font-weight:bold"
         id="path28705" />
      <path
         d="m 9.9391815,172.11849 c -0.5503336,0 -1.0583338,0.13406 -1.4816673,0.35278 -0.2751668,0.14817 -0.3810002,0.48684 -0.2328334,0.762 0.1481667,0.28222 0.4868335,0.38806 0.7620003,0.23989 0.2540001,-0.13405 0.5856113,-0.22578 0.9525004,-0.22578 0.6279445,0 1.1147785,0.42334 1.1147785,0.9525 0,0.54328 -0.09172,1.11478 -0.176389,1.61573 -0.04939,0.31044 0.162278,0.59972 0.465667,0.64911 0.310444,0.0494 0.599722,-0.16228 0.649111,-0.46567 0.08467,-0.508 0.1905,-1.13594 0.1905,-1.79917 0,-1.25589 -1.107723,-2.08139 -2.2436675,-2.08139 z"
         style="font-weight:bold"
         id="path28707" />
      <path
         d="m 3.9560822,174.63027 c -0.070556,0.41628 0.00706,0.83256 -0.014111,1.24884 -0.014111,0.31044 0.2257779,0.57855 0.5362224,0.59266 0.3104446,0.0141 0.5785558,-0.22577 0.5926669,-0.53622 0.021167,-0.39511 -0.056444,-0.80433 0,-1.12183 0.049389,-0.30339 -0.1552222,-0.59973 -0.4656668,-0.64911 -0.303389,-0.0494 -0.5997225,0.15522 -0.6491115,0.46566 z m 1.8979452,-2.51178 c -0.8396114,0 -1.5240006,0.19756 -2.1448897,0.40217 -0.2963335,0.0988 -0.4586113,0.41628 -0.3598335,0.71261 0.098778,0.29634 0.4162779,0.45861 0.7126114,0.35984 0.5997225,-0.19756 1.1288893,-0.34573 1.7921118,-0.34573 0.6350003,0 0.8113892,0.4445 0.8113892,1.10773 0,0.508 -0.1199445,0.99483 -0.2610556,1.42522 -0.091722,0.29633 0.070556,0.61383 0.366889,0.71261 0.2963335,0.0988 0.6138336,-0.0635 0.7055558,-0.35983 0.1622779,-0.49389 0.3175002,-1.10067 0.3175002,-1.778 0,-1.28412 -0.6208892,-2.23662 -1.9402786,-2.23662 z"
         style="font-weight:bold"
         id="path28709" />
      <path
         d="m 2.4955996,173.35322 c 0.2892779,-0.41628 0.3457224,-0.95956 0.3527779,-1.57339 0.00706,-0.31045 -0.239889,-0.56445 -0.5503335,-0.5715 -0.3175001,0 -0.5715002,0.24694 -0.5715002,0.55739 -0.014111,0.55033 -0.077611,0.83255 -0.1552223,0.9525 -0.176389,0.254 -0.112889,0.60677 0.1411111,0.78316 0.2610557,0.17639 0.6067781,0.10584 0.783167,-0.14816 z m -1.69333399,0 c 0.28927789,-0.41628 0.34572239,-0.95956 0.35277789,-1.57339 0.00706,-0.31045 -0.23988896,-0.56445 -0.55033353,-0.5715 -0.31750012,0 -0.57150023,0.24694 -0.57150023,0.55739 -0.01411111,0.55033 -0.07761114,0.83255 -0.15522228,0.9525 -0.17638896,0.23989 -0.11288893,0.60677 0.14111117,0.78316 0.26105566,0.17639 0.60677802,0.10584 0.78316698,-0.14816 z"
         style="font-weight:bold"
         id="path28711" />
      <path
         d="m -1.6107417,176.04844 c 0,0.28222 0.2257779,0.508 0.5080002,0.508 0.27516681,0 0.50800023,-0.22578 0.50800023,-0.508 0,-0.27517 -0.23283342,-0.508 -0.50800023,-0.508 -0.2822223,0 -0.5080002,0.23283 -0.5080002,0.508 z"
         style="line-height:100%;font-family:'Comix No2 CLM';-inkscape-font-specification:'Comix No2 CLM'"
         id="path28713" />
      <path
         d="m -8.8144535,172.77466 c -0.0635,-0.0423 -0.127,-0.0635 -0.2046112,-0.0564 -0.1905,0 -0.3457223,0.16227 -0.3386668,0.35983 0.014111,0.80433 0.091722,1.51694 0.091722,2.26483 0,0.20462 -0.0635,0.33162 -0.1411112,0.43039 -0.2681112,0 -0.3880557,-0.0847 -0.6843893,-0.30339 -0.155222,-0.11288 -0.381,-0.0847 -0.493889,0.0776 -0.112889,0.15522 -0.07761,0.37394 0.07761,0.49388 0.282222,0.20462 0.6138328,0.43745 1.1006663,0.43745 0.5926669,0 0.846667,-0.65617 0.846667,-1.13595 0,-0.67733 -0.056444,-1.30527 -0.084667,-1.96144 0.1270001,0.0282 0.2681113,-0.0212 0.352778,-0.13406 0.1905,-0.24694 0.5926669,-0.42333 0.973667,-0.42333 0.8325559,0 1.5733895,0.49389 1.5733895,1.41817 0,0.53622 -0.1622778,1.06539 -0.2610556,1.66511 -0.028222,0.1905 0.098778,0.37394 0.2892779,0.40922 0.1905,0.0282 0.3739445,-0.0988 0.4092223,-0.28928 0.091722,-0.54327 0.2681113,-1.11477 0.2681113,-1.78505 0,-1.38995 -1.1359449,-2.12373 -2.2789454,-2.12373 -0.5503335,0 -1.1359449,0.21167 -1.4957784,0.65617 z"
         style="line-height:100%;font-family:'Comix No2 CLM';-inkscape-font-specification:'Comix No2 CLM'"
         id="path28715" />
      <path
         d="m -13.076,172.11849 c -0.5715,0 -1.100667,0.14112 -1.538112,0.36689 -0.169333,0.0917 -0.239889,0.30339 -0.148166,0.47978 0.09172,0.16933 0.303389,0.23283 0.479778,0.14817 0.324555,-0.17639 0.747889,-0.28928 1.2065,-0.28928 0.839611,0 1.552223,0.57856 1.552223,1.36172 0,0.64911 -0.105834,1.30528 -0.197556,1.87678 -0.03528,0.1905 0.09878,0.37395 0.289278,0.40217 0.1905,0.0353 0.373945,-0.0988 0.402167,-0.28928 0.09172,-0.5715 0.211667,-1.26294 0.211667,-1.98967 0,-1.24178 -1.100667,-2.06728 -2.257779,-2.06728 z"
         style="line-height:100%;font-family:'Comix No2 CLM';-inkscape-font-specification:'Comix No2 CLM'"
         id="path28717" />
      <path
         d="m -16.152218,174.26338 c -0.105833,0.0635 -0.176389,0.17639 -0.176389,0.30339 v 0 c 0,0.52211 -1.227667,1.016 -1.996723,1.22767 -0.183444,0.0494 -0.296333,0.23989 -0.246944,0.43039 0.05644,0.1905 0.246944,0.29633 0.437444,0.24694 0.416278,-0.11289 1.615723,-0.41627 2.194279,-1.09361 0.04233,0.23284 0.08467,0.46567 0.119944,0.6985 0.02822,0.1905 0.211667,0.32456 0.402167,0.29634 0.1905,-0.0282 0.324556,-0.21167 0.296334,-0.40217 -0.169334,-1.07245 -0.373945,-2.0955 -0.627945,-3.07622 -0.119945,-0.46567 -0.529167,-0.74789 -1.001889,-0.74789 -0.345723,0 -0.613834,0.0988 -0.839612,0.23283 -0.169333,0.0988 -0.225778,0.3175 -0.127,0.47978 0.09172,0.16933 0.310445,0.22578 0.479778,0.127 0.176389,-0.0988 0.246945,-0.13406 0.486834,-0.13406 0.1905,0 0.289277,0.0847 0.3175,0.21872 0.105833,0.38806 0.197555,0.78317 0.282222,1.19239 z"
         style="line-height:100%;font-family:'Comix No2 CLM';-inkscape-font-specification:'Comix No2 CLM'"
         id="path28719" />
      <path
         d="m -18.882713,174.19988 c -0.01411,-0.64205 -0.0635,-1.23472 -0.155223,-1.82739 -0.02822,-0.19755 -0.211666,-0.32455 -0.402167,-0.29633 -0.197555,0.0282 -0.324555,0.21167 -0.296333,0.40217 0.09172,0.56444 0.141111,1.12183 0.155222,1.74272 0,0.1905 0.162278,0.34572 0.359834,0.33867 0.1905,0 0.345722,-0.16228 0.338667,-0.35984 z"
         style="line-height:100%;font-family:'Comix No2 CLM';-inkscape-font-specification:'Comix No2 CLM'"
         id="path28721" />
      <path
         d="m -23.983868,172.24549 c -0.0635,0 -0.119945,0.007 -0.169334,0.0282 -0.261055,0.0353 -0.522111,0.0917 -0.797278,0.16227 -0.183444,0.0494 -0.296333,0.24695 -0.246944,0.43745 0.05644,0.18344 0.246944,0.29633 0.437444,0.24694 0.112889,-0.0353 0.218723,-0.0635 0.331612,-0.0847 -0.03528,0.37394 -0.05645,0.75494 -0.05645,1.17122 0,0.254 0.0071,0.52211 0.02822,0.80433 0.07056,1.143 0.860778,1.47461 1.70039,1.47461 0.606778,0 1.439334,-0.0353 1.912056,-0.14111 0.169334,-0.0353 0.289278,-0.1905 0.275167,-0.35983 0.183445,-0.33161 0.204611,-0.74083 0.204611,-1.143 0,-0.28928 -0.02117,-0.59267 -0.03528,-0.87489 -0.07761,-1.36172 -1.037167,-1.82033 -2.060223,-1.82033 -0.529166,0 -1.030111,0.0353 -1.524,0.0988 z m 0.275167,0.68439 c 0.388055,-0.0423 0.818444,-0.0776 1.248833,-0.0776 0.74789,0 1.305279,0.26106 1.354668,1.15006 0.01411,0.28928 0.03528,0.57855 0.03528,0.83961 0,0.40922 -0.07056,0.73378 -0.148166,0.85372 -0.409223,0.0564 -1.06539,0.0847 -1.538112,0.0847 -0.5715,0 -0.959556,-0.14817 -0.994834,-0.81139 -0.02117,-0.27517 -0.02822,-0.52211 -0.02822,-0.762 0,-0.45861 0.02822,-0.86783 0.07056,-1.27706 z"
         style="line-height:100%;font-family:'Comix No2 CLM';-inkscape-font-specification:'Comix No2 CLM'"
         id="path28723" />
      <path
         d="m -26.566201,173.28266 c 0,0.28222 0.225778,0.508 0.508,0.508 0.275167,0 0.508,-0.22578 0.508,-0.508 0,-0.27517 -0.232833,-0.508 -0.508,-0.508 -0.282222,0 -0.508,0.23283 -0.508,0.508 z m 0,2.76578 c 0,0.28222 0.225778,0.508 0.508,0.508 0.275167,0 0.508,-0.22578 0.508,-0.508 0,-0.27517 -0.232833,-0.508 -0.508,-0.508 -0.282222,0 -0.508,0.23283 -0.508,0.508 z"
         style="line-height:100%;font-family:'Comix No2 CLM';-inkscape-font-specification:'Comix No2 CLM'"
         id="path28725" />
      <path
         d="m -30.961791,175.02538 c 0.402167,-0.68439 0.867834,-1.51694 0.917223,-2.51883 0.0071,-0.1905 -0.141112,-0.35983 -0.338667,-0.36689 -0.1905,-0.0141 -0.359834,0.14111 -0.366889,0.33161 -0.03528,0.73378 -0.381,1.41817 -0.740834,2.06022 0,0 -0.881945,-0.81138 -1.432278,-1.34761 -0.3175,-0.31044 -0.797278,-0.81844 -0.797278,-0.81844 -0.134056,-0.13406 -0.359834,-0.14111 -0.493889,0 -0.141112,0.13405 -0.148167,0.35983 -0.0071,0.49389 0.303389,0.30339 0.592667,0.62089 0.903112,0.91722 -0.409223,0.72672 -0.705556,1.41817 -0.966612,2.22956 -0.0635,0.18344 0.04233,0.381 0.225778,0.4445 0.1905,0.0564 0.388056,-0.0423 0.4445,-0.22578 0.232833,-0.71967 0.479778,-1.31939 0.8255,-1.94734 l 0.987779,0.93134 c 0.01411,0.16228 0.155222,0.31044 0.338666,0.3175 l 0.818445,0.76905 c 0.141111,0.127 0.359834,0.127 0.493889,-0.0212 0.134056,-0.14111 0.127,-0.35984 -0.01411,-0.49389 z"
         style="line-height:100%;font-family:'Comix No2 CLM';-inkscape-font-specification:'Comix No2 CLM'"
         id="path28727" />
      <path
         d="m -35.731343,176.04844 c 0,0.28222 0.225778,0.508 0.508,0.508 0.275167,0 0.508,-0.22578 0.508,-0.508 0,-0.27517 -0.232833,-0.508 -0.508,-0.508 -0.282222,0 -0.508,0.23283 -0.508,0.508 z"
         style="line-height:100%;font-family:'Comix No2 CLM';-inkscape-font-specification:'Comix No2 CLM'"
         id="path28729" />
      <path
         d="m -42.913889,174.71494 c -0.07056,0.45156 0.01411,0.91722 -0.0071,1.38289 -0.01411,0.19755 0.141111,0.35983 0.331611,0.36689 0.197555,0.0141 0.359833,-0.14111 0.366889,-0.33161 0.02822,-0.45861 -0.05644,-0.91017 0.0071,-1.29823 0.02822,-0.19755 -0.09878,-0.37394 -0.289278,-0.40922 -0.197555,-0.0282 -0.373944,0.0988 -0.409222,0.28928 z m 1.869723,-2.6035 c -0.910167,0 -1.643945,0.21167 -2.342445,0.4445 -0.183445,0.0635 -0.289278,0.26105 -0.225778,0.4445 0.0635,0.18344 0.261055,0.28928 0.4445,0.22578 0.684389,-0.22578 1.319389,-0.40923 2.123723,-0.40923 0.910167,0 1.199445,0.64912 1.199445,1.53812 0,0.62089 -0.141111,1.2065 -0.303389,1.70744 -0.0635,0.18345 0.04233,0.381 0.225778,0.4445 0.183444,0.0635 0.381,-0.0423 0.4445,-0.22578 0.176389,-0.54327 0.338667,-1.19944 0.338667,-1.92616 0,-1.143 -0.472723,-2.24367 -1.905001,-2.24367 z"
         style="line-height:100%;font-family:'Comix No2 CLM';-inkscape-font-specification:'Comix No2 CLM'"
         id="path28731" />
      <path
         d="m -44.296775,173.77655 c 0,-0.48683 -0.01411,-0.94544 -0.04939,-1.38289 -0.01411,-0.1905 -0.183444,-0.33867 -0.381,-0.3175 -0.1905,0.0141 -0.338667,0.18345 -0.3175,0.381 0.02822,0.40217 0.04233,0.83961 0.04233,1.31939 0,0.71261 -0.02117,1.50283 -0.02117,2.38478 0,0.19755 0.155222,0.35278 0.352778,0.35278 0.1905,0 0.352778,-0.15523 0.352778,-0.35278 0,-0.86783 0.02117,-1.65806 0.02117,-2.38478 z"
         style="line-height:100%;font-family:'Comix No2 CLM';-inkscape-font-specification:'Comix No2 CLM'"
         id="path28733" />
      <path
         d="m -48.939324,173.22622 c 0.08467,0 0.169333,-0.0282 0.239889,-0.0917 0.211666,-0.19755 0.486833,-0.31044 0.860778,-0.31044 1.051278,0 1.418167,0.73378 1.418167,1.41817 0,0.61383 -0.218722,1.12889 -0.543278,1.49578 -0.3175,0.007 -0.677334,0.0212 -1.016,0.0212 -0.522112,0 -1.023056,-0.0564 -1.150057,-0.13405 -0.148166,-0.0917 -0.373944,-0.10584 -0.508,0.0847 -0.105833,0.15523 -0.07055,0.381 0.09172,0.48684 0.409222,0.254 0.959555,0.26811 1.566334,0.26811 0.381,0 0.769055,-0.0141 1.086555,-0.0212 0,0 0,0 0,0 0.07761,0 0.324556,-0.0917 0.373945,-0.14817 0.388056,-0.47272 0.804334,-1.15711 0.804334,-2.05316 0,-1.00189 -0.620889,-2.12373 -2.123723,-2.12373 -0.451556,0 -0.860778,0.127 -1.19239,0.37395 -0.211666,-0.20461 -0.578555,-0.0635 -0.592667,0.23989 -0.0071,0.22578 -0.02822,0.4445 -0.02822,0.67028 0,0.55033 0.162278,0.89605 0.465667,1.12183 0.451556,0.26105 0.564445,0.23283 0.896056,0.23283 0.232833,0 0.4445,-0.0212 0.642056,-0.11994 0.169333,-0.0847 0.246944,-0.29634 0.162278,-0.47272 -0.09172,-0.16934 -0.303389,-0.24695 -0.472723,-0.16228 -0.02117,0.0141 -0.169333,0.0494 -0.331611,0.0494 -0.197556,0 -0.388056,-0.0353 -0.472722,-0.0917 -0.141112,-0.0917 -0.183445,-0.23988 -0.183445,-0.55738 0,-0.0565 0,-0.11289 0.0071,-0.17639 z"
         style="line-height:100%;font-family:'Comix No2 CLM';-inkscape-font-specification:'Comix No2 CLM'"
         id="path28735" />
      <path
         d="m -51.620433,172.13261 c -0.261056,0 -0.493889,0.0776 -0.656167,0.18344 -0.162278,0.0988 -0.204611,0.32456 -0.09878,0.48683 0.105833,0.16228 0.324556,0.20461 0.486833,0.0988 0.07056,-0.0423 0.141112,-0.0635 0.268112,-0.0635 0.522111,0 0.783167,0.86783 0.783167,1.79917 0,0.93839 -0.381,1.143 -1.467556,1.143 -0.07761,0 -0.148167,0 -0.239889,-0.0141 -0.190501,-0.0212 -0.366889,0.11994 -0.388056,0.31044 -0.02117,0.1905 0.112889,0.36689 0.310444,0.39511 0.119945,0.0141 0.218723,0.0141 0.317501,0.0141 1.566333,0 2.173112,-0.39511 2.173112,-1.84855 0,-0.81845 -0.246945,-2.50472 -1.488723,-2.50472 z"
         style="line-height:100%;font-family:'Comix No2 CLM';-inkscape-font-specification:'Comix No2 CLM'"
         id="path28737" />
      <path
         d="m -57.335422,174.68672 c -0.07056,-0.31045 -0.08467,-0.69145 -0.08467,-1.08656 0,-0.37394 0.0071,-0.74083 -0.03528,-1.08655 -0.02117,-0.19756 -0.197555,-0.33162 -0.395111,-0.31045 -0.1905,0.0282 -0.331611,0.20461 -0.303389,0.39511 0.03528,0.27517 0.02822,0.66322 0.02822,1.00189 0,0.4445 0.0071,0.92428 0.134056,1.37584 0.296333,1.05833 1.150056,1.48872 2.328334,1.48872 0.874889,0 1.481667,-0.26106 1.95439,-0.67734 0.09172,-0.0847 0.127,-0.21166 0.112889,-0.32455 0.183444,-0.53622 0.345722,-1.36172 0.345722,-2.13078 0,-0.24694 -0.01411,-0.50094 -0.04939,-0.75494 -0.02822,-0.19756 -0.204611,-0.33162 -0.395111,-0.30339 -0.197556,0.0212 -0.331611,0.19755 -0.303389,0.39511 0.02822,0.22578 0.04233,0.4445 0.04233,0.66322 0,0.67028 -0.127,1.31233 -0.296333,1.86972 -0.01411,0.0423 -0.01411,0.0847 -0.01411,0.127 -0.345723,0.28928 -0.68439,0.43039 -1.397001,0.43039 -0.635,0 -1.065389,-0.127 -1.340556,-0.40922 0.416278,-0.0635 0.959556,-0.0988 1.368778,-0.41628 0.282223,-0.22578 0.416278,-0.55033 0.416278,-1.05833 0,-0.47272 -0.09172,-0.94545 -0.211667,-1.48872 -0.03528,-0.1905 -0.225777,-0.31045 -0.416278,-0.26812 -0.1905,0.0423 -0.310444,0.22578 -0.268111,0.41628 0.112889,0.52917 0.1905,0.96661 0.1905,1.34056 0,0.24694 -0.01411,0.40216 -0.148166,0.50094 -0.197556,0.15522 -0.733778,0.21167 -1.248834,0.30339 -0.0071,0.007 -0.01411,0.007 -0.01411,0.007 z"
         style="line-height:100%;font-family:'Comix No2 CLM';-inkscape-font-specification:'Comix No2 CLM'"
         id="path28739" />
      <path
         d="m -59.212193,172.47127 c -0.239889,-0.21872 -0.670278,-0.35983 -1.065389,-0.35983 -0.776111,0 -1.213556,0.52211 -1.213556,1.28411 0,0.19756 0.162278,0.35278 0.352778,0.35278 0.197556,0 0.352778,-0.15522 0.352778,-0.35278 0,-0.36689 0.134056,-0.57856 0.508,-0.57856 0.381,0 0.423334,0.11289 0.663223,0.20462 0.04939,0.381 0.04939,0.55033 0.04939,0.9525 0,1.4605 -0.458612,1.78505 -1.19239,1.78505 -0.917222,0 -1.672167,-0.59266 -1.672167,-1.50283 0,-0.46567 0.01411,-1.00895 0.04939,-1.49578 0.01411,-0.19756 -0.134056,-0.35983 -0.331612,-0.37394 -0.1905,-0.0141 -0.359833,0.13405 -0.373944,0.32455 -0.03528,0.50095 -0.04939,1.05833 -0.04939,1.54517 0,1.36172 1.143,2.20839 2.377723,2.20839 1.234723,0 1.897945,-0.71261 1.897945,-2.49061 0,-0.45156 0,-0.69145 -0.07761,-1.21356 -0.02117,-0.14817 -0.134055,-0.26106 -0.275167,-0.28928 z"
         style="line-height:100%;font-family:'Comix No2 CLM';-inkscape-font-specification:'Comix No2 CLM'"
         id="path28741" />
      <path
         d="m -63.847688,174.19988 c -0.01411,-0.64205 -0.0635,-1.23472 -0.155223,-1.82739 -0.02822,-0.19755 -0.211666,-0.32455 -0.402166,-0.29633 -0.197556,0.0282 -0.324556,0.21167 -0.296334,0.40217 0.09172,0.56444 0.141111,1.12183 0.155222,1.74272 0,0.1905 0.162278,0.34572 0.359834,0.33867 0.1905,0 0.345722,-0.16228 0.338667,-0.35984 z"
         style="line-height:100%;font-family:'Comix No2 CLM';-inkscape-font-specification:'Comix No2 CLM'"
         id="path28743" />
      <path
         d="m -65.406961,174.19988 c -0.01411,-0.64205 -0.0635,-1.23472 -0.155222,-1.82739 -0.02822,-0.19755 -0.211667,-0.32455 -0.402167,-0.29633 -0.197555,0.0282 -0.324555,0.21167 -0.296333,0.40217 0.09172,0.56444 0.141111,1.12183 0.155222,1.74272 0,0.1905 0.162278,0.34572 0.359834,0.33867 0.1905,0 0.345722,-0.16228 0.338666,-0.35984 z"
         style="line-height:100%;font-family:'Comix No2 CLM';-inkscape-font-specification:'Comix No2 CLM'"
         id="path28745" />
      <path
         d="m -67.086179,175.11711 c 0,-0.92428 0,-1.85562 0.0071,-2.80106 0,-0.19756 -0.155223,-0.35278 -0.352778,-0.35983 -0.1905,0 -0.352778,0.16227 -0.352778,0.35277 -0.0071,0.94545 -0.0071,1.87678 -0.0071,2.80812 0,1.08655 0,2.16605 0.02117,3.25261 0.0071,0.19755 0.162278,0.35278 0.359833,0.34572 0.197556,0 0.352778,-0.16228 0.345723,-0.35278 -0.02117,-1.08655 -0.02117,-2.16605 -0.02117,-3.24555 z"
         style="line-height:100%;font-family:'Comix No2 CLM';-inkscape-font-specification:'Comix No2 CLM'"
         id="path28747" />
      <path
         d="m -69.421565,176.04844 c 0,0.28222 0.225778,0.508 0.508,0.508 0.275167,0 0.508001,-0.22578 0.508001,-0.508 0,-0.27517 -0.232834,-0.508 -0.508001,-0.508 -0.282222,0 -0.508,0.23283 -0.508,0.508 z"
         style="line-height:100%;font-family:'Comix No2 CLM';-inkscape-font-specification:'Comix No2 CLM'"
         id="path28749" />
    </g>
  </g>
</svg>
