<?xml version="1.0" encoding="UTF-8" standalone="no"?>
<!-- Created with Inkscape (http://www.inkscape.org/) -->

<svg
   xmlns:dc="http://purl.org/dc/elements/1.1/"
   xmlns:cc="http://creativecommons.org/ns#"
   xmlns:rdf="http://www.w3.org/1999/02/22-rdf-syntax-ns#"
   xmlns:svg="http://www.w3.org/2000/svg"
   xmlns="http://www.w3.org/2000/svg"
   version="1.1"
   height="100%"
   width="100%"
   viewBox="0 0 644.35437 132.05464"
   id="svg2">
  <defs
     id="defs4" />
  <metadata
     id="metadata7">
    <rdf:RDF>
      <cc:Work
         rdf:about="">
        <dc:format>image/svg+xml</dc:format>
        <dc:type
           rdf:resource="http://purl.org/dc/dcmitype/StillImage" />
        <dc:title></dc:title>
      </cc:Work>
    </rdf:RDF>
  </metadata>
  <g
     transform="translate(-503.45597,-395.84792)"
     id="layer1">
    <g
       id="text2985"
       style="font-size:40px;font-style:normal;font-variant:normal;font-weight:normal;font-stretch:normal;text-align:start;line-height:125%;letter-spacing:0px;word-spacing:0px;writing-mode:lr-tb;text-anchor:start;fill:#000000;fill-opacity:1;stroke:none;font-family:Dorian CLM;-inkscape-font-specification:Dorian CLM">
      <path
         d="m 1136.2498,444.12792 -2.84,-2.8 2.84,-2.84 2.84,2.84 -2.84,2.8 m 0,-7.2 -2.84,-2.8 2.84,-2.84 2.84,2.84 -2.84,2.8 m -7.2,-2.16 2.28,-2.28 -0.44,-0.44 -12.24,0 -2.28,2.24 0.48,0.48 c 0,-1e-5 4.0666,-1e-5 12.2,0"
         id="path2990" />
      <path
         d="m 1118.5703,414.56792 0.56,0.56 c 1.0934,1.70668 1.6267,3.64001 1.6,5.8 0,2.13334 -0.5333,4.12 -1.6,5.96 l -2.92,2.88 -0.56,-0.56 c 1.0667,-1.81333 1.6,-3.78666 1.6,-5.92 0.027,-2.15999 -0.5066,-4.10666 -1.6,-5.84 l 2.92,-2.88 m -3.48,-6.16 2.84,-2.84 c 1.5467,-1.09331 3.16,-1.89331 4.84,-2.4 1.7067,-0.50664 3.64,-0.75997 5.8,-0.76 4.16,3e-5 7.4934,1.24003 10,3.72 l 0.56,0.56 c 1.2267,1.22669 2.1467,2.64002 2.76,4.24 0.6133,1.60002 0.92,3.24002 0.92,4.92 0,3.54668 -1.1867,7.25334 -3.56,11.12 l -2.84,2.8 -0.56,-0.56 c 2.3734,-3.84 3.56,-7.54666 3.56,-11.12 0,-1.59999 -0.2933,-3.17332 -0.88,-4.72 -0.56,-1.54665 -1.4,-2.91998 -2.52,-4.12 -2.48,-2.31998 -5.7066,-3.47998 -9.68,-3.48 -2.1866,2e-5 -4.1333,0.26669 -5.84,0.8 -1.68,0.50669 -3.2933,1.30669 -4.84,2.4 l -0.56,-0.56"
         id="path2992" />
      <path
         d="m 1096.0586,436.92792 -2.84,-2.8 2.84,-2.84 2.84,2.84 -2.84,2.8"
         id="path2994" />
      <path
         d="m 1079.0585,427.52792 2.84,-2.84 c 0.8,0.8 1.8266,1.2 3.08,1.2 0.027,0 0.067,0 0.12,0 0.4533,-1.30666 0.7333,-3.13333 0.84,-5.48 0.1333,-2.95999 0,-6.51998 -0.4,-10.68 l 2.84,-2.84 0.56,0.56 c 0.4,4.18668 0.5333,7.74668 0.4,10.68 -0.1867,3.86667 -0.8534,6.37334 -2,7.52 l -2.84,2.84 c -0.5334,0.53333 -1.3334,0.8 -2.4,0.8 -0.6667,0 -1.2667,-0.16 -1.8,-0.48 -0.5334,-0.29333 -0.9467,-0.72 -1.24,-1.28 m 2.64,-17.8 2.8,-2.8 c 3.3066,-3.01331 7.7066,-4.51997 13.2,-4.52 2.0533,3e-5 3.9199,0.33336 5.6,1 1.6799,0.64003 3.0799,1.52002 4.2,2.64 l 0.56,0.56 0.04,0.04 c 1.1999,1.20002 2.1199,2.54669 2.76,4.04 0.6399,1.46668 0.9999,2.92002 1.08,4.36 0.08,1.78668 -0.1334,3.56001 -0.64,5.32 -0.6667,2.26667 -1.6534,4.46667 -2.96,6.6 l -2.84,2.8 -0.56,-0.56 c 1.3066,-2.10666 2.2933,-4.30666 2.96,-6.6 0.5066,-1.75999 0.7199,-3.53332 0.64,-5.32 -0.053,-1.35999 -0.3867,-2.74665 -1,-4.16 -0.5867,-1.43998 -1.4401,-2.75998 -2.56,-3.96 -2.4534,-2.26664 -5.6401,-3.39998 -9.56,-3.4 -5.4667,2e-5 -9.8534,1.50669 -13.16,4.52 l -0.56,-0.56"
         id="path2996" />
      <path
         d="m 1069.7464,444.12792 -2.84,-2.8 2.84,-2.84 2.84,2.84 -2.84,2.8 m 0,-7.2 -2.84,-2.8 2.84,-2.84 2.84,2.84 -2.84,2.8"
         id="path2998" />
      <path
         d="m 1050.866,415.36792 -0.56,-0.56 c 0.48,-2.34665 1.5733,-4.37331 3.28,-6.08 l 2.84,-2.8 0,-0.04 c 2.3466,-2.31997 5.1733,-3.47997 8.48,-3.48 3.3066,3e-5 6.1333,1.16003 8.48,3.48 l 0.6,0.6 c 2.3199,2.34669 3.4799,5.25335 3.48,8.72 -10e-5,2.34668 -0.3067,4.45334 -0.92,6.32 -0.5867,1.86667 -1.4267,3.68 -2.52,5.44 l -2.84,2.8 -0.56,-0.56 c 2.2933,-3.84 3.4399,-7.83999 3.44,-12 -10e-5,-3.14665 -1.0801,-5.87998 -3.24,-8.2 -2.2934,-2.15998 -5.0267,-3.23998 -8.2,-3.24 -2.56,2e-5 -4.8667,0.74669 -6.92,2.24 -0.9867,1.38669 -1.6534,2.90668 -2,4.56 l -2.84,2.8"
         id="path3000" />
      <path
         d="m 1018.6563,403.48792 -2.84,-2.84 2.84,-2.8 2.84,2.8 -2.84,2.84"
         id="path3002" />
      <path
         d="m 1032.0953,419.20792 -3.12,-3.12 3.12,-3.12 3.12,3.12 -3.12,3.12 m -10.44,-14 2.8,-2.8 c 7.84,1.06669 15.8934,1.06669 24.16,0 l 0.56,0.56 -2.8,2.8 c -0.8533,0.13336 -1.6933,0.24002 -2.52,0.32 l 0.04,0.08 c -1.3866,1.49335 -2.3333,3.49335 -2.84,6 -0.32,1.49335 -0.48,3.54668 -0.48,6.16 l 0,8.64 -2.8,2.8 -0.56,-0.56 0,-8.64 c 0,-2.58666 0.1467,-4.62665 0.44,-6.12 0.5334,-2.53332 1.4934,-4.54665 2.88,-6.04 l 2.2,-2.2 c -6.9066,0.66669 -13.7466,0.52002 -20.52,-0.44 l -0.56,-0.56"
         id="path3004" />
      <path
         d="m 1014.6803,445.76792 -0.56,-0.56 c -0.96,-2.93335 -1.2266,-6.65334 -0.8,-11.16 0.1067,-1.38667 0.4,-2.98667 0.88,-4.8 0.5067,-1.81333 0.96,-3.64 1.36,-5.48 0.4,-1.86666 0.6,-3.73332 0.6,-5.6 0,-3.75999 -1.0933,-6.81332 -3.28,-9.16 -2.32,-2.15998 -5.0533,-3.23998 -8.2,-3.24 -2.64,2e-5 -4.90663,0.60002 -6.79996,1.8 -0.82667,1.33335 -1.24,2.81335 -1.24,4.44 0,2.42668 0.8,4.44001 2.4,6.04 1.59996,1.60001 3.61336,2.40001 6.03996,2.4 l 0.56,0.56 -2.8,2.84 c -2.5333,1e-5 -4.75996,-0.95999 -6.67996,-2.88 -1.92,-1.91999 -2.88,-4.14665 -2.88,-6.68 0,-2.37332 0.8,-4.37331 2.4,-6 l 2.84,-2.84 c 2.05336,-2.02664 4.85336,-3.03997 8.39996,-3.04 3.3067,3e-5 6.1334,1.16003 8.48,3.48 l 0.56,0.6 c 2.3467,2.34669 3.52,5.17335 3.52,8.48 0,1.81335 -0.2133,3.69334 -0.64,5.64 -0.4,1.94667 -0.8666,3.89334 -1.4,5.84 -0.5066,1.92 -0.8266,3.57333 -0.96,4.96 -0.1866,2.10666 -0.1866,4.18666 0,6.24 0.1867,2.05332 0.52,3.82665 1,5.32 l -2.8,2.8"
         id="path3006" />
      <path
         d="m 965.95793,434.76792 -13,0 -0.48,-0.48 2.28,-2.24 13,0 0.48,0.44 -2.28,2.28"
         id="path3008" />
      <path
         d="m 952.83847,428.40792 2.8,-2.8 10.08,0 -0.12,-0.12 -0.04,-11.08 c -1e-5,-2.42665 -0.0934,-4.14665 -0.28,-5.16 -0.16001,-0.87998 -0.54668,-1.62665 -1.16,-2.24 -0.90668,-0.90664 -2.30668,-1.35998 -4.2,-1.36 -1.84001,2e-5 -3.57334,0.64002 -5.2,1.92 l -0.56,-0.56 2.84,-2.84 c 0.79999,-0.63997 1.55999,-1.09331 2.28,-1.36 0.74666,-0.26664 1.69332,-0.39997 2.84,-0.4 1.97332,3e-5 3.57332,0.61336 4.8,1.84 0.87998,0.88002 1.43998,1.90669 1.68,3.08 0.23998,1.14669 0.35998,2.93335 0.36,5.36 l 0,10.52 -2.64,2.64 0.28,0.32 -2.8,2.8 -10.4,0 -0.56,-0.56"
         id="path3010" />
      <path
         d="m 945.64429,444.12792 -2.84,-2.8 2.84,-2.84 2.84,2.84 -2.84,2.8 m 0,-7.2 -2.84,-2.8 2.84,-2.84 2.84,2.84 -2.84,2.8 m -7.2,-2.16 2.28,-2.28 -0.44,-0.44 -12.24,0 -2.28,2.24 0.48,0.48 c 10e-6,-1e-5 4.06667,-1e-5 12.2,0"
         id="path3012" />
      <path
         d="m 949.96409,401.92792 0.56,0.56 c -0.18669,3.44002 -0.65336,6.94669 -1.4,10.52 -0.74669,3.57335 -1.76002,6.30668 -3.04,8.2 -0.40002,0.58667 -0.85335,1.13334 -1.36,1.64 l -2.8,2.84 -0.04,0 c -1.01335,1.01334 -2.21335,1.81334 -3.6,2.4 -1.36001,0.58667 -2.78668,0.93333 -4.28,1.04 -1.49334,0.13333 -2.94667,0.13333 -4.36,0 -1.41334,-0.10667 -2.86667,-0.34667 -4.36,-0.72 l -0.56,-0.56 2.84,-2.8 c 6.42666,1.49334 11.45332,1 15.08,-1.48 1.27998,-1.89333 2.29331,-4.62666 3.04,-8.2 0.77331,-3.59998 1.25331,-7.14665 1.44,-10.64 l 2.84,-2.8 m -19.56,20.44 c 1.51999,1.52001 3.06666,2.70667 4.64,3.56 l 2.64,-2.64 -0.56,-0.56 c -1.68001,-0.90666 -2.94667,-1.81333 -3.8,-2.72 -1.97334,-2.02666 -3.4,-4.51999 -4.28,-7.48 -0.88,-2.95998 -1.45333,-6.30664 -1.72,-10.04 l -0.56,-0.56 -2.64,2.6 c 0.26667,3.84002 0.85333,7.26668 1.76,10.28 0.93333,2.98668 2.44,5.50668 4.52,7.56"
         id="path3014" />
      <path
         d="m 893.13159,415.36792 -0.56,-0.56 c 0.48,-2.34665 1.57333,-4.37331 3.28,-6.08 l 2.84,-2.8 0,-0.04 c 2.34666,-2.31997 5.17333,-3.47997 8.48,-3.48 3.30665,3e-5 6.13332,1.16003 8.48,3.48 l 0.6,0.6 c 2.31998,2.34669 3.47998,5.25335 3.48,8.72 -2e-5,2.34668 -0.30669,4.45334 -0.92,6.32 -0.58669,1.86667 -1.42669,3.68 -2.52,5.44 l -2.84,2.8 -0.56,-0.56 c 2.29331,-3.84 3.43998,-7.83999 3.44,-12 -2e-5,-3.14665 -1.08002,-5.87998 -3.24,-8.2 -2.29335,-2.15998 -5.02668,-3.23998 -8.2,-3.24 -2.56001,2e-5 -4.86667,0.74669 -6.92,2.24 -0.98667,1.38669 -1.65333,2.90668 -2,4.56 l -2.84,2.8"
         id="path3016" />
      <path
         d="m 880.24034,419.20792 -3.12,-3.12 3.12,-3.12 3.12,3.12 -3.12,3.12 m 6.8,-17.28 0.56,0.56 0,24.48 -2.8,2.8 -0.56,-0.56 0,-24.48 2.8,-2.8"
         id="path3018" />
      <path
         d="m 842.80847,427.52792 2.84,-2.84 c 0.8,0.8 1.82666,1.2 3.08,1.2 0.0267,0 0.0667,0 0.12,0 0.45333,-1.30666 0.73333,-3.13333 0.84,-5.48 0.13333,-2.95999 -1e-5,-6.51998 -0.4,-10.68 l 2.84,-2.84 0.56,0.56 c 0.39999,4.18668 0.53332,7.74668 0.4,10.68 -0.18668,3.86667 -0.85334,6.37334 -2,7.52 l -2.84,2.84 c -0.53334,0.53333 -1.33334,0.8 -2.4,0.8 -0.66667,0 -1.26667,-0.16 -1.8,-0.48 -0.53333,-0.29333 -0.94667,-0.72 -1.24,-1.28 m 2.64,-17.8 2.8,-2.8 c 3.30666,-3.01331 7.70665,-4.51997 13.2,-4.52 2.05331,3e-5 3.91998,0.33336 5.6,1 1.67997,0.64003 3.07997,1.52002 4.2,2.64 l 0.56,0.56 0.04,0.04 c 1.19997,1.20002 2.11997,2.54669 2.76,4.04 0.63997,1.46668 0.99997,2.92002 1.08,4.36 0.08,1.78668 -0.13337,3.56001 -0.64,5.32 -0.6667,2.26667 -1.65336,4.46667 -2.96,6.6 l -2.84,2.8 -0.56,-0.56 c 1.30664,-2.10666 2.2933,-4.30666 2.96,-6.6 0.50664,-1.75999 0.71997,-3.53332 0.64,-5.32 -0.0534,-1.35999 -0.3867,-2.74665 -1,-4.16 -0.58669,-1.43998 -1.44003,-2.75998 -2.56,-3.96 -2.45336,-2.26664 -5.64002,-3.39998 -9.56,-3.4 -5.46668,2e-5 -9.85334,1.50669 -13.16,4.52 l -0.56,-0.56"
         id="path3020" />
      <path
         d="m 813.12468,434.76792 -13,0 -0.48,-0.48 2.28,-2.24 13,0 0.48,0.44 -2.28,2.28"
         id="path3022" />
      <path
         d="m 794.00409,404.96792 2.56,-2.56 17.6,17.56 c 2.15998,-2.29332 3.38665,-4.82665 3.68,-7.6 0.21331,-2.37331 -0.26669,-4.69331 -1.44,-6.96 l 3,-3 0.56,0.56 c 1.09331,2.05336 1.50664,4.44002 1.24,7.16 -0.26669,2.88002 -1.52002,5.44001 -3.76,7.68 l -2.72,2.72 6.64,6.68 -2.56,2.56 -17.56,-17.56 c -2.16,2.29335 -3.38667,4.82668 -3.68,7.6 -0.21333,2.37334 0.26666,4.69334 1.44,6.96 l -3,3 -0.56,-0.56 c -1.09333,-2.05333 -1.50666,-4.44 -1.24,-7.16 0.26667,-2.87999 1.52,-5.43999 3.76,-7.68 l 2.72,-2.72 -6.68,-6.68"
         id="path3024" />
      <path
         d="m 779.43327,434.76792 -13,0 -0.48,-0.48 2.28,-2.24 13,0 0.48,0.44 -2.28,2.28"
         id="path3026" />
      <path
         d="m 762.19347,408.40792 2.8,-2.84 c 1.54666,-1.09331 3.15999,-1.89331 4.84,-2.4 1.70665,-0.50664 3.65332,-0.75997 5.84,-0.76 4.15998,3e-5 7.47998,1.24003 9.96,3.72 l 0.56,0.56 c 1.22664,1.22669 2.14664,2.64002 2.76,4.24 0.63997,1.60002 0.95997,3.24002 0.96,4.92 -3e-5,3.54668 -1.20003,7.25334 -3.6,11.12 l -2.84,2.8 -0.56,-0.56 c 2.39997,-3.84 3.59997,-7.54666 3.6,-11.12 -3e-5,-1.59999 -0.29336,-3.17332 -0.88,-4.72 -0.56003,-1.54665 -1.41336,-2.91998 -2.56,-4.12 -2.45336,-2.31998 -5.68002,-3.47998 -9.68,-3.48 -3.17335,2e-5 -5.94668,0.60002 -8.32,1.8 l 0.48,0.48 0,18.92 -2.8,2.8 -0.56,-0.56 0,-18.92 2.56,-2.56 c -0.66667,0.34669 -1.33334,0.76002 -2,1.24 l -0.56,-0.56"
         id="path3028" />
      <path
         d="m 730.24097,415.36792 -0.56,-0.56 c 0.48,-2.34665 1.57333,-4.37331 3.28,-6.08 l 2.84,-2.8 0,-0.04 c 2.34666,-2.31997 5.17332,-3.47997 8.48,-3.48 3.30665,3e-5 6.13331,1.16003 8.48,3.48 l 0.6,0.6 c 2.31997,2.34669 3.47997,5.25335 3.48,8.72 -3e-5,2.34668 -0.3067,4.45334 -0.92,6.32 -0.58669,1.86667 -1.42669,3.68 -2.52,5.44 l -2.84,2.8 -0.56,-0.56 c 2.29331,-3.84 3.43997,-7.83999 3.44,-12 -3e-5,-3.14665 -1.08002,-5.87998 -3.24,-8.2 -2.29335,-2.15998 -5.02668,-3.23998 -8.2,-3.24 -2.56001,2e-5 -4.86668,0.74669 -6.92,2.24 -0.98667,1.38669 -1.65334,2.90668 -2,4.56 l -2.84,2.8"
         id="path3030" />
      <path
         d="m 700.34156,444.12792 -2.84,-2.8 2.84,-2.84 2.84,2.84 -2.84,2.8 m 0,-7.2 -2.84,-2.8 2.84,-2.84 2.84,2.84 -2.84,2.8 m -7.2,-2.16 2.28,-2.28 -0.44,-0.44 -12.24,0 -2.28,2.24 0.48,0.48 c 10e-6,-1e-5 4.06667,-1e-5 12.2,0"
         id="path3032" />
      <path
         d="m 679.38097,408.40792 2.8,-2.84 c 1.54666,-1.09331 3.15999,-1.89331 4.84,-2.4 1.70665,-0.50664 3.65332,-0.75997 5.84,-0.76 4.15998,3e-5 7.47998,1.24003 9.96,3.72 l 0.56,0.56 c 1.22664,1.22669 2.14664,2.64002 2.76,4.24 0.63997,1.60002 0.95997,3.24002 0.96,4.92 -3e-5,3.54668 -1.20003,7.25334 -3.6,11.12 l -2.84,2.8 -0.56,-0.56 c 2.39997,-3.84 3.59997,-7.54666 3.6,-11.12 -3e-5,-1.59999 -0.29336,-3.17332 -0.88,-4.72 -0.56003,-1.54665 -1.41336,-2.91998 -2.56,-4.12 -2.45336,-2.31998 -5.68002,-3.47998 -9.68,-3.48 -3.17335,2e-5 -5.94668,0.60002 -8.32,1.8 l 0.48,0.48 0,18.92 -2.8,2.8 -0.56,-0.56 0,-18.92 2.56,-2.56 c -0.66667,0.34669 -1.33334,0.76002 -2,1.24 l -0.56,-0.56"
         id="path3034" />
      <path
         d="m 660.51174,436.92792 -2.84,-2.8 2.84,-2.84 2.84,2.84 -2.84,2.8"
         id="path3036" />
      <path
         d="m 646.71159,429.76792 -0.56,-0.56 c 1.25333,-3.70666 1.94667,-7.70666 2.08,-12 0.16,-4.15998 -0.25333,-8.15998 -1.24,-12 l 2.84,-2.8 0.56,0.56 c 0.42666,1.62669 0.74666,3.25336 0.96,4.88 l 2.28,-2.32 c 1.06666,-0.95998 2.37333,-1.71997 3.92,-2.28 1.54666,-0.55997 3.10665,-0.83997 4.68,-0.84 1.67998,3e-5 3.31998,0.30669 4.92,0.92 1.59998,0.61336 2.95998,1.49336 4.08,2.64 l 0.56,0.56 c 1.25331,1.22669 2.11997,2.85335 2.6,4.88 0.47997,2.02668 0.49331,4.22668 0.04,6.6 -0.45336,2.50668 -1.45336,4.53334 -3,6.08 l -2.84,2.84 c -0.77335,0.77333 -1.70669,1.36 -2.8,1.76 -1.06668,0.4 -2.16002,0.6 -3.28,0.6 -2.85334,0 -5.13334,-0.61333 -6.84,-1.84 l -0.56,-0.56 2.8,-2.84 c 1.73332,1.25334 4.01332,1.88 6.84,1.88 1.67998,0 3.21331,-0.41333 4.6,-1.24 0.82664,-1.33333 1.39998,-2.81333 1.72,-4.44 0.39998,-2.26666 0.38664,-4.38665 -0.04,-6.36 -0.42669,-1.97332 -1.21335,-3.58665 -2.36,-4.84 -1.12002,-1.03998 -2.45335,-1.83998 -4,-2.4 -1.54668,-0.58664 -3.12001,-0.87998 -4.72,-0.88 -1.54668,2e-5 -3.08001,0.28002 -4.6,0.84 -1.52001,0.53336 -2.81334,1.28002 -3.88,2.24 0.18666,1.94669 0.24,3.98668 0.16,6.12 -0.16,4.26668 -0.85334,8.26667 -2.08,12 l -2.84,2.8"
         id="path3038" />
      <path
         d="m 625.02102,436.92792 -2.84,-2.8 2.84,-2.84 2.84,2.84 -2.84,2.8"
         id="path3040" />
      <path
         d="m 635.66097,403.48792 -2.8,-2.84 2.8,-2.8 2.84,2.8 -2.84,2.84 m -11.04,-1.32 0.56,0.56 c 1.46665,2.64002 2.19998,5.40002 2.2,8.28 0.0266,2.85335 -0.70669,5.50668 -2.2,7.96 l -2.84,2.8 -0.56,-0.56 c 1.49332,-2.42666 2.22665,-5.07999 2.2,-7.96 -2e-5,-2.87998 -0.73335,-5.63998 -2.2,-8.28 l 2.84,-2.8 m 15.24,0 0.56,0.56 c 1.4133,2.40002 2.11996,5.05335 2.12,7.96 -4e-5,2.13335 -0.41337,4.17335 -1.24,6.12 -0.80004,1.92001 -1.93337,3.61334 -3.4,5.08 l -2.84,2.84 c -1.46669,1.44 -3.14669,2.56 -5.04,3.36 -1.89336,0.8 -3.89335,1.2 -6,1.2 -2.10668,0 -4.10668,-0.4 -6,-1.2 -1.89334,-0.8 -3.56001,-1.92 -5,-3.36 l -0.6,-0.6 c -1.46667,-1.46666 -2.61334,-3.15999 -3.44,-5.08 -0.8,-1.94665 -1.2,-3.98665 -1.2,-6.12 0,-2.87998 0.70666,-5.53331 2.12,-7.96 l 2.8,-2.8 0.56,0.56 c -1.38667,2.40002 -2.08001,5.05335 -2.08,7.96 -10e-6,2.05335 0.37333,4.02668 1.12,5.92 0.77333,1.86668 1.85332,3.53334 3.24,5 1.43999,1.36001 3.07999,2.42667 4.92,3.2 1.83998,0.74667 3.78665,1.12 5.84,1.12 3.51998,0 6.69331,-1.09333 9.52,-3.28 2.2133,-2.85332 3.31997,-6.09332 3.32,-9.72 -3e-5,-2.87998 -0.69337,-5.53331 -2.08,-7.96 l 2.8,-2.8 m -7.16,17.04 -3.12,-3.12 3.12,-3.12 3.12,3.12 -3.12,3.12"
         id="path3042" />
      <path
         d="m 602.03409,401.92792 0.56,0.56 0,12.4 -2.8,2.8 -0.56,-0.56 0,-12.4 2.8,-2.8"
         id="path3044" />
      <path
         d="m 570.68722,428.40792 2.8,-2.8 16.56,0 c -3e-5,0 0.04,-0.04 0.12,-0.12 l 0,-8.96 c -3e-5,-2.63998 -0.29336,-4.61332 -0.88,-5.92 -0.32002,-0.71998 -0.78669,-1.41331 -1.4,-2.08 -0.66669,-0.61331 -1.41336,-1.13331 -2.24,-1.56 -2.13335,-1.06664 -4.54668,-1.59998 -7.24,-1.6 -2.48001,2e-5 -4.86668,0.40002 -7.16,1.2 l 0.48,0.52 0,19.88 -2.8,2.8 -0.56,-0.56 0,-19.88 2.68,-2.72 c -1.17334,0.45336 -2.30667,1.00002 -3.4,1.64 l -0.56,-0.56 2.2,-2.2 c 3.14666,-2.05331 6.94665,-3.07997 11.4,-3.08 2.66665,3e-5 5.06665,0.53336 7.2,1.6 0.95998,0.45336 1.81331,1.05336 2.56,1.8 l 0.56,0.56 c 0.74664,0.74669 1.30664,1.53335 1.68,2.36 0.58664,1.33335 0.87997,3.32002 0.88,5.96 l 0,8.52 c -3e-5,10e-6 -0.13336,0.13334 -0.4,0.4 -0.2667,0.26667 -0.61336,0.61334 -1.04,1.04 l -0.04,0.08 -0.04,0 -2.8,2.84 -1.44,1.4 -16.56,0 -0.56,-0.56"
         id="path3046" />
      <path
         d="m 542.57597,414.60792 0.56,0.56 -2.44,2.4 -34.68,0 -0.56,-0.56 2.44,-2.4 34.68,0"
         id="path3048" />
    </g>
    <g
       id="text2991"
       style="font-size:40px;font-style:italic;font-variant:normal;font-weight:normal;font-stretch:normal;text-align:end;line-height:125%;letter-spacing:0px;word-spacing:0px;writing-mode:lr-tb;text-anchor:end;fill:#000000;fill-opacity:1;stroke:none;font-family:Dorian CLM;-inkscape-font-specification:Dorian CLM Italic">
      <path
         d="m 1129.0108,506.67738 -2.28,-3.28 3.24,-2.28 2.32,3.28 -3.28,2.28 m 1.92,-7.2 -2.28,-3.28 3.24,-2.28 2.32,3.28 -3.28,2.28"
         id="path3051" />
      <path
         d="m 1142.4103,459.19738 0.4,0.56 -8,30.4 -2.96,2.04 -0.4,-0.6 8,-30.36 2.96,-2.04"
         id="path3053" />
      <path
         d="m 1116.0544,497.39738 -0.44,-0.6 2.96,-2.08 7.44,0 0.4,0.6 -2.96,2.08 -1.36,0 -1.4,5.2 -2.96,2.08 -0.4,-0.6 1.52,-5.68 1.44,-1 -4.24,0"
         id="path3055" />
      <path
         d="m 1123.9741,479.95738 -0.44,-0.6 3.2,-12.08 2.96,-2.04 0.4,0.56 -3.2,12.08 -2.92,2.08"
         id="path3057" />
      <path
         d="m 1097.739,506.11738 -2.28,-3.28 3.24,-2.28 2.32,3.24 -3.28,2.32 m -2.44,-6.64 -2.28,-3.28 3.28,-2.28 2.28,3.28 -3.28,2.28 m 8.4,0 -2.28,-3.28 3.28,-2.28 2.28,3.28 -3.28,2.28"
         id="path3059" />
      <path
         d="m 1099.1791,465.35738 0.44,0.56 12.24,21.76 c 0.4,-3.01333 0.96,-5.91999 1.68,-8.72 0.7466,-2.82666 1.8,-5.65332 3.16,-8.48 1.36,-2.85331 2.9333,-5.19998 4.72,-7.04 l 2.96,-2.08 0.4,0.6 c -1.9467,2.00002 -3.64,4.61335 -5.08,7.84 -1.44,3.20001 -2.52,6.34668 -3.24,9.44 -0.6934,3.09334 -1.1867,6.24 -1.48,9.44 l -1.84,1.28 0.12,0.16 -2.6,1.76 -0.44,-0.6 -12.88,-22.84 c -0.3733,7.62668 -2.5067,14.86667 -6.4,21.72 l -2.96,2.04 -0.4,-0.6 c 4,-7.01333 6.1467,-14.43999 6.44,-22.28 l 2.72,-1.92 -0.12,-0.28 2.56,-1.76"
         id="path3061" />
      <path
         d="m 1081.9428,479.95738 -0.44,-0.6 3.2,-12.08 2.96,-2.04 0.4,0.56 -3.2,12.08 -2.92,2.08"
         id="path3063" />
      <path
         d="m 1051.7691,487.47738 -0.44,-0.6 2.96,-2.08 13.04,0 0.4,0.6 -2.96,2.08 -4.16,0 -1.4,5.2 -2.96,2.08 -0.4,-0.6 1.52,-5.68 1.44,-1 -7.04,0 m 6.48,20.48 -0.4,-0.6 2.28,-8.72 c 0.5067,-1.89334 1.1333,-3.37334 1.88,-4.44 0.3467,-0.45334 0.8267,-0.98667 1.44,-1.6 0.64,-0.58667 1.1867,-1.06667 1.64,-1.44 0.48,-0.37334 1.16,-0.89334 2.04,-1.56 0.88,-0.66667 1.4133,-1.08 1.6,-1.24 3.1733,-2.48 5.08,-5.53333 5.72,-9.16 0.4533,-2.63999 0,-5.01332 -1.36,-7.12 -0.9867,-1.30665 -2.28,-2.33332 -3.88,-3.08 -1.6,-0.74665 -3.3867,-1.11998 -5.36,-1.12 -3.12,2e-5 -6.04,0.89335 -8.76,2.68 l -0.8,0.56 -0.4,-0.6 c 0.1067,-0.08 0.2267,-0.15998 0.36,-0.24 l 2.96,-2.08 c 2.8267,-1.97331 5.88,-2.95998 9.16,-2.96 2.0533,2e-5 3.8933,0.40002 5.52,1.2 1.6533,0.80002 2.9733,1.89335 3.96,3.28 l 0.4,0.6 c 1.52,2.16001 2.04,4.62668 1.56,7.4 -0.64,3.65334 -2.5467,6.72 -5.72,9.2 -0.1867,0.13333 -0.72,0.53333 -1.6,1.2 -0.88,0.66667 -1.56,1.18666 -2.04,1.56 -0.4534,0.37333 -1,0.85333 -1.64,1.44 -0.6134,0.61333 -1.0934,1.16 -1.44,1.64 -0.7467,1.03999 -1.3733,2.51999 -1.88,4.44 l -2.28,8.72 -2.96,2.04"
         id="path3065" />
      <path
         d="m 1016.2667,506.67738 -2.28,-3.28 3.24,-2.28 2.32,3.28 -3.28,2.28 m 1.92,-7.2 -2.28,-3.28 3.24,-2.28 2.32,3.28 -3.28,2.28"
         id="path3067" />
      <path
         d="m 1049.8666,449.63738 -2.96,2.04 c -1.1467,-0.79996 -2.4667,-1.27996 -3.96,-1.44 -1.4934,-0.18663 -2.9067,-0.0666 -4.24,0.36 -0.5334,0.16004 -1.0534,0.36004 -1.56,0.6 -1.04,1.01337 -1.9467,2.25337 -2.72,3.72 -0.6667,1.25336 -1.2,2.76003 -1.6,4.52 -0.4,1.73336 -0.6667,3.25336 -0.8,4.56 -0.1067,1.30669 -0.2,2.98669 -0.28,5.04 -0.24,5.73335 -1.1734,10.62667 -2.8,14.68 -1.0934,2.66667 -2.36,4.50667 -3.8,5.52 l -2.92,2.04 c -0.8,0.53333 -1.7333,0.8 -2.8,0.8 -1.44,0 -2.56,-0.66667 -3.36,-2 -0.7733,-1.33333 -1.0933,-2.90667 -0.96,-4.72 0.1867,-2.50666 0.8133,-4.85333 1.88,-7.04 1.0933,-2.21332 2.48,-4.02665 4.16,-5.44 l 2.92,-2.04 0.44,0.56 c -1.68,1.41335 -3.0667,3.22668 -4.16,5.44 -1.0667,2.18668 -1.6933,4.53334 -1.88,7.04 -0.1333,1.84 0.1867,3.30667 0.96,4.4 0.6133,0.85333 1.44,1.28 2.48,1.28 0.4533,0 0.8933,-0.0667 1.32,-0.2 0.8533,-1.04 1.64,-2.42667 2.36,-4.16 1.6266,-4.05333 2.56,-8.94666 2.8,-14.68 0.08,-2.05331 0.1733,-3.73331 0.28,-5.04 0.1333,-1.30664 0.4,-2.82664 0.8,-4.56 0.4,-1.75997 0.9333,-3.27997 1.6,-4.56 1.12,-2.07997 2.4933,-3.6933 4.12,-4.84 l 0.04,0 2.92,-2.08 c 0.96,-0.66663 1.9866,-1.15996 3.08,-1.48 1.3333,-0.45329 2.7466,-0.58663 4.24,-0.4 1.4933,0.18671 2.8266,0.68004 4,1.48 l 0.4,0.6"
         id="path3069" />
      <path
         d="m 994.28289,499.51738 -2.28,-3.28 3.28,-2.32 2.28,3.28 -3.28,2.32"
         id="path3071" />
      <path
         d="m 984.12347,482.91738 2.96,-2.08 c 0.93333,-0.61333 1.86666,-0.87999 2.8,-0.8 0.95999,0.0533 1.73333,0.46667 2.32,1.24 0.71999,1.12001 0.78666,2.54667 0.2,4.28 -0.58668,1.70667 -1.58667,3.24 -3,4.6 l -2.96,2.04 -0.4,-0.6 c 1.49333,-1.44 2.53333,-2.93333 3.12,-4.48 0.61333,-1.57333 0.61333,-2.78666 0,-3.64 -0.50667,-0.58666 -1.2,-0.86666 -2.08,-0.84 -0.85334,0.0267 -1.70667,0.29334 -2.56,0.8 l -0.4,-0.52 m 1.32,-12.4 2.96,-2.08 c 1.75999,-1.09331 3.53332,-1.89331 5.32,-2.4 1.81332,-0.53331 3.82665,-0.79998 6.04,-0.8 4.53333,2e-5 7.83993,1.49335 9.92003,4.48 l 0.44,0.56 0,0.04 c 1.1999,1.70668 1.7999,3.66668 1.8,5.88 -10e-5,1.97334 -0.3867,3.97334 -1.16,6 -0.9334,2.48 -2.4801,5.13333 -4.64,7.96 l -2.96,2.04 -0.4,-0.6 c 2.1599,-2.8 3.7066,-5.44 4.64,-7.92 0.7733,-2.02666 1.1599,-4.02666 1.16,-6 -10e-5,-2.07999 -0.5334,-3.94665 -1.6,-5.6 -2.1334,-2.79998 -5.3734,-4.19998 -9.72003,-4.2 -2.21335,2e-5 -4.22668,0.26669 -6.04,0.8 -1.81334,0.50668 -3.6,1.30668 -5.36,2.4 l -0.4,-0.56"
         id="path3073" />
      <path
         d="m 957.87924,506.67738 -2.28,-3.28 3.24,-2.28 2.32,3.28 -3.28,2.28 m 1.92,-7.2 -2.28,-3.28 3.24,-2.28 2.32,3.28 -3.28,2.28"
         id="path3075" />
      <path
         d="m 972.4791,492.19738 -0.4,-0.6 c 2.15997,-2.8 3.70663,-5.44 4.64,-7.92 0.7733,-2.02666 1.15996,-4.02666 1.16,-6 -4e-5,-2.07999 -0.53337,-3.94665 -1.6,-5.6 -2.13337,-2.79998 -5.37336,-4.19998 -9.72,-4.2 -4.69335,2e-5 -8.82668,1.10669 -12.4,3.32 l -1.76,1.28 -0.44,-0.6 c 0.29332,-0.21332 0.58666,-0.42665 0.88,-0.64 l 2.96,-2.08 c 3.73332,-2.61331 8.15998,-3.91998 13.28,-3.92 4.5333,2e-5 7.8533,1.49335 9.96,4.48 l 0.4,0.56 c 1.19996,1.73335 1.79996,3.70668 1.8,5.92 -4e-5,1.97334 -0.38671,3.97334 -1.16,6 -0.93337,2.48 -2.48004,5.13333 -4.64,7.96 l -2.96,2.04 m -28.16,-4.52 0.2,0.28 c 0.69333,0.77333 1.92,1.16 3.68,1.16 0.82666,0 1.69333,-0.18667 2.6,-0.56 1.25332,-1.41333 2.21332,-3.37333 2.88,-5.88 1.01332,-3.81332 1.77332,-7.42665 2.28,-10.84 l 2.96,-2.04 0.4,0.56 c -0.50668,3.41335 -1.26668,7.02668 -2.28,10.84 -0.88001,3.38667 -2.29335,5.76 -4.24,7.12 l -2.96,2.04 c -0.18667,0.13333 -0.37334,0.26666 -0.56,0.4 -1.20001,0.66666 -2.41334,1 -3.64,1 -1.76,0 -3.01333,-0.42667 -3.76,-1.28 l -0.52,-0.72 2.96,-2.08"
         id="path3077" />
      <path
         d="m 930.5466,469.59738 c -2.26668,-0.71998 -4.86668,-1.29331 -7.8,-1.72 l -0.4,-0.6 2.96,-2.04 c 3.17332,0.45336 5.94665,1.08002 8.32,1.88 l 0.28,0.12 0.96,-0.68 c 3.78664,-2.66664 8.0533,-4.78664 12.8,-6.36 l 0.4,0.6 -2.96,2.04 c -3.70669,1.25336 -7.13336,2.82669 -10.28,4.72 2.74664,1.09335 4.90664,2.45335 6.48,4.08 0.34664,0.34668 0.66664,0.72002 0.96,1.12 l 0.4,0.6 c 1.03997,1.46668 1.5733,3.10668 1.6,4.92 0.0266,1.78667 -0.45336,3.52001 -1.44,5.2 -1.09336,1.89334 -2.41336,3.38667 -3.96,4.48 l -0.04,0 -2.92,2.08 c -2.16002,1.49333 -4.50668,2.24 -7.04,2.24 -1.76001,0 -3.24001,-0.22667 -4.44,-0.68 -1.20001,-0.42667 -2.16001,-1.2 -2.88,-2.32 -0.93334,-1.38667 -1.40001,-2.90667 -1.4,-4.56 -1e-5,-1.68 0.31999,-3.22666 0.96,-4.64 0.66666,-1.41332 1.57332,-2.78666 2.72,-4.12 1.99999,-2.34665 4.23999,-4.46665 6.72,-6.36 m 1.08,0.4 c -1.70668,1.49335 -3.18668,2.98668 -4.44,4.48 -1.78668,2.16001 -2.94668,4.33334 -3.48,6.52 -0.50668,2.18667 -0.25334,4.17334 0.76,5.96 1.11999,1.78667 3.43999,2.68 6.96,2.68 1.81331,0 3.63998,-0.45334 5.48,-1.36 0.95998,-0.90667 1.81331,-2.01333 2.56,-3.32 0.95997,-1.62666 1.43997,-3.30666 1.44,-5.04 -3e-5,-1.73332 -0.46669,-3.33332 -1.4,-4.8 -0.21336,-0.29332 -0.45336,-0.57332 -0.72,-0.84 -1.68002,-1.70665 -4.00002,-3.11998 -6.96,-4.24 l -0.2,-0.04"
         id="path3079" />
      <path
         d="m 916.74597,462.47738 -2.32,-3.28 3.28,-2.28 2.32,3.28 -3.28,2.28 m 0.08,2.76 0.4,0.56 -6.4,24.36 -2.96,2.04 -0.4,-0.6 6.4,-24.32 2.96,-2.04"
         id="path3081" />
      <path
         d="m 882.29236,499.47738 -2.28,-3.24 3.28,-2.32 2.28,3.28 -3.28,2.28 m 8.4,0 -2.32,-3.24 3.28,-2.32 2.32,3.28 -3.28,2.28"
         id="path3083" />
      <path
         d="m 881.05285,471.83738 -0.4,-0.56 c 0.39999,-0.34665 0.81332,-0.66665 1.24,-0.96 l 2.96,-2.08 c 2.87999,-2.02665 6.02665,-3.03998 9.44,-3.04 2.07998,2e-5 3.97331,0.41336 5.68,1.24 1.70664,0.82669 3.07997,1.93335 4.12,3.32 1.75997,2.42668 2.38663,5.08001 1.88,7.96 -0.53337,3.01334 -2.12003,5.65334 -4.76,7.92 -0.40003,0.34667 -0.81336,0.66667 -1.24,0.96 l -2.96,2.08 c -2.90669,2.02666 -6.05335,3.04 -9.44,3.04 -3.62668,0 -6.37334,-1.2 -8.24,-3.6 -1.20001,-1.54667 -1.64,-3.28 -1.32,-5.2 0.29333,-1.65333 1.06666,-3.01333 2.32,-4.08 0.23999,-0.18666 0.47999,-0.37332 0.72,-0.56 l 2.96,-2.08 0.04,0 c 1.94665,-1.35999 4.15998,-2.03999 6.64,-2.04 1.43998,1e-5 2.66665,0.44001 3.68,1.32 l 0.4,0.6 -2.96,2.04 c -1.01335,-0.87999 -2.22668,-1.31999 -3.64,-1.32 -1.76001,1e-5 -3.44001,0.37334 -5.04,1.12 -0.93334,1.01334 -1.52001,2.18667 -1.76,3.52 -0.29334,1.70667 -0.0267,3.12 0.8,4.24 0.77332,1.06667 1.85332,1.89333 3.24,2.48 1.38665,0.58667 2.94665,0.88 4.68,0.88 2.77331,0 5.41331,-0.69333 7.92,-2.08 2.55997,-2.24 4.0933,-4.82666 4.6,-7.76 0.47997,-2.71999 0.0266,-5.05332 -1.36,-7 -0.98669,-1.35998 -2.30669,-2.41332 -3.96,-3.16 -1.65336,-0.77331 -3.49335,-1.15998 -5.52,-1.16 -2.85335,2e-5 -5.57335,0.73335 -8.16,2.2 l -2.56,1.76"
         id="path3085" />
      <path
         d="m 867.13097,479.75738 -1.6,1.12 c -0.74668,0.61334 -1.41334,1.38667 -2,2.32 -0.58668,0.93334 -0.97334,1.92 -1.16,2.96 -0.16001,1.01333 -0.0267,1.8 0.4,2.36 0.53332,0.69333 1.35999,1.04 2.48,1.04 0.55999,0 1.11999,-0.0933 1.68,-0.28 0.98665,-1.09333 1.83998,-2.45333 2.56,-4.08 0.74665,-1.76 1.41332,-3.66666 2,-5.72 0.61331,-2.07999 1.21331,-4.35999 1.8,-6.84 0.58665,-2.47998 1.02665,-4.26665 1.32,-5.36 l 0.8,-2.76 -0.2,0.04 c -1.04002,0.10669 -2.60002,0.16002 -4.68,0.16 -2.08002,-0.0266 -3.92001,0.08 -5.52,0.32 -1.57334,0.21336 -3.08001,0.68002 -4.52,1.4 -1.70667,1.65335 -2.76,3.65335 -3.16,6 -0.4,2.32001 -0.0533,4.36001 1.04,6.12 0.18666,0.24001 0.39999,0.48001 0.64,0.72 l 0.4,0.56 -2.96,2.08 c -0.29334,-0.29333 -0.57334,-0.62666 -0.84,-1 l -0.4,-0.56 c -0.90667,-1.27999 -1.38667,-2.77332 -1.44,-4.48 -0.0267,-1.70665 0.36,-3.37332 1.16,-5 0.82666,-1.62665 1.98666,-2.95998 3.48,-4 l 2.96,-2.08 c 0.0267,-0.0266 0.04,-0.04 0.04,-0.04 0.93332,-0.63998 1.89332,-1.14664 2.88,-1.52 0.98665,-0.39998 2.01332,-0.66664 3.08,-0.8 1.06665,-0.15997 1.99998,-0.25331 2.8,-0.28 0.82665,-0.0533 1.86665,-0.08 3.12,-0.08 1.25331,3e-5 2.23998,-0.0266 2.96,-0.08 1.78664,-5.2533 4.13331,-8.95997 7.04,-11.12 0.08,-0.0533 0.15997,-0.10663 0.24,-0.16 l 2.96,-2.08 c 1.3333,-0.93329 2.63996,-1.41329 3.92,-1.44 1.27996,-0.0266 2.23996,0.41337 2.88,1.32 0.42663,0.61337 0.65329,1.2667 0.68,1.96 0.0266,0.69337 -0.10671,1.3867 -0.4,2.08 -0.29337,0.6667 -0.73337,1.36003 -1.32,2.08 -0.58671,0.69337 -1.25337,1.36003 -2,2 -0.7467,0.64003 -1.57337,1.29336 -2.48,1.96 l -2.96,2.04 -0.04,0.04 c -1.1467,0.80003 -2.3067,1.50669 -3.48,2.12 -0.88003,0.45336 -1.80003,0.82669 -2.76,1.12 l -0.56,1.88 c -0.29336,1.09335 -0.73336,2.88002 -1.32,5.36 -0.58669,2.48001 -1.18669,4.76001 -1.8,6.84 -0.58669,2.05334 -1.25335,3.96001 -2,5.72 -1.06669,2.45333 -2.38668,4.22667 -3.96,5.32 l -0.04,0.04 -2.92,2.04 c -1.04001,0.72 -2.12001,1.08 -3.24,1.08 -1.28001,0 -2.26667,-0.49334 -2.96,-1.48 -0.77334,-1.14667 -0.89334,-2.58667 -0.36,-4.32 0.55999,-1.81333 1.71999,-3.33333 3.48,-4.56 l 0.04,-0.04 2.92,-2.04 c 0.26665,-0.18666 0.55999,-0.38666 0.88,-0.6 l 0.44,0.6 m 12.08,-18.08 0.32,-0.04 c 1.51997,-0.31997 2.94664,-0.82664 4.28,-1.52 0.66664,-0.31997 1.3333,-0.69331 2,-1.12 1.83997,-1.43997 3.19996,-2.91997 4.08,-4.44 0.90663,-1.51997 1.0133,-2.78663 0.32,-3.8 -0.40004,-0.55996 -1.08004,-0.8533 -2.04,-0.88 -0.93337,-0.0266 -1.8667,0.17337 -2.8,0.6 -2.45336,2.3467 -4.50669,6.08003 -6.16,11.2"
         id="path3087" />
      <path
         d="m 800.02775,496.75738 2.96,-2.04 12.24,0 0.4,0.6 -2.96,2.04 -12.2,0 -0.44,-0.6 m 17.84,9.92 -2.28,-3.28 3.28,-2.28 2.28,3.28 -3.28,2.28 m 1.92,-7.2 -2.28,-3.28 3.28,-2.28 2.28,3.28 -3.28,2.28"
         id="path3089" />
      <path
         d="m 806.74785,470.51738 2.96,-2.08 c 1.67999,-1.09331 3.37332,-1.89331 5.08,-2.4 1.70665,-0.53331 3.59998,-0.79998 5.68,-0.8 4.15997,2e-5 7.23997,1.41335 9.24,4.24 l 0.4,0.6 0.04,0.04 c 1.22663,1.76002 1.83997,3.78668 1.84,6.08 -3e-5,1.97334 -0.37337,3.97334 -1.12,6 -0.88003,2.48 -2.3467,5.13333 -4.4,7.96 l -2.92,2.04 -0.44,-0.6 c 2.05331,-2.8 3.51997,-5.44 4.4,-7.92 0.74664,-2.02666 1.11997,-4.02666 1.12,-6 -3e-5,-2.15999 -0.56003,-4.09332 -1.68,-5.8 -2.00003,-2.66665 -5.00002,-3.99998 -9,-4 -2.10669,2e-5 -4.01335,0.26669 -5.72,0.8 -1.70668,0.50668 -3.38668,1.30668 -5.04,2.4 l -0.44,-0.56 m 2.56,0.4 0.44,0.56 -5,18.68 -2.96,2.04 -0.4,-0.6 5,-18.64 2.92,-2.04"
         id="path3091" />
      <path
         d="m 779.27231,502.99738 -2.28,-3.28 3.28,-2.28 2.28,3.24 -3.28,2.32 m 5.72,3.48 -2.28,-3.28 3.28,-2.28 2.28,3.28 -3.28,2.28 m -11.52,-6.96 -2.28,-3.28 3.28,-2.32 2.28,3.28 -3.28,2.32"
         id="path3093" />
      <path
         d="m 780.27285,465.35738 0.44,0.56 12.24,21.76 c 0.39997,-3.01333 0.95997,-5.91999 1.68,-8.72 0.74664,-2.82666 1.79997,-5.65332 3.16,-8.48 1.35997,-2.85331 2.9333,-5.19998 4.72,-7.04 l 2.96,-2.08 0.4,0.6 c -1.94671,2.00002 -3.64004,4.61335 -5.08,7.84 -1.44003,3.20001 -2.52003,6.34668 -3.24,9.44 -0.69336,3.09334 -1.1867,6.24 -1.48,9.44 l -1.84,1.28 0.12,0.16 -2.6,1.76 -0.44,-0.6 -12.88,-22.84 c -0.37335,7.62668 -2.50668,14.86667 -6.4,21.72 l -2.96,2.04 -0.4,-0.6 c 3.99999,-7.01333 6.14666,-14.43999 6.44,-22.28 l 2.72,-1.92 -0.12,-0.28 2.56,-1.76"
         id="path3095" />
      <path
         d="m 751.10173,499.51738 -2.28,-3.28 3.28,-2.32 2.28,3.28 -3.28,2.32"
         id="path3097" />
      <path
         d="m 774.22222,464.91738 -2.28,-3.28 3.28,-2.28 2.28,3.28 -3.28,2.28 m -9.44,21.24 0.4,0.56 c -0.10669,0.10667 -0.22669,0.2 -0.36,0.28 l -2.92,2.04 -0.04,0.04 c -2.53335,1.76 -5.28001,2.64 -8.24,2.64 -1.86668,0 -3.53334,-0.34667 -5,-1.04 -1.46667,-0.72 -2.66667,-1.73333 -3.6,-3.04 -1.78667,-2.56 -2.14667,-5.65333 -1.08,-9.28 0.66666,-2.34666 1.69333,-4.50665 3.08,-6.48 1.38666,-1.99998 3.03999,-3.66665 4.96,-5 l 2.92,-2.08 0.04,0 c 2.45332,-1.70664 5.11998,-2.74664 8,-3.12 1.57331,-0.18664 2.95998,-0.0933 4.16,0.28 1.22664,0.37336 2.17331,1.02669 2.84,1.96 0.53331,0.77336 0.82664,1.66669 0.88,2.68 0.0533,1.01335 -0.13336,1.98669 -0.56,2.92 -0.82669,1.78668 -2.30669,3.42668 -4.44,4.92 l -2.96,2.04 0,0.04 c -0.34669,0.24001 -0.70669,0.46668 -1.08,0.68 -3.94668,2.34667 -8.32001,3.56001 -13.12,3.64 l -0.44,-0.6 2.96,-2.04 c 4.63999,-0.08 8.86665,-1.21332 12.68,-3.4 1.78664,-1.51999 2.93331,-3.19998 3.44,-5.04 0.18664,-0.61332 0.25331,-1.26665 0.2,-1.96 -0.0534,-0.71998 -0.25336,-1.29331 -0.6,-1.72 -1.22669,-1.51998 -3.38669,-2.09331 -6.48,-1.72 -2.29335,0.26669 -4.46668,0.98669 -6.52,2.16 -3.20001,2.72002 -5.40001,6.17335 -6.6,10.36 -1.01334,3.54667 -0.76,6.41334 0.76,8.6 0.82666,1.14667 1.94666,2.04 3.36,2.68 1.43999,0.61333 3.01332,0.92 4.72,0.92 2.82665,0 5.46665,-0.81333 7.92,-2.44 l 0.72,-0.48"
         id="path3099" />
      <path
         d="m 735.14597,479.95738 -0.44,-0.6 3.2,-12.08 2.96,-2.04 0.4,0.56 -3.2,12.08 -2.92,2.08"
         id="path3101" />
      <path
         d="m 705.4991,471.59738 0.4,0.6 c -10e-6,0.26668 -10e-6,0.41335 0,0.44 -0.53334,7.60001 -2.64001,14.72 -6.32,21.36 l -2.92,2.04 -0.44,-0.56 c 3.67999,-6.64 5.78666,-13.75999 6.32,-21.36 -10e-6,-0.0267 -10e-6,-0.18665 0,-0.48 l 2.96,-2.04 m 3,-3.68 0,-0.04 c 2.61332,-1.81331 5.85331,-2.71998 9.72,-2.72 2.61331,2e-5 4.8533,0.48002 6.72,1.44 1.67997,0.85335 3.03997,2.01335 4.08,3.48 1.14663,1.65335 1.71996,3.52001 1.72,5.6 -4e-5,3.60001 -1.52003,7.32 -4.56,11.16 -0.61336,0.77333 -1.21336,1.37333 -1.8,1.8 l -2.92,2.04 -0.04,0.04 c -0.85336,0.58666 -1.81336,0.88 -2.88,0.88 -1.76002,0 -3.32002,-0.34667 -4.68,-1.04 -1.33335,-0.69334 -2.60002,-1.69333 -3.8,-3 -0.34668,-0.4 -0.82668,-1.02667 -1.44,-1.88 -1.14668,-1.65333 -1.98668,-3.63999 -2.52,-5.96 l 2.8,-1.92 0.4,0.56 c 0.47998,2.18667 1.25332,4.08 2.32,5.68 0.26665,0.34667 0.53332,0.66667 0.8,0.96 1.19998,1.33333 2.46665,2.34667 3.8,3.04 1.35998,0.66667 2.91998,1 4.68,1 0.50664,0 0.99997,-0.0533 1.48,-0.16 0.21331,-0.26667 0.35997,-0.45333 0.44,-0.56 3.03997,-3.84 4.55997,-7.55999 4.56,-11.16 -3e-5,-1.99999 -0.48003,-3.65332 -1.44,-4.96 -0.85336,-1.19998 -2.04003,-2.18665 -3.56,-2.96 -1.86669,-0.93331 -4.10669,-1.39998 -6.72,-1.4 -3.09335,2e-5 -5.81335,0.58669 -8.16,1.76 -0.13335,0.13335 -0.26668,0.28002 -0.4,0.44 l -2.96,2.04 -0.4,-0.56 c 0.55999,-0.58665 1.15999,-1.10665 1.8,-1.56 l 2.96,-2.04"
         id="path3103" />
      <path
         d="m 683.85035,491.99738 -2.16,-3.76 3.76,-2.2 2.16,3.8 -3.76,2.16 m 4.48,-10.72 -2.96,2.04 c -0.10668,-0.08 -0.18668,-0.17333 -0.24,-0.28 l -0.44,-0.56 c -0.32001,-0.47999 -0.33335,-1.10666 -0.04,-1.88 0.47999,-1.27999 1.53332,-2.49332 3.16,-3.64 l 2.96,-2.04 0,-0.04 c 0.10665,-0.0533 0.21331,-0.11999 0.32,-0.2 1.33331,-1.14665 1.99998,-2.50665 2,-4.08 -2e-5,-0.71998 -0.17335,-1.38665 -0.52,-2 -1.41335,-1.70665 -3.94668,-2.55998 -7.6,-2.56 -1.65335,2e-5 -3.12001,0.25335 -4.4,0.76 -0.74668,0.90669 -1.22667,2.00002 -1.44,3.28 -0.13334,0.85335 -0.0133,1.61335 0.36,2.28 -1e-5,2e-5 -1e-5,0.0134 0,0.04 l 0.4,0.56 -2.92,2.08 c -0.10667,-0.10665 -0.18667,-0.21332 -0.24,-0.32 l -0.44,-0.56 c -0.50667,-0.74665 -0.68,-1.62665 -0.52,-2.64 0.32,-1.89332 1.23999,-3.37331 2.76,-4.44 l 2.92,-2.04 c 1.57332,-1.09331 3.58665,-1.63998 6.04,-1.64 1.91998,2e-5 3.54665,0.25336 4.88,0.76 1.33331,0.50669 2.30664,1.20002 2.92,2.08 l 0.44,0.6 c 0.47998,0.69335 0.71997,1.46669 0.72,2.32 -3e-5,1.06668 -0.26669,1.97335 -0.8,2.72 -0.50669,0.72001 -1.24002,1.41335 -2.2,2.08 l -2.96,2.08 c -0.10669,0.08 -0.22669,0.16001 -0.36,0.24 -1.04002,0.88001 -1.74668,1.84001 -2.12,2.88 -0.21335,0.58667 -0.25335,1.09334 -0.12,1.52 l 0.04,0 0.4,0.6"
         id="path3105" />
    </g>
    <g
       id="text2997"
       style="font-size:20px;font-style:normal;font-variant:normal;font-weight:normal;font-stretch:normal;text-align:start;line-height:125%;letter-spacing:0px;word-spacing:0px;writing-mode:lr-tb;text-anchor:start;fill:#000000;fill-opacity:1;stroke:none;font-family:Dorian CLM;-inkscape-font-specification:Dorian CLM">
      <path
         d="m 624.78754,518.70256 -0.28,-0.28 c 0.24,-1.17332 0.78666,-2.18666 1.64,-3.04 l 1.42,-1.4 0,-0.02 c 1.17333,-1.15999 2.58666,-1.73999 4.24,-1.74 1.65332,10e-6 3.06665,0.58001 4.24,1.74 l 0.3,0.3 c 1.15998,1.17334 1.73998,2.62668 1.74,4.36 -2e-5,1.17334 -0.15335,2.22667 -0.46,3.16 -0.29335,0.93334 -0.71335,1.84 -1.26,2.72 l -1.42,1.4 -0.28,-0.28 c 1.14665,-1.92 1.71999,-3.92 1.72,-6 -10e-6,-1.57333 -0.54001,-2.93999 -1.62,-4.1 -1.14668,-1.07999 -2.51334,-1.61999 -4.1,-1.62 -1.28001,10e-6 -2.43334,0.37335 -3.46,1.12 -0.49334,0.69334 -0.82667,1.45334 -1,2.28 l -1.42,1.4"
         id="path3108" />
      <path
         d="m 622.34316,509.00256 0.28,0.28 c 0.53333,0.77335 0.8,1.65335 0.8,2.64 0,1.01335 -0.3,1.93335 -0.9,2.76 l -1.4,1.4 -0.28,-0.28 c 0.58667,-0.82666 0.88,-1.74665 0.88,-2.76 0,-0.97332 -0.26667,-1.85332 -0.8,-2.64 l 1.42,-1.4"
         id="path3110" />
      <path
         d="m 608.14504,511.98256 0.28,0.28 0,6.2 -1.4,1.4 -0.28,-0.28 0,-6.2 1.4,-1.4"
         id="path3112" />
      <path
         d="m 591.84285,518.30256 0.28,0.28 c 0.54666,0.85334 0.81333,1.82001 0.8,2.9 0,1.06667 -0.26667,2.06 -0.8,2.98 l -1.46,1.44 -0.28,-0.28 c 0.53333,-0.90667 0.8,-1.89333 0.8,-2.96 0.0133,-1.08 -0.25333,-2.05333 -0.8,-2.92 l 1.46,-1.44 m -1.74,-3.08 1.42,-1.42 c 0.77333,-0.54665 1.58,-0.94665 2.42,-1.2 0.85333,-0.25332 1.81999,-0.37999 2.9,-0.38 2.07999,10e-6 3.74666,0.62001 5,1.86 l 0.28,0.28 c 0.61332,0.61334 1.07332,1.32001 1.38,2.12 0.30665,0.80001 0.45999,1.62001 0.46,2.46 -10e-6,1.77334 -0.59335,3.62667 -1.78,5.56 l -1.42,1.4 -0.28,-0.28 c 1.18665,-1.92 1.77999,-3.77333 1.78,-5.56 -10e-6,-0.79999 -0.14668,-1.58666 -0.44,-2.36 -0.28001,-0.77332 -0.70001,-1.45999 -1.26,-2.06 -1.24001,-1.15999 -2.85334,-1.73999 -4.84,-1.74 -1.09334,10e-6 -2.06667,0.13335 -2.92,0.4 -0.84,0.25334 -1.64667,0.65334 -2.42,1.2 l -0.28,-0.28"
         id="path3114" />
      <path
         d="m 586.93879,511.98256 0.28,0.28 0,12.24 -1.4,1.4 -0.28,-0.28 0,-12.24 1.4,-1.4"
         id="path3116" />
      <path
         d="m 569.71348,513.62256 1.4,-1.4 c 3.91999,0.53335 7.94665,0.53335 12.08,0 l 0.28,0.28 -1.4,1.4 c -0.42668,0.0667 -0.84668,0.12001 -1.26,0.16 l 0.02,0.04 c -0.69335,0.74668 -1.16668,1.74668 -1.42,3 -0.16001,0.74667 -0.24001,1.77334 -0.24,3.08 l 0,4.32 -1.4,1.4 -0.28,-0.28 0,-4.32 c -10e-6,-1.29333 0.0733,-2.31333 0.22,-3.06 0.26665,-1.26666 0.74665,-2.27332 1.44,-3.02 l 1.1,-1.1 c -3.45335,0.33334 -6.87334,0.26001 -10.26,-0.22 l -0.28,-0.28"
         id="path3118" />
      <path
         d="m 556.49129,518.30256 0.28,0.28 c 0.54666,0.85334 0.81333,1.82001 0.8,2.9 -10e-6,1.06667 -0.26667,2.06 -0.8,2.98 l -1.46,1.44 -0.28,-0.28 c 0.53333,-0.90667 0.8,-1.89333 0.8,-2.96 0.0133,-1.08 -0.25334,-2.05333 -0.8,-2.92 l 1.46,-1.44 m -1.74,-3.08 1.42,-1.42 c 0.77333,-0.54665 1.57999,-0.94665 2.42,-1.2 0.85333,-0.25332 1.81999,-0.37999 2.9,-0.38 2.07999,10e-6 3.74665,0.62001 5,1.86 l 0.28,0.28 c 0.61332,0.61334 1.07332,1.32001 1.38,2.12 0.30665,0.80001 0.45998,1.62001 0.46,2.46 -2e-5,1.77334 -0.59335,3.62667 -1.78,5.56 l -1.42,1.4 -0.28,-0.28 c 1.18665,-1.92 1.77998,-3.77333 1.78,-5.56 -2e-5,-0.79999 -0.14668,-1.58666 -0.44,-2.36 -0.28001,-0.77332 -0.70001,-1.45999 -1.26,-2.06 -1.24001,-1.15999 -2.85334,-1.73999 -4.84,-1.74 -1.09334,10e-6 -2.06667,0.13335 -2.92,0.4 -0.84,0.25334 -1.64667,0.65334 -2.42,1.2 l -0.28,-0.28"
         id="path3120" />
      <path
         d="m 530.94441,518.30256 0.28,0.28 c 0.54667,0.85334 0.81333,1.82001 0.8,2.9 0,1.06667 -0.26667,2.06 -0.8,2.98 l -1.46,1.44 -0.28,-0.28 c 0.53333,-0.90667 0.8,-1.89333 0.8,-2.96 0.0133,-1.08 -0.25333,-2.05333 -0.8,-2.92 l 1.46,-1.44 m -1.74,-3.08 1.42,-1.42 c 0.77333,-0.54665 1.58,-0.94665 2.42,-1.2 0.85333,-0.25332 1.82,-0.37999 2.9,-0.38 2.07999,10e-6 3.74666,0.62001 5,1.86 l 0.28,0.28 c 0.61332,0.61334 1.07332,1.32001 1.38,2.12 0.30665,0.80001 0.45999,1.62001 0.46,2.46 -10e-6,1.77334 -0.59334,3.62667 -1.78,5.56 l -1.42,1.4 -0.28,-0.28 c 1.18666,-1.92 1.77999,-3.77333 1.78,-5.56 -10e-6,-0.79999 -0.14668,-1.58666 -0.44,-2.36 -0.28001,-0.77332 -0.70001,-1.45999 -1.26,-2.06 -1.24001,-1.15999 -2.85334,-1.73999 -4.84,-1.74 -1.09334,10e-6 -2.06667,0.13335 -2.92,0.4 -0.84,0.25334 -1.64667,0.65334 -2.42,1.2 l -0.28,-0.28"
         id="path3122" />
      <path
         d="m 516.75348,525.00256 1.42,-1.42 c 0.81332,0.26667 1.71999,0.4 2.72,0.4 1.50665,0 2.82665,-0.40666 3.96,-1.22 0.67998,-0.96 1.01998,-2.03999 1.02,-3.24 -2e-5,-1.55999 -0.51335,-2.88666 -1.54,-3.98 -1.17335,-1.09332 -2.63335,-1.63999 -4.38,-1.64 -1.50668,10e-6 -2.86001,0.32001 -4.06,0.96 l -0.28,-0.28 0,-4.98 1.4,-1.4 0.28,0.28 0,4.54 c 1.14666,-0.53332 2.41332,-0.79999 3.8,-0.8 1.82665,10e-6 3.32665,0.58668 4.5,1.76 l 0.02,0 0.28,0.28 c 1.10665,1.12001 1.65998,2.49334 1.66,4.12 -2e-5,1.57334 -0.54668,2.91334 -1.64,4.02 l -1.42,1.4 c -0.58668,0.6 -1.28668,1.06 -2.1,1.38 -0.81334,0.32 -1.69334,0.48 -2.64,0.48 -1.00001,0 -1.90667,-0.12667 -2.72,-0.38 l -0.28,-0.28"
         id="path3124" />
      <path
         d="m 512.32941,511.98256 0.28,0.28 0,12.24 -1.4,1.4 -0.28,-0.28 0,-12.24 1.4,-1.4"
         id="path3126" />
      <path
         d="m 506.85598,511.98256 0.28,0.28 0,6.2 -1.4,1.4 -0.28,-0.28 0,-6.2 1.4,-1.4"
         id="path3128" />
    </g>
</g>
</svg>
