<?xml version="1.0" encoding="UTF-8" standalone="no"?>
<!-- Created with Inkscape (http://www.inkscape.org/) -->

<svg
   width="100%"
   height="100%"
   viewBox="0 0 217.76364 145.82165"
   version="1.1"
   id="svg5"
   xmlns="http://www.w3.org/2000/svg"
   xmlns:svg="http://www.w3.org/2000/svg">
  <defs
     id="defs2" />
  <g
     id="layer1"
     transform="translate(131.62025,-111.73061)">
    <g
       aria-label="רחל, מתוך &quot;שירים לפעוטות&quot;"
       id="text15803"
       style="font-size:8.46667px;line-height:125%;font-family:Sans;-inkscape-font-specification:'Adobe Helvetica';letter-spacing:0px;word-spacing:0px;direction:rtl;stroke-width:0.264583px">
      <path
         d="m -14.271549,248.76293 c -0.8636,0 -1.6002,0.0423 -2.0574,0.36406 -0.279401,0.19474 -0.499534,0.51647 -0.499534,0.89747 0,0.49107 0.423334,0.8382 0.9144,0.8382 0.575734,0 0.889001,-0.381 1.498601,-0.381 0.702734,0 1.1938,0.34713 1.1938,1.1176 0,0.57573 -0.194733,0.7874 -0.194733,1.397 0,0.66887 0.3048,1.08374 0.880534,1.08374 0.948267,0 1.032933,-1.47321 1.032933,-2.55694 0,-1.55787 -0.516466,-2.76013 -2.768601,-2.76013 z"
         style="font-family:'Gan CLM';-inkscape-font-specification:'Gan CLM'"
         id="path123648" />
      <path
         d="m -21.586749,248.77986 c -0.770467,0 -1.202267,0.46567 -1.202267,1.0922 0,0.3556 0.0508,0.60113 0.143933,0.8636 0.1016,0.29633 0.143934,0.47413 0.143934,0.72813 0,0.55034 -0.118534,0.87207 -0.118534,1.52401 0,0.67733 0.338667,1.143 1.058334,1.143 0.5334,0 0.846667,-0.4572 0.846667,-1.1176 0,-0.52494 -0.270933,-0.93981 -0.270933,-1.55787 0,-0.59267 0.364066,-0.89747 0.8636,-0.89747 0.423333,0 0.7112,0.26247 0.855134,0.6604 0.211666,0.61807 0.0508,1.22767 0.0508,1.64254 0,0.9144 0.160866,1.2954 0.829733,1.2954 0.905934,0 1.049867,-1.3208 1.049867,-2.42994 0,-1.00753 0,-1.93887 -0.677333,-2.4638 -0.474134,-0.3556 -1.176867,-0.3556 -1.947334,-0.3556 -1.024467,0 -1.041401,-0.127 -1.625601,-0.127 z"
         style="font-family:'Gan CLM';-inkscape-font-specification:'Gan CLM'"
         id="path123650" />
      <path
         d="m -28.546333,249.09313 c 0,0.87206 0.313267,1.54093 1.066801,1.54093 0.702733,0 0.931333,-0.23707 1.794934,-0.23707 0.4826,0 0.745067,0.23707 0.745067,0.59267 0,0.47413 -0.3302,0.69427 -0.711201,0.98213 -0.508,0.381 -0.9144,0.82127 -0.9144,1.33774 0,0.4826 0.381,0.8128 0.931334,0.8128 0.651933,0 1.2446,-0.6096 1.718734,-1.41393 0.389467,-0.66041 0.618067,-1.31234 0.618067,-2.22674 0,-0.8382 -0.3302,-1.74413 -1.354668,-1.74413 -0.508,0 -1.1176,0.28786 -1.5748,0.28786 -0.313267,0 -0.5588,-0.19473 -0.5588,-0.49106 0,-0.41487 0.127,-0.5588 0.127,-0.9652 0,-0.4064 -0.389467,-0.6858 -0.787401,-0.67734 -0.508,0.0169 -0.770467,0.19474 -0.931333,0.88054 -0.127,0.508 -0.169334,0.889 -0.169334,1.3208 z"
         style="font-family:'Gan CLM';-inkscape-font-specification:'Gan CLM'"
         id="path123652" />
      <path
         d="m -30.17193,252.16653 c -0.541867,0 -0.948267,0.49953 -0.948267,1.0414 0,0.26247 0.135467,0.49107 0.3302,0.65193 0.09313,0.0762 0.1524,0.14394 0.1524,0.24554 0,0.32173 -0.2032,0.42333 -0.2032,0.8128 0,0.2286 0.2286,0.33866 0.4572,0.33866 0.694267,0 1.244601,-1.016 1.244601,-1.905 0,-0.6604 -0.423334,-1.18533 -1.032934,-1.18533 z"
         style="font-family:'Gan CLM';-inkscape-font-specification:'Gan CLM'"
         id="path123654" />
      <path
         d="m -40.12024,248.76293 c -0.499533,0 -0.795867,0.39793 -0.795867,0.85513 0,0.5334 0.423334,0.8636 0.448734,1.3716 0.04233,0.7366 -0.4826,1.1176 -0.4826,2.0066 0,0.62654 0.2286,1.13454 0.762,1.13454 0.389467,0 0.635,-0.2032 0.821267,-0.508 0.262467,-0.44027 0.313267,-1.11761 0.4064,-1.67641 0.1524,-0.8636 0.448734,-1.50706 1.0922,-1.50706 0.516467,0 0.880534,0.46566 0.880534,0.97366 0,0.66887 -0.2794,0.9144 -0.702734,1.00754 -0.694266,0.16933 -0.9652,0.38947 -0.9652,0.9398 0,0.508 0.4318,0.79587 1.109134,0.79587 1.286934,0 2.023534,-0.9398 2.023534,-2.93794 0,-1.1684 -0.643467,-2.47227 -1.972734,-2.47227 -0.7874,0 -0.753534,0.44027 -1.346201,0.44027 -0.4826,0 -0.6604,-0.42333 -1.278467,-0.42333 z"
         style="font-family:'Gan CLM';-inkscape-font-specification:'Gan CLM'"
         id="path123656" />
      <path
         d="m -46.808897,249.76199 c 0,0.2794 0.1016,0.56727 0.321734,0.8382 0.2286,0.29634 0.381,0.60114 0.381,1.02447 0,0.4318 -0.211667,0.6858 -0.753534,0.80433 -0.321733,0.0762 -0.668867,0.32174 -0.668867,0.85514 0,0.254 0.09313,0.47413 0.347134,0.64347 0.194733,0.13546 0.4826,0.16933 0.8636,0.16933 1.007534,0 1.574801,-0.8636 1.574801,-1.59174 0,-0.39793 -0.04233,-0.67733 -0.04233,-1.1176 0,-0.51646 0.1778,-1.08373 0.855134,-1.08373 0.524933,0 0.7112,0.5334 0.7112,1.016 0,0.6858 -0.160867,1.08373 -0.160867,1.76954 0,0.5842 0.254001,1.02446 0.914401,1.02446 0.7112,0 1.007534,-0.54186 1.007534,-1.0922 0,-0.4064 -0.0508,-0.635 -0.06773,-1.04987 -0.04233,-0.5842 0.01693,-0.93133 -0.0762,-1.51553 -0.245533,-1.49013 -1.134534,-1.5494 -2.167467,-1.5494 -0.855134,0 -1.270001,-0.18627 -1.744134,-0.18627 -0.889001,0 -1.295401,0.4318 -1.295401,1.0414 z"
         style="font-family:'Gan CLM';-inkscape-font-specification:'Gan CLM'"
         id="path123658" />
      <path
         d="m -49.213415,248.77986 c -0.694267,0 -1.016,0.56727 -1.016,1.08373 0,0.5842 0.287866,0.85514 0.321733,1.778 0.0254,0.57574 -0.03387,0.92287 0.0085,1.49861 0.03387,0.44873 0.160867,0.9398 0.821267,0.9398 0.508,0 0.753533,-0.44027 0.8636,-0.93134 0.143934,-0.65193 0.1778,-1.27 0.1778,-1.93887 0,-0.49106 -0.01693,-1.17686 -0.1778,-1.651 -0.160867,-0.47413 -0.4826,-0.77893 -0.999067,-0.77893 z"
         style="font-family:'Gan CLM';-inkscape-font-specification:'Gan CLM'"
         id="path123660" />
      <path
         d="m -55.961334,250.11759 c 0,0.57574 0.465667,0.89747 0.990601,0.89747 0.635,0 1.0668,-0.44873 1.693334,-0.44873 0.702733,0 1.0414,0.49953 1.0414,1.49013 0,1.31234 -0.237067,1.86267 -0.3556,2.75167 -0.1016,0.77893 -0.09313,1.74413 0.9144,1.74413 0.541867,0 0.939801,-0.33866 0.939801,-1.143 0,-0.94826 -0.135467,-1.30386 -0.118534,-2.37913 0.0085,-0.7112 0.08467,-1.0668 0.08467,-1.7526 0,-0.7366 -0.220133,-1.38854 -0.6604,-1.78647 -0.626534,-0.5588 -1.295401,-0.71967 -2.082801,-0.71967 -0.770467,0 -1.346201,0.13547 -1.888067,0.44874 -0.364067,0.21166 -0.558801,0.49106 -0.558801,0.89746 z"
         style="font-family:'Gan CLM';-inkscape-font-specification:'Gan CLM'"
         id="path123662" />
      <path
         d="m -61.015913,248.15333 c -0.7112,0 -0.982133,0.90593 -0.982133,1.6256 0,0.34713 0.186266,0.4826 0.508,0.4826 0.499533,0 1.210734,-0.72814 1.210734,-1.45627 0,-0.44027 -0.347134,-0.65193 -0.736601,-0.65193 z m -1.947334,0 c -0.7112,0 -0.982134,0.90593 -0.982134,1.6256 0,0.34713 0.186267,0.4826 0.508001,0.4826 0.499533,0 1.210733,-0.72814 1.210733,-1.45627 0,-0.44027 -0.347133,-0.65193 -0.7366,-0.65193 z"
         style="font-family:'Gan CLM';-inkscape-font-specification:'Gan CLM'"
         id="path123664" />
      <path
         d="m -70.388499,248.75446 c -0.508001,0 -0.905934,0.34713 -0.905934,1.27847 0,0.82973 0.135467,1.87113 0.7112,2.794 0.618067,0.98213 1.507068,1.3462 2.650068,1.3462 0.931334,0 1.778001,-0.27093 2.548468,-1.27847 0.626533,-0.8128 0.931333,-1.91347 0.931333,-2.90407 0,-0.77046 -0.296333,-1.2446 -0.897467,-1.2446 -0.821267,0 -1.159933,0.92287 -1.159933,1.7272 0,0.93134 -0.508001,2.28601 -1.659468,2.16747 -0.220133,-0.0169 -0.397933,-0.13547 -0.397933,-0.381 0,-0.16933 0.118533,-0.32173 0.313267,-0.41487 0.254,-0.11853 0.524933,-0.3048 0.745067,-0.54186 0.287866,-0.32174 0.550333,-0.99907 0.550333,-1.69334 0,-0.4826 -0.381,-0.8636 -0.982134,-0.8636 -0.8382,0 -0.9144,0.8382 -0.948267,1.524 -0.01693,0.28787 -0.0762,0.62654 -0.338667,0.62654 -0.220133,0 -0.3302,-0.254 -0.338666,-0.51647 -0.0085,-0.2794 0.0254,-0.4318 0.01693,-0.71967 -0.01693,-0.56726 -0.3556,-0.90593 -0.8382,-0.90593 z"
         style="font-family:'Gan CLM';-inkscape-font-specification:'Gan CLM'"
         id="path123666" />
      <path
         d="m -72.818421,248.81373 c -0.491067,0 -0.711201,0.2286 -0.795867,0.57573 -0.06773,0.26247 -0.08467,0.55033 -0.08467,0.8636 0,0.47413 0.0508,0.87207 0.194733,1.1938 0.135467,0.32173 0.448734,0.47413 0.762001,0.47413 0.440267,0 0.694267,-0.23706 0.8128,-0.635 0.110067,-0.38946 0.127,-0.762 0.127,-1.1938 0,-0.3556 -0.04233,-0.70273 -0.211667,-0.92286 -0.211666,-0.27094 -0.465666,-0.3556 -0.804333,-0.3556 z"
         style="font-family:'Gan CLM';-inkscape-font-specification:'Gan CLM'"
         id="path123668" />
      <path
         d="m -76.975551,248.76293 c -0.8636,0 -1.600201,0.0423 -2.057401,0.36406 -0.2794,0.19474 -0.499533,0.51647 -0.499533,0.89747 0,0.49107 0.423333,0.8382 0.9144,0.8382 0.575734,0 0.889,-0.381 1.498601,-0.381 0.702733,0 1.1938,0.34713 1.1938,1.1176 0,0.57573 -0.194733,0.7874 -0.194733,1.397 0,0.66887 0.3048,1.08374 0.880533,1.08374 0.948267,0 1.032934,-1.47321 1.032934,-2.55694 0,-1.55787 -0.516467,-2.76013 -2.768601,-2.76013 z"
         style="font-family:'Gan CLM';-inkscape-font-specification:'Gan CLM'"
         id="path123670" />
      <path
         d="m -81.056474,248.81373 c -0.491066,0 -0.7112,0.2286 -0.795867,0.57573 -0.06773,0.26247 -0.08467,0.55033 -0.08467,0.8636 0,0.47413 0.0508,0.87207 0.194733,1.1938 0.135467,0.32173 0.448734,0.47413 0.762,0.47413 0.440267,0 0.694267,-0.23706 0.812801,-0.635 0.110066,-0.38946 0.127,-0.762 0.127,-1.1938 0,-0.3556 -0.04233,-0.70273 -0.211667,-0.92286 -0.211667,-0.27094 -0.465667,-0.3556 -0.804334,-0.3556 z"
         style="font-family:'Gan CLM';-inkscape-font-specification:'Gan CLM'"
         id="path123672" />
      <path
         d="m -85.24746,250.30386 c 0.516467,0 0.770467,0.0423 1.016,0.2794 0.2286,0.2032 0.3302,0.4572 0.3302,0.95673 0,0.55034 -0.347133,0.94827 -1.032933,0.94827 -0.719667,0 -0.914401,-0.77047 -0.914401,-1.43087 0,-0.381 0.160867,-0.75353 0.601134,-0.75353 z m -1.693334,-1.50707 c -0.440267,0 -0.795867,0.49107 -0.795867,0.8128 0,0.381 0.160866,0.55034 0.338667,0.80434 0.254,0.3556 0.2794,0.82126 0.220133,1.54093 -0.03387,0.4572 -0.127,0.75354 -0.127,1.15994 0,0.54186 0.372533,1.00753 0.931334,1.00753 0.6604,0 1.016,-0.13547 1.6764,-0.13547 0.567267,0 0.880534,0.1016 1.439334,0.1016 0.389467,0 0.6604,-0.31326 0.694267,-0.70273 0.0762,-0.70274 0.110067,-1.30387 0.110067,-2.14207 0,-0.82973 0.04233,-1.40547 -0.440267,-1.88807 -0.575734,-0.5842 -1.261534,-0.4064 -2.108201,-0.4064 -0.753533,0 -1.2192,-0.1524 -1.938867,-0.1524 z"
         style="font-family:'Gan CLM';-inkscape-font-specification:'Gan CLM'"
         id="path123674" />
      <path
         d="m -97.295505,249.09313 c 0,0.87206 0.313267,1.54093 1.0668,1.54093 0.702734,0 0.931334,-0.23707 1.794935,-0.23707 0.4826,0 0.745067,0.23707 0.745067,0.59267 0,0.47413 -0.330201,0.69427 -0.711201,0.98213 -0.508,0.381 -0.9144,0.82127 -0.9144,1.33774 0,0.4826 0.381,0.8128 0.931334,0.8128 0.651933,0 1.2446,-0.6096 1.718734,-1.41393 0.389466,-0.66041 0.618066,-1.31234 0.618066,-2.22674 0,-0.8382 -0.3302,-1.74413 -1.354667,-1.74413 -0.508,0 -1.1176,0.28786 -1.5748,0.28786 -0.313267,0 -0.558801,-0.19473 -0.558801,-0.49106 0,-0.41487 0.127,-0.5588 0.127,-0.9652 0,-0.4064 -0.389466,-0.6858 -0.7874,-0.67734 -0.508,0.0169 -0.770467,0.19474 -0.931334,0.88054 -0.127,0.508 -0.169333,0.889 -0.169333,1.3208 z"
         style="font-family:'Gan CLM';-inkscape-font-specification:'Gan CLM'"
         id="path123676" />
      <path
         d="m -100.50437,248.74599 c -1.4224,0 -2.20134,0.7112 -2.20134,1.74414 0,0.82973 0.5842,1.23613 1.32927,1.23613 0.46567,0 0.6858,-0.254 0.6858,-0.55033 0,-0.2286 -0.18627,-0.3556 -0.18627,-0.56727 0,-0.24553 0.32174,-0.381 0.55034,-0.381 0.24553,0 0.499531,0.127 0.702731,0.3048 0.194733,0.16933 0.338667,0.4064 0.338667,0.635 0,0.51647 -0.381,0.89747 -0.838198,1.05833 -0.5588,0.2032 -0.92287,0.1016 -1.53247,0.1016 -0.66887,0 -1.0414,0.18627 -1.03293,0.62654 0,0.8382 0.84666,1.1684 1.96426,1.1684 0.846671,0 1.524004,-0.26247 2.150538,-0.88053 0.6096,-0.59267 0.770467,-1.27001 0.770467,-1.97274 0,-0.66887 -0.160867,-1.1938 -0.524934,-1.651 -0.465666,-0.57573 -1.1938,-0.87207 -2.175931,-0.87207 z"
         style="font-family:'Gan CLM';-inkscape-font-specification:'Gan CLM'"
         id="path123678" />
      <path
         d="m -107.6079,248.76293 c -0.5842,0 -0.88053,0.4826 -0.88053,0.95673 0,0.90593 0.66886,1.66793 0.762,2.2098 0.0508,0.29633 -0.1016,0.4826 -0.3302,0.57573 -0.3048,0.11007 -0.71967,0.22014 -0.71967,0.77894 0,0.57573 0.60113,0.87207 1.9812,0.87207 2.12513,0 3.5814,-1.4224 3.5814,-4.00474 0,-0.65193 -0.16933,-1.40547 -0.93133,-1.40547 -0.56727,0 -0.8636,0.5334 -0.85514,1.0922 0.008,0.98214 -0.1016,2.3876 -0.82973,2.3876 -0.37253,0 -0.5588,-0.41486 -0.5588,-0.74506 0,-0.49954 -0.008,-0.9398 -0.11853,-1.46474 -0.13547,-0.62653 -0.44027,-1.25306 -1.10067,-1.25306 z"
         style="font-family:'Gan CLM';-inkscape-font-specification:'Gan CLM'"
         id="path123680" />
      <path
         d="m -110.46115,248.77986 c -0.69427,0 -1.01601,0.56727 -1.01601,1.08373 0,0.5842 0.28787,0.85514 0.32174,1.778 0.0254,0.57574 -0.0339,0.92287 0.008,1.49861 0.0339,0.44873 0.16086,0.9398 0.82126,0.9398 0.508,0 0.75354,-0.44027 0.8636,-0.93134 0.14394,-0.65193 0.1778,-1.27 0.1778,-1.93887 0,-0.49106 -0.0169,-1.17686 -0.1778,-1.651 -0.16086,-0.47413 -0.4826,-0.77893 -0.99906,-0.77893 z"
         style="font-family:'Gan CLM';-inkscape-font-specification:'Gan CLM'"
         id="path123682" />
      <path
         d="m -116.13381,248.77139 c -0.8128,0 -1.03294,1.00754 -1.03294,1.71874 0,1.02446 0.1016,1.778 0.44874,2.4384 0.42333,0.82127 1.18533,1.22767 2.17593,1.22767 1.59173,0 2.55693,-1.52401 2.55693,-3.09881 0,-1.10066 -0.60113,-2.3114 -1.63406,-2.3114 -0.7366,0 -1.25307,0.6858 -1.25307,1.4478 0,0.38947 0.127,0.62654 0.42333,0.62654 0.27094,0 0.34714,-0.23707 0.60114,-0.23707 0.2794,0 0.36406,0.3302 0.36406,0.60113 0,0.64347 -0.33866,1.31234 -0.97366,1.31234 -0.87207,0 -1.1176,-0.70274 -1.1176,-1.36314 0,-0.60113 0.22013,-0.9144 0.22013,-1.51553 0,-0.508 -0.33867,-0.84667 -0.77893,-0.84667 z"
         style="font-family:'Gan CLM';-inkscape-font-specification:'Gan CLM'"
         id="path123684" />
      <path
         d="m -118.8516,248.77986 c -0.69427,0 -1.016,0.56727 -1.016,1.08373 0,0.5842 0.28786,0.85514 0.32173,1.778 0.0254,0.57574 -0.0339,0.92287 0.008,1.49861 0.0339,0.44873 0.16086,0.9398 0.82126,0.9398 0.508,0 0.75354,-0.44027 0.8636,-0.93134 0.14394,-0.65193 0.1778,-1.27 0.1778,-1.93887 0,-0.49106 -0.0169,-1.17686 -0.1778,-1.651 -0.16086,-0.47413 -0.4826,-0.77893 -0.99906,-0.77893 z"
         style="font-family:'Gan CLM';-inkscape-font-specification:'Gan CLM'"
         id="path123686" />
      <path
         d="m -125.72653,249.76199 c 0,0.2794 0.1016,0.56727 0.32174,0.8382 0.2286,0.29634 0.381,0.60114 0.381,1.02447 0,0.4318 -0.21167,0.6858 -0.75354,0.80433 -0.32173,0.0762 -0.66886,0.32174 -0.66886,0.85514 0,0.254 0.0931,0.47413 0.34713,0.64347 0.19473,0.13546 0.4826,0.16933 0.8636,0.16933 1.00753,0 1.5748,-0.8636 1.5748,-1.59174 0,-0.39793 -0.0423,-0.67733 -0.0423,-1.1176 0,-0.51646 0.1778,-1.08373 0.85513,-1.08373 0.52494,0 0.7112,0.5334 0.7112,1.016 0,0.6858 -0.16086,1.08373 -0.16086,1.76954 0,0.5842 0.254,1.02446 0.9144,1.02446 0.7112,0 1.00753,-0.54186 1.00753,-1.0922 0,-0.4064 -0.0508,-0.635 -0.0677,-1.04987 -0.0423,-0.5842 0.0169,-0.93133 -0.0762,-1.51553 -0.24554,-1.49013 -1.13454,-1.5494 -2.16747,-1.5494 -0.85513,0 -1.27,-0.18627 -1.74414,-0.18627 -0.889,0 -1.2954,0.4318 -1.2954,1.0414 z"
         style="font-family:'Gan CLM';-inkscape-font-specification:'Gan CLM'"
         id="path123688" />
      <path
         d="m -127.69078,248.15333 c -0.7112,0 -0.98213,0.90593 -0.98213,1.6256 0,0.34713 0.18627,0.4826 0.508,0.4826 0.49953,0 1.21073,-0.72814 1.21073,-1.45627 0,-0.44027 -0.34713,-0.65193 -0.7366,-0.65193 z m -1.94733,0 c -0.7112,0 -0.98214,0.90593 -0.98214,1.6256 0,0.34713 0.18627,0.4826 0.50801,0.4826 0.49953,0 1.21073,-0.72814 1.21073,-1.45627 0,-0.44027 -0.34713,-0.65193 -0.7366,-0.65193 z"
         style="font-family:'Gan CLM';-inkscape-font-specification:'Gan CLM'"
         id="path123690" />
    </g>
    <g
       id="g123397"
       transform="translate(-9.4821882)">
      <g
         aria-label="הנה &quot;צהבהב&quot; ואמא - שם,
&quot;לבנון&quot; רוצה להיות איתם.

"
         id="text1463"
         style="font-size:16.9333px;line-height:120%;font-family:Sans;-inkscape-font-specification:'Adobe Helvetica';letter-spacing:0px;word-spacing:0px;direction:rtl;stroke-width:0.264583px">
        <path
           d="m 86.362112,119.31766 c -1.066798,0 -1.845729,1.0668 -1.845729,2.794 0,1.20226 0.101599,2.59079 1.64253,2.59079 1.507063,0 1.913463,-1.524 1.913463,-2.87866 0,-1.25306 -0.287867,-2.50613 -1.710264,-2.50613 z m -0.186266,-5.33399 c -1.219198,0 -1.930396,0.72813 -1.930396,1.6764 0,1.27 1.236131,1.81186 2.692394,1.81186 0.761999,0 1.219198,-0.1016 1.94733,-0.1016 1.59173,0 2.252129,0.93133 2.252129,2.47226 0,1.0668 -0.08467,1.69333 -0.08467,2.70933 0,1.10067 0.474133,2.21826 1.727197,2.21826 1.761063,0 1.84573,-2.38759 1.84573,-4.09785 0,-2.76013 -0.08467,-6.43466 -3.894659,-6.43466 h -1.523997 c -1.269998,0 -1.84573,-0.254 -3.031061,-0.254 z"
           style="font-family:'Gan CLM';-inkscape-font-specification:'Gan CLM'"
           id="path123551" />
        <path
           d="m 77.506004,115.69394 c 0,1.32079 1.083732,1.67639 1.811863,2.16746 0.660399,0.4572 0.999065,0.9652 0.863599,2.28599 -0.06773,0.57574 -0.423333,1.0668 -0.982132,1.0668 -0.778931,0 -1.134531,-0.22013 -1.862663,-0.22013 -0.761998,0 -1.74413,0.6096 -1.74413,1.76106 0,1.2192 0.965199,1.91346 2.065863,1.91346 1.185331,0 2.235196,-0.18626 3.674526,-0.18626 1.066798,0 1.523997,-0.9144 1.659464,-1.89653 0.135466,-0.98213 0.237066,-2.21826 0.237066,-3.28506 0,-3.52213 -1.303864,-5.36786 -3.962392,-5.36786 -0.999065,0 -1.761064,0.77893 -1.761064,1.76107 z"
           style="font-family:'Gan CLM';-inkscape-font-specification:'Gan CLM'"
           id="path123553" />
        <path
           d="m 66.313116,119.31766 c -1.066798,0 -1.845729,1.0668 -1.845729,2.794 0,1.20226 0.101599,2.59079 1.64253,2.59079 1.507063,0 1.913463,-1.524 1.913463,-2.87866 0,-1.25306 -0.287867,-2.50613 -1.710264,-2.50613 z m -0.186266,-5.33399 c -1.219198,0 -1.930396,0.72813 -1.930396,1.6764 0,1.27 1.236131,1.81186 2.692394,1.81186 0.761999,0 1.219198,-0.1016 1.94733,-0.1016 1.59173,0 2.252129,0.93133 2.252129,2.47226 0,1.0668 -0.08467,1.69333 -0.08467,2.70933 0,1.10067 0.474133,2.21826 1.727197,2.21826 1.761063,0 1.84573,-2.38759 1.84573,-4.09785 0,-2.76013 -0.08467,-6.43466 -3.894659,-6.43466 h -1.523997 c -1.269998,0 -1.84573,-0.254 -3.031061,-0.254 z"
           style="font-family:'Gan CLM';-inkscape-font-specification:'Gan CLM'"
           id="path123555" />
        <path
           d="m 54.087327,112.73061 c -1.422397,0 -1.964262,1.81186 -1.964262,3.25119 0,0.69427 0.372532,0.9652 1.015998,0.9652 0.999064,0 2.421462,-1.45626 2.421462,-2.91253 0,-0.88053 -0.694266,-1.30386 -1.473198,-1.30386 z m -3.894659,0 c -1.422397,0 -1.964262,1.81186 -1.964262,3.25119 0,0.69427 0.372532,0.9652 1.015998,0.9652 0.999064,0 2.421462,-1.45626 2.421462,-2.91253 0,-0.88053 -0.694266,-1.30386 -1.473198,-1.30386 z"
           style="font-family:'Gan CLM';-inkscape-font-specification:'Gan CLM'"
           id="path123557" />
        <path
           d="m 39.067517,113.88207 c -1.032931,0 -1.659463,0.9144 -1.659463,1.86267 0,1.03293 0.338666,1.72719 1.253064,2.31986 0.677332,0.4572 1.286931,0.762 2.150529,1.2192 0.592665,0.30479 1.219198,0.76199 1.219198,1.33773 0,0.38946 -0.254,0.66039 -0.745066,0.66039 -1.168397,0 -1.28693,-0.57573 -2.523061,-0.49106 -1.015998,0.0847 -1.523997,0.9144 -1.523997,1.84573 0,1.1176 0.761998,2.06586 2.421462,2.06586 1.43933,0 2.895594,-0.3048 4.77519,-0.3048 1.557864,0 2.506129,-0.6604 2.506129,-1.89653 0,-1.74413 -1.151465,-1.79493 -1.253065,-3.18346 -0.152399,-1.71026 1.371598,-1.87959 1.523997,-3.40359 0.118533,-1.30387 -0.507999,-1.99813 -1.473197,-1.99813 -1.608663,0 -2.252129,1.23613 -2.421462,2.62466 -0.0508,0.49107 -0.287866,0.74507 -0.694265,0.74507 -0.626532,0 -1.066798,-1.04987 -1.456264,-1.91347 -0.440266,-0.93133 -0.999064,-1.49013 -2.099729,-1.49013 z"
           style="font-family:'Gan CLM';-inkscape-font-specification:'Gan CLM'"
           id="path123559" />
        <path
           d="m 27.959295,119.31766 c -1.066797,0 -1.845729,1.0668 -1.845729,2.794 0,1.20226 0.1016,2.59079 1.64253,2.59079 1.507064,0 1.913463,-1.524 1.913463,-2.87866 0,-1.25306 -0.287866,-2.50613 -1.710264,-2.50613 z m -0.186266,-5.33399 c -1.219197,0 -1.930396,0.72813 -1.930396,1.6764 0,1.27 1.236131,1.81186 2.692395,1.81186 0.761998,0 1.219197,-0.1016 1.947329,-0.1016 1.59173,0 2.252129,0.93133 2.252129,2.47226 0,1.0668 -0.08467,1.69333 -0.08467,2.70933 0,1.10067 0.474132,2.21826 1.727196,2.21826 1.761063,0 1.84573,-2.38759 1.84573,-4.09785 0,-2.76013 -0.08467,-6.43466 -3.894659,-6.43466 H 30.80409 c -1.269998,0 -1.84573,-0.254 -3.031061,-0.254 z"
           style="font-family:'Gan CLM';-inkscape-font-specification:'Gan CLM'"
           id="path123561" />
        <path
           d="m 19.18785,113.86514 c -2.472262,0 -4.504258,0.94826 -4.504258,2.43839 0,1.13454 0.846665,1.5748 1.777996,1.5748 1.371598,0 1.422397,-0.37253 2.370662,-0.37253 1.253064,0 2.133596,0.77893 2.133596,1.87959 0,0.99907 -0.745065,1.64253 -1.64253,1.64253 -0.812798,0 -1.371597,-0.0508 -2.252129,-0.0508 -1.320797,0 -2.709328,0.64346 -2.709328,1.93039 0,1.23613 0.795865,1.778 1.777997,1.778 1.354664,0 2.709328,-0.44027 4.148658,-0.44027 1.049865,0 1.608664,0.27093 2.658528,0.27093 1.151465,0 1.879596,-0.72813 1.879596,-1.72719 0,-0.6604 -0.135466,-1.10067 -0.592665,-1.6764 -0.575732,-0.72813 -0.677332,-1.40546 -0.626532,-2.50613 0.08467,-1.26999 -0.01693,-2.42146 -0.863598,-3.33586 -0.846665,-0.93133 -2.065863,-1.40546 -3.555993,-1.40546 z"
           style="font-family:'Gan CLM';-inkscape-font-specification:'Gan CLM'"
           id="path123563" />
        <path
           d="m 5.0824492,119.31766 c -1.0667979,0 -1.8457297,1.0668 -1.8457297,2.794 0,1.20226 0.1015998,2.59079 1.6425301,2.59079 1.5070637,0 1.9134629,-1.524 1.9134629,-2.87866 0,-1.25306 -0.2878661,-2.50613 -1.7102633,-2.50613 z m -0.1862663,-5.33399 c -1.2191976,0 -1.9303962,0.72813 -1.9303962,1.6764 0,1.27 1.2361309,1.81186 2.6923947,1.81186 0.7619985,0 1.2191976,-0.1016 1.9473295,-0.1016 1.5917302,0 2.2521289,0.93133 2.2521289,2.47226 0,1.0668 -0.084666,1.69333 -0.084666,2.70933 0,1.10067 0.4741332,2.21826 1.7271972,2.21826 1.761063,0 1.84573,-2.38759 1.84573,-4.09785 0,-2.76013 -0.08467,-6.43466 -3.8946599,-6.43466 h -1.523997 c -1.2699975,0 -1.8457297,-0.254 -3.0310612,-0.254 z"
           style="font-family:'Gan CLM';-inkscape-font-specification:'Gan CLM'"
           id="path123565" />
        <path
           d="m -3.6889891,113.86514 c -2.4722618,0 -4.5042578,0.94826 -4.5042578,2.43839 0,1.13454 0.846665,1.5748 1.7779965,1.5748 1.3715973,0 1.4223972,-0.37253 2.370662,-0.37253 1.2530642,0 2.1335958,0.77893 2.1335958,1.87959 0,0.99907 -0.7450652,1.64253 -1.6425301,1.64253 -0.8127984,0 -1.3715973,-0.0508 -2.2521289,-0.0508 -1.3207974,0 -2.709328,0.64346 -2.709328,1.93039 0,1.23613 0.7958651,1.778 1.7779965,1.778 1.354664,0 2.709328,-0.44027 4.1486585,-0.44027 1.0498646,0 1.60866348,0.27093 2.65852808,0.27093 1.15146442,0 1.87959632,-0.72813 1.87959632,-1.72719 0,-0.6604 -0.1354664,-1.10067 -0.5926655,-1.6764 -0.57573221,-0.72813 -0.67733201,-1.40546 -0.62653211,-2.50613 0.0846665,-1.26999 -0.0169333,-2.42146 -0.86359831,-3.33586 -0.846665,-0.93133 -2.06586258,-1.40546 -3.55599298,-1.40546 z"
           style="font-family:'Gan CLM';-inkscape-font-specification:'Gan CLM'"
           id="path123567" />
        <path
           d="m -11.004141,112.73061 c -1.422398,0 -1.964263,1.81186 -1.964263,3.25119 0,0.69427 0.372532,0.9652 1.015998,0.9652 0.999065,0 2.4214618,-1.45626 2.4214618,-2.91253 0,-0.88053 -0.6942658,-1.30386 -1.4731968,-1.30386 z m -3.894659,0 c -1.422398,0 -1.964263,1.81186 -1.964263,3.25119 0,0.69427 0.372532,0.9652 1.015998,0.9652 0.999065,0 2.421462,-1.45626 2.421462,-2.91253 0,-0.88053 -0.694266,-1.30386 -1.473197,-1.30386 z"
           style="font-family:'Gan CLM';-inkscape-font-specification:'Gan CLM'"
           id="path123569" />
        <path
           d="m -27.852735,113.98367 c -1.38853,0 -2.031996,1.13453 -2.031996,2.16746 0,1.1684 0.575733,1.71027 0.643466,3.556 0.0508,1.15146 -0.06773,1.84573 0.01693,2.99719 0.06773,0.89747 0.321733,1.8796 1.64253,1.8796 1.015998,0 1.507064,-0.88053 1.727197,-1.86267 0.287866,-1.30386 0.355599,-2.53999 0.355599,-3.87772 0,-0.98213 -0.03387,-2.35373 -0.355599,-3.30199 -0.321733,-0.94827 -0.965198,-1.55787 -1.99813,-1.55787 z"
           style="font-family:'Gan CLM';-inkscape-font-specification:'Gan CLM'"
           id="path123571" />
        <path
           d="m -39.502819,114.06834 c -0.897465,0 -1.523997,0.69426 -1.523997,1.5748 0,0.45719 0.08467,0.72813 0.287866,1.13453 0.254,0.57573 0.440266,0.93133 0.440266,1.59173 0,0.88053 -0.169333,1.64253 -0.440266,2.18439 -0.372532,0.72813 -0.660399,1.1684 -0.660399,1.96427 0,1.30386 0.694266,2.21826 2.218263,2.21826 1.117598,0 1.811863,-0.44027 1.811863,-1.1684 0,-0.47413 -0.169333,-0.762 -0.389466,-1.20226 -0.1524,-0.27094 -0.321733,-0.57574 -0.321733,-0.94827 0,-0.44026 0.237066,-0.72813 0.626532,-0.72813 0.745066,0 2.015063,1.1176 2.726262,2.31986 0.423332,0.72813 1.049864,1.5748 1.930396,1.5748 0.982131,0 1.422397,-0.52493 1.422397,-1.28693 0,-0.54187 -0.169333,-0.9144 -0.406399,-1.45627 -0.270933,-0.57573 -0.423333,-1.01599 -0.423333,-1.62559 0,-0.72814 0.254,-1.35467 0.660399,-2.15053 0.304799,-0.59267 0.643465,-1.4224 0.643465,-1.9812 0,-0.54186 -0.237066,-1.04986 -0.592665,-1.3716 -0.592666,-0.52493 -1.134531,-0.77893 -1.69333,-0.77893 -0.846665,0 -1.388531,0.67733 -1.388531,1.33773 0,0.33867 0.06773,0.67733 0.2032,0.99907 0.135466,0.37253 0.287866,0.62653 0.287866,1.04986 0,0.4572 -0.253999,0.9144 -0.711199,0.9144 -0.524932,0 -0.982131,-0.47413 -1.981196,-1.9304 -0.846665,-1.21919 -1.354664,-2.23519 -2.726261,-2.23519 z"
           style="font-family:'Gan CLM';-inkscape-font-specification:'Gan CLM'"
           id="path123573" />
        <path
           d="m -51.610094,113.94981 c -0.999065,0 -1.59173,0.79586 -1.59173,1.71026 0,1.0668 0.846665,1.7272 0.897465,2.74319 0.08467,1.4732 -0.965198,2.2352 -0.965198,4.0132 0,1.25306 0.457199,2.26906 1.523997,2.26906 0.778932,0 1.269997,-0.4064 1.64253,-1.016 0.524932,-0.88053 0.626532,-2.2352 0.812798,-3.35279 0.3048,-1.7272 0.897465,-3.01413 2.184396,-3.01413 1.032931,0 1.761063,0.93133 1.761063,1.94733 0,1.33773 -0.558799,1.82879 -1.405464,2.01506 -1.38853,0.33867 -1.930396,0.77893 -1.930396,1.8796 0,1.016 0.863598,1.59173 2.218262,1.59173 2.573862,0 4.047059,-1.8796 4.047059,-5.87586 0,-2.33679 -1.286931,-4.94452 -3.945459,-4.94452 -1.574797,0 -1.507064,0.88053 -2.692395,0.88053 -0.965198,0 -1.320797,-0.84666 -2.556928,-0.84666 z"
           style="font-family:'Gan CLM';-inkscape-font-specification:'Gan CLM'"
           id="path123575" />
        <path
           d="m -62.887646,114.06834 c -0.897464,0 -1.523997,0.69426 -1.523997,1.5748 0,0.45719 0.08467,0.72813 0.287867,1.13453 0.253999,0.57573 0.440265,0.93133 0.440265,1.59173 0,0.88053 -0.169333,1.64253 -0.440265,2.18439 -0.372533,0.72813 -0.660399,1.1684 -0.660399,1.96427 0,1.30386 0.694265,2.21826 2.218262,2.21826 1.117598,0 1.811863,-0.44027 1.811863,-1.1684 0,-0.47413 -0.169333,-0.762 -0.389466,-1.20226 -0.152399,-0.27094 -0.321732,-0.57574 -0.321732,-0.94827 0,-0.44026 0.237066,-0.72813 0.626532,-0.72813 0.745065,0 2.015062,1.1176 2.726261,2.31986 0.423333,0.72813 1.049865,1.5748 1.930396,1.5748 0.982132,0 1.422397,-0.52493 1.422397,-1.28693 0,-0.54187 -0.169333,-0.9144 -0.406399,-1.45627 -0.270933,-0.57573 -0.423332,-1.01599 -0.423332,-1.62559 0,-0.72814 0.253999,-1.35467 0.660398,-2.15053 0.3048,-0.59267 0.643466,-1.4224 0.643466,-1.9812 0,-0.54186 -0.237066,-1.04986 -0.592666,-1.3716 -0.592665,-0.52493 -1.134531,-0.77893 -1.69333,-0.77893 -0.846665,0 -1.38853,0.67733 -1.38853,1.33773 0,0.33867 0.06773,0.67733 0.203199,0.99907 0.135467,0.37253 0.287866,0.62653 0.287866,1.04986 0,0.4572 -0.253999,0.9144 -0.711198,0.9144 -0.524932,0 -0.982132,-0.47413 -1.981196,-1.9304 -0.846665,-1.21919 -1.354664,-2.23519 -2.726262,-2.23519 z"
           style="font-family:'Gan CLM';-inkscape-font-specification:'Gan CLM'"
           id="path123577" />
        <path
           d="m -80.295035,117.21793 c -1.168398,0 -1.79493,0.82973 -1.79493,1.8288 0,0.9652 0.491066,1.84573 1.879596,1.84573 1.032931,0 1.59173,-0.22013 2.624662,-0.23707 0.829731,-0.0169 1.303864,0.1524 2.133595,0.1524 1.253065,0 2.031996,-0.77893 2.031996,-1.84573 0,-1.18533 -0.863598,-1.72719 -1.862663,-1.72719 -0.948264,0 -1.456263,0.2032 -2.387595,0.2032 -1.032931,0 -1.608663,-0.22014 -2.624661,-0.22014 z"
           style="font-family:'Gan CLM';-inkscape-font-specification:'Gan CLM'"
           id="path123579" />
        <path
           d="m -102.59614,113.93287 c -1.016,0 -1.81186,0.69427 -1.81186,2.55693 0,1.65946 0.27093,3.74226 1.4224,5.58799 1.23613,1.96426 3.014122,2.69239 5.300118,2.69239 1.862663,0 3.555993,-0.54186 5.096923,-2.55692 1.253064,-1.6256 1.862663,-3.82693 1.862663,-5.80813 0,-1.54093 -0.592665,-2.48919 -1.79493,-2.48919 -1.64253,0 -2.319862,1.84573 -2.319862,3.45439 0,1.86267 -1.015998,4.57199 -3.318926,4.33493 -0.440266,-0.0339 -0.795866,-0.27094 -0.795866,-0.762 0,-0.33867 0.237067,-0.64347 0.626533,-0.82973 0.507999,-0.23707 1.049864,-0.6096 1.49013,-1.08373 0.575732,-0.64347 1.100664,-1.99813 1.100664,-3.38666 0,-0.9652 -0.761998,-1.7272 -1.964262,-1.7272 -1.676397,0 -1.828797,1.6764 -1.89653,3.04799 -0.03387,0.57574 -0.1524,1.25307 -0.677335,1.25307 -0.44026,0 -0.6604,-0.508 -0.67733,-1.03293 -0.0169,-0.5588 0.0508,-0.8636 0.0339,-1.43933 -0.0339,-1.13454 -0.7112,-1.81187 -1.6764,-1.81187 z"
           style="font-family:'Gan CLM';-inkscape-font-specification:'Gan CLM'"
           id="path123581" />
        <path
           d="m -111.02889,117.03167 c 1.03293,0 1.54093,0.0847 2.032,0.5588 0.45719,0.40639 0.66039,0.91439 0.66039,1.91346 0,1.10066 -0.69426,1.89653 -2.06586,1.89653 -1.43933,0 -1.82879,-1.54093 -1.82879,-2.86173 0,-0.762 0.32173,-1.50706 1.20226,-1.50706 z m -3.38666,-3.01413 c -0.88053,0 -1.59173,0.98213 -1.59173,1.6256 0,0.76199 0.32173,1.10066 0.67733,1.60866 0.508,0.7112 0.5588,1.64253 0.44027,3.08186 -0.0677,0.9144 -0.254,1.50706 -0.254,2.31986 0,1.08373 0.74506,2.01506 1.86266,2.01506 1.3208,0 2.032,-0.27093 3.35279,-0.27093 1.13454,0 1.76107,0.2032 2.87867,0.2032 0.77893,0 1.32079,-0.62653 1.38853,-1.40546 0.1524,-1.40547 0.22013,-2.60773 0.22013,-4.28413 0,-1.65946 0.0847,-2.81093 -0.88053,-3.77612 -1.15147,-1.1684 -2.52306,-0.8128 -4.21639,-0.8128 -1.50707,0 -2.4384,-0.3048 -3.87773,-0.3048 z"
           style="font-family:'Gan CLM';-inkscape-font-specification:'Gan CLM'"
           id="path123583" />
        <path
           d="m -119.24153,120.75699 c -1.08373,0 -1.89653,0.99907 -1.89653,2.0828 0,0.52493 0.27094,0.98213 0.6604,1.30386 0.18627,0.1524 0.3048,0.28787 0.3048,0.49107 0,0.64346 -0.4064,0.84666 -0.4064,1.62559 0,0.4572 0.4572,0.67734 0.9144,0.67734 1.38853,0 2.4892,-2.032 2.4892,-3.81 0,-1.32079 -0.84667,-2.37066 -2.06587,-2.37066 z"
           style="font-family:'Gan CLM';-inkscape-font-specification:'Gan CLM'"
           id="path123585" />
        <path
           d="m 93.152373,133.30668 c -1.422397,0 -1.964262,1.81186 -1.964262,3.2512 0,0.69426 0.372532,0.96519 1.015998,0.96519 0.999064,0 2.421461,-1.45626 2.421461,-2.91252 0,-0.88054 -0.694265,-1.30387 -1.473197,-1.30387 z m -3.894659,0 c -1.422397,0 -1.964262,1.81186 -1.964262,3.2512 0,0.69426 0.372532,0.96519 1.015998,0.96519 0.999064,0 2.421461,-1.45626 2.421461,-2.91252 0,-0.88054 -0.694265,-1.30387 -1.473197,-1.30387 z"
           style="font-family:'Gan CLM';-inkscape-font-specification:'Gan CLM'"
           id="path123587" />
        <path
           d="m 75.778834,135.18628 c 0,1.74413 0.626532,3.08186 2.133595,3.08186 1.405464,0 1.862663,-0.47413 3.58986,-0.47413 0.965198,0 1.49013,0.47413 1.49013,1.18533 0,0.94826 -0.660398,1.38853 -1.422397,1.96426 -1.015998,0.762 -1.828796,1.64253 -1.828796,2.67546 0,0.9652 0.761998,1.6256 1.862663,1.6256 1.303864,0 2.489195,-1.2192 3.43746,-2.82786 0.778932,-1.3208 1.236131,-2.62466 1.236131,-4.45346 0,-1.6764 -0.660399,-3.48826 -2.709328,-3.48826 -1.015998,0 -2.235196,0.57573 -3.149594,0.57573 -0.626532,0 -1.117598,-0.38946 -1.117598,-0.98213 0,-0.82973 0.254,-1.1176 0.254,-1.9304 0,-0.81279 -0.778932,-1.37159 -1.574797,-1.35466 -1.015998,0.0339 -1.540931,0.38947 -1.862663,1.76106 -0.254,1.016 -0.338666,1.778 -0.338666,2.6416 z"
           style="font-family:'Gan CLM';-inkscape-font-specification:'Gan CLM'"
           id="path123589" />
        <path
           d="m 69.12405,134.44121 c -2.472262,0 -4.504258,0.94827 -4.504258,2.4384 0,1.13453 0.846665,1.5748 1.777997,1.5748 1.371597,0 1.422397,-0.37254 2.370662,-0.37254 1.253064,0 2.133596,0.77893 2.133596,1.8796 0,0.99906 -0.745065,1.64253 -1.64253,1.64253 -0.812799,0 -1.371598,-0.0508 -2.252129,-0.0508 -1.320798,0 -2.709328,0.64346 -2.709328,1.9304 0,1.23613 0.795865,1.77799 1.777996,1.77799 1.354664,0 2.709328,-0.44026 4.148659,-0.44026 1.049864,0 1.608663,0.27093 2.658528,0.27093 1.151464,0 1.879596,-0.72813 1.879596,-1.7272 0,-0.6604 -0.135466,-1.10066 -0.592665,-1.67639 -0.575733,-0.72814 -0.677332,-1.40547 -0.626532,-2.50613 0.08467,-1.27 -0.01693,-2.42146 -0.863599,-3.33586 -0.846665,-0.93133 -2.065862,-1.40547 -3.555993,-1.40547 z"
           style="font-family:'Gan CLM';-inkscape-font-specification:'Gan CLM'"
           id="path123591" />
        <path
           d="m 57.558614,136.27001 c 0,1.3208 1.083731,1.6764 1.811863,2.16746 0.660399,0.4572 0.999065,0.9652 0.863599,2.286 -0.06773,0.57573 -0.423333,1.0668 -0.982132,1.0668 -0.778932,0 -1.134531,-0.22014 -1.862663,-0.22014 -0.761998,0 -1.74413,0.6096 -1.74413,1.76107 0,1.21919 0.965198,1.91346 2.065863,1.91346 1.185331,0 2.235196,-0.18627 3.674526,-0.18627 1.066798,0 1.523997,-0.9144 1.659463,-1.89653 0.135467,-0.98213 0.237067,-2.21826 0.237067,-3.28506 0,-3.52212 -1.303864,-5.36785 -3.962393,-5.36785 -0.999064,0 -1.761063,0.77893 -1.761063,1.76106 z"
           style="font-family:'Gan CLM';-inkscape-font-specification:'Gan CLM'"
           id="path123593" />
        <path
           d="m 52.27546,134.55975 c -1.388531,0 -2.031996,1.13453 -2.031996,2.16746 0,1.1684 0.575732,1.71026 0.643465,3.55599 0.0508,1.15147 -0.06773,1.84573 0.01693,2.9972 0.06773,0.89746 0.321733,1.87959 1.642531,1.87959 1.015998,0 1.507063,-0.88053 1.727196,-1.86266 0.287866,-1.30387 0.355599,-2.54 0.355599,-3.87773 0,-0.98213 -0.03387,-2.35373 -0.355599,-3.30199 -0.321733,-0.94827 -0.965198,-1.55786 -1.998129,-1.55786 z"
           style="font-family:'Gan CLM';-inkscape-font-specification:'Gan CLM'"
           id="path123595" />
        <path
           d="m 46.890688,134.44121 c -1.23613,0 -2.252128,1.45627 -2.252128,2.86173 0,1.4224 0.541865,1.96426 0.541865,3.89466 0,2.86173 -0.203199,3.43746 -0.203199,5.28319 0,1.30386 0.558798,3.28506 2.489195,3.28506 1.066798,0 1.761063,-0.82973 1.761063,-2.09973 0,-1.96426 -0.795865,-2.45533 -0.795865,-5.94359 0,-2.20133 0.152399,-2.99719 0.253999,-4.57199 0.118533,-1.89653 -0.507999,-2.70933 -1.79493,-2.70933 z"
           style="font-family:'Gan CLM';-inkscape-font-specification:'Gan CLM'"
           id="path123597" />
        <path
           d="m 42.149383,133.30668 c -1.422398,0 -1.964263,1.81186 -1.964263,3.2512 0,0.69426 0.372532,0.96519 1.015998,0.96519 0.999065,0 2.421462,-1.45626 2.421462,-2.91252 0,-0.88054 -0.694266,-1.30387 -1.473197,-1.30387 z m -3.894659,0 c -1.422398,0 -1.964263,1.81186 -1.964263,3.2512 0,0.69426 0.372532,0.96519 1.015998,0.96519 0.999065,0 2.421462,-1.45626 2.421462,-2.91252 0,-0.88054 -0.694266,-1.30387 -1.473197,-1.30387 z"
           style="font-family:'Gan CLM';-inkscape-font-specification:'Gan CLM'"
           id="path123599" />
        <path
           d="m 22.11733,134.52588 c -1.727196,0 -3.200394,0.0847 -4.114792,0.72813 -0.558799,0.38947 -0.999064,1.03293 -0.999064,1.79493 0,0.98213 0.846665,1.6764 1.828796,1.6764 1.151464,0 1.777996,-0.762 2.997194,-0.762 1.405464,0 2.387595,0.69426 2.387595,2.23519 0,1.15147 -0.389466,1.5748 -0.389466,2.794 0,1.33773 0.609599,2.16746 1.761064,2.16746 1.896529,0 2.065862,-2.94639 2.065862,-5.11385 0,-3.11573 -1.032931,-5.52026 -5.537189,-5.52026 z"
           style="font-family:'Gan CLM';-inkscape-font-specification:'Gan CLM'"
           id="path123601" />
        <path
           d="m 13.633782,134.55975 c -1.388531,0 -2.031996,1.13453 -2.031996,2.16746 0,1.1684 0.575732,1.71026 0.643465,3.55599 0.0508,1.15147 -0.06773,1.84573 0.01693,2.9972 0.06773,0.89746 0.321732,1.87959 1.64253,1.87959 1.015998,0 1.507063,-0.88053 1.727196,-1.86266 0.287866,-1.30387 0.3556,-2.54 0.3556,-3.87773 0,-0.98213 -0.03387,-2.35373 -0.3556,-3.30199 -0.321732,-0.94827 -0.965198,-1.55786 -1.998129,-1.55786 z"
           style="font-family:'Gan CLM';-inkscape-font-specification:'Gan CLM'"
           id="path123603" />
        <path
           d="m 2.440882,134.45815 c -1.0329313,0 -1.6594634,0.91439 -1.6594634,1.86266 0,1.03293 0.338666,1.7272 1.2530642,2.31986 0.677332,0.4572 1.2869308,0.762 2.1505291,1.2192 0.5926655,0.3048 1.2191976,0.762 1.2191976,1.33773 0,0.38947 -0.2539995,0.6604 -0.7450652,0.6604 -1.1683977,0 -1.2869308,-0.57573 -2.5230617,-0.49107 -1.015998,0.0847 -1.523997,0.9144 -1.523997,1.84573 0,1.1176 0.7619985,2.06586 2.4214619,2.06586 1.4393305,0 2.8955943,-0.30479 4.7751906,-0.30479 1.5578636,0 2.5061289,-0.6604 2.5061289,-1.89653 0,-1.74413 -1.1514649,-1.79493 -1.2530647,-3.18346 -0.1523997,-1.71027 1.3715977,-1.8796 1.5239967,-3.4036 0.118533,-1.30386 -0.507999,-1.99813 -1.4731968,-1.99813 -1.6086635,0 -2.2521289,1.23613 -2.4214619,2.62466 -0.0508,0.49107 -0.2878661,0.74507 -0.6942653,0.74507 -0.6265321,0 -1.0667979,-1.04987 -1.4562638,-1.91346 -0.4402658,-0.93133 -0.9990647,-1.49013 -2.0997292,-1.49013 z"
           style="font-family:'Gan CLM';-inkscape-font-specification:'Gan CLM'"
           id="path123605" />
        <path
           d="m -8.6673319,139.89374 c -1.0667979,0 -1.8457301,1.06679 -1.8457301,2.79399 0,1.20226 0.1016,2.59079 1.6425305,2.59079 1.5070637,0 1.9134629,-1.52399 1.9134629,-2.87866 0,-1.25306 -0.2878661,-2.50612 -1.7102633,-2.50612 z m -0.1862663,-5.33399 c -1.2191978,0 -1.9303958,0.72813 -1.9303958,1.67639 0,1.27 1.2361305,1.81187 2.6923943,1.81187 0.7619985,0 1.2191976,-0.1016 1.9473295,-0.1016 1.5917302,0 2.2521289,0.93133 2.2521289,2.47226 0,1.0668 -0.084666,1.69333 -0.084666,2.70933 0,1.10066 0.4741324,2.21826 1.7271966,2.21826 1.76106319,0 1.84572969,-2.3876 1.84572969,-4.09786 0,-2.76013 -0.0846665,-6.43465 -3.89465899,-6.43465 h -1.523997 c -1.2699975,0 -1.8457297,-0.254 -3.0310612,-0.254 z"
           style="font-family:'Gan CLM';-inkscape-font-specification:'Gan CLM'"
           id="path123607" />
        <path
           d="m -29.918577,135.18628 c 0,1.74413 0.626532,3.08186 2.133596,3.08186 1.405464,0 1.862663,-0.47413 3.589859,-0.47413 0.965199,0 1.490131,0.47413 1.490131,1.18533 0,0.94826 -0.660399,1.38853 -1.422397,1.96426 -1.015998,0.762 -1.828797,1.64253 -1.828797,2.67546 0,0.9652 0.761999,1.6256 1.862663,1.6256 1.303864,0 2.489195,-1.2192 3.43746,-2.82786 0.778932,-1.3208 1.236131,-2.62466 1.236131,-4.45346 0,-1.6764 -0.660399,-3.48826 -2.709328,-3.48826 -1.015998,0 -2.235196,0.57573 -3.149594,0.57573 -0.626532,0 -1.117598,-0.38946 -1.117598,-0.98213 0,-0.82973 0.254,-1.1176 0.254,-1.9304 0,-0.81279 -0.778932,-1.37159 -1.574797,-1.35466 -1.015998,0.0339 -1.54093,0.38947 -1.862663,1.76106 -0.253999,1.016 -0.338666,1.778 -0.338666,2.6416 z"
           style="font-family:'Gan CLM';-inkscape-font-specification:'Gan CLM'"
           id="path123609" />
        <path
           d="m -39.198002,139.89374 c -1.066798,0 -1.84573,1.06679 -1.84573,2.79399 0,1.20226 0.1016,2.59079 1.64253,2.59079 1.507064,0 1.913463,-1.52399 1.913463,-2.87866 0,-1.25306 -0.287866,-2.50612 -1.710263,-2.50612 z m -0.186266,-5.33399 c -1.219198,0 -1.930397,0.72813 -1.930397,1.67639 0,1.27 1.236131,1.81187 2.692395,1.81187 0.761999,0 1.219198,-0.1016 1.94733,-0.1016 1.59173,0 2.252129,0.93133 2.252129,2.47226 0,1.0668 -0.08467,1.69333 -0.08467,2.70933 0,1.10066 0.474132,2.21826 1.727197,2.21826 1.761063,0 1.845729,-2.3876 1.845729,-4.09786 0,-2.76013 -0.08467,-6.43465 -3.894659,-6.43465 h -1.523997 c -1.269997,0 -1.845729,-0.254 -3.03106,-0.254 z"
           style="font-family:'Gan CLM';-inkscape-font-specification:'Gan CLM'"
           id="path123611" />
        <path
           d="m -44.362622,134.62748 c -0.982132,0 -1.422398,0.4572 -1.591731,1.15146 -0.135466,0.52494 -0.169333,1.10067 -0.169333,1.7272 0,0.94827 0.1016,1.74413 0.389466,2.3876 0.270933,0.64346 0.897465,0.94826 1.523997,0.94826 0.880532,0 1.388531,-0.47413 1.625597,-1.27 0.220133,-0.77893 0.254,-1.52399 0.254,-2.38759 0,-0.7112 -0.08467,-1.40547 -0.423333,-1.84573 -0.423332,-0.54187 -0.931331,-0.7112 -1.608663,-0.7112 z"
           style="font-family:'Gan CLM';-inkscape-font-specification:'Gan CLM'"
           id="path123613" />
        <path
           d="m -49.493392,134.55975 c -1.388531,0 -2.031996,1.13453 -2.031996,2.16746 0,1.1684 0.575732,1.71026 0.643465,3.55599 0.0508,1.15147 -0.06773,1.84573 0.01693,2.9972 0.06773,0.89746 0.321733,1.87959 1.64253,1.87959 1.015998,0 1.507064,-0.88053 1.727197,-1.86266 0.287866,-1.30387 0.355599,-2.54 0.355599,-3.87773 0,-0.98213 -0.03387,-2.35373 -0.355599,-3.30199 -0.321733,-0.94827 -0.965198,-1.55786 -1.998129,-1.55786 z"
           style="font-family:'Gan CLM';-inkscape-font-specification:'Gan CLM'"
           id="path123615" />
        <path
           d="m -63.243208,136.52401 c 0,0.5588 0.203199,1.13453 0.643465,1.6764 0.457199,0.59266 0.761999,1.20226 0.761999,2.04892 0,0.8636 -0.423333,1.3716 -1.507064,1.60867 -0.643465,0.1524 -1.337731,0.64346 -1.337731,1.71026 0,0.508 0.186267,0.94827 0.694266,1.28693 0.389465,0.27094 0.965198,0.33867 1.727196,0.33867 2.015063,0 3.149594,-1.7272 3.149594,-3.18346 0,-0.79587 -0.08467,-1.35467 -0.08467,-2.2352 0,-1.03293 0.3556,-2.16746 1.710264,-2.16746 1.049864,0 1.422397,1.0668 1.422397,2.032 0,1.37159 -0.321733,2.16746 -0.321733,3.53906 0,1.16839 0.507999,2.04893 1.828797,2.04893 1.422397,0 2.015062,-1.08374 2.015062,-2.1844 0,-0.8128 -0.101599,-1.27 -0.135466,-2.09973 -0.08467,-1.1684 0.03387,-1.86266 -0.1524,-3.03106 -0.491065,-2.98026 -2.269062,-3.09879 -4.334925,-3.09879 -1.710263,0 -2.539995,-0.37254 -3.488259,-0.37254 -1.777997,0 -2.590795,0.8636 -2.590795,2.0828 z"
           style="font-family:'Gan CLM';-inkscape-font-specification:'Gan CLM'"
           id="path123617" />
        <path
           d="m -81.920592,134.64441 c -0.897465,0 -1.523997,0.69427 -1.523997,1.5748 0,0.4572 0.08467,0.72813 0.287866,1.13453 0.254,0.57573 0.440266,0.93133 0.440266,1.59173 0,0.88053 -0.169333,1.64253 -0.440266,2.1844 -0.372532,0.72813 -0.660398,1.16839 -0.660398,1.96426 0,1.30386 0.694265,2.21826 2.218262,2.21826 1.117598,0 1.811863,-0.44026 1.811863,-1.1684 0,-0.47413 -0.169333,-0.76199 -0.389466,-1.20226 -0.152399,-0.27093 -0.321732,-0.57573 -0.321732,-0.94827 0,-0.44026 0.237066,-0.72813 0.626532,-0.72813 0.745065,0 2.015062,1.1176 2.726261,2.31986 0.423332,0.72814 1.049865,1.5748 1.930396,1.5748 0.982132,0 1.422397,-0.52493 1.422397,-1.28693 0,-0.54186 -0.169333,-0.9144 -0.406399,-1.45626 -0.270933,-0.57573 -0.423332,-1.016 -0.423332,-1.6256 0,-0.72813 0.253999,-1.35466 0.660398,-2.15053 0.3048,-0.59266 0.643466,-1.4224 0.643466,-1.98119 0,-0.54187 -0.237066,-1.04987 -0.592666,-1.3716 -0.592665,-0.52493 -1.134531,-0.77893 -1.69333,-0.77893 -0.846665,0 -1.38853,0.67733 -1.38853,1.33773 0,0.33866 0.06773,0.67733 0.203199,0.99906 0.135467,0.37253 0.287866,0.62653 0.287866,1.04987 0,0.4572 -0.253999,0.91439 -0.711198,0.91439 -0.524933,0 -0.982132,-0.47413 -1.981196,-1.93039 -0.846665,-1.2192 -1.354664,-2.2352 -2.726262,-2.2352 z"
           style="font-family:'Gan CLM';-inkscape-font-specification:'Gan CLM'"
           id="path123619" />
        <path
           d="m -86.865087,134.62748 c -0.982131,0 -1.422397,0.4572 -1.59173,1.15146 -0.135466,0.52494 -0.169333,1.10067 -0.169333,1.7272 0,0.94827 0.1016,1.74413 0.389466,2.3876 0.270933,0.64346 0.897465,0.94826 1.523997,0.94826 0.880532,0 1.388531,-0.47413 1.625597,-1.27 0.220133,-0.77893 0.253999,-1.52399 0.253999,-2.38759 0,-0.7112 -0.08467,-1.40547 -0.423332,-1.84573 -0.423333,-0.54187 -0.931332,-0.7112 -1.608664,-0.7112 z"
           style="font-family:'Gan CLM';-inkscape-font-specification:'Gan CLM'"
           id="path123621" />
        <path
           d="m -100.34397,136.52401 c 0,0.5588 0.2032,1.13453 0.643468,1.6764 0.457199,0.59266 0.761998,1.20226 0.761998,2.04892 0,0.8636 -0.423332,1.3716 -1.507066,1.60867 -0.64346,0.1524 -1.33773,0.64346 -1.33773,1.71026 0,0.508 0.18627,0.94827 0.69427,1.28693 0.38946,0.27094 0.9652,0.33867 1.727194,0.33867 2.015062,0 3.149593,-1.7272 3.149593,-3.18346 0,-0.79587 -0.08467,-1.35467 -0.08467,-2.2352 0,-1.03293 0.355599,-2.16746 1.710263,-2.16746 1.049865,0 1.422397,1.0668 1.422397,2.032 0,1.37159 -0.321732,2.16746 -0.321732,3.53906 0,1.16839 0.507999,2.04893 1.828796,2.04893 1.422397,0 2.015063,-1.08374 2.015063,-2.1844 0,-0.8128 -0.1016,-1.27 -0.135467,-2.09973 -0.08467,-1.1684 0.03387,-1.86266 -0.152399,-3.03106 -0.491066,-2.98026 -2.269062,-3.09879 -4.334925,-3.09879 -1.710263,0 -2.539995,-0.37254 -3.48826,-0.37254 -1.777996,0 -2.590793,0.8636 -2.590793,2.0828 z"
           style="font-family:'Gan CLM';-inkscape-font-specification:'Gan CLM'"
           id="path123623" />
        <path
           d="m -108.40419,137.60774 c 1.03293,0 1.54093,0.0847 2.032,0.5588 0.4572,0.4064 0.6604,0.9144 0.6604,1.91346 0,1.10067 -0.69427,1.89653 -2.06587,1.89653 -1.43933,0 -1.82879,-1.54093 -1.82879,-2.86173 0,-0.76199 0.32173,-1.50706 1.20226,-1.50706 z m -3.38666,-3.01413 c -0.88053,0 -1.59173,0.98213 -1.59173,1.6256 0,0.762 0.32173,1.10066 0.67733,1.60866 0.508,0.7112 0.5588,1.64253 0.44027,3.08186 -0.0677,0.9144 -0.254,1.50707 -0.254,2.31987 0,1.08373 0.74507,2.01506 1.86266,2.01506 1.3208,0 2.032,-0.27093 3.3528,-0.27093 1.13453,0 1.76106,0.2032 2.87866,0.2032 0.77893,0 1.32079,-0.62654 1.38853,-1.40547 0.1524,-1.40546 0.22013,-2.60773 0.22013,-4.28412 0,-1.65947 0.0847,-2.81093 -0.88053,-3.77613 -1.15147,-1.1684 -2.52306,-0.8128 -4.21639,-0.8128 -1.50707,0 -2.4384,-0.3048 -3.87773,-0.3048 z"
           style="font-family:'Gan CLM';-inkscape-font-specification:'Gan CLM'"
           id="path123625" />
        <path
           d="m -116.53216,141.41773 c -0.99906,0 -1.86266,0.762 -1.86266,1.74413 0,1.23613 0.82973,2.04893 2.01506,2.04893 1.03293,0 1.8288,-0.6604 1.8288,-1.96426 0,-1.016 -0.84667,-1.8288 -1.9812,-1.8288 z"
           style="font-family:'Gan CLM';-inkscape-font-specification:'Gan CLM'"
           id="path123627" />
      </g>
      <g
         aria-label="מביט למטה ונשאר,
פוחד לרדת - &quot;אי אפשר!&quot;

"
         id="text99426"
         style="font-size:16.9333px;line-height:120%;font-family:Sans;-inkscape-font-specification:'Adobe Helvetica';letter-spacing:0px;word-spacing:0px;direction:rtl;fill:none;stroke:#000000;stroke-width:0.264583px">
        <path
           d="m 85.298492,167.54584 c -0.999065,0 -1.591731,0.79586 -1.591731,1.71026 0,1.0668 0.846665,1.7272 0.897465,2.74319 0.08467,1.4732 -0.965198,2.2352 -0.965198,4.0132 0,1.25306 0.457199,2.26906 1.523997,2.26906 0.778932,0 1.269998,-0.4064 1.64253,-1.016 0.524933,-0.88053 0.626532,-2.23519 0.812799,-3.35279 0.304799,-1.7272 0.897465,-3.01413 2.184395,-3.01413 1.032932,0 1.761064,0.93133 1.761064,1.94733 0,1.33773 -0.558799,1.8288 -1.405464,2.01506 -1.388531,0.33867 -1.930396,0.77893 -1.930396,1.8796 0,1.016 0.863598,1.59173 2.218262,1.59173 2.573861,0 4.047059,-1.8796 4.047059,-5.87586 0,-2.33679 -1.286931,-4.94452 -3.945459,-4.94452 -1.574797,0 -1.507064,0.88053 -2.692395,0.88053 -0.965198,0 -1.320797,-0.84666 -2.556928,-0.84666 z"
           style="font-family:'Gan CLM';-inkscape-font-specification:'Gan CLM';fill:#000000;stroke:none"
           id="path123468" />
        <path
           d="m 76.98423,167.46117 c -2.472262,0 -4.504258,0.94827 -4.504258,2.4384 0,1.13453 0.846665,1.57479 1.777996,1.57479 1.371598,0 1.422397,-0.37253 2.370662,-0.37253 1.253064,0 2.133596,0.77893 2.133596,1.8796 0,0.99906 -0.745065,1.64253 -1.64253,1.64253 -0.812798,0 -1.371597,-0.0508 -2.252129,-0.0508 -1.320797,0 -2.709328,0.64346 -2.709328,1.93039 0,1.23613 0.795865,1.778 1.777997,1.778 1.354664,0 2.709328,-0.44027 4.148658,-0.44027 1.049865,0 1.608664,0.27094 2.658528,0.27094 1.151465,0 1.879596,-0.72814 1.879596,-1.7272 0,-0.6604 -0.135466,-1.10067 -0.592665,-1.6764 -0.575732,-0.72813 -0.677332,-1.40546 -0.626532,-2.50613 0.08467,-1.26999 -0.01693,-2.42146 -0.863598,-3.33586 -0.846665,-0.93133 -2.065863,-1.40546 -3.555993,-1.40546 z"
           style="font-family:'Gan CLM';-inkscape-font-specification:'Gan CLM';fill:#000000;stroke:none"
           id="path123470" />
        <path
           d="m 69.110281,167.64744 c -0.982131,0 -1.422397,0.4572 -1.59173,1.15146 -0.135466,0.52493 -0.169333,1.10067 -0.169333,1.7272 0,0.94826 0.1016,1.74413 0.389466,2.38759 0.270933,0.64347 0.897465,0.94827 1.523997,0.94827 0.880532,0 1.388531,-0.47413 1.625597,-1.27 0.220133,-0.77893 0.253999,-1.524 0.253999,-2.3876 0,-0.71119 -0.08467,-1.40546 -0.423332,-1.84572 -0.423333,-0.54187 -0.931332,-0.7112 -1.608664,-0.7112 z"
           style="font-family:'Gan CLM';-inkscape-font-specification:'Gan CLM';fill:#000000;stroke:none"
           id="path123472" />
        <path
           d="m 58.035923,167.56277 c -1.625597,0 -2.065863,2.01506 -2.065863,3.43746 0,2.04893 0.2032,3.55599 0.897465,4.87679 0.846665,1.64253 2.370662,2.45533 4.351858,2.45533 3.18346,0 5.113857,-3.048 5.113857,-6.19759 0,-2.20133 -1.202265,-4.62279 -3.268127,-4.62279 -1.473197,0 -2.506129,1.3716 -2.506129,2.89559 0,0.77894 0.254,1.25307 0.846665,1.25307 0.541866,0 0.694266,-0.47413 1.202265,-0.47413 0.558799,0 0.728132,0.66039 0.728132,1.20226 0,1.28693 -0.677332,2.62466 -1.94733,2.62466 -1.74413,0 -2.235196,-1.40546 -2.235196,-2.72626 0,-1.20226 0.440266,-1.8288 0.440266,-3.03106 0,-1.016 -0.677332,-1.69333 -1.557863,-1.69333 z"
           style="font-family:'Gan CLM';-inkscape-font-specification:'Gan CLM';fill:#000000;stroke:none"
           id="path123474" />
        <path
           d="m 36.835477,168.20624 c 0,1.74413 0.626533,3.08186 2.133596,3.08186 1.405464,0 1.862663,-0.47414 3.58986,-0.47414 0.965198,0 1.49013,0.47414 1.49013,1.18533 0,0.94827 -0.660398,1.38854 -1.422397,1.96427 -1.015998,0.762 -1.828796,1.64253 -1.828796,2.67546 0,0.9652 0.761998,1.6256 1.862663,1.6256 1.303864,0 2.489195,-1.2192 3.43746,-2.82787 0.778931,-1.32079 1.23613,-2.62466 1.23613,-4.45345 0,-1.6764 -0.660398,-3.48826 -2.709328,-3.48826 -1.015998,0 -2.235195,0.57573 -3.149593,0.57573 -0.626532,0 -1.117598,-0.38947 -1.117598,-0.98213 0,-0.82973 0.253999,-1.1176 0.253999,-1.9304 0,-0.8128 -0.778931,-1.3716 -1.574797,-1.35466 -1.015998,0.0339 -1.54093,0.38946 -1.862663,1.76106 -0.253999,1.016 -0.338666,1.778 -0.338666,2.6416 z"
           style="font-family:'Gan CLM';-inkscape-font-specification:'Gan CLM';fill:#000000;stroke:none"
           id="path123476" />
        <path
           d="m 26.624725,167.54584 c -0.999065,0 -1.591731,0.79586 -1.591731,1.71026 0,1.0668 0.846665,1.7272 0.897465,2.74319 0.08467,1.4732 -0.965198,2.2352 -0.965198,4.0132 0,1.25306 0.457199,2.26906 1.523997,2.26906 0.778932,0 1.269998,-0.4064 1.64253,-1.016 0.524933,-0.88053 0.626532,-2.23519 0.812799,-3.35279 0.304799,-1.7272 0.897465,-3.01413 2.184395,-3.01413 1.032932,0 1.761064,0.93133 1.761064,1.94733 0,1.33773 -0.558799,1.8288 -1.405464,2.01506 -1.388531,0.33867 -1.930397,0.77893 -1.930397,1.8796 0,1.016 0.863599,1.59173 2.218263,1.59173 2.573861,0 4.047058,-1.8796 4.047058,-5.87586 0,-2.33679 -1.28693,-4.94452 -3.945458,-4.94452 -1.574797,0 -1.507064,0.88053 -2.692395,0.88053 -0.965198,0 -1.320798,-0.84666 -2.556928,-0.84666 z"
           style="font-family:'Gan CLM';-inkscape-font-specification:'Gan CLM';fill:#000000;stroke:none"
           id="path123478" />
        <path
           d="m 15.651966,167.56277 c -1.625597,0 -2.065863,2.01506 -2.065863,3.43746 0,2.04893 0.2032,3.55599 0.897465,4.87679 0.846665,1.64253 2.370662,2.45533 4.351858,2.45533 3.183461,0 5.113857,-3.048 5.113857,-6.19759 0,-2.20133 -1.202265,-4.62279 -3.268127,-4.62279 -1.473197,0 -2.506129,1.3716 -2.506129,2.89559 0,0.77894 0.254,1.25307 0.846665,1.25307 0.541866,0 0.694266,-0.47413 1.202265,-0.47413 0.558799,0 0.728132,0.66039 0.728132,1.20226 0,1.28693 -0.677332,2.62466 -1.94733,2.62466 -1.74413,0 -2.235196,-1.40546 -2.235196,-2.72626 0,-1.20226 0.440266,-1.8288 0.440266,-3.03106 0,-1.016 -0.677332,-1.69333 -1.557863,-1.69333 z"
           style="font-family:'Gan CLM';-inkscape-font-specification:'Gan CLM';fill:#000000;stroke:none"
           id="path123480" />
        <path
           d="m 4.306678,172.91369 c -1.0667979,0 -1.8457298,1.0668 -1.8457298,2.794 0,1.20226 0.1015998,2.59079 1.6425302,2.59079 1.5070637,0 1.9134629,-1.52399 1.9134629,-2.87866 0,-1.25306 -0.2878661,-2.50613 -1.7102633,-2.50613 z M 4.1204117,167.5797 c -1.2191976,0 -1.9303963,0.72814 -1.9303963,1.6764 0,1.27 1.236131,1.81186 2.6923948,1.81186 0.7619985,0 1.2191976,-0.1016 1.9473295,-0.1016 1.5917302,0 2.2521289,0.93133 2.2521289,2.47227 0,1.06679 -0.084666,1.69333 -0.084666,2.70932 0,1.10067 0.4741324,2.21827 1.7271974,2.21827 1.761063,0 1.845729,-2.3876 1.845729,-4.09786 0,-2.76013 -0.08467,-6.43466 -3.8946591,-6.43466 h -1.523997 c -1.2699975,0 -1.8457297,-0.254 -3.0310612,-0.254 z"
           style="font-family:'Gan CLM';-inkscape-font-specification:'Gan CLM';fill:#000000;stroke:none"
           id="path123482" />
        <path
           d="m -8.7996446,167.5797 c -1.3885304,0 -2.0319964,1.13453 -2.0319964,2.16747 0,1.16839 0.575733,1.71026 0.643466,3.55599 0.0508,1.15146 -0.06773,1.84573 0.01693,2.99719 0.06773,0.89747 0.3217328,1.8796 1.6425302,1.8796 1.015998,0 1.5070637,-0.88053 1.7271966,-1.86266 0.2878661,-1.30387 0.3555993,-2.54 0.3555993,-3.87773 0,-0.98213 -0.033867,-2.35373 -0.3555993,-3.30199 -0.3217327,-0.94827 -0.9651981,-1.55787 -1.9981294,-1.55787 z"
           style="font-family:'Gan CLM';-inkscape-font-specification:'Gan CLM';fill:#000000;stroke:none"
           id="path123484" />
        <path
           d="m -17.57109,169.28997 c 0,1.32079 1.083731,1.67639 1.811863,2.16746 0.660399,0.4572 0.999065,0.9652 0.863599,2.28599 -0.06773,0.57574 -0.423333,1.0668 -0.982132,1.0668 -0.778932,0 -1.134531,-0.22013 -1.862663,-0.22013 -0.761998,0 -1.74413,0.6096 -1.74413,1.76106 0,1.2192 0.965198,1.91347 2.065863,1.91347 1.185331,0 2.235195,-0.18627 3.674526,-0.18627 1.066798,0 1.523997,-0.9144 1.659463,-1.89653 0.135467,-0.98213 0.237067,-2.21826 0.237067,-3.28506 0,-3.52213 -1.303865,-5.36786 -3.962393,-5.36786 -0.999064,0 -1.761063,0.77894 -1.761063,1.76107 z"
           style="font-family:'Gan CLM';-inkscape-font-specification:'Gan CLM';fill:#000000;stroke:none"
           id="path123486" />
        <path
           d="m -32.370762,167.5289 c -1.015998,0 -1.811863,0.69427 -1.811863,2.55693 0,1.65947 0.270933,3.74226 1.422397,5.58799 1.236131,1.96426 3.014127,2.6924 5.300123,2.6924 1.862663,0 3.555993,-0.54187 5.096923,-2.55693 1.253064,-1.6256 1.862663,-3.82693 1.862663,-5.80812 0,-1.54094 -0.592665,-2.4892 -1.79493,-2.4892 -1.64253,0 -2.319862,1.84573 -2.319862,3.45439 0,1.86267 -1.015998,4.57199 -3.318926,4.33493 -0.440266,-0.0339 -0.795866,-0.27093 -0.795866,-0.762 0,-0.33867 0.237067,-0.64347 0.626533,-0.82973 0.507999,-0.23707 1.049864,-0.6096 1.49013,-1.08373 0.575732,-0.64347 1.100664,-1.99813 1.100664,-3.38666 0,-0.9652 -0.761998,-1.7272 -1.964262,-1.7272 -1.676397,0 -1.828797,1.6764 -1.89653,3.04799 -0.03387,0.57574 -0.1524,1.25307 -0.677332,1.25307 -0.440266,0 -0.660399,-0.508 -0.677332,-1.03293 -0.01693,-0.5588 0.0508,-0.8636 0.03387,-1.43933 -0.03387,-1.13453 -0.711199,-1.81187 -1.676397,-1.81187 z"
           style="font-family:'Gan CLM';-inkscape-font-specification:'Gan CLM';fill:#000000;stroke:none"
           id="path123488" />
        <path
           d="m -43.800712,167.66437 c -0.897464,0 -1.523997,0.69427 -1.523997,1.5748 0,0.4572 0.08467,0.72813 0.287867,1.13453 0.253999,0.57573 0.440265,0.93133 0.440265,1.59173 0,0.88053 -0.169333,1.64253 -0.440265,2.18439 -0.372533,0.72814 -0.660399,1.1684 -0.660399,1.96427 0,1.30386 0.694265,2.21826 2.218262,2.21826 1.117598,0 1.811863,-0.44027 1.811863,-1.1684 0,-0.47413 -0.169333,-0.762 -0.389466,-1.20226 -0.152399,-0.27094 -0.321732,-0.57574 -0.321732,-0.94827 0,-0.44026 0.237066,-0.72813 0.626532,-0.72813 0.745065,0 2.015062,1.1176 2.726261,2.31986 0.423333,0.72813 1.049865,1.5748 1.930396,1.5748 0.982132,0 1.422397,-0.52493 1.422397,-1.28693 0,-0.54187 -0.169333,-0.9144 -0.406399,-1.45627 -0.270933,-0.57573 -0.423332,-1.01599 -0.423332,-1.62559 0,-0.72813 0.253999,-1.35467 0.660398,-2.15053 0.3048,-0.59267 0.643466,-1.4224 0.643466,-1.9812 0,-0.54186 -0.237066,-1.04986 -0.592666,-1.37159 -0.592665,-0.52494 -1.134531,-0.77894 -1.69333,-0.77894 -0.846665,0 -1.38853,0.67734 -1.38853,1.33773 0,0.33867 0.06773,0.67734 0.203199,0.99907 0.135467,0.37253 0.287866,0.62653 0.287866,1.04986 0,0.4572 -0.253999,0.9144 -0.711198,0.9144 -0.524932,0 -0.982132,-0.47413 -1.981196,-1.93039 -0.846665,-1.2192 -1.354664,-2.2352 -2.726262,-2.2352 z"
           style="font-family:'Gan CLM';-inkscape-font-specification:'Gan CLM';fill:#000000;stroke:none"
           id="path123490" />
        <path
           d="m -52.250414,167.54584 c -1.727197,0 -3.200394,0.0847 -4.114792,0.72813 -0.558799,0.38946 -0.999065,1.03293 -0.999065,1.79493 0,0.98213 0.846665,1.6764 1.828796,1.6764 1.151465,0 1.777997,-0.762 2.997194,-0.762 1.405464,0 2.387596,0.69426 2.387596,2.23519 0,1.15147 -0.389466,1.5748 -0.389466,2.794 0,1.33773 0.609599,2.16746 1.761063,2.16746 1.89653,0 2.065863,-2.9464 2.065863,-5.11386 0,-3.11572 -1.032932,-5.52025 -5.537189,-5.52025 z"
           style="font-family:'Gan CLM';-inkscape-font-specification:'Gan CLM';fill:#000000;stroke:none"
           id="path123492" />
        <path
           d="m -60.615451,174.35302 c -1.083731,0 -1.896529,0.99907 -1.896529,2.0828 0,0.52493 0.270933,0.98213 0.660398,1.30386 0.186267,0.1524 0.3048,0.28787 0.3048,0.49107 0,0.64346 -0.406399,0.84666 -0.406399,1.6256 0,0.45719 0.457199,0.67733 0.914398,0.67733 1.38853,0 2.489195,-2.032 2.489195,-3.80999 0,-1.3208 -0.846665,-2.37067 -2.065863,-2.37067 z"
           style="font-family:'Gan CLM';-inkscape-font-specification:'Gan CLM';fill:#000000;stroke:none"
           id="path123494" />
        <path
           d="m 89.091527,188.08804 c -2.844795,0 -4.402658,1.4224 -4.402658,3.48826 0,1.65947 1.168398,2.47227 2.658528,2.47227 0.931331,0 1.371597,-0.508 1.371597,-1.10067 0,-0.4572 -0.372532,-0.7112 -0.372532,-1.13453 0,-0.49107 0.643465,-0.762 1.100664,-0.762 0.491066,0 0.999065,0.254 1.405464,0.6096 0.389466,0.33867 0.677332,0.8128 0.677332,1.27 0,1.03293 -0.761998,1.79493 -1.676397,2.11666 -1.117597,0.4064 -1.845729,0.2032 -3.064927,0.2032 -1.337731,0 -2.082796,0.37253 -2.065863,1.25306 0,1.6764 1.69333,2.3368 3.928526,2.3368 1.69333,0 3.047994,-0.52493 4.301058,-1.76106 1.219198,-1.18533 1.540931,-2.54 1.540931,-3.94546 0,-1.33773 -0.321733,-2.3876 -1.049865,-3.302 -0.931332,-1.15146 -2.387595,-1.74413 -4.351858,-1.74413 z"
           style="font-family:'Gan CLM';-inkscape-font-specification:'Gan CLM';fill:#000000;stroke:none"
           id="path123496" />
        <path
           d="m 81.319162,188.15578 c -1.388531,0 -2.031996,1.13453 -2.031996,2.16746 0,1.1684 0.575732,1.71026 0.643465,3.55599 0.0508,1.15147 -0.06773,1.84573 0.01693,2.9972 0.06773,0.89746 0.321732,1.87959 1.64253,1.87959 1.015998,0 1.507063,-0.88053 1.727196,-1.86266 0.287867,-1.30386 0.3556,-2.53999 0.3556,-3.87773 0,-0.98213 -0.03387,-2.35372 -0.3556,-3.30199 -0.321732,-0.94826 -0.965198,-1.55786 -1.998129,-1.55786 z"
           style="font-family:'Gan CLM';-inkscape-font-specification:'Gan CLM';fill:#000000;stroke:none"
           id="path123498" />
        <path
           d="m 69.770674,188.15578 c -1.54093,0 -2.404529,0.93133 -2.404529,2.18439 0,0.7112 0.1016,1.20227 0.287867,1.7272 0.203199,0.59267 0.287866,0.94826 0.287866,1.45626 0,1.10067 -0.237067,1.74413 -0.237067,3.048 0,1.35466 0.677332,2.28599 2.116663,2.28599 1.066798,0 1.69333,-0.9144 1.69333,-2.23519 0,-1.04987 -0.541866,-1.8796 -0.541866,-3.11573 0,-1.18533 0.728132,-1.79493 1.727197,-1.79493 0.846665,0 1.422397,0.52493 1.710263,1.3208 0.423333,1.23613 0.1016,2.45533 0.1016,3.28506 0,1.82879 0.321733,2.59079 1.659463,2.59079 1.811864,0 2.09973,-2.64159 2.09973,-4.85985 0,-2.01507 0,-3.87773 -1.354664,-4.92759 -0.948265,-0.7112 -2.353729,-0.7112 -3.894659,-0.7112 -2.04893,0 -2.082796,-0.254 -3.251194,-0.254 z"
           style="font-family:'Gan CLM';-inkscape-font-specification:'Gan CLM';fill:#000000;stroke:none"
           id="path123500" />
        <path
           d="m 55.953105,189.89991 c -0.03387,0.98213 0.846665,1.72719 1.777997,1.72719 1.456264,0 1.608663,-0.27093 2.523062,-0.27093 0.829731,0 1.354664,0.508 1.354664,1.2192 0,1.38853 -0.677332,2.20133 -0.677332,3.87772 0,1.03294 0.491065,2.31987 1.862663,2.31987 1.134531,0 1.761063,-1.08373 1.761063,-2.1844 0,-1.38853 -0.186267,-1.84573 -0.186267,-3.03106 0,-1.03293 0.08467,-1.71026 0.863599,-2.26906 0.711198,-0.508 1.134531,-0.89747 1.134531,-1.71027 0,-0.84666 -0.643466,-1.57479 -1.761063,-1.57479 -1.354664,0 -2.082796,0.4064 -3.403594,0.4064 -1.269997,0 -1.981196,-0.4064 -3.13266,-0.4064 -1.202264,0 -2.099729,0.79586 -2.116663,1.89653 z"
           style="font-family:'Gan CLM';-inkscape-font-specification:'Gan CLM';fill:#000000;stroke:none"
           id="path123502" />
        <path
           d="m 36.818523,188.78231 c 0,1.74413 0.626532,3.08186 2.133596,3.08186 1.405464,0 1.862663,-0.47413 3.589859,-0.47413 0.965198,0 1.490131,0.47413 1.490131,1.18533 0,0.94826 -0.660399,1.38853 -1.422398,1.96426 -1.015998,0.762 -1.828796,1.64253 -1.828796,2.67546 0,0.9652 0.761999,1.6256 1.862663,1.6256 1.303864,0 2.489195,-1.2192 3.43746,-2.82786 0.778932,-1.3208 1.236131,-2.62466 1.236131,-4.45346 0,-1.6764 -0.660399,-3.48826 -2.709328,-3.48826 -1.015998,0 -2.235196,0.57573 -3.149594,0.57573 -0.626532,0 -1.117598,-0.38946 -1.117598,-0.98213 0,-0.82973 0.254,-1.1176 0.254,-1.93039 0,-0.8128 -0.778932,-1.3716 -1.574797,-1.35467 -1.015998,0.0339 -1.54093,0.38947 -1.862663,1.76106 -0.254,1.016 -0.338666,1.778 -0.338666,2.6416 z"
           style="font-family:'Gan CLM';-inkscape-font-specification:'Gan CLM';fill:#000000;stroke:none"
           id="path123504" />
        <path
           d="m 30.265357,188.12191 c -1.727197,0 -3.200394,0.0847 -4.114792,0.72813 -0.558799,0.38947 -0.999065,1.03293 -0.999065,1.79493 0,0.98213 0.846665,1.6764 1.828797,1.6764 1.151464,0 1.777996,-0.762 2.997194,-0.762 1.405464,0 2.387595,0.69427 2.387595,2.2352 0,1.15146 -0.389466,1.57479 -0.389466,2.79399 0,1.33773 0.609599,2.16746 1.761063,2.16746 1.89653,0 2.065863,-2.94639 2.065863,-5.11385 0,-3.11573 -1.032931,-5.52026 -5.537189,-5.52026 z"
           style="font-family:'Gan CLM';-inkscape-font-specification:'Gan CLM';fill:#000000;stroke:none"
           id="path123506" />
        <path
           d="m 13.738445,189.89991 c -0.03387,0.98213 0.846665,1.72719 1.777996,1.72719 1.456264,0 1.608664,-0.27093 2.523062,-0.27093 0.829732,0 1.354664,0.508 1.354664,1.2192 0,1.38853 -0.677332,2.20133 -0.677332,3.87772 0,1.03294 0.491066,2.31987 1.862663,2.31987 1.134531,0 1.761063,-1.08373 1.761063,-2.1844 0,-1.38853 -0.186266,-1.84573 -0.186266,-3.03106 0,-1.03293 0.08467,-1.71026 0.863598,-2.26906 0.711199,-0.508 1.134531,-0.89747 1.134531,-1.71027 0,-0.84666 -0.643465,-1.57479 -1.761063,-1.57479 -1.354664,0 -2.082796,0.4064 -3.403593,0.4064 -1.269998,0 -1.981196,-0.4064 -3.132661,-0.4064 -1.202264,0 -2.099729,0.79586 -2.116662,1.89653 z"
           style="font-family:'Gan CLM';-inkscape-font-specification:'Gan CLM';fill:#000000;stroke:none"
           id="path123508" />
        <path
           d="m 2.0206249,190.12004 c 0,0.5588 0.2031996,1.13453 0.6434654,1.6764 0.4571991,0.59266 0.7619985,1.20226 0.7619985,2.04893 0,0.86359 -0.4233325,1.37159 -1.5070637,1.60866 -0.6434654,0.1524 -1.33773069,0.64346 -1.33773069,1.71026 0,0.508 0.1862663,0.94827 0.69426529,1.28693 0.3894659,0.27094 0.9651981,0.33867 1.7271966,0.33867 2.0150627,0 3.1495938,-1.7272 3.1495938,-3.18346 0,-0.79587 -0.084666,-1.35466 -0.084666,-2.2352 0,-1.03293 0.3555993,-2.16746 1.7102633,-2.16746 1.0498646,0 1.4223972,1.0668 1.4223972,2.032 0,1.37159 -0.3217327,2.16746 -0.3217327,3.53906 0,1.16839 0.507999,2.04893 1.8287971,2.04893 1.422397,0 2.015062,-1.08373 2.015062,-2.1844 0,-0.8128 -0.101599,-1.27 -0.135467,-2.09973 -0.08467,-1.1684 0.03387,-1.86266 -0.1524,-3.03106 -0.491065,-2.98026 -2.269062,-3.09879 -4.3349239,-3.09879 -1.7102633,0 -2.539995,-0.37254 -3.4882598,-0.37254 -1.7779965,0 -2.5907949,0.8636 -2.5907954,2.0828 z"
           style="font-family:'Gan CLM';-inkscape-font-specification:'Gan CLM';fill:#000000;stroke:none"
           id="path123510" />
        <path
           d="m -14.929554,191.39004 c -1.168398,0 -1.79493,0.82973 -1.79493,1.82879 0,0.9652 0.491066,1.84573 1.879596,1.84573 1.032932,0 1.59173,-0.22013 2.624662,-0.23706 0.829731,-0.0169 1.303864,0.1524 2.133596,0.1524 1.2530637,0 2.0319955,-0.77893 2.0319955,-1.84573 0,-1.18533 -0.8635983,-1.7272 -1.862663,-1.7272 -0.9482645,0 -1.4562635,0.2032 -2.3875955,0.2032 -1.032931,0 -1.608663,-0.22013 -2.624661,-0.22013 z"
           style="font-family:'Gan CLM';-inkscape-font-specification:'Gan CLM';fill:#000000;stroke:none"
           id="path123512" />
        <path
           d="m -26.83361,186.90271 c -1.422398,0 -1.964263,1.81187 -1.964263,3.2512 0,0.69426 0.372532,0.96519 1.015998,0.96519 0.999065,0 2.421462,-1.45626 2.421462,-2.91252 0,-0.88053 -0.694266,-1.30387 -1.473197,-1.30387 z m -3.894659,0 c -1.422398,0 -1.964263,1.81187 -1.964263,3.2512 0,0.69426 0.372532,0.96519 1.015998,0.96519 0.999065,0 2.421462,-1.45626 2.421462,-2.91252 0,-0.88053 -0.694266,-1.30387 -1.473197,-1.30387 z"
           style="font-family:'Gan CLM';-inkscape-font-specification:'Gan CLM';fill:#000000;stroke:none"
           id="path123514" />
        <path
           d="m -42.310628,188.24044 c -0.897465,0 -1.523997,0.69427 -1.523997,1.5748 0,0.4572 0.08467,0.72813 0.287866,1.13453 0.253999,0.57573 0.440266,0.93133 0.440266,1.59173 0,0.88053 -0.169333,1.64253 -0.440266,2.1844 -0.372533,0.72813 -0.660399,1.1684 -0.660399,1.96426 0,1.30386 0.694266,2.21826 2.218263,2.21826 1.117597,0 1.811863,-0.44026 1.811863,-1.16839 0,-0.47414 -0.169333,-0.762 -0.389466,-1.20227 -0.1524,-0.27093 -0.321733,-0.57573 -0.321733,-0.94826 0,-0.44027 0.237066,-0.72814 0.626532,-0.72814 0.745065,0 2.015063,1.1176 2.726261,2.31987 0.423333,0.72813 1.049865,1.57479 1.930397,1.57479 0.982131,0 1.422397,-0.52493 1.422397,-1.28693 0,-0.54186 -0.169333,-0.9144 -0.406399,-1.45626 -0.270933,-0.57573 -0.423333,-1.016 -0.423333,-1.6256 0,-0.72813 0.254,-1.35466 0.660399,-2.15053 0.304799,-0.59266 0.643465,-1.42239 0.643465,-1.98119 0,-0.54187 -0.237066,-1.04987 -0.592665,-1.3716 -0.592666,-0.52493 -1.134531,-0.77893 -1.69333,-0.77893 -0.846665,0 -1.388531,0.67733 -1.388531,1.33773 0,0.33866 0.06773,0.67733 0.2032,0.99906 0.135466,0.37254 0.287866,0.62653 0.287866,1.04987 0,0.4572 -0.254,0.9144 -0.711199,0.9144 -0.524932,0 -0.982131,-0.47414 -1.981196,-1.9304 -0.846665,-1.2192 -1.354664,-2.2352 -2.726261,-2.2352 z"
           style="font-family:'Gan CLM';-inkscape-font-specification:'Gan CLM';fill:#000000;stroke:none"
           id="path123516" />
        <path
           d="m -47.255123,188.22351 c -0.982132,0 -1.422397,0.4572 -1.59173,1.15146 -0.135467,0.52494 -0.169333,1.10067 -0.169333,1.7272 0,0.94827 0.101599,1.74413 0.389466,2.3876 0.270932,0.64346 0.897464,0.94826 1.523997,0.94826 0.880531,0 1.38853,-0.47413 1.625596,-1.27 0.220133,-0.77893 0.254,-1.52399 0.254,-2.38759 0,-0.7112 -0.08467,-1.40547 -0.423333,-1.84573 -0.423332,-0.54187 -0.931331,-0.7112 -1.608663,-0.7112 z"
           style="font-family:'Gan CLM';-inkscape-font-specification:'Gan CLM';fill:#000000;stroke:none"
           id="path123518" />
        <path
           d="m -66.254239,188.24044 c -0.897465,0 -1.523997,0.69427 -1.523997,1.5748 0,0.4572 0.08467,0.72813 0.287866,1.13453 0.253999,0.57573 0.440266,0.93133 0.440266,1.59173 0,0.88053 -0.169333,1.64253 -0.440266,2.1844 -0.372533,0.72813 -0.660399,1.1684 -0.660399,1.96426 0,1.30386 0.694265,2.21826 2.218262,2.21826 1.117598,0 1.811864,-0.44026 1.811864,-1.16839 0,-0.47414 -0.169333,-0.762 -0.389466,-1.20227 -0.1524,-0.27093 -0.321733,-0.57573 -0.321733,-0.94826 0,-0.44027 0.237066,-0.72814 0.626532,-0.72814 0.745065,0 2.015063,1.1176 2.726261,2.31987 0.423333,0.72813 1.049865,1.57479 1.930397,1.57479 0.982131,0 1.422397,-0.52493 1.422397,-1.28693 0,-0.54186 -0.169333,-0.9144 -0.406399,-1.45626 -0.270933,-0.57573 -0.423333,-1.016 -0.423333,-1.6256 0,-0.72813 0.254,-1.35466 0.660399,-2.15053 0.304799,-0.59266 0.643465,-1.42239 0.643465,-1.98119 0,-0.54187 -0.237066,-1.04987 -0.592665,-1.3716 -0.592666,-0.52493 -1.134531,-0.77893 -1.69333,-0.77893 -0.846665,0 -1.388531,0.67733 -1.388531,1.33773 0,0.33866 0.06773,0.67733 0.2032,0.99906 0.135466,0.37254 0.287866,0.62653 0.287866,1.04987 0,0.4572 -0.254,0.9144 -0.711199,0.9144 -0.524932,0 -0.982131,-0.47414 -1.981196,-1.9304 -0.846665,-1.2192 -1.354664,-2.2352 -2.726261,-2.2352 z"
           style="font-family:'Gan CLM';-inkscape-font-specification:'Gan CLM';fill:#000000;stroke:none"
           id="path123520" />
        <path
           d="m -74.568488,188.08804 c -2.844795,0 -4.402658,1.4224 -4.402658,3.48826 0,1.65947 1.168397,2.47227 2.658528,2.47227 0.931331,0 1.371597,-0.508 1.371597,-1.10067 0,-0.4572 -0.372532,-0.7112 -0.372532,-1.13453 0,-0.49107 0.643465,-0.762 1.100664,-0.762 0.491066,0 0.999065,0.254 1.405464,0.6096 0.389466,0.33867 0.677332,0.8128 0.677332,1.27 0,1.03293 -0.761999,1.79493 -1.676397,2.11666 -1.117598,0.4064 -1.845729,0.2032 -3.064927,0.2032 -1.337731,0 -2.082796,0.37253 -2.065863,1.25306 0,1.6764 1.69333,2.3368 3.928526,2.3368 1.69333,0 3.047994,-0.52493 4.301058,-1.76106 1.219198,-1.18533 1.54093,-2.54 1.54093,-3.94546 0,-1.33773 -0.321732,-2.3876 -1.049864,-3.302 -0.931332,-1.15146 -2.387595,-1.74413 -4.351858,-1.74413 z"
           style="font-family:'Gan CLM';-inkscape-font-specification:'Gan CLM';fill:#000000;stroke:none"
           id="path123522" />
        <path
           d="m -91.857356,188.10498 c -1.015998,0 -1.811863,0.69426 -1.811863,2.55693 0,1.65946 0.270933,3.74225 1.422398,5.58798 1.23613,1.96427 3.014127,2.6924 5.300122,2.6924 1.862663,0 3.555993,-0.54187 5.096924,-2.55693 1.253064,-1.6256 1.862663,-3.82692 1.862663,-5.80812 0,-1.54093 -0.592666,-2.4892 -1.79493,-2.4892 -1.64253,0 -2.319862,1.84573 -2.319862,3.4544 0,1.86266 -1.015998,4.57199 -3.318927,4.33492 -0.440266,-0.0339 -0.795865,-0.27093 -0.795865,-0.762 0,-0.33866 0.237066,-0.64346 0.626532,-0.82973 0.507999,-0.23706 1.049865,-0.6096 1.49013,-1.08373 0.575733,-0.64346 1.100665,-1.99813 1.100665,-3.38666 0,-0.9652 -0.761999,-1.7272 -1.964263,-1.7272 -1.676397,0 -1.828796,1.6764 -1.896529,3.048 -0.03387,0.57573 -0.1524,1.25306 -0.677332,1.25306 -0.440266,0 -0.660399,-0.508 -0.677332,-1.03293 -0.01693,-0.5588 0.0508,-0.8636 0.03387,-1.43933 -0.03387,-1.13453 -0.711198,-1.81186 -1.676397,-1.81186 z"
           style="font-family:'Gan CLM';-inkscape-font-specification:'Gan CLM';fill:#000000;stroke:none"
           id="path123524" />
        <path
           d="m -100.22239,188.12191 c -1.7272,0 -3.2004,0.0847 -4.11479,0.72813 -0.5588,0.38947 -0.99907,1.03293 -0.99907,1.79493 0,0.98213 0.84667,1.6764 1.8288,1.6764 1.15146,0 1.77799,-0.762 2.99719,-0.762 1.405466,0 2.387598,0.69427 2.387598,2.2352 0,1.15146 -0.389466,1.57479 -0.389466,2.79399 0,1.33773 0.609599,2.16746 1.761063,2.16746 1.89653,0 2.065863,-2.94639 2.065863,-5.11385 0,-3.11573 -1.032932,-5.52026 -5.537188,-5.52026 z"
           style="font-family:'Gan CLM';-inkscape-font-specification:'Gan CLM';fill:#000000;stroke:none"
           id="path123526" />
        <path
           d="m -108.68904,195.35243 c -0.91439,0 -1.69333,0.69427 -1.69333,1.59173 0,1.1176 0.762,1.86266 1.84573,1.86266 0.93134,0 1.65947,-0.6096 1.65947,-1.79493 0,-0.9144 -0.77893,-1.65946 -1.81187,-1.65946 z m 0.2032,-9.11012 c -1.49013,0 -1.93039,2.3368 -1.93039,4.19946 0,1.71027 0.4064,4.01319 1.76106,4.01319 1.60866,0 1.96426,-2.52306 1.96426,-4.63972 0,-1.69333 -0.47413,-3.57293 -1.79493,-3.57293 z"
           style="font-family:'Gan CLM';-inkscape-font-specification:'Gan CLM';fill:#000000;stroke:none"
           id="path123528" />
        <path
           d="m -113.24406,186.90271 c -1.4224,0 -1.96426,1.81187 -1.96426,3.2512 0,0.69426 0.37253,0.96519 1.01599,0.96519 0.99907,0 2.42147,-1.45626 2.42147,-2.91252 0,-0.88053 -0.69427,-1.30387 -1.4732,-1.30387 z m -3.89466,0 c -1.4224,0 -1.96426,1.81187 -1.96426,3.2512 0,0.69426 0.37253,0.96519 1.016,0.96519 0.99906,0 2.42146,-1.45626 2.42146,-2.91252 0,-0.88053 -0.69427,-1.30387 -1.4732,-1.30387 z"
           style="font-family:'Gan CLM';-inkscape-font-specification:'Gan CLM';fill:#000000;stroke:none"
           id="path123530" />
      </g>
      <g
         aria-label="מיאו! מיאו! מיאו!"
         id="text102466"
         style="font-size:16.9333px;line-height:125%;font-family:Sans;-inkscape-font-specification:'Adobe Helvetica';letter-spacing:0px;word-spacing:0px;direction:rtl;fill:none;stroke:#000000;stroke-width:0.264583px">
        <path
           d="m 85.298495,219.709 c -0.999065,0 -1.59173,0.79586 -1.59173,1.71026 0,1.0668 0.846665,1.7272 0.897465,2.7432 0.08467,1.47319 -0.965198,2.23519 -0.965198,4.01319 0,1.25306 0.457199,2.26906 1.523997,2.26906 0.778931,0 1.269997,-0.4064 1.64253,-1.016 0.524932,-0.88053 0.626532,-2.23519 0.812798,-3.35279 0.3048,-1.7272 0.897465,-3.01413 2.184396,-3.01413 1.032931,0 1.761063,0.93133 1.761063,1.94733 0,1.33773 -0.558799,1.8288 -1.405464,2.01506 -1.38853,0.33867 -1.930396,0.77894 -1.930396,1.8796 0,1.016 0.863598,1.59173 2.218262,1.59173 2.573862,0 4.047059,-1.8796 4.047059,-5.87585 0,-2.3368 -1.286931,-4.94453 -3.945459,-4.94453 -1.574797,0 -1.507064,0.88053 -2.692395,0.88053 -0.965198,0 -1.320797,-0.84666 -2.556928,-0.84666 z"
           style="font-family:'Gan CLM';-inkscape-font-specification:'Gan CLM';fill:#000000;stroke:none"
           id="path123419" />
        <path
           d="m 80.591066,219.8106 c -0.982131,0 -1.422397,0.4572 -1.59173,1.15146 -0.135466,0.52494 -0.169333,1.10067 -0.169333,1.7272 0,0.94826 0.1016,1.74413 0.389466,2.3876 0.270933,0.64346 0.897465,0.94826 1.523997,0.94826 0.880532,0 1.388531,-0.47413 1.625597,-1.27 0.220133,-0.77893 0.253999,-1.52399 0.253999,-2.38759 0,-0.7112 -0.08467,-1.40547 -0.423332,-1.84573 -0.423333,-0.54187 -0.931332,-0.7112 -1.608664,-0.7112 z"
           style="font-family:'Gan CLM';-inkscape-font-specification:'Gan CLM';fill:#000000;stroke:none"
           id="path123421" />
        <path
           d="m 69.211907,219.82753 c -0.897465,0 -1.523997,0.69427 -1.523997,1.5748 0,0.4572 0.08467,0.72813 0.287866,1.13453 0.254,0.57573 0.440266,0.93133 0.440266,1.59173 0,0.88053 -0.169333,1.64253 -0.440266,2.1844 -0.372532,0.72813 -0.660399,1.16839 -0.660399,1.96426 0,1.30386 0.694266,2.21826 2.218263,2.21826 1.117598,0 1.811863,-0.44026 1.811863,-1.1684 0,-0.47413 -0.169333,-0.762 -0.389466,-1.20226 -0.1524,-0.27093 -0.321733,-0.57573 -0.321733,-0.94827 0,-0.44026 0.237066,-0.72813 0.626532,-0.72813 0.745066,0 2.015063,1.1176 2.726262,2.31986 0.423332,0.72814 1.049864,1.5748 1.930396,1.5748 0.982131,0 1.422397,-0.52493 1.422397,-1.28693 0,-0.54187 -0.169333,-0.9144 -0.406399,-1.45626 -0.270933,-0.57574 -0.423333,-1.016 -0.423333,-1.6256 0,-0.72813 0.254,-1.35466 0.660399,-2.15053 0.304799,-0.59266 0.643465,-1.4224 0.643465,-1.9812 0,-0.54186 -0.237066,-1.04986 -0.592665,-1.37159 -0.592666,-0.52493 -1.134531,-0.77893 -1.69333,-0.77893 -0.846665,0 -1.388531,0.67733 -1.388531,1.33773 0,0.33866 0.06773,0.67733 0.2032,0.99906 0.135466,0.37253 0.287866,0.62653 0.287866,1.04987 0,0.45719 -0.253999,0.91439 -0.711199,0.91439 -0.524932,0 -0.982131,-0.47413 -1.981196,-1.93039 -0.846665,-1.2192 -1.354664,-2.2352 -2.726261,-2.2352 z"
           style="font-family:'Gan CLM';-inkscape-font-specification:'Gan CLM';fill:#000000;stroke:none"
           id="path123423" />
        <path
           d="m 63.945678,219.74287 c -1.38853,0 -2.031996,1.13453 -2.031996,2.16746 0,1.1684 0.575732,1.71026 0.643466,3.55599 0.0508,1.15147 -0.06773,1.84573 0.01693,2.9972 0.06773,0.89746 0.321733,1.87959 1.64253,1.87959 1.015998,0 1.507064,-0.88053 1.727197,-1.86266 0.287866,-1.30387 0.355599,-2.54 0.355599,-3.87773 0,-0.98213 -0.03387,-2.35373 -0.355599,-3.30199 -0.321733,-0.94827 -0.965198,-1.55786 -1.99813,-1.55786 z"
           style="font-family:'Gan CLM';-inkscape-font-specification:'Gan CLM';fill:#000000;stroke:none"
           id="path123425" />
        <path
           d="m 58.560897,226.93952 c -0.914398,0 -1.69333,0.69426 -1.69333,1.59173 0,1.1176 0.761999,1.86266 1.84573,1.86266 0.931331,0 1.659463,-0.6096 1.659463,-1.79493 0,-0.9144 -0.778932,-1.65946 -1.811863,-1.65946 z m 0.2032,-9.11012 c -1.490131,0 -1.930397,2.3368 -1.930397,4.19946 0,1.71026 0.4064,4.01319 1.761064,4.01319 1.608663,0 1.964262,-2.52306 1.964262,-4.63972 0,-1.69333 -0.474132,-3.57293 -1.794929,-3.57293 z"
           style="font-family:'Gan CLM';-inkscape-font-specification:'Gan CLM';fill:#000000;stroke:none"
           id="path123427" />
        <path
           d="m 38.664317,219.709 c -0.999065,0 -1.59173,0.79586 -1.59173,1.71026 0,1.0668 0.846665,1.7272 0.897465,2.7432 0.08467,1.47319 -0.965199,2.23519 -0.965199,4.01319 0,1.25306 0.4572,2.26906 1.523997,2.26906 0.778932,0 1.269998,-0.4064 1.642531,-1.016 0.524932,-0.88053 0.626532,-2.23519 0.812798,-3.35279 0.304799,-1.7272 0.897465,-3.01413 2.184396,-3.01413 1.032931,0 1.761063,0.93133 1.761063,1.94733 0,1.33773 -0.558799,1.8288 -1.405464,2.01506 -1.388531,0.33867 -1.930396,0.77894 -1.930396,1.8796 0,1.016 0.863598,1.59173 2.218262,1.59173 2.573862,0 4.047059,-1.8796 4.047059,-5.87585 0,-2.3368 -1.286931,-4.94453 -3.945459,-4.94453 -1.574797,0 -1.507064,0.88053 -2.692395,0.88053 -0.965198,0 -1.320797,-0.84666 -2.556928,-0.84666 z"
           style="font-family:'Gan CLM';-inkscape-font-specification:'Gan CLM';fill:#000000;stroke:none"
           id="path123429" />
        <path
           d="m 33.956888,219.8106 c -0.982131,0 -1.422397,0.4572 -1.59173,1.15146 -0.135467,0.52494 -0.169333,1.10067 -0.169333,1.7272 0,0.94826 0.1016,1.74413 0.389466,2.3876 0.270933,0.64346 0.897465,0.94826 1.523997,0.94826 0.880531,0 1.38853,-0.47413 1.625597,-1.27 0.220132,-0.77893 0.253999,-1.52399 0.253999,-2.38759 0,-0.7112 -0.08467,-1.40547 -0.423332,-1.84573 -0.423333,-0.54187 -0.931332,-0.7112 -1.608664,-0.7112 z"
           style="font-family:'Gan CLM';-inkscape-font-specification:'Gan CLM';fill:#000000;stroke:none"
           id="path123431" />
        <path
           d="m 22.577737,219.82753 c -0.897465,0 -1.523997,0.69427 -1.523997,1.5748 0,0.4572 0.08467,0.72813 0.287866,1.13453 0.253999,0.57573 0.440265,0.93133 0.440265,1.59173 0,0.88053 -0.169333,1.64253 -0.440265,2.1844 -0.372533,0.72813 -0.660399,1.16839 -0.660399,1.96426 0,1.30386 0.694265,2.21826 2.218262,2.21826 1.117598,0 1.811863,-0.44026 1.811863,-1.1684 0,-0.47413 -0.169333,-0.762 -0.389466,-1.20226 -0.152399,-0.27093 -0.321732,-0.57573 -0.321732,-0.94827 0,-0.44026 0.237066,-0.72813 0.626532,-0.72813 0.745065,0 2.015063,1.1176 2.726261,2.31986 0.423333,0.72814 1.049865,1.5748 1.930396,1.5748 0.982132,0 1.422398,-0.52493 1.422398,-1.28693 0,-0.54187 -0.169333,-0.9144 -0.4064,-1.45626 -0.270932,-0.57574 -0.423332,-1.016 -0.423332,-1.6256 0,-0.72813 0.253999,-1.35466 0.660399,-2.15053 0.304799,-0.59266 0.643465,-1.4224 0.643465,-1.9812 0,-0.54186 -0.237066,-1.04986 -0.592666,-1.37159 -0.592665,-0.52493 -1.134531,-0.77893 -1.69333,-0.77893 -0.846665,0 -1.38853,0.67733 -1.38853,1.33773 0,0.33866 0.06773,0.67733 0.203199,0.99906 0.135467,0.37253 0.287867,0.62653 0.287867,1.04987 0,0.45719 -0.254,0.91439 -0.711199,0.91439 -0.524932,0 -0.982131,-0.47413 -1.981196,-1.93039 -0.846665,-1.2192 -1.354664,-2.2352 -2.726261,-2.2352 z"
           style="font-family:'Gan CLM';-inkscape-font-specification:'Gan CLM';fill:#000000;stroke:none"
           id="path123433" />
        <path
           d="m 17.311508,219.74287 c -1.388531,0 -2.031996,1.13453 -2.031996,2.16746 0,1.1684 0.575732,1.71026 0.643465,3.55599 0.0508,1.15147 -0.06773,1.84573 0.01693,2.9972 0.06773,0.89746 0.321733,1.87959 1.642531,1.87959 1.015998,0 1.507063,-0.88053 1.727196,-1.86266 0.287866,-1.30387 0.355599,-2.54 0.355599,-3.87773 0,-0.98213 -0.03387,-2.35373 -0.355599,-3.30199 -0.321733,-0.94827 -0.965198,-1.55786 -1.998129,-1.55786 z"
           style="font-family:'Gan CLM';-inkscape-font-specification:'Gan CLM';fill:#000000;stroke:none"
           id="path123435" />
        <path
           d="m 11.926723,226.93952 c -0.914398,0 -1.69333,0.69426 -1.69333,1.59173 0,1.1176 0.761998,1.86266 1.845729,1.86266 0.931332,0 1.659464,-0.6096 1.659464,-1.79493 0,-0.9144 -0.778932,-1.65946 -1.811863,-1.65946 z m 0.203199,-9.11012 c -1.49013,0 -1.930396,2.3368 -1.930396,4.19946 0,1.71026 0.406399,4.01319 1.761063,4.01319 1.608664,0 1.964263,-2.52306 1.964263,-4.63972 0,-1.69333 -0.474132,-3.57293 -1.79493,-3.57293 z"
           style="font-family:'Gan CLM';-inkscape-font-specification:'Gan CLM';fill:#000000;stroke:none"
           id="path123437" />
        <path
           d="m -7.9698555,219.709 c -0.9990647,0 -1.5917302,0.79586 -1.5917302,1.71026 0,1.0668 0.846665,1.7272 0.8974649,2.7432 0.084666,1.47319 -0.9651981,2.23519 -0.9651981,4.01319 0,1.25306 0.4571991,2.26906 1.523997,2.26906 0.7789318,0 1.2699975,-0.4064 1.6425301,-1.016 0.5249323,-0.88053 0.6265321,-2.23519 0.8127984,-3.35279 0.3047994,-1.7272 0.8974649,-3.01413 2.1843957,-3.01413 1.0329313,0 1.7610632,0.93133 1.7610632,1.94733 0,1.33773 -0.5587989,1.8288 -1.4054639,2.01506 -1.3885306,0.33867 -1.9303962,0.77894 -1.9303962,1.8796 0,1.016 0.8635983,1.59173 2.2182623,1.59173 2.57386157,0 4.0470587,-1.8796 4.0470587,-5.87585 0,-2.3368 -1.28693083,-4.94453 -3.9454589,-4.94453 -1.5747969,0 -1.5070637,0.88053 -2.6923947,0.88053 -0.9651981,0 -1.3207974,-0.84666 -2.5569283,-0.84666 z"
           style="font-family:'Gan CLM';-inkscape-font-specification:'Gan CLM';fill:#000000;stroke:none"
           id="path123439" />
        <path
           d="m -12.677288,219.8106 c -0.982132,0 -1.422397,0.4572 -1.59173,1.15146 -0.135467,0.52494 -0.169333,1.10067 -0.169333,1.7272 0,0.94826 0.101599,1.74413 0.389466,2.3876 0.270932,0.64346 0.897464,0.94826 1.523997,0.94826 0.880531,0 1.38853,-0.47413 1.625596,-1.27 0.220133,-0.77893 0.254,-1.52399 0.254,-2.38759 0,-0.7112 -0.08467,-1.40547 -0.423333,-1.84573 -0.423332,-0.54187 -0.931331,-0.7112 -1.608663,-0.7112 z"
           style="font-family:'Gan CLM';-inkscape-font-specification:'Gan CLM';fill:#000000;stroke:none"
           id="path123441" />
        <path
           d="m -24.056439,219.82753 c -0.897465,0 -1.523997,0.69427 -1.523997,1.5748 0,0.4572 0.08467,0.72813 0.287866,1.13453 0.254,0.57573 0.440266,0.93133 0.440266,1.59173 0,0.88053 -0.169333,1.64253 -0.440266,2.1844 -0.372532,0.72813 -0.660398,1.16839 -0.660398,1.96426 0,1.30386 0.694265,2.21826 2.218262,2.21826 1.117598,0 1.811863,-0.44026 1.811863,-1.1684 0,-0.47413 -0.169333,-0.762 -0.389466,-1.20226 -0.1524,-0.27093 -0.321733,-0.57573 -0.321733,-0.94827 0,-0.44026 0.237067,-0.72813 0.626533,-0.72813 0.745065,0 2.015062,1.1176 2.726261,2.31986 0.423332,0.72814 1.049864,1.5748 1.930396,1.5748 0.982131,0 1.422397,-0.52493 1.422397,-1.28693 0,-0.54187 -0.169333,-0.9144 -0.406399,-1.45626 -0.270933,-0.57574 -0.423332,-1.016 -0.423332,-1.6256 0,-0.72813 0.253999,-1.35466 0.660398,-2.15053 0.3048,-0.59266 0.643466,-1.4224 0.643466,-1.9812 0,-0.54186 -0.237067,-1.04986 -0.592666,-1.37159 -0.592665,-0.52493 -1.134531,-0.77893 -1.69333,-0.77893 -0.846665,0 -1.38853,0.67733 -1.38853,1.33773 0,0.33866 0.06773,0.67733 0.203199,0.99906 0.135467,0.37253 0.287866,0.62653 0.287866,1.04987 0,0.45719 -0.253999,0.91439 -0.711198,0.91439 -0.524933,0 -0.982132,-0.47413 -1.981196,-1.93039 -0.846665,-1.2192 -1.354664,-2.2352 -2.726262,-2.2352 z"
           style="font-family:'Gan CLM';-inkscape-font-specification:'Gan CLM';fill:#000000;stroke:none"
           id="path123443" />
        <path
           d="m -29.322667,219.74287 c -1.388531,0 -2.031996,1.13453 -2.031996,2.16746 0,1.1684 0.575732,1.71026 0.643465,3.55599 0.0508,1.15147 -0.06773,1.84573 0.01693,2.9972 0.06773,0.89746 0.321732,1.87959 1.64253,1.87959 1.015998,0 1.507063,-0.88053 1.727196,-1.86266 0.287866,-1.30387 0.3556,-2.54 0.3556,-3.87773 0,-0.98213 -0.03387,-2.35373 -0.3556,-3.30199 -0.321732,-0.94827 -0.965198,-1.55786 -1.998129,-1.55786 z"
           style="font-family:'Gan CLM';-inkscape-font-specification:'Gan CLM';fill:#000000;stroke:none"
           id="path123445" />
        <path
           d="m -34.707451,226.93952 c -0.914398,0 -1.69333,0.69426 -1.69333,1.59173 0,1.1176 0.761999,1.86266 1.84573,1.86266 0.931331,0 1.659463,-0.6096 1.659463,-1.79493 0,-0.9144 -0.778932,-1.65946 -1.811863,-1.65946 z m 0.2032,-9.11012 c -1.490131,0 -1.930396,2.3368 -1.930396,4.19946 0,1.71026 0.406399,4.01319 1.761063,4.01319 1.608663,0 1.964263,-2.52306 1.964263,-4.63972 0,-1.69333 -0.474133,-3.57293 -1.79493,-3.57293 z"
           style="font-family:'Gan CLM';-inkscape-font-specification:'Gan CLM';fill:#000000;stroke:none"
           id="path123447" />
      </g>
    </g>
  </g>
</svg>
