<?xml version="1.0" encoding="UTF-8" standalone="no"?>
<svg
   xmlns:dc="http://purl.org/dc/elements/1.1/"
   xmlns:cc="http://creativecommons.org/ns#"
   xmlns:rdf="http://www.w3.org/1999/02/22-rdf-syntax-ns#"
   xmlns:svg="http://www.w3.org/2000/svg"
   xmlns="http://www.w3.org/2000/svg"
   id="svg8"
   version="1.1"
   viewBox="0 0 223.01306 36.713329"
   height="100%"
   width="100%">
  <defs
     id="defs2" />
  <metadata
     id="metadata5">
    <rdf:RDF>
      <cc:Work
         rdf:about="">
        <dc:format>image/svg+xml</dc:format>
        <dc:type
           rdf:resource="http://purl.org/dc/dcmitype/StillImage" />
        <dc:title></dc:title>
      </cc:Work>
    </rdf:RDF>
  </metadata>
  <g
     transform="translate(36.146097,-76.441182)"
     id="layer1">
    <g
       id="text4520"
       style="font-style:normal;font-variant:normal;font-weight:bold;font-stretch:semi-expanded;font-size:16.93333244px;line-height:125%;font-family:'Gladia CLM';-inkscape-font-specification:'Gladia CLM, Bold Semi-Expanded';font-variant-ligatures:normal;font-variant-caps:normal;font-variant-numeric:normal;font-feature-settings:normal;text-align:end;letter-spacing:0px;word-spacing:0px;writing-mode:lr-tb;text-anchor:end;fill:#000000;fill-opacity:1;stroke:none;stroke-width:0.26458332px;stroke-linecap:butt;stroke-linejoin:miter;stroke-opacity:1"
       aria-label="זה רעך יצחק הטייס מתעופף
.כנשר גדול בין שמים וארץ">
      <path
         id="path4543"
         style="font-style:normal;font-variant:normal;font-weight:bold;font-stretch:semi-expanded;font-size:16.93333244px;font-family:'Gladia CLM';-inkscape-font-specification:'Gladia CLM, Bold Semi-Expanded';font-variant-ligatures:normal;font-variant-caps:normal;font-variant-numeric:normal;font-feature-settings:normal;text-align:end;writing-mode:lr-tb;text-anchor:end;stroke-width:0.26458332px"
         d="m 182.81896,87.008514 c 0,0.389467 0.28787,0.677334 0.67734,0.677334 0.37253,0 0.67733,-0.287867 0.67733,-0.677334 v -6.688666 c 0,-0.186267 0.13547,-0.338667 0.33867,-0.338667 h 0.67733 c 0.37253,0 0.67733,-0.287866 0.67733,-0.677333 v -1.185333 c 0,-0.372533 -0.3048,-0.677333 -0.67733,-0.677333 h -3.72533 c -0.38947,0 -0.67734,0.3048 -0.67734,0.677333 v 1.185333 c 0,0.389467 0.28787,0.677333 0.67734,0.677333 h 1.016 c 0.18626,0 0.33866,0.1524 0.33866,0.338667 z" />
      <path
         id="path4545"
         style="font-style:normal;font-variant:normal;font-weight:bold;font-stretch:semi-expanded;font-size:16.93333244px;font-family:'Gladia CLM';-inkscape-font-specification:'Gladia CLM, Bold Semi-Expanded';font-variant-ligatures:normal;font-variant-caps:normal;font-variant-numeric:normal;font-feature-settings:normal;text-align:end;writing-mode:lr-tb;text-anchor:end;stroke-width:0.26458332px"
         d="m 171.12835,83.198515 c 0,-0.372534 -0.3048,-0.677334 -0.67733,-0.677334 -0.38947,0 -0.67733,0.3048 -0.67733,0.677334 v 3.725333 c 0,0.389466 0.28786,0.677333 0.67733,0.677333 h 1.524 c 0.37253,0 0.67733,-0.287867 0.67733,-0.677333 v -1.185334 c 0,-0.372533 -0.3048,-0.677333 -0.67733,-0.677333 h -0.508 c -0.2032,0 -0.33867,-0.135466 -0.33867,-0.338666 z m 6.604,3.809999 c 0,0.389467 0.28787,0.677334 0.67734,0.677334 0.37253,0 0.67733,-0.287867 0.67733,-0.677334 v -8.889999 c 0,-0.372533 -0.3048,-0.677333 -0.67733,-0.677333 h -7.95867 c -0.38947,0 -0.67733,0.3048 -0.67733,0.677333 v 1.185333 c 0,0.389467 0.28786,0.677333 0.67733,0.677333 h 6.94267 c 0.18626,0 0.33866,0.1524 0.33866,0.338667 z" />
      <path
         id="path4547"
         style="font-style:normal;font-variant:normal;font-weight:bold;font-stretch:semi-expanded;font-size:16.93333244px;font-family:'Gladia CLM';-inkscape-font-specification:'Gladia CLM, Bold Semi-Expanded';font-variant-ligatures:normal;font-variant-caps:normal;font-variant-numeric:normal;font-feature-settings:normal;text-align:end;writing-mode:lr-tb;text-anchor:end;stroke-width:0.26458332px"
         d="m 159.96029,87.008514 c 0,0.389467 0.28786,0.677334 0.67733,0.677334 0.37253,0 0.67733,-0.287867 0.67733,-0.677334 v -8.889999 c 0,-0.372533 -0.3048,-0.677333 -0.67733,-0.677333 h -7.45067 c -0.38946,0 -0.67733,0.3048 -0.67733,0.677333 v 1.185333 c 0,0.389467 0.28787,0.677333 0.67733,0.677333 h 6.43467 c 0.18627,0 0.33867,0.1524 0.33867,0.338667 z" />
      <path
         id="path4549"
         style="font-style:normal;font-variant:normal;font-weight:bold;font-stretch:semi-expanded;font-size:16.93333244px;font-family:'Gladia CLM';-inkscape-font-specification:'Gladia CLM, Bold Semi-Expanded';font-variant-ligatures:normal;font-variant-caps:normal;font-variant-numeric:normal;font-feature-settings:normal;text-align:end;writing-mode:lr-tb;text-anchor:end;stroke-width:0.26458332px"
         d="m 150.81364,86.923848 v -8.805333 c 0,-0.372533 -0.3048,-0.677333 -0.67734,-0.677333 h -2.20133 c -0.38947,0 -0.67733,0.3048 -0.67733,0.677333 v 1.185333 c 0,0.389467 0.28786,0.677333 0.67733,0.677333 h 1.18533 c 0.18627,0 0.33867,0.1524 0.33867,0.338667 v 4.402667 c 0,0.2032 -0.1524,0.338666 -0.33867,0.338666 h -3.89466 c -0.2032,0 -0.33867,-0.135466 -0.33867,-0.338666 v -6.604 c 0,-0.372533 -0.3048,-0.677333 -0.67733,-0.677333 h -2.20134 c -0.38946,0 -0.67733,0.3048 -0.67733,0.677333 v 1.185333 c 0,0.389467 0.28787,0.677333 0.67733,0.677333 h 1.18534 c 0.18626,0 0.33866,0.1524 0.33866,0.338667 v 4.402667 c 0,0.2032 -0.1524,0.338666 -0.33866,0.338666 h -1.18534 c -0.38946,0 -0.67733,0.3048 -0.67733,0.677333 v 1.185334 c 0,0.389466 0.28787,0.677333 0.67733,0.677333 h 8.128 c 0.37254,0 0.67734,-0.287867 0.67734,-0.677333 z" />
      <path
         id="path4551"
         style="font-style:normal;font-variant:normal;font-weight:bold;font-stretch:semi-expanded;font-size:16.93333244px;font-family:'Gladia CLM';-inkscape-font-specification:'Gladia CLM, Bold Semi-Expanded';font-variant-ligatures:normal;font-variant-caps:normal;font-variant-numeric:normal;font-feature-settings:normal;text-align:end;writing-mode:lr-tb;text-anchor:end;stroke-width:0.26458332px"
         d="m 138.2896,90.310514 c 0,0.389467 0.28787,0.677334 0.67734,0.677334 0.37253,0 0.67733,-0.287867 0.67733,-0.677334 V 78.118515 c 0,-0.372533 -0.3048,-0.677333 -0.67733,-0.677333 h -7.112 c -0.38947,0 -0.67734,0.3048 -0.67734,0.677333 v 1.185333 c 0,0.389467 0.28787,0.677333 0.67734,0.677333 h 6.096 c 0.18626,0 0.33866,0.1524 0.33866,0.338667 z" />
      <path
         id="path4553"
         style="font-style:normal;font-variant:normal;font-weight:bold;font-stretch:semi-expanded;font-size:16.93333244px;font-family:'Gladia CLM';-inkscape-font-specification:'Gladia CLM, Bold Semi-Expanded';font-variant-ligatures:normal;font-variant-caps:normal;font-variant-numeric:normal;font-feature-settings:normal;text-align:end;writing-mode:lr-tb;text-anchor:end;stroke-width:0.26458332px"
         d="m 121.35626,82.690515 c 0,0.389466 0.28786,0.677333 0.67733,0.677333 0.37253,0 0.67733,-0.287867 0.67733,-0.677333 v -4.572 c 0,-0.372533 -0.3048,-0.677333 -0.67733,-0.677333 h -2.87867 c -0.38946,0 -0.67733,0.3048 -0.67733,0.677333 v 1.185333 c 0,0.389467 0.28787,0.677333 0.67733,0.677333 h 1.86267 c 0.18627,0 0.33867,0.1524 0.33867,0.338667 z" />
      <path
         id="path4555"
         style="font-style:normal;font-variant:normal;font-weight:bold;font-stretch:semi-expanded;font-size:16.93333244px;font-family:'Gladia CLM';-inkscape-font-specification:'Gladia CLM, Bold Semi-Expanded';font-variant-ligatures:normal;font-variant-caps:normal;font-variant-numeric:normal;font-feature-settings:normal;text-align:end;writing-mode:lr-tb;text-anchor:end;stroke-width:0.26458332px"
         d="m 114.64007,83.215448 1.43934,-0.846667 c 0.52493,-0.3048 0.69426,-0.7112 0.69426,-1.27 v -2.980266 c 0,-0.372533 -0.3048,-0.677333 -0.67733,-0.677333 h -2.032 c -0.38947,0 -0.67733,0.3048 -0.67733,0.677333 v 1.185333 c 0,0.389467 0.28786,0.677333 0.67733,0.677333 h 1.016 c 0.18627,0 0.33867,0.1524 0.33867,0.338667 v 0.6604 c 0,0.118533 -0.0847,0.237067 -0.18627,0.287867 l -2.01507,1.1684 -2.032,-1.100667 c -0.1016,-0.06773 -0.16933,-0.186267 -0.16933,-0.3048 v -2.912533 c 0,-0.372533 -0.3048,-0.677333 -0.67733,-0.677333 h -2.032 c -0.38947,0 -0.67734,0.3048 -0.67734,0.677333 v 1.185333 c 0,0.389467 0.28787,0.677333 0.67734,0.677333 h 1.016 c 0.18626,0 0.33866,0.1524 0.33866,0.338667 v 1.185333 c 0,0.5588 0.1524,0.9652 0.67734,1.27 l 3.52213,1.8288 c 0.27093,0.169334 0.22013,0.4572 -0.1016,0.4572 h -5.11387 c -0.38946,0 -0.67733,0.3048 -0.67733,0.677333 v 1.185334 c 0,0.389466 0.28787,0.677333 0.67733,0.677333 h 7.45067 c 0.37253,0 0.67733,-0.287867 0.67733,-0.677333 v -2.1336 c 0,-0.254 -0.13546,-0.474133 -0.33866,-0.575733 z" />
      <path
         id="path4557"
         style="font-style:normal;font-variant:normal;font-weight:bold;font-stretch:semi-expanded;font-size:16.93333244px;font-family:'Gladia CLM';-inkscape-font-specification:'Gladia CLM, Bold Semi-Expanded';font-variant-ligatures:normal;font-variant-caps:normal;font-variant-numeric:normal;font-feature-settings:normal;text-align:end;writing-mode:lr-tb;text-anchor:end;stroke-width:0.26458332px"
         d="m 97.293733,77.441182 c -0.389467,0 -0.677333,0.3048 -0.677333,0.677333 v 8.889999 c 0,0.389467 0.287866,0.677334 0.677333,0.677334 0.372533,0 0.677333,-0.287867 0.677333,-0.677334 v -6.688666 c 0,-0.186267 0.135467,-0.338667 0.338667,-0.338667 h 5.926667 c 0.18627,0 0.33867,0.1524 0.33867,0.338667 v 6.688666 c 0,0.389467 0.28786,0.677334 0.67733,0.677334 0.37253,0 0.67733,-0.287867 0.67733,-0.677334 v -8.889999 c 0,-0.372533 -0.3048,-0.677333 -0.67733,-0.677333 z" />
      <path
         id="path4559"
         style="font-style:normal;font-variant:normal;font-weight:bold;font-stretch:semi-expanded;font-size:16.93333244px;font-family:'Gladia CLM';-inkscape-font-specification:'Gladia CLM, Bold Semi-Expanded';font-variant-ligatures:normal;font-variant-caps:normal;font-variant-numeric:normal;font-feature-settings:normal;text-align:end;writing-mode:lr-tb;text-anchor:end;stroke-width:0.26458332px"
         d="m 86.445817,90.987848 h 0.169334 c 0.372533,0 0.677333,-0.287867 0.677333,-0.677334 v -7.924799 c 0,-0.372534 -0.3048,-0.677334 -0.677333,-0.677334 h -0.169334 c -0.389466,0 -0.677333,0.3048 -0.677333,0.677334 v 7.924799 c 0,0.389467 0.287867,0.677334 0.677333,0.677334 z m 8.466667,-4.064 v -8.805333 c 0,-0.372533 -0.3048,-0.677333 -0.677334,-0.677333 h -7.789333 c -0.389466,0 -0.677333,0.3048 -0.677333,0.677333 v 1.185333 c 0,0.389467 0.287867,0.677333 0.677333,0.677333 h 6.773333 c 0.186267,0 0.338667,0.1524 0.338667,0.338667 v 4.402667 c 0,0.2032 -0.1524,0.338666 -0.338667,0.338666 h -3.386666 c -0.389467,0 -0.677333,0.3048 -0.677333,0.677333 v 1.185334 c 0,0.389466 0.287866,0.677333 0.677333,0.677333 h 4.402666 c 0.372534,0 0.677334,-0.287867 0.677334,-0.677333 z" />
      <path
         id="path4561"
         style="font-style:normal;font-variant:normal;font-weight:bold;font-stretch:semi-expanded;font-size:16.93333244px;font-family:'Gladia CLM';-inkscape-font-specification:'Gladia CLM, Bold Semi-Expanded';font-variant-ligatures:normal;font-variant-caps:normal;font-variant-numeric:normal;font-feature-settings:normal;text-align:end;writing-mode:lr-tb;text-anchor:end;stroke-width:0.26458332px"
         d="m 69.329915,83.198515 c 0,-0.372534 -0.3048,-0.677334 -0.677333,-0.677334 -0.389467,0 -0.677334,0.3048 -0.677334,0.677334 v 3.725333 c 0,0.389466 0.287867,0.677333 0.677334,0.677333 h 1.524 c 0.372533,0 0.677333,-0.287867 0.677333,-0.677333 v -1.185334 c 0,-0.372533 -0.3048,-0.677333 -0.677333,-0.677333 h -0.508 c -0.2032,0 -0.338667,-0.135466 -0.338667,-0.338666 z m 6.604,3.809999 c 0,0.389467 0.287866,0.677334 0.677333,0.677334 0.372533,0 0.677333,-0.287867 0.677333,-0.677334 v -8.889999 c 0,-0.372533 -0.3048,-0.677333 -0.677333,-0.677333 h -7.958666 c -0.389467,0 -0.677334,0.3048 -0.677334,0.677333 v 1.185333 c 0,0.389467 0.287867,0.677333 0.677334,0.677333 h 6.942666 c 0.186267,0 0.338667,0.1524 0.338667,0.338667 z" />
      <path
         id="path4563"
         style="font-style:normal;font-variant:normal;font-weight:bold;font-stretch:semi-expanded;font-size:16.93333244px;font-family:'Gladia CLM';-inkscape-font-specification:'Gladia CLM, Bold Semi-Expanded';font-variant-ligatures:normal;font-variant-caps:normal;font-variant-numeric:normal;font-feature-settings:normal;text-align:end;writing-mode:lr-tb;text-anchor:end;stroke-width:0.26458332px"
         d="m 60.783872,80.607715 c 0,0.423333 0.270933,0.677333 0.6604,0.423333 l 1.3208,-0.694267 c 0.3556,-0.220133 0.711199,-0.3556 1.185333,-0.3556 h 0.643466 c 0.186267,0 0.338667,0.1524 0.338667,0.338667 v 4.402667 c 0,0.2032 -0.1524,0.338666 -0.338667,0.338666 h -6.434666 c -0.2032,0 -0.338667,-0.135466 -0.338667,-0.338666 v -4.402667 c 0,-0.186267 0.135467,-0.338667 0.338667,-0.338667 h 0.338667 c 0.372533,0 0.677333,-0.287866 0.677333,-0.677333 v -1.185333 c 0,-0.372533 -0.3048,-0.677333 -0.677333,-0.677333 h -1.354667 c -0.389466,0 -0.677333,0.3048 -0.677333,0.677333 v 8.805333 c 0,0.389466 0.287867,0.677333 0.677333,0.677333 h 8.466666 c 0.372534,0 0.677334,-0.287867 0.677334,-0.677333 v -8.805333 c 0,-0.372533 -0.3048,-0.677333 -0.677334,-0.677333 h -2.218266 c -0.474133,0 -0.795867,0.1524 -1.185333,0.3556 l -0.931334,0.524933 c -0.389466,0.220133 -0.491066,0.524933 -0.491066,0.982133 z" />
      <path
         id="path4565"
         style="font-style:normal;font-variant:normal;font-weight:bold;font-stretch:semi-expanded;font-size:16.93333244px;font-family:'Gladia CLM';-inkscape-font-specification:'Gladia CLM, Bold Semi-Expanded';font-variant-ligatures:normal;font-variant-caps:normal;font-variant-numeric:normal;font-feature-settings:normal;text-align:end;writing-mode:lr-tb;text-anchor:end;stroke-width:0.26458332px"
         d="m 53.424494,82.690515 c 0,0.389466 0.287867,0.677333 0.677334,0.677333 0.372533,0 0.677333,-0.287867 0.677333,-0.677333 v -4.572 c 0,-0.372533 -0.3048,-0.677333 -0.677333,-0.677333 h -2.878667 c -0.389466,0 -0.677333,0.3048 -0.677333,0.677333 v 1.185333 c 0,0.389467 0.287867,0.677333 0.677333,0.677333 h 1.862667 c 0.186266,0 0.338666,0.1524 0.338666,0.338667 z" />
      <path
         id="path4567"
         style="font-style:normal;font-variant:normal;font-weight:bold;font-stretch:semi-expanded;font-size:16.93333244px;font-family:'Gladia CLM';-inkscape-font-specification:'Gladia CLM, Bold Semi-Expanded';font-variant-ligatures:normal;font-variant-caps:normal;font-variant-numeric:normal;font-feature-settings:normal;text-align:end;writing-mode:lr-tb;text-anchor:end;stroke-width:0.26458332px"
         d="m 47.504443,82.690515 c 0,0.389466 0.287866,0.677333 0.677333,0.677333 0.372533,0 0.677333,-0.287867 0.677333,-0.677333 v -4.572 c 0,-0.372533 -0.3048,-0.677333 -0.677333,-0.677333 H 45.30311 c -0.389467,0 -0.677334,0.3048 -0.677334,0.677333 v 1.185333 c 0,0.389467 0.287867,0.677333 0.677334,0.677333 h 1.862666 c 0.186267,0 0.338667,0.1524 0.338667,0.338667 z" />
      <path
         id="path4569"
         style="font-style:normal;font-variant:normal;font-weight:bold;font-stretch:semi-expanded;font-size:16.93333244px;font-family:'Gladia CLM';-inkscape-font-specification:'Gladia CLM, Bold Semi-Expanded';font-variant-ligatures:normal;font-variant-caps:normal;font-variant-numeric:normal;font-feature-settings:normal;text-align:end;writing-mode:lr-tb;text-anchor:end;stroke-width:0.26458332px"
         d="m 38.607827,85.061181 h -3.302 c -0.2032,0 -0.338667,-0.135466 -0.338667,-0.338666 v -4.402667 c 0,-0.186267 0.135467,-0.338667 0.338667,-0.338667 h 5.926666 c 0.186267,0 0.338667,0.1524 0.338667,0.338667 v 1.778 c 0,0.474133 -0.186267,0.880533 -0.474134,1.185333 l -1.303866,1.286934 c -0.3048,0.3048 -0.728133,0.491066 -1.185333,0.491066 z m 0.626533,2.54 c 0.4572,0 0.880533,-0.186267 1.185333,-0.491067 l 2.032,-1.998133 c 0.287867,-0.3048 0.474133,-0.7112 0.474133,-1.185333 v -5.808133 c 0,-0.372533 -0.3048,-0.677333 -0.677333,-0.677333 h -7.958666 c -0.389467,0 -0.677333,0.3048 -0.677333,0.677333 v 8.805333 c 0,0.389466 0.287866,0.677333 0.677333,0.677333 z" />
      <path
         id="path4571"
         style="font-style:normal;font-variant:normal;font-weight:bold;font-stretch:semi-expanded;font-size:16.93333244px;font-family:'Gladia CLM';-inkscape-font-specification:'Gladia CLM, Bold Semi-Expanded';font-variant-ligatures:normal;font-variant-caps:normal;font-variant-numeric:normal;font-feature-settings:normal;text-align:end;writing-mode:lr-tb;text-anchor:end;stroke-width:0.26458332px"
         d="m 17.337971,79.134515 v -1.016 c 0,-0.372533 -0.3048,-0.677333 -0.677334,-0.677333 h -1.354666 c -0.389467,0 -0.677334,0.3048 -0.677334,0.677333 v 1.185333 c 0,0.389467 0.287867,0.677333 0.677334,0.677333 h 0.508 c 0.186266,0 0.338666,0.1524 0.338666,0.338667 v 6.688666 c 0,0.389467 0.287867,0.677334 0.677334,0.677334 0.372533,0 0.677333,-0.287867 0.677333,-0.677334 l -0.01693,-3.877733 c 0,-0.4572 0.186266,-0.880533 0.508,-1.202266 l 1.456266,-1.4732 c 0.287867,-0.287867 0.7112,-0.474134 1.1684,-0.474134 h 2.810933 c 0.186267,0 0.338667,0.1524 0.338667,0.338667 v 4.402667 c 0,0.2032 -0.1524,0.338666 -0.338667,0.338666 h -2.878666 c -0.389467,0 -0.677334,0.3048 -0.677334,0.677333 v 1.185334 c 0,0.389466 0.287867,0.677333 0.677334,0.677333 h 3.894666 c 0.372533,0 0.677333,-0.287867 0.677333,-0.677333 v -8.805333 c 0,-0.372533 -0.3048,-0.677333 -0.677333,-0.677333 H 20.31824 c -0.474133,0 -0.880533,0.186266 -1.185333,0.474133 l -1.439333,1.4224 c -0.237067,0.237066 -0.3556,0.169333 -0.3556,-0.2032 z" />
      <path
         id="path4573"
         style="font-style:normal;font-variant:normal;font-weight:bold;font-stretch:semi-expanded;font-size:16.93333244px;font-family:'Gladia CLM';-inkscape-font-specification:'Gladia CLM, Bold Semi-Expanded';font-variant-ligatures:normal;font-variant-caps:normal;font-variant-numeric:normal;font-feature-settings:normal;text-align:end;writing-mode:lr-tb;text-anchor:end;stroke-width:0.26458332px"
         d="m 11.25123,79.981181 c 0.186267,0 0.338667,0.1524 0.338667,0.338667 v 6.688666 c 0,0.389467 0.287867,0.677334 0.677333,0.677334 0.372534,0 0.677334,-0.287867 0.677334,-0.677334 v -8.889999 c 0,-0.372533 -0.3048,-0.677333 -0.677334,-0.677333 H 3.9698975 c -0.3894667,0 -0.6773333,0.3048 -0.6773333,0.677333 v 1.185333 c 0,0.389467 0.2878666,0.677333 0.6773333,0.677333 h 0.1693333 c 0.1862666,0 0.3386666,0.1524 0.3386666,0.338667 v 4.402667 c 0,0.2032 -0.1524,0.338666 -0.3386666,0.338666 h -0.508 c -0.3894666,0 -0.6773333,0.3048 -0.6773333,0.677333 v 1.185334 c 0,0.389466 0.2878667,0.677333 0.6773333,0.677333 h 1.5239999 c 0.3725333,0 0.6773333,-0.287867 0.6773333,-0.677333 v -6.604 c 0,-0.186267 0.1354667,-0.338667 0.3386667,-0.338667 z" />
      <path
         id="path4575"
         style="font-style:normal;font-variant:normal;font-weight:bold;font-stretch:semi-expanded;font-size:16.93333244px;font-family:'Gladia CLM';-inkscape-font-specification:'Gladia CLM, Bold Semi-Expanded';font-variant-ligatures:normal;font-variant-caps:normal;font-variant-numeric:normal;font-feature-settings:normal;text-align:end;writing-mode:lr-tb;text-anchor:end;stroke-width:0.26458332px"
         d="m 1.2579214,86.923848 v -8.805333 c 0,-0.372533 -0.30479997,-0.677333 -0.67733329,-0.677333 H -1.6207451 c -0.3894666,0 -0.6773333,0.3048 -0.6773333,0.677333 v 1.185333 c 0,0.389467 0.2878667,0.677333 0.6773333,0.677333 h 1.18533327 c 0.18626665,0 0.33866665,0.1524 0.33866665,0.338667 v 4.402667 c 0,0.2032 -0.1524,0.338666 -0.33866665,0.338666 H -4.3300783 c -0.2032,0 -0.3386666,-0.135466 -0.3386666,-0.338666 v -6.604 c 0,-0.372533 -0.3048,-0.677333 -0.6773333,-0.677333 h -2.2013333 c -0.3894666,0 -0.6773333,0.3048 -0.6773333,0.677333 v 1.185333 c 0,0.389467 0.2878667,0.677333 0.6773333,0.677333 h 1.1853333 c 0.1862667,0 0.3386667,0.1524 0.3386667,0.338667 v 4.402667 c 0,0.2032 -0.1524,0.338666 -0.3386667,0.338666 h -1.1853333 c -0.3894666,0 -0.6773333,0.3048 -0.6773333,0.677333 v 1.185334 c 0,0.389466 0.2878667,0.677333 0.6773333,0.677333 h 8.12799961 c 0.37253332,0 0.67733329,-0.287867 0.67733329,-0.677333 z" />
      <path
         id="path4577"
         style="font-style:normal;font-variant:normal;font-weight:bold;font-stretch:semi-expanded;font-size:16.93333244px;font-family:'Gladia CLM';-inkscape-font-specification:'Gladia CLM, Bold Semi-Expanded';font-variant-ligatures:normal;font-variant-caps:normal;font-variant-numeric:normal;font-feature-settings:normal;text-align:end;writing-mode:lr-tb;text-anchor:end;stroke-width:0.26458332px"
         d="m -11.26613,87.008514 c 0,0.389467 0.287867,0.677334 0.677333,0.677334 0.372534,0 0.6773338,-0.287867 0.6773338,-0.677334 v -8.889999 c 0,-0.372533 -0.3047998,-0.677333 -0.6773338,-0.677333 h -2.878666 c -0.389467,0 -0.677333,0.3048 -0.677333,0.677333 v 1.185333 c 0,0.389467 0.287866,0.677333 0.677333,0.677333 h 1.862667 c 0.186266,0 0.338666,0.1524 0.338666,0.338667 z" />
      <path
         id="path4579"
         style="font-style:normal;font-variant:normal;font-weight:bold;font-stretch:semi-expanded;font-size:16.93333244px;font-family:'Gladia CLM';-inkscape-font-specification:'Gladia CLM, Bold Semi-Expanded';font-variant-ligatures:normal;font-variant-caps:normal;font-variant-numeric:normal;font-feature-settings:normal;text-align:end;writing-mode:lr-tb;text-anchor:end;stroke-width:0.26458332px"
         d="m -23.134014,79.981181 h 5.587999 c 0.186267,0 0.338667,0.1524 0.338667,0.338667 v 4.402667 c 0,0.2032 -0.1524,0.338666 -0.338667,0.338666 h -6.603999 c -0.389467,0 -0.677334,0.3048 -0.677334,0.677333 v 1.185334 c 0,0.389466 0.287867,0.677333 0.677334,0.677333 h 7.619999 c 0.372533,0 0.677333,-0.287867 0.677333,-0.677333 v -8.805333 c 0,-0.372533 -0.3048,-0.677333 -0.677333,-0.677333 h -7.619999 c -0.389467,0 -0.677334,0.3048 -0.677334,0.677333 v 5.012266 c 0,0.389467 0.287867,0.677334 0.677334,0.677334 h 1.524 c 0.372533,0 0.677333,-0.287867 0.677333,-0.677334 v -1.185333 c 0,-0.372533 -0.3048,-0.677333 -0.677333,-0.677333 h -0.508 c -0.2032,0 -0.338667,-0.135467 -0.338667,-0.338667 v -0.6096 c 0,-0.186267 0.135467,-0.338667 0.338667,-0.338667 z" />
      <path
         id="path4581"
         style="font-style:normal;font-variant:normal;font-weight:bold;font-stretch:semi-expanded;font-size:16.93333244px;font-family:'Gladia CLM';-inkscape-font-specification:'Gladia CLM, Bold Semi-Expanded';font-variant-ligatures:normal;font-variant-caps:normal;font-variant-numeric:normal;font-feature-settings:normal;text-align:end;writing-mode:lr-tb;text-anchor:end;stroke-width:0.26458332px"
         d="m -27.864764,90.310514 c 0,0.389467 0.287866,0.677334 0.677333,0.677334 0.372533,0 0.677333,-0.287867 0.677333,-0.677334 V 78.118515 c 0,-0.372533 -0.3048,-0.677333 -0.677333,-0.677333 h -7.281333 c -0.389467,0 -0.677333,0.3048 -0.677333,0.677333 v 5.012266 c 0,0.389467 0.287866,0.677334 0.677333,0.677334 h 1.524 c 0.372533,0 0.677333,-0.287867 0.677333,-0.677334 v -1.185333 c 0,-0.372533 -0.3048,-0.677333 -0.677333,-0.677333 h -0.508 c -0.2032,0 -0.338667,-0.135467 -0.338667,-0.338667 v -0.6096 c 0,-0.186267 0.135467,-0.338667 0.338667,-0.338667 h 5.249333 c 0.186267,0 0.338667,0.1524 0.338667,0.338667 z" />
      <path
         id="path4583"
         style="font-style:normal;font-variant:normal;font-weight:bold;font-stretch:semi-expanded;font-size:16.93333244px;font-family:'Gladia CLM';-inkscape-font-specification:'Gladia CLM, Bold Semi-Expanded';font-variant-ligatures:normal;font-variant-caps:normal;font-variant-numeric:normal;font-feature-settings:normal;text-align:end;writing-mode:lr-tb;text-anchor:end;stroke-width:0.26458332px"
         d="m -22.919702,108.76785 c 0.372533,0 0.677333,-0.28787 0.677333,-0.67734 v -1.18533 c 0,-0.37253 -0.3048,-0.67733 -0.677333,-0.67733 h -1.524 c -0.389467,0 -0.677333,0.3048 -0.677333,0.67733 v 1.18533 c 0,0.38947 0.287866,0.67734 0.677333,0.67734 z" />
      <path
         id="path4585"
         style="font-style:normal;font-variant:normal;font-weight:bold;font-stretch:semi-expanded;font-size:16.93333244px;font-family:'Gladia CLM';-inkscape-font-specification:'Gladia CLM, Bold Semi-Expanded';font-variant-ligatures:normal;font-variant-caps:normal;font-variant-numeric:normal;font-feature-settings:normal;text-align:end;writing-mode:lr-tb;text-anchor:end;stroke-width:0.26458332px"
         d="m 185.85903,108.09051 v -8.80533 c 0,-0.372533 -0.3048,-0.677333 -0.67734,-0.677333 h -7.62 c -0.38946,0 -0.67733,0.3048 -0.67733,0.677333 v 1.18533 c 0,0.38947 0.28787,0.67734 0.67733,0.67734 h 6.604 c 0.18627,0 0.33867,0.1524 0.33867,0.33866 v 4.40267 c 0,0.2032 -0.1524,0.33867 -0.33867,0.33867 h -6.604 c -0.38946,0 -0.67733,0.3048 -0.67733,0.67733 v 1.18533 c 0,0.38947 0.28787,0.67734 0.67733,0.67734 h 7.62 c 0.37254,0 0.67734,-0.28787 0.67734,-0.67734 z" />
      <path
         id="path4587"
         style="font-style:normal;font-variant:normal;font-weight:bold;font-stretch:semi-expanded;font-size:16.93333244px;font-family:'Gladia CLM';-inkscape-font-specification:'Gladia CLM, Bold Semi-Expanded';font-variant-ligatures:normal;font-variant-caps:normal;font-variant-numeric:normal;font-feature-settings:normal;text-align:end;writing-mode:lr-tb;text-anchor:end;stroke-width:0.26458332px"
         d="m 175.19235,108.09051 v -8.80533 c 0,-0.372533 -0.3048,-0.677333 -0.67733,-0.677333 h -3.048 c -0.38947,0 -0.67733,0.3048 -0.67733,0.677333 v 1.18533 c 0,0.38947 0.28786,0.67734 0.67733,0.67734 h 2.032 c 0.18627,0 0.33867,0.1524 0.33867,0.33866 v 4.40267 c 0,0.2032 -0.1524,0.33867 -0.33867,0.33867 h -3.048 c -0.38947,0 -0.67733,0.3048 -0.67733,0.67733 v 1.18533 c 0,0.38947 0.28786,0.67734 0.67733,0.67734 h 4.064 c 0.37253,0 0.67733,-0.28787 0.67733,-0.67734 z" />
      <path
         id="path4589"
         style="font-style:normal;font-variant:normal;font-weight:bold;font-stretch:semi-expanded;font-size:16.93333244px;font-family:'Gladia CLM';-inkscape-font-specification:'Gladia CLM, Bold Semi-Expanded';font-variant-ligatures:normal;font-variant-caps:normal;font-variant-numeric:normal;font-feature-settings:normal;text-align:end;writing-mode:lr-tb;text-anchor:end;stroke-width:0.26458332px"
         d="m 162.65772,103.85718 c 0,0.38947 0.28786,0.67733 0.67733,0.67733 0.37253,0 0.67733,-0.28786 0.67733,-0.67733 v -4.572 c 0,-0.372533 -0.3048,-0.677333 -0.67733,-0.677333 h -1.35467 c -0.38946,0 -0.67733,0.3048 -0.67733,0.677333 v 1.18533 c 0,0.38947 0.28787,0.67734 0.67733,0.67734 h 0.33867 c 0.18627,0 0.33867,0.1524 0.33867,0.33866 z m 4.74133,4.91067 c 0.37253,0 0.67733,-0.28787 0.67733,-0.67734 v -8.80533 c 0,-0.372533 -0.3048,-0.677333 -0.67733,-0.677333 h -1.35467 c -0.38946,0 -0.67733,0.3048 -0.67733,0.677333 v 1.18533 c 0,0.38947 0.28787,0.67734 0.67733,0.67734 h 0.33867 c 0.18627,0 0.33867,0.1524 0.33867,0.33866 v 4.40267 c 0,0.2032 -0.1524,0.33867 -0.33867,0.33867 h -7.45067 c -0.2032,0 -0.33866,-0.13547 -0.33866,-0.33867 v -4.40267 c 0,-0.18626 0.13546,-0.33866 0.33866,-0.33866 h 0.33867 c 0.37253,0 0.67733,-0.28787 0.67733,-0.67734 v -1.18533 c 0,-0.372533 -0.3048,-0.677333 -0.67733,-0.677333 h -1.35467 c -0.38946,0 -0.67733,0.3048 -0.67733,0.677333 v 8.80533 c 0,0.38947 0.28787,0.67734 0.67733,0.67734 z" />
      <path
         id="path4591"
         style="font-style:normal;font-variant:normal;font-weight:bold;font-stretch:semi-expanded;font-size:16.93333244px;font-family:'Gladia CLM';-inkscape-font-specification:'Gladia CLM, Bold Semi-Expanded';font-variant-ligatures:normal;font-variant-caps:normal;font-variant-numeric:normal;font-feature-settings:normal;text-align:end;writing-mode:lr-tb;text-anchor:end;stroke-width:0.26458332px"
         d="m 154.2056,108.17518 c 0,0.38947 0.28787,0.67733 0.67733,0.67733 0.37254,0 0.67734,-0.28786 0.67734,-0.67733 v -8.89 c 0,-0.372533 -0.3048,-0.677333 -0.67734,-0.677333 h -7.45066 c -0.38947,0 -0.67734,0.3048 -0.67734,0.677333 v 1.18533 c 0,0.38947 0.28787,0.67734 0.67734,0.67734 h 6.43466 c 0.18627,0 0.33867,0.1524 0.33867,0.33866 z" />
      <path
         id="path4593"
         style="font-style:normal;font-variant:normal;font-weight:bold;font-stretch:semi-expanded;font-size:16.93333244px;font-family:'Gladia CLM';-inkscape-font-specification:'Gladia CLM, Bold Semi-Expanded';font-variant-ligatures:normal;font-variant-caps:normal;font-variant-numeric:normal;font-feature-settings:normal;text-align:end;writing-mode:lr-tb;text-anchor:end;stroke-width:0.26458332px"
         d="m 132.83838,106.53265 c -0.16934,0.1016 -0.3048,0.33866 -0.3048,0.57573 v 1.0668 c 0,0.38947 0.28786,0.67733 0.67733,0.67733 0.18627,0 0.32173,-0.11853 0.49107,-0.2032 l 2.3876,-1.3716 c 0.16933,-0.1016 0.3048,-0.18626 0.44026,-0.18626 0.254,0 0.4064,0.1524 0.4064,0.4064 v 0.67733 c 0,0.38947 0.28787,0.67733 0.67734,0.67733 0.37253,0 0.67733,-0.28786 0.67733,-0.67733 v -8.89 c 0,-0.372533 -0.3048,-0.677333 -0.67733,-0.677333 h -2.87867 c -0.38947,0 -0.67733,0.3048 -0.67733,0.677333 v 1.18533 c 0,0.38947 0.28786,0.67734 0.67733,0.67734 h 1.86267 c 0.18626,0 0.33866,0.1524 0.33866,0.33866 v 2.30294 c 0,0.27093 -0.1016,0.44026 -0.32173,0.5588 z" />
      <path
         id="path4595"
         style="font-style:normal;font-variant:normal;font-weight:bold;font-stretch:semi-expanded;font-size:16.93333244px;font-family:'Gladia CLM';-inkscape-font-specification:'Gladia CLM, Bold Semi-Expanded';font-variant-ligatures:normal;font-variant-caps:normal;font-variant-numeric:normal;font-feature-settings:normal;text-align:end;writing-mode:lr-tb;text-anchor:end;stroke-width:0.26458332px"
         d="m 127.79357,108.17518 c 0,0.38947 0.28786,0.67733 0.67733,0.67733 0.37253,0 0.67733,-0.28786 0.67733,-0.67733 v -6.68867 c 0,-0.18626 0.13547,-0.33866 0.33867,-0.33866 h 0.67733 c 0.37254,0 0.67734,-0.28787 0.67734,-0.67734 v -1.18533 c 0,-0.372533 -0.3048,-0.677333 -0.67734,-0.677333 h -8.29733 c -0.38947,0 -0.67733,0.3048 -0.67733,0.677333 v 1.18533 c 0,0.38947 0.28786,0.67734 0.67733,0.67734 h 5.588 c 0.18627,0 0.33867,0.1524 0.33867,0.33866 z" />
      <path
         id="path4597"
         style="font-style:normal;font-variant:normal;font-weight:bold;font-stretch:semi-expanded;font-size:16.93333244px;font-family:'Gladia CLM';-inkscape-font-specification:'Gladia CLM, Bold Semi-Expanded';font-variant-ligatures:normal;font-variant-caps:normal;font-variant-numeric:normal;font-feature-settings:normal;text-align:end;writing-mode:lr-tb;text-anchor:end;stroke-width:0.26458332px"
         d="m 118.14817,108.17518 c 0,0.38947 0.28787,0.67733 0.67734,0.67733 0.37253,0 0.67733,-0.28786 0.67733,-0.67733 v -8.89 c 0,-0.372533 -0.3048,-0.677333 -0.67733,-0.677333 h -2.87867 c -0.38947,0 -0.67733,0.3048 -0.67733,0.677333 v 1.18533 c 0,0.38947 0.28786,0.67734 0.67733,0.67734 h 1.86267 c 0.18626,0 0.33866,0.1524 0.33866,0.33866 z" />
      <path
         id="path4599"
         style="font-style:normal;font-variant:normal;font-weight:bold;font-stretch:semi-expanded;font-size:16.93333244px;font-family:'Gladia CLM';-inkscape-font-specification:'Gladia CLM, Bold Semi-Expanded';font-variant-ligatures:normal;font-variant-caps:normal;font-variant-numeric:normal;font-feature-settings:normal;text-align:end;writing-mode:lr-tb;text-anchor:end;stroke-width:0.26458332px"
         d="m 105.94958,98.607847 c -0.2032,0 -0.33867,-0.135467 -0.33867,-0.338667 v -1.862666 c 0,-0.186267 0.13547,-0.338667 0.33867,-0.338667 h 0.33867 c 0.37253,0 0.67733,-0.287866 0.67733,-0.677333 v -1.185333 c 0,-0.372534 -0.3048,-0.677334 -0.67733,-0.677334 h -1.35467 c -0.38947,0 -0.67733,0.3048 -0.67733,0.677334 v 6.265329 c 0,0.38947 0.28786,0.67734 0.67733,0.67734 h 6.94267 c 0.18626,0 0.33866,0.1524 0.33866,0.33866 v 4.40267 c 0,0.2032 -0.1524,0.33867 -0.33866,0.33867 h -2.70934 c -0.38946,0 -0.67733,0.3048 -0.67733,0.67733 v 1.18533 c 0,0.38947 0.28787,0.67734 0.67733,0.67734 h 3.72534 c 0.37253,0 0.67733,-0.28787 0.67733,-0.67734 v -8.80533 c 0,-0.372533 -0.3048,-0.677333 -0.67733,-0.677333 z" />
      <path
         id="path4601"
         style="font-style:normal;font-variant:normal;font-weight:bold;font-stretch:semi-expanded;font-size:16.93333244px;font-family:'Gladia CLM';-inkscape-font-specification:'Gladia CLM, Bold Semi-Expanded';font-variant-ligatures:normal;font-variant-caps:normal;font-variant-numeric:normal;font-feature-settings:normal;text-align:end;writing-mode:lr-tb;text-anchor:end;stroke-width:0.26458332px"
         d="m 94.27219,99.28518 c 0,-0.372533 -0.304799,-0.677333 -0.677333,-0.677333 h -7.281333 c -0.389466,0 -0.677333,0.3048 -0.677333,0.677333 v 1.18533 c 0,0.38947 0.287867,0.67734 0.677333,0.67734 h 6.265333 c 0.186267,0 0.338667,0.1524 0.338667,0.33866 v 4.40267 c 0,0.2032 -0.1524,0.33867 -0.338667,0.33867 h -6.265333 c -0.389466,0 -0.677333,0.3048 -0.677333,0.67733 v 1.18533 c 0,0.38947 0.287867,0.67734 0.677333,0.67734 h 8.805333 c 0.372533,0 0.677333,-0.28787 0.677333,-0.67734 v -1.18533 c 0,-0.37253 -0.3048,-0.67733 -0.677333,-0.67733 h -0.508 c -0.2032,0 -0.338667,-0.13547 -0.338667,-0.33867 z" />
      <path
         id="path4603"
         style="font-style:normal;font-variant:normal;font-weight:bold;font-stretch:semi-expanded;font-size:16.93333244px;font-family:'Gladia CLM';-inkscape-font-specification:'Gladia CLM, Bold Semi-Expanded';font-variant-ligatures:normal;font-variant-caps:normal;font-variant-numeric:normal;font-feature-settings:normal;text-align:end;writing-mode:lr-tb;text-anchor:end;stroke-width:0.26458332px"
         d="m 82.594806,103.85718 c 0,0.38947 0.287867,0.67733 0.677333,0.67733 0.372534,0 0.677333,-0.28786 0.677333,-0.67733 v -4.572 c 0,-0.372533 -0.304799,-0.677333 -0.677333,-0.677333 h -2.878666 c -0.389467,0 -0.677334,0.3048 -0.677334,0.677333 v 1.18533 c 0,0.38947 0.287867,0.67734 0.677334,0.67734 h 1.862666 c 0.186267,0 0.338667,0.1524 0.338667,0.33866 z" />
      <path
         id="path4605"
         style="font-style:normal;font-variant:normal;font-weight:bold;font-stretch:semi-expanded;font-size:16.93333244px;font-family:'Gladia CLM';-inkscape-font-specification:'Gladia CLM, Bold Semi-Expanded';font-variant-ligatures:normal;font-variant-caps:normal;font-variant-numeric:normal;font-feature-settings:normal;text-align:end;writing-mode:lr-tb;text-anchor:end;stroke-width:0.26458332px"
         d="m 76.674754,111.47718 c 0,0.38947 0.287867,0.67733 0.677334,0.67733 0.372533,0 0.677333,-0.28786 0.677333,-0.67733 v -12.192 c 0,-0.372533 -0.3048,-0.677333 -0.677333,-0.677333 h -2.878667 c -0.389467,0 -0.677333,0.3048 -0.677333,0.677333 v 1.18533 c 0,0.38947 0.287866,0.67734 0.677333,0.67734 h 1.862667 c 0.186266,0 0.338666,0.1524 0.338666,0.33866 z" />
      <path
         id="path4607"
         style="font-style:normal;font-variant:normal;font-weight:bold;font-stretch:semi-expanded;font-size:16.93333244px;font-family:'Gladia CLM';-inkscape-font-specification:'Gladia CLM, Bold Semi-Expanded';font-variant-ligatures:normal;font-variant-caps:normal;font-variant-numeric:normal;font-feature-settings:normal;text-align:end;writing-mode:lr-tb;text-anchor:end;stroke-width:0.26458332px"
         d="m 59.900164,103.85718 c 0,0.38947 0.287866,0.67733 0.677333,0.67733 0.372533,0 0.677333,-0.28786 0.677333,-0.67733 v -4.572 c 0,-0.372533 -0.3048,-0.677333 -0.677333,-0.677333 H 59.22283 c -0.389466,0 -0.677333,0.3048 -0.677333,0.677333 v 1.18533 c 0,0.38947 0.287867,0.67734 0.677333,0.67734 h 0.338667 c 0.186267,0 0.338667,0.1524 0.338667,0.33866 z m 4.741333,4.91067 c 0.372533,0 0.677333,-0.28787 0.677333,-0.67734 v -8.80533 c 0,-0.372533 -0.3048,-0.677333 -0.677333,-0.677333 H 63.28683 c -0.389466,0 -0.677333,0.3048 -0.677333,0.677333 v 1.18533 c 0,0.38947 0.287867,0.67734 0.677333,0.67734 h 0.338667 c 0.186267,0 0.338667,0.1524 0.338667,0.33866 v 4.40267 c 0,0.2032 -0.1524,0.33867 -0.338667,0.33867 h -7.450666 c -0.2032,0 -0.338667,-0.13547 -0.338667,-0.33867 v -4.40267 c 0,-0.18626 0.135467,-0.33866 0.338667,-0.33866 h 0.338666 c 0.372534,0 0.677334,-0.28787 0.677334,-0.67734 v -1.18533 c 0,-0.372533 -0.3048,-0.677333 -0.677334,-0.677333 h -1.354666 c -0.389467,0 -0.677334,0.3048 -0.677334,0.677333 v 8.80533 c 0,0.38947 0.287867,0.67734 0.677334,0.67734 z" />
      <path
         id="path4609"
         style="font-style:normal;font-variant:normal;font-weight:bold;font-stretch:semi-expanded;font-size:16.93333244px;font-family:'Gladia CLM';-inkscape-font-specification:'Gladia CLM, Bold Semi-Expanded';font-variant-ligatures:normal;font-variant-caps:normal;font-variant-numeric:normal;font-feature-settings:normal;text-align:end;writing-mode:lr-tb;text-anchor:end;stroke-width:0.26458332px"
         d="m 44.986935,100.30118 v -1.016 c 0,-0.372533 -0.3048,-0.677333 -0.677333,-0.677333 h -1.354667 c -0.389467,0 -0.677333,0.3048 -0.677333,0.677333 v 1.18533 c 0,0.38947 0.287866,0.67734 0.677333,0.67734 h 0.508 c 0.186267,0 0.338667,0.1524 0.338667,0.33866 v 6.68867 c 0,0.38947 0.287866,0.67733 0.677333,0.67733 0.372533,0 0.677333,-0.28786 0.677333,-0.67733 l -0.01693,-3.87773 c 0,-0.4572 0.186267,-0.88054 0.508,-1.20227 l 1.456267,-1.4732 c 0.287866,-0.28787 0.711199,-0.47413 1.168399,-0.47413 h 2.810934 c 0.186266,0 0.338666,0.1524 0.338666,0.33866 v 4.40267 c 0,0.2032 -0.1524,0.33867 -0.338666,0.33867 h -2.878667 c -0.389467,0 -0.677333,0.3048 -0.677333,0.67733 v 1.18533 c 0,0.38947 0.287866,0.67734 0.677333,0.67734 h 3.894667 c 0.372533,0 0.677333,-0.28787 0.677333,-0.67734 v -8.80533 c 0,-0.372533 -0.3048,-0.677333 -0.677333,-0.677333 h -4.131734 c -0.474133,0 -0.880533,0.186267 -1.185333,0.474133 l -1.439333,1.4224 c -0.237067,0.23707 -0.3556,0.16933 -0.3556,-0.2032 z" />
      <path
         id="path4611"
         style="font-style:normal;font-variant:normal;font-weight:bold;font-stretch:semi-expanded;font-size:16.93333244px;font-family:'Gladia CLM';-inkscape-font-specification:'Gladia CLM, Bold Semi-Expanded';font-variant-ligatures:normal;font-variant-caps:normal;font-variant-numeric:normal;font-feature-settings:normal;text-align:end;writing-mode:lr-tb;text-anchor:end;stroke-width:0.26458332px"
         d="m 39.236209,103.85718 c 0,0.38947 0.287867,0.67733 0.677333,0.67733 0.372534,0 0.677334,-0.28786 0.677334,-0.67733 v -4.572 c 0,-0.372533 -0.3048,-0.677333 -0.677334,-0.677333 h -2.878666 c -0.389467,0 -0.677333,0.3048 -0.677333,0.677333 v 1.18533 c 0,0.38947 0.287866,0.67734 0.677333,0.67734 h 1.862666 c 0.186267,0 0.338667,0.1524 0.338667,0.33866 z" />
      <path
         id="path4613"
         style="font-style:normal;font-variant:normal;font-weight:bold;font-stretch:semi-expanded;font-size:16.93333244px;font-family:'Gladia CLM';-inkscape-font-specification:'Gladia CLM, Bold Semi-Expanded';font-variant-ligatures:normal;font-variant-caps:normal;font-variant-numeric:normal;font-feature-settings:normal;text-align:end;writing-mode:lr-tb;text-anchor:end;stroke-width:0.26458332px"
         d="m 33.302934,103.33225 v 2.55693 c 0,0.2032 -0.1524,0.33867 -0.338667,0.33867 h -5.926666 c -0.2032,0 -0.338667,-0.13547 -0.338667,-0.33867 v -4.40267 c 0,-0.18626 0.135467,-0.33866 0.338667,-0.33866 h 4.097866 c 0.4572,0 0.8636,0.18626 1.1684,0.47413 l 0.491067,0.52493 c 0.3048,0.3048 0.508,0.72814 0.508,1.18534 z m 1.354666,-1.76107 c 0,-0.4572 -0.2032,-0.88053 -0.508,-1.18533 l -1.286933,-1.30387 c -0.3048,-0.287866 -0.7112,-0.474133 -1.185333,-0.474133 h -5.655733 c -0.389467,0 -0.677334,0.3048 -0.677334,0.677333 v 8.80533 c 0,0.38947 0.287867,0.67734 0.677334,0.67734 h 7.958666 c 0.372533,0 0.677333,-0.28787 0.677333,-0.67734 z" />
      <path
         id="path4615"
         style="font-style:normal;font-variant:normal;font-weight:bold;font-stretch:semi-expanded;font-size:16.93333244px;font-family:'Gladia CLM';-inkscape-font-specification:'Gladia CLM, Bold Semi-Expanded';font-variant-ligatures:normal;font-variant-caps:normal;font-variant-numeric:normal;font-feature-settings:normal;text-align:end;writing-mode:lr-tb;text-anchor:end;stroke-width:0.26458332px"
         d="m 15.522933,108.17518 c 0,0.38947 0.287867,0.67733 0.677333,0.67733 0.372534,0 0.677334,-0.28786 0.677334,-0.67733 v -8.89 c 0,-0.372533 -0.3048,-0.677333 -0.677334,-0.677333 H 13.3216 c -0.389467,0 -0.677333,0.3048 -0.677333,0.677333 v 1.18533 c 0,0.38947 0.287866,0.67734 0.677333,0.67734 h 1.862667 c 0.186266,0 0.338666,0.1524 0.338666,0.33866 z" />
      <path
         id="path4617"
         style="font-style:normal;font-variant:normal;font-weight:bold;font-stretch:semi-expanded;font-size:16.93333244px;font-family:'Gladia CLM';-inkscape-font-specification:'Gladia CLM, Bold Semi-Expanded';font-variant-ligatures:normal;font-variant-caps:normal;font-variant-numeric:normal;font-feature-settings:normal;text-align:end;writing-mode:lr-tb;text-anchor:end;stroke-width:0.26458332px"
         d="m 8.866282,104.70385 1.7272,-1.6764 c 0.270933,-0.254 0.3556,-0.59267 0.3556,-1.016 v -2.72627 c 0,-0.372533 -0.3048,-0.677333 -0.677333,-0.677333 H 8.0365487 c -0.3894666,0 -0.6773333,0.3048 -0.6773333,0.677333 v 1.18533 c 0,0.38947 0.2878667,0.67734 0.6773333,0.67734 h 1.2192 c 0.1862666,0 0.3386666,0.1524 0.3386666,0.33866 v 0.4572 c 0,0.1016 -0.0508,0.18627 -0.1016,0.23707 l -1.6086666,1.59173 -5.300133,-4.94453 C 2.448549,98.692514 2.296149,98.607847 2.1098824,98.607847 c -0.3894667,0 -0.6773333,0.3048 -0.6773333,0.677333 v 8.80533 c 0,0.38947 0.2878666,0.67734 0.6773333,0.67734 h 1.5239999 c 0.3725333,0 0.6773333,-0.28787 0.6773333,-0.67734 v -1.18533 c 0,-0.37253 -0.3048,-0.67733 -0.6773333,-0.67733 h -0.508 c -0.2032,0 -0.3386666,-0.13547 -0.3386666,-0.33867 v -3.13267 c 0,-0.18626 0.1354666,-0.33866 0.3386666,-0.33866 0.084667,0 0.1693333,0.0339 0.2370667,0.1016 l 6.6039996,6.096 c 0.1354664,0.11853 0.3217334,0.23706 0.5080004,0.23706 0.3048,0 0.474133,-0.1524 0.474133,-0.47413 v -1.25307 c 0,-0.3556 -0.08467,-0.54186 -0.3048,-0.762 z" />
      <path
         id="path4619"
         style="font-style:normal;font-variant:normal;font-weight:bold;font-stretch:semi-expanded;font-size:16.93333244px;font-family:'Gladia CLM';-inkscape-font-specification:'Gladia CLM, Bold Semi-Expanded';font-variant-ligatures:normal;font-variant-caps:normal;font-variant-numeric:normal;font-feature-settings:normal;text-align:end;writing-mode:lr-tb;text-anchor:end;stroke-width:0.26458332px"
         d="m -1.6009003,108.17518 c 0,0.38947 0.2878667,0.67733 0.67733333,0.67733 0.37253332,0 0.6773333,-0.28786 0.6773333,-0.67733 v -8.89 c 0,-0.372533 -0.30479998,-0.677333 -0.6773333,-0.677333 H -8.3742332 c -0.3894667,0 -0.6773333,0.3048 -0.6773333,0.677333 v 1.18533 c 0,0.38947 0.2878666,0.67734 0.6773333,0.67734 h 6.4346663 c 0.1862666,0 0.3386666,0.1524 0.3386666,0.33866 z" />
      <path
         id="path4621"
         style="font-style:normal;font-variant:normal;font-weight:bold;font-stretch:semi-expanded;font-size:16.93333244px;font-family:'Gladia CLM';-inkscape-font-specification:'Gladia CLM, Bold Semi-Expanded';font-variant-ligatures:normal;font-variant-caps:normal;font-variant-numeric:normal;font-feature-settings:normal;text-align:end;writing-mode:lr-tb;text-anchor:end;stroke-width:0.26458332px"
         d="m -17.00891,108.20905 5.571066,-2.54 c 0.524934,-0.32174 0.694267,-0.7112 0.694267,-1.27 v -5.11387 c 0,-0.372533 -0.3048,-0.677333 -0.677333,-0.677333 h -2.032 c -0.389467,0 -0.677333,0.3048 -0.677333,0.677333 v 1.18533 c 0,0.38947 0.287866,0.67734 0.677333,0.67734 h 1.016 c 0.186266,0 0.338666,0.1524 0.338666,0.33866 v 1.65947 c 0,0.11853 -0.08467,0.23707 -0.186266,0.3048 l -4.7244,2.06587 v -6.23147 c 0,-0.372533 -0.3048,-0.677333 -0.677333,-0.677333 h -2.032 c -0.389467,0 -0.677333,0.3048 -0.677333,0.677333 v 1.18533 c 0,0.38947 0.287866,0.67734 0.677333,0.67734 h 1.016 c 0.186266,0 0.338666,0.1524 0.338666,0.33866 v 9.99067 c 0,0.38947 0.287867,0.67733 0.677334,0.67733 0.372533,0 0.677333,-0.28786 0.677333,-0.67733 z" />
    </g>
  </g>
</svg>
