<?xml version="1.0" encoding="UTF-8" standalone="no"?>
<!-- Created with Inkscape (http://www.inkscape.org/) -->

<svg
   width="100%"
   height="100%"
   viewBox="0 0 175.06349 77.501296"
   version="1.1"
   id="svg5"
   xmlns="http://www.w3.org/2000/svg"
   xmlns:svg="http://www.w3.org/2000/svg">
  <defs
     id="defs2" />
  <g
     id="layer1"
     transform="translate(104.82277,-114.89661)">
    <g
       aria-label="רוח חדש בנו יעבר,
צלח יצלח על כלנו;
מי זה יקום עם הרוח?
מי זה גבור ילחם בנו?"
       id="text1463"
       style="font-size:16.9333px;line-height:90%;font-family:Sans;-inkscape-font-specification:'Adobe Helvetica';letter-spacing:0px;word-spacing:0px;direction:rtl;stroke-width:0.264583px">
      <path
         d="m 67.999488,119.19913 -0.321732,4.53812 c -0.01693,0.254 -0.01693,0.38947 0.0508,0.52494 0.08467,0.13546 0.338666,0.25399 0.558799,0.15239 l 0.457199,-0.18626 c 0.2032,-0.0847 0.321733,-0.28787 0.321733,-0.54187 l -0.08467,-4.65665 c -0.01693,-1.0668 -0.118533,-1.89653 -0.846665,-2.50613 -0.626532,-0.508 -1.439331,-0.59267 -2.539995,-0.59267 h -2.556929 c -0.304799,0 -0.491065,0.2032 -0.423332,0.4572 l 0.1524,0.67733 c 0.06773,0.254 0.253999,0.38947 0.507999,0.38947 h 2.912527 c 0.694265,0 1.202264,0.1524 1.507064,0.54186 0.253999,0.32174 0.338666,0.69427 0.304799,1.20227 z"
         style="font-weight:bold;font-family:'Hillel CLM';-inkscape-font-specification:'Hillel CLM Bold'"
         id="path20350" />
      <path
         d="m 60.548852,123.68645 -0.135466,-6.62092 c -0.01693,-0.37253 -0.08467,-0.67733 -0.321733,-0.88053 -0.220133,-0.18627 -0.507999,-0.254 -0.863598,-0.254 h -0.761999 c -0.304799,0 -0.491066,0.2032 -0.423332,0.4572 l 0.152399,0.67733 c 0.06773,0.254 0.270933,0.4064 0.507999,0.4064 l 0.440266,0.0339 c 0.08467,0 0.186266,0.0508 0.237066,0.1016 0.06773,0.0847 0.118533,0.22013 0.118533,0.33866 l -0.338666,5.79119 c -0.01693,0.254 0,0.38947 0.0508,0.52494 0.08467,0.13546 0.338666,0.25399 0.558799,0.15239 l 0.457199,-0.18626 c 0.2032,-0.0847 0.321733,-0.28787 0.321733,-0.54187 z"
         style="font-weight:bold;font-family:'Hillel CLM';-inkscape-font-specification:'Hillel CLM Bold'"
         id="path20352" />
      <path
         d="m 54.029544,115.94793 -4.233325,-0.0169 c -0.3048,0 -0.491066,0.2032 -0.423333,0.4572 l 0.1524,0.69427 c 0.08467,0.33866 0.186266,0.508 0.1524,0.94826 l -0.338666,5.70652 c -0.01693,0.27094 -0.01693,0.38947 0.0508,0.52494 0.08467,0.13546 0.321732,0.25399 0.558798,0.15239 l 0.4572,-0.18626 c 0.203199,-0.0847 0.321732,-0.28787 0.321732,-0.54187 l -0.1016,-5.68959 c 0,-0.33866 0.186267,-0.54186 0.474133,-0.54186 h 3.064927 c 0.440266,0 0.761999,0.1016 0.965198,0.33866 0.2032,0.27094 0.220133,0.59267 0.186267,1.1176 l -0.3048,4.82599 c -0.01693,0.254 -0.01693,0.38947 0.0508,0.52494 0.06773,0.13546 0.321733,0.25399 0.558799,0.15239 l 0.440266,-0.18626 c 0.220133,-0.0847 0.338666,-0.28787 0.338666,-0.54187 l -0.08467,-5.53719 c -0.01693,-0.77893 -0.135466,-1.33773 -0.609599,-1.74413 -0.389465,-0.33866 -0.897464,-0.4572 -1.676396,-0.4572 z"
         style="font-weight:bold;font-family:'Hillel CLM';-inkscape-font-specification:'Hillel CLM Bold'"
         id="path20354" />
      <path
         d="m 38.366252,115.94793 -4.233325,-0.0169 c -0.3048,0 -0.491066,0.2032 -0.423333,0.4572 l 0.1524,0.69427 c 0.08467,0.33866 0.186266,0.508 0.1524,0.94826 l -0.338666,5.70652 c -0.01693,0.27094 -0.01693,0.38947 0.0508,0.52494 0.08467,0.13546 0.321732,0.25399 0.558799,0.15239 l 0.457199,-0.18626 c 0.203199,-0.0847 0.321732,-0.28787 0.321732,-0.54187 l -0.101599,-5.68959 c 0,-0.33866 0.186266,-0.54186 0.474132,-0.54186 h 3.064927 c 0.440266,0 0.761999,0.1016 0.965198,0.33866 0.2032,0.27094 0.220133,0.59267 0.186267,1.1176 l -0.3048,4.82599 c -0.01693,0.254 -0.01693,0.38947 0.0508,0.52494 0.06773,0.13546 0.321733,0.25399 0.558799,0.15239 l 0.440266,-0.18626 c 0.220133,-0.0847 0.338666,-0.28787 0.338666,-0.54187 l -0.08467,-5.53719 c -0.01693,-0.77893 -0.135466,-1.33773 -0.609598,-1.74413 -0.389466,-0.33866 -0.897465,-0.4572 -1.676397,-0.4572 z"
         style="font-weight:bold;font-family:'Hillel CLM';-inkscape-font-specification:'Hillel CLM Bold'"
         id="path20356" />
      <path
         d="m 25.310697,115.931 c -0.287866,0 -0.474133,0.2032 -0.423333,0.4572 l 0.169333,0.67733 c 0.0508,0.254 0.254,0.38947 0.507999,0.38947 h 3.48826 c 0.372533,0 0.660399,0.13547 0.626532,0.57573 l -0.338666,5.70652 c -0.01693,0.27094 -0.01693,0.38947 0.0508,0.52494 0.06773,0.13546 0.321733,0.25399 0.558799,0.15239 l 0.440266,-0.18626 c 0.220133,-0.0847 0.338666,-0.28787 0.338666,-0.54187 l -0.1016,-5.68959 c 0,-0.33866 0.186266,-0.54186 0.474132,-0.54186 0.372533,0 0.575733,-0.16933 0.643466,-0.4572 l 0.118533,-0.62653 c 0.06773,-0.28787 -0.135466,-0.44027 -0.491066,-0.44027 z"
         style="font-weight:bold;font-family:'Hillel CLM';-inkscape-font-specification:'Hillel CLM Bold'"
         id="path20358" />
      <path
         d="m 17.385936,124.39765 h 1.777997 c 0.660398,0 1.236131,0 1.777996,-0.254 0.524933,-0.254 0.795865,-0.52493 1.066798,-0.93133 0.406399,-0.6096 0.592666,-1.25306 0.728132,-1.96426 l 0.948265,-4.63973 c 0.0508,-0.23706 0.0508,-0.37253 0,-0.508 -0.06773,-0.1524 -0.321733,-0.25399 -0.541866,-0.16933 l -0.711198,0.28787 c -0.237067,0.1016 -0.3556,0.3048 -0.372533,0.54186 l -0.304799,3.69146 c -0.01693,0.37254 -0.06773,0.77893 -0.169333,1.1176 -0.08467,0.32173 -0.2032,0.6096 -0.372533,0.82973 -0.304799,0.38947 -0.694265,0.47413 -1.303864,0.47413 h -0.372533 c -0.253999,0 -0.423332,-0.1524 -0.389466,-0.42333 l 0.626533,-5.84199 c 0.01693,-0.23706 0,-0.37253 -0.06773,-0.508 -0.06773,-0.1524 -0.338666,-0.25399 -0.541865,-0.16933 l -0.694266,0.3048 c -0.220132,0.1016 -0.321732,0.3048 -0.321732,0.54187 l 0.0508,5.65572 c 0,0.27093 -0.169333,0.44026 -0.389466,0.44026 H 17.30127 c -0.287866,0 -0.507999,-0.0339 -0.643466,-0.13546 -0.169333,-0.1016 -0.253999,-0.33867 -0.287866,-0.5588 l -0.761998,-5.70652 c -0.03387,-0.254 -0.1016,-0.4064 -0.2032,-0.49107 -0.135466,-0.1016 -0.355599,-0.11853 -0.575732,-0.0169 l -0.643465,0.27093 c -0.2032,0.0847 -0.220133,0.38947 -0.169333,0.59267 l 1.574796,6.36692 c 0.1016,0.42333 0.321733,0.77893 0.609599,0.9652 0.3048,0.16933 0.711199,0.23706 1.185331,0.23706 z"
         style="font-weight:bold;font-family:'Hillel CLM';-inkscape-font-specification:'Hillel CLM Bold'"
         id="path20360" />
      <path
         d="m 4.6859725,122.33179 c 0.507999,-0.98213 0.7619985,-2.0828 0.7281319,-3.47133 -0.016933,-0.8636 -0.3047994,-1.77799 -0.7789318,-2.31986 -0.169333,-0.16933 -0.4741324,-0.37253 -0.7958651,-0.47413 -0.338666,-0.1016 -0.6942653,-0.13547 -1.1514644,-0.13547 h -2.8955943 c -0.3047994,0 -0.4910657,0.2032 -0.4402658,0.4572 l 0.169333,0.67733 c 0.0507999,0.254 0.2539995,0.38947 0.507999,0.38947 h 2.5061284 c 0.4233325,0 0.7450652,0.0847 0.9651981,0.254 0.3047994,0.22013 0.4910657,0.52493 0.5418656,0.7112 0.2031996,0.54186 0.2878661,1.04986 0.2878661,1.74413 0,0.8128 -0.2201329,1.59173 -0.5757322,2.09973 -0.2709328,0.4064 -0.5757322,0.60959 -1.0498646,0.60959 h -2.9633275 c -0.2539995,0 -0.4571991,0.1524 -0.507999,0.38947 l -0.169333,0.67733 c -0.0507999,0.27094 0.1354664,0.4572 0.4233325,0.4572 h 6.0790547 c 0.3555993,0 0.5587989,-0.13546 0.4910657,-0.44026 l -0.1185331,-0.62654 c -0.0508,-0.27093 -0.2709328,-0.44026 -0.6265321,-0.44026 l -0.1523997,-0.0169 c -0.4910657,0 -0.6603987,-0.16933 -0.4741324,-0.54186 z"
         style="font-weight:bold;font-family:'Hillel CLM';-inkscape-font-specification:'Hillel CLM Bold'"
         id="path20362" />
      <path
         d="m -6.2529106,122.87365 c -0.2539995,0 -0.4402658,0.1524 -0.507999,0.38947 l -0.1523997,0.67733 c -0.067733,0.27094 0.1185331,0.4572 0.4233325,0.4572 h 2.8617277 c 0.338666,0 0.4910657,-0.13546 0.6095988,-0.38946 l 0.3725326,-0.69427 c 0.1015998,-0.16933 0.1354664,-0.38947 0.1354664,-0.57573 l -0.2539995,-4.58893 c -0.0508,-0.71119 -0.1523997,-1.26999 -0.5249323,-1.67639 -0.2201329,-0.23707 -0.5587989,-0.38947 -0.846665,-0.4572 -0.3047994,-0.0677 -0.6603987,-0.0847 -1.015998,-0.0847 h -0.7789318 c -0.2878661,0 -0.4741324,0.2032 -0.4233325,0.4572 l 0.169333,0.67733 c 0.0508,0.254 0.2539995,0.38947 0.507999,0.38947 h 0.7619985 c 0.3725326,0 0.7619985,0.1016 0.9482648,0.33866 0.2201329,0.27094 0.2031996,0.69427 0.2031996,1.1176 l -0.016933,3.16653 c 0,0.23707 -0.0508,0.47413 -0.2031996,0.6096 -0.1523997,0.1524 -0.3894659,0.18626 -0.7450652,0.18626 z"
         style="font-weight:bold;font-family:'Hillel CLM';-inkscape-font-specification:'Hillel CLM Bold'"
         id="path20364" />
      <path
         d="m -9.0468892,123.68645 -0.1354664,-6.62092 c -0.016933,-0.37253 -0.084667,-0.67733 -0.3217327,-0.88053 -0.2201329,-0.18627 -0.5079987,-0.254 -0.8635987,-0.254 h -0.761998 c -0.3048,0 -0.491066,0.2032 -0.423333,0.4572 l 0.1524,0.67733 c 0.06773,0.254 0.270933,0.4064 0.507999,0.4064 l 0.440266,0.0339 c 0.08467,0 0.186266,0.0508 0.237066,0.1016 0.06773,0.0847 0.118533,0.22013 0.118533,0.33866 l -0.338666,5.79119 c -0.01693,0.254 0,0.38947 0.0508,0.52494 0.08467,0.13546 0.338666,0.25399 0.558799,0.15239 l 0.4571991,-0.18626 c 0.2031996,-0.0847 0.3217327,-0.28787 0.3217327,-0.54187 z"
         style="font-weight:bold;font-family:'Hillel CLM';-inkscape-font-specification:'Hillel CLM Bold'"
         id="path20366" />
      <path
         d="m -19.765658,116.50673 c -0.270933,-0.4572 -0.761999,-0.57573 -1.473197,-0.57573 h -1.964263 c -0.304799,0 -0.491066,0.2032 -0.423333,0.4572 l 0.1524,0.67733 c 0.06773,0.254 0.254,0.38947 0.507999,0.38947 h 1.777997 c 0.507999,0 0.660398,0.3048 0.440265,0.64346 l -1.253064,1.99813 c -0.186266,0.3048 0.08467,0.6604 0.507999,0.5588 l 0.626532,-0.13546 c 0.254,-0.0508 0.474133,-0.23707 0.558799,-0.5588 l 0.558799,-1.79493 c 0.2032,-0.69427 0.237066,-1.2192 -0.01693,-1.65947 z"
         style="font-weight:bold;font-family:'Hillel CLM';-inkscape-font-specification:'Hillel CLM Bold'"
         id="path20368" />
      <path
         d="m -30.416682,122.87365 h -0.982132 c -0.253999,0 -0.457199,0.1524 -0.507999,0.38947 l -0.169333,0.67733 c -0.0508,0.27094 0.135467,0.4572 0.423333,0.4572 h 2.607728 c 0.643465,0 1.168398,-0.0339 1.625597,-0.254 0.609599,-0.27093 0.999065,-0.72813 1.219197,-1.27 0.220133,-0.50799 0.321733,-1.06679 0.423333,-1.65946 l 0.677332,-4.60586 c 0.03387,-0.23706 0.01693,-0.37253 -0.0508,-0.508 -0.06773,-0.1524 -0.338666,-0.25399 -0.558799,-0.16933 l -0.643465,0.28787 c -0.220133,0.0847 -0.321733,0.28786 -0.321733,0.52493 l -0.03387,3.77613 c 0,0.71119 -0.118533,1.38853 -0.457199,1.86266 -0.287866,0.37253 -0.677332,0.49106 -1.28693,0.49106 h -0.220133 c -0.1524,0 -0.237067,-0.0169 -0.3048,-0.0677 -0.08467,-0.0508 -0.135466,-0.16933 -0.169333,-0.27093 l -1.286931,-6.06212 c -0.0508,-0.254 -0.101599,-0.4064 -0.203199,-0.49107 -0.135467,-0.1016 -0.355599,-0.11853 -0.575732,-0.0169 l -0.609599,0.254 c -0.2032,0.0847 -0.237066,0.3556 -0.1524,0.59266 l 1.828797,5.70653 c 0.06773,0.23706 -0.0508,0.35559 -0.270933,0.35559 z"
         style="font-weight:bold;font-family:'Hillel CLM';-inkscape-font-specification:'Hillel CLM Bold'"
         id="path20370" />
      <path
         d="m -34.734671,122.33179 c 0.507999,-0.98213 0.761998,-2.0828 0.728132,-3.47133 -0.01693,-0.8636 -0.3048,-1.77799 -0.778932,-2.31986 -0.169333,-0.16933 -0.474133,-0.37253 -0.795865,-0.47413 -0.338666,-0.1016 -0.694266,-0.13547 -1.151465,-0.13547 h -2.895594 c -0.304799,0 -0.491066,0.2032 -0.440266,0.4572 l 0.169333,0.67733 c 0.0508,0.254 0.254,0.38947 0.507999,0.38947 h 2.506129 c 0.423332,0 0.745065,0.0847 0.965198,0.254 0.304799,0.22013 0.491065,0.52493 0.541865,0.7112 0.2032,0.54186 0.287866,1.04986 0.287866,1.74413 0,0.8128 -0.220132,1.59173 -0.575732,2.09973 -0.270933,0.4064 -0.575732,0.60959 -1.049864,0.60959 h -2.963328 c -0.253999,0 -0.457199,0.1524 -0.507999,0.38947 l -0.169333,0.67733 c -0.0508,0.27094 0.135466,0.4572 0.423333,0.4572 h 6.079054 c 0.3556,0 0.558799,-0.13546 0.491066,-0.44026 l -0.118533,-0.62654 c -0.0508,-0.27093 -0.270933,-0.44026 -0.626532,-0.44026 l -0.1524,-0.0169 c -0.491066,0 -0.660399,-0.16933 -0.474132,-0.54186 z"
         style="font-weight:bold;font-family:'Hillel CLM';-inkscape-font-specification:'Hillel CLM Bold'"
         id="path20372" />
      <path
         d="m -42.998106,119.19913 -0.321732,4.53812 c -0.01693,0.254 -0.01693,0.38947 0.0508,0.52494 0.08467,0.13546 0.338666,0.25399 0.558798,0.15239 l 0.4572,-0.18626 c 0.203199,-0.0847 0.321732,-0.28787 0.321732,-0.54187 l -0.08467,-4.65665 c -0.01693,-1.0668 -0.118533,-1.89653 -0.846665,-2.50613 -0.626532,-0.508 -1.439331,-0.59267 -2.539995,-0.59267 h -2.556929 c -0.304799,0 -0.491065,0.2032 -0.423332,0.4572 l 0.1524,0.67733 c 0.06773,0.254 0.253999,0.38947 0.507999,0.38947 h 2.912527 c 0.694266,0 1.202265,0.1524 1.507064,0.54186 0.253999,0.32174 0.338666,0.69427 0.304799,1.20227 z"
         style="font-weight:bold;font-family:'Hillel CLM';-inkscape-font-specification:'Hillel CLM Bold'"
         id="path20374" />
      <path
         d="m -51.667944,126.26031 0.711199,-1.89652 c 0.06773,-0.2032 0.118533,-0.42334 0.152399,-0.64347 l 0.08467,-0.67733 c 0.0508,-0.3048 -0.186266,-0.508 -0.507999,-0.508 h -0.643466 c -0.270932,0 -0.491065,0.22013 -0.524932,0.49106 l -0.135466,0.88054 c -0.01693,0.1524 0.03387,0.254 0.118533,0.33866 0.0508,0.0677 0.03387,0.1524 0.01693,0.254 l -0.304799,1.84573 c -0.01693,0.13547 0,0.254 0.06773,0.32173 0.08467,0.1016 0.220133,0.1016 0.355599,0.0677 l 0.254,-0.0677 c 0.186266,-0.0508 0.270933,-0.2032 0.355599,-0.4064 z"
         style="font-weight:bold;font-family:'Hillel CLM';-inkscape-font-specification:'Hillel CLM Bold'"
         id="path20376" />
      <path
         d="m 67.118956,138.89044 c 0.237066,0.22014 0.1524,0.6604 -0.270933,0.6604 h -4.605857 c -0.254,0 -0.457199,0.1524 -0.507999,0.38947 l -0.169333,0.67733 c -0.06773,0.27093 0.135466,0.4572 0.423332,0.4572 h 5.604923 c 0.321732,0 0.474132,-0.13547 0.609598,-0.38947 l 0.372533,-0.69426 c 0.08467,-0.16934 0.118533,-0.33867 0.118533,-0.57574 0,-0.54186 -0.795865,-1.13453 -1.066798,-1.54093 -0.186266,-0.30479 -0.1016,-0.66039 0.118533,-0.91439 0.237066,-0.28787 0.457199,-0.64347 0.558799,-0.93134 0.118533,-0.38946 0.2032,-0.94826 0.220133,-1.40546 l 0.1016,-1.6764 c 0.01693,-0.27093 -0.2032,-0.45719 -0.491066,-0.38946 l -0.677332,0.1524 c -0.253999,0.0677 -0.423332,0.23706 -0.423332,0.47413 l 0.101599,2.31986 c 0,0.254 0.01693,0.59267 -0.101599,0.77893 -0.1524,0.23707 -0.321733,0.32174 -0.592666,0.32174 -0.237066,0 -0.457199,-0.22014 -0.626532,-0.4064 l -3.149594,-3.48826 c -0.237066,-0.254 -0.592665,-0.23707 -0.677332,0.1016 l -0.220133,0.79586 c -0.101599,0.33867 -0.03387,0.6096 0.186267,0.79587 z"
         style="font-weight:bold;font-family:'Hillel CLM';-inkscape-font-specification:'Hillel CLM Bold'"
         id="path20378" />
      <path
         d="m 57.991928,139.19524 c 0.558799,-0.57573 0.982132,-1.10066 1.253064,-1.59173 0.321733,-0.59266 0.524933,-1.18533 0.626532,-1.74413 0.118534,-0.64346 0.118534,-1.30386 0.118534,-2.11666 0,-0.37253 -0.06773,-0.67733 -0.3048,-0.88053 -0.237066,-0.18627 -0.524932,-0.254 -0.863598,-0.254 h -3.877726 c -0.169333,0 -0.355599,0 -0.507999,-0.13547 -0.135466,-0.11853 -0.1524,-0.254 -0.118533,-0.44026 l 0.220133,-1.60867 c 0.03387,-0.37253 -0.0508,-0.67733 -0.270933,-0.88053 -0.220133,-0.18627 -0.507999,-0.254 -0.846665,-0.254 l -0.440266,0.0169 c -0.287866,0 -0.474132,0.18627 -0.423332,0.4572 l 0.169333,0.67734 c 0.03387,0.13546 0.1524,0.27093 0.304799,0.3556 0.1524,0.0677 0.186267,0.0508 0.321733,0.13546 0.135466,0.0677 0.2032,0.18627 0.169333,0.33867 l -0.338666,1.79493 c -0.06773,0.32173 -0.1016,0.6096 0.0508,0.82973 0.118533,0.16933 0.304799,0.23707 0.558799,0.23707 h 4.809057 c 0.135466,0 0.270933,0.0508 0.338666,0.1016 0.08467,0.0847 0.118533,0.22013 0.118533,0.35559 -0.01693,0.42334 -0.06773,0.77894 -0.186266,1.15147 -0.1016,0.3556 -0.3048,0.77893 -0.575732,1.15146 -0.220133,0.33867 -0.575733,0.74507 -0.982132,1.0668 l -1.913463,1.60866 c -0.203199,0.16934 -0.253999,0.4064 -0.169333,0.59267 l 0.270933,0.7112 c 0.1016,0.22013 0.355599,0.3048 0.524932,0.254 0.135467,-0.0508 0.254,-0.13547 0.423333,-0.32173 z"
         style="font-weight:bold;font-family:'Hillel CLM';-inkscape-font-specification:'Hillel CLM Bold'"
         id="path20380" />
      <path
         d="m 48.915684,132.62512 -4.233325,-0.0169 c -0.304799,0 -0.491066,0.2032 -0.423333,0.4572 l 0.1524,0.69426 c 0.08467,0.33867 0.186266,0.508 0.1524,0.94827 l -0.338666,5.70652 c -0.01693,0.27093 -0.01693,0.38947 0.0508,0.52493 0.08467,0.13547 0.321732,0.254 0.558799,0.1524 l 0.457199,-0.18626 c 0.203199,-0.0847 0.321732,-0.28787 0.321732,-0.54187 l -0.101599,-5.68959 c 0,-0.33867 0.186266,-0.54186 0.474132,-0.54186 h 3.064927 c 0.440266,0 0.761999,0.1016 0.965198,0.33866 0.2032,0.27093 0.220133,0.59267 0.186267,1.1176 l -0.3048,4.82599 c -0.01693,0.254 -0.01693,0.38947 0.0508,0.52493 0.06773,0.13547 0.321733,0.254 0.558799,0.1524 l 0.440266,-0.18626 c 0.220133,-0.0847 0.338666,-0.28787 0.338666,-0.54187 l -0.08467,-5.53719 c -0.01693,-0.77893 -0.135466,-1.33773 -0.609598,-1.74413 -0.389466,-0.33867 -0.897465,-0.4572 -1.676397,-0.4572 z"
         style="font-weight:bold;font-family:'Hillel CLM';-inkscape-font-specification:'Hillel CLM Bold'"
         id="path20382" />
      <path
         d="m 35.65692,133.18392 c -0.270933,-0.4572 -0.761999,-0.57573 -1.473197,-0.57573 H 32.21946 c -0.304799,0 -0.491066,0.2032 -0.423332,0.4572 l 0.152399,0.67733 c 0.06773,0.254 0.254,0.38947 0.507999,0.38947 h 1.777997 c 0.507999,0 0.660398,0.30479 0.440266,0.64346 l -1.253065,1.99813 c -0.186266,0.3048 0.08467,0.6604 0.507999,0.5588 l 0.626532,-0.13547 c 0.254,-0.0508 0.474133,-0.23706 0.558799,-0.5588 l 0.558799,-1.79493 c 0.2032,-0.69426 0.237067,-1.21919 -0.01693,-1.65946 z"
         style="font-weight:bold;font-family:'Hillel CLM';-inkscape-font-specification:'Hillel CLM Bold'"
         id="path20384" />
      <path
         d="m 28.223219,138.89044 c 0.237067,0.22014 0.1524,0.6604 -0.270932,0.6604 h -4.605858 c -0.253999,0 -0.457199,0.1524 -0.507999,0.38947 l -0.169333,0.67733 c -0.06773,0.27093 0.135466,0.4572 0.423333,0.4572 h 5.604922 c 0.321733,0 0.474132,-0.13547 0.609599,-0.38947 l 0.372532,-0.69426 c 0.08467,-0.16934 0.118533,-0.33867 0.118533,-0.57574 0,-0.54186 -0.795865,-1.13453 -1.066798,-1.54093 -0.186266,-0.30479 -0.101599,-0.66039 0.118534,-0.91439 0.237066,-0.28787 0.457199,-0.64347 0.558798,-0.93134 0.118534,-0.38946 0.2032,-0.94826 0.220133,-1.40546 l 0.1016,-1.6764 c 0.01693,-0.27093 -0.203199,-0.45719 -0.491066,-0.38946 l -0.677332,0.1524 c -0.253999,0.0677 -0.423332,0.23706 -0.423332,0.47413 l 0.1016,2.31986 c 0,0.254 0.01693,0.59267 -0.1016,0.77893 -0.1524,0.23707 -0.321733,0.32174 -0.592666,0.32174 -0.237066,0 -0.457199,-0.22014 -0.626532,-0.4064 l -3.149593,-3.48826 c -0.237067,-0.254 -0.592666,-0.23707 -0.677332,0.1016 l -0.220133,0.79586 c -0.1016,0.33867 -0.03387,0.6096 0.186266,0.79587 z"
         style="font-weight:bold;font-family:'Hillel CLM';-inkscape-font-specification:'Hillel CLM Bold'"
         id="path20386" />
      <path
         d="m 19.096191,139.19524 c 0.558799,-0.57573 0.982132,-1.10066 1.253065,-1.59173 0.321732,-0.59266 0.524932,-1.18533 0.626532,-1.74413 0.118533,-0.64346 0.118533,-1.30386 0.118533,-2.11666 0,-0.37253 -0.06773,-0.67733 -0.3048,-0.88053 -0.237066,-0.18627 -0.524932,-0.254 -0.863598,-0.254 h -3.877726 c -0.169333,0 -0.355599,0 -0.507999,-0.13547 -0.135466,-0.11853 -0.152399,-0.254 -0.118533,-0.44026 l 0.220133,-1.60867 c 0.03387,-0.37253 -0.0508,-0.67733 -0.270933,-0.88053 -0.220132,-0.18627 -0.507999,-0.254 -0.846665,-0.254 l -0.440265,0.0169 c -0.287866,0 -0.474133,0.18627 -0.423333,0.4572 l 0.169333,0.67734 c 0.03387,0.13546 0.1524,0.27093 0.3048,0.3556 0.152399,0.0677 0.186266,0.0508 0.321732,0.13546 0.135467,0.0677 0.2032,0.18627 0.169333,0.33867 l -0.338666,1.79493 c -0.06773,0.32173 -0.1016,0.6096 0.0508,0.82973 0.118533,0.16933 0.3048,0.23707 0.558799,0.23707 h 4.809057 c 0.135467,0 0.270933,0.0508 0.338666,0.1016 0.08467,0.0847 0.118533,0.22013 0.118533,0.35559 -0.01693,0.42334 -0.06773,0.77894 -0.186266,1.15147 -0.1016,0.3556 -0.304799,0.77893 -0.575732,1.15146 -0.220133,0.33867 -0.575732,0.74507 -0.982132,1.0668 l -1.913462,1.60866 c -0.2032,0.16934 -0.254,0.4064 -0.169333,0.59267 l 0.270932,0.7112 c 0.1016,0.22013 0.3556,0.3048 0.524933,0.254 0.135466,-0.0508 0.253999,-0.13547 0.423332,-0.32173 z"
         style="font-weight:bold;font-family:'Hillel CLM';-inkscape-font-specification:'Hillel CLM Bold'"
         id="path20388" />
      <path
         d="m 10.019936,132.62512 -4.2333252,-0.0169 c -0.3047994,0 -0.4910657,0.2032 -0.4233325,0.4572 l 0.1523997,0.69426 c 0.084666,0.33867 0.1862663,0.508 0.1523997,0.94827 l -0.338666,5.70652 c -0.016933,0.27093 -0.016933,0.38947 0.0508,0.52493 0.084666,0.13547 0.3217327,0.254 0.5587989,0.1524 l 0.4571991,-0.18626 c 0.2031996,-0.0847 0.3217327,-0.28787 0.3217327,-0.54187 l -0.1015998,-5.68959 c 0,-0.33867 0.1862663,-0.54186 0.4741324,-0.54186 h 3.064927 c 0.440266,0 0.761999,0.1016 0.965198,0.33866 0.2032,0.27093 0.220133,0.59267 0.186267,1.1176 l -0.3048,4.82599 c -0.01693,0.254 -0.01693,0.38947 0.0508,0.52493 0.06773,0.13547 0.321733,0.254 0.558799,0.1524 l 0.440266,-0.18626 c 0.220133,-0.0847 0.338666,-0.28787 0.338666,-0.54187 l -0.08467,-5.53719 c -0.01693,-0.77893 -0.135466,-1.33773 -0.609599,-1.74413 -0.389465,-0.33867 -0.897464,-0.4572 -1.676396,-0.4572 z"
         style="font-weight:bold;font-family:'Hillel CLM';-inkscape-font-specification:'Hillel CLM Bold'"
         id="path20390" />
      <path
         d="M -8.4203946,139.55084 H -9.402526 c -0.2539995,0 -0.4571991,0.1524 -0.507999,0.38947 l -0.169333,0.67733 c -0.0508,0.27093 0.1354664,0.4572 0.4233325,0.4572 h 2.6077282 c 0.6434654,0 1.1683977,-0.0339 1.6255968,-0.254 0.6095988,-0.27093 0.9990647,-0.72813 1.2191976,-1.27 0.2201329,-0.508 0.3217327,-1.0668 0.4233325,-1.65946 l 0.677332,-4.60586 c 0.033867,-0.23707 0.016933,-0.37253 -0.0508,-0.508 -0.067733,-0.1524 -0.338666,-0.254 -0.5587989,-0.16933 l -0.6434654,0.28786 c -0.2201329,0.0847 -0.3217327,0.28787 -0.3217327,0.52494 l -0.033867,3.77612 c 0,0.7112 -0.1185331,1.38853 -0.4571991,1.86267 -0.2878661,0.37253 -0.677332,0.49106 -1.2869308,0.49106 h -0.2201329 c -0.1523997,0 -0.2370662,-0.0169 -0.3047994,-0.0677 -0.084666,-0.0508 -0.1354664,-0.16933 -0.169333,-0.27093 l -1.2869308,-6.06213 c -0.0508,-0.254 -0.1015998,-0.4064 -0.2031996,-0.49106 -0.1354664,-0.1016 -0.3555993,-0.11853 -0.5757322,-0.0169 l -0.6095988,0.254 c -0.203199,0.0847 -0.237066,0.3556 -0.1523997,0.59267 l 1.8287964,5.70652 c 0.067733,0.23707 -0.0508,0.3556 -0.2709328,0.3556 z"
         style="font-weight:bold;font-family:'Hillel CLM';-inkscape-font-specification:'Hillel CLM Bold'"
         id="path20392" />
      <path
         d="m -13.686634,139.19524 c 0.558799,-0.57573 0.982131,-1.10066 1.253064,-1.59173 0.321733,-0.59266 0.524932,-1.18533 0.626532,-1.74413 0.118533,-0.64346 0.118533,-1.30386 0.118533,-2.11666 0,-0.37253 -0.06773,-0.67733 -0.304799,-0.88053 -0.237066,-0.18627 -0.524932,-0.254 -0.863598,-0.254 h -3.877726 c -0.169333,0 -0.355599,0 -0.507999,-0.13547 -0.135466,-0.11853 -0.1524,-0.254 -0.118533,-0.44026 l 0.220133,-1.60867 c 0.03387,-0.37253 -0.0508,-0.67733 -0.270933,-0.88053 -0.220133,-0.18627 -0.507999,-0.254 -0.846665,-0.254 l -0.440266,0.0169 c -0.287866,0 -0.474132,0.18627 -0.423332,0.4572 l 0.169333,0.67734 c 0.03387,0.13546 0.152399,0.27093 0.304799,0.3556 0.1524,0.0677 0.186266,0.0508 0.321733,0.13546 0.135466,0.0677 0.203199,0.18627 0.169333,0.33867 l -0.338666,1.79493 c -0.06773,0.32173 -0.1016,0.6096 0.0508,0.82973 0.118533,0.16933 0.304799,0.23707 0.558799,0.23707 h 4.809057 c 0.135466,0 0.270933,0.0508 0.338666,0.1016 0.08467,0.0847 0.118533,0.22013 0.118533,0.35559 -0.01693,0.42334 -0.06773,0.77894 -0.186266,1.15147 -0.1016,0.3556 -0.3048,0.77893 -0.575733,1.15146 -0.220133,0.33867 -0.575732,0.74507 -0.982131,1.0668 l -1.913463,1.60866 c -0.2032,0.16934 -0.253999,0.4064 -0.169333,0.59267 l 0.270933,0.7112 c 0.1016,0.22013 0.355599,0.3048 0.524932,0.254 0.135467,-0.0508 0.254,-0.13547 0.423333,-0.32173 z"
         style="font-weight:bold;font-family:'Hillel CLM';-inkscape-font-specification:'Hillel CLM Bold'"
         id="path20394" />
      <path
         d="m -26.928441,137.77284 c 0.118533,-0.72813 0.1524,-1.47319 0.08467,-2.23519 -0.06773,-0.69427 -0.321733,-1.3716 -0.677332,-1.84573 -0.321733,-0.42333 -0.812799,-0.74507 -1.371597,-0.89747 -0.507999,-0.13546 -1.066798,-0.18626 -1.69333,-0.18626 h -2.065863 c -0.287866,0 -0.474132,0.2032 -0.423333,0.4572 l 0.169333,0.67733 c 0.0508,0.254 0.254,0.38947 0.507999,0.38947 h 2.015063 c 0.558799,0 0.982132,0.0847 1.320798,0.27093 0.321732,0.16933 0.558798,0.37253 0.728131,0.6604 0.3048,0.508 0.423333,1.04986 0.440266,1.77799 0,0.84667 -0.0508,1.55787 -0.406399,2.09973 -0.253999,0.38947 -0.643465,0.6096 -1.253064,0.6096 h -2.997194 c -0.254,0 -0.440266,0.1524 -0.507999,0.38947 l -0.1524,0.67733 c -0.06773,0.27093 0.118533,0.4572 0.423333,0.4572 h 2.556928 c 0.660399,0 1.185331,-0.1016 1.64253,-0.32173 0.406399,-0.2032 0.728132,-0.54187 0.948265,-0.93134 0.355599,-0.62653 0.609599,-1.26999 0.711198,-2.04893 z"
         style="font-weight:bold;font-family:'Hillel CLM';-inkscape-font-specification:'Hillel CLM Bold'"
         id="path20396" />
      <path
         d="m -36.648136,139.19524 c 0.558799,-0.57573 0.982131,-1.10066 1.253064,-1.59173 0.321733,-0.59266 0.524932,-1.18533 0.626532,-1.74413 0.118533,-0.64346 0.118533,-1.30386 0.118533,-2.11666 0,-0.37253 -0.06773,-0.67733 -0.304799,-0.88053 -0.237066,-0.18627 -0.524932,-0.254 -0.863598,-0.254 h -3.877726 c -0.169333,0 -0.355599,0 -0.507999,-0.13547 -0.135467,-0.11853 -0.1524,-0.254 -0.118533,-0.44026 l 0.220133,-1.60867 c 0.03387,-0.37253 -0.0508,-0.67733 -0.270933,-0.88053 -0.220133,-0.18627 -0.507999,-0.254 -0.846665,-0.254 l -0.440266,0.0169 c -0.287866,0 -0.474132,0.18627 -0.423332,0.4572 l 0.169333,0.67734 c 0.03387,0.13546 0.152399,0.27093 0.304799,0.3556 0.1524,0.0677 0.186266,0.0508 0.321733,0.13546 0.135466,0.0677 0.203199,0.18627 0.169333,0.33867 l -0.338666,1.79493 c -0.06773,0.32173 -0.1016,0.6096 0.0508,0.82973 0.118533,0.16933 0.304799,0.23707 0.558798,0.23707 h 4.809058 c 0.135466,0 0.270932,0.0508 0.338666,0.1016 0.08467,0.0847 0.118533,0.22013 0.118533,0.35559 -0.01693,0.42334 -0.06773,0.77894 -0.186267,1.15147 -0.101599,0.3556 -0.304799,0.77893 -0.575732,1.15146 -0.220133,0.33867 -0.575732,0.74507 -0.982131,1.0668 l -1.913463,1.60866 c -0.2032,0.16934 -0.254,0.4064 -0.169333,0.59267 l 0.270933,0.7112 c 0.1016,0.22013 0.355599,0.3048 0.524932,0.254 0.135466,-0.0508 0.254,-0.13547 0.423333,-0.32173 z"
         style="font-weight:bold;font-family:'Hillel CLM';-inkscape-font-specification:'Hillel CLM Bold'"
         id="path20398" />
      <path
         d="m -47.079023,139.55084 c -0.254,0 -0.440266,0.1524 -0.507999,0.38947 l -0.1524,0.67733 c -0.06773,0.27093 0.118533,0.4572 0.423333,0.4572 h 2.861727 c 0.338666,0 0.491066,-0.13547 0.609599,-0.38947 l 0.372533,-0.69426 c 0.1016,-0.16934 0.135466,-0.38947 0.135466,-0.57574 l -0.253999,-4.58892 c -0.0508,-0.7112 -0.1524,-1.27 -0.524933,-1.6764 -0.220132,-0.23706 -0.558798,-0.38946 -0.846665,-0.4572 -0.304799,-0.0677 -0.660398,-0.0847 -1.015998,-0.0847 h -0.778931 c -0.287866,0 -0.474133,0.2032 -0.423333,0.4572 l 0.169333,0.67733 c 0.0508,0.254 0.254,0.38947 0.507999,0.38947 h 0.761999 c 0.372532,0 0.761998,0.1016 0.948264,0.33866 0.220133,0.27093 0.2032,0.69427 0.2032,1.1176 l -0.01693,3.16653 c 0,0.23706 -0.0508,0.47413 -0.2032,0.60959 -0.1524,0.1524 -0.389466,0.18627 -0.745065,0.18627 z"
         style="font-weight:bold;font-family:'Hillel CLM';-inkscape-font-specification:'Hillel CLM Bold'"
         id="path20400" />
      <path
         d="m -49.872998,140.36364 -0.135466,-6.62092 c -0.01693,-0.37253 -0.08467,-0.67733 -0.321733,-0.88053 -0.220133,-0.18627 -0.507999,-0.254 -0.863598,-0.254 h -0.761999 c -0.304799,0 -0.491065,0.2032 -0.423332,0.4572 l 0.152399,0.67733 c 0.06773,0.254 0.270933,0.4064 0.507999,0.4064 l 0.440266,0.0339 c 0.08467,0 0.186267,0.0508 0.237066,0.10159 0.06773,0.0847 0.118534,0.22014 0.118534,0.33867 l -0.338666,5.79119 c -0.01693,0.254 0,0.38947 0.0508,0.52493 0.08467,0.13547 0.338666,0.254 0.558799,0.1524 l 0.457199,-0.18626 c 0.2032,-0.0847 0.321733,-0.28787 0.321733,-0.54187 z"
         style="font-weight:bold;font-family:'Hillel CLM';-inkscape-font-specification:'Hillel CLM Bold'"
         id="path20402" />
      <path
         d="m -55.782703,142.9375 0.711198,-1.89653 c 0.06773,-0.2032 0.118533,-0.42333 0.1524,-0.64346 l 0.08467,-0.67734 c 0.0508,-0.3048 -0.186267,-0.50799 -0.507999,-0.50799 H -55.9859 c -0.270933,0 -0.491066,0.22013 -0.524932,0.49106 l -0.135467,0.88053 c -0.01693,0.1524 0.03387,0.254 0.118534,0.33867 0.0508,0.0677 0.03387,0.1524 0.01693,0.254 l -0.3048,1.84573 c -0.01693,0.13546 0,0.254 0.06773,0.32173 0.08467,0.1016 0.220133,0.1016 0.355599,0.0677 l 0.253999,-0.0677 c 0.186267,-0.0508 0.270933,-0.2032 0.3556,-0.4064 z m -0.2032,-8.61905 c -0.270933,0 -0.491066,0.22013 -0.524932,0.49107 l -0.135467,0.88053 c -0.03387,0.28786 0.186267,0.49106 0.524933,0.49106 h 0.660398 c 0.254,0 0.474133,-0.16933 0.507999,-0.44026 l 0.135467,-0.9144 c 0.03387,-0.3048 -0.2032,-0.508 -0.524932,-0.508 z"
         style="font-weight:bold;font-family:'Hillel CLM';-inkscape-font-specification:'Hillel CLM Bold'"
         id="path20404" />
      <path
         d="m 63.325895,151.40204 c -0.609599,1.77799 -1.032931,3.82692 -1.202264,5.70652 -0.01693,0.254 -0.01693,0.37253 0.01693,0.508 0.06773,0.1524 0.3048,0.254 0.541866,0.1524 l 0.474132,-0.18627 c 0.220133,-0.0847 0.3556,-0.28786 0.372533,-0.52493 0.1016,-1.43933 0.08467,-2.89559 0.321733,-4.23333 0.08467,-0.49106 0.237066,-0.89746 0.507999,-1.28693 0.355599,-0.508 0.948264,-0.76199 1.557863,-0.76199 0.660399,0 1.456264,0.28786 1.89653,1.42239 0.355599,0.9144 0.541865,2.25213 0.440266,3.6068 -0.01693,0.23706 0,0.42333 -0.491066,0.42333 h -2.302929 c -0.253999,0 -0.457199,0.1524 -0.507999,0.38946 l -0.169333,0.67734 c -0.0508,0.27093 0.135466,0.45719 0.440266,0.45719 h 2.827861 c 0.338666,0 0.491066,-0.13546 0.609599,-0.38946 l 0.372532,-0.69427 c 0.08467,-0.16933 0.1524,-0.82973 0.169333,-1.37159 0.06773,-1.33773 0.06773,-2.286 -0.169333,-3.5052 -0.118533,-0.6096 -0.287866,-1.13453 -0.694265,-1.64253 -0.440266,-0.54186 -1.134531,-0.89746 -1.947329,-0.89746 -0.524933,0 -1.066798,0.0677 -1.540931,0.32173 -0.237066,0.13547 -0.541865,0.37253 -0.745065,0.62653 -0.1524,0.18627 -0.220133,0.0339 -0.321733,-0.28786 -0.03387,-0.13547 -0.101599,-0.27094 -0.220133,-0.3556 -0.220132,-0.18627 -0.474132,-0.27094 -0.829731,-0.27094 h -0.423333 c -0.304799,0.0169 -0.491065,0.2032 -0.423332,0.4572 l 0.186266,0.8128 c 0.0508,0.23707 0.254,0.38947 0.507999,0.4064 l 0.389466,0.0339 c 0.135466,0 0.253999,0.0339 0.304799,0.1016 0.06773,0.0677 0.1016,0.16933 0.0508,0.3048 z"
         style="font-weight:bold;font-family:'Hillel CLM';-inkscape-font-specification:'Hillel CLM Bold'"
         id="path20406" />
      <path
         d="m 60.27792,149.86111 c -0.270932,-0.4572 -0.761998,-0.57574 -1.473197,-0.57574 h -1.964262 c -0.3048,0 -0.491066,0.2032 -0.423333,0.4572 l 0.1524,0.67734 c 0.06773,0.254 0.253999,0.38946 0.507999,0.38946 h 1.777996 c 0.507999,0 0.660399,0.3048 0.440266,0.64347 l -1.253064,1.99813 c -0.186266,0.3048 0.08467,0.6604 0.507999,0.5588 l 0.626532,-0.13547 c 0.253999,-0.0508 0.474132,-0.23707 0.558799,-0.5588 l 0.558799,-1.79493 c 0.203199,-0.69426 0.237066,-1.2192 -0.01693,-1.65946 z"
         style="font-weight:bold;font-family:'Hillel CLM';-inkscape-font-specification:'Hillel CLM Bold'"
         id="path20408" />
      <path
         d="m 45.054883,149.28537 c -0.287866,0 -0.474132,0.2032 -0.423332,0.4572 l 0.169333,0.67734 c 0.0508,0.254 0.253999,0.38946 0.507999,0.38946 l 0.118533,0.0169 c 0.2032,0 0.372533,0.0339 0.491066,0.13546 0.118533,0.1016 0.152399,0.27093 0.135466,0.42333 -0.287866,1.84573 -0.389466,3.87773 -0.270933,5.72346 0.01693,0.254 0.0508,0.37253 0.118533,0.508 0.06773,0.1524 0.321733,0.254 0.541866,0.1524 l 0.457199,-0.18627 c 0.220133,-0.0847 0.321733,-0.28786 0.270933,-0.52493 -0.287866,-1.84573 -0.406399,-3.86079 -0.220133,-5.70652 0.01693,-0.13547 0.03387,-0.254 0.135466,-0.37254 0.08467,-0.0847 0.237067,-0.15239 0.372533,-0.15239 h 0.1524 c 0.355599,-0.0169 0.575732,-0.18627 0.626532,-0.4572 l 0.118533,-0.62654 c 0.06773,-0.3048 -0.135467,-0.44026 -0.491066,-0.44026 z"
         style="font-weight:bold;font-family:'Hillel CLM';-inkscape-font-specification:'Hillel CLM Bold'"
         id="path20410" />
      <path
         d="m 37.434927,153.6711 c 0,-0.2032 0,-0.32173 -0.0508,-0.42333 -0.0508,-0.11854 -0.253999,-0.2032 -0.440266,-0.11854 l -0.355599,0.1524 c -0.169333,0.0677 -0.254,0.23707 -0.270933,0.42334 l -0.220133,3.38666 c 0,0.254 0,0.38946 0.06773,0.52493 0.06773,0.13546 0.321733,0.254 0.558799,0.1524 l 0.440266,-0.18627 c 0.220133,-0.0847 0.338666,-0.28786 0.338666,-0.54186 z m 5.401723,3.36973 -0.08467,-5.53719 c -0.01693,-0.77893 -0.135466,-1.33773 -0.609599,-1.74413 -0.389466,-0.33867 -0.897465,-0.47414 -1.676396,-0.47414 h -3.979326 c -0.304799,0 -0.491066,0.2032 -0.423332,0.4572 l 0.152399,0.67734 c 0.06773,0.254 0.254,0.38946 0.507999,0.38946 h 3.877726 c 0.440266,0 0.761999,0.1016 0.965198,0.33867 0.2032,0.27093 0.220133,0.59266 0.186266,1.1176 l -0.304799,4.82599 c -0.01693,0.254 -0.01693,0.38946 0.0508,0.52493 0.06773,0.13546 0.321733,0.254 0.558799,0.1524 l 0.440266,-0.18627 c 0.220133,-0.0847 0.338666,-0.28786 0.338666,-0.54186 z"
         style="font-weight:bold;font-family:'Hillel CLM';-inkscape-font-specification:'Hillel CLM Bold'"
         id="path20412" />
      <path
         d="m 27.782964,149.86111 c -0.270933,-0.4572 -0.761999,-0.57574 -1.473198,-0.57574 h -1.964262 c -0.3048,0 -0.491066,0.2032 -0.423333,0.4572 l 0.1524,0.67734 c 0.06773,0.254 0.253999,0.38946 0.507999,0.38946 h 1.777996 c 0.507999,0 0.660399,0.3048 0.440266,0.64347 l -1.253064,1.99813 c -0.186266,0.3048 0.08467,0.6604 0.507999,0.5588 l 0.626532,-0.13547 c 0.254,-0.0508 0.474132,-0.23707 0.558799,-0.5588 l 0.558799,-1.79493 c 0.203199,-0.69426 0.237066,-1.2192 -0.01693,-1.65946 z"
         style="font-weight:bold;font-family:'Hillel CLM';-inkscape-font-specification:'Hillel CLM Bold'"
         id="path20414" />
      <path
         d="m 22.601384,151.72377 c 0,-0.13547 0,-0.27093 -0.01693,-0.4064 -0.0508,-0.6096 -0.3556,-1.1684 -0.761999,-1.49013 -0.253999,-0.18627 -0.626532,-0.3556 -1.134531,-0.4572 -0.389466,-0.0677 -0.863598,-0.0847 -1.405464,-0.0847 h -3.522126 c -0.3048,0 -0.491066,0.2032 -0.440266,0.4572 l 0.169333,0.67734 c 0.0508,0.254 0.253999,0.38946 0.507999,0.38946 h 4.063992 c 0.440266,0 0.795865,0.0677 1.083731,0.28787 0.355599,0.254 0.474133,0.64346 0.474133,1.10066 0,0.62653 -0.2032,1.15147 -1.083732,1.89653 l -2.252129,1.94733 c -0.186266,0.16933 -0.253999,0.38947 -0.169333,0.59267 l 0.287867,0.7112 c 0.08467,0.22013 0.355599,0.30479 0.507999,0.254 0.152399,-0.0508 0.253999,-0.1524 0.440265,-0.33867 l 1.94733,-2.032 c 0.423332,-0.44026 0.795865,-0.98213 0.999065,-1.47319 0.220132,-0.5588 0.304799,-1.04987 0.304799,-1.524 z m -6.536254,1.2192 -0.220133,8.17878 c -0.01693,0.22013 -0.01693,0.38947 0.0508,0.508 0.06773,0.1524 0.321733,0.27093 0.558799,0.16933 l 0.457199,-0.2032 c 0.2032,-0.0847 0.321733,-0.32173 0.321733,-0.52493 l -0.118533,-8.22958 c 0,-0.13547 0.01693,-0.254 -0.03387,-0.3556 -0.0508,-0.1016 -0.237066,-0.18627 -0.389466,-0.1016 l -0.389466,0.16933 c -0.152399,0.0677 -0.220133,0.23707 -0.237066,0.38947 z"
         style="font-weight:bold;font-family:'Hillel CLM';-inkscape-font-specification:'Hillel CLM Bold'"
         id="path20416" />
      <path
         d="m 13.084885,157.04083 -0.135466,-6.62092 c -0.01693,-0.37254 -0.08467,-0.67734 -0.321733,-0.88054 -0.220133,-0.18626 -0.507999,-0.254 -0.863598,-0.254 h -0.761999 c -0.304799,0 -0.491065,0.2032 -0.423332,0.4572 l 0.1524,0.67734 c 0.06773,0.254 0.270932,0.4064 0.507999,0.4064 l 0.440265,0.0339 c 0.08467,0 0.186267,0.0508 0.237067,0.1016 0.06773,0.0847 0.118533,0.22013 0.118533,0.33867 l -0.338666,5.79119 c -0.01693,0.254 0,0.38946 0.0508,0.52493 0.08467,0.13546 0.338666,0.254 0.558798,0.1524 l 0.4572,-0.18627 c 0.203199,-0.0847 0.321732,-0.28786 0.321732,-0.54186 z"
         style="font-weight:bold;font-family:'Hillel CLM';-inkscape-font-specification:'Hillel CLM Bold'"
         id="path20418" />
      <path
         d="m 6.4978598,150.80937 c 0.5587989,0 0.9651981,0.11853 1.2191976,0.44027 0.2539995,0.32173 0.2878661,0.69426 0.2539995,1.30386 l -0.169333,3.01413 c -0.016933,0.47413 -0.4233325,0.6604 -1.0498646,0.6604 H 4.2626642 c -0.5587989,0 -0.846665,-0.18627 -0.846665,-0.67733 l -0.067733,-4.19946 c -0.016933,-0.33867 0.169333,-0.54187 0.4571991,-0.54187 z m 2.4045286,1.13453 c -0.016933,-0.89746 -0.2031996,-1.65946 -0.7619985,-2.11666 -0.5757322,-0.4572 -1.2869308,-0.54187 -2.2859955,-0.54187 H 2.501601 c -0.3047994,0 -0.4910657,0.2032 -0.4233325,0.4572 l 0.1523997,0.69427 c 0.084666,0.33867 0.169333,0.508 0.1523997,0.94826 l -0.1185331,5.53719 c -0.016933,0.32174 0.016933,0.508 0.1185331,0.62654 0.1185331,0.13546 0.3217327,0.20319 0.5587989,0.20319 h 4.910657 c 0.3217327,0 0.4741324,-0.13546 0.6095988,-0.38946 l 0.3725326,-0.69427 c 0.084666,-0.16933 0.1185331,-0.37253 0.1185331,-0.57573 z"
         style="font-weight:bold;font-family:'Hillel CLM';-inkscape-font-specification:'Hillel CLM Bold'"
         id="path20420" />
      <path
         d="m -11.315946,156.22803 h -0.982131 c -0.254,0 -0.4572,0.1524 -0.507999,0.38946 l -0.169333,0.67734 c -0.0508,0.27093 0.135466,0.45719 0.423332,0.45719 h 2.6077282 c 0.6434654,0 1.1683977,-0.0339 1.6255968,-0.25399 0.6095988,-0.27094 0.9990647,-0.72814 1.2191976,-1.27 0.2201329,-0.508 0.3217327,-1.0668 0.4233325,-1.65947 l 0.677332,-4.60585 c 0.033867,-0.23707 0.016933,-0.37254 -0.0508,-0.508 -0.067733,-0.1524 -0.338666,-0.254 -0.5587989,-0.16934 l -0.6434654,0.28787 c -0.2201329,0.0847 -0.3217327,0.28787 -0.3217327,0.52493 l -0.033867,3.77613 c 0,0.7112 -0.1185331,1.38853 -0.4571991,1.86266 -0.2878661,0.37253 -0.677332,0.49107 -1.2869308,0.49107 h -0.2201329 c -0.1523997,0 -0.2370662,-0.0169 -0.3047994,-0.0677 -0.084667,-0.0508 -0.1354669,-0.16933 -0.1693329,-0.27093 l -1.28693,-6.06212 c -0.0508,-0.254 -0.1016,-0.4064 -0.203201,-0.49107 -0.135465,-0.1016 -0.355598,-0.11853 -0.575732,-0.0169 l -0.609598,0.254 c -0.203201,0.0847 -0.237067,0.3556 -0.1524,0.59267 l 1.828796,5.70652 c 0.06773,0.23706 -0.0508,0.3556 -0.270932,0.3556 z"
         style="font-weight:bold;font-family:'Hillel CLM';-inkscape-font-specification:'Hillel CLM Bold'"
         id="path20422" />
      <path
         d="m -17.225651,150.80937 c 0.558799,0 0.965198,0.11853 1.219198,0.44027 0.253999,0.32173 0.287866,0.69426 0.253999,1.30386 l -0.169333,3.01413 c -0.01693,0.47413 -0.423332,0.6604 -1.049864,0.6604 h -2.489196 c -0.558798,0 -0.846665,-0.18627 -0.846665,-0.67733 l -0.06773,-4.19946 c -0.01693,-0.33867 0.169333,-0.54187 0.457199,-0.54187 z m 2.404529,1.13453 c -0.01693,-0.89746 -0.2032,-1.65946 -0.761999,-2.11666 -0.575732,-0.4572 -1.286931,-0.54187 -2.285995,-0.54187 h -3.352794 c -0.304799,0 -0.491065,0.2032 -0.423332,0.4572 l 0.152399,0.69427 c 0.08467,0.33867 0.169333,0.508 0.1524,0.94826 l -0.118533,5.53719 c -0.01693,0.32174 0.01693,0.508 0.118533,0.62654 0.118533,0.13546 0.321733,0.20319 0.558799,0.20319 h 4.910657 c 0.321733,0 0.474132,-0.13546 0.609599,-0.38946 l 0.372532,-0.69427 c 0.08467,-0.16933 0.118534,-0.37253 0.118534,-0.57573 z"
         style="font-weight:bold;font-family:'Hillel CLM';-inkscape-font-specification:'Hillel CLM Bold'"
         id="path20424" />
      <path
         d="m -35.276506,153.6711 c 0,-0.2032 0,-0.32173 -0.0508,-0.42333 -0.0508,-0.11854 -0.254,-0.2032 -0.440266,-0.11854 l -0.355599,0.1524 c -0.169333,0.0677 -0.254,0.23707 -0.270933,0.42334 l -0.220133,3.38666 c 0,0.254 0,0.38946 0.06773,0.52493 0.06773,0.13546 0.321733,0.254 0.558799,0.1524 l 0.440266,-0.18627 c 0.220133,-0.0847 0.338666,-0.28786 0.338666,-0.54186 z m 5.401722,3.36973 -0.08467,-5.53719 c -0.01693,-0.77893 -0.135467,-1.33773 -0.609599,-1.74413 -0.389466,-0.33867 -0.897465,-0.47414 -1.676397,-0.47414 h -3.979325 c -0.3048,0 -0.491066,0.2032 -0.423333,0.4572 l 0.1524,0.67734 c 0.06773,0.254 0.253999,0.38946 0.507999,0.38946 h 3.877726 c 0.440265,0 0.761998,0.1016 0.965198,0.33867 0.203199,0.27093 0.220133,0.59266 0.186266,1.1176 l -0.304799,4.82599 c -0.01693,0.254 -0.01693,0.38946 0.0508,0.52493 0.06773,0.13546 0.321732,0.254 0.558798,0.1524 l 0.440266,-0.18627 c 0.220133,-0.0847 0.338666,-0.28786 0.338666,-0.54186 z"
         style="font-weight:bold;font-family:'Hillel CLM';-inkscape-font-specification:'Hillel CLM Bold'"
         id="path20426" />
      <path
         d="m -39.408214,152.5535 -0.321732,4.53813 c -0.01693,0.254 -0.01693,0.38946 0.0508,0.52493 0.08467,0.13546 0.338666,0.254 0.558799,0.1524 l 0.457199,-0.18627 c 0.2032,-0.0847 0.321733,-0.28786 0.321733,-0.54186 l -0.08467,-4.65666 c -0.01693,-1.0668 -0.118533,-1.89653 -0.846665,-2.50613 -0.626532,-0.508 -1.439331,-0.59267 -2.539995,-0.59267 h -2.556929 c -0.304799,0 -0.491065,0.2032 -0.423332,0.4572 l 0.1524,0.67734 c 0.06773,0.254 0.253999,0.38946 0.507999,0.38946 h 2.912527 c 0.694265,0 1.202264,0.1524 1.507064,0.54187 0.253999,0.32173 0.338666,0.69426 0.304799,1.20226 z"
         style="font-weight:bold;font-family:'Hillel CLM';-inkscape-font-specification:'Hillel CLM Bold'"
         id="path20428" />
      <path
         d="m -46.858846,157.04083 -0.135466,-6.62092 c -0.01693,-0.37254 -0.08467,-0.67734 -0.321733,-0.88054 -0.220133,-0.18626 -0.507999,-0.254 -0.863598,-0.254 h -0.761999 c -0.304799,0 -0.491066,0.2032 -0.423332,0.4572 l 0.152399,0.67734 c 0.06773,0.254 0.270933,0.4064 0.507999,0.4064 l 0.440266,0.0339 c 0.08467,0 0.186266,0.0508 0.237066,0.1016 0.06773,0.0847 0.118533,0.22013 0.118533,0.33867 l -0.338666,5.79119 c -0.01693,0.254 0,0.38946 0.0508,0.52493 0.08467,0.13546 0.338666,0.254 0.558799,0.1524 l 0.457199,-0.18627 c 0.2032,-0.0847 0.321733,-0.28786 0.321733,-0.54186 z"
         style="font-weight:bold;font-family:'Hillel CLM';-inkscape-font-specification:'Hillel CLM Bold'"
         id="path20430" />
      <path
         d="m -53.378164,149.30231 -4.233325,-0.0169 c -0.304799,0 -0.491066,0.2032 -0.423332,0.4572 l 0.152399,0.69427 c 0.08467,0.33867 0.186267,0.508 0.1524,0.94826 l -0.338666,5.70653 c -0.01693,0.27093 -0.01693,0.38946 0.0508,0.52493 0.08467,0.13546 0.321733,0.254 0.558799,0.1524 l 0.457199,-0.18627 c 0.203199,-0.0847 0.321733,-0.28786 0.321733,-0.54186 l -0.1016,-5.68959 c 0,-0.33867 0.186266,-0.54187 0.474132,-0.54187 h 3.064927 c 0.440266,0 0.761999,0.1016 0.965199,0.33867 0.203199,0.27093 0.220132,0.59266 0.186266,1.1176 l -0.3048,4.82599 c -0.01693,0.254 -0.01693,0.38946 0.0508,0.52493 0.06773,0.13546 0.321733,0.254 0.558799,0.1524 l 0.440266,-0.18627 c 0.220133,-0.0847 0.338666,-0.28786 0.338666,-0.54186 l -0.08467,-5.53719 c -0.01693,-0.77893 -0.135467,-1.33773 -0.609599,-1.74413 -0.389466,-0.33867 -0.897465,-0.4572 -1.676397,-0.4572 z"
         style="font-weight:bold;font-family:'Hillel CLM';-inkscape-font-specification:'Hillel CLM Bold'"
         id="path20432" />
      <path
         d="m -63.334943,155.88936 c -0.270933,0 -0.474132,0.22013 -0.524932,0.49107 l -0.118533,0.88053 c -0.0508,0.28787 0.186266,0.49106 0.507999,0.49106 h 0.575732 c 0.270933,0 0.474132,-0.16933 0.524932,-0.44026 l 0.118533,-0.9144 c 0.03387,-0.3048 -0.186266,-0.508 -0.524932,-0.508 z m 1.236131,-2.48919 c 0.728132,-0.44027 1.168398,-0.98213 1.337731,-1.6256 0.220132,-0.82973 0.237066,-1.81186 -0.08467,-2.4384 -0.118533,-0.23706 -0.355599,-0.50799 -0.677332,-0.64346 -0.338666,-0.11853 -0.728132,-0.16933 -1.151464,-0.16933 h -2.370662 c -0.287866,0 -0.491066,0.2032 -0.423333,0.4572 l 0.169333,0.67733 c 0.0508,0.254 0.254,0.38946 0.507999,0.38946 h 1.523997 c 0.457199,0 0.829732,0.0508 1.049865,0.23707 0.287866,0.254 0.372532,0.64346 0.304799,1.08373 -0.0508,0.32173 -0.08467,0.62653 -0.355599,0.94827 -0.237066,0.30479 -0.677332,0.66039 -1.083731,0.94826 -0.169333,0.11853 -0.254,0.23707 -0.254,0.44027 l 0.01693,0.254 c 0,0.2032 0,0.30479 0.0508,0.40639 0.0508,0.11854 0.254,0.2032 0.440266,0.13547 l 0.287866,-0.13547 c 0.169333,-0.0677 0.237066,-0.23706 0.254,-0.42333 0.03387,-0.2032 0.186266,-0.38946 0.457199,-0.54186 z"
         style="font-weight:bold;font-family:'Hillel CLM';-inkscape-font-specification:'Hillel CLM Bold'"
         id="path20434" />
      <path
         d="m 63.325895,168.07922 c -0.609599,1.778 -1.032931,3.82693 -1.202264,5.70653 -0.01693,0.254 -0.01693,0.37253 0.01693,0.50799 0.06773,0.1524 0.304799,0.254 0.541866,0.1524 l 0.474132,-0.18626 c 0.220133,-0.0847 0.355599,-0.28787 0.372533,-0.52493 0.101599,-1.43933 0.08467,-2.8956 0.321732,-4.23333 0.08467,-0.49106 0.237067,-0.89746 0.507999,-1.28693 0.3556,-0.508 0.948265,-0.762 1.557864,-0.762 0.660399,0 1.456264,0.28787 1.89653,1.4224 0.355599,0.9144 0.541865,2.25213 0.440265,3.60679 -0.01693,0.23707 0,0.42333 -0.491065,0.42333 h -2.302929 c -0.254,0 -0.457199,0.1524 -0.507999,0.38947 l -0.169333,0.67733 c -0.0508,0.27094 0.135466,0.4572 0.440266,0.4572 h 2.827861 c 0.338666,0 0.491065,-0.13547 0.609599,-0.38946 l 0.372532,-0.69427 c 0.08467,-0.16933 0.1524,-0.82973 0.169333,-1.3716 0.06773,-1.33773 0.06773,-2.28599 -0.169333,-3.50519 -0.118533,-0.6096 -0.287866,-1.13453 -0.694265,-1.64253 -0.440266,-0.54187 -1.134531,-0.89747 -1.94733,-0.89747 -0.524932,0 -1.066798,0.0677 -1.54093,0.32174 -0.237066,0.13546 -0.541866,0.37253 -0.745065,0.62653 -0.1524,0.18627 -0.220133,0.0339 -0.321733,-0.28787 -0.03387,-0.13546 -0.1016,-0.27093 -0.220133,-0.3556 -0.220133,-0.18626 -0.474132,-0.27093 -0.829731,-0.27093 h -0.423333 c -0.304799,0.0169 -0.491066,0.2032 -0.423332,0.4572 l 0.186266,0.8128 c 0.0508,0.23707 0.253999,0.38946 0.507999,0.4064 l 0.389466,0.0339 c 0.135466,0 0.253999,0.0339 0.304799,0.1016 0.06773,0.0677 0.1016,0.16934 0.0508,0.3048 z"
         style="font-weight:bold;font-family:'Hillel CLM';-inkscape-font-specification:'Hillel CLM Bold'"
         id="path20436" />
      <path
         d="m 60.27792,166.53829 c -0.270932,-0.4572 -0.761998,-0.57573 -1.473197,-0.57573 H 56.84046 c -0.304799,0 -0.491065,0.2032 -0.423332,0.4572 l 0.1524,0.67733 c 0.06773,0.254 0.253999,0.38947 0.507999,0.38947 h 1.777996 c 0.507999,0 0.660399,0.3048 0.440266,0.64346 l -1.253064,1.99813 c -0.186267,0.3048 0.08467,0.6604 0.507999,0.5588 l 0.626532,-0.13546 c 0.253999,-0.0508 0.474132,-0.23707 0.558799,-0.5588 l 0.558799,-1.79493 c 0.203199,-0.69427 0.237066,-1.2192 -0.01693,-1.65947 z"
         style="font-weight:bold;font-family:'Hillel CLM';-inkscape-font-specification:'Hillel CLM Bold'"
         id="path20438" />
      <path
         d="m 45.054891,165.96256 c -0.287866,0 -0.474133,0.2032 -0.423333,0.4572 l 0.169333,0.67733 c 0.0508,0.254 0.254,0.38947 0.507999,0.38947 l 0.118533,0.0169 c 0.2032,0 0.372533,0.0339 0.491066,0.13547 0.118533,0.1016 0.1524,0.27093 0.135466,0.42333 -0.287866,1.84573 -0.389465,3.87773 -0.270932,5.72346 0.01693,0.254 0.0508,0.37253 0.118533,0.50799 0.06773,0.1524 0.321732,0.254 0.541865,0.1524 l 0.457199,-0.18626 c 0.220133,-0.0847 0.321733,-0.28787 0.270933,-0.52493 -0.287866,-1.84573 -0.406399,-3.8608 -0.220133,-5.70653 0.01693,-0.13546 0.03387,-0.254 0.135467,-0.37253 0.08467,-0.0847 0.237066,-0.1524 0.372532,-0.1524 h 0.1524 c 0.355599,-0.0169 0.575732,-0.18626 0.626532,-0.4572 l 0.118533,-0.62653 c 0.06773,-0.3048 -0.135466,-0.44027 -0.491065,-0.44027 z"
         style="font-weight:bold;font-family:'Hillel CLM';-inkscape-font-specification:'Hillel CLM Bold'"
         id="path20440" />
      <path
         d="m 37.434927,170.34829 c 0,-0.2032 0,-0.32174 -0.0508,-0.42334 -0.0508,-0.11853 -0.254,-0.2032 -0.440266,-0.11853 l -0.355599,0.1524 c -0.169333,0.0677 -0.254,0.23707 -0.270933,0.42333 l -0.220133,3.38666 c 0,0.254 0,0.38947 0.06773,0.52493 0.06773,0.13547 0.321733,0.254 0.558799,0.1524 l 0.440266,-0.18626 c 0.220133,-0.0847 0.338666,-0.28787 0.338666,-0.54187 z m 5.401722,3.36972 -0.08467,-5.53719 c -0.01693,-0.77893 -0.135466,-1.33773 -0.609599,-1.74413 -0.389466,-0.33866 -0.897465,-0.47413 -1.676397,-0.47413 h -3.979325 c -0.304799,0 -0.491066,0.2032 -0.423333,0.4572 l 0.1524,0.67733 c 0.06773,0.254 0.254,0.38947 0.507999,0.38947 h 3.877726 c 0.440266,0 0.761998,0.1016 0.965198,0.33866 0.2032,0.27094 0.220133,0.59267 0.186266,1.1176 l -0.304799,4.82599 c -0.01693,0.254 -0.01693,0.38947 0.0508,0.52493 0.06773,0.13547 0.321732,0.254 0.558799,0.1524 l 0.440265,-0.18626 c 0.220133,-0.0847 0.338666,-0.28787 0.338666,-0.54187 z"
         style="font-weight:bold;font-family:'Hillel CLM';-inkscape-font-specification:'Hillel CLM Bold'"
         id="path20442" />
      <path
         d="m 26.614587,172.48188 0.118534,1.45627 c 0.03387,0.254 0.08467,0.40639 0.186266,0.49106 0.135466,0.11853 0.355599,0.11853 0.524932,0.0169 l 0.406399,-0.23706 c 0.186267,-0.1016 0.287866,-0.28787 0.254,-0.52493 l -0.914398,-5.50333 c -0.135467,-0.88053 -0.3556,-1.52399 -1.015998,-1.91346 -0.423333,-0.23707 -0.914399,-0.3048 -1.574797,-0.3048 h -0.761999 c -0.287866,0 -0.491066,0.2032 -0.423332,0.4572 l 0.169333,0.67733 c 0.0508,0.254 0.253999,0.38947 0.507999,0.38947 h 0.863598 c 0.372533,0 0.761999,0.1016 0.999065,0.33866 0.253999,0.27094 0.321732,0.72814 0.372532,1.1176 l 0.1524,1.5748 c 0.0508,0.57573 -0.08467,0.79586 -0.440266,0.94826 l -2.489195,1.08374 c -0.304799,0.13546 -0.491066,0.30479 -0.592665,0.62653 l -0.2032,0.762 c -0.1016,0.40639 0.338666,0.77893 0.795865,0.44026 l 2.692395,-1.98119 c 0.169333,-0.13547 0.355599,-0.18627 0.372532,0.0847 z"
         style="font-weight:bold;font-family:'Hillel CLM';-inkscape-font-specification:'Hillel CLM Bold'"
         id="path20444" />
      <path
         d="m 20.383142,172.36335 c 0.507999,-0.98213 0.761999,-2.0828 0.728132,-3.47133 -0.01693,-0.8636 -0.304799,-1.77799 -0.778932,-2.31986 -0.169333,-0.16933 -0.474132,-0.37253 -0.795865,-0.47413 -0.338666,-0.1016 -0.694265,-0.13547 -1.151464,-0.13547 h -2.895595 c -0.304799,0 -0.491065,0.2032 -0.440265,0.4572 l 0.169333,0.67733 c 0.0508,0.254 0.253999,0.38947 0.507999,0.38947 h 2.506128 c 0.423333,0 0.745065,0.0847 0.965198,0.254 0.3048,0.22013 0.491066,0.52493 0.541866,0.7112 0.203199,0.54186 0.287866,1.04986 0.287866,1.74413 0,0.81279 -0.220133,1.59173 -0.575732,2.09973 -0.270933,0.40639 -0.575733,0.60959 -1.049865,0.60959 h -2.963327 c -0.254,0 -0.4572,0.1524 -0.508,0.38947 l -0.169333,0.67733 c -0.0508,0.27094 0.135467,0.4572 0.423333,0.4572 h 6.079055 c 0.355599,0 0.558799,-0.13547 0.491065,-0.44026 l -0.118533,-0.62654 c -0.0508,-0.27093 -0.270932,-0.44026 -0.626532,-0.44026 l -0.152399,-0.0169 c -0.491066,0 -0.660399,-0.16933 -0.474133,-0.54186 z"
         style="font-weight:bold;font-family:'Hillel CLM';-inkscape-font-specification:'Hillel CLM Bold'"
         id="path20446" />
      <path
         d="m 12.813973,173.71801 -0.135467,-6.62092 c -0.01693,-0.37253 -0.08467,-0.67733 -0.321732,-0.88053 -0.220133,-0.18627 -0.507999,-0.254 -0.863599,-0.254 h -0.761998 c -0.304799,0 -0.491066,0.2032 -0.423333,0.4572 l 0.1524,0.67733 c 0.06773,0.254 0.270933,0.4064 0.507999,0.4064 l 0.440266,0.0339 c 0.08467,0 0.186266,0.0508 0.237066,0.1016 0.06773,0.0847 0.118533,0.22013 0.118533,0.33866 l -0.338666,5.79119 c -0.01693,0.254 0,0.38947 0.0508,0.52493 0.08467,0.13547 0.338666,0.254 0.558799,0.1524 l 0.457199,-0.18626 c 0.2032,-0.0847 0.321733,-0.28787 0.321733,-0.54187 z"
         style="font-weight:bold;font-family:'Hillel CLM';-inkscape-font-specification:'Hillel CLM Bold'"
         id="path20448" />
      <path
         d="m 7.6154696,169.23069 -0.3217327,4.53812 c -0.016933,0.254 -0.016933,0.38947 0.0508,0.52493 0.084666,0.13547 0.338666,0.254 0.5587989,0.1524 l 0.4571991,-0.18626 c 0.2031996,-0.0847 0.3217327,-0.28787 0.3217327,-0.54187 l -0.084667,-4.65665 c -0.016933,-1.0668 -0.1185331,-1.89653 -0.846665,-2.50613 -0.6265321,-0.508 -1.4393305,-0.59267 -2.539995,-0.59267 H 2.6540127 c -0.3047994,0 -0.4910657,0.2032 -0.4233325,0.4572 l 0.1523997,0.67733 c 0.067733,0.254 0.2539995,0.38947 0.507999,0.38947 h 2.9125276 c 0.6942653,0 1.2022643,0.1524 1.5070637,0.54186 0.2539995,0.32174 0.338666,0.69427 0.3047994,1.20227 z"
         style="font-weight:bold;font-family:'Hillel CLM';-inkscape-font-specification:'Hillel CLM Bold'"
         id="path20450" />
      <path
         d="m -6.0496897,166.53829 c -0.2709328,-0.4572 -0.7619985,-0.57573 -1.4731971,-0.57573 h -1.9642628 c -0.3047994,0 -0.4910657,0.2032 -0.4233325,0.4572 l 0.1523997,0.67733 c 0.067733,0.254 0.2539995,0.38947 0.507999,0.38947 h 1.7779965 c 0.507999,0 0.6603987,0.3048 0.4402658,0.64346 l -1.2530642,1.99813 c -0.1862663,0.3048 0.084666,0.6604 0.507999,0.5588 l 0.6265321,-0.13546 c 0.2539995,-0.0508 0.4741324,-0.23707 0.5587989,-0.5588 l 0.5587989,-1.79493 c 0.2031996,-0.69427 0.2370662,-1.2192 -0.016933,-1.65947 z"
         style="font-weight:bold;font-family:'Hillel CLM';-inkscape-font-specification:'Hillel CLM Bold'"
         id="path20452" />
      <path
         d="m -13.347929,172.54962 c 0.558799,-0.57574 0.982131,-1.10067 1.253064,-1.59174 0.321733,-0.59266 0.524933,-1.18533 0.626532,-1.74413 0.118533,-0.64346 0.118533,-1.30386 0.118533,-2.11666 0,-0.37253 -0.06773,-0.67733 -0.304799,-0.88053 -0.237066,-0.18627 -0.524932,-0.254 -0.863598,-0.254 h -3.877726 c -0.169333,0 -0.355599,0 -0.507999,-0.13547 -0.135466,-0.11853 -0.1524,-0.25399 -0.118533,-0.44026 l 0.220133,-1.60866 c 0.03387,-0.37254 -0.0508,-0.67734 -0.270933,-0.88054 -0.220133,-0.18626 -0.507999,-0.254 -0.846665,-0.254 l -0.440266,0.0169 c -0.287866,0 -0.474132,0.18626 -0.423332,0.4572 l 0.169333,0.67733 c 0.03387,0.13547 0.152399,0.27093 0.304799,0.3556 0.1524,0.0677 0.186266,0.0508 0.321733,0.13546 0.135466,0.0677 0.203199,0.18627 0.169333,0.33867 l -0.338666,1.79493 c -0.06773,0.32173 -0.1016,0.6096 0.0508,0.82973 0.118533,0.16934 0.304799,0.23707 0.558799,0.23707 h 4.809057 c 0.135466,0 0.270933,0.0508 0.338666,0.1016 0.08467,0.0847 0.118533,0.22013 0.118533,0.3556 -0.01693,0.42333 -0.06773,0.77893 -0.186266,1.15146 -0.1016,0.3556 -0.3048,0.77893 -0.575733,1.15147 -0.220132,0.33866 -0.575732,0.74506 -0.982131,1.06679 l -1.913463,1.60867 c -0.203199,0.16933 -0.253999,0.4064 -0.169333,0.59266 l 0.270933,0.7112 c 0.1016,0.22013 0.355599,0.3048 0.524932,0.254 0.135467,-0.0508 0.254,-0.13547 0.423333,-0.32173 z"
         style="font-weight:bold;font-family:'Hillel CLM';-inkscape-font-specification:'Hillel CLM Bold'"
         id="path20454" />
      <path
         d="m -22.424173,165.97949 -4.233325,-0.0169 c -0.3048,0 -0.491066,0.2032 -0.423333,0.4572 l 0.1524,0.69427 c 0.08467,0.33866 0.186266,0.50799 0.1524,0.94826 l -0.338666,5.70652 c -0.01693,0.27094 -0.01693,0.38947 0.0508,0.52493 0.08467,0.13547 0.321732,0.254 0.558799,0.1524 l 0.457199,-0.18626 c 0.203199,-0.0847 0.321732,-0.28787 0.321732,-0.54187 l -0.101599,-5.68959 c 0,-0.33866 0.186266,-0.54186 0.474132,-0.54186 h 3.064927 c 0.440266,0 0.761999,0.1016 0.965198,0.33866 0.2032,0.27094 0.220133,0.59267 0.186267,1.1176 l -0.3048,4.82599 c -0.01693,0.254 -0.01693,0.38947 0.0508,0.52493 0.06773,0.13547 0.321733,0.254 0.558799,0.1524 l 0.440266,-0.18626 c 0.220133,-0.0847 0.338666,-0.28787 0.338666,-0.54187 l -0.08467,-5.53719 c -0.01693,-0.77893 -0.135466,-1.33773 -0.609598,-1.74413 -0.389466,-0.33866 -0.897465,-0.4572 -1.676397,-0.4572 z"
         style="font-weight:bold;font-family:'Hillel CLM';-inkscape-font-specification:'Hillel CLM Bold'"
         id="path20456" />
      <path
         d="m -31.551205,167.48656 c 0.558799,0 0.965198,0.11853 1.219198,0.44026 0.253999,0.32174 0.287866,0.69427 0.253999,1.30387 l -0.169333,3.01413 c -0.01693,0.47413 -0.423332,0.66039 -1.049864,0.66039 h -2.489196 c -0.558798,0 -0.846665,-0.18626 -0.846665,-0.67733 l -0.06773,-4.19946 c -0.01693,-0.33866 0.169333,-0.54186 0.457199,-0.54186 z m 2.404529,1.13453 c -0.01693,-0.89747 -0.2032,-1.65946 -0.761999,-2.11666 -0.575732,-0.4572 -1.286931,-0.54187 -2.285995,-0.54187 h -3.352794 c -0.304799,0 -0.491065,0.2032 -0.423332,0.4572 l 0.152399,0.69427 c 0.08467,0.33866 0.169333,0.50799 0.1524,0.94826 l -0.118533,5.53719 c -0.01693,0.32173 0.01693,0.508 0.118533,0.62653 0.118533,0.13547 0.321733,0.2032 0.558799,0.2032 h 4.910657 c 0.321733,0 0.474132,-0.13547 0.609599,-0.38946 l 0.372532,-0.69427 c 0.08467,-0.16933 0.118534,-0.37253 0.118534,-0.57573 z"
         style="font-weight:bold;font-family:'Hillel CLM';-inkscape-font-specification:'Hillel CLM Bold'"
         id="path20458" />
      <path
         d="m -45.063961,172.36335 c 0.507999,-0.98213 0.761998,-2.0828 0.728132,-3.47133 -0.01693,-0.8636 -0.3048,-1.77799 -0.778932,-2.31986 -0.169333,-0.16933 -0.474133,-0.37253 -0.795865,-0.47413 -0.338666,-0.1016 -0.694266,-0.13547 -1.151465,-0.13547 h -2.895594 c -0.3048,0 -0.491066,0.2032 -0.440266,0.4572 l 0.169333,0.67733 c 0.0508,0.254 0.254,0.38947 0.507999,0.38947 h 2.506129 c 0.423332,0 0.745065,0.0847 0.965198,0.254 0.304799,0.22013 0.491065,0.52493 0.541865,0.7112 0.2032,0.54186 0.287866,1.04986 0.287866,1.74413 0,0.81279 -0.220133,1.59173 -0.575732,2.09973 -0.270933,0.40639 -0.575732,0.60959 -1.049864,0.60959 h -2.963328 c -0.254,0 -0.457199,0.1524 -0.507999,0.38947 l -0.169333,0.67733 c -0.0508,0.27094 0.135466,0.4572 0.423332,0.4572 h 6.079055 c 0.3556,0 0.558799,-0.13547 0.491066,-0.44026 l -0.118533,-0.62654 c -0.0508,-0.27093 -0.270933,-0.44026 -0.626532,-0.44026 l -0.1524,-0.0169 c -0.491066,0 -0.660399,-0.16933 -0.474132,-0.54186 z"
         style="font-weight:bold;font-family:'Hillel CLM';-inkscape-font-specification:'Hillel CLM Bold'"
         id="path20460" />
      <path
         d="m -56.002846,172.90521 c -0.254,0 -0.440266,0.1524 -0.507999,0.38947 l -0.1524,0.67733 c -0.06773,0.27094 0.118533,0.4572 0.423332,0.4572 h 2.861728 c 0.338666,0 0.491066,-0.13547 0.609599,-0.38946 l 0.372533,-0.69427 c 0.101599,-0.16933 0.135466,-0.38947 0.135466,-0.57573 l -0.254,-4.58893 c -0.0508,-0.71119 -0.152399,-1.26999 -0.524932,-1.67639 -0.220133,-0.23707 -0.558799,-0.38947 -0.846665,-0.4572 -0.304799,-0.0677 -0.660399,-0.0847 -1.015998,-0.0847 h -0.778932 c -0.287866,0 -0.474132,0.2032 -0.423332,0.4572 l 0.169333,0.67733 c 0.0508,0.254 0.253999,0.38947 0.507999,0.38947 h 0.761998 c 0.372533,0 0.761999,0.1016 0.948265,0.33866 0.220133,0.27094 0.2032,0.69427 0.2032,1.1176 l -0.01693,3.16653 c 0,0.23707 -0.0508,0.47413 -0.203199,0.6096 -0.1524,0.1524 -0.389466,0.18626 -0.745065,0.18626 z"
         style="font-weight:bold;font-family:'Hillel CLM';-inkscape-font-specification:'Hillel CLM Bold'"
         id="path20462" />
      <path
         d="m -58.796822,173.71801 -0.135467,-6.62092 c -0.01693,-0.37253 -0.08467,-0.67733 -0.321732,-0.88053 -0.220133,-0.18627 -0.507999,-0.254 -0.863599,-0.254 h -0.761998 c -0.304799,0 -0.491066,0.2032 -0.423333,0.4572 l 0.1524,0.67733 c 0.06773,0.254 0.270933,0.4064 0.507999,0.4064 l 0.440266,0.0339 c 0.08467,0 0.186266,0.0508 0.237066,0.1016 0.06773,0.0847 0.118533,0.22013 0.118533,0.33866 l -0.338666,5.79119 c -0.01693,0.254 0,0.38947 0.0508,0.52493 0.08467,0.13547 0.338666,0.254 0.558799,0.1524 l 0.457199,-0.18626 c 0.2032,-0.0847 0.321733,-0.28787 0.321733,-0.54187 z"
         style="font-weight:bold;font-family:'Hillel CLM';-inkscape-font-specification:'Hillel CLM Bold'"
         id="path20464" />
      <path
         d="m -66.213606,172.56655 c -0.270933,0 -0.474133,0.22013 -0.524933,0.49106 l -0.118533,0.88054 c -0.0508,0.28786 0.186267,0.49106 0.507999,0.49106 h 0.575733 c 0.270932,0 0.474132,-0.16933 0.524932,-0.44026 l 0.118533,-0.9144 c 0.03387,-0.3048 -0.186266,-0.508 -0.524932,-0.508 z m 1.236131,-2.4892 c 0.728132,-0.44026 1.168397,-0.98213 1.33773,-1.62559 0.220133,-0.82974 0.237067,-1.81187 -0.08467,-2.4384 -0.118533,-0.23706 -0.355599,-0.508 -0.677332,-0.64346 -0.338666,-0.11854 -0.728132,-0.16934 -1.151465,-0.16934 h -2.370662 c -0.287866,0 -0.491065,0.2032 -0.423332,0.4572 l 0.169333,0.67733 c 0.0508,0.254 0.253999,0.38947 0.507999,0.38947 h 1.523997 c 0.457199,0 0.829732,0.0508 1.049865,0.23707 0.287866,0.254 0.372532,0.64346 0.304799,1.08373 -0.0508,0.32173 -0.08467,0.62653 -0.355599,0.94826 -0.237067,0.3048 -0.677332,0.6604 -1.083732,0.94827 -0.169333,0.11853 -0.253999,0.23706 -0.253999,0.44026 l 0.01693,0.254 c 0,0.2032 0,0.3048 0.0508,0.4064 0.0508,0.11853 0.254,0.2032 0.440266,0.13547 l 0.287866,-0.13547 c 0.169333,-0.0677 0.237066,-0.23706 0.254,-0.42333 0.03387,-0.2032 0.186266,-0.38947 0.457199,-0.54187 z"
         style="font-weight:bold;font-family:'Hillel CLM';-inkscape-font-specification:'Hillel CLM Bold'"
         id="path20466" />
    </g>
    <g
       aria-label="אלתר לוין, מתוך &quot;רוח חדש&quot;."
       id="text15803"
       style="font-size:8.46667px;line-height:100%;font-family:Sans;-inkscape-font-specification:'Adobe Helvetica';letter-spacing:0px;word-spacing:0px;direction:rtl;stroke-width:0.264583px">
      <path
         d="m -13.53942,186.8747 c 0.160867,0.1778 0.05927,0.3556 -0.06773,0.47413 -0.160867,0.16087 -0.287867,0.3556 -0.3556,0.5588 -0.05927,0.19474 -0.1016,0.47414 -0.110067,0.70274 l -0.0508,1.016 c -0.0085,0.14393 0.1016,0.23707 0.245533,0.2032 l 0.338667,-0.0762 c 0.135467,-0.0339 0.211667,-0.11853 0.211667,-0.23707 l -0.0508,-1.3462 c 0,-0.127 -0.0085,-0.29633 0.0508,-0.39793 0.0762,-0.11854 0.160867,-0.16934 0.296333,-0.16087 0.118534,0 0.228601,0.1016 0.313267,0.2032 l 1.701801,1.94734 c 0.110067,0.13546 0.270933,0.127 0.338667,-0.0423 l 0.110066,-0.21166 c 0.0762,-0.16087 0.0085,-0.29634 -0.08467,-0.4064 l -0.524934,-0.60114 c -0.1524,-0.1778 -0.06773,-0.3302 0.06773,-0.4572 0.160866,-0.1524 0.296333,-0.36407 0.3556,-0.56727 0.06773,-0.2032 0.1016,-0.47413 0.118533,-0.70273 l 0.0508,-1.03293 c 0.0085,-0.13547 -0.110067,-0.2286 -0.245533,-0.19474 l -0.347134,0.0762 c -0.127,0.0339 -0.211667,0.11854 -0.2032,0.23707 l 0.04233,1.35467 c 0.0085,0.127 0.01693,0.29633 -0.04233,0.38946 -0.0762,0.11854 -0.160867,0.1778 -0.296333,0.16934 -0.118534,-0.008 -0.2286,-0.11007 -0.321734,-0.21167 l -1.693334,-1.9304 c -0.110067,-0.13547 -0.254,-0.11853 -0.338667,0.0423 l -0.110066,0.21167 c -0.05927,0.16087 -0.0085,0.29633 0.08467,0.4064 z"
         style="font-weight:bold;line-height:100%;font-family:'Hillel CLM';-inkscape-font-specification:'Hillel CLM Bold'"
         id="path20287" />
      <path
         d="m -16.214879,188.86437 c 0.279401,-0.28787 0.491067,-0.55034 0.626534,-0.79587 0.160867,-0.29633 0.262467,-0.59267 0.313267,-0.87207 0.05927,-0.32173 0.05927,-0.65193 0.05927,-1.05833 0,-0.18627 -0.03387,-0.33867 -0.152401,-0.44027 -0.118533,-0.0931 -0.262466,-0.127 -0.4318,-0.127 h -1.938867 c -0.08467,0 -0.1778,0 -0.254,-0.0677 -0.06773,-0.0593 -0.0762,-0.127 -0.05927,-0.22013 l 0.110067,-0.80434 c 0.01693,-0.18626 -0.0254,-0.33866 -0.135467,-0.44026 -0.110067,-0.0931 -0.254,-0.127 -0.423333,-0.127 l -0.220134,0.008 c -0.143933,0 -0.237067,0.0931 -0.211667,0.2286 l 0.08467,0.33867 c 0.01693,0.0677 0.0762,0.13547 0.1524,0.1778 0.0762,0.0339 0.09313,0.0254 0.160867,0.0677 0.06773,0.0339 0.1016,0.0931 0.08467,0.16934 l -0.169334,0.89746 c -0.03387,0.16087 -0.0508,0.3048 0.0254,0.41487 0.05927,0.0847 0.1524,0.11853 0.2794,0.11853 h 2.404535 c 0.06773,0 0.135466,0.0254 0.169333,0.0508 0.04233,0.0423 0.05927,0.11007 0.05927,0.1778 -0.0085,0.21167 -0.03387,0.38947 -0.09313,0.57574 -0.0508,0.1778 -0.1524,0.38946 -0.287866,0.57573 -0.110067,0.16933 -0.287867,0.37253 -0.491067,0.5334 l -0.956734,0.80434 c -0.1016,0.0847 -0.127,0.2032 -0.08467,0.29633 l 0.135467,0.3556 c 0.0508,0.11007 0.1778,0.1524 0.262467,0.127 0.06773,-0.0254 0.127,-0.0677 0.211667,-0.16087 z"
         style="font-weight:bold;line-height:100%;font-family:'Hillel CLM';-inkscape-font-specification:'Hillel CLM Bold'"
         id="path20289" />
      <path
         d="m -20.143412,187.49277 -0.118534,1.9812 c -0.0085,0.127 0,0.19473 0.0254,0.26247 0.04233,0.0677 0.169334,0.127 0.2794,0.0762 l 0.2286,-0.0931 c 0.1016,-0.0423 0.160867,-0.14393 0.160867,-0.27093 l -0.0762,-2.32834 c -0.01693,-0.54186 -0.09313,-0.98213 -0.423333,-1.25306 -0.313267,-0.254 -0.719667,-0.29634 -1.270001,-0.29634 h -1.794934 c -0.1524,0 -0.245533,0.1016 -0.211667,0.2286 l 0.0762,0.33867 c 0.03387,0.127 0.127,0.19473 0.254,0.19473 h 0.01693 c 0.160867,0.008 0.3302,0.0677 0.313267,0.28787 l -0.1524,2.20133 c -0.0085,0.15241 -0.101601,0.22014 -0.237067,0.22014 h -0.372534 c -0.127,0 -0.2286,0.0762 -0.254,0.19473 l -0.08467,0.33867 c -0.0254,0.13547 0.06773,0.2286 0.211667,0.2286 h 0.829734 c 0.169333,0 0.245533,-0.0677 0.3048,-0.19473 l 0.186267,-0.34714 c 0.0508,-0.0847 0.06773,-0.1778 0.06773,-0.28786 l -0.05927,-2.37067 c 0,-0.16934 0.09313,-0.27094 0.237067,-0.27094 h 0.948267 c 0.347134,0 0.601134,0.0762 0.753534,0.27094 0.169333,0.21166 0.186267,0.46566 0.160867,0.889 z"
         style="font-weight:bold;line-height:100%;font-family:'Hillel CLM';-inkscape-font-specification:'Hillel CLM Bold'"
         id="path20291" />
      <path
         d="m -25.037136,187.2049 -0.160867,2.26907 c -0.0085,0.127 -0.0085,0.19473 0.0254,0.26247 0.04233,0.0677 0.169333,0.127 0.2794,0.0762 l 0.2286,-0.0931 c 0.1016,-0.0423 0.160866,-0.14393 0.160866,-0.27093 l -0.04233,-2.32834 c -0.0085,-0.5334 -0.05927,-0.94826 -0.423333,-1.25306 -0.313267,-0.254 -0.719667,-0.29634 -1.270001,-0.29634 h -1.278467 c -0.1524,0 -0.245534,0.1016 -0.211667,0.2286 l 0.0762,0.33867 c 0.03387,0.127 0.127,0.19473 0.254,0.19473 h 1.456268 c 0.347133,0 0.601133,0.0762 0.753533,0.27094 0.127,0.16086 0.169334,0.34713 0.1524,0.60113 z"
         style="font-weight:bold;line-height:100%;font-family:'Hillel CLM';-inkscape-font-specification:'Hillel CLM Bold'"
         id="path20293" />
      <path
         d="m -32.784123,188.86437 c 0.2794,-0.28787 0.491067,-0.55034 0.626534,-0.79587 0.160866,-0.29633 0.262466,-0.59267 0.313266,-0.87207 0.05927,-0.32173 0.05927,-0.65193 0.05927,-1.05833 0,-0.18627 -0.03387,-0.33867 -0.1524,-0.44027 -0.118533,-0.0931 -0.262467,-0.127 -0.4318,-0.127 h -1.938868 c -0.08467,0 -0.1778,0 -0.254,-0.0677 -0.06773,-0.0593 -0.0762,-0.127 -0.05927,-0.22013 l 0.110066,-0.80434 c 0.01693,-0.18626 -0.0254,-0.33866 -0.135466,-0.44026 -0.110067,-0.0931 -0.254,-0.127 -0.423334,-0.127 l -0.220133,0.008 c -0.143934,0 -0.237067,0.0931 -0.211667,0.2286 l 0.08467,0.33867 c 0.01693,0.0677 0.0762,0.13547 0.1524,0.1778 0.0762,0.0339 0.09313,0.0254 0.160867,0.0677 0.06773,0.0339 0.1016,0.0931 0.08467,0.16934 l -0.169333,0.89746 c -0.03387,0.16087 -0.0508,0.3048 0.0254,0.41487 0.05927,0.0847 0.1524,0.11853 0.2794,0.11853 h 2.404534 c 0.06773,0 0.135467,0.0254 0.169334,0.0508 0.04233,0.0423 0.05927,0.11007 0.05927,0.1778 -0.0085,0.21167 -0.03387,0.38947 -0.09313,0.57574 -0.0508,0.1778 -0.1524,0.38946 -0.287867,0.57573 -0.110067,0.16933 -0.287867,0.37253 -0.491067,0.5334 l -0.956733,0.80434 c -0.1016,0.0847 -0.127,0.2032 -0.08467,0.29633 l 0.135467,0.3556 c 0.0508,0.11007 0.1778,0.1524 0.262466,0.127 0.06773,-0.0254 0.127,-0.0677 0.211667,-0.16087 z"
         style="font-weight:bold;line-height:100%;font-family:'Hillel CLM';-inkscape-font-specification:'Hillel CLM Bold'"
         id="path20295" />
      <path
         d="m -36.314711,189.44857 -0.06773,-3.31047 c -0.0085,-0.18627 -0.04233,-0.33867 -0.160867,-0.44027 -0.110067,-0.0931 -0.254,-0.127 -0.4318,-0.127 h -0.381 c -0.152401,0 -0.245534,0.1016 -0.211667,0.2286 l 0.0762,0.33867 c 0.03387,0.127 0.135467,0.2032 0.254,0.2032 l 0.220133,0.0169 c 0.04233,0 0.09313,0.0254 0.118534,0.0508 0.03387,0.0423 0.05927,0.11007 0.05927,0.16934 l -0.169333,2.8956 c -0.0085,0.127 0,0.19473 0.0254,0.26247 0.04233,0.0677 0.169333,0.127 0.2794,0.0762 l 0.2286,-0.0931 c 0.1016,-0.0423 0.160867,-0.14393 0.160867,-0.27093 z"
         style="font-weight:bold;line-height:100%;font-family:'Hillel CLM';-inkscape-font-specification:'Hillel CLM Bold'"
         id="path20297" />
      <path
         d="m -38.372119,185.8587 c -0.135466,-0.2286 -0.381,-0.28787 -0.7366,-0.28787 h -0.982134 c -0.1524,0 -0.245533,0.1016 -0.211666,0.2286 l 0.0762,0.33867 c 0.03387,0.127 0.127,0.19473 0.254,0.19473 h 0.889 c 0.254,0 0.3302,0.1524 0.220133,0.32174 l -0.626533,0.99906 c -0.09313,0.1524 0.04233,0.3302 0.254,0.2794 l 0.313267,-0.0677 c 0.127,-0.0254 0.237067,-0.11853 0.2794,-0.2794 l 0.2794,-0.89747 c 0.1016,-0.34713 0.118533,-0.6096 -0.0085,-0.82973 z"
         style="font-weight:bold;line-height:100%;font-family:'Hillel CLM';-inkscape-font-specification:'Hillel CLM Bold'"
         id="path20299" />
      <path
         d="m -42.300645,186.1381 c 0.03387,0.127 0.135467,0.19473 0.254,0.2032 l 0.220134,0.0169 c 0.0508,0 0.09313,0.0254 0.118533,0.0508 0.03387,0.0423 0.05927,0.11007 0.05927,0.16934 l -0.169334,4.46193 c 0,0.11007 0,0.19474 0.0254,0.254 0.04233,0.0762 0.169334,0.13547 0.2794,0.0847 l 0.2286,-0.1016 c 0.1016,-0.0423 0.160867,-0.16087 0.160867,-0.26247 l -0.06773,-4.8768 c 0,-0.18627 -0.04233,-0.33867 -0.160867,-0.44027 -0.110067,-0.0931 -0.254,-0.127 -0.4318,-0.127 h -0.381 c -0.1524,0 -0.245534,0.1016 -0.211667,0.2286 z"
         style="font-weight:bold;line-height:100%;font-family:'Hillel CLM';-inkscape-font-specification:'Hillel CLM Bold'"
         id="path20301" />
      <path
         d="m -43.985503,190.7355 0.3556,-0.94826 c 0.03387,-0.1016 0.05927,-0.21167 0.0762,-0.32174 l 0.04233,-0.33866 c 0.0254,-0.1524 -0.09313,-0.25401 -0.254,-0.25401 h -0.321733 c -0.135467,0 -0.245534,0.11007 -0.262467,0.24554 l -0.06773,0.44027 c -0.0085,0.0762 0.01693,0.127 0.05927,0.16933 0.0254,0.0339 0.01693,0.0762 0.0085,0.127 l -0.1524,0.92287 c -0.0085,0.0677 0,0.127 0.03387,0.16086 0.04233,0.0508 0.110066,0.0508 0.1778,0.0339 l 0.127,-0.0339 c 0.09313,-0.0254 0.135466,-0.1016 0.1778,-0.2032 z"
         style="font-weight:bold;line-height:100%;font-family:'Hillel CLM';-inkscape-font-specification:'Hillel CLM Bold'"
         id="path20303" />
      <path
         d="m -51.664758,186.62917 c -0.3048,0.889 -0.516467,1.91346 -0.601133,2.85327 -0.0085,0.127 -0.0085,0.18626 0.0085,0.254 0.03387,0.0762 0.1524,0.127 0.270934,0.0762 l 0.237066,-0.0931 c 0.110067,-0.0423 0.177801,-0.14393 0.186267,-0.26246 0.0508,-0.71967 0.04233,-1.44781 0.160867,-2.11667 0.04233,-0.24554 0.118533,-0.44874 0.254,-0.64347 0.1778,-0.254 0.474134,-0.381 0.778934,-0.381 0.3302,0 0.728133,0.14393 0.948267,0.7112 0.1778,0.4572 0.270933,1.12607 0.220133,1.8034 -0.0085,0.11854 0,0.21167 -0.245533,0.21167 h -1.151467 c -0.127,0 -0.228601,0.0762 -0.254001,0.19473 l -0.08467,0.33867 c -0.0254,0.13547 0.06773,0.2286 0.220133,0.2286 h 1.413934 c 0.169333,0 0.245534,-0.0677 0.3048,-0.19473 l 0.186267,-0.34714 c 0.04233,-0.0847 0.0762,-0.41487 0.08467,-0.6858 0.03387,-0.66887 0.03387,-1.143 -0.08467,-1.7526 -0.05927,-0.3048 -0.143933,-0.56727 -0.347134,-0.82127 -0.220133,-0.27093 -0.567266,-0.44873 -0.973667,-0.44873 -0.262466,0 -0.5334,0.0339 -0.770467,0.16087 -0.118533,0.0677 -0.270933,0.18626 -0.372533,0.31326 -0.0762,0.0931 -0.110067,0.0169 -0.160867,-0.14393 -0.01693,-0.0677 -0.0508,-0.13547 -0.110066,-0.1778 -0.110067,-0.0931 -0.237067,-0.13547 -0.414867,-0.13547 h -0.211667 c -0.1524,0.008 -0.245533,0.1016 -0.211667,0.2286 l 0.09313,0.4064 c 0.0254,0.11854 0.127,0.19474 0.254,0.2032 l 0.194733,0.0169 c 0.06773,0 0.127,0.0169 0.1524,0.0508 0.03387,0.0339 0.0508,0.0847 0.0254,0.1524 z"
         style="font-weight:bold;line-height:100%;font-family:'Hillel CLM';-inkscape-font-specification:'Hillel CLM Bold'"
         id="path20305" />
      <path
         d="m -53.781421,187.49277 -0.118533,1.9812 c -0.0085,0.127 0,0.19473 0.0254,0.26247 0.04233,0.0677 0.169333,0.127 0.2794,0.0762 l 0.2286,-0.0931 c 0.1016,-0.0423 0.160867,-0.14393 0.160867,-0.27093 l -0.0762,-2.32834 c -0.01693,-0.54186 -0.09313,-0.98213 -0.423334,-1.25306 -0.313266,-0.254 -0.719666,-0.29634 -1.27,-0.29634 h -1.794934 c -0.1524,0 -0.245533,0.1016 -0.211667,0.2286 l 0.0762,0.33867 c 0.03387,0.127 0.127,0.19473 0.254,0.19473 h 0.01693 c 0.160866,0.008 0.3302,0.0677 0.313266,0.28787 l -0.1524,2.20133 c -0.0085,0.15241 -0.1016,0.22014 -0.237066,0.22014 h -0.372534 c -0.127,0 -0.2286,0.0762 -0.254,0.19473 l -0.08467,0.33867 c -0.0254,0.13547 0.06773,0.2286 0.211667,0.2286 h 0.829734 c 0.169333,0 0.245533,-0.0677 0.3048,-0.19473 l 0.186267,-0.34714 c 0.0508,-0.0847 0.06773,-0.1778 0.06773,-0.28786 l -0.05927,-2.37067 c 0,-0.16934 0.09313,-0.27094 0.237067,-0.27094 h 0.948267 c 0.347134,0 0.601134,0.0762 0.753534,0.27094 0.169333,0.21166 0.186266,0.46566 0.160866,0.889 z"
         style="font-weight:bold;line-height:100%;font-family:'Hillel CLM';-inkscape-font-specification:'Hillel CLM Bold'"
         id="path20307" />
      <path
         d="m -58.328013,189.44857 -0.06773,-3.31047 c -0.0085,-0.18627 -0.04233,-0.33867 -0.160867,-0.44027 -0.110067,-0.0931 -0.254,-0.127 -0.4318,-0.127 h -0.381 c -0.1524,0 -0.245534,0.1016 -0.211667,0.2286 l 0.0762,0.33867 c 0.03387,0.127 0.135467,0.2032 0.254,0.2032 l 0.220133,0.0169 c 0.04233,0 0.09313,0.0254 0.118534,0.0508 0.03387,0.0423 0.05927,0.11007 0.05927,0.16934 l -0.169334,2.8956 c -0.0085,0.127 0,0.19473 0.0254,0.26247 0.04233,0.0677 0.169334,0.127 0.2794,0.0762 l 0.2286,-0.0931 c 0.1016,-0.0423 0.160867,-0.14393 0.160867,-0.27093 z"
         style="font-weight:bold;line-height:100%;font-family:'Hillel CLM';-inkscape-font-specification:'Hillel CLM Bold'"
         id="path20309" />
      <path
         d="m -60.444676,187.12023 c -0.0085,-0.54186 -0.1016,-0.98213 -0.423333,-1.25306 -0.321734,-0.254 -0.719667,-0.29634 -1.270001,-0.29634 h -1.27 c -0.1524,0 -0.245534,0.1016 -0.211667,0.2286 l 0.0762,0.33867 c 0.03387,0.127 0.127,0.19473 0.254,0.19473 h 1.430867 c 0.347134,0.008 0.601134,0.0762 0.762,0.27094 0.169334,0.21166 0.177801,0.46566 0.160867,0.889 l -0.1524,3.53907 c -0.0085,0.11853 -0.0085,0.18626 0.0254,0.254 0.03387,0.0762 0.160867,0.127 0.2794,0.0762 l 0.2286,-0.0931 c 0.1016,-0.0423 0.160867,-0.14393 0.160867,-0.26246 z"
         style="font-weight:bold;line-height:100%;font-family:'Hillel CLM';-inkscape-font-specification:'Hillel CLM Bold'"
         id="path20311" />
      <path
         d="m -68.51339,186.3413 c 0.0085,0.0931 0,0.18627 0.0254,0.254 0.03387,0.0677 0.143933,0.127 0.245533,0.0762 l 0.262467,-0.13547 c 0.09313,-0.0423 0.143933,-0.11006 0.160867,-0.22013 l 0.2032,-0.9906 c 0.0254,-0.11007 -0.0085,-0.21167 -0.06773,-0.26247 -0.08467,-0.0593 -0.1778,-0.0847 -0.287866,-0.0254 l -0.389467,0.19474 c -0.118534,0.0508 -0.186267,0.16933 -0.1778,0.32173 z m -1.447801,0 c 0.0085,0.0931 0,0.18627 0.0254,0.254 0.03387,0.0677 0.143934,0.127 0.237067,0.0762 l 0.270933,-0.13547 c 0.09313,-0.0423 0.143934,-0.11006 0.160867,-0.22013 l 0.2032,-0.9906 c 0.01693,-0.11007 -0.01693,-0.21167 -0.0762,-0.26247 -0.0762,-0.0593 -0.169333,-0.0847 -0.2794,-0.0254 l -0.389467,0.19474 c -0.118533,0.0508 -0.186266,0.16933 -0.1778,0.32173 z"
         style="font-weight:bold;line-height:100%;font-family:'Hillel CLM';-inkscape-font-specification:'Hillel CLM Bold'"
         id="path20313" />
      <path
         d="m -71.468254,187.2049 -0.160867,2.26907 c -0.0085,0.127 -0.0085,0.19473 0.0254,0.26247 0.04233,0.0677 0.169334,0.127 0.279401,0.0762 l 0.2286,-0.0931 c 0.1016,-0.0423 0.160866,-0.14393 0.160866,-0.27093 l -0.04233,-2.32834 c -0.0085,-0.5334 -0.05927,-0.94826 -0.423333,-1.25306 -0.313267,-0.254 -0.719667,-0.29634 -1.270001,-0.29634 h -1.278467 c -0.1524,0 -0.245534,0.1016 -0.211667,0.2286 l 0.0762,0.33867 c 0.03387,0.127 0.127,0.19473 0.254,0.19473 h 1.456268 c 0.347133,0 0.601133,0.0762 0.753533,0.27094 0.127,0.16086 0.169334,0.34713 0.1524,0.60113 z"
         style="font-weight:bold;line-height:100%;font-family:'Hillel CLM';-inkscape-font-specification:'Hillel CLM Bold'"
         id="path20315" />
      <path
         d="m -75.193577,189.44857 -0.06773,-3.31047 c -0.0085,-0.18627 -0.04233,-0.33867 -0.160866,-0.44027 -0.110067,-0.0931 -0.254,-0.127 -0.431801,-0.127 h -0.381 c -0.1524,0 -0.245533,0.1016 -0.211666,0.2286 l 0.0762,0.33867 c 0.03387,0.127 0.135466,0.2032 0.254,0.2032 l 0.220133,0.0169 c 0.04233,0 0.09313,0.0254 0.118534,0.0508 0.03387,0.0423 0.05927,0.11007 0.05927,0.16934 l -0.169333,2.8956 c -0.0085,0.127 0,0.19473 0.0254,0.26247 0.04233,0.0677 0.169333,0.127 0.2794,0.0762 l 0.2286,-0.0931 c 0.1016,-0.0423 0.160867,-0.14393 0.160867,-0.27093 z"
         style="font-weight:bold;line-height:100%;font-family:'Hillel CLM';-inkscape-font-specification:'Hillel CLM Bold'"
         id="path20317" />
      <path
         d="m -78.453244,185.5793 -2.116667,-0.008 c -0.1524,0 -0.245534,0.1016 -0.211667,0.2286 l 0.0762,0.34714 c 0.04233,0.16933 0.09313,0.254 0.0762,0.47413 l -0.169333,2.85327 c -0.0085,0.13547 -0.0085,0.19473 0.0254,0.26247 0.04233,0.0677 0.160866,0.127 0.2794,0.0762 l 0.2286,-0.0931 c 0.1016,-0.0423 0.160867,-0.14393 0.160867,-0.27093 l -0.0508,-2.8448 c 0,-0.16934 0.09313,-0.27094 0.237066,-0.27094 h 1.532468 c 0.220133,0 0.381,0.0508 0.4826,0.16934 0.1016,0.13546 0.110067,0.29633 0.09313,0.5588 l -0.1524,2.413 c -0.0085,0.127 -0.0085,0.19473 0.0254,0.26247 0.03387,0.0677 0.160867,0.127 0.2794,0.0762 l 0.220134,-0.0931 c 0.110066,-0.0423 0.169333,-0.14393 0.169333,-0.27093 l -0.04233,-2.7686 c -0.0085,-0.38947 -0.06773,-0.66887 -0.3048,-0.87207 -0.194734,-0.16933 -0.448734,-0.2286 -0.838201,-0.2286 z"
         style="font-weight:bold;line-height:100%;font-family:'Hillel CLM';-inkscape-font-specification:'Hillel CLM Bold'"
         id="path20319" />
      <path
         d="m -86.284907,185.5793 -2.116667,-0.008 c -0.1524,0 -0.245534,0.1016 -0.211667,0.2286 l 0.0762,0.34714 c 0.04233,0.16933 0.09313,0.254 0.0762,0.47413 l -0.169333,2.85327 c -0.0085,0.13547 -0.0085,0.19473 0.0254,0.26247 0.04233,0.0677 0.160866,0.127 0.2794,0.0762 l 0.2286,-0.0931 c 0.1016,-0.0423 0.160867,-0.14393 0.160867,-0.27093 l -0.0508,-2.8448 c 0,-0.16934 0.09313,-0.27094 0.237066,-0.27094 h 1.532468 c 0.220133,0 0.381,0.0508 0.4826,0.16934 0.1016,0.13546 0.110066,0.29633 0.09313,0.5588 l -0.1524,2.413 c -0.0085,0.127 -0.0085,0.19473 0.0254,0.26247 0.03387,0.0677 0.160867,0.127 0.2794,0.0762 l 0.220134,-0.0931 c 0.110066,-0.0423 0.169333,-0.14393 0.169333,-0.27093 l -0.04233,-2.7686 c -0.0085,-0.38947 -0.06773,-0.66887 -0.3048,-0.87207 -0.194734,-0.16933 -0.448734,-0.2286 -0.838201,-0.2286 z"
         style="font-weight:bold;line-height:100%;font-family:'Hillel CLM';-inkscape-font-specification:'Hillel CLM Bold'"
         id="path20321" />
      <path
         d="m -92.8127,185.57083 c -0.143933,0 -0.237066,0.1016 -0.211666,0.2286 l 0.08467,0.33867 c 0.0254,0.127 0.127,0.19473 0.254,0.19473 h 1.744135 c 0.186266,0 0.3302,0.0677 0.313266,0.28787 l -0.169333,2.85327 c -0.0085,0.13547 -0.0085,0.19473 0.0254,0.26247 0.03387,0.0677 0.160867,0.127 0.2794,0.0762 l 0.220133,-0.0931 c 0.110067,-0.0423 0.169334,-0.14393 0.169334,-0.27093 l -0.0508,-2.8448 c 0,-0.16934 0.09313,-0.27094 0.237067,-0.27094 0.186266,0 0.287866,-0.0847 0.321733,-0.2286 l 0.05927,-0.31326 c 0.03387,-0.14394 -0.06773,-0.22014 -0.245534,-0.22014 z"
         style="font-weight:bold;line-height:100%;font-family:'Hillel CLM';-inkscape-font-specification:'Hillel CLM Bold'"
         id="path20323" />
      <path
         d="m -96.77509,189.80417 h 0.889 c 0.3302,0 0.618067,0 0.889001,-0.127 0.262466,-0.127 0.397933,-0.26247 0.5334,-0.46567 0.2032,-0.3048 0.296333,-0.62653 0.364067,-0.98213 l 0.474133,-2.31987 c 0.0254,-0.11853 0.0254,-0.18627 0,-0.254 -0.03387,-0.0762 -0.160867,-0.127 -0.270933,-0.0847 l -0.3556,0.14394 c -0.118534,0.0508 -0.177801,0.1524 -0.186267,0.27093 l -0.1524,1.84573 c -0.0085,0.18627 -0.03387,0.38947 -0.08467,0.5588 -0.04233,0.16087 -0.1016,0.3048 -0.186267,0.41487 -0.1524,0.19474 -0.347133,0.23707 -0.651933,0.23707 h -0.186267 c -0.127,0 -0.211667,-0.0762 -0.194733,-0.21167 l 0.313266,-2.921 c 0.0085,-0.11853 0,-0.18627 -0.03387,-0.254 -0.03387,-0.0762 -0.169334,-0.127 -0.270934,-0.0847 l -0.347133,0.1524 c -0.110067,0.0508 -0.160867,0.1524 -0.160867,0.27094 l 0.0254,2.82786 c 0,0.13547 -0.08467,0.22014 -0.194733,0.22014 h -0.254 c -0.143934,0 -0.254001,-0.0169 -0.321734,-0.0677 -0.08467,-0.0508 -0.127,-0.16934 -0.143933,-0.27941 l -0.381,-2.85326 c -0.01693,-0.127 -0.0508,-0.2032 -0.101601,-0.24554 -0.06773,-0.0508 -0.1778,-0.0593 -0.287866,-0.008 l -0.321734,0.13546 c -0.1016,0.0423 -0.110066,0.19474 -0.08467,0.29634 l 0.7874,3.18347 c 0.0508,0.21166 0.160867,0.38946 0.3048,0.4826 0.1524,0.0847 0.3556,0.11853 0.592667,0.11853 z"
         style="font-weight:bold;line-height:100%;font-family:'Hillel CLM';-inkscape-font-specification:'Hillel CLM Bold'"
         id="path20325" />
      <path
         d="m -100.17021,186.3413 c 0.008,0.0931 0,0.18627 0.0254,0.254 0.0339,0.0677 0.14393,0.127 0.245533,0.0762 l 0.262467,-0.13547 c 0.09313,-0.0423 0.143933,-0.11006 0.160867,-0.22013 l 0.2032,-0.9906 c 0.0254,-0.11007 -0.0085,-0.21167 -0.06773,-0.26247 -0.08467,-0.0593 -0.1778,-0.0847 -0.287866,-0.0254 l -0.389471,0.19474 c -0.11853,0.0508 -0.18627,0.16933 -0.1778,0.32173 z m -1.4478,0 c 0.008,0.0931 0,0.18627 0.0254,0.254 0.0339,0.0677 0.14393,0.127 0.23707,0.0762 l 0.27093,-0.13547 c 0.0931,-0.0423 0.14393,-0.11006 0.16087,-0.22013 l 0.2032,-0.9906 c 0.0169,-0.11007 -0.0169,-0.21167 -0.0762,-0.26247 -0.0762,-0.0593 -0.16934,-0.0847 -0.2794,-0.0254 l -0.38947,0.19474 c -0.11853,0.0508 -0.18627,0.16933 -0.1778,0.32173 z"
         style="font-weight:bold;line-height:100%;font-family:'Hillel CLM';-inkscape-font-specification:'Hillel CLM Bold'"
         id="path20327" />
      <path
         d="m -103.4976,188.87283 c -0.13547,0 -0.23707,0.11007 -0.26247,0.24554 l -0.0593,0.44027 c -0.0254,0.14393 0.0931,0.24553 0.254,0.24553 h 0.3302 c 0.13547,0 0.24554,-0.0847 0.26247,-0.22013 l 0.0593,-0.4572 c 0.0169,-0.1524 -0.0931,-0.25401 -0.26247,-0.25401 z"
         style="font-weight:bold;line-height:100%;font-family:'Hillel CLM';-inkscape-font-specification:'Hillel CLM Bold'"
         id="path20329" />
    </g>
  </g>
</svg>
