<?xml version="1.0" encoding="UTF-8" standalone="no"?>
<!-- Created with Inkscape (http://www.inkscape.org/) -->

<svg
   xmlns:dc="http://purl.org/dc/elements/1.1/"
   xmlns:cc="http://creativecommons.org/ns#"
   xmlns:rdf="http://www.w3.org/1999/02/22-rdf-syntax-ns#"
   xmlns:svg="http://www.w3.org/2000/svg"
   xmlns="http://www.w3.org/2000/svg"
   version="1.1"
   height="100%"
   width="100%"
   viewBox="0 0 309.86563 85.508575"
   id="svg2">
  <defs
     id="defs4" />
  <metadata
     id="metadata7">
    <rdf:RDF>
      <cc:Work
         rdf:about="">
        <dc:format>image/svg+xml</dc:format>
        <dc:type
           rdf:resource="http://purl.org/dc/dcmitype/StillImage" />
        <dc:title></dc:title>
      </cc:Work>
    </rdf:RDF>
  </metadata>
  <g
     id="text3895"
     style="font-size:40px;font-style:normal;font-variant:normal;font-weight:800;font-stretch:condensed;text-align:end;line-height:80.00000119%;letter-spacing:0px;word-spacing:0px;writing-mode:lr-tb;text-anchor:end;fill:#000000;fill-opacity:1;stroke:none;font-family:Horev CLM;-inkscape-font-specification:Horev CLM Ultra-Bold Condensed">
    <path
       d="m 306.16814,20 c 0.6,-0.599999 0.88,-1.600002 0.88,-3.16 l 0,-8.2 c 0,-1.7199983 -0.24,-2.8000008 -1.04,-3.6 -0.8,-0.7999992 -1.96,-1.04 -3.6,-1.04 l -4.48,0 0,4 3.32,0 c 0.68,0 1.12,0.1200003 1.4,0.4 0.28,0.2799997 0.4,0.6400008 0.4,1.4 l 0,10.2 -5.12,0 0,4 9.72,0 0,-4 -1.48,0"
       id="path4046" />
    <path
       d="m 292.93126,9.44 c 0,0 0,-0.1599953 0,4.56 l 4,0 0,-5.36 c 0,-1.7199983 -0.24,-2.8000008 -1.04,-3.6 -0.8,-0.7999992 -1.96,-1.04 -3.6,-1.04 l -1.16,0 0,4 c 0.68,0 0.36,0 0.36,0 0.56,0 0.92,0.1200002 1.12,0.32 0.2,0.1999998 0.32,0.5200006 0.32,1.12"
       id="path4048" />
    <path
       d="m 285.90001,9.44 0,14.56 4,0 0,-15.36 c 0,-1.7199983 -0.24,-2.8000008 -1.04,-3.6 -0.8,-0.7999992 -1.96,-1.04 -3.6,-1.04 l -1.16,0 0,4 c 0.68,0 0.36,0 0.36,0 0.56,0 0.92,0.1200002 1.12,0.32 0.2,0.1999998 0.32,0.5200006 0.32,1.12"
       id="path4050" />
    <path
       d="m 272.94689,24 9.96,0 0,-15.36 c 0,-1.7199983 -0.24,-2.8000008 -1.04,-3.6 -0.8,-0.7999992 -1.96,-1.04 -3.6,-1.04 l -5.32,0 -0.8,0 0,4 1.68,0 c -0.6,0.5999994 -0.88,1.6000015 -0.88,3.12 l 0,12.88 m 5.96,-4 -1.96,0 0,-12 0.52,0 c 0.56,0 0.92,0.1200002 1.12,0.32 0.2,0.1999998 0.32,0.5200006 0.32,1.12 l 0,10.56"
       id="path4052" />
    <path
       d="m 253.38751,17.8 c 0.68,0.599999 1.44,0.76 2.08,0.76 2.04,0 3.32,-1.640003 3.32,-4.16 l 0,-12.4 -4,0 0,12.48 c 0,0.519999 -0.24,0.84 -0.68,0.84 -0.44,0 -0.72,-0.320001 -0.72,-0.84 l 0,-10.48 -4,0 0,13.36 c 0,2.479998 0.36,3.960001 1.52,5.12 1.16,1.159999 2.76,1.52 5.12,1.52 l 1.52,0 c 2.36,0 4,-0.360001 5.16,-1.52 1.16,-1.159999 1.48,-2.640002 1.48,-5.12 l 0,-13.36 -4,0 0,13.4 c 0,1.119999 -0.16,1.64 -0.56,2.04 -0.4,0.4 -1,0.56 -2,0.56 l -2.08,0 c -0.84,0 -1.36,-0.16 -1.68,-0.48 -0.24,-0.24 -0.48,-0.640001 -0.48,-1.32 l 0,-0.4"
       id="path4054" />
    <path
       d="m 243.79064,9.44 c 0,0 0,-0.1599953 0,4.56 l 4,0 0,-5.36 c 0,-1.7199983 -0.24,-2.8000008 -1.04,-3.6 -0.8,-0.7999992 -1.96,-1.04 -3.6,-1.04 l -1.16,0 0,4 c 0.68,0 0.36,0 0.36,0 0.56,0 0.92,0.1200002 1.12,0.32 0.2,0.1999998 0.32,0.5200006 0.32,1.12"
       id="path4056" />
    <path
       d="m 240.75439,24 0,-15.36 c 0,-1.7199983 -0.24,-2.8000008 -1.04,-3.6 -0.8,-0.7999992 -1.96,-1.04 -3.6,-1.04 l -4.28,0 0,4 3.12,0 c 0.68,0 1.12,0.1200003 1.4,0.4 0.28,0.2799997 0.4,0.6400008 0.4,1.4 l 0,14.2 4,0"
       id="path4058" />
    <path
       d="m 226.60314,9.44 0,14.56 4,0 0,-15.36 c 0,-1.7199983 -0.24,-2.8000008 -1.04,-3.6 -0.8,-0.7999992 -1.96,-1.04 -3.6,-1.04 l -1.16,0 0,4 c 0.68,0 0.36,0 0.36,0 0.56,0 0.92,0.1200002 1.12,0.32 0.2,0.1999998 0.32,0.5200006 0.32,1.12"
       id="path4060" />
    <path
       d="m 213.85939,18.84 c 0,0.48 -0.08,0.76 -0.24,0.92 -0.16,0.16 -0.48,0.24 -0.92,0.24 l -0.64,0 0,4 2.08,0.12 c 1.32,0.08 2.24,-0.200001 2.88,-0.84 0.64,-0.639999 0.84,-1.520001 0.84,-2.88 l 0,-12.4 0.32,0 c 0.56,0 0.92,0.1200002 1.12,0.32 0.2,0.1999998 0.32,0.5200006 0.32,1.12 l 0,14.56 4,0 0,-15.36 c 0,-1.7199983 -0.24,-2.8000008 -1.04,-3.6 -0.8,-0.7999992 -1.96,-1.04 -3.6,-1.04 l -5.92,0 0,4 1.68,0 c -0.6,0.5999994 -0.88,1.6000015 -0.88,3.12 l 0,7.72"
       id="path4062" />
    <path
       d="m 198.46564,15.76 2.4,8.24 4.2,0 -2.68,-8.12 c 1.28,-0.679999 2.04,-1.960002 2.04,-3.88 l 0,-10 -4,0 0,10.32 -2.36,-8.32 -4.2,0 2.6,7.88 c -1.44,0.599999 -2,1.840002 -2,3.72 l 0,8.4 4,0 0,-8.24"
       id="path4064" />
    <path
       d="m 192.69314,8.64 c 0,-1.7199983 -0.24,-2.8000008 -1.04,-3.6 -0.8,-0.7999992 -1.96,-1.04 -3.6,-1.04 l -1.6,0 0,4 0.44,0 c 0.68,0 1.12,0.1200003 1.4,0.4 0.28,0.2799997 0.4,0.6000008 0.4,1.36 l 0,10.24 -2.24,0 0,4 6.24,0 0,-15.36"
       id="path4066" />
    <path
       d="m 181.05626,9.44 c 0,0 0,-0.1599953 0,4.56 l 4,0 0,-5.36 c 0,-1.7199983 -0.24,-2.8000008 -1.04,-3.6 -0.8,-0.7999992 -1.96,-1.04 -3.6,-1.04 l -1.16,0 0,4 c 0.68,0 0.36,0 0.36,0 0.56,0 0.92,0.1200002 1.12,0.32 0.2,0.1999998 0.32,0.5200006 0.32,1.12"
       id="path4068" />
    <path
       d="m 171.69376,14.96 0,-1.92 c 0,-3.3599966 -0.32,-5.4400016 -1.36,-7 -1.04,-1.5599984 -2.52,-2.04 -4.68,-2.04 l -2.96,0 0,4 1.32,0 c 1.48,0 2.44,0.3200008 3.04,1.12 0.6,0.7999992 0.84,1.840002 0.84,4.04 l 0,1.68 c 0,2.199998 -0.24,3.240001 -0.84,4.04 -0.6,0.799999 -1.56,1.12 -3.04,1.12 l -1.32,0 0,4 2.96,0 c 2.16,0 3.64,-0.480002 4.68,-2.04 1.04,-1.559998 1.36,-3.640003 1.36,-7"
       id="path4070" />
    <path
       d="m 155.38064,5.32 0,-1.32 -4,0 0,20 4,0 0,-15.12 c 0,-0.7999992 0.4,-1.32 1.04,-1.32 0.64,0 1.04,0.5200008 1.04,1.32 l 0,11.12 -1.04,0 0,4 5.08,0 0,-15.96 c 0,-2.5999974 -1.32,-4.24 -3.4,-4.24 -1.2,0 -2.16,0.560001 -2.72,1.52"
       id="path4072" />
    <path
       d="m 145.50939,9.44 0,14.56 4,0 0,-15.36 c 0,-1.7199983 -0.24,-2.8000008 -1.04,-3.6 -0.8,-0.7999992 -1.96,-1.04 -3.6,-1.04 l -1.16,0 0,4 c 0.68,0 0.36,0 0.36,0 0.56,0 0.92,0.1200002 1.12,0.32 0.2,0.1999998 0.32,0.5200006 0.32,1.12"
       id="path4074" />
    <path
       d="m 136.43439,2 -4,0 0,16.44 c 0,3.599996 1.92,5.84 5.04,5.84 3.11999,0 5.04,-2.240004 5.04,-5.84 l 0,-10.76 c 0,-2.3999976 -1.2,-3.88 -3.12,-3.88 -0.8,0 -1.44,0.2800004 -1.96,0.72 l 0,3.76 c 0.64,0 1.08,0.5200008 1.08,1.32 l 0,9.28 c 0,0.799999 -0.4,1.28 -1.04,1.28 -0.64,0 -1.04,-0.480001 -1.04,-1.28 l 0,-16.88"
       id="path4076" />
    <path
       d="m 121.26251,4 0,3.96 8.8,0 0,-3.96 -8.8,0"
       id="path4078" />
    <path
       d="m 119.49001,8.64 c 0,-1.7199983 -0.24,-2.8000008 -1.04,-3.6 -0.8,-0.7999992 -1.96,-1.04 -3.6,-1.04 l -1.6,0 0,4 0.44,0 c 0.68,0 1.12,0.1200003 1.4,0.4 0.28,0.2799997 0.4,0.6000008 0.4,1.36 l 0,10.24 -2.24,0 0,4 6.24,0 0,-15.36"
       id="path4080" />
    <path
       d="m 101.69689,11.12 0,12.88 4,0 0,-16 0.52,0 c 0.56,0 0.92,0.1200002 1.12,0.32 0.2,0.1999998 0.32,0.5200006 0.32,1.12 l 0,14.56 4,0 0,-15.36 c 0,-1.7199983 -0.24,-2.8000008 -1.04,-3.6 -0.8,-0.7999992 -1.96,-1.04 -3.6,-1.04 l -5.32,0 -0.8,0 0,4 1.68,0 c -0.6,0.5999994 -0.88,1.6000015 -0.88,3.12"
       id="path4082" />
    <path
       d="m 95.665637,9.44 0,14.56 4,0 0,-15.36 c 0,-1.7199983 -0.240001,-2.8000008 -1.04,-3.6 C 97.825638,4.2400008 96.665636,4 95.025637,4 l -1.16,0 0,4 c 0.68,0 0.36,0 0.36,0 0.56,0 0.92,0.1200002 1.12,0.32 0.2,0.1999998 0.32,0.5200006 0.32,1.12"
       id="path4084" />
    <path
       d="m 81.903137,17.8 c 0.68,0.599999 1.440001,0.76 2.08,0.76 2.039998,0 3.32,-1.640003 3.32,-4.16 l 0,-12.4 -4,0 0,12.48 c 0,0.519999 -0.24,0.84 -0.68,0.84 -0.439999,0 -0.72,-0.320001 -0.72,-0.84 l 0,-10.48 -4,0 0,13.36 c 0,2.479998 0.360001,3.960001 1.52,5.12 1.159999,1.159999 2.760003,1.52 5.12,1.52 l 1.52,0 c 2.359998,0 4.000001,-0.360001 5.16,-1.52 1.159999,-1.159999 1.48,-2.640002 1.48,-5.12 l 0,-13.36 -4,0 0,13.4 c 0,1.119999 -0.16,1.64 -0.56,2.04 -0.399999,0.4 -1.000001,0.56 -2,0.56 l -2.08,0 c -0.839999,0 -1.36,-0.16 -1.68,-0.48 -0.24,-0.24 -0.48,-0.640001 -0.48,-1.32 l 0,-0.4"
       id="path4086" />
    <path
       d="m 66.343518,18.84 c 0,0.48 -0.08,0.76 -0.24,0.92 -0.16,0.16 -0.48,0.24 -0.92,0.24 l -0.64,0 0,4 2.08,0.12 c 1.319999,0.08 2.240001,-0.200001 2.88,-0.84 0.639999,-0.639999 0.84,-1.520001 0.84,-2.88 l 0,-12.4 0.32,0 c 0.56,0 0.92,0.1200002 1.12,0.32 0.2,0.1999998 0.32,0.5200006 0.32,1.12 l 0,14.56 4,0 0,-15.36 c 0,-1.7199983 -0.240001,-2.8000008 -1.04,-3.6 C 74.263519,4.2400008 73.103516,4 71.463518,4 l -5.92,0 0,4 1.68,0 c -0.599999,0.5999994 -0.88,1.6000015 -0.88,3.12 l 0,7.72"
       id="path4088" />
    <path
       d="m 58.328137,20 0,8 3,0 1.2,-8 -4.2,0"
       id="path4090" />
    <path
       d="m 307.86564,46.96 0,-1.92 c 0,-3.359996 -0.32,-5.440001 -1.36,-7 -1.04,-1.559998 -2.52,-2.04 -4.68,-2.04 l -2.96,0 0,4 1.32,0 c 1.48,0 2.44,0.320001 3.04,1.12 0.6,0.8 0.84,1.840003 0.84,4.04 l 0,1.68 c 0,2.199998 -0.24,3.240001 -0.84,4.04 -0.6,0.8 -1.56,1.12 -3.04,1.12 l -1.32,0 0,4 2.96,0 c 2.16,0 3.64,-0.480001 4.68,-2.04 1.04,-1.559998 1.36,-3.640003 1.36,-7"
       id="path4092" />
    <path
       d="m 293.68439,47.2 c -0.56,-0.479999 -1.24,-0.76 -2.08,-0.76 -2.04,0 -3.32,1.640003 -3.32,4.16 l 0,7.4 4,0 0,-7.48 c 0,-0.519999 0.24,-0.88 0.68,-0.88 0.44,0 0.72,0.360001 0.72,0.88 l 0,5.48 4,0 0,-15.36 c 0,-1.679998 -0.28,-2.8 -1.08,-3.6 -0.8,-0.799999 -1.92,-1.04 -3.56,-1.04 l -3.08,0 0,4 1.92,0 c 0.68,0 1.12,0.120001 1.4,0.4 0.28,0.28 0.4,0.640001 0.4,1.4 l 0,5.4"
       id="path4094" />
    <path
       d="m 282.85314,41.44 0,14.56 4,0 0,-15.36 c 0,-1.719998 -0.24,-2.8 -1.04,-3.6 -0.8,-0.799999 -1.96,-1.04 -3.6,-1.04 l -1.16,0 0,4 c 0.68,0 0.36,0 0.36,0 0.56,0 0.92,0.120001 1.12,0.32 0.2,0.2 0.32,0.520001 0.32,1.12"
       id="path4096" />
    <path
       d="m 269.09064,49.8 c 0.68,0.6 1.44,0.76 2.08,0.76 2.04,0 3.32,-1.640002 3.32,-4.16 l 0,-12.4 -4,0 0,12.48 c 0,0.52 -0.24,0.84 -0.68,0.84 -0.44,0 -0.72,-0.32 -0.72,-0.84 l 0,-10.48 -4,0 0,13.36 c 0,2.479998 0.36,3.960002 1.52,5.12 1.16,1.159999 2.76,1.52 5.12,1.52 l 1.52,0 c 2.35999,0 4,-0.360001 5.16,-1.52 1.16,-1.159998 1.48,-2.640002 1.48,-5.12 l 0,-13.36 -4,0 0,13.4 c 0,1.119999 -0.16,1.640001 -0.56,2.04 -0.4,0.4 -1,0.56 -2,0.56 l -2.08,0 c -0.84,0 -1.36,-0.16 -1.68,-0.48 -0.24,-0.239999 -0.48,-0.64 -0.48,-1.32 l 0,-0.4"
       id="path4098" />
    <path
       d="m 253.9444,36 0,3.96 8.8,0 0,-3.96 -8.8,0"
       id="path4100" />
    <path
       d="m 251.48064,52 c 0.6,-0.599999 0.88,-1.600001 0.88,-3.16 l 0,-8.2 c 0,-1.719998 -0.24,-2.8 -1.04,-3.6 -0.8,-0.799999 -1.96,-1.04 -3.6,-1.04 l -4.48,0 0,4 3.32,0 c 0.68,0 1.12,0.120001 1.4,0.4 0.28,0.28 0.4,0.640001 0.4,1.4 l 0,10.2 -5.12,0 0,4 9.72,0 0,-4 -1.48,0"
       id="path4102" />
    <path
       d="m 242.01415,56 0,-15.36 c 0,-1.719998 -0.24,-2.8 -1.04,-3.6 -0.8,-0.799999 -1.96,-1.04 -3.6,-1.04 l -4.28,0 0,4 3.12,0 c 0.68,0 1.12,0.120001 1.4,0.4 0.28,0.28 0.4,0.640001 0.4,1.4 l 0,14.2 4,0"
       id="path4104" />
    <path
       d="m 230.35751,56 0,-16 1.32,0 0,-4 -6.64,0 0,4 2.16,0 c -0.6,0.6 -0.84,1.600002 -0.84,3.16 l 0,12.84 4,0"
       id="path4106" />
    <path
       d="m 219.54001,40.52 c 0.28,0.36 0.28,0.760001 0.08,1.56 l -3.76,13.92 4.16,0 3.92,-14.52 c 0.48,-1.799998 0.44,-3.000001 -0.28,-4 -0.76,-1.119998 -2.04,-1.48 -3.96,-1.48 l -1.6,0 0,-4 -4,0 0,8 3.92,0 c 0.8,0 1.24,0.160001 1.52,0.52"
       id="path4108" />
    <path
       d="m 204.84001,52 c 0.6,-0.599999 0.88,-1.600001 0.88,-3.16 l 0,-8.2 c 0,-1.719998 -0.24,-2.8 -1.04,-3.6 -0.8,-0.799999 -1.96,-1.04 -3.6,-1.04 l -4.48,0 0,4 3.32,0 c 0.68,0 1.12,0.120001 1.4,0.4 0.28,0.28 0.4,0.640001 0.4,1.4 l 0,10.2 -5.12,0 0,4 9.72,0 0,-4 -1.48,0"
       id="path4110" />
    <path
       d="m 191.6129,41.44 c 0,0 0,-0.159995 0,4.56 l 4,0 0,-5.36 c 0,-1.719998 -0.24,-2.8 -1.04,-3.6 -0.8,-0.799999 -1.96,-1.04 -3.6,-1.04 l -1.16,0 0,4 c 0.68,0 0.36,0 0.36,0 0.56,0 0.92,0.120001 1.12,0.32 0.2,0.2 0.32,0.520001 0.32,1.12"
       id="path4112" />
    <path
       d="m 187.10939,56 0,-16 1.32,0 0,-4 -9.72,0 0,4 5.24,0 c -0.6,0.6 -0.84,1.600002 -0.84,3.16 l 0,12.84 4,0"
       id="path4114" />
    <path
       d="m 173.71251,41.44 c 0,0 0,-0.159995 0,4.56 l 4,0 0,-5.36 c 0,-1.719998 -0.24,-2.8 -1.04,-3.6 -0.8,-0.799999 -1.96,-1.04 -3.6,-1.04 l -1.16,0 0,4 c 0.68,0 0.36,0 0.36,0 0.56,0 0.92,0.120001 1.12,0.32 0.2,0.2 0.32,0.520001 0.32,1.12"
       id="path4116" />
    <path
       d="m 163.94314,40.64 c 0,-1.719998 -0.24,-2.8 -1.04,-3.6 -0.8,-0.799999 -1.96,-1.04 -3.6,-1.04 l -1.6,0 0,4 0.44,0 c 0.68,0 1.12,0.120001 1.4,0.4 0.28,0.28 0.4,0.600001 0.4,1.36 l 0,10.24 -2.24,0 0,4 6.24,0 0,-15.36"
       id="path4118" />
    <path
       d="m 145.90626,40 1.16,0 c -0.8,0.68 -1.16,1.760002 -1.16,3.44 l 0,1.28 c 0,2.399998 1.2,3.92 3.12,3.92 0.8,0 1.44,-0.28 1.96,-0.72 l 0,-2.96 c -0.64,0 -1.08,-0.52 -1.08,-1.32 l 0,-3.64 0.28,0 c 0.72,0 1.2,0.120001 1.48,0.4 0.28,0.28 0.4,0.640001 0.4,1.44 l 0,8.28 c 0,0.8 -0.12,1.200001 -0.4,1.48 -0.28,0.28 -0.72,0.4 -1.44,0.4 l -4.32,0 0,4 5.04,0 c 1.8,0 3.08,-0.28 3.96,-1.16 0.88,-0.879999 1.16,-2.080001 1.16,-3.96 l 0,-9.76 c 0,-1.879998 -0.28,-3.08 -1.16,-3.96 -0.88,-0.879999 -2.16,-1.16 -3.96,-1.16 l -5.04,0 0,4"
       id="path4120" />
    <path
       d="m 134.35314,43.12 0,12.88 4,0 0,-16 0.52,0 c 0.56,0 0.92,0.120001 1.12,0.32 0.2,0.2 0.32,0.520001 0.32,1.12 l 0,14.56 4,0 0,-15.36 c 0,-1.719998 -0.24,-2.8 -1.04,-3.6 -0.8,-0.799999 -1.96,-1.04 -3.6,-1.04 l -5.32,0 -0.8,0 0,4 1.68,0 c -0.6,0.6 -0.88,1.600002 -0.88,3.12"
       id="path4122" />
    <path
       d="m 121.52501,41.44 0,14.56 4,0 0,-15.36 c 0,-1.719998 -0.24,-2.8 -1.04,-3.6 -0.8,-0.799999 -1.96,-1.04 -3.6,-1.04 l -1.16,0 0,4 c 0.68,0 0.36,0 0.36,0 0.56,0 0.92,0.120001 1.12,0.32 0.2,0.2 0.32,0.520001 0.32,1.12"
       id="path4124" />
    <path
       d="m 107.76251,49.8 c 0.68,0.6 1.44,0.76 2.08,0.76 2.04,0 3.32,-1.640002 3.32,-4.16 l 0,-12.4 -4,0 0,12.48 c 0,0.52 -0.24,0.84 -0.68,0.84 -0.44,0 -0.72,-0.32 -0.72,-0.84 l 0,-10.48 -4,0 0,13.36 c 0,2.479998 0.36,3.960002 1.52,5.12 1.16,1.159999 2.76,1.52 5.12,1.52 l 1.52,0 c 2.36,0 4,-0.360001 5.16,-1.52 1.16,-1.159998 1.48,-2.640002 1.48,-5.12 l 0,-13.36 -4,0 0,13.4 c 0,1.119999 -0.16,1.640001 -0.56,2.04 -0.4,0.4 -1,0.56 -2,0.56 l -2.08,0 c -0.84,0 -1.36,-0.16 -1.68,-0.48 -0.24,-0.239999 -0.48,-0.64 -0.48,-1.32 l 0,-0.4"
       id="path4126" />
    <path
       d="m 95.849387,37.32 0,-1.32 -4,0 0,20 4,0 0,-15.12 c 0,-0.799999 0.400001,-1.32 1.04,-1.32 0.64,0 1.04,0.520001 1.04,1.32 l 0,11.12 -1.04,0 0,4 5.080003,0 0,-15.96 c 0,-2.599997 -1.32,-4.24 -3.400003,-4.24 -1.199999,0 -2.16,0.560001 -2.72,1.52"
       id="path4128" />
    <path
       d="m 85.978137,41.44 0,14.56 4,0 0,-15.36 c 0,-1.719998 -0.240001,-2.8 -1.04,-3.6 -0.799999,-0.799999 -1.960001,-1.04 -3.6,-1.04 l -1.16,0 0,4 c 0.68,0 0.36,0 0.36,0 0.56,0 0.92,0.120001 1.12,0.32 0.2,0.2 0.32,0.520001 0.32,1.12"
       id="path4130" />
    <path
       d="m 59.343762,44 0,3.96 16.8,0 0,-3.96 -16.8,0"
       id="path4132" />
    <path
       d="m 41.175012,56 10.2,0 -2.76,-8.08 c 1.519999,-0.479999 2.32,-2.080001 2.32,-3.92 l 0,-10 -4,0 0,9.44 -2.36,-7.44 -4,0 5.44,16 -4.84,0 0,4"
       id="path4134" />
    <path
       d="m 35.978137,41.44 c 0,0 0,-0.159995 0,4.56 l 4,0 0,-5.36 c 0,-1.719998 -0.240001,-2.8 -1.04,-3.6 -0.799999,-0.799999 -1.960001,-1.04 -3.6,-1.04 l -1.16,0 0,4 c 0.68,0 0.36,0 0.36,0 0.56,0 0.92,0.120001 1.12,0.32 0.2,0.2 0.32,0.520001 0.32,1.12"
       id="path4136" />
    <path
       d="m 28.946887,41.44 0,14.56 4,0 0,-15.36 c 0,-1.719998 -0.240001,-2.8 -1.04,-3.6 -0.799999,-0.799999 -1.960001,-1.04 -3.6,-1.04 l -1.16,0 0,4 c 0.68,0 0.36,0 0.36,0 0.56,0 0.92,0.120001 1.12,0.32 0.2,0.2 0.32,0.520001 0.32,1.12"
       id="path4138" />
    <path
       d="m 21.915637,41.44 0,20.56 4,0 0,-21.36 c 0,-1.719998 -0.240001,-2.8 -1.04,-3.6 -0.799999,-0.799999 -1.960001,-1.04 -3.6,-1.04 l -1.16,0 0,4 c 0.68,0 0.36,0 0.36,0 0.56,0 0.92,0.120001 1.12,0.32 0.2,0.2 0.32,0.520001 0.32,1.12"
       id="path4140" />
    <path
       d="m 14.320012,54 c 0,1.239999 1.040001,2.28 2.28,2.28 1.239999,0 2.28,-1.040001 2.28,-2.28 0,-1.239998 -1.040001,-2.28 -2.28,-2.28 -1.239999,0 -2.28,1.040002 -2.28,2.28 m -6.1599998,0 c 0,1.239999 1.0400012,2.28 2.2799998,2.28 1.239999,0 2.28,-1.040001 2.28,-2.28 0,-1.239998 -1.040001,-2.28 -2.28,-2.28 -1.2399986,0 -2.2799998,1.040002 -2.2799998,2.28 m -6.16,0 c 0,1.239999 1.0400012,2.28 2.28,2.28 1.2399988,0 2.28,-1.040001 2.28,-2.28 0,-1.239998 -1.0400012,-2.28 -2.28,-2.28 -1.2399988,0 -2.28,1.040002 -2.28,2.28"
       id="path4142" />
  </g>
  <g
     id="text3901"
     style="font-size:20px;font-style:normal;font-variant:normal;font-weight:800;font-stretch:condensed;text-align:start;line-height:125%;letter-spacing:0px;word-spacing:0px;writing-mode:lr-tb;text-anchor:start;fill:#000000;fill-opacity:1;stroke:none;font-family:Horev CLM;-inkscape-font-specification:Horev CLM Ultra-Bold Condensed">
    <path
       d="m 100.88344,80.508575 0,-8 0.66,0 0,-2 -3.320002,0 0,2 1.079999,0 c -0.299999,0.3 -0.42,0.800001 -0.42,1.58 l 0,6.42 2.000003,0"
       id="path4005" />
    <path
       d="m 94.625,76.388575 1.2,4.12 2.1,0 -1.34,-4.06 c 0.639999,-0.339999 1.02,-0.980001 1.02,-1.94 l 0,-5 -2,0 0,5.16 -1.18,-4.16 -2.1,0 1.3,3.94 c -0.719999,0.3 -1,0.920001 -1,1.86 l 0,4.2 2,0 0,-4.12"
       id="path4007" />
    <path
       d="m 91.093437,78.508575 c 0.3,-0.299999 0.440001,-0.8 0.440001,-1.58 l 0,-4.1 c 0,-0.859999 -0.120001,-1.4 -0.520001,-1.8 -0.399999,-0.399999 -0.98,-0.52 -1.8,-0.52 l -2.239999,0 0,2 1.659999,0 c 0.34,0 0.560001,0.06 0.700001,0.2 0.139999,0.14 0.2,0.320001 0.2,0.7 l 0,5.1 -2.56,0 0,2 4.86,0 0,-2 -0.740001,0"
       id="path4009" />
    <path
       d="m 82.406875,80.508575 0,-8 0.66,0 0,-2 -3.32,0 0,2 1.08,0 c -0.3,0.3 -0.42,0.800001 -0.42,1.58 l 0,6.42 2,0"
       id="path4011" />
    <path
       d="m 78.44375,73.508575 0.6,-3 -2.2,0 0,3 1.6,0"
       id="path4013" />
    <path
       d="m 75.312187,78.508575 c 0.3,-0.299999 0.440001,-0.8 0.440001,-1.58 l 0,-4.1 c 0,-0.859999 -0.120001,-1.4 -0.520001,-1.8 -0.399999,-0.399999 -0.98,-0.52 -1.8,-0.52 l -2.239999,0 0,2 1.659999,0 c 0.34,0 0.560001,0.06 0.700001,0.2 0.139999,0.14 0.2,0.320001 0.2,0.7 l 0,5.1 -2.56,0 0,2 4.86,0 0,-2 -0.740001,0"
       id="path4015" />
    <path
       d="m 68.576562,73.228575 0,7.28 2,0 0,-7.68 c 0,-0.859999 -0.12,-1.4 -0.52,-1.8 -0.399999,-0.399999 -0.98,-0.52 -1.8,-0.52 l -0.579999,0 0,2 c 0.339999,0 0.179999,0 0.179999,0 0.28,0 0.460001,0.06 0.56,0.16 0.1,0.1 0.16,0.260001 0.16,0.56"
       id="path4017" />
    <path
       d="m 64.039062,69.508575 -2,0 0,8.22 c 0,1.799999 0.960002,2.92 2.52,2.92 1.559999,0 2.520001,-1.120001 2.520001,-2.92 l 0,-5.38 c 0,-1.199998 -0.600001,-1.94 -1.56,-1.94 -0.4,0 -0.720001,0.140001 -0.980001,0.36 l 0,1.88 c 0.32,0 0.540001,0.260001 0.540001,0.66 l 0,4.64 c 0,0.4 -0.200001,0.64 -0.520001,0.64 -0.319999,0 -0.52,-0.24 -0.52,-0.64 l 0,-8.44"
       id="path4019" />
    <path
       d="m 59.240625,73.228575 c 0,0 0,-0.08 0,2.28 l 2,0 0,-2.68 c 0,-0.859999 -0.12,-1.4 -0.52,-1.8 -0.4,-0.399999 -0.980001,-0.52 -1.8,-0.52 l -0.58,0 0,2 c 0.34,0 0.18,0 0.18,0 0.28,0 0.46,0.06 0.56,0.16 0.1,0.1 0.16,0.260001 0.16,0.56"
       id="path4021" />
    <path
       d="m 57.772075,72.828575 c 0,-0.859999 -0.12,-1.4 -0.52,-1.8 -0.399999,-0.399999 -0.980001,-0.52 -1.8,-0.52 l -0.8,0 0,2 0.22,0 c 0.34,0 0.56,0.06 0.7,0.2 0.14,0.14 0.2,0.300001 0.2,0.68 l 0,5.12 -1.12,0 0,2 3.12,0 0,-7.68"
       id="path4023" />
    <path
       d="m 48.896875,74.088575 0,3.66 c 0,1.779999 0.960002,2.9 2.52,2.9 1.559998,0 2.52,-1.120001 2.52,-2.9 l 0,-4.92 c 0,-0.859999 -0.12,-1.4 -0.52,-1.8 -0.4,-0.399999 -0.980001,-0.52 -1.8,-0.52 l -2.72,0 -0.4,0 0,2 0.84,0 c -0.3,0.3 -0.44,0.800001 -0.44,1.58 m 3.04,3.86 c 0,0.4 -0.2,0.64 -0.52,0.64 -0.32,0 -0.52,-0.24 -0.52,-0.64 l 0,-5.44 0.32,0 c 0.28,0 0.46,0.06 0.56,0.16 0.1,0.1 0.16,0.260001 0.16,0.56 l 0,4.72"
       id="path4025" />
    <path
       d="m 45.09375,74.108575 -2,0 0,9.4 2,0 0,-9.4 m 2.8,6.4 0,-7.68 c 0,-0.859999 -0.12,-1.4 -0.52,-1.8 -0.4,-0.399999 -0.980001,-0.52 -1.8,-0.52 l -2.48,0 0,2 1.9,0 c 0.34,0 0.56,0.06 0.7,0.2 0.14,0.14 0.2,0.320001 0.2,0.7 l 0,7.1 2,0"
       id="path4027" />
    <path
       d="m 40.281885,73.228575 c 0,0 0,-0.08 0,2.28 l 2,0 0,-2.68 c 0,-0.859999 -0.120001,-1.4 -0.52,-1.8 -0.4,-0.399999 -0.980001,-0.52 -1.8,-0.52 l -0.58,0 0,2 c 0.339999,0 0.18,0 0.18,0 0.279999,0 0.46,0.06 0.56,0.16 0.1,0.1 0.16,0.260001 0.16,0.56"
       id="path4029" />
    <path
       d="m 37.173437,78.508575 0,4 1.5,0 0.6,-4 -2.1,0"
       id="path4031" />
    <path
       d="m 32.276562,73.508575 0.6,-3 -2.2,0 0,3 1.6,0 m -2.699999,0 0.599999,-3 -2.2,0 0,3 1.600001,0"
       id="path4033" />
    <path
       d="m 24.234375,74.108575 -2,0 0,6.4 2,0 0,-6.4 m 2.86,6.4 0,-7.68 c 0,-0.859999 -0.12,-1.4 -0.52,-1.8 -0.4,-0.399999 -0.980001,-0.52 -1.8,-0.52 l -2.54,0 0,2 1.96,0 c 0.34,0 0.56,0.06 0.7,0.2 0.14,0.14 0.2,0.320001 0.2,0.7 l 0,7.1 2,0"
       id="path4035" />
    <path
       d="m 21.348125,72.828575 c 0,-0.859999 -0.12,-1.4 -0.52,-1.8 -0.4,-0.399999 -0.980001,-0.52 -1.8,-0.52 l -0.8,0 0,2 0.22,0 c 0.34,0 0.56,0.06 0.7,0.2 0.14,0.14 0.2,0.300001 0.2,0.68 l 0,5.12 -1.12,0 0,2 3.12,0 0,-7.68"
       id="path4037" />
    <path
       d="m 16.876562,80.508575 0,-8 0.660001,0 0,-2 -4.860001,0 0,2 2.620001,0 c -0.3,0.3 -0.42,0.800001 -0.42,1.58 l 0,6.42 1.999999,0"
       id="path4039" />
    <path
       d="m 12.058438,80.508575 0,-7.68 c 0,-0.859999 -0.120001,-1.4 -0.52,-1.8 -0.4,-0.399999 -0.980001,-0.52 -1.8000005,-0.52 l -2.14,0 0,2 1.56,0 c 0.3399997,0 0.5600001,0.06 0.7,0.2 0.1399999,0.14 0.2000005,0.320001 0.2000005,0.7 l 0,7.1 2,0"
       id="path4041" />
    <path
       d="m 6.3,73.508575 0.6,-3 -2.2,0 0,3 1.6,0 m -2.7,0 0.6,-3 -2.2,0 0,3 1.6,0"
       id="path4043" />
  </g>
</svg>
