<?xml version="1.0" encoding="UTF-8" standalone="no"?>
<!-- Created with Inkscape (http://www.inkscape.org/) -->
<svg
   xmlns:dc="http://purl.org/dc/elements/1.1/"
   xmlns:cc="http://creativecommons.org/ns#"
   xmlns:rdf="http://www.w3.org/1999/02/22-rdf-syntax-ns#"
   xmlns:svg="http://www.w3.org/2000/svg"
   xmlns="http://www.w3.org/2000/svg"
   xmlns:sodipodi="http://sodipodi.sourceforge.net/DTD/sodipodi-0.dtd"
   xmlns:inkscape="http://www.inkscape.org/namespaces/inkscape"
   id="svg2"
   sodipodi:version="0.32"
   inkscape:version="0.46"
   sodipodi:docname="journal.svg"
   inkscape:output_extension="org.inkscape.output.svg.inkscape"
   version="1.0"
   height="100%"
   width="100%"
   viewBox="0 0 1608.0998 777.70097">
  <defs
     id="defs4">
    <inkscape:perspective
       sodipodi:type="inkscape:persp3d"
       inkscape:vp_x="0 : 526.18109 : 1"
       inkscape:vp_y="0 : 1000 : 0"
       inkscape:vp_z="744.09448 : 526.18109 : 1"
       inkscape:persp3d-origin="372.04724 : 350.78739 : 1"
       id="perspective10" />
  </defs>
  <sodipodi:namedview
     id="base"
     pagecolor="#ffffff"
     bordercolor="#666666"
     borderopacity="1.0"
     gridtolerance="10000"
     guidetolerance="10"
     objecttolerance="10"
     inkscape:pageopacity="0.0"
     inkscape:pageshadow="2"
     inkscape:zoom="0.35"
     inkscape:cx="980.91702"
     inkscape:cy="200.41571"
     inkscape:document-units="px"
     inkscape:current-layer="layer1"
     showgrid="false"
     inkscape:window-width="961"
     inkscape:window-height="748"
     inkscape:window-x="268"
     inkscape:window-y="110" />
  <metadata
     id="metadata7">
    <rdf:RDF>
      <cc:Work
         rdf:about="">
        <dc:format>image/svg+xml</dc:format>
        <dc:type
           rdf:resource="http://purl.org/dc/dcmitype/StillImage" />
      </cc:Work>
    </rdf:RDF>
  </metadata>
  <g
     inkscape:label="Layer 1"
     inkscape:groupmode="layer"
     id="layer1"
     transform="translate(1718.911,-788.1743)">
    <path
       style="font-size:170.76957703px;font-style:normal;font-variant:normal;font-weight:300;font-stretch:normal;text-align:end;line-height:50%;writing-mode:lr-tb;text-anchor:end;fill:#000000;fill-opacity:1;stroke:none;stroke-width:1px;stroke-linecap:butt;stroke-linejoin:miter;stroke-opacity:1;font-family:Journal CLM;-inkscape-font-specification:Journal CLM Light"
       d="M -197.3353,822.49898 L -189.65067,830.18361 C -180.25835,827.62207 -174.79371,827.62207 -163.01062,827.62207 C -155.15522,827.62207 -149.86136,829.159 -145.76289,833.25746 C -140.81058,838.20978 -139.61519,844.69903 -139.61519,852.38366 C -139.61519,875.26676 -139.27365,888.07452 -140.81057,907.88377 C -156.35059,907.88377 -179.06297,907.02992 -192.21221,904.46838 L -199.89685,912.15301 C -185.55222,910.44531 -162.15675,910.61608 -139.44442,910.44531 C -133.63826,910.44531 -132.7844,910.44531 -126.80747,910.44531 L -121.68438,905.32223 C -126.46592,907.37146 -134.66287,907.88377 -139.27365,907.88377 L -135.00441,903.61453 C -136.54133,886.87913 -136.02902,874.24214 -136.02902,855.11597 C -136.02902,844.52827 -137.22442,837.35593 -142.68904,831.89131 C -146.95827,827.62207 -152.76445,825.06052 -163.01062,825.06052 C -177.01371,825.06052 -184.5276,825.06052 -197.3353,822.49898 M -225.09077,882.95141 C -225.94462,890.63603 -227.65232,897.29606 -232.60463,902.24837 C -236.7031,906.34684 -241.99697,907.88377 -249.85236,907.88377 L -284.86012,907.88377 C -287.08013,900.36991 -289.4709,885.68371 -291.34937,871.50985 C -284.68936,870.31446 -279.05395,870.31446 -271.88164,870.31446 C -266.07548,870.31446 -263.00162,868.9483 -260.61084,866.55753 C -257.70776,863.48368 -256.68314,859.89751 -256.51237,853.92058 C -255.65853,844.69903 -253.95083,835.98977 -252.58467,830.52515 L -259.92777,822.49898 C -259.24469,829.84206 -259.24469,841.11288 -259.757,854.09135 C -259.92777,858.36059 -260.95239,861.77599 -263.6847,864.5083 C -265.9047,866.7283 -268.80779,867.58215 -273.07702,867.58215 C -279.56626,867.58215 -284.34782,867.58215 -289.4709,866.21599 L -291.52014,870.14369 C -292.88629,859.72676 -294.08168,849.82211 -294.76476,843.33287 L -297.15553,822.49898 L -306.8894,828.64669 C -299.20478,829.84207 -297.83861,839.2344 -297.3263,843.84518 C -294.76476,868.43597 -291.86168,895.92992 -292.20322,913.00686 C -281.27397,909.93301 -263.85545,910.44531 -249.85236,910.44531 C -239.43543,910.44531 -233.80002,907.88376 -229.53078,903.61453 C -224.06616,898.14991 -222.52923,891.31911 -221.33384,880.73141 C -219.45538,863.996 -216.89383,841.45439 -213.81998,831.03746 L -220.65076,822.49898 C -220.13846,835.13592 -222.87077,859.38523 -225.09077,882.95141 M -396.1218,822.49898 L -388.43717,830.18361 C -379.04485,827.62207 -373.58021,827.62207 -361.79712,827.62207 C -353.94172,827.62207 -348.64785,829.159 -344.54939,833.25746 C -339.59708,838.20978 -338.40168,844.69903 -338.40168,852.38366 C -338.40168,875.26676 -338.06015,888.07452 -339.59707,907.88377 C -355.13709,907.88377 -377.84947,907.02992 -390.99871,904.46838 L -398.68334,912.15301 C -384.33871,910.44531 -360.94325,910.61608 -338.23091,910.44531 C -332.42475,910.44531 -331.5709,910.44531 -325.59397,910.44531 L -320.47088,905.32223 C -325.25242,907.37146 -333.44937,907.88377 -338.06015,907.88377 L -333.79091,903.61453 C -335.32783,886.87913 -334.81552,874.24214 -334.81552,855.11597 C -334.81552,844.52827 -336.01092,837.35593 -341.47554,831.89131 C -345.74477,827.62207 -351.55095,825.06052 -361.79712,825.06052 C -375.80021,825.06052 -383.3141,825.06052 -396.1218,822.49898 M -422.7272,845.3821 C -422.7272,853.7498 -424.09335,861.09291 -425.28874,870.31446 L -417.60411,862.62983 C -419.65334,856.6529 -420.16565,850.67595 -420.33642,844.52826 C -420.33642,837.18517 -419.99488,829.32976 -418.97027,822.49898 L -429.89952,828.13438 C -422.38566,829.84207 -422.7272,840.77133 -422.7272,845.3821 M -475.85254,825.06052 C -489.85563,825.06052 -499.24798,825.06052 -511.37261,824.03591 C -512.39722,820.27898 -512.568,815.49742 -512.568,811.39896 C -512.39723,806.78818 -513.0803,798.59124 -505.90798,796.71277 L -517.17877,791.58969 C -513.93416,803.88508 -514.27569,816.18052 -516.4957,830.18361 C -507.10338,827.62207 -487.63563,827.62207 -475.85254,827.62207 C -466.80176,827.62207 -460.82481,829.67131 -456.72634,835.47747 C -449.55403,844.69902 -454.50634,855.79905 -458.43404,862.62983 C -470.04636,882.43908 -478.9264,896.61299 -490.88026,913.8607 L -480.29255,911.12839 C -473.291,895.75914 -465.94789,883.4637 -456.72634,866.7283 C -448.52941,852.04213 -446.82172,842.13747 -453.99403,833.599 C -457.92173,828.64669 -463.72791,825.06052 -475.85254,825.06052 M -629.86809,825.06052 C -643.87118,825.06052 -667.77895,825.06052 -680.58665,822.49898 L -672.90202,830.18361 C -670.16971,829.50053 -665.90046,828.81745 -661.802,828.47592 L -665.90047,834.11131 C -663.68047,844.35748 -662.99739,856.1406 -662.99739,867.75292 C -662.99739,877.82831 -663.50969,887.90374 -664.022,896.61298 C -664.19277,900.02836 -664.53431,903.27299 -664.70508,906.17607 C -671.02355,906.17607 -675.97588,905.32222 -680.92819,904.46838 L -688.61282,912.15301 C -681.44051,911.12839 -674.78048,910.78685 -664.19277,910.44531 L -659.06969,905.32223 C -659.41122,902.07761 -659.75276,897.97913 -659.92353,893.19759 C -660.26507,886.19604 -660.60661,877.82831 -660.60661,869.46061 C -660.60661,854.94521 -660.60661,837.69746 -660.0943,828.30515 C -650.36045,828.30515 -637.72348,827.62207 -629.86809,827.62207 C -622.01269,827.62207 -616.71883,829.159 -612.62036,833.25746 C -607.66805,838.20978 -606.47266,844.69903 -606.47266,852.38366 C -606.47266,875.94983 -607.15574,892.17299 -608.86343,913.00686 L -601.1788,905.32223 C -602.71572,888.58682 -602.88649,874.24214 -602.88649,855.11597 C -602.88649,844.52827 -604.08189,837.35593 -609.54651,831.89131 C -613.81574,827.62207 -619.62192,825.06052 -629.86809,825.06052 M -735.63043,910.44531 C -724.18888,910.44531 -715.13807,907.88376 -707.96576,900.71145 C -699.9396,892.85605 -697.71958,881.07293 -697.71958,867.75292 C -697.71958,854.4329 -699.9396,842.64978 -707.96576,834.79439 C -715.13807,827.62207 -724.18888,825.06052 -735.63043,825.06052 C -742.80274,825.06052 -754.24432,824.71898 -765.34434,822.49898 L -757.6597,830.18361 C -749.292,828.13438 -739.38736,827.62207 -735.63043,827.62207 C -724.35965,827.62207 -717.69962,830.52516 -711.38115,836.67286 C -705.40422,842.64978 -702.84267,855.11598 -702.84267,867.75292 C -702.84267,880.38985 -704.72114,892.17297 -711.38115,898.83298 C -717.69962,904.98068 -724.35965,907.88377 -735.63043,907.88377 C -739.04582,907.88377 -748.43816,907.88377 -757.6597,904.46838 L -765.34434,912.15301 C -752.53663,910.44531 -742.80274,910.44531 -735.63043,910.44531 M -808.05273,825.06052 C -822.05582,825.06052 -831.44818,825.06052 -843.5728,824.03591 C -844.59742,820.27898 -844.76819,815.49742 -844.76819,811.39896 C -844.59742,806.78818 -845.28049,798.59124 -838.10818,796.71277 L -849.37897,791.58969 C -846.13435,803.88508 -846.47589,816.18052 -848.69589,830.18361 C -839.30357,827.62207 -819.83582,827.62207 -808.05273,827.62207 C -799.00195,827.62207 -793.025,829.67131 -788.92654,835.47747 C -781.75422,844.69902 -786.70654,855.79905 -790.63423,862.62983 C -802.24655,882.43908 -811.1266,896.61299 -823.08045,913.8607 L -812.49274,911.12839 C -805.4912,895.75914 -798.14809,883.4637 -788.92654,866.7283 C -780.72961,852.04213 -779.02191,842.13747 -786.19423,833.599 C -790.12192,828.64669 -795.9281,825.06052 -808.05273,825.06052 M -895.36134,825.06052 C -909.36443,825.06052 -933.2722,825.06052 -946.07991,822.49898 L -938.39528,830.18361 C -935.66297,829.50053 -931.39372,828.81745 -927.29525,828.47592 L -931.39372,834.11131 C -929.17372,844.35748 -928.49064,856.1406 -928.49064,867.75292 C -928.49064,877.82831 -929.00295,887.90374 -929.51526,896.61298 C -929.68603,900.02836 -930.02757,903.27299 -930.19834,906.17607 C -936.5168,906.17607 -941.46913,905.32222 -946.42145,904.46838 L -954.10608,912.15301 C -946.93376,911.12839 -940.27373,910.78685 -929.68603,910.44531 L -924.56294,905.32223 C -924.90448,902.07761 -925.24602,897.97913 -925.41679,893.19759 C -925.75833,886.19604 -926.09987,877.82831 -926.09987,869.46061 C -926.09987,854.94521 -926.09987,837.69746 -925.58756,828.30515 C -915.8537,828.30515 -903.21674,827.62207 -895.36134,827.62207 C -887.50595,827.62207 -882.21208,829.159 -878.11362,833.25746 C -873.1613,838.20978 -871.96591,844.69903 -871.96591,852.38366 C -871.96591,875.94983 -872.64899,892.17299 -874.35669,913.00686 L -866.67205,905.32223 C -868.20898,888.58682 -868.37975,874.24214 -868.37975,855.11597 C -868.37975,844.52827 -869.57514,837.35593 -875.03976,831.89131 C -879.309,827.62207 -885.11518,825.06052 -895.36134,825.06052 M -1099.7592,913.00686 L -1092.0746,905.32223 C -1094.4654,891.66067 -1094.9777,874.24215 -1091.733,858.36059 L -1098.9054,865.53291 C -1095.6607,881.75601 -1097.71,898.66223 -1099.7592,913.00686 M -1102.6623,822.49898 L -1094.9777,830.18361 C -1085.5853,827.62207 -1071.4115,827.62207 -1059.6284,827.62207 C -1051.773,827.62207 -1046.4791,829.159 -1042.3806,833.25746 C -1037.4283,838.20978 -1036.2329,844.69903 -1036.2329,852.38366 C -1036.2329,875.94983 -1036.916,892.17299 -1038.6237,913.00686 L -1030.9391,905.32223 C -1032.476,888.58682 -1032.6468,874.24214 -1032.6468,855.11597 C -1032.6468,844.52827 -1033.8422,837.35593 -1039.3068,831.89131 C -1043.576,827.62207 -1049.3822,825.06052 -1059.6284,825.06052 C -1073.6315,825.06052 -1089.8546,825.06052 -1102.6623,822.49898 M -1125.5054,867.75292 C -1126.0177,854.4329 -1126.53,842.64978 -1134.5562,834.79439 C -1141.7285,827.62207 -1150.7793,825.06052 -1162.2209,825.06052 C -1169.3932,825.06052 -1180.8347,824.71898 -1191.9348,822.49898 L -1184.2501,830.18361 C -1175.8824,828.13438 -1165.9778,827.62207 -1162.2209,827.62207 C -1150.9501,827.62207 -1144.29,830.52516 -1137.9716,836.67286 C -1131.9946,842.64978 -1129.2623,855.11598 -1129.4331,867.75292 C -1129.6039,884.14678 -1129.9454,900.19915 -1131.3116,913.00686 L -1123.6269,905.32223 C -1124.4808,894.39298 -1125.1639,882.78063 -1125.5054,867.75292 M -1280.6549,822.49898 L -1272.9703,830.18361 C -1263.5779,827.62207 -1246.501,827.62207 -1234.7179,827.62207 C -1225.8379,827.62207 -1219.8609,829.67131 -1215.5917,835.47747 C -1208.4194,844.69902 -1213.5425,855.96982 -1215.4209,859.89752 C -1225.4963,881.24369 -1233.3517,895.07607 -1244.9641,913.00686 L -1234.7179,909.24993 C -1228.9117,894.05145 -1222.2517,880.90216 -1213.3717,863.99599 C -1207.9071,853.40828 -1205.6871,842.13747 -1212.8594,833.599 C -1216.7871,828.64669 -1222.5933,825.06052 -1234.7179,825.06052 C -1248.721,825.06052 -1267.8472,825.06052 -1280.6549,822.49898 M -1266.3103,883.12218 C -1266.481,875.7791 -1266.481,865.87445 -1266.481,859.38521 L -1273.9949,863.31291 C -1270.0672,867.41137 -1268.8718,875.7791 -1268.8718,883.29295 C -1269.2133,909.42067 -1269.5549,932.81614 -1271.6041,946.81923 L -1263.7487,939.1346 C -1266.481,925.47305 -1266.3103,898.6622 -1266.3103,883.12218 M -1307.2602,845.3821 C -1307.2602,853.7498 -1308.6264,861.09291 -1309.8218,870.31446 L -1302.1372,862.62983 C -1304.1864,856.6529 -1304.6987,850.67595 -1304.8695,844.52826 C -1304.8695,837.18517 -1304.5279,829.32976 -1303.5033,822.49898 L -1314.4326,828.13438 C -1306.9187,829.84207 -1307.2602,840.77133 -1307.2602,845.3821 M -1340.4723,822.49898 C -1342.5215,843.33285 -1345.4246,863.65447 -1349.5231,886.87911 C -1350.8892,894.56373 -1353.28,900.54068 -1358.9154,904.63915 C -1362.16,906.85915 -1365.5754,907.88377 -1370.0154,907.88377 C -1373.26,907.88377 -1378.0416,907.88377 -1382.9939,907.54223 L -1380.0908,902.24837 C -1385.0431,889.61144 -1387.9462,879.36524 -1391.7031,866.04522 C -1395.9724,849.30982 -1399.9001,833.08668 -1401.6078,822.49898 L -1407.4139,832.06208 C -1399.7293,850.16363 -1395.4601,864.16678 -1389.1416,886.53757 C -1387.2631,893.02681 -1385.897,899.51607 -1384.5308,907.37146 C -1388.8001,907.02992 -1394.777,906.51761 -1398.3632,905.32223 L -1406.0478,913.00686 C -1393.9232,910.44532 -1378.5539,910.44531 -1369.5031,910.44531 C -1363.8677,910.44531 -1359.7692,908.90838 -1356.1831,906.51761 C -1349.8646,902.07761 -1347.4738,895.24681 -1345.5954,884.82988 C -1342.18,866.04524 -1338.7646,847.60209 -1334.3246,831.379 L -1340.4723,822.49898 M -1433.1735,899.8576 C -1429.5873,899.8576 -1426.855,902.58992 -1426.855,906.0053 C -1426.855,907.20069 -1427.1965,908.39608 -1427.8796,909.4207 C -1428.9042,911.6407 -1429.9288,914.20225 -1430.9535,916.93456 C -1432.6612,921.20379 -1433.515,925.64381 -1433.3442,930.59612 L -1442.5658,933.32844 C -1438.8089,927.35151 -1435.735,922.56995 -1433.515,916.76379 C -1433.1735,915.5684 -1432.4904,913.8607 -1432.1488,911.98224 C -1432.4904,912.15301 -1432.8319,912.15301 -1433.1735,912.15301 C -1436.5889,912.15301 -1439.4919,909.42069 -1439.4919,906.0053 C -1439.4919,902.58992 -1436.5889,899.8576 -1433.1735,899.8576 M -197.33531,993.26856 L -189.65068,1000.9532 C -180.25836,998.39165 -174.79371,998.39164 -163.01062,998.39164 C -155.15523,998.39164 -149.86136,999.92857 -145.7629,1004.027 C -140.81058,1008.9794 -139.61519,1015.4686 -139.61519,1023.1532 C -139.61519,1046.0363 -139.27365,1058.8441 -140.81058,1078.6533 C -156.35059,1078.6533 -179.06298,1077.7995 -192.21222,1075.238 L -199.89685,1082.9226 C -185.55222,1081.2149 -162.15675,1081.3857 -139.44442,1081.2149 C -133.63826,1081.2149 -132.7844,1081.2149 -126.80747,1081.2149 L -121.68438,1076.0918 C -126.46593,1078.141 -134.66288,1078.6533 -139.27365,1078.6533 L -135.00441,1074.3841 C -136.54134,1057.6487 -136.02903,1045.0117 -136.02903,1025.8855 C -136.02903,1015.2978 -137.22442,1008.1255 -142.68904,1002.6609 C -146.95828,998.39165 -152.76446,995.8301 -163.01062,995.8301 C -177.01371,995.8301 -184.5276,995.8301 -197.33531,993.26856 M -223.94082,1016.1517 C -223.94082,1024.5194 -225.30698,1031.8625 -226.50237,1041.084 L -218.81774,1033.3994 C -220.86697,1027.4225 -221.37928,1021.4455 -221.55005,1015.2978 C -221.55005,1007.9547 -221.20851,1000.0993 -220.18389,993.26856 L -231.11315,998.90395 C -223.59929,1000.6116 -223.94082,1011.5409 -223.94082,1016.1517 M -258.36945,1014.2732 C -258.54022,1006.9301 -258.54022,999.75779 -258.54022,993.26856 L -268.78639,998.39164 C -261.27254,1000.2701 -260.93099,1009.8332 -260.93099,1014.444 C -261.27253,1040.7425 -261.61407,1101.0242 -263.6633,1115.0273 L -255.8079,1107.3426 C -258.54021,1093.6811 -258.36945,1029.8132 -258.36945,1014.2732 M -408.7882,1082.9226 C -395.46818,1081.2149 -376.51273,1081.3857 -358.41117,1081.2149 L -353.28808,1076.0918 C -354.82501,1065.1626 -356.19117,1050.9887 -357.55732,1035.961 C -358.75271,1022.8117 -360.11887,1011.0286 -368.14504,1002.6609 C -375.65889,995.14703 -388.12509,992.24394 -399.05433,996.17164 C -409.30049,999.92857 -414.59436,1008.9794 -417.32668,1020.5917 C -418.52206,1010.004 -419.71745,999.07472 -420.05899,993.26856 L -426.54823,1001.807 C -422.96207,1005.3932 -420.91283,1015.6394 -419.37591,1026.9102 C -422.62053,1049.281 -427.06054,1074.5549 -429.62208,1083.7764 L -420.91284,1077.2872 C -421.42514,1068.2364 -419.37591,1048.4271 -416.47283,1028.7886 C -414.42359,1014.2732 -407.76357,1002.8317 -397.68817,999.92857 C -387.78355,997.02549 -376.34197,999.2455 -369.85273,1005.564 C -363.53426,1011.7117 -361.31425,1021.9579 -360.63118,1037.6686 C -359.9481,1051.8425 -359.9481,1066.6995 -360.11887,1078.6533 C -373.09734,1078.4826 -390.51586,1077.7995 -401.10357,1075.238 L -408.7882,1082.9226 M -519.19603,993.26856 L -511.51139,1000.9532 C -502.11908,998.39165 -485.0421,998.39164 -473.25901,998.39164 C -464.379,998.39164 -458.40205,1000.4409 -454.13282,1006.247 C -446.9605,1015.4686 -452.08358,1026.7394 -453.96205,1030.6671 C -464.03744,1052.0133 -471.89286,1065.8456 -483.50518,1083.7764 L -473.25901,1080.0195 C -467.45285,1064.821 -460.79282,1051.6717 -451.91281,1034.7656 C -446.44819,1024.1779 -444.22819,1012.9071 -451.4005,1004.3686 C -455.3282,999.41627 -461.13438,995.8301 -473.25901,995.8301 C -487.2621,995.8301 -506.38832,995.8301 -519.19603,993.26856 M -504.85138,1053.8918 C -505.02215,1046.5487 -505.02215,1036.644 -505.02215,1030.1548 L -512.53601,1034.0825 C -508.60832,1038.181 -507.41292,1046.5487 -507.41292,1054.0625 C -507.75446,1080.1902 -508.096,1103.5857 -510.14524,1117.5888 L -502.28984,1109.9042 C -505.02215,1096.2426 -504.85138,1069.4318 -504.85138,1053.8918 M -604.46076,1083.7764 L -596.77612,1076.0918 C -599.1669,1062.4302 -599.6792,1045.0117 -596.43459,1029.1302 L -603.60691,1036.3025 C -600.36229,1052.5256 -602.41152,1069.4318 -604.46076,1083.7764 M -607.36384,993.26856 L -599.67921,1000.9532 C -590.28689,998.39165 -576.11299,998.39164 -564.3299,998.39164 C -556.47451,998.39164 -551.18064,999.92857 -547.08218,1004.027 C -542.12986,1008.9794 -540.93447,1015.4686 -540.93447,1023.1532 C -540.93447,1046.7194 -541.61755,1062.9426 -543.32525,1083.7764 L -535.64062,1076.0918 C -537.17754,1059.3564 -537.34831,1045.0117 -537.34831,1025.8855 C -537.34831,1015.2978 -538.5437,1008.1255 -544.00833,1002.6609 C -548.27756,998.39165 -554.08374,995.8301 -564.3299,995.8301 C -578.333,995.8301 -594.55613,995.8301 -607.36384,993.26856 M -652.2923,995.8301 C -666.29539,995.8301 -675.68774,995.8301 -687.81237,994.80548 C -688.83699,991.04856 -689.00776,986.267 -689.00776,982.16853 C -688.83699,977.55776 -689.52006,969.36081 -682.34775,967.48235 L -693.61854,962.35926 C -690.37392,974.65466 -690.71546,986.9501 -692.93546,1000.9532 C -683.54314,998.39165 -664.07539,998.39164 -652.2923,998.39164 C -643.24152,998.39164 -637.26457,1000.4409 -633.16611,1006.247 C -625.99379,1015.4686 -630.94611,1026.5686 -634.8738,1033.3994 C -646.48612,1053.2087 -655.36616,1067.3826 -667.32002,1084.6303 L -656.73231,1081.898 C -649.73076,1066.5287 -642.38766,1054.2333 -633.16611,1037.4979 C -624.96918,1022.8117 -623.26148,1012.9071 -630.43379,1004.3686 C -634.36149,999.41627 -640.16767,995.8301 -652.2923,995.8301 M -721.90211,1014.2732 C -722.07288,1006.9301 -722.07288,999.75779 -722.07288,993.26856 L -732.31906,998.39164 C -724.80521,1000.2701 -724.46366,1009.8332 -724.46366,1014.444 C -724.8052,1040.7425 -725.14674,1069.7733 -727.19597,1083.7764 L -719.34057,1076.0918 C -722.07288,1062.4302 -721.90211,1029.8132 -721.90211,1014.2732 M -784.96154,995.8301 C -798.96463,995.8301 -822.8724,995.8301 -835.6801,993.26856 L -827.99547,1000.9532 C -825.26316,1000.2701 -820.99391,999.58703 -816.89545,999.24549 L -820.99392,1004.8809 C -818.77392,1015.1271 -818.09084,1026.9102 -818.09084,1038.5225 C -818.09084,1048.5979 -818.60314,1058.6733 -819.11545,1067.3826 C -819.28622,1070.7979 -819.62776,1074.0426 -819.79853,1076.9457 C -826.117,1076.9457 -831.06933,1076.0918 -836.02164,1075.238 L -843.70627,1082.9226 C -836.53396,1081.898 -829.87393,1081.5564 -819.28622,1081.2149 L -814.16314,1076.0918 C -814.50467,1072.8472 -814.84621,1068.7487 -815.01698,1063.9672 C -815.35852,1056.9656 -815.70006,1048.5979 -815.70006,1040.2302 C -815.70006,1025.7148 -815.70006,1008.467 -815.18775,999.07472 C -805.4539,999.07472 -792.81693,998.39164 -784.96154,998.39164 C -777.10614,998.39164 -771.81228,999.92857 -767.71381,1004.027 C -762.7615,1008.9794 -761.56611,1015.4686 -761.56611,1023.1532 C -761.56611,1046.7194 -762.24919,1062.9426 -763.95688,1083.7764 L -756.27225,1076.0918 C -757.80917,1059.3564 -757.97994,1045.0117 -757.97994,1025.8855 C -757.97994,1015.2978 -759.17534,1008.1255 -764.63996,1002.6609 C -768.90919,998.39165 -774.71537,995.8301 -784.96154,995.8301 M -957.43079,1081.2149 C -945.98924,1081.2149 -936.93843,1078.6533 -929.76612,1071.481 C -921.73995,1063.6256 -919.51994,1051.8425 -919.51994,1038.5225 C -919.51994,1025.2025 -921.73995,1013.4194 -929.76612,1005.564 C -936.93843,998.39165 -945.98924,995.8301 -957.43079,995.8301 C -964.6031,995.8301 -976.04468,995.48856 -987.14469,993.26856 L -979.46006,1000.9532 C -971.09236,998.90396 -961.18772,998.39164 -957.43079,998.39164 C -946.16001,998.39164 -939.49998,1001.2947 -933.18151,1007.4424 C -927.20458,1013.4194 -924.64303,1025.8856 -924.64303,1038.5225 C -924.64303,1051.1594 -926.5215,1062.9426 -933.18151,1069.6026 C -939.49998,1075.7503 -946.16001,1078.6533 -957.43079,1078.6533 C -960.84618,1078.6533 -970.23852,1078.6533 -979.46006,1075.238 L -987.14469,1082.9226 C -974.33699,1081.2149 -964.6031,1081.2149 -957.43079,1081.2149 M -1014.7453,1014.2732 C -1014.9161,1006.9301 -1014.9161,999.75779 -1014.9161,993.26856 L -1025.1623,998.39164 C -1017.6484,1000.2701 -1017.3069,1009.8332 -1017.3069,1014.444 C -1017.6484,1040.7425 -1017.9899,1069.7733 -1020.0392,1083.7764 L -1012.1838,1076.0918 C -1014.9161,1062.4302 -1014.7453,1029.8132 -1014.7453,1014.2732 M -1085.8415,1081.2149 C -1074.3999,1081.2149 -1065.3491,1078.6533 -1058.1768,1071.481 C -1050.1507,1063.6256 -1047.9306,1051.8425 -1047.9306,1038.5225 C -1047.9306,1025.2025 -1050.1507,1013.4194 -1058.1768,1005.564 C -1065.3491,998.39165 -1074.3999,995.8301 -1085.8415,995.8301 C -1093.0138,995.8301 -1104.4554,995.48856 -1115.5554,993.26856 L -1107.8708,1000.9532 C -1099.5031,998.90396 -1089.5984,998.39164 -1085.8415,998.39164 C -1074.5707,998.39164 -1067.9107,1001.2947 -1061.5922,1007.4424 C -1055.6153,1013.4194 -1053.0537,1025.8856 -1053.0537,1038.5225 C -1053.0537,1051.1594 -1054.9322,1062.9426 -1061.5922,1069.6026 C -1067.9107,1075.7503 -1074.5707,1078.6533 -1085.8415,1078.6533 C -1089.2569,1078.6533 -1098.6492,1078.6533 -1107.8708,1075.238 L -1115.5554,1082.9226 C -1102.7477,1081.2149 -1093.0138,1081.2149 -1085.8415,1081.2149 M -1204.2756,993.26856 L -1196.5909,1000.9532 C -1187.1986,998.39165 -1181.734,998.39164 -1169.9509,998.39164 C -1162.0955,998.39164 -1156.8016,999.92857 -1152.7031,1004.027 C -1147.7508,1008.9794 -1146.5554,1015.4686 -1146.5554,1023.1532 C -1146.5554,1046.0363 -1146.2139,1058.8441 -1147.7508,1078.6533 C -1163.2908,1078.6533 -1186.0032,1077.7995 -1199.1525,1075.238 L -1206.8371,1082.9226 C -1192.4925,1081.2149 -1169.097,1081.3857 -1146.3847,1081.2149 C -1140.5785,1081.2149 -1139.7246,1081.2149 -1133.7477,1081.2149 L -1128.6246,1076.0918 C -1133.4062,1078.141 -1141.6031,1078.6533 -1146.2139,1078.6533 L -1141.9447,1074.3841 C -1143.4816,1057.6487 -1142.9693,1045.0117 -1142.9693,1025.8855 C -1142.9693,1015.2978 -1144.1647,1008.1255 -1149.6293,1002.6609 C -1153.8985,998.39165 -1159.7047,995.8301 -1169.9509,995.8301 C -1183.954,995.8301 -1191.4678,995.8301 -1204.2756,993.26856 M -1230.8809,1016.1517 C -1230.8809,1024.5194 -1232.2471,1031.8625 -1233.4425,1041.084 L -1225.7578,1033.3994 C -1227.8071,1027.4225 -1228.3194,1021.4455 -1228.4901,1015.2978 C -1228.4901,1007.9547 -1228.1486,1000.0993 -1227.124,993.26856 L -1238.0532,998.90395 C -1230.5394,1000.6116 -1230.8809,1011.5409 -1230.8809,1016.1517 M -1335.7601,1053.721 C -1336.6139,1061.4056 -1338.3216,1068.0656 -1343.274,1073.0179 C -1347.3724,1077.1164 -1352.6663,1078.6533 -1360.5217,1078.6533 L -1395.5294,1078.6533 C -1397.7494,1071.1395 -1400.1402,1056.4533 -1402.0187,1042.2794 C -1395.3587,1041.084 -1389.7233,1041.084 -1382.551,1041.084 C -1376.7448,1041.084 -1373.6709,1039.7179 -1371.2802,1037.3271 C -1368.3771,1034.2533 -1367.3525,1030.6671 -1367.1817,1024.6902 C -1366.3278,1015.4686 -1364.6201,1006.7593 -1363.254,1001.2947 L -1370.5971,993.26856 C -1369.914,1000.6116 -1369.914,1011.8825 -1370.4263,1024.8609 C -1370.5971,1029.1302 -1371.6217,1032.5456 -1374.354,1035.2779 C -1376.574,1037.4979 -1379.4771,1038.3517 -1383.7463,1038.3517 C -1390.2356,1038.3517 -1395.0171,1038.3517 -1400.1402,1036.9856 L -1402.1895,1040.9133 C -1403.5556,1030.4963 -1404.751,1020.5917 -1405.4341,1014.1024 L -1407.8249,993.26856 L -1417.5587,999.41626 C -1409.8741,1000.6116 -1408.5079,1010.004 -1407.9956,1014.6148 C -1405.4341,1039.2055 -1402.531,1066.6995 -1402.8725,1083.7764 C -1391.9433,1080.7026 -1374.5248,1081.2149 -1360.5217,1081.2149 C -1350.1047,1081.2149 -1344.4693,1078.6533 -1340.2001,1074.3841 C -1334.7355,1068.9195 -1333.1985,1062.0887 -1332.0032,1051.501 C -1330.1247,1034.7656 -1327.5631,1012.224 -1324.4893,1001.807 L -1331.3201,993.26856 C -1330.8078,1005.9055 -1333.5401,1030.1548 -1335.7601,1053.721 M -1506.7912,993.26856 L -1499.1065,1000.9532 C -1489.7142,998.39165 -1484.2496,998.39164 -1472.4665,998.39164 C -1464.6111,998.39164 -1459.3172,999.92857 -1455.2188,1004.027 C -1450.2664,1008.9794 -1449.071,1015.4686 -1449.071,1023.1532 C -1449.071,1046.0363 -1448.7295,1058.8441 -1450.2664,1078.6533 C -1465.8064,1078.6533 -1488.5188,1077.7995 -1501.6681,1075.238 L -1509.3527,1082.9226 C -1495.0081,1081.2149 -1471.6126,1081.3857 -1448.9003,1081.2149 C -1443.0941,1081.2149 -1442.2403,1081.2149 -1436.2633,1081.2149 L -1431.1402,1076.0918 C -1435.9218,1078.141 -1444.1187,1078.6533 -1448.7295,1078.6533 L -1444.4603,1074.3841 C -1445.9972,1057.6487 -1445.4849,1045.0117 -1445.4849,1025.8855 C -1445.4849,1015.2978 -1446.6803,1008.1255 -1452.1449,1002.6609 C -1456.4141,998.39165 -1462.2203,995.8301 -1472.4665,995.8301 C -1486.4696,995.8301 -1493.9835,995.8301 -1506.7912,993.26856 M -1534.3918,1014.2732 C -1534.5626,1006.9301 -1534.5626,999.75779 -1534.5626,993.26856 L -1544.8087,998.39164 C -1537.2949,1000.2701 -1536.9533,1009.8332 -1536.9533,1014.444 C -1537.2949,1040.7425 -1537.6364,1069.7733 -1539.6857,1083.7764 L -1531.8303,1076.0918 C -1534.5626,1062.4302 -1534.3918,1029.8132 -1534.3918,1014.2732 M -1678.9509,1037.8394 C -1668.1924,1037.8394 -1651.7985,1037.8394 -1635.2339,1039.8887 L -1642.0647,1033.0579 C -1654.5308,1035.2779 -1669.5586,1035.2779 -1675.0232,1035.2779 C -1685.7817,1035.2779 -1702.3464,1035.1071 -1718.911,1033.0579 L -1712.0802,1039.8887 C -1699.614,1037.8394 -1684.4155,1037.8394 -1678.9509,1037.8394 M -178.26524,1170.3566 C -180.65601,1171.8935 -182.53448,1174.4551 -184.24218,1178.3828 C -186.97449,1184.3597 -188.16988,1197.1674 -188.16988,1209.9752 C -188.16988,1222.7829 -186.46217,1234.7367 -180.48524,1241.3968 C -174.67908,1247.886 -168.70213,1250.7891 -158.2852,1250.7891 C -148.03904,1250.7891 -142.06208,1247.886 -136.25592,1241.3968 C -130.27899,1234.7367 -128.57129,1222.7829 -128.57129,1209.9752 C -128.57129,1197.1674 -130.96207,1184.3597 -136.25592,1178.3828 C -142.06208,1172.0643 -148.03904,1169.1612 -158.45597,1169.1612 C -161.01751,1169.1612 -170.06831,1169.332 -178.26524,1170.3566 M -182.53448,1171.0397 C -183.72987,1171.2105 -184.92525,1171.552 -185.94987,1171.7228 L -193.6345,1164.0381 C -182.02218,1166.2581 -165.11598,1166.5997 -158.2852,1166.5997 C -147.6975,1166.5997 -139.50054,1169.1612 -132.84053,1176.5043 C -125.49745,1184.5305 -123.27744,1196.3136 -123.27744,1209.9752 C -123.27744,1223.4659 -125.49745,1235.4198 -132.84053,1243.446 C -139.50054,1250.6183 -147.6975,1253.1799 -158.2852,1253.1799 C -168.8729,1253.1799 -177.24063,1250.6183 -183.90064,1243.446 C -191.24372,1235.4198 -193.29296,1223.4659 -193.29296,1209.9752 C -193.29296,1196.3136 -190.90218,1184.3597 -186.46218,1176.6751 C -185.09602,1174.1135 -183.72987,1172.4058 -182.53448,1171.0397 M -280.26539,1254.546 L -272.58076,1246.8614 C -274.97153,1233.1998 -275.48384,1215.7813 -272.23922,1199.8997 L -279.41154,1207.0721 C -276.16692,1223.2952 -278.21616,1240.2014 -280.26539,1254.546 M -283.16847,1164.0381 L -275.48384,1171.7228 C -266.09152,1169.1612 -251.91763,1169.1612 -240.13454,1169.1612 C -232.27915,1169.1612 -226.98528,1170.6982 -222.88681,1174.7966 C -217.9345,1179.7489 -216.73911,1186.2382 -216.73911,1193.9228 C -216.73911,1217.489 -217.42219,1233.7121 -219.12988,1254.546 L -211.44525,1246.8614 C -212.98217,1230.126 -213.15294,1215.7813 -213.15294,1196.6551 C -213.15294,1186.0674 -214.34834,1178.8951 -219.81296,1173.4305 C -224.08219,1169.1612 -229.88837,1166.5997 -240.13454,1166.5997 C -254.13763,1166.5997 -270.36077,1166.5997 -283.16847,1164.0381 M -306.0116,1209.2921 C -306.52391,1195.9721 -307.03623,1184.1889 -315.06239,1176.3335 C -322.2347,1169.1612 -331.28551,1166.5997 -342.72706,1166.5997 C -349.89937,1166.5997 -361.34095,1166.2581 -372.44097,1164.0381 L -364.75634,1171.7228 C -356.38863,1169.6735 -346.48399,1169.1612 -342.72706,1169.1612 C -331.45628,1169.1612 -324.79625,1172.0643 -318.47778,1178.212 C -312.50085,1184.1889 -309.76853,1196.6551 -309.9393,1209.2921 C -310.11007,1225.6859 -310.45161,1241.7383 -311.81777,1254.546 L -304.13314,1246.8614 C -304.98698,1235.9321 -305.67006,1224.3198 -306.0116,1209.2921 M -508.51489,1253.6922 C -495.19487,1251.9845 -476.23942,1252.1552 -458.13786,1251.9845 L -453.01478,1246.8614 C -454.5517,1235.9321 -455.91786,1221.7582 -457.28401,1206.7305 C -458.4794,1193.5813 -459.84557,1181.7982 -467.87173,1173.4305 C -475.38558,1165.9166 -487.85178,1163.0135 -498.78102,1166.9412 C -509.02719,1170.6981 -514.32106,1179.7489 -517.05337,1191.3613 C -518.24875,1180.7736 -519.44414,1169.8443 -519.78568,1164.0381 L -526.27492,1172.5766 C -522.68877,1176.1628 -520.63953,1186.409 -519.1026,1197.6797 C -522.34722,1220.0505 -526.78723,1245.3245 -529.34878,1254.546 L -520.63953,1248.0568 C -521.15184,1239.006 -519.1026,1219.1967 -516.19952,1199.5582 C -514.15029,1185.0428 -507.49026,1173.6012 -497.41487,1170.6981 C -487.51024,1167.7951 -476.06866,1170.0151 -469.57942,1176.3335 C -463.26096,1182.4812 -461.04094,1192.7274 -460.35787,1208.4382 C -459.67479,1222.6121 -459.67479,1237.4691 -459.84556,1249.4229 C -472.82403,1249.2522 -490.24255,1248.5691 -500.83026,1246.0075 L -508.51489,1253.6922 M -572.91102,1166.5997 C -586.91411,1166.5997 -596.30646,1166.5997 -608.43109,1165.5751 C -609.45571,1161.8181 -609.62648,1157.0366 -609.62648,1152.9381 C -609.45571,1148.3273 -610.13878,1140.1304 -602.96647,1138.2519 L -614.23726,1133.1288 C -610.99264,1145.4242 -611.33418,1157.7197 -613.55418,1171.7228 C -604.16186,1169.1612 -584.69411,1169.1612 -572.91102,1169.1612 C -563.86024,1169.1612 -557.88329,1171.2105 -553.78483,1177.0166 C -546.61251,1186.2382 -551.56483,1197.3382 -555.49252,1204.169 C -567.10484,1223.9782 -575.98488,1238.1521 -587.93874,1255.3999 L -577.35103,1252.6675 C -570.34948,1237.2983 -563.00638,1225.0029 -553.78483,1208.2675 C -545.5879,1193.5813 -543.8802,1183.6766 -551.05251,1175.1382 C -554.98021,1170.1858 -560.78639,1166.5997 -572.91102,1166.5997 M -666.23397,1213.3905 L -678.18784,1199.0459 C -682.11554,1200.0705 -685.36017,1201.6074 -689.11709,1204.5105 C -693.72787,1208.0967 -695.94788,1215.6106 -696.97249,1223.2952 C -698.68019,1237.469 -699.02173,1244.1291 -694.58172,1250.4475 L -703.46174,1254.546 L -700.90019,1233.7121 C -700.55866,1230.809 -699.70481,1225.3444 -699.36327,1221.5875 C -697.99711,1211.1705 -694.75249,1203.4859 -689.97094,1199.8997 C -687.06786,1197.6797 -684.50631,1195.972 -681.60323,1194.9474 C -689.62939,1185.3843 -696.11865,1178.212 -702.43712,1174.9674 L -701.4125,1163.8674 C -693.55711,1175.3089 -678.01706,1194.0936 -663.50166,1210.9998 L -655.9878,1219.709 C -652.23087,1218.5136 -648.98624,1216.9767 -645.40008,1214.0736 C -640.78931,1210.6582 -638.91084,1203.1444 -637.88622,1195.289 C -636.52007,1184.5305 -635.32468,1173.0889 -640.277,1168.1366 L -631.39698,1164.0381 L -633.95852,1184.872 C -634.30006,1187.7751 -635.15391,1193.2397 -635.49545,1196.9967 C -636.8616,1207.4136 -639.76469,1215.0982 -644.54623,1218.6844 C -647.27854,1220.9044 -649.84009,1222.4413 -652.74317,1223.6367 C -644.37547,1233.3706 -637.20314,1241.3968 -631.90929,1243.6168 L -632.9339,1254.7168 C -639.76468,1244.8122 -653.59703,1228.4182 -666.23397,1213.3905 M -821.9945,1213.3905 L -833.94837,1199.0459 C -837.87607,1200.0705 -841.1207,1201.6074 -844.87762,1204.5105 C -849.4884,1208.0967 -851.70841,1215.6106 -852.73302,1223.2952 C -854.44072,1237.469 -854.78225,1244.1291 -850.34225,1250.4475 L -859.22227,1254.546 L -856.66072,1233.7121 C -856.31918,1230.809 -855.46534,1225.3444 -855.1238,1221.5875 C -853.75764,1211.1705 -850.51301,1203.4859 -845.73147,1199.8997 C -842.82839,1197.6797 -840.26684,1195.972 -837.36376,1194.9474 C -845.38992,1185.3843 -851.87918,1178.212 -858.19765,1174.9674 L -857.17303,1163.8674 C -849.31764,1175.3089 -833.77759,1194.0936 -819.26219,1210.9998 L -811.74832,1219.709 C -807.9914,1218.5136 -804.74677,1216.9767 -801.16061,1214.0736 C -796.54984,1210.6582 -794.67137,1203.1444 -793.64675,1195.289 C -792.28059,1184.5305 -791.08521,1173.0889 -796.03752,1168.1366 L -787.15751,1164.0381 L -789.71905,1184.872 C -790.06059,1187.7751 -790.91444,1193.2397 -791.25598,1196.9967 C -792.62213,1207.4136 -795.52522,1215.0982 -800.30676,1218.6844 C -803.03907,1220.9044 -805.60062,1222.4413 -808.5037,1223.6367 C -800.136,1233.3706 -792.96367,1241.3968 -787.66981,1243.6168 L -788.69443,1254.7168 C -795.52521,1244.8122 -809.35756,1228.4182 -821.9945,1213.3905 M -918.08441,1180.9443 C -919.96287,1172.7474 -910.74131,1167.6243 -901.8613,1167.6243 C -895.20129,1167.6243 -889.39512,1171.0397 -885.29665,1176.8459 C -880.34434,1183.6766 -880.51511,1196.1428 -882.05203,1208.7798 C -883.58895,1221.4167 -888.54128,1233.7121 -896.05514,1240.3721 C -903.22745,1246.5198 -910.22902,1249.4229 -921.4998,1249.4229 L -931.91675,1249.4229 C -937.55214,1231.1506 -941.30908,1200.2413 -943.18754,1184.872 L -945.74908,1164.0381 L -955.48295,1170.5274 C -947.79832,1171.3812 -946.26139,1180.7736 -945.74908,1185.3843 C -942.67523,1211.3413 -939.25984,1240.3721 -939.60138,1254.546 C -933.96599,1251.9845 -929.01366,1251.9845 -921.67057,1251.9845 C -910.22902,1251.9845 -901.00744,1249.4229 -892.81051,1242.2506 C -883.9305,1234.3952 -878.46587,1222.0998 -876.92894,1208.7798 C -875.22125,1195.4597 -876.41664,1184.872 -882.05203,1176.8459 C -887.17511,1169.5028 -894.85976,1165.4043 -904.42284,1165.4043 C -913.64439,1165.4043 -920.47519,1167.9658 -925.59827,1172.9182 L -918.08441,1180.9443 M -1047.7705,1186.9213 C -1047.7705,1195.289 -1049.1367,1202.6321 -1050.3321,1211.8536 L -1042.6475,1204.169 C -1044.6967,1198.1921 -1045.209,1192.2151 -1045.3798,1186.0674 C -1045.3798,1178.7243 -1045.0382,1170.8689 -1044.0136,1164.0381 L -1054.9429,1169.6735 C -1047.429,1171.3812 -1047.7705,1182.3105 -1047.7705,1186.9213 M -1119.9234,1254.546 C -1108.4818,1252.8383 -1098.0648,1252.326 -1080.1341,1252.1552 L -1074.8402,1246.8614 C -1075.694,1235.9321 -1076.5479,1218.3428 -1077.0602,1204.8521 C -1077.4017,1192.7274 -1077.9141,1182.3105 -1085.0864,1175.1382 C -1088.5018,1171.7228 -1092.2587,1169.5028 -1096.6987,1168.1366 C -1097.8941,1167.7951 -1099.0895,1167.4535 -1100.4556,1167.112 C -1105.5787,1166.0874 -1110.7018,1164.892 -1115.8249,1163.1843 L -1108.8233,1172.5766 C -1100.1141,1171.0397 -1092.771,1171.8935 -1087.1356,1177.3582 C -1082.0125,1182.652 -1080.4756,1191.1905 -1080.4756,1204.8521 C -1080.6464,1217.489 -1080.9879,1237.6398 -1082.0125,1249.4229 C -1095.1618,1249.2522 -1102.6756,1248.5691 -1112.2387,1246.8614 L -1119.9234,1254.546 M -1146.1578,1185.0428 C -1146.3286,1177.6997 -1146.3286,1170.5274 -1146.3286,1164.0381 L -1156.5748,1169.1612 C -1149.0609,1171.0397 -1148.7194,1180.6028 -1148.7194,1185.2136 C -1149.0609,1211.5121 -1149.4025,1240.5429 -1151.4517,1254.546 L -1143.5963,1246.8614 C -1146.3286,1233.1998 -1146.1578,1200.5828 -1146.1578,1185.0428 M -1186.7129,1164.0381 C -1188.7622,1184.872 -1191.6653,1205.1936 -1195.7637,1228.4183 C -1197.1299,1236.1029 -1199.5207,1242.0798 -1205.1561,1246.1783 C -1208.4007,1248.3983 -1211.8161,1249.4229 -1216.2561,1249.4229 C -1219.5007,1249.4229 -1224.2823,1249.4229 -1229.2346,1249.0814 L -1226.3315,1243.7875 C -1231.2838,1231.1506 -1234.1869,1220.9044 -1237.9438,1207.5844 C -1242.213,1190.849 -1246.1408,1174.6258 -1247.8484,1164.0381 L -1253.6546,1173.6012 C -1245.97,1191.7028 -1241.7007,1205.7059 -1235.3823,1228.0767 C -1233.5038,1234.566 -1232.1376,1241.0552 -1230.7715,1248.9106 C -1235.0407,1248.5691 -1241.0177,1248.0568 -1244.6038,1246.8614 L -1252.2885,1254.546 C -1240.1638,1251.9845 -1224.7945,1251.9845 -1215.7438,1251.9845 C -1210.1084,1251.9845 -1206.0099,1250.4475 -1202.4237,1248.0568 C -1196.1053,1243.6168 -1193.7145,1236.786 -1191.836,1226.369 C -1188.4206,1207.5844 -1185.0052,1189.1412 -1180.5652,1172.9182 L -1186.7129,1164.0381 M -1279.4141,1241.3968 C -1275.828,1241.3968 -1273.0957,1244.1291 -1273.0957,1247.5445 C -1273.0957,1248.7398 -1273.4372,1249.9352 -1274.1203,1250.9598 C -1275.1449,1253.1799 -1276.1695,1255.7414 -1277.1941,1258.4737 C -1278.9018,1262.7429 -1279.7557,1267.183 -1279.5849,1272.1353 L -1288.8065,1274.8676 C -1285.0495,1268.8907 -1281.9757,1264.1091 -1279.7557,1258.3029 C -1279.4141,1257.1076 -1278.7311,1255.3999 -1278.3895,1253.5214 C -1278.7311,1253.6922 -1279.0726,1253.6922 -1279.4141,1253.6922 C -1282.8295,1253.6922 -1285.7326,1250.9598 -1285.7326,1247.5445 C -1285.7326,1244.1291 -1282.8295,1241.3968 -1279.4141,1241.3968 M -135.22071,1357.6908 C -135.22071,1366.0585 -136.58687,1373.4016 -137.78225,1382.6232 L -130.09762,1374.9386 C -132.14685,1368.9616 -132.65917,1362.9847 -132.82993,1356.837 C -132.82993,1349.4939 -132.48839,1341.6385 -131.46378,1334.8077 L -142.39303,1340.4431 C -134.87918,1342.1508 -135.22071,1353.0801 -135.22071,1357.6908 M -230.75018,1342.4923 C -230.75018,1366.0585 -232.2871,1404.4817 -233.9948,1425.3156 L -226.1394,1417.631 C -227.84709,1400.8956 -227.84709,1360.9354 -227.84709,1341.8093 C -219.13785,1339.9308 -201.54857,1339.9308 -190.96086,1339.9308 C -183.10547,1339.9308 -177.8116,1341.4677 -173.71314,1345.5662 C -168.76082,1350.5185 -167.56543,1357.0078 -167.56543,1364.6924 C -167.56543,1388.2586 -168.24851,1404.4817 -169.95621,1425.3156 L -162.27157,1417.631 C -163.8085,1400.8956 -163.97927,1386.5509 -163.97927,1367.4247 C -163.97927,1356.837 -165.17466,1349.6647 -170.63928,1344.2 C -174.90852,1339.9308 -180.7147,1337.3693 -190.96086,1337.3693 C -204.96396,1337.3693 -225.6271,1337.3693 -238.43481,1334.8077 L -230.75018,1342.4923 M -265.03487,1355.9831 L -260.59486,1335.4908 L -271.69488,1338.2231 C -264.8641,1341.8093 -266.57179,1351.2016 -267.59641,1355.6416 C -270.84103,1369.8155 -273.74412,1381.9401 -278.18412,1391.8448 C -294.74876,1372.5478 -316.26575,1347.4446 -325.99961,1333.6123 L -326.85345,1344.3708 C -314.04575,1354.2754 -298.16414,1374.2555 -270.67026,1406.3602 C -268.10872,1409.2632 -265.20564,1411.9956 -266.74256,1416.6063 C -267.42564,1418.6556 -269.13334,1420.1925 -272.20719,1420.1925 C -283.13643,1420.1925 -312.33805,1420.1925 -321.73037,1417.631 L -329.415,1425.3156 C -316.60729,1422.754 -283.47797,1422.754 -270.67026,1422.754 C -266.74257,1422.754 -263.32717,1420.8756 -262.30255,1417.631 C -260.25332,1412.1663 -263.66871,1409.0925 -267.59641,1404.3109 L -277.67181,1392.5278 L -269.81641,1387.4047 C -269.64564,1379.8909 -267.25487,1367.0832 -265.03487,1355.9831 M -414.67973,1425.3156 L -406.9951,1417.631 C -409.38587,1403.9694 -409.89818,1386.5509 -406.65356,1370.6693 L -413.82588,1377.8416 C -410.58126,1394.0647 -412.63049,1410.971 -414.67973,1425.3156 M -417.58281,1334.8077 L -409.89818,1342.4923 C -400.50586,1339.9308 -386.33197,1339.9308 -374.54888,1339.9308 C -366.69348,1339.9308 -361.39961,1341.4677 -357.30115,1345.5662 C -352.34884,1350.5185 -351.15344,1357.0078 -351.15344,1364.6924 C -351.15344,1388.2586 -351.83652,1404.4817 -353.54422,1425.3156 L -345.85959,1417.631 C -347.39651,1400.8956 -347.56728,1386.5509 -347.56728,1367.4247 C -347.56728,1356.837 -348.76268,1349.6647 -354.2273,1344.2 C -358.49653,1339.9308 -364.30271,1337.3693 -374.54888,1337.3693 C -388.55197,1337.3693 -404.7751,1337.3693 -417.58281,1334.8077 M -555.3885,1334.8077 L -547.70387,1342.4923 C -543.26387,1340.4431 -538.99461,1339.9308 -532.50538,1339.9308 C -528.06537,1339.9308 -524.64997,1340.9554 -521.57612,1343.1754 C -515.94073,1347.2739 -513.89149,1353.2508 -512.86688,1360.9355 C -511.32995,1371.8647 -509.96379,1382.2817 -508.76841,1392.3571 C -528.74843,1406.5309 -541.89772,1415.0694 -557.60851,1421.5587 L -547.36233,1424.974 C -540.53155,1417.631 -527.55304,1408.7509 -508.42687,1395.4309 C -507.40225,1405.5063 -506.5484,1415.411 -506.03609,1425.3156 L -499.54685,1416.4356 C -503.30378,1400.2125 -506.20687,1381.7693 -508.93918,1362.9847 C -510.30533,1352.5678 -512.52534,1345.737 -518.67304,1341.297 C -522.08843,1338.9062 -526.18691,1337.3693 -531.99307,1337.3693 C -541.04385,1337.3693 -547.70388,1336.6862 -555.3885,1334.8077 M -597.92613,1337.3693 C -611.92922,1337.3693 -621.32157,1337.3693 -633.4462,1336.3446 C -634.47082,1332.5877 -634.64159,1327.8062 -634.64159,1323.7077 C -634.47082,1319.0969 -635.15389,1310.9 -627.98157,1309.0215 L -639.25237,1303.8984 C -636.00775,1316.1938 -636.34928,1328.4893 -638.56929,1342.4923 C -629.17697,1339.9308 -609.70922,1339.9308 -597.92613,1339.9308 C -588.87535,1339.9308 -582.8984,1341.98 -578.79993,1347.7862 C -571.62762,1357.0077 -576.57993,1368.1078 -580.50763,1374.9386 C -592.11995,1394.7478 -600.99999,1408.9217 -612.95385,1426.1694 L -602.36614,1423.4371 C -595.36459,1408.0679 -588.02148,1395.7724 -578.79993,1379.037 C -570.603,1364.3509 -568.89531,1354.4462 -576.06762,1345.9077 C -579.99532,1340.9554 -585.8015,1337.3693 -597.92613,1337.3693 M -666.54084,1357.6908 C -666.54084,1366.0585 -667.907,1373.4016 -669.10238,1382.6232 L -661.41775,1374.9386 C -663.46698,1368.9616 -663.97929,1362.9847 -664.15006,1356.837 C -664.15006,1349.4939 -663.80852,1341.6385 -662.78391,1334.8077 L -673.71316,1340.4431 C -666.19931,1342.1508 -666.54084,1353.0801 -666.54084,1357.6908 M -788.96396,1337.3693 C -802.96705,1337.3693 -826.87482,1337.3693 -839.68252,1334.8077 L -831.99789,1342.4923 C -829.26558,1341.8093 -824.99633,1341.1262 -820.89787,1340.7846 L -824.99634,1346.42 C -822.77633,1356.6662 -822.09325,1368.4493 -822.09325,1380.0616 C -822.09325,1390.137 -822.60556,1400.2125 -823.11787,1408.9217 C -823.28864,1412.3371 -823.63018,1415.5817 -823.80095,1418.4848 C -830.11942,1418.4848 -835.07175,1417.631 -840.02406,1416.7771 L -847.70869,1424.4617 C -840.53638,1423.4371 -833.87634,1423.0956 -823.28864,1422.754 L -818.16555,1417.631 C -818.50709,1414.3863 -818.84863,1410.2879 -819.0194,1405.5063 C -819.36094,1398.5048 -819.70248,1390.137 -819.70248,1381.7693 C -819.70248,1367.2539 -819.70248,1350.0062 -819.19017,1340.6139 C -809.45632,1340.6139 -796.81935,1339.9308 -788.96396,1339.9308 C -781.10856,1339.9308 -775.81469,1341.4677 -771.71623,1345.5662 C -766.76392,1350.5185 -765.56852,1357.0078 -765.56852,1364.6924 C -765.56852,1388.2586 -766.2516,1404.4817 -767.9593,1425.3156 L -760.27467,1417.631 C -761.81159,1400.8956 -761.98236,1386.5509 -761.98236,1367.4247 C -761.98236,1356.837 -763.17776,1349.6647 -768.64238,1344.2 C -772.91161,1339.9308 -778.71779,1337.3693 -788.96396,1337.3693 M -926.65489,1425.3156 L -918.97025,1417.631 C -921.36103,1403.9694 -921.87333,1386.5509 -918.62872,1370.6693 L -925.80104,1377.8416 C -922.55642,1394.0647 -924.60565,1410.971 -926.65489,1425.3156 M -929.55797,1334.8077 L -921.87334,1342.4923 C -912.48102,1339.9308 -898.30712,1339.9308 -886.52403,1339.9308 C -878.66864,1339.9308 -873.37477,1341.4677 -869.27631,1345.5662 C -864.32399,1350.5185 -863.1286,1357.0078 -863.1286,1364.6924 C -863.1286,1388.2586 -863.81168,1404.4817 -865.51938,1425.3156 L -857.83475,1417.631 C -859.37167,1400.8956 -859.54244,1386.5509 -859.54244,1367.4247 C -859.54244,1356.837 -860.73783,1349.6647 -866.20246,1344.2 C -870.47169,1339.9308 -876.27787,1337.3693 -886.52403,1337.3693 C -900.52713,1337.3693 -916.75026,1337.3693 -929.55797,1334.8077 M -959.37859,1355.8124 C -959.54936,1348.4693 -959.54936,1341.2969 -959.54936,1334.8077 L -969.79554,1339.9308 C -962.28168,1341.8093 -961.94014,1351.3724 -961.94014,1355.9831 C -962.28168,1382.2816 -962.62322,1411.3125 -964.67245,1425.3156 L -956.81705,1417.631 C -959.54936,1403.9694 -959.37859,1371.3524 -959.37859,1355.8124 M -1058.9159,1421.0463 C -1059.7698,1403.9694 -1058.9159,1383.8186 -1058.9159,1370.157 C -1058.9159,1362.3016 -1057.379,1355.3001 -1054.4759,1350.6893 C -1052.0851,1346.7616 -1047.9867,1342.6631 -1043.2051,1340.2723 C -1038.2528,1339.9308 -1033.9836,1339.9308 -1032.2759,1339.9308 C -1021.0051,1339.9308 -1014.3451,1342.8339 -1008.0266,1348.9816 C -1002.0497,1354.9585 -999.31733,1367.4247 -999.4881,1380.0616 C -999.65887,1396.4555 -999.82964,1407.7263 -1000.8543,1420.1925 C -1020.8343,1420.1925 -1042.0097,1420.1925 -1055.6713,1417.631 L -1058.9159,1421.0463 M -1047.4744,1340.6139 C -1051.2313,1342.1508 -1054.8174,1345.3954 -1057.0375,1348.9816 C -1060.2821,1353.7631 -1062.5021,1360.9355 -1062.5021,1370.4986 C -1062.5021,1389.454 -1062.3313,1408.2386 -1062.8436,1425.3156 C -1049.8651,1423.4371 -1028.3481,1422.754 -998.63426,1422.754 L -993.68194,1417.631 C -994.53578,1406.7017 -995.21886,1395.2601 -995.5604,1380.0616 C -996.07271,1366.7416 -996.58503,1354.9585 -1004.6112,1347.1031 C -1011.7835,1339.9308 -1020.8343,1337.3693 -1032.2759,1337.3693 C -1039.4482,1337.3693 -1058.7452,1337.0277 -1070.0159,1334.8077 L -1062.3313,1342.4923 C -1058.5744,1341.4677 -1052.939,1340.9554 -1047.4744,1340.6139 M -1222.4998,1425.3156 L -1214.8152,1417.631 C -1217.206,1403.9694 -1217.7183,1386.5509 -1214.4737,1370.6693 L -1221.646,1377.8416 C -1218.4014,1394.0647 -1220.4506,1410.971 -1222.4998,1425.3156 M -1225.4029,1334.8077 L -1217.7183,1342.4923 C -1208.326,1339.9308 -1194.1521,1339.9308 -1182.369,1339.9308 C -1174.5136,1339.9308 -1169.2197,1341.4677 -1165.1213,1345.5662 C -1160.169,1350.5185 -1158.9736,1357.0078 -1158.9736,1364.6924 C -1158.9736,1388.2586 -1159.6566,1404.4817 -1161.3643,1425.3156 L -1153.6797,1417.631 C -1155.2166,1400.8956 -1155.3874,1386.5509 -1155.3874,1367.4247 C -1155.3874,1356.837 -1156.5828,1349.6647 -1162.0474,1344.2 C -1166.3166,1339.9308 -1172.1228,1337.3693 -1182.369,1337.3693 C -1196.3721,1337.3693 -1212.5952,1337.3693 -1225.4029,1334.8077 M -1289.3588,1425.3156 C -1277.9172,1423.6079 -1267.5003,1423.0956 -1249.5695,1422.9248 L -1244.2756,1417.631 C -1245.1295,1406.7017 -1245.9833,1389.1124 -1246.4956,1375.6216 C -1246.8372,1363.497 -1247.3495,1353.08 -1254.5218,1345.9077 C -1257.9372,1342.4923 -1261.6941,1340.2723 -1266.1341,1338.9062 C -1267.3295,1338.5646 -1268.5249,1338.2231 -1269.8911,1337.8816 C -1275.0141,1336.8569 -1280.1372,1335.6616 -1285.2603,1333.9539 L -1278.2588,1343.3462 C -1269.5495,1341.8093 -1262.2064,1342.6631 -1256.571,1348.1277 C -1251.4479,1353.4216 -1249.911,1361.9601 -1249.911,1375.6216 C -1250.0818,1388.2586 -1250.4233,1408.4094 -1251.4479,1420.1925 C -1264.5972,1420.0217 -1272.1111,1419.3387 -1281.6742,1417.631 L -1289.3588,1425.3156 M -1315.5933,1355.8124 C -1315.764,1348.4693 -1315.764,1341.2969 -1315.764,1334.8077 L -1326.0102,1339.9308 C -1318.4964,1341.8093 -1318.1548,1351.3724 -1318.1548,1355.9831 C -1318.4964,1382.2816 -1318.8379,1411.3125 -1320.8871,1425.3156 L -1313.0317,1417.631 C -1315.764,1403.9694 -1315.5933,1371.3524 -1315.5933,1355.8124 M -1359.9587,1357.6908 C -1359.9587,1366.0585 -1361.3248,1373.4016 -1362.5202,1382.6232 L -1354.8356,1374.9386 C -1356.8848,1368.9616 -1357.3971,1362.9847 -1357.5679,1356.837 C -1357.5679,1349.4939 -1357.2264,1341.6385 -1356.2017,1334.8077 L -1367.131,1340.4431 C -1359.6171,1342.1508 -1359.9587,1353.0801 -1359.9587,1357.6908 M -1403.1367,1418.314 C -1403.1367,1421.7294 -1400.2336,1424.4617 -1396.8182,1424.4617 C -1393.2321,1424.4617 -1390.4997,1421.7294 -1390.4997,1418.314 C -1390.4997,1414.8986 -1393.2321,1412.1663 -1396.8182,1412.1663 C -1400.2336,1412.1663 -1403.1367,1414.8986 -1403.1367,1418.314"
       id="text2507" />
    <path
       style="font-size:80px;font-style:normal;font-variant:normal;font-weight:300;font-stretch:normal;text-align:start;line-height:125%;writing-mode:lr-tb;text-anchor:start;fill:#000000;fill-opacity:1;stroke:none;stroke-width:1px;stroke-linecap:butt;stroke-linejoin:miter;stroke-opacity:1;font-family:Journal CLM;-inkscape-font-specification:Journal CLM Light"
       d="M -1033.491,1527.3153 L -1039.091,1520.5953 C -1040.931,1521.0753 -1042.451,1521.7953 -1044.211,1523.1553 C -1046.371,1524.8353 -1047.411,1528.3553 -1047.891,1531.9553 C -1048.691,1538.5953 -1048.851,1541.7153 -1046.771,1544.6753 L -1050.931,1546.5953 L -1049.731,1536.8353 C -1049.571,1535.4753 -1049.171,1532.9153 -1049.011,1531.1553 C -1048.371,1526.2753 -1046.851,1522.6753 -1044.611,1520.9953 C -1043.251,1519.9553 -1042.051,1519.1553 -1040.691,1518.6753 C -1044.451,1514.1953 -1047.491,1510.8353 -1050.451,1509.3153 L -1049.971,1504.1153 C -1046.291,1509.4753 -1039.011,1518.2753 -1032.211,1526.1953 L -1028.691,1530.2753 C -1026.931,1529.7153 -1025.411,1528.9953 -1023.731,1527.6353 C -1021.571,1526.0353 -1020.691,1522.5153 -1020.211,1518.8353 C -1019.571,1513.7953 -1019.011,1508.4353 -1021.331,1506.1153 L -1017.171,1504.1953 L -1018.371,1513.9553 C -1018.531,1515.3153 -1018.931,1517.8753 -1019.091,1519.6353 C -1019.731,1524.5153 -1021.091,1528.1153 -1023.331,1529.7953 C -1024.611,1530.8353 -1025.811,1531.5553 -1027.171,1532.1153 C -1023.251,1536.6753 -1019.891,1540.4353 -1017.411,1541.4753 L -1017.891,1546.6753 C -1021.091,1542.0353 -1027.571,1534.3553 -1033.491,1527.3153 M -1064.4898,1507.4753 C -1065.5298,1510.1953 -1067.0498,1512.4353 -1068.7298,1515.2353 L -1064.4098,1513.9553 C -1064.5698,1511.7153 -1064.0898,1509.6353 -1063.2898,1507.5553 C -1062.0098,1503.8753 -1060.6498,1501.3153 -1058.7298,1498.8353 L -1065.5298,1500.5953 C -1062.4898,1502.4353 -1063.9298,1505.9553 -1064.4898,1507.4753 M -1078.8898,1507.4753 C -1079.9298,1510.1953 -1081.4498,1512.4353 -1083.1298,1515.2353 L -1078.8098,1513.9553 C -1078.9698,1511.7153 -1078.4898,1509.6353 -1077.6898,1507.5553 C -1076.4098,1503.8753 -1075.0498,1501.3153 -1073.1298,1498.8353 L -1079.9298,1500.5953 C -1076.8898,1502.4353 -1078.3298,1505.9553 -1078.8898,1507.4753 M -1111.811,1546.5953 C -1106.451,1545.7953 -1101.571,1545.5553 -1093.171,1545.4753 L -1090.691,1542.9953 C -1091.091,1537.8753 -1091.491,1529.6353 -1091.731,1523.3153 C -1091.891,1517.6353 -1092.131,1512.7553 -1095.491,1509.3953 C -1097.091,1507.7953 -1098.851,1506.7553 -1100.931,1506.1153 C -1101.491,1505.9553 -1102.051,1505.7953 -1102.691,1505.6353 C -1105.091,1505.1553 -1107.491,1504.5953 -1109.891,1503.7953 L -1106.611,1508.1953 C -1102.531,1507.4753 -1099.091,1507.8753 -1096.451,1510.4353 C -1094.051,1512.9153 -1093.331,1516.9153 -1093.331,1523.3153 C -1093.411,1529.2353 -1093.571,1538.6753 -1094.051,1544.1953 C -1100.211,1544.1153 -1103.731,1543.7953 -1108.211,1542.9953 L -1111.811,1546.5953 M -1174.6885,1504.1953 L -1171.0885,1507.7953 C -1169.0085,1506.8353 -1167.0085,1506.5953 -1163.9685,1506.5953 C -1161.8885,1506.5953 -1160.2885,1507.0753 -1158.8485,1508.1153 C -1156.2085,1510.0353 -1155.2485,1512.8353 -1154.7685,1516.4353 C -1154.0485,1521.5553 -1153.4085,1526.4353 -1152.8485,1531.1553 C -1162.2085,1537.7953 -1168.3685,1541.7953 -1175.7285,1544.8353 L -1170.9285,1546.4353 C -1167.7285,1542.9953 -1161.6485,1538.8353 -1152.6885,1532.5953 C -1152.2085,1537.3153 -1151.8085,1541.9553 -1151.5685,1546.5953 L -1148.5285,1542.4353 C -1150.2885,1534.8353 -1151.6485,1526.1953 -1152.9285,1517.3953 C -1153.5685,1512.5153 -1154.6085,1509.3153 -1157.4885,1507.2353 C -1159.0885,1506.1153 -1161.0085,1505.3953 -1163.7285,1505.3953 C -1167.9685,1505.3953 -1171.0885,1505.0753 -1174.6885,1504.1953 M -1203.5298,1546.5953 C -1198.1698,1545.7953 -1193.2898,1545.5553 -1184.8898,1545.4753 L -1182.4098,1542.9953 C -1182.8098,1537.8753 -1183.2098,1529.6353 -1183.4498,1523.3153 C -1183.6098,1517.6353 -1183.8498,1512.7553 -1187.2098,1509.3953 C -1188.8098,1507.7953 -1190.5698,1506.7553 -1192.6498,1506.1153 C -1193.2098,1505.9553 -1193.7698,1505.7953 -1194.4098,1505.6353 C -1196.8098,1505.1553 -1199.2098,1504.5953 -1201.6098,1503.7953 L -1198.3298,1508.1953 C -1194.2498,1507.4753 -1190.8098,1507.8753 -1188.1698,1510.4353 C -1185.7698,1512.9153 -1185.0498,1516.9153 -1185.0498,1523.3153 C -1185.1298,1529.2353 -1185.2898,1538.6753 -1185.7698,1544.1953 C -1191.9298,1544.1153 -1195.4498,1543.7953 -1199.9298,1542.9953 L -1203.5298,1546.5953 M -1235.5185,1507.1553 C -1236.6385,1507.8753 -1237.5185,1509.0753 -1238.3185,1510.9153 C -1239.5985,1513.7153 -1240.1585,1519.7153 -1240.1585,1525.7153 C -1240.1585,1531.7153 -1239.3585,1537.3153 -1236.5585,1540.4353 C -1233.8385,1543.4753 -1231.0385,1544.8353 -1226.1585,1544.8353 C -1221.3585,1544.8353 -1218.5585,1543.4753 -1215.8385,1540.4353 C -1213.0385,1537.3153 -1212.2385,1531.7153 -1212.2385,1525.7153 C -1212.2385,1519.7153 -1213.3585,1513.7153 -1215.8385,1510.9153 C -1218.5585,1507.9553 -1221.3585,1506.5953 -1226.2385,1506.5953 C -1227.4385,1506.5953 -1231.6785,1506.6753 -1235.5185,1507.1553 M -1237.5185,1507.4753 C -1238.0785,1507.5553 -1238.6385,1507.7153 -1239.1185,1507.7953 L -1242.7185,1504.1953 C -1237.2785,1505.2353 -1229.3585,1505.3953 -1226.1585,1505.3953 C -1221.1985,1505.3953 -1217.3585,1506.5953 -1214.2385,1510.0353 C -1210.7985,1513.7953 -1209.7585,1519.3153 -1209.7585,1525.7153 C -1209.7585,1532.0353 -1210.7985,1537.6353 -1214.2385,1541.3953 C -1217.3585,1544.7553 -1221.1985,1545.9553 -1226.1585,1545.9553 C -1231.1185,1545.9553 -1235.0385,1544.7553 -1238.1585,1541.3953 C -1241.5985,1537.6353 -1242.5585,1532.0353 -1242.5585,1525.7153 C -1242.5585,1519.3153 -1241.4385,1513.7153 -1239.3585,1510.1153 C -1238.7185,1508.9153 -1238.0785,1508.1153 -1237.5185,1507.4753 M -1255.8223,1514.9153 C -1255.8223,1518.8353 -1256.4623,1522.2753 -1257.0223,1526.5953 L -1253.4223,1522.9953 C -1254.3823,1520.1953 -1254.6223,1517.3953 -1254.7023,1514.5153 C -1254.7023,1511.0753 -1254.5423,1507.3953 -1254.0623,1504.1953 L -1259.1823,1506.8353 C -1255.6623,1507.6353 -1255.8223,1512.7553 -1255.8223,1514.9153 M -1271.951,1514.0353 C -1272.031,1510.5953 -1272.031,1507.2353 -1272.031,1504.1953 L -1276.831,1506.5953 C -1273.311,1507.4753 -1273.151,1511.9553 -1273.151,1514.1153 C -1273.311,1526.4353 -1273.471,1554.6753 -1274.431,1561.2353 L -1270.751,1557.6353 C -1272.031,1551.2353 -1271.951,1521.3153 -1271.951,1514.0353 M -1291.0585,1540.4353 C -1289.3785,1540.4353 -1288.0985,1541.7153 -1288.0985,1543.3153 C -1288.0985,1543.8753 -1288.2585,1544.4353 -1288.5785,1544.9153 C -1289.0585,1545.9553 -1289.5385,1547.1553 -1290.0185,1548.4353 C -1290.8185,1550.4353 -1291.2185,1552.5153 -1291.1385,1554.8353 L -1295.4585,1556.1153 C -1293.6985,1553.3153 -1292.2585,1551.0753 -1291.2185,1548.3553 C -1291.0585,1547.7953 -1290.7385,1546.9953 -1290.5785,1546.1153 C -1290.7385,1546.1953 -1290.8985,1546.1953 -1291.0585,1546.1953 C -1292.6585,1546.1953 -1294.0185,1544.9153 -1294.0185,1543.3153 C -1294.0185,1541.7153 -1292.6585,1540.4353 -1291.0585,1540.4353 M -1359.6048,1546.1953 C -1353.3648,1545.3953 -1344.4848,1545.4753 -1336.0048,1545.3953 L -1333.6048,1542.9953 C -1334.3248,1537.8753 -1334.9648,1531.2353 -1335.6048,1524.1953 C -1336.1648,1518.0353 -1336.8048,1512.5153 -1340.5648,1508.5953 C -1344.0848,1505.0753 -1349.9248,1503.7153 -1355.0448,1505.5553 C -1359.8448,1507.3153 -1362.3248,1511.5553 -1363.6048,1516.9953 C -1364.1648,1512.0353 -1364.7248,1506.9153 -1364.8848,1504.1953 L -1367.9248,1508.1953 C -1366.2448,1509.8753 -1365.2848,1514.6753 -1364.5648,1519.9553 C -1366.0848,1530.4353 -1368.1648,1542.2753 -1369.3648,1546.5953 L -1365.2848,1543.5553 C -1365.5248,1539.3153 -1364.5648,1530.0353 -1363.2048,1520.8353 C -1362.2448,1514.0353 -1359.1248,1508.6753 -1354.4048,1507.3153 C -1349.7648,1505.9553 -1344.4048,1506.9953 -1341.3648,1509.9553 C -1338.4048,1512.8353 -1337.3648,1517.6353 -1337.0448,1524.9953 C -1336.7248,1531.6353 -1336.7248,1538.5953 -1336.8048,1544.1953 C -1342.8848,1544.1153 -1351.0448,1543.7953 -1356.0048,1542.5953 L -1359.6048,1546.1953 M -1390.986,1505.3953 C -1397.546,1505.3953 -1408.746,1505.3953 -1414.746,1504.1953 L -1411.146,1507.7953 C -1409.866,1507.4753 -1407.866,1507.1553 -1405.946,1506.9953 L -1407.866,1509.6353 C -1406.826,1514.4353 -1406.506,1519.9553 -1406.506,1525.3953 C -1406.506,1530.1153 -1406.746,1534.8353 -1406.986,1538.9153 C -1407.066,1540.5153 -1407.226,1542.0353 -1407.306,1543.3953 C -1410.266,1543.3953 -1412.586,1542.9953 -1414.906,1542.5953 L -1418.506,1546.1953 C -1415.146,1545.7153 -1412.026,1545.5553 -1407.066,1545.3953 L -1404.666,1542.9953 C -1404.826,1541.4753 -1404.986,1539.5553 -1405.066,1537.3153 C -1405.226,1534.0353 -1405.386,1530.1153 -1405.386,1526.1953 C -1405.386,1519.3953 -1405.386,1511.3153 -1405.146,1506.9153 C -1400.586,1506.9153 -1394.666,1506.5953 -1390.986,1506.5953 C -1387.306,1506.5953 -1384.826,1507.3153 -1382.906,1509.2353 C -1380.586,1511.5553 -1380.026,1514.5953 -1380.026,1518.1953 C -1380.026,1529.2353 -1380.346,1536.8353 -1381.146,1546.5953 L -1377.546,1542.9953 C -1378.266,1535.1553 -1378.346,1528.4353 -1378.346,1519.4753 C -1378.346,1514.5153 -1378.906,1511.1553 -1381.466,1508.5953 C -1383.466,1506.5953 -1386.186,1505.3953 -1390.986,1505.3953 M -1428.476,1514.0353 C -1428.556,1510.5953 -1428.556,1507.2353 -1428.556,1504.1953 L -1433.356,1506.5953 C -1429.836,1507.4753 -1429.676,1511.9553 -1429.676,1514.1153 C -1429.836,1526.4353 -1429.996,1540.0353 -1430.956,1546.5953 L -1427.276,1542.9953 C -1428.556,1536.5953 -1428.476,1521.3153 -1428.476,1514.0353 M -1450.4423,1511.4753 C -1447.0023,1515.6353 -1446.5223,1520.9153 -1446.5223,1528.9153 C -1446.5223,1541.2353 -1446.7623,1554.8353 -1447.7223,1561.3953 L -1444.1223,1557.7953 C -1445.3223,1551.3953 -1444.9223,1536.1153 -1444.9223,1528.8353 C -1444.9223,1519.2353 -1445.8023,1513.8753 -1449.7223,1509.9553 C -1453.0823,1506.5953 -1456.9223,1505.3953 -1462.2823,1505.3953 C -1468.6823,1505.3953 -1473.0023,1505.2353 -1478.2023,1504.1953 L -1474.6023,1507.7953 C -1470.6023,1506.7553 -1468.3623,1506.5953 -1462.2823,1506.5953 C -1457.0023,1506.5953 -1452.8423,1508.6753 -1450.4423,1511.4753 M -1522.771,1507.4753 C -1523.811,1510.1953 -1525.331,1512.4353 -1527.011,1515.2353 L -1522.691,1513.9553 C -1522.851,1511.7153 -1522.371,1509.6353 -1521.571,1507.5553 C -1520.291,1503.8753 -1518.931,1501.3153 -1517.011,1498.8353 L -1523.811,1500.5953 C -1520.771,1502.4353 -1522.211,1505.9553 -1522.771,1507.4753 M -1537.171,1507.4753 C -1538.211,1510.1953 -1539.731,1512.4353 -1541.411,1515.2353 L -1537.091,1513.9553 C -1537.251,1511.7153 -1536.771,1509.6353 -1535.971,1507.5553 C -1534.691,1503.8753 -1533.331,1501.3153 -1531.411,1498.8353 L -1538.211,1500.5953 C -1535.171,1502.4353 -1536.611,1505.9553 -1537.171,1507.4753 M -1581.1148,1546.5953 L -1577.5148,1542.9953 C -1578.6348,1536.5953 -1578.8748,1528.4353 -1577.3548,1520.9953 L -1580.7148,1524.3553 C -1579.1948,1531.9553 -1580.1548,1539.8753 -1581.1148,1546.5953 M -1582.4748,1504.1953 L -1578.8748,1507.7953 C -1574.4748,1506.5953 -1567.8348,1506.5953 -1562.3148,1506.5953 C -1558.6348,1506.5953 -1556.1548,1507.3153 -1554.2348,1509.2353 C -1551.9148,1511.5553 -1551.3548,1514.5953 -1551.3548,1518.1953 C -1551.3548,1529.2353 -1551.6748,1536.8353 -1552.4748,1546.5953 L -1548.8748,1542.9953 C -1549.5948,1535.1553 -1549.6748,1528.4353 -1549.6748,1519.4753 C -1549.6748,1514.5153 -1550.2348,1511.1553 -1552.7948,1508.5953 C -1554.7948,1506.5953 -1557.5148,1505.3953 -1562.3148,1505.3953 C -1568.8748,1505.3953 -1576.4748,1505.3953 -1582.4748,1504.1953 M -1595.9785,1514.9153 C -1595.9785,1518.8353 -1596.6185,1522.2753 -1597.1785,1526.5953 L -1593.5785,1522.9953 C -1594.5385,1520.1953 -1594.7785,1517.3953 -1594.8585,1514.5153 C -1594.8585,1511.0753 -1594.6985,1507.3953 -1594.2185,1504.1953 L -1599.3385,1506.8353 C -1595.8185,1507.6353 -1595.9785,1512.7553 -1595.9785,1514.9153 M -1610.5198,1525.3953 C -1610.7598,1519.1553 -1610.9998,1513.6353 -1614.7598,1509.9553 C -1618.1198,1506.5953 -1622.3598,1505.3953 -1627.7198,1505.3953 C -1631.0798,1505.3953 -1636.4398,1505.2353 -1641.6398,1504.1953 L -1638.0398,1507.7953 C -1634.1198,1506.8353 -1629.4798,1506.5953 -1627.7198,1506.5953 C -1622.4398,1506.5953 -1619.3198,1507.9553 -1616.3598,1510.8353 C -1613.5598,1513.6353 -1612.2798,1519.4753 -1612.3598,1525.3953 C -1612.4398,1533.0753 -1612.5998,1540.5953 -1613.2398,1546.5953 L -1609.6398,1542.9953 C -1610.0398,1537.8753 -1610.3598,1532.4353 -1610.5198,1525.3953 M -1681.5123,1507.7953 C -1681.5123,1518.8353 -1682.2323,1536.8353 -1683.0323,1546.5953 L -1679.3523,1542.9953 C -1680.1523,1535.1553 -1680.1523,1516.4353 -1680.1523,1507.4753 C -1676.0723,1506.5953 -1667.8323,1506.5953 -1662.8723,1506.5953 C -1659.1923,1506.5953 -1656.7123,1507.3153 -1654.7923,1509.2353 C -1652.4723,1511.5553 -1651.9123,1514.5953 -1651.9123,1518.1953 C -1651.9123,1529.2353 -1652.2323,1536.8353 -1653.0323,1546.5953 L -1649.4323,1542.9953 C -1650.1523,1535.1553 -1650.2323,1528.4353 -1650.2323,1519.4753 C -1650.2323,1514.5153 -1650.7923,1511.1553 -1653.3523,1508.5953 C -1655.3523,1506.5953 -1658.0723,1505.3953 -1662.8723,1505.3953 C -1669.4323,1505.3953 -1679.1123,1505.3953 -1685.1123,1504.1953 L -1681.5123,1507.7953 M -1700.271,1507.4753 C -1701.311,1510.1953 -1702.831,1512.4353 -1704.511,1515.2353 L -1700.191,1513.9553 C -1700.351,1511.7153 -1699.871,1509.6353 -1699.071,1507.5553 C -1697.791,1503.8753 -1696.431,1501.3153 -1694.511,1498.8353 L -1701.311,1500.5953 C -1698.271,1502.4353 -1699.711,1505.9553 -1700.271,1507.4753 M -1714.671,1507.4753 C -1715.711,1510.1953 -1717.231,1512.4353 -1718.911,1515.2353 L -1714.591,1513.9553 C -1714.751,1511.7153 -1714.271,1509.6353 -1713.471,1507.5553 C -1712.191,1503.8753 -1710.831,1501.3153 -1708.911,1498.8353 L -1715.711,1500.5953 C -1712.671,1502.4353 -1714.111,1505.9553 -1714.671,1507.4753"
       id="text2578" />
  </g>
</svg>
