<?xml version="1.0" encoding="UTF-8" standalone="no"?>
<!-- Created with Inkscape (http://www.inkscape.org/) -->

<svg
   xmlns:dc="http://purl.org/dc/elements/1.1/"
   xmlns:cc="http://creativecommons.org/ns#"
   xmlns:rdf="http://www.w3.org/1999/02/22-rdf-syntax-ns#"
   xmlns:svg="http://www.w3.org/2000/svg"
   xmlns="http://www.w3.org/2000/svg"
   xmlns:sodipodi="http://sodipodi.sourceforge.net/DTD/sodipodi-0.dtd"
   xmlns:inkscape="http://www.inkscape.org/namespaces/inkscape"
   width="100%"
   height="100%"
   viewBox="0 0 247 95"
   version="1.1"
   id="svg8"
   inkscape:version="0.92.5 (2060ec1f9f, 2020-04-08)"
   sodipodi:docname="ktav_yad.svg">
  <defs
     id="defs2" />
  <sodipodi:namedview
     id="base"
     pagecolor="#ffffff"
     bordercolor="#666666"
     borderopacity="1.0"
     inkscape:pageopacity="0.0"
     inkscape:pageshadow="2"
     inkscape:zoom="0.35"
     inkscape:cx="252.86563"
     inkscape:cy="-100.25119"
     inkscape:document-units="mm"
     inkscape:current-layer="a832"
     showgrid="false"
     fit-margin-top="0"
     fit-margin-left="0"
     fit-margin-right="0"
     fit-margin-bottom="0"
     inkscape:window-width="1600"
     inkscape:window-height="1101"
     inkscape:window-x="0"
     inkscape:window-y="0"
     inkscape:window-maximized="1" />
  <metadata
     id="metadata5">
    <rdf:RDF>
      <cc:Work
         rdf:about="">
        <dc:format>image/svg+xml</dc:format>
        <dc:type
           rdf:resource="http://purl.org/dc/dcmitype/StillImage" />
        <dc:title></dc:title>
      </cc:Work>
    </rdf:RDF>
  </metadata>
  <g
     inkscape:label="Layer 1"
     inkscape:groupmode="layer"
     id="layer1"
     transform="translate(148.92486,-27.308532)">
    <g
       aria-label="זה רעך יצחק הטייס מתעופף
כנשר גדול בין שמים וארץ.
זה רעך יצחק הטייס מתעופף
כנשר גדול בין שמים וארץ.
"
       style="font-style:normal;font-variant:normal;font-weight:normal;font-stretch:normal;font-size:16.93333244px;line-height:125%;font-family:Sans;-inkscape-font-specification:'Adobe Helvetica';letter-spacing:0px;word-spacing:0px;direction:rtl;fill:#000000;fill-opacity:1;stroke:none;stroke-width:0.26458332px;stroke-linecap:butt;stroke-linejoin:miter;stroke-opacity:1"
       id="text817">
      <path
         d="m 92.907174,35.338875 c -0.338666,0.643466 -0.575733,1.27 -1.083733,1.9812 -0.4064,0.575733 -0.8636,1.049866 -1.202267,1.337733 -0.3048,0.254 -0.338666,0.762 -0.237066,0.948267 0.270933,0.541866 0.948266,0.1524 1.5748,0.1524 1.185333,0 2.269066,0.270933 2.861733,0.812799 0.778933,0.728134 0.5588,2.201334 0.1524,2.7432 -0.728133,0.9652 -1.642533,1.4224 -2.5908,1.6256 -1.286933,0.287867 -2.861733,0.440267 -4.2672,-0.338666 -0.3048,-0.1524 -0.6096,-0.423334 -0.8636,-0.2032 -0.169333,0.1524 -0.08467,0.643466 0.186267,0.846666 1.1176,0.880534 1.998133,0.9652 3.369733,0.982134 0.897467,0.01693 1.947333,-0.0508 3.048,-0.524934 0.795867,-0.338666 1.998133,-1.083733 2.506133,-2.3368 0.7112,-1.761066 0.06773,-2.963333 -0.643466,-3.708399 -0.948267,-0.9652 -2.404534,-1.1684 -3.285067,-1.134534 0.643467,-0.7112 1.1684,-1.642533 1.439333,-2.2352 0.2032,-0.474133 0.3556,-1.0668 -0.08467,-1.354666 -0.338667,-0.186267 -0.745067,0.135466 -0.880534,0.4064 z"
         style="font-style:normal;font-variant:normal;font-weight:normal;font-stretch:normal;font-family:'Ktav Yad CLM';-inkscape-font-specification:'Ktav Yad CLM';stroke-width:0.26458332px"
         id="path4648"
         inkscape:connector-curvature="0" />
      <path
         d="m 77.97198,43.179008 c -0.169334,0.220133 -0.0508,0.575733 0.254,0.643466 0.372533,0.06773 0.7112,0.2032 0.778933,0.575734 0.06773,0.423333 -0.541867,0.846666 -0.7112,1.2192 -0.3048,0.592666 0.491067,0.677333 0.880533,0.4064 0.5588,-0.389467 0.829734,-0.745067 0.999067,-1.151467 0.220133,-0.575733 0.1524,-1.134533 -0.186267,-1.507067 -0.338666,-0.372533 -0.8636,-0.474133 -1.151466,-0.491066 -0.3048,-0.03387 -0.6096,-0.01693 -0.8636,0.3048 z m -1.8796,-4.064 c -0.4064,0.270933 -0.474134,0.592667 -0.372534,0.9144 0.06773,0.2032 0.508,0.440266 0.9144,0.169333 0.677334,-0.440266 1.303867,-0.7112 2.201334,-1.032933 0.694266,-0.237067 2.861733,-0.778933 4.453466,-0.0508 1.7272,0.8128 2.3876,2.573866 1.998133,4.182533 -0.270933,1.100667 -0.745066,1.862667 -1.303866,2.5908 -0.135467,0.186267 -0.08467,0.491067 0.372533,0.4064 0.3048,-0.0508 0.626533,-0.321733 0.9144,-0.6604 0.389467,-0.491067 1.236133,-1.591733 1.337733,-3.0988 0.08467,-1.337733 -0.372533,-2.6416 -1.507066,-3.742266 -1.134534,-1.0668 -2.675467,-1.286934 -3.742267,-1.303867 -2.015066,-0.03387 -3.894666,0.677333 -5.266266,1.6256 z"
         style="font-style:normal;font-variant:normal;font-weight:normal;font-stretch:normal;font-family:'Ktav Yad CLM';-inkscape-font-specification:'Ktav Yad CLM';stroke-width:0.26458332px"
         id="path4650"
         inkscape:connector-curvature="0" />
      <path
         d="m 52.77523,40.486608 c -0.08467,0.270933 -0.01693,0.592666 0.254,0.643466 0.270933,0.06773 0.491066,-0.220133 0.7112,-0.491066 0.982133,-1.27 2.201333,-2.116667 3.928533,-2.116667 1.540933,0 2.6416,1.016 2.912533,2.3368 0.3556,1.811867 -0.321733,3.437467 -1.3208,4.826 -0.1524,0.2032 -0.321733,0.440267 -0.1524,0.6096 0.1524,0.186267 0.338667,0.06773 0.6096,-0.1016 0.423333,-0.254 0.643467,-0.474133 0.9652,-0.880533 1.286933,-1.659467 1.490133,-3.640667 0.9144,-5.300133 -0.524933,-1.456267 -1.744133,-2.607734 -3.640667,-2.726267 -1.591733,-0.08467 -3.132666,0.524933 -4.080933,1.388533 -0.626533,0.5588 -0.9144,1.151467 -1.100666,1.811867 z"
         style="font-style:normal;font-variant:normal;font-weight:normal;font-stretch:normal;font-family:'Ktav Yad CLM';-inkscape-font-specification:'Ktav Yad CLM';stroke-width:0.26458332px"
         id="path4652"
         inkscape:connector-curvature="0" />
      <path
         d="m 49.219237,38.962608 c 0.948266,0.372533 1.253066,1.9304 0.999066,2.827866 -0.220133,0.728134 -0.626533,1.388534 -1.761066,2.1844 -0.846667,0.6096 -1.794934,0.9144 -2.573867,1.032934 -0.423333,0.06773 -0.931333,0.135466 -0.01693,-1.710267 0.795866,-1.557867 1.998133,-3.048 3.3528,-4.334933 z m 1.083733,-2.7432 c -0.474133,0.3556 -0.8636,0.778933 -1.507067,1.337733 -0.846666,-0.186266 -1.456266,-0.338666 -2.404533,-0.389466 -0.999067,-0.03387 -1.540933,0.03387 -2.54,0.169333 -0.389466,0.06773 -1.253066,0.254 -0.6096,0.762 0.2032,0.169333 0.999067,0.1524 1.964267,0.2032 0.9144,0.0508 1.761066,0.06773 2.6924,0.237067 -1.253067,1.202266 -2.777067,3.572933 -3.4036,4.893733 -0.372533,0.762 -0.592667,1.6256 -0.3048,2.1336 0.321733,0.575733 0.8636,0.778933 1.524,0.694266 1.151466,-0.135466 1.9812,-0.4572 2.7432,-0.846666 0.694266,-0.3556 1.303866,-0.829734 1.896533,-1.456267 0.762,-0.795867 1.134533,-1.896533 1.1176,-3.014133 -0.03387,-1.202267 -0.8128,-2.421467 -1.405467,-2.777067 0.508,-0.474133 0.795867,-0.694266 1.2192,-1.151466 0.3048,-0.321734 0.321734,-0.592667 0.118534,-0.880534 -0.321734,-0.423333 -0.762,-0.169333 -1.100667,0.08467 z"
         style="font-style:normal;font-variant:normal;font-weight:normal;font-stretch:normal;font-family:'Ktav Yad CLM';-inkscape-font-specification:'Ktav Yad CLM';stroke-width:0.26458332px"
         id="path4654"
         inkscape:connector-curvature="0" />
      <path
         d="m 33.030987,38.776341 c -0.220134,0.2032 -0.254,0.728134 -0.03387,1.016 0.220133,0.270934 0.626533,0.1524 0.9144,-0.08467 0.6096,-0.508 1.4732,-0.9652 2.3876,-1.100667 1.27,-0.186267 2.607733,0.01693 3.572933,0.880533 0.931333,0.846667 1.1684,2.116667 0.897467,3.115733 -0.3556,1.286934 -1.490134,1.964267 -2.675467,2.099734 -1.27,0.169333 -2.421466,-0.270934 -3.7592,-0.592667 -0.6096,-0.135467 -1.253066,0.1016 -1.456266,0.694267 -0.3048,0.880533 -0.508,1.6256 -0.795867,2.658533 -0.3556,1.253066 -0.7112,2.099733 -1.2192,3.4036 -0.541866,1.354666 -1.2192,2.539999 -1.557866,3.589866 -0.1016,0.3556 0.169333,0.931333 0.592666,0.897467 0.846667,-0.03387 1.456267,-0.423334 2.048933,-0.846667 1.016,-0.728133 1.9812,-1.5748 2.421467,-2.1336 0.423333,-0.541866 0.0508,-0.8128 -0.270933,-0.575733 -0.677334,0.524933 -2.032,1.303866 -3.115734,1.862666 0.728134,-1.540933 1.405467,-3.132666 2.150534,-5.418666 0.321733,-0.999067 0.4572,-1.540933 0.795866,-2.5908 0.135467,-0.474133 0.4064,-0.575733 0.745067,-0.4572 0.795867,0.270934 1.303867,0.440267 2.150533,0.541867 1.0668,0.135467 2.2352,0.08467 3.166533,-0.4572 1.456267,-0.8128 2.0828,-1.964267 2.1336,-3.2512 0.0508,-1.286933 -0.338666,-2.286 -1.1176,-3.183466 -0.8636,-0.9652 -2.2352,-1.456267 -3.6068,-1.507067 -1.473199,-0.0508 -3.115733,0.338667 -4.368799,1.439333 z"
         style="font-style:normal;font-variant:normal;font-weight:normal;font-stretch:normal;font-family:'Ktav Yad CLM';-inkscape-font-specification:'Ktav Yad CLM';stroke-width:0.26458332px"
         id="path4656"
         inkscape:connector-curvature="0" />
      <path
         d="m 18.925556,37.777275 c -0.287867,0.575733 -0.9144,1.8796 -1.286933,2.573866 -0.2032,0.3556 -0.287867,0.8636 0.08467,1.032933 0.338667,0.169334 0.795867,-0.1016 1.016,-0.491066 0.321734,-0.5588 1.151467,-2.0828 1.354667,-2.556933 0.135466,-0.338667 0,-0.762 -0.3556,-0.9144 -0.321733,-0.135467 -0.6604,0.03387 -0.8128,0.3556 z"
         style="font-style:normal;font-variant:normal;font-weight:normal;font-stretch:normal;font-family:'Ktav Yad CLM';-inkscape-font-specification:'Ktav Yad CLM';stroke-width:0.26458332px"
         id="path4658"
         inkscape:connector-curvature="0" />
      <path
         d="m 8.6978425,35.203408 c -0.2878667,0.8128 0.3894666,0.931333 0.7619999,0.541867 0.5587996,-0.592667 0.9313336,-0.9652 1.5747996,-1.4224 0.778934,-0.5588 1.439334,-0.8636 2.3368,-0.846667 0.643467,0.01693 0.948267,0.846667 0.728134,1.490133 -0.287867,0.795867 -0.9144,1.524 -1.8288,2.353734 -0.677334,0.626533 -0.7112,0.372533 -1.202267,0.592666 -0.508,0.237067 -0.677333,0.575734 -0.4572,0.897467 0.338667,0.541867 0.694267,0.3048 1.083733,0.237067 0.237067,-0.03387 0.4064,0 0.6096,0.118533 0.9144,0.626533 1.591734,1.286933 1.557867,2.3876 -0.06773,1.540933 -1.016,2.455333 -2.3876,3.115733 -1.0668,0.508 -2.6754665,0.592667 -4.0131998,0.524933 -1.2530666,-0.0508 -2.5907999,-0.3556 -3.7591998,-0.829733 -0.4064,-0.1524 -0.508,0.389467 -0.3048,0.508 1.3715999,0.829733 3.2003999,1.3716 5.3001331,1.388533 1.4223995,0.01693 3.0987995,-0.389466 4.3179995,-1.151466 1.1684,-0.728134 1.9304,-1.693334 2.0828,-3.183467 0.1524,-1.540933 -0.5588,-2.6924 -1.6764,-3.522133 -0.186266,-0.118533 -0.01693,-0.389467 0.1524,-0.541867 0.643467,-0.575733 1.845733,-2.065866 1.8796,-3.623733 0.01693,-1.016 -0.575733,-2.015066 -2.099733,-2.032 -1.185333,0 -2.2352,0.508 -3.234267,1.202267 -0.4741329,0.338667 -1.1683995,1.049866 -1.4223995,1.794933 z"
         style="font-style:normal;font-variant:normal;font-weight:normal;font-stretch:normal;font-family:'Ktav Yad CLM';-inkscape-font-specification:'Ktav Yad CLM';stroke-width:0.26458332px"
         id="path4660"
         inkscape:connector-curvature="0" />
      <path
         d="m -6.982394,45.617408 c -0.0508,0.270933 0,0.6096 0.2709333,0.6096 0.2709334,0 0.5926667,-0.5588 0.7958667,-1.032934 0.4402666,-1.032933 0.8127999,-1.8796 1.1175999,-2.709333 0.2032,-0.5588 0.3048,-0.9652 0.6265333,-1.540933 0.1185333,-0.220134 0.4233333,-0.135467 0.6434666,-0.321734 0.3556,-0.3048 0.3386667,-0.677333 0.7112,-0.999066 0.8128,-0.728133 1.5917332,-1.100667 2.48919987,-1.0668 1.08373328,0.0508 1.94733323,0.592667 2.30293323,1.3716 0.3386666,0.778933 0.3217333,1.811866 0.033867,2.624666 -0.2370666,0.643467 -0.6603999,1.540934 -1.42239988,2.4892 -0.32173332,0.4064 -0.69426663,0.9652 -0.44026664,1.2192 0.22013332,0.237067 0.91439992,-0.389466 1.32079992,-0.8636 0.5926666,-0.7112 0.9482666,-1.151466 1.3207999,-1.8796 0.5418667,-1.0668 0.7450667,-2.218266 0.6434667,-3.081866 -0.1016,-0.795867 -0.3894667,-1.490133 -0.9652,-2.048933 -0.5757333,-0.5588 -1.4223999,-0.9652 -2.35373319,-1.0668 -0.59266663,-0.0508 -0.94826661,-0.03387 -1.50706661,0.1016 -0.6773333,0.186266 -1.0667999,0.338666 -1.6086666,0.745066 -0.2031999,0.1524 -0.4402666,0.3556 -0.6603999,0.254 -0.2201333,-0.08467 -0.3048,-0.186266 -0.5249333,-0.220133 -0.3048,-0.03387 -0.508,0.287867 -0.5757333,0.541867 -0.4064,1.354666 -0.3556,1.2192 -0.7112,2.099733 -0.4741333,1.151466 -0.6773333,1.8288 -1.0498666,2.9972 -0.2201333,0.677333 -0.3386667,0.999066 -0.4572004,1.778 z"
         style="font-style:normal;font-variant:normal;font-weight:normal;font-stretch:normal;font-family:'Ktav Yad CLM';-inkscape-font-specification:'Ktav Yad CLM';stroke-width:0.26458332px"
         id="path4662"
         inkscape:connector-curvature="0" />
      <path
         d="m -13.332367,41.248608 c -0.423334,-0.118534 -0.778934,0.270933 -0.880534,0.677333 -0.423333,1.591733 -1.236133,3.826933 -2.235199,6.163733 -1.1684,2.6924 -1.947334,4.1656 -3.3528,6.7056 -0.3048,0.541866 -0.829734,1.202266 -0.8128,1.3208 0.03387,0.254 0.423333,0.287866 0.643466,0.135466 0.728134,-0.4572 0.999067,-0.846666 1.4732,-1.557866 1.405467,-2.150533 2.218267,-3.9624 3.217333,-6.1468 1.0668,-2.353733 1.710267,-4.3688 2.286,-6.2484 0.118534,-0.4064 0.06773,-0.9144 -0.338666,-1.049866 z M -16.3973,40.418874 c 0.237066,0.270934 0.745066,-0.08467 1.100666,-0.389466 0.575733,-0.491067 1.456267,-0.948267 2.4384,-1.2192 1.354667,-0.3556 2.455333,-0.186267 3.3697331,0.423333 0.7112,0.491067 1.0668,1.4224 0.9313333,2.319867 -0.1185333,0.762 -0.4741333,1.337733 -1.1514666,1.794933 -0.3725328,0.254 -1.0159998,0.237067 -0.9482668,0.677333 0.03387,0.3048 0.389467,0.321734 0.7112002,0.254 0.5079999,-0.1016 0.7111999,-0.2032 1.1006666,-0.491066 0.6773333,-0.491067 1.4054666,-1.202267 1.5578666,-2.573867 0.1185333,-1.0668 -0.3386667,-2.065866 -1.27,-2.878666 -0.6942666,-0.592667 -1.7949334,-0.982134 -2.8447994,-0.982134 -0.897467,0 -1.794934,0.2032 -2.624667,0.508 -0.999067,0.372534 -1.642533,0.795867 -2.2352,1.490134 -0.287866,0.321733 -0.491066,0.677333 -0.135466,1.066799 z"
         style="font-style:normal;font-variant:normal;font-weight:normal;font-stretch:normal;font-family:'Ktav Yad CLM';-inkscape-font-specification:'Ktav Yad CLM';stroke-width:0.26458332px"
         id="path4664"
         inkscape:connector-curvature="0" />
      <path
         d="m -39.189519,43.179008 c -0.169334,0.220133 -0.0508,0.575733 0.254,0.643466 0.372533,0.06773 0.7112,0.2032 0.778933,0.575734 0.06773,0.423333 -0.541867,0.846666 -0.7112,1.2192 -0.3048,0.592666 0.491067,0.677333 0.880533,0.4064 0.5588,-0.389467 0.829734,-0.745067 0.999067,-1.151467 0.220133,-0.575733 0.1524,-1.134533 -0.186267,-1.507067 -0.338666,-0.372533 -0.8636,-0.474133 -1.151466,-0.491066 -0.3048,-0.03387 -0.6096,-0.01693 -0.8636,0.3048 z m -1.8796,-4.064 c -0.4064,0.270933 -0.474134,0.592667 -0.372534,0.9144 0.06773,0.2032 0.508,0.440266 0.9144,0.169333 0.677334,-0.440266 1.303867,-0.7112 2.201334,-1.032933 0.694266,-0.237067 2.861733,-0.778933 4.453466,-0.0508 1.7272,0.8128 2.3876,2.573866 1.998133,4.182533 -0.270933,1.100667 -0.745066,1.862667 -1.303866,2.5908 -0.135467,0.186267 -0.08467,0.491067 0.372533,0.4064 0.3048,-0.0508 0.626533,-0.321733 0.9144,-0.6604 0.389467,-0.491067 1.236133,-1.591733 1.337733,-3.0988 0.08467,-1.337733 -0.372533,-2.6416 -1.507066,-3.742266 -1.134534,-1.0668 -2.675467,-1.286934 -3.742267,-1.303867 -2.015066,-0.03387 -3.894666,0.677333 -5.266266,1.6256 z"
         style="font-style:normal;font-variant:normal;font-weight:normal;font-stretch:normal;font-family:'Ktav Yad CLM';-inkscape-font-specification:'Ktav Yad CLM';stroke-width:0.26458332px"
         id="path4666"
         inkscape:connector-curvature="0" />
      <path
         d="m -44.608192,33.984208 c -0.8636,0.1016 -1.8796,0.4064 -2.8448,0.829733 -1.151466,0.508 -2.421466,1.405467 -3.420533,2.404534 -0.8636,0.8636 -1.5748,1.964266 -1.964266,3.454399 -0.338667,1.27 -0.423334,2.624667 0.1016,3.691467 0.626533,1.303867 1.828799,1.896533 3.149599,1.913467 1.557867,0.03387 3.115734,-0.6096 4.3688,-1.642534 0.694267,-0.575733 1.591733,-1.557866 2.218267,-2.6924 0.135466,-0.270933 0.270933,-1.032933 -0.1016,-1.1684 -0.440267,-0.1524 -0.795867,0.254 -0.982134,0.6604 -0.186266,0.389467 -1.236133,1.811867 -2.387599,2.5908 -1.388534,0.931334 -3.1496,1.253067 -4.2672,0.677334 -0.9144,-0.4572 -1.151467,-1.4224 -1.100667,-2.353734 0.0508,-1.2192 0.4064,-2.539999 1.354667,-3.809999 0.8128,-1.083734 1.9304,-2.048934 2.861733,-2.573867 0.931333,-0.524933 1.845733,-0.795867 2.573866,-0.982133 0.575734,-0.135467 1.354667,-0.254 1.405467,-0.626534 0.0508,-0.389466 -0.575733,-0.4064 -0.9652,-0.372533 z"
         style="font-style:normal;font-variant:normal;font-weight:normal;font-stretch:normal;font-family:'Ktav Yad CLM';-inkscape-font-specification:'Ktav Yad CLM';stroke-width:0.26458332px"
         id="path4668"
         inkscape:connector-curvature="0" />
      <path
         d="m -55.056027,37.777275 c -0.287866,0.575733 -0.9144,1.8796 -1.286933,2.573866 -0.2032,0.3556 -0.287867,0.8636 0.08467,1.032933 0.338666,0.169334 0.795866,-0.1016 1.016,-0.491066 0.321733,-0.5588 1.151466,-2.0828 1.354666,-2.556933 0.135467,-0.338667 0,-0.762 -0.3556,-0.9144 -0.321733,-0.135467 -0.6604,0.03387 -0.8128,0.3556 z"
         style="font-style:normal;font-variant:normal;font-weight:normal;font-stretch:normal;font-family:'Ktav Yad CLM';-inkscape-font-specification:'Ktav Yad CLM';stroke-width:0.26458332px"
         id="path4670"
         inkscape:connector-curvature="0" />
      <path
         d="m -59.10307,37.777275 c -0.287866,0.575733 -0.9144,1.8796 -1.286933,2.573866 -0.2032,0.3556 -0.287867,0.8636 0.08467,1.032933 0.338666,0.169334 0.795866,-0.1016 1.016,-0.491066 0.321733,-0.5588 1.151466,-2.0828 1.354666,-2.556933 0.135467,-0.338667 0,-0.762 -0.3556,-0.9144 -0.321733,-0.135467 -0.6604,0.03387 -0.8128,0.3556 z"
         style="font-style:normal;font-variant:normal;font-weight:normal;font-stretch:normal;font-family:'Ktav Yad CLM';-inkscape-font-specification:'Ktav Yad CLM';stroke-width:0.26458332px"
         id="path4672"
         inkscape:connector-curvature="0" />
      <path
         d="m -71.379703,42.620208 c 0.08467,-0.9144 0.592667,-1.998134 1.3208,-2.54 0.287867,0.06773 0.846667,0.06773 1.185333,-0.270933 0.372534,-0.3556 1.811867,-1.439334 3.2004,-1.202267 1.286934,0.237067 2.032,1.456267 1.8288,2.7432 -0.169333,1.083733 -1.083733,2.1844 -2.116666,2.794 -1.540934,0.931333 -3.183467,1.185333 -4.284133,0.677333 -0.7112,-0.321733 -1.236134,-0.982133 -1.134534,-2.201333 z m 0.186267,-3.132667 c -0.440267,0.474134 -1.016,1.4732 -1.202267,2.269067 -0.2032,0.880533 -0.423333,2.370666 0.4572,3.335866 0.745067,0.829734 1.8288,1.202267 3.1496,1.202267 1.3208,0.01693 2.54,-0.4064 3.793067,-1.286933 1.016,-0.7112 1.896533,-1.8796 2.201333,-3.014134 0.237066,-0.9144 0.135466,-2.031999 -0.389467,-2.946399 -0.5588,-0.9652 -1.388533,-1.6256 -2.9972,-1.744134 -0.8128,-0.0508 -1.7272,0.321734 -2.099733,0.5588 -0.3556,-0.1016 -0.7112,-0.0508 -1.0668,0.135467 -0.508,0.270933 -1.286933,0.880533 -1.845733,1.490133 z"
         style="font-style:normal;font-variant:normal;font-weight:normal;font-stretch:normal;font-family:'Ktav Yad CLM';-inkscape-font-specification:'Ktav Yad CLM';stroke-width:0.26458332px"
         id="path4674"
         inkscape:connector-curvature="0" />
      <path
         d="m -96.305526,45.109408 c -0.1524,0.338666 -0.440266,0.829733 -0.08467,1.049866 0.423333,0.3048 0.931333,-0.135466 1.185333,-0.592666 0.795867,-1.456267 1.27,-2.624667 1.998133,-4.1148 0.118534,-0.254 0.5588,-0.389467 0.728134,-0.1524 0.372533,0.592666 1.540933,2.9464 1.981199,3.674533 0.4064,0.7112 0.778934,1.388533 1.608667,1.337733 0.694267,-0.03387 1.0668,-0.643466 1.591733,-1.710266 0.541867,-1.1176 1.354667,-3.031067 1.896534,-4.182534 0.626533,-1.371599 1.422399,-3.031066 1.964266,-4.131733 0.2032,-0.4064 0.338667,-0.982133 -0.03387,-1.185333 -0.474133,-0.254 -0.9144,0.254 -1.134533,0.7112 -0.474133,0.982133 -3.3528,7.332133 -3.843866,8.314266 -0.2032,0.389467 -0.6604,0.9652 -1.032934,0.3556 -0.897466,-1.405466 -2.048933,-4.0132 -2.929466,-5.079999 -0.3048,-0.338667 -0.880533,-0.1016 -1.151467,0.254 -0.728133,0.948266 -1.100666,1.964266 -1.778,3.403599 -0.389466,0.8128 -0.524933,1.032934 -0.9652,2.048934 z"
         style="font-style:normal;font-variant:normal;font-weight:normal;font-stretch:normal;font-family:'Ktav Yad CLM';-inkscape-font-specification:'Ktav Yad CLM';stroke-width:0.26458332px"
         id="path4676"
         inkscape:connector-curvature="0" />
      <path
         d="m -105.50031,39.961675 c -0.0339,0.914399 0.1016,1.557866 -0.0677,2.472266 -0.254,1.286933 -0.82973,2.252133 -1.65947,2.878667 -0.6604,0.491066 -1.4224,0.829733 -2.40453,0.829733 -0.6604,0 -1.65947,-0.0508 -2.15053,-0.389467 -0.16934,-0.1016 -0.38947,-0.169333 -0.508,-0.03387 -0.52494,0.592666 1.10066,1.151466 1.18533,1.151466 1.10067,0.237067 2.50613,0.287867 3.74227,-0.254 1.35466,-0.592666 2.42146,-1.845733 2.86173,-3.2512 0.22013,-0.7112 0.32173,-1.693333 0.254,-2.607733 -0.0339,-0.287867 0.11853,-0.440267 0.28787,-0.694266 0.28786,-0.4572 0.762,-0.880534 1.4224,-1.1684 1.25306,-0.541867 2.997196,-0.3048 3.742262,0.575733 1.100667,1.303866 0.4572,3.437466 -0.287867,4.944533 -0.3048,0.592667 -0.474133,0.931333 -0.795866,1.490133 -0.118533,0.2032 -0.152399,0.4572 0.03387,0.5588 0.220133,0.1524 0.440266,-0.06773 0.660399,-0.254 0.389467,-0.338666 0.948267,-1.049866 1.337734,-1.744133 0.897466,-1.608667 1.134533,-2.9972 0.7112,-4.572 -0.287867,-1.032933 -1.151467,-1.862666 -1.9812,-2.1844 -1.574802,-0.592666 -3.420532,-0.4572 -4.758272,0.4572 -0.27093,0.186267 -0.6604,0.575734 -1.04986,1.0668 -0.11854,0.1524 -0.5588,0.08467 -0.57574,0.728134 z"
         style="font-style:normal;font-variant:normal;font-weight:normal;font-stretch:normal;font-family:'Ktav Yad CLM';-inkscape-font-specification:'Ktav Yad CLM';stroke-width:0.26458332px"
         id="path4678"
         inkscape:connector-curvature="0" />
      <path
         d="m -112.29057,38.962608 c 0.94826,0.372533 1.25306,1.9304 0.99906,2.827866 -0.22013,0.728134 -0.62653,1.388534 -1.76106,2.1844 -0.84667,0.6096 -1.79494,0.9144 -2.57387,1.032934 -0.42333,0.06773 -0.93133,0.135466 -0.0169,-1.710267 0.79586,-1.557867 1.99813,-3.048 3.3528,-4.334933 z m 1.08373,-2.7432 c -0.47413,0.3556 -0.8636,0.778933 -1.50707,1.337733 -0.84666,-0.186266 -1.45626,-0.338666 -2.40453,-0.389466 -0.99907,-0.03387 -1.54093,0.03387 -2.54,0.169333 -0.38947,0.06773 -1.25307,0.254 -0.6096,0.762 0.2032,0.169333 0.99907,0.1524 1.96427,0.2032 0.9144,0.0508 1.76106,0.06773 2.6924,0.237067 -1.25307,1.202266 -2.77707,3.572933 -3.4036,4.893733 -0.37254,0.762 -0.59267,1.6256 -0.3048,2.1336 0.32173,0.575733 0.8636,0.778933 1.524,0.694266 1.15146,-0.135466 1.9812,-0.4572 2.7432,-0.846666 0.69426,-0.3556 1.30386,-0.829734 1.89653,-1.456267 0.762,-0.795867 1.13453,-1.896533 1.1176,-3.014133 -0.0339,-1.202267 -0.8128,-2.421467 -1.40547,-2.777067 0.508,-0.474133 0.79587,-0.694266 1.2192,-1.151466 0.3048,-0.321734 0.32174,-0.592667 0.11854,-0.880534 -0.32174,-0.423333 -0.762,-0.169333 -1.10067,0.08467 z"
         style="font-style:normal;font-variant:normal;font-weight:normal;font-stretch:normal;font-family:'Ktav Yad CLM';-inkscape-font-specification:'Ktav Yad CLM';stroke-width:0.26458332px"
         id="path4680"
         inkscape:connector-curvature="0" />
      <path
         d="m -118.03094,35.660608 c -0.254,-0.135467 -0.59267,-0.06773 -0.69427,0.2032 -0.3556,0.9144 -0.77893,2.015067 -1.2192,3.031067 -0.4064,0.982133 -0.84667,2.116666 -1.3208,3.132666 -0.44027,0.931333 -1.016,2.167467 -1.55787,3.318933 -0.13546,0.321734 -0.23706,0.728134 0.0339,0.880534 0.47413,0.304799 1.20227,-0.694267 1.40547,-1.083734 0.28786,-0.541866 0.6096,-1.2192 0.93133,-1.862666 0.4572,-0.999067 0.88053,-1.9304 1.38853,-3.2004 0.44027,-1.0668 0.88054,-2.2352 1.33774,-3.5052 0.11853,-0.3556 0.0339,-0.745067 -0.3048,-0.9144 z"
         style="font-style:normal;font-variant:normal;font-weight:normal;font-stretch:normal;font-family:'Ktav Yad CLM';-inkscape-font-specification:'Ktav Yad CLM';stroke-width:0.26458332px"
         id="path4682"
         inkscape:connector-curvature="0" />
      <path
         d="m -130.86638,39.893941 c 0.28786,-0.287866 0.86359,-0.694266 1.42239,-0.9652 0.8128,-0.389466 1.45627,-0.440266 2.35374,-0.3556 0.98213,0.1016 1.7272,0.6604 2.06586,1.405467 0.28787,0.677333 0.3556,1.710266 -0.0677,2.658533 -0.54187,1.202267 -1.64253,2.015067 -2.65853,2.370667 -1.15147,0.4064 -2.3368,0.3048 -3.03107,-0.338667 -0.32173,-0.287867 -0.37253,-0.7112 -0.0847,-1.083733 0.23706,-0.3048 0.64346,-0.508 1.11759,-0.6604 0.82974,-0.254 1.3716,0.3048 1.60867,-0.270934 0.254,-0.626533 -0.94827,-1.134533 -1.99813,-0.8636 -0.79587,0.2032 -1.54093,0.745067 -1.79493,1.4224 -0.254,0.6604 -0.2032,1.439334 0.3048,2.065867 0.62653,0.829733 1.71026,1.016 2.43839,1.016 1.10067,0 2.286,-0.2032 3.43747,-1.032933 0.89747,-0.643467 1.6764,-1.557867 2.01507,-2.912534 0.38946,-1.591733 0.0508,-3.047999 -0.82974,-3.945466 -0.94826,-0.948267 -2.11666,-1.151467 -3.2004,-1.1176 -0.84666,0.03387 -1.30386,0.118533 -2.25213,0.508 -0.84666,0.3556 -1.50706,0.846667 -1.8288,1.4224 -0.22013,0.372533 -0.0847,0.982133 0.1016,1.083733 0.22014,0.135467 0.57574,-0.1016 0.88054,-0.4064 z"
         style="font-style:normal;font-variant:normal;font-weight:normal;font-stretch:normal;font-family:'Ktav Yad CLM';-inkscape-font-specification:'Ktav Yad CLM';stroke-width:0.26458332px"
         id="path4684"
         inkscape:connector-curvature="0" />
      <path
         d="m -133.3725,38.996475 c 0.9652,-2.472267 1.91347,-4.487334 2.54,-5.909733 0.4572,-0.118534 0.9652,-0.220134 1.45627,-0.4064 1.03293,-0.389467 1.778,-0.8636 2.35373,-1.591734 0.62653,-0.8128 1.04987,-1.964266 0.42333,-2.624666 -0.4572,-0.474134 -1.2192,-0.575734 -2.47226,0.08467 -1.28694,0.677334 -1.96427,1.761067 -2.82787,3.5052 -1.33773,0.237067 -2.9972,0.5588 -4.74133,1.100667 -1.2192,0.389467 -2.57387,0.999066 -3.67453,1.7272 -0.88054,0.592666 -1.9812,1.7272 -1.8796,2.675466 0.0847,0.897467 0.67733,1.354667 1.4732,1.778 0.57573,0.321734 1.4224,0.508 1.96426,0.575734 0.54187,0.06773 0.82973,-0.01693 0.89747,-0.254 0.0847,-0.254 -0.22014,-0.4572 -0.508,-0.508 -0.79587,-0.118534 -1.69333,-0.440267 -2.15053,-0.829734 -0.64347,-0.5588 -0.49107,-1.236133 -0.0169,-1.710266 0.94827,-0.9144 2.4892,-1.6256 3.9624,-2.167467 1.23613,-0.4572 2.82787,-0.762 4.19947,-1.016 -1.30387,2.8448 -1.64254,3.928533 -2.67547,6.434667 -0.254,0.626533 -0.49107,1.286933 -0.64347,1.574799 -0.0169,-0.270933 0.0169,-0.4064 -0.22013,-0.491066 -0.42333,-0.135467 -1.10067,0.270933 -1.5748,0.846666 -0.59267,0.7112 -0.99907,1.6764 -1.04987,2.472267 -0.0677,0.829733 0.0339,1.761067 0.69427,1.998133 0.7112,0.270933 1.40547,-0.474133 1.8288,-1.236133 0.77893,-1.405467 2.1336,-4.758267 2.6416,-6.028266 z m -2.45533,2.760133 c -0.3556,0.778933 -0.8636,1.9812 -1.2192,2.523066 -0.13547,0.2032 -0.74507,0.728134 -0.44027,-0.287866 0.3048,-1.032934 1.0668,-2.167467 1.65947,-2.2352 z m 5.55413,-10.041466 c 0.3048,-0.6604 1.04987,-1.7272 1.91347,-2.116667 1.18533,-0.524933 1.10066,0.135467 0.2032,0.982133 -0.64347,0.6096 -1.43934,0.9652 -2.11667,1.134534 z"
         style="font-style:normal;font-variant:normal;font-weight:normal;font-stretch:normal;font-family:'Ktav Yad CLM';-inkscape-font-specification:'Ktav Yad CLM';stroke-width:0.26458332px"
         id="path4686"
         inkscape:connector-curvature="0" />
      <path
         d="m 89.622108,59.811509 c -0.3556,0.220133 -0.592667,0.6096 -0.389467,0.9652 0.169334,0.321733 0.575733,0.3556 0.9144,0.186266 0.4572,-0.220133 1.778,-0.626533 2.929467,-0.491066 1.202266,0.1524 2.1336,1.083733 2.3368,2.116666 0.237066,1.253067 -0.321734,2.573867 -1.388534,3.4036 -0.897466,0.694267 -2.167466,1.100667 -3.488266,1.049867 -1.185333,-0.03387 -2.167467,-0.3048 -2.963333,-0.575733 -0.491067,-0.1524 -1.049867,-0.2032 -1.236134,0.08467 -0.220133,0.338667 0.3048,0.6096 0.677334,0.762 0.643466,0.270933 1.4732,0.5588 2.4384,0.694267 0.812799,0.118533 1.456266,0.135466 2.167466,0.03387 1.27,-0.169333 2.404533,-0.474133 3.556,-1.371599 0.999066,-0.778934 1.4732,-1.913467 1.557866,-2.8956 0.1016,-1.354667 -0.270933,-2.472267 -1.117599,-3.386667 -0.745067,-0.795866 -1.896534,-1.202266 -3.031067,-1.2192 -0.8636,0 -2.252133,0.2032 -2.963333,0.643467 z"
         style="font-style:normal;font-variant:normal;font-weight:normal;font-stretch:normal;font-family:'Ktav Yad CLM';-inkscape-font-specification:'Ktav Yad CLM';stroke-width:0.26458332px"
         id="path4688"
         inkscape:connector-curvature="0" />
      <path
         d="m 75.076385,73.764575 c 1.032933,0.762 2.607733,1.049866 3.996266,0.592666 1.151467,-0.389466 2.2352,-1.202266 2.9972,-2.235199 0.795867,-1.0668 1.524,-2.472267 1.998133,-3.7084 0.592667,-1.540933 1.134534,-3.048 1.6256,-4.318 0.440267,-1.151467 1.0668,-2.658533 1.693334,-3.7592 0.2032,-0.3556 0.2032,-0.846666 -0.118534,-1.049866 -0.4064,-0.237067 -0.745066,0.118533 -0.982133,0.474133 -0.8636,1.27 -1.524,3.2004 -2.048933,4.690533 -0.440267,1.236133 -1.032934,2.8448 -1.591733,4.199466 -0.508,1.185334 -1.185334,2.556934 -2.048934,3.386667 -0.9144,0.8636 -1.794933,1.4224 -2.861733,1.490133 -0.592667,0.0508 -0.948266,-0.03387 -1.490133,-0.270933 -0.778933,-0.3556 -1.286933,-0.846667 -1.744133,-1.354667 -0.2032,-0.220133 -0.5588,-0.118533 -0.474134,0.186267 0.1524,0.5588 0.575734,1.3208 1.049867,1.6764 z"
         style="font-style:normal;font-variant:normal;font-weight:normal;font-stretch:normal;font-family:'Ktav Yad CLM';-inkscape-font-specification:'Ktav Yad CLM';stroke-width:0.26458332px"
         id="path4690"
         inkscape:connector-curvature="0" />
      <path
         d="m 73.484661,64.637509 c -0.186266,-1.490134 0.440267,-2.573867 1.388534,-3.3528 0.9144,-0.745067 1.9304,-1.3716 2.9464,-0.762 0.321733,0.186267 0.3556,0.745066 0.220133,1.016 -0.3556,0.795866 -0.931333,1.303866 -1.337733,1.591733 -0.778934,0.5588 -1.862667,1.134533 -3.217334,1.507067 z m 8.500533,0.254 c -0.3556,-0.254 -0.643466,0.118533 -1.049866,0.389466 -1.7272,1.151467 -3.437467,1.761067 -4.995333,1.6256 -1.032934,-0.08467 -1.811867,-0.592666 -2.1336,-1.286933 1.388533,-0.372533 2.506133,-0.897467 3.572933,-1.591733 0.592667,-0.372534 1.1176,-0.9144 1.540933,-1.557867 0.372533,-0.575733 0.541867,-1.591733 0.287867,-2.201333 -0.2032,-0.474133 -0.6096,-0.880533 -1.388533,-1.100667 -1.998134,-0.5588 -3.945467,1.2192 -4.572,1.9812 -0.6096,0.745067 -0.982133,1.710267 -1.032933,2.709333 -0.0508,1.032934 0.237066,2.150534 0.761999,2.794 0.6096,0.745067 1.4732,1.202267 2.404534,1.354667 1.659466,0.270933 3.776133,-0.3048 5.046133,-1.083733 0.6604,-0.4064 1.100666,-0.762 1.507066,-1.236134 0.270934,-0.287866 0.287867,-0.6096 0.0508,-0.795866 z"
         style="font-style:normal;font-variant:normal;font-weight:normal;font-stretch:normal;font-family:'Ktav Yad CLM';-inkscape-font-specification:'Ktav Yad CLM';stroke-width:0.26458332px"
         id="path4692"
         inkscape:connector-curvature="0" />
      <path
         d="m 61.326535,62.334575 c -0.08467,0.270934 -0.01693,0.592667 0.254,0.643467 0.270934,0.06773 0.491067,-0.220133 0.7112,-0.491067 0.982134,-1.27 2.201334,-2.116666 3.928534,-2.116666 1.540933,0 2.641599,1.016 2.912533,2.3368 0.3556,1.811866 -0.321734,3.437466 -1.3208,4.825999 -0.1524,0.2032 -0.321734,0.440267 -0.1524,0.6096 0.1524,0.186267 0.338666,0.06773 0.6096,-0.1016 0.423333,-0.254 0.643466,-0.474133 0.9652,-0.880533 1.286933,-1.659466 1.490133,-3.640666 0.9144,-5.300133 -0.524934,-1.456266 -1.744134,-2.607733 -3.640667,-2.726266 -1.591733,-0.08467 -3.132666,0.524933 -4.080933,1.388533 -0.626533,0.5588 -0.9144,1.151466 -1.100667,1.811866 z"
         style="font-style:normal;font-variant:normal;font-weight:normal;font-stretch:normal;font-family:'Ktav Yad CLM';-inkscape-font-specification:'Ktav Yad CLM';stroke-width:0.26458332px"
         id="path4694"
         inkscape:connector-curvature="0" />
      <path
         d="m 44.935118,55.341109 c -0.3556,-0.06773 -0.6604,0.2032 -0.745067,0.541867 -0.1524,0.491066 -0.06773,0.880533 0.118533,1.3716 0.321734,0.9144 1.1684,1.761066 1.9304,2.218266 -1.964266,0.372534 -3.437466,1.354667 -4.097866,1.862667 -0.982134,0.762 -1.761067,1.794933 -1.998134,2.878666 -0.186266,0.829734 -0.03387,1.998134 0.948267,2.980267 0.6096,0.626533 1.591733,0.829733 2.709333,0.897466 0.524934,0.03387 0.6604,0.06773 1.1684,-0.0508 0.2032,-0.03387 0.4064,-0.1016 0.474133,-0.321733 0.03387,-0.186267 -0.0508,-0.423333 -0.237066,-0.440267 -0.999067,-0.01693 -1.6256,-0.03387 -2.54,-0.423333 -1.354667,-0.5588 -1.591733,-2.032 -1.016,-3.183466 0.440267,-0.897467 1.490133,-1.659467 2.455333,-2.167467 0.592667,-0.3048 1.524,-0.6604 2.1844,-0.8128 0.762,-0.186266 1.388533,-0.135466 2.3368,-0.254 1.032933,-0.118533 0.9652,-0.626533 0.745067,-0.948266 -0.287867,-0.423334 -0.389467,-0.491067 -1.0668,-0.524934 -0.2032,0 -0.3048,-0.0508 -0.474134,-0.118533 -0.795866,-0.220133 -1.710266,-0.931333 -2.015066,-1.3716 -0.372534,-0.541867 -0.338667,-0.795867 -0.3556,-1.286933 -0.01693,-0.372534 -0.1524,-0.762 -0.524933,-0.846667 z"
         style="font-style:normal;font-variant:normal;font-weight:normal;font-stretch:normal;font-family:'Ktav Yad CLM';-inkscape-font-specification:'Ktav Yad CLM';stroke-width:0.26458332px"
         id="path4696"
         inkscape:connector-curvature="0" />
      <path
         d="m 29.796748,61.369375 c -0.270933,0.372534 -0.491067,0.9144 -0.1016,1.185334 0.3048,0.2032 0.880533,-0.06773 1.083733,-0.3556 0.3556,-0.5588 0.8128,-0.8128 1.253067,-1.151467 0.7112,-0.5588 2.218267,-0.778933 2.8448,-0.762 0.677333,0.03387 1.3716,0.372534 1.405466,1.049867 0.01693,0.8636 -1.202266,1.439333 -2.099733,1.845733 -0.4064,0.186267 -1.253066,0.287867 -1.354666,0.7112 -0.1016,0.389467 0.169333,0.6604 0.728133,0.6604 0.4572,0 0.626533,-0.1016 1.0668,-0.237067 0.846667,-0.254 0.982133,-0.3556 1.591733,-0.2032 0.524933,0.118534 0.982133,0.931334 0.728133,1.540934 -0.287866,0.6604 -1.134533,1.049866 -1.727199,1.676399 -0.220134,0.220134 -0.372534,0.5588 -0.135467,0.762 0.287867,0.270934 1.083733,-0.0508 1.608666,-0.4572 0.982134,-0.778933 1.1176,-0.965199 1.4732,-1.811866 0.474134,-1.151467 -0.3048,-2.218267 -1.1684,-2.556933 -0.186266,-0.06773 -0.372533,-0.237067 -0.135466,-0.474134 0.4572,-0.4572 0.846666,-1.185333 0.677333,-1.9812 -0.2032,-0.999066 -1.439333,-1.710266 -2.675466,-1.727199 -1.4224,-0.01693 -3.826934,0.524933 -5.063067,2.285999 z"
         style="font-style:normal;font-variant:normal;font-weight:normal;font-stretch:normal;font-family:'Ktav Yad CLM';-inkscape-font-specification:'Ktav Yad CLM';stroke-width:0.26458332px"
         id="path4698"
         inkscape:connector-curvature="0" />
      <path
         d="m 29.221048,57.508576 c -0.254,-0.135467 -0.592667,-0.06773 -0.694267,0.2032 -0.3556,0.9144 -0.778933,2.015066 -1.2192,3.031066 -0.4064,0.982133 -0.846667,2.116667 -1.3208,3.132667 -0.440267,0.931333 -1.016,2.167466 -1.557866,3.318933 -0.135467,0.321733 -0.237067,0.728133 0.03387,0.880533 0.474133,0.3048 1.202267,-0.694267 1.405467,-1.083733 0.287866,-0.541867 0.6096,-1.2192 0.931333,-1.862667 0.4572,-0.999066 0.880533,-1.9304 1.388533,-3.2004 0.440267,-1.0668 0.880534,-2.235199 1.337734,-3.505199 0.118533,-0.3556 0.03387,-0.745067 -0.3048,-0.9144 z"
         style="font-style:normal;font-variant:normal;font-weight:normal;font-stretch:normal;font-family:'Ktav Yad CLM';-inkscape-font-specification:'Ktav Yad CLM';stroke-width:0.26458332px"
         id="path4700"
         inkscape:connector-curvature="0" />
      <path
         d="m 21.330123,63.181242 c 0.2032,0.186267 -0.08467,0.643467 -0.287867,0.999067 -0.389466,0.7112 -0.948266,1.3716 -1.557866,1.998133 -0.3556,0.3556 -0.677333,0.575733 -1.0668,0.728133 -0.338667,0.135467 -0.237067,-0.592666 -0.1016,-0.948266 0.287867,-0.745067 0.880533,-1.5748 1.405466,-2.0828 0.491067,-0.474134 1.3208,-0.9652 1.608667,-0.694267 z m 0.474133,-0.508 c -0.0508,-0.3556 0.01693,-0.745067 -0.1016,-0.846667 -0.508,-0.338666 -1.710266,0.220134 -2.404533,0.762 -0.5588,0.440267 -1.202266,1.100667 -1.693333,1.896534 -0.4064,0.6604 -0.6604,1.456266 -0.626533,2.269066 0.01693,0.592667 0.237066,1.151467 0.6096,1.3716 0.423333,0.270933 1.3208,0.1016 1.964266,-0.338667 0.829733,-0.5588 1.4732,-1.388533 2.099733,-2.285999 0.897467,-1.286934 1.591734,-3.081867 2.1336,-4.402667 0.948267,-2.302933 2.269067,-5.842 3.674533,-7.416799 0.7112,-0.795867 1.6256,-1.507067 2.404534,-1.794934 1.032933,-0.389466 2.269066,-0.254 3.031066,0.2032 0.423333,0.254 0.795867,0.846667 1.2192,0.440267 0.220133,-0.237067 -0.254,-0.829733 -0.643467,-1.134533 -1.1176,-0.829734 -2.590799,-0.931334 -4.114799,-0.4064 -1.3208,0.474133 -2.556934,1.456266 -3.589867,2.9464 -0.7112,1.032933 -1.27,2.252133 -1.947333,3.826933 -0.8128,1.913466 -1.405467,3.369733 -2.015067,4.910666 z"
         style="font-style:normal;font-variant:normal;font-weight:normal;font-stretch:normal;font-family:'Ktav Yad CLM';-inkscape-font-specification:'Ktav Yad CLM';stroke-width:0.26458332px"
         id="path4702"
         inkscape:connector-curvature="0" />
      <path
         d="m -6.0848999,60.336442 c -0.4233333,0.321734 -0.6773333,0.9144 -0.4572,1.286933 0.254,0.423334 0.9144,-0.287866 1.4901333,-0.524933 1.2191999,-0.491066 2.6923998,-0.8128 4.33493309,-0.626533 1.18533327,0.135467 2.69239981,0.7112 3.45439981,2.015066 0.5588,0.9652 0.6265333,2.167467 0.2370667,3.132667 -0.2201334,0.524933 -0.5588,1.049867 -0.8297333,1.185333 -0.6096,0.338667 -1.1345333,0.118534 -1.67639994,-0.270933 -0.94826662,-0.6604 -1.04986661,-1.049867 -1.89653326,-1.744133 -0.6773333,-0.5588 -1.5409332,-0.440267 -2.0489332,0.169333 -0.4741333,0.575733 -0.8805333,1.083733 -1.3546666,1.778 -0.2032,0.3048 -0.3217333,0.677333 -0.067733,0.948266 0.2709333,0.254 0.6942666,0.2032 0.9482666,-0.0508 0.508,-0.524933 0.6942666,-1.032933 1.1683999,-1.540933 0.3217333,-0.3556 0.4741333,-0.338666 0.7112,-0.220133 0.2032,0.08467 0.5588,0.338667 0.8127999,0.677333 0.71120001,0.9144 1.6425333,1.591733 2.7770666,1.5748 0.9482666,0 1.9303999,-0.948267 2.4045332,-2.099733 0.6603999,-1.6256 0.4233333,-3.437467 -0.3556,-4.4704 -1.1345333,-1.540933 -2.7093332,-2.2352 -4.8259998,-2.319866 -1.8457332,-0.06773 -3.8099998,0.3048 -4.826,1.100666 z"
         style="font-style:normal;font-variant:normal;font-weight:normal;font-stretch:normal;font-family:'Ktav Yad CLM';-inkscape-font-specification:'Ktav Yad CLM';stroke-width:0.26458332px"
         id="path4704"
         inkscape:connector-curvature="0" />
      <path
         d="m -8.5910019,59.625242 c -0.2878666,0.575734 -0.9143999,1.8796 -1.2869332,2.573867 -0.2031999,0.3556 -0.2878669,0.8636 0.084667,1.032933 0.3386667,0.169333 0.7958667,-0.1016 1.016,-0.491067 0.3217333,-0.5588 1.1514666,-2.082799 1.3546666,-2.556933 0.1354666,-0.338666 0,-0.762 -0.3556,-0.9144 -0.3217333,-0.135466 -0.6604,0.03387 -0.8128004,0.3556 z"
         style="font-style:normal;font-variant:normal;font-weight:normal;font-stretch:normal;font-family:'Ktav Yad CLM';-inkscape-font-specification:'Ktav Yad CLM';stroke-width:0.26458332px"
         id="path4706"
         inkscape:connector-curvature="0" />
      <path
         d="m -12.400985,59.777642 c -0.6604,2.032 -2.319866,6.129867 -3.268133,8.4836 -0.6604,1.608666 -2.4384,5.554133 -3.776133,7.890933 -0.237067,0.4064 -0.4572,0.931333 -0.06773,1.202266 0.287866,0.220134 0.643466,-0.03387 0.829733,-0.321733 1.236133,-1.794933 3.285066,-6.1976 4.148666,-8.212666 0.931334,-2.167467 2.472267,-6.0452 3.318933,-8.703733 0.118534,-0.389467 0.06773,-0.897467 -0.321733,-1.032933 -0.423333,-0.118534 -0.745066,0.287866 -0.8636,0.694266 z"
         style="font-style:normal;font-variant:normal;font-weight:normal;font-stretch:normal;font-family:'Ktav Yad CLM';-inkscape-font-specification:'Ktav Yad CLM';stroke-width:0.26458332px"
         id="path4708"
         inkscape:connector-curvature="0" />
      <path
         d="m -35.73508,64.637509 c -0.186267,-1.490134 0.440266,-2.573867 1.388533,-3.3528 0.9144,-0.745067 1.9304,-1.3716 2.9464,-0.762 0.321733,0.186267 0.3556,0.745066 0.220133,1.016 -0.3556,0.795866 -0.931333,1.303866 -1.337733,1.591733 -0.778934,0.5588 -1.862667,1.134533 -3.217333,1.507067 z m 8.500533,0.254 c -0.3556,-0.254 -0.643467,0.118533 -1.049867,0.389466 -1.7272,1.151467 -3.437467,1.761067 -4.995333,1.6256 -1.032933,-0.08467 -1.811867,-0.592666 -2.1336,-1.286933 1.388533,-0.372533 2.506133,-0.897467 3.572933,-1.591733 0.592667,-0.372534 1.1176,-0.9144 1.540933,-1.557867 0.372534,-0.575733 0.541867,-1.591733 0.287867,-2.201333 -0.2032,-0.474133 -0.6096,-0.880533 -1.388533,-1.100667 -1.998134,-0.5588 -3.945467,1.2192 -4.572,1.9812 -0.6096,0.745067 -0.982133,1.710267 -1.032933,2.709333 -0.0508,1.032934 0.237066,2.150534 0.762,2.794 0.6096,0.745067 1.4732,1.202267 2.404533,1.354667 1.659466,0.270933 3.776133,-0.3048 5.046133,-1.083733 0.6604,-0.4064 1.100667,-0.762 1.507067,-1.236134 0.270933,-0.287866 0.287866,-0.6096 0.0508,-0.795866 z"
         style="font-style:normal;font-variant:normal;font-weight:normal;font-stretch:normal;font-family:'Ktav Yad CLM';-inkscape-font-specification:'Ktav Yad CLM';stroke-width:0.26458332px"
         id="path4710"
         inkscape:connector-curvature="0" />
      <path
         d="m -49.14626,66.957375 c -0.1524,0.338667 -0.440267,0.829733 -0.08467,1.049867 0.423334,0.3048 0.931334,-0.135467 1.185334,-0.592667 0.795866,-1.456266 1.269999,-2.624666 1.998133,-4.1148 0.118533,-0.254 0.5588,-0.389466 0.728133,-0.1524 0.372533,0.592667 1.540933,2.9464 1.9812,3.674534 0.4064,0.711199 0.778933,1.388533 1.608667,1.337733 0.694266,-0.03387 1.066799,-0.643467 1.591733,-1.710267 0.541866,-1.1176 1.354666,-3.031066 1.896533,-4.182533 0.626533,-1.3716 1.4224,-3.031066 1.964267,-4.131733 0.2032,-0.4064 0.338666,-0.982133 -0.03387,-1.185333 -0.474133,-0.254 -0.9144,0.254 -1.134533,0.7112 -0.474134,0.982133 -3.3528,7.332133 -3.843867,8.314266 -0.2032,0.389467 -0.6604,0.9652 -1.032933,0.3556 -0.897467,-1.405467 -2.048933,-4.0132 -2.929467,-5.08 -0.3048,-0.338667 -0.880533,-0.1016 -1.151466,0.254 -0.728134,0.948267 -1.100667,1.964267 -1.778,3.4036 -0.389467,0.8128 -0.524933,1.032933 -0.9652,2.048933 z"
         style="font-style:normal;font-variant:normal;font-weight:normal;font-stretch:normal;font-family:'Ktav Yad CLM';-inkscape-font-specification:'Ktav Yad CLM';stroke-width:0.26458332px"
         id="path4712"
         inkscape:connector-curvature="0" />
      <path
         d="m -49.992903,59.625242 c -0.287867,0.575734 -0.9144,1.8796 -1.286933,2.573867 -0.2032,0.3556 -0.287867,0.8636 0.08467,1.032933 0.338667,0.169333 0.795867,-0.1016 1.016,-0.491067 0.321734,-0.5588 1.151467,-2.082799 1.354667,-2.556933 0.135466,-0.338666 0,-0.762 -0.3556,-0.9144 -0.321733,-0.135466 -0.6604,0.03387 -0.8128,0.3556 z"
         style="font-style:normal;font-variant:normal;font-weight:normal;font-stretch:normal;font-family:'Ktav Yad CLM';-inkscape-font-specification:'Ktav Yad CLM';stroke-width:0.26458332px"
         id="path4714"
         inkscape:connector-curvature="0" />
      <path
         d="m -61.727662,63.011909 c 0.524933,-1.100667 1.1684,-1.862667 2.269066,-2.319867 1.134533,-0.4572 2.370667,-0.338666 3.268133,0.254 0.9652,0.6604 1.4224,1.845733 1.083734,3.132667 -0.270934,1.032933 -1.253067,2.1336 -2.6416,2.421466 -0.9144,0.169334 -2.099734,-0.03387 -2.9464,-0.6604 -0.6604,-0.474133 -1.032933,-0.9652 -1.286933,-1.608666 -0.186267,-0.440267 0.03387,-0.778934 0.254,-1.2192 z m -1.9812,-0.254 c -0.06773,0.237066 -0.1016,0.694266 -0.2032,1.049866 -0.1524,0.508 -0.3048,1.337734 -0.541867,2.167467 -0.254,0.897467 -0.6096,1.9304 -0.778933,2.54 -0.118534,0.423333 -0.321734,0.931333 0.08467,1.1176 0.338667,0.169333 0.626534,-0.169334 0.8128,-0.5588 0.6096,-1.337734 1.016,-2.6416 1.456267,-4.148667 0.474133,0.9144 0.880533,1.337734 1.6256,1.862667 0.762,0.575733 1.8288,0.982133 3.302,0.846666 2.1336,-0.186266 3.623733,-1.625599 4.080933,-3.318933 0.423333,-1.5748 -0.169333,-3.3528 -1.405467,-4.250266 -0.762,-0.575733 -1.608666,-0.897467 -2.7432,-0.897467 -0.982133,-0.01693 -1.7272,0.169334 -2.523066,0.643467 -0.8128,0.491067 -1.5748,1.3716 -2.1844,2.404533 -0.237067,0.389467 -0.897467,0.220133 -0.982133,0.541867 z"
         style="font-style:normal;font-variant:normal;font-weight:normal;font-stretch:normal;font-family:'Ktav Yad CLM';-inkscape-font-specification:'Ktav Yad CLM';stroke-width:0.26458332px"
         id="path4716"
         inkscape:connector-curvature="0" />
      <path
         d="m -76.002406,57.508576 c -0.254,-0.135467 -0.592667,-0.06773 -0.694267,0.2032 -0.3556,0.9144 -0.778933,2.015066 -1.219199,3.031066 -0.4064,0.982133 -0.846667,2.116667 -1.3208,3.132667 -0.440267,0.931333 -1.016,2.167466 -1.557867,3.318933 -0.135467,0.321733 -0.237067,0.728133 0.03387,0.880533 0.474133,0.3048 1.202266,-0.694267 1.405466,-1.083733 0.287867,-0.541867 0.6096,-1.2192 0.931334,-1.862667 0.4572,-0.999066 0.880533,-1.9304 1.388533,-3.2004 0.440266,-1.0668 0.880533,-2.235199 1.337733,-3.505199 0.118533,-0.3556 0.03387,-0.745067 -0.3048,-0.9144 z"
         style="font-style:normal;font-variant:normal;font-weight:normal;font-stretch:normal;font-family:'Ktav Yad CLM';-inkscape-font-specification:'Ktav Yad CLM';stroke-width:0.26458332px"
         id="path4718"
         inkscape:connector-curvature="0" />
      <path
         d="m -82.741848,60.675109 c -0.931333,-0.677333 -2.726266,-0.575733 -3.793066,0.06773 -1.845733,1.100667 -2.421467,2.794 -2.404533,4.047067 0,1.1684 0.6096,2.099733 1.5748,2.709333 0.9652,0.626533 2.353733,0.728133 2.997199,0.643466 0.237067,-0.03387 1.100667,-0.1524 1.151467,-0.491066 0.0508,-0.3556 -0.270933,-0.474134 -0.491067,-0.4572 -0.694266,0.06773 -1.0668,0.135466 -1.8288,0 -0.508,-0.06773 -1.981199,-0.575733 -2.133599,-2.252133 -0.118534,-1.337734 0.575733,-2.455334 1.744133,-3.132667 0.948266,-0.541867 1.896533,-0.389467 2.6416,-0.0508 0.3556,0.169333 0.728133,0.06773 0.880533,-0.270933 0.1016,-0.237067 -0.06773,-0.6096 -0.338667,-0.8128 z m -2.9464,-9.4488 c -1.185333,1.659467 -2.489199,4.690533 -3.742266,7.806267 -1.3716,3.386666 -2.6416,6.333066 -3.674533,8.263466 -0.1524,0.254 -0.237067,0.5588 0,0.745066 0.270933,0.2032 0.440267,0 0.745066,-0.389466 1.1176,-1.439333 2.523067,-4.453467 3.7592,-7.501466 1.27,-3.081867 2.980267,-6.637867 3.6576,-7.806267 0.0508,-0.08467 0.423333,-0.829733 0.06773,-1.151466 -0.237066,-0.220134 -0.626533,-0.220134 -0.8128,0.03387 z"
         style="font-style:normal;font-variant:normal;font-weight:normal;font-stretch:normal;font-family:'Ktav Yad CLM';-inkscape-font-specification:'Ktav Yad CLM';stroke-width:0.26458332px"
         id="path4720"
         inkscape:connector-curvature="0" />
      <path
         d="m -102.92637,62.334575 c -0.0847,0.270934 -0.0169,0.592667 0.254,0.643467 0.27093,0.06773 0.49107,-0.220133 0.7112,-0.491067 0.98213,-1.27 2.201334,-2.116666 3.928534,-2.116666 1.540933,0 2.6416,1.016 2.912533,2.3368 0.3556,1.811866 -0.321733,3.437466 -1.3208,4.825999 -0.1524,0.2032 -0.321733,0.440267 -0.1524,0.6096 0.1524,0.186267 0.338667,0.06773 0.6096,-0.1016 0.423333,-0.254 0.643467,-0.474133 0.9652,-0.880533 1.286933,-1.659466 1.490133,-3.640666 0.9144,-5.300133 -0.524934,-1.456266 -1.744133,-2.607733 -3.640667,-2.726266 -1.591733,-0.08467 -3.13267,0.524933 -4.08093,1.388533 -0.62654,0.5588 -0.9144,1.151466 -1.10067,1.811866 z"
         style="font-style:normal;font-variant:normal;font-weight:normal;font-stretch:normal;font-family:'Ktav Yad CLM';-inkscape-font-specification:'Ktav Yad CLM';stroke-width:0.26458332px"
         id="path4722"
         inkscape:connector-curvature="0" />
      <path
         d="m -110.15688,63.604575 c -0.3556,0.778934 -0.8636,1.9812 -1.2192,2.523067 -0.13547,0.2032 -0.74507,0.728133 -0.44027,-0.287867 0.3048,-1.032933 1.0668,-2.167466 1.65947,-2.2352 z m 3.2004,-4.114799 c 0.5588,-1.286934 0.6096,-1.337734 1.04987,-2.1844 0.49106,-0.9652 0.74506,-1.524 1.3208,-2.472267 0.4064,-0.6604 0.6096,-1.032933 1.15146,-1.642533 0.508,-0.5588 1.18534,-1.303867 1.6256,-1.100667 0.52494,0.270934 0.52494,1.439334 0.18627,2.370667 -0.38947,1.032933 -1.15147,1.947333 -1.8288,2.624666 -0.52493,0.524934 -1.4224,1.185334 -2.032,1.591734 -0.5588,0.372533 -0.84667,0.508 -1.4732,0.8128 z m -2.4384,-4.5212 c -1.27,-0.169334 -2.91253,0.135466 -4.13173,0.846666 -0.88053,0.508 -1.71027,1.388534 -2.06587,2.252134 -0.33866,0.8128 -0.42333,1.8288 -0.13546,2.5908 0.2032,0.558799 0.67733,1.117599 1.3208,1.422399 0.72813,0.3556 1.57479,0.338667 2.59079,0.237067 0.93134,-0.08467 1.76107,-0.372533 2.4384,-0.6096 -0.18626,0.338667 -0.49106,1.286933 -0.64346,1.5748 -0.0169,-0.270933 0.0169,-0.4064 -0.22014,-0.491067 -0.42333,-0.135466 -1.10066,0.270934 -1.5748,0.846667 -0.59266,0.7112 -0.99906,1.6764 -1.04986,2.472267 -0.0677,0.829733 0.0339,1.761066 0.69426,1.998133 0.7112,0.270933 1.40547,-0.474134 1.8288,-1.236133 0.77894,-1.405467 2.11667,-4.538134 2.6924,-5.774267 0.77894,-0.3556 1.5748,-0.745066 2.21827,-1.151466 0.64347,-0.4064 1.28693,-0.829734 2.032,-1.507067 0.88053,-0.795867 1.8796,-1.964267 2.3876,-3.0988 0.508,-1.151466 0.72813,-2.286 0.22013,-3.4036 -0.27093,-0.575733 -0.88053,-0.829733 -1.43933,-0.829733 -0.762,0.01693 -1.3716,0.423333 -1.94733,1.0668 -0.74507,0.829733 -1.18534,1.507067 -1.79494,2.523066 -0.64346,1.0668 -0.89746,1.7272 -1.43933,2.827867 -0.52493,1.049867 -0.67733,1.642533 -1.30387,2.6924 -0.8128,0.254 -1.64253,0.5588 -2.47226,0.694266 -1.016,0.169334 -1.8288,0.254 -2.6416,0 -0.5588,-0.169333 -0.9144,-0.795866 -0.93133,-1.490133 -0.0169,-0.6604 0.254,-1.3208 0.79586,-1.964266 0.49107,-0.592667 1.27,-1.100667 2.032,-1.354667 0.88053,-0.287867 1.43933,-0.338667 2.47227,-0.321733 0.22013,0.01693 0.4572,-0.0508 0.508,-0.287867 0.0339,-0.254 -0.18627,-0.474133 -0.44027,-0.524933 z"
         style="font-style:normal;font-variant:normal;font-weight:normal;font-stretch:normal;font-family:'Ktav Yad CLM';-inkscape-font-specification:'Ktav Yad CLM';stroke-width:0.26458332px"
         id="path4724"
         inkscape:connector-curvature="0" />
      <path
         d="m -120.01207,66.026042 c -0.4064,-0.270933 -0.89747,-0.1524 -1.15147,0.491067 -0.23707,0.609599 -0.0677,1.066799 0.3048,1.269999 0.52493,0.287867 0.8128,0.06773 1.03293,-0.287866 0.18627,-0.338667 0.2032,-1.236133 -0.18626,-1.4732 z"
         style="font-style:normal;font-variant:normal;font-weight:normal;font-stretch:normal;font-family:'Ktav Yad CLM';-inkscape-font-specification:'Ktav Yad CLM';stroke-width:0.26458332px"
         id="path4726"
         inkscape:connector-curvature="0" />
      <path
         d="m 92.636209,79.322677 c -0.3556,0.643466 -0.389467,0.9652 -0.762,1.490133 -0.4572,0.643466 -1.032934,1.134533 -1.3716,1.4224 -0.5588,0.474133 -0.795867,1.3208 -0.440267,1.794933 0.491067,0.677333 1.354667,0.186267 2.252133,0.186267 0.982134,0 1.744134,0.1524 2.2352,0.6096 0.474134,0.4572 0.541867,1.083733 0.254,1.6764 -0.4064,0.829733 -1.27,1.422399 -2.2352,1.608666 -1.286933,0.254 -2.421466,0.186267 -3.826933,-0.423333 -0.4064,-0.169333 -0.897466,-0.1016 -1.100666,0.2032 -0.237067,0.338666 -0.2032,0.795866 0.135466,1.049866 1.1176,0.880534 1.998133,0.9652 3.369733,0.982134 0.897467,0.01693 1.947334,-0.0508 3.048,-0.524934 0.795867,-0.338666 1.998133,-1.083733 2.506133,-2.336799 0.7112,-1.761067 0.06773,-2.963334 -0.643466,-3.7084 -0.829734,-0.8636 -2.048933,-1.083734 -2.861733,-1.134534 0.643466,-0.7112 0.999066,-1.371599 1.27,-1.981199 0.3556,-0.795867 0.220133,-1.3208 -0.338667,-1.608667 -0.575733,-0.270933 -1.1176,0 -1.490133,0.694267 z"
         style="font-style:normal;font-variant:normal;font-weight:bold;font-stretch:normal;font-family:'Ktav Yad CLM';-inkscape-font-specification:'Ktav Yad CLM';stroke-width:0.26458332px"
         id="path4728"
         inkscape:connector-curvature="0" />
      <path
         d="m 78.175183,86.316143 c -0.287867,0.372533 -0.08467,0.999067 0.237066,1.185333 0.829734,0.491067 0.2032,0.762 -0.118533,1.439333 -0.3556,0.728134 0.423333,1.337734 1.388533,0.541867 0.389467,-0.321733 0.762,-0.8128 0.880533,-1.151467 0.270934,-0.677333 0.186267,-1.354666 -0.220133,-1.811866 -0.4064,-0.440267 -0.778933,-0.5588 -1.134533,-0.575733 -0.372533,-0.03387 -0.745067,-0.01693 -1.032933,0.372533 z m -1.6256,-3.674533 c -0.491067,0.287866 -0.677334,0.9144 -0.440267,1.405466 0.2032,0.440267 0.762,0.575734 1.354667,0.287867 0.6096,-0.287867 1.3716,-0.677333 2.048933,-0.846667 1.100666,-0.270933 2.54,-0.592666 3.742266,0.03387 1.337734,0.7112 1.896534,2.065867 1.710267,3.420533 -0.08467,0.6096 -0.440267,1.337733 -0.846667,1.913467 -0.3048,0.423333 -0.220133,0.931333 0.220134,1.100666 0.3556,0.1524 0.999066,-0.1524 1.3716,-0.626533 0.389466,-0.474133 1.032933,-1.591733 1.134533,-3.0988 0.08467,-1.337733 -0.372534,-2.6416 -1.507067,-3.742266 -1.134533,-1.0668 -2.675466,-1.286933 -3.742266,-1.303867 -2.015067,-0.03387 -3.6068,0.6096 -5.046133,1.456267 z"
         style="font-style:normal;font-variant:normal;font-weight:bold;font-stretch:normal;font-family:'Ktav Yad CLM';-inkscape-font-specification:'Ktav Yad CLM';stroke-width:0.26458332px"
         id="path4730"
         inkscape:connector-curvature="0" />
      <path
         d="m 53.57109,83.539076 c -0.254,0.524934 -0.135467,1.185334 0.389467,1.405467 0.3048,0.135467 0.948266,-0.03387 1.27,-0.440267 0.694266,-0.8636 1.811866,-1.6256 3.115733,-1.5748 1.151467,0.0508 2.032,0.931334 2.2352,1.8288 0.220133,1.049867 -0.1016,2.302934 -0.846667,3.4544 -0.338666,0.524933 -0.694266,1.2192 -0.186266,1.5748 0.575733,0.440267 1.269999,-0.1524 1.693333,-0.778933 1.3208,-1.964267 1.490133,-3.776133 1.016,-5.300133 -0.474134,-1.490134 -1.845734,-2.607733 -3.742267,-2.726267 -1.947333,-0.118533 -4.097866,0.8128 -4.944533,2.556933 z"
         style="font-style:normal;font-variant:normal;font-weight:bold;font-stretch:normal;font-family:'Ktav Yad CLM';-inkscape-font-specification:'Ktav Yad CLM';stroke-width:0.26458332px"
         id="path4732"
         inkscape:connector-curvature="0" />
      <path
         d="m 49.049895,83.183476 c 0.778933,0.220134 1.4224,1.405467 1.100667,2.269067 -0.254,0.694267 -0.931334,1.4732 -1.710267,1.9304 -0.5588,0.338667 -1.303867,0.626533 -1.811867,0.626533 -0.3556,0 -0.541866,-0.423333 -0.254,-1.016 0.677334,-1.405466 1.4732,-2.556933 2.675467,-3.81 z m 0.9144,-3.403599 c -0.474133,0.3556 -0.8636,0.778933 -1.507067,1.337733 -0.372533,-0.08467 -1.049866,-0.220133 -1.7272,-0.254 -0.999066,-0.03387 -1.557866,0.03387 -2.54,0.169333 -0.778933,0.118534 -1.523999,0.9144 -0.778933,1.27 0.270934,0.135467 0.5588,0.06773 1.557867,0.06773 0.592666,0 1.4732,0.06773 2.099733,0.220134 -1.151467,1.253066 -2.353733,3.2004 -2.912533,4.402666 -0.372533,0.762 -0.592667,1.6256 -0.3048,2.1336 0.524933,0.948267 1.557866,0.9652 2.6416,0.829733 1.151466,-0.135466 1.9812,-0.4572 2.7432,-0.846666 0.694266,-0.3556 1.303866,-0.829734 1.896533,-1.456267 0.762,-0.795866 1.134533,-1.896533 1.1176,-3.014133 -0.03387,-1.286933 -0.8128,-2.1844 -1.845733,-2.777067 0,0 0.474133,-0.4572 0.812799,-0.728133 0.474134,-0.423333 0.677334,-1.032933 0.287867,-1.490133 -0.3556,-0.389467 -1.0668,-0.220133 -1.540933,0.135467 z"
         style="font-style:normal;font-variant:normal;font-weight:bold;font-stretch:normal;font-family:'Ktav Yad CLM';-inkscape-font-specification:'Ktav Yad CLM';stroke-width:0.26458332px"
         id="path4734"
         inkscape:connector-curvature="0" />
      <path
         d="m 33.962312,82.13361 c -0.592666,0.440266 -0.643466,1.0668 -0.4064,1.439333 0.287867,0.491067 0.999067,0.575733 1.439334,0.270933 0.592666,-0.389466 1.303866,-0.677333 2.116666,-0.778933 1.083734,-0.135467 2.015067,0.1016 2.6924,0.7112 0.728133,0.677333 0.948267,1.6256 0.762,2.319867 -0.237067,0.880533 -1.100667,1.490133 -2.015066,1.608666 -1.253067,0.169333 -2.167467,-0.237066 -3.5052,-0.5588 -0.829734,-0.186266 -1.405467,0.5588 -1.6764,1.354667 -0.3048,0.880533 -0.508,1.6256 -0.795867,2.658533 -0.3556,1.253067 -0.7112,2.099733 -1.2192,3.4036 -0.541866,1.354666 -1.2192,2.54 -1.557866,3.589866 -0.1016,0.3556 0.01693,1.185334 0.541866,1.202267 0.846667,0.03387 1.642534,-0.389467 2.2352,-0.829733 0.9652,-0.694267 1.896533,-1.4732 2.269067,-2.0828 0.694266,-1.185334 0.338666,-1.27 -0.7112,-0.6096 -0.4572,0.287866 -0.880534,0.541866 -1.557867,0.931333 1.016,-2.201333 1.913467,-4.656666 2.523067,-7.196666 0.1016,-0.491067 0.4064,-0.5588 0.745066,-0.4572 0.389467,0.118533 0.8636,0.237066 1.4732,0.321733 1.0668,0.118533 2.302933,0.1524 3.2512,-0.389467 1.439333,-0.8128 1.998133,-2.031999 2.048933,-3.318933 0.0508,-1.286933 -0.338666,-2.286 -1.1176,-3.183466 -0.8636,-0.9652 -2.235199,-1.456267 -3.606799,-1.507067 -1.4732,-0.0508 -2.8956,0.338667 -3.928534,1.100667 z"
         style="font-style:normal;font-variant:normal;font-weight:bold;font-stretch:normal;font-family:'Ktav Yad CLM';-inkscape-font-specification:'Ktav Yad CLM';stroke-width:0.26458332px"
         id="path4736"
         inkscape:connector-curvature="0" />
      <path
         d="m 18.383689,81.761076 c -0.287866,0.592667 -0.592666,1.303867 -0.9652,1.9812 -0.270933,0.491067 -0.08467,1.1176 0.423334,1.3716 0.338666,0.169334 1.049866,0.0508 1.320799,-0.423333 0.321734,-0.5588 0.880534,-1.6256 1.083734,-2.099733 0.220133,-0.491067 0.1524,-1.083734 -0.338667,-1.337733 -0.508,-0.270934 -1.236133,-0.0508 -1.524,0.507999 z"
         style="font-style:normal;font-variant:normal;font-weight:bold;font-stretch:normal;font-family:'Ktav Yad CLM';-inkscape-font-specification:'Ktav Yad CLM';stroke-width:0.26458332px"
         id="path4738"
         inkscape:connector-curvature="0" />
      <path
         d="m 8.0205051,78.509877 c -0.1354666,0.389466 -0.033867,0.982133 0.3217334,1.1684 0.3725333,0.220133 1.0329332,-0.01693 1.2361332,-0.220134 0.5588003,-0.592666 0.9482663,-0.948266 1.6425333,-1.354666 0.8128,-0.474134 2.726267,-0.8128 2.353733,0.440266 -0.254,0.8128 -1.0668,1.642534 -1.761066,2.1336 -0.762,0.541867 -0.8636,0.3556 -1.354667,0.575734 -0.508,0.237066 -0.9990666,0.846666 -0.6773333,1.320799 0.3386663,0.541867 1.1006663,0.389467 1.4901333,0.508 1.1176,0.372534 1.947333,1.185334 1.811867,2.319867 -0.1524,1.202267 -1.0668,1.845733 -2.015067,2.269067 -1.032933,0.457199 -2.0997332,0.592666 -3.4543998,0.507999 C 6.5303719,88.128009 5.5821053,87.840143 4.5322387,87.501476 4.295172,87.433743 3.583972,87.36601 3.3807721,87.840143 c -0.1693334,0.4064 0.2539999,0.897466 0.5757333,1.032933 1.1345332,0.5588 2.6246665,1.0668 4.7243997,1.083733 1.4223999,0.01693 3.0987999,-0.389466 4.3179999,-1.151466 1.1684,-0.728134 1.9304,-1.693333 2.0828,-3.183467 0.1524,-1.540933 -0.5588,-2.6924 -1.6764,-3.522133 -0.186267,-0.118533 -0.01693,-0.389467 0.1524,-0.541867 0.643466,-0.575733 1.845733,-2.065866 1.8796,-3.623733 0.01693,-1.016 -0.575734,-2.015066 -2.099733,-2.032 -1.185334,0 -2.3876,0.135467 -3.5560003,0.829734 -0.4910666,0.3048 -1.5070666,1.032933 -1.7610666,1.778 z"
         style="font-style:normal;font-variant:normal;font-weight:bold;font-stretch:normal;font-family:'Ktav Yad CLM';-inkscape-font-specification:'Ktav Yad CLM';stroke-width:0.26458332px"
         id="path4740"
         inkscape:connector-curvature="0" />
      <path
         d="m -6.9824006,89.025476 c -0.0508,0.440267 0.1016,0.948267 0.5418666,0.948267 0.2709333,0 0.6942666,-0.270934 0.8805333,-0.6604 0.5588,-1.1684 1.2022666,-2.573867 1.9303999,-4.182533 0.1016,-0.220134 0.4233333,-0.135467 0.6434666,-0.321734 0.3556,-0.3048 0.3725333,-0.643466 0.7112,-0.999066 0.4910666,-0.524934 1.1683999,-0.778934 1.86266656,-0.795867 0.77893329,-0.01693 1.49013324,0.372533 1.76106654,0.931333 0.2878667,0.626534 0.1862667,1.524 -0.016933,2.2352 -0.1862667,0.626534 -0.57573331,1.388534 -1.13453328,2.1336 -0.40639997,0.524933 -0.94826661,1.185333 -0.50799997,1.591733 0.37253331,0.3556 1.2022666,-0.254 1.71026655,-0.8128 0.4572,-0.508 0.9482666,-1.151466 1.3208,-1.879599 0.9482666,-1.8796 0.9313332,-3.894667 -0.3217334,-5.1308 -0.8466666,-0.8128 -2.3198665,-1.354667 -3.8607998,-0.9652 -0.6773333,0.186267 -1.0667999,0.338666 -1.6086665,0.745066 -0.2032,0.1524 -0.4402667,0.3556 -0.6604,0.254 -0.2201333,-0.08467 -0.3048,-0.186266 -0.5249333,-0.220133 -0.3048,-0.03387 -0.508,0.287867 -0.5757333,0.541867 -0.3386667,1.2192 -1.1514666,3.081866 -1.7610666,5.096933 -0.1524,0.4572 -0.3386666,0.999066 -0.3894669,1.490133 z"
         style="font-style:normal;font-variant:normal;font-weight:bold;font-stretch:normal;font-family:'Ktav Yad CLM';-inkscape-font-specification:'Ktav Yad CLM';stroke-width:0.26458332px"
         id="path4742"
         inkscape:connector-curvature="0" />
      <path
         d="m -13.891189,85.53721 c -0.643467,-0.1524 -1.134533,0.389466 -1.3208,0.999066 -0.4572,1.456267 -1.1176,3.2512 -1.9812,5.249333 -1.100667,2.523067 -1.794933,3.9116 -3.115733,6.2992 -0.2032,0.3556 -0.491067,0.778933 -0.541867,0.880533 -0.524933,0.846667 0.186267,1.286938 0.829733,0.9652 0.6604,-0.321733 1.1684,-0.8128 1.659467,-1.5748 0.999067,-1.591733 1.9812,-3.556 2.980267,-5.740399 0.9652,-2.150534 1.557866,-3.826934 2.133599,-5.706533 0.169334,-0.5588 -0.08467,-1.2192 -0.643466,-1.3716 z m -4.538133,-0.745067 c 0.287866,0.321733 1.253066,0.186267 1.794933,-0.270933 0.6096,-0.524934 1.540933,-1.016 2.573867,-1.286934 1.439333,-0.372533 2.590799,-0.2032 3.555999,0.440267 0.7620003,0.508 1.1345336,1.507067 0.9821336,2.455333 -0.1185333,0.778934 -0.4910666,1.405467 -1.2022666,1.896533 -0.4064,0.270934 -1.016,0.237067 -0.999067,0.7112 0,0.491067 0.643467,0.762 1.032934,0.677334 0.6096,-0.118534 0.8635996,-0.254 1.3207996,-0.592667 0.8128,-0.575733 1.6763999,-1.439333 1.8626666,-3.081866 0.1524,-1.286934 -0.4064,-2.472267 -1.524,-3.4544 -0.8297332,-0.7112 -2.1505332,-1.185333 -3.4036002,-1.185333 -1.083733,0 -2.167466,0.254 -3.149599,0.609599 -1.185334,0.440267 -1.9812,0.9652 -2.6924,1.794934 -0.321734,0.389466 -0.592667,0.8128 -0.1524,1.286933 z"
         style="font-style:normal;font-variant:normal;font-weight:bold;font-stretch:normal;font-family:'Ktav Yad CLM';-inkscape-font-specification:'Ktav Yad CLM';stroke-width:0.26458332px"
         id="path4744"
         inkscape:connector-curvature="0" />
      <path
         d="m -40.916736,86.316143 c -0.287867,0.372533 -0.08467,0.999067 0.237066,1.185333 0.829734,0.491067 0.2032,0.762 -0.118533,1.439333 -0.3556,0.728134 0.423333,1.337734 1.388533,0.541867 0.389467,-0.321733 0.762,-0.8128 0.880534,-1.151467 0.270933,-0.677333 0.186266,-1.354666 -0.220134,-1.811866 -0.4064,-0.440267 -0.778933,-0.5588 -1.134533,-0.575733 -0.372533,-0.03387 -0.745067,-0.01693 -1.032933,0.372533 z m -1.6256,-3.674533 c -0.491067,0.287866 -0.677334,0.9144 -0.440267,1.405466 0.2032,0.440267 0.762,0.575734 1.354667,0.287867 0.6096,-0.287867 1.3716,-0.677333 2.048933,-0.846667 1.100667,-0.270933 2.54,-0.592666 3.742266,0.03387 1.337734,0.7112 1.896534,2.065867 1.710267,3.420533 -0.08467,0.6096 -0.440267,1.337733 -0.846667,1.913467 -0.3048,0.423333 -0.220133,0.931333 0.220134,1.100666 0.3556,0.1524 0.999066,-0.1524 1.3716,-0.626533 0.389466,-0.474133 1.032933,-1.591733 1.134533,-3.0988 0.08467,-1.337733 -0.372533,-2.6416 -1.507067,-3.742266 -1.134533,-1.0668 -2.675466,-1.286933 -3.742266,-1.303867 -2.015067,-0.03387 -3.6068,0.6096 -5.046133,1.456267 z"
         style="font-style:normal;font-variant:normal;font-weight:bold;font-stretch:normal;font-family:'Ktav Yad CLM';-inkscape-font-specification:'Ktav Yad CLM';stroke-width:0.26458332px"
         id="path4746"
         inkscape:connector-curvature="0" />
      <path
         d="m -46.4878,77.730943 c -0.694266,0.118534 -1.490133,0.3556 -2.455333,0.778934 -1.151467,0.508 -2.421466,1.405466 -3.420533,2.404533 -0.8636,0.8636 -1.5748,1.964266 -1.964267,3.4544 -0.338666,1.27 -0.423333,2.624666 0.1016,3.691466 0.626534,1.303867 1.8288,1.896533 3.1496,1.913467 1.557867,0.03387 3.115733,-0.6096 4.3688,-1.642534 0.694267,-0.575733 1.4224,-1.371599 2.065867,-2.438399 0.287866,-0.474134 0.338666,-1.2192 -0.3048,-1.540934 -0.524934,-0.254 -1.049867,0.135467 -1.3208,0.626534 -0.220134,0.389466 -1.253067,1.490133 -2.0828,2.099733 -1.134534,0.829733 -2.523067,1.049866 -3.2512,0.7112 -0.846667,-0.389467 -1.049867,-1.337733 -0.982133,-2.015067 0.118533,-1.202266 0.524933,-2.218266 1.388533,-3.3528 0.8128,-1.083733 1.591733,-1.659466 2.523066,-2.184399 0.897467,-0.508 1.761067,-0.829734 2.4892,-1.016 0.5588,-0.135467 1.236134,-0.541867 1.100667,-1.016 -0.169333,-0.575734 -0.846667,-0.5588 -1.405467,-0.474134 z"
         style="font-style:normal;font-variant:normal;font-weight:bold;font-stretch:normal;font-family:'Ktav Yad CLM';-inkscape-font-specification:'Ktav Yad CLM';stroke-width:0.26458332px"
         id="path4748"
         inkscape:connector-curvature="0" />
      <path
         d="m -57.44365,81.761076 c -0.287867,0.592667 -0.592667,1.303867 -0.9652,1.9812 -0.270933,0.491067 -0.08467,1.1176 0.423333,1.3716 0.338667,0.169334 1.049867,0.0508 1.3208,-0.423333 0.321734,-0.5588 0.880534,-1.6256 1.083734,-2.099733 0.220133,-0.491067 0.1524,-1.083734 -0.338667,-1.337733 -0.508,-0.270934 -1.236133,-0.0508 -1.524,0.507999 z"
         style="font-style:normal;font-variant:normal;font-weight:bold;font-stretch:normal;font-family:'Ktav Yad CLM';-inkscape-font-specification:'Ktav Yad CLM';stroke-width:0.26458332px"
         id="path4750"
         inkscape:connector-curvature="0" />
      <path
         d="m -62.117234,81.761076 c -0.287867,0.592667 -0.592667,1.303867 -0.9652,1.9812 -0.270933,0.491067 -0.08467,1.1176 0.423333,1.3716 0.338667,0.169334 1.049867,0.0508 1.3208,-0.423333 0.321734,-0.5588 0.880534,-1.6256 1.083734,-2.099733 0.220133,-0.491067 0.1524,-1.083734 -0.338667,-1.337733 -0.508,-0.270934 -1.236133,-0.0508 -1.524,0.507999 z"
         style="font-style:normal;font-variant:normal;font-weight:bold;font-stretch:normal;font-family:'Ktav Yad CLM';-inkscape-font-specification:'Ktav Yad CLM';stroke-width:0.26458332px"
         id="path4752"
         inkscape:connector-curvature="0" />
      <path
         d="m -73.259364,86.163743 c 0.1016,-0.762 0.3556,-1.778 0.948267,-2.201333 0.372533,0.270933 1.032933,0.169333 1.303866,-0.1016 0.3048,-0.3048 1.490134,-1.1684 2.624667,-0.982134 0.999067,0.169334 1.5748,1.083734 1.303867,2.2352 -0.2032,0.880534 -0.880534,1.778 -1.7272,2.286 -1.27,0.762 -2.624667,0.9652 -3.522133,0.5588 -0.592667,-0.270933 -1.083734,-0.6096 -0.931334,-1.794933 z m -0.6096,-3.0988 c -0.372533,0.508 -0.880533,1.591733 -1.0668,2.3876 -0.2032,0.880533 -0.423333,2.370666 0.4572,3.335866 0.745067,0.829734 1.8288,1.202267 3.1496,1.202267 1.3208,0.01693 2.624667,-0.287867 3.877733,-1.202267 0.999067,-0.728133 1.811867,-1.964266 2.116667,-3.098799 0.237066,-0.9144 0.220133,-2.048934 -0.3048,-2.963334 -0.5588,-0.9652 -1.286933,-1.608666 -2.8956,-1.727199 -0.8128,-0.0508 -1.7272,0.321733 -2.099733,0.558799 -0.3556,-0.1016 -0.880534,-0.169333 -1.388533,0.01693 -0.508,0.2032 -1.337734,0.829733 -1.845734,1.490133 z"
         style="font-style:normal;font-variant:normal;font-weight:bold;font-stretch:normal;font-family:'Ktav Yad CLM';-inkscape-font-specification:'Ktav Yad CLM';stroke-width:0.26458332px"
         id="path4754"
         inkscape:connector-curvature="0" />
      <path
         d="m -100.33571,88.805343 c -0.1524,0.338666 -0.0339,0.9144 0.389471,1.083733 0.440267,0.2032 0.880533,-0.0508 1.151467,-0.474133 0.643466,-1.016 1.286933,-2.455333 1.964266,-3.623733 0.135467,-0.254 0.524933,-0.270934 0.694267,0.08467 0.3048,0.626534 1.032933,1.9812 1.4732,2.709333 0.491066,0.846667 1.253066,1.337734 2.099733,1.337734 0.880533,0 1.642533,-0.4572 2.1336,-1.6256 1.27,-3.014133 2.286,-5.164667 3.6068,-7.890933 0.389466,-0.829733 0.118533,-1.388533 -0.321734,-1.591733 -0.491066,-0.220134 -1.1684,0.01693 -1.591733,0.897466 -0.474133,0.999067 -2.861733,6.112933 -3.3528,7.095067 -0.2032,0.389466 -0.6604,0.965199 -1.032933,0.3556 -0.897467,-1.405467 -1.3716,-2.3368 -2.032,-3.572934 -0.626533,-1.134533 -1.862667,-0.999066 -2.4384,-0.254 -0.728133,0.948267 -1.100666,1.9812 -1.778,3.420534 -0.389466,0.8128 -0.524933,1.032933 -0.965204,2.048933 z"
         style="font-style:normal;font-variant:normal;font-weight:bold;font-stretch:normal;font-family:'Ktav Yad CLM';-inkscape-font-specification:'Ktav Yad CLM';stroke-width:0.26458332px"
         id="path4756"
         inkscape:connector-curvature="0" />
      <path
         d="m -109.24264,83.65761 c -0.0339,0.9144 0.11854,1.557866 -0.0677,2.472266 -0.22013,1.016 -0.72813,1.794933 -1.54093,2.370667 -0.69427,0.491066 -1.60867,0.6096 -2.37067,0.491066 -0.6604,-0.08467 -1.1684,0.118534 -1.23613,0.474134 -0.1016,0.4572 0.28786,0.829733 0.93133,0.999066 0.762,0.220134 2.09973,0.220134 2.92947,-0.1524 1.64253,-0.728133 2.42146,-1.761066 2.86173,-3.420533 0.1524,-0.592666 0.254,-1.388533 0.2032,-2.1336 -0.0169,-0.237066 0.11853,-0.372533 0.23707,-0.575733 0.23706,-0.372533 0.62653,-0.7112 1.1684,-0.948267 1.03293,-0.440266 2.45533,-0.254 3.06493,0.474134 0.89746,1.0668 0.38946,2.810933 -0.23707,4.047066 -0.23707,0.491067 -0.38947,0.762 -0.64347,1.2192 -0.22013,0.372533 -0.18626,0.8636 0.18627,1.0668 0.37253,0.237067 0.8636,-0.1524 1.0668,-0.372533 0.3556,-0.372534 0.77893,-0.931334 1.10067,-1.507067 0.89746,-1.608666 1.13453,-2.9972 0.7112,-4.572 -0.28787,-1.032933 -1.15147,-1.862666 -1.9812,-2.1844 -1.5748,-0.592666 -3.42053,-0.457199 -4.75827,0.4572 -0.27093,0.186267 -0.6604,0.575734 -1.04986,1.0668 -0.11854,0.1524 -0.5588,0.08467 -0.57574,0.728134 z"
         style="font-style:normal;font-variant:normal;font-weight:bold;font-stretch:normal;font-family:'Ktav Yad CLM';-inkscape-font-specification:'Ktav Yad CLM';stroke-width:0.26458332px"
         id="path4758"
         inkscape:connector-curvature="0" />
      <path
         d="m -115.54181,83.183476 c 0.77893,0.220134 1.4224,1.405467 1.10067,2.269067 -0.254,0.694267 -0.93134,1.4732 -1.71027,1.9304 -0.5588,0.338667 -1.30387,0.626533 -1.81187,0.626533 -0.3556,0 -0.54186,-0.423333 -0.254,-1.016 0.67734,-1.405466 1.4732,-2.556933 2.67547,-3.81 z m 0.9144,-3.403599 c -0.47413,0.3556 -0.8636,0.778933 -1.50707,1.337733 -0.37253,-0.08467 -1.04986,-0.220133 -1.7272,-0.254 -0.99906,-0.03387 -1.55786,0.03387 -2.54,0.169333 -0.77893,0.118534 -1.524,0.9144 -0.77893,1.27 0.27093,0.135467 0.5588,0.06773 1.55787,0.06773 0.59266,0 1.4732,0.06773 2.09973,0.220134 -1.15147,1.253066 -2.35373,3.2004 -2.91253,4.402666 -0.37254,0.762 -0.59267,1.6256 -0.3048,2.1336 0.52493,0.948267 1.55786,0.9652 2.6416,0.829733 1.15146,-0.135466 1.9812,-0.4572 2.7432,-0.846666 0.69426,-0.3556 1.30386,-0.829734 1.89653,-1.456267 0.762,-0.795866 1.13453,-1.896533 1.1176,-3.014133 -0.0339,-1.286933 -0.8128,-2.1844 -1.84573,-2.777067 0,0 0.47413,-0.4572 0.8128,-0.728133 0.47413,-0.423333 0.67733,-1.032933 0.28786,-1.490133 -0.3556,-0.389467 -1.0668,-0.220133 -1.54093,0.135467 z"
         style="font-style:normal;font-variant:normal;font-weight:bold;font-stretch:normal;font-family:'Ktav Yad CLM';-inkscape-font-specification:'Ktav Yad CLM';stroke-width:0.26458332px"
         id="path4760"
         inkscape:connector-curvature="0" />
      <path
         d="m -121.3838,79.356543 c -0.5588,-0.1524 -1.10067,0.169334 -1.28694,0.694267 -0.5588,1.4732 -0.99906,2.556933 -1.6764,4.148666 -0.76199,1.778 -1.37159,3.064934 -2.04893,4.504267 -0.22013,0.4572 -0.0847,1.100666 0.52494,1.1684 0.5588,0.06773 1.11759,-0.220134 1.55786,-1.032934 0.28787,-0.541866 1.03293,-2.099733 1.6256,-3.488266 0.8128,-1.845733 1.3208,-3.115733 1.9304,-4.792133 0.16933,-0.491067 -0.13547,-1.032933 -0.62653,-1.202267 z"
         style="font-style:normal;font-variant:normal;font-weight:bold;font-stretch:normal;font-family:'Ktav Yad CLM';-inkscape-font-specification:'Ktav Yad CLM';stroke-width:0.26458332px"
         id="path4762"
         inkscape:connector-curvature="0" />
      <path
         d="m -135.59085,83.318943 c 0.44026,0.5588 1.30386,0.389467 2.45533,-0.08467 0.59267,-0.237066 1.54093,-0.4064 2.40453,-0.270933 0.89747,0.1524 1.2192,0.338667 1.524,0.846667 0.38947,0.6604 0.3048,1.845733 -0.38946,2.6924 -0.79587,0.9652 -1.7272,1.473199 -2.8448,1.744133 -0.9144,0.220133 -2.5908,0.01693 -2.26907,-0.9652 0.11853,-0.3556 0.64347,-0.592667 1.2192,-0.6604 0.8636,-0.08467 1.6764,0.287867 2.0828,-0.626533 0.22013,-0.4572 -0.37253,-0.999067 -1.18533,-1.1684 -0.52494,-0.1016 -1.40547,-0.01693 -2.0828,0.2032 -1.016,0.338666 -1.55787,1.032933 -1.8288,1.8796 -0.22014,0.677333 -0.16934,1.456266 0.3556,2.065866 0.77893,0.931333 2.04893,1.016 2.91253,1.016 1.33773,0 2.52307,-0.287867 3.84387,-1.134533 1.08373,-0.677334 1.76106,-1.591733 2.16746,-2.6924 0.508,-1.405467 0.22014,-2.980267 -0.67733,-3.979333 -0.84667,-0.931333 -2.15053,-1.2192 -3.3528,-1.2192 -1.016,0 -1.8288,0.135467 -2.96333,0.524933 -0.84667,0.3048 -1.91347,1.134533 -1.3716,1.8288 z"
         style="font-style:normal;font-variant:normal;font-weight:bold;font-stretch:normal;font-family:'Ktav Yad CLM';-inkscape-font-specification:'Ktav Yad CLM';stroke-width:0.26458332px"
         id="path4764"
         inkscape:connector-curvature="0" />
      <path
         d="m -138.63885,79.102543 c -0.6604,1.7272 -1.40546,3.556 -2.1336,5.164667 -0.28786,0.643466 -0.54186,1.100666 -0.8128,1.5748 -0.59266,0.135466 -1.30386,0.6096 -1.81186,1.1176 -0.44027,0.440266 -0.77894,1.117599 -0.84667,1.591733 -0.0847,0.575733 -0.0339,1.202266 0.33867,1.4224 0.42333,0.270933 1.28693,0.186266 1.91346,-0.254 0.93134,-0.6604 1.43934,-1.507067 1.86267,-2.252133 0.4572,-0.8128 1.54093,-3.2004 2.0828,-4.5212 0.49107,-1.202267 1.10067,-2.726267 1.76107,-4.148667 0.94826,-0.1524 1.64253,-0.321733 2.52306,-0.745066 1.3716,-0.6604 2.31987,-1.540934 2.82787,-2.3368 0.77893,-1.236133 1.10067,-2.658533 0.33867,-3.3528 -0.44027,-0.389467 -1.38854,-0.541867 -2.65854,0.08467 -1.4224,0.7112 -2.57386,1.761066 -3.6576,3.335866 -0.254,0.3556 -0.47413,0.728133 -0.69426,1.134533 -1.33774,0.237067 -3.01414,0.5588 -4.75827,1.100667 -1.2192,0.389467 -2.57387,0.999067 -3.67453,1.7272 -0.88054,0.592667 -1.9812,1.7272 -1.8796,2.675466 0.0847,0.897467 0.67733,1.354667 1.4732,1.778 0.57573,0.321734 1.4224,0.508 1.96426,0.575734 0.54187,0.06773 0.98214,-0.08467 1.04987,-0.321734 0.11853,-0.4572 -0.33867,-0.8128 -0.79587,-0.948266 -0.62653,-0.169334 -1.3716,-0.4572 -1.778,-0.795867 -0.49106,-0.4064 -0.1016,-0.948267 0.3048,-1.286933 0.79587,-0.643467 1.76107,-1.100667 2.82787,-1.4224 1.25307,-0.372533 2.7432,-0.694267 4.23333,-0.897467 z m 3.67454,-2.760133 c 0.54186,-0.846667 1.1684,-1.540933 2.01506,-1.9304 0.7112,-0.3048 1.04987,-0.06773 0.1524,0.778933 -0.64346,0.6096 -1.49013,0.982134 -2.16746,1.151467 z"
         style="font-style:normal;font-variant:normal;font-weight:bold;font-stretch:normal;font-family:'Ktav Yad CLM';-inkscape-font-specification:'Ktav Yad CLM';stroke-width:0.26458332px"
         id="path4766"
         inkscape:connector-curvature="0" />
      <path
         d="m 90.299447,103.32118 c -0.575733,0.254 -0.931333,0.88053 -0.6604,1.4224 0.254,0.5588 0.931334,0.6096 1.524,0.4064 0.897467,-0.28787 1.540933,-0.38947 2.269067,-0.22014 0.846666,0.2032 1.456266,0.72814 1.659466,1.59174 0.2032,0.93133 -0.338666,2.032 -1.151466,2.62466 -0.846667,0.62654 -2.032,0.88054 -3.031067,0.8636 -1.202266,-0.0169 -2.099733,-0.1524 -2.8956,-0.42333 -0.491066,-0.1524 -1.049866,-0.0169 -1.236133,0.27093 -0.287867,0.42334 0.08467,0.9652 0.5588,1.15147 0.643467,0.27093 1.4732,0.5588 2.4384,0.69427 0.8128,0.11853 1.456267,0.13546 2.167466,0.0339 1.27,-0.16933 2.404534,-0.47413 3.556,-1.3716 0.999067,-0.77893 1.4732,-1.91346 1.557867,-2.8956 0.1016,-1.35466 -0.270933,-2.47226 -1.1176,-3.38666 -0.745067,-0.79587 -1.896533,-1.20227 -3.031067,-1.2192 -0.8636,0 -1.947333,0.16933 -2.607733,0.4572 z"
         style="font-weight:bold"
         id="path4768"
         inkscape:connector-curvature="0" />
      <path
         d="m 74.449863,117.46051 c 1.456267,1.18533 3.437467,1.04987 4.826,0.59267 1.151467,-0.38947 2.2352,-1.20227 2.9972,-2.2352 0.778933,-1.0668 1.524,-2.47227 1.998133,-3.7084 0.592667,-1.54094 1.134533,-3.048 1.6256,-4.318 0.440267,-1.15147 0.762,-1.9812 1.337733,-3.11574 0.3556,-0.7112 0.3556,-1.38853 -0.220133,-1.6764 -0.508,-0.23706 -1.083733,0.1016 -1.540933,0.8128 -0.846667,1.30387 -1.337733,2.8448 -1.862667,4.33494 -0.440266,1.23613 -1.032933,2.8448 -1.591733,4.19946 -0.508,1.18534 -0.9652,2.16747 -1.540933,2.92947 -0.9652,1.27 -2.4892,1.94733 -4.2672,1.3716 -1.1684,-0.37253 -1.490133,-0.9652 -1.913467,-1.524 -0.287866,-0.37253 -1.032933,-0.1016 -0.897466,0.6604 0.118533,0.57573 0.592666,1.30387 1.049866,1.6764 z"
         style="font-weight:bold"
         id="path4770"
         inkscape:connector-curvature="0" />
      <path
         d="m 73.704803,108.33344 c -0.338666,-1.28693 0.3048,-2.35373 1.253067,-3.13266 0.795867,-0.6604 1.8796,-0.74507 2.607733,-0.57574 0.5588,0.13547 0.524934,1.08374 -0.745066,2.15054 -0.677334,0.5588 -1.761067,1.08373 -3.115734,1.55786 z m 7.7724,0.23707 c -0.423333,-0.33867 -0.9652,-0.0677 -1.3716,0.2032 -0.8636,0.57573 -1.845733,0.93133 -2.9464,1.1176 -0.728133,0.13547 -1.9812,0.1524 -2.472266,-0.22013 1.7272,-0.62654 2.607733,-1.08374 3.302,-1.60867 0.6096,-0.4572 1.202266,-1.08373 1.540933,-1.778 0.389466,-0.79587 0.4572,-1.6764 0.1016,-2.3876 -0.270933,-0.54187 -0.795867,-0.89747 -1.591733,-1.03293 -0.9144,-0.1524 -2.015067,-0.13547 -2.929467,0.23706 -1.151467,0.47414 -1.947333,1.1684 -2.370666,1.74414 -0.5588,0.79586 -0.982134,1.71026 -1.032934,2.70933 -0.0508,1.03293 0.237067,2.15053 0.762,2.794 0.6096,0.74507 1.4732,1.20227 2.404533,1.35467 1.659467,0.27093 4.131734,-0.0847 5.418667,-0.82974 0.677333,-0.38946 1.049866,-0.762 1.27,-1.0668 0.220133,-0.3048 0.3048,-0.9144 -0.08467,-1.23613 z"
         style="font-weight:bold"
         id="path4772"
         inkscape:connector-curvature="0" />
      <path
         d="m 61.394284,105.38704 c -0.254,0.52494 -0.135467,1.18534 0.389466,1.40547 0.3048,0.13547 0.948267,-0.0339 1.27,-0.44027 0.694267,-0.8636 1.811867,-1.6256 3.115733,-1.5748 1.151467,0.0508 2.032,0.93134 2.2352,1.8288 0.220134,1.04987 -0.1016,2.30294 -0.846666,3.4544 -0.338667,0.52494 -0.694267,1.2192 -0.186267,1.5748 0.575733,0.44027 1.27,-0.1524 1.693333,-0.77893 1.3208,-1.96427 1.490133,-3.77613 1.016,-5.30013 -0.474133,-1.49014 -1.845733,-2.60774 -3.742266,-2.72627 -1.947334,-0.11853 -4.097867,0.8128 -4.944533,2.55693 z"
         style="font-weight:bold"
         id="path4774"
         inkscape:connector-curvature="0" />
      <path
         d="m 44.647264,99.037044 c -0.524933,-0.08467 -1.049866,0.3048 -1.100666,0.795867 -0.0508,0.457199 0,0.812799 0.1524,1.253069 0.254,0.74506 0.897466,1.59173 1.7272,2.21826 -1.303867,0.23707 -2.912534,1.2192 -3.572933,1.7272 -0.982134,0.762 -1.761067,1.79494 -1.998134,2.87867 -0.186266,0.82973 -0.03387,1.99813 0.948267,2.98027 0.6096,0.62653 1.591733,0.82973 2.709333,0.89746 0.508,0.0339 1.811867,0.13547 1.862667,-0.6096 0.03387,-0.49106 -0.389467,-0.7112 -0.8128,-0.74506 -0.8128,-0.0339 -1.5748,-0.13547 -2.150534,-0.5588 -0.829733,-0.59267 -0.677333,-1.71027 -0.253999,-2.3368 0.541866,-0.8128 1.253066,-1.27 2.133599,-1.74414 0.575734,-0.3048 1.202267,-0.59266 1.8796,-0.7112 0.762,-0.13546 1.2192,-0.1016 2.116667,-0.18626 1.032933,-0.0847 1.016,-1.38854 0.795866,-1.71027 -0.287866,-0.42333 -0.389466,-0.49107 -1.066799,-0.52493 -0.2032,0 -0.3048,-0.0508 -0.474134,-0.11854 -0.795866,-0.22013 -1.7272,-1.2192 -1.913466,-1.76106 -0.135467,-0.3556 -0.1524,-0.44027 -0.169334,-0.7112 -0.0508,-0.440269 -0.254,-0.931336 -0.8128,-1.032936 z"
         style="font-weight:bold"
         id="path4776"
         inkscape:connector-curvature="0" />
      <path
         d="m 29.729034,105.06531 c -0.287867,0.42333 -0.372534,0.98213 0.03387,1.27 0.4572,0.33867 1.303867,0.0677 1.5748,-0.18627 0.389467,-0.37253 0.897467,-0.74506 1.286933,-0.94826 0.762,-0.37254 1.557867,-0.5588 2.302934,-0.52494 0.3556,0.0169 0.694266,0.18627 0.728133,0.6096 0.03387,0.6096 -0.643467,0.93134 -1.608667,1.3716 -0.4064,0.18627 -1.286933,0.508 -1.286933,1.13454 0,0.37253 0.338667,0.6096 0.762,0.67733 0.440267,0.0847 0.982133,-0.0169 1.3716,-0.22013 0.626533,-0.3048 0.6604,-0.32174 1.1176,-0.0339 0.423333,0.27093 0.270933,0.8128 0.135467,1.1176 -0.220134,0.47413 -0.372534,0.57573 -1.016,1.13453 -0.524934,0.4572 -0.541867,0.9652 -0.254,1.27 0.287866,0.3048 1.083733,0.0677 1.744133,-0.4064 0.7112,-0.54186 1.236133,-1.20226 1.4732,-1.81186 0.440266,-1.1684 -0.169334,-2.11667 -0.931334,-2.52307 -0.169333,-0.1016 -0.372533,-0.23707 -0.135466,-0.47413 0.4572,-0.4572 0.592666,-1.2192 0.440266,-2.01507 -0.2032,-0.99907 -1.439333,-1.71027 -2.675466,-1.7272 -1.4224,-0.0169 -3.9116,0.5588 -5.063066,2.286 z"
         style="font-weight:bold"
         id="path4778"
         inkscape:connector-curvature="0" />
      <path
         d="m 28.577571,101.20451 c -0.5588,-0.1524 -1.100666,0.16933 -1.286933,0.69427 -0.5588,1.4732 -0.999067,2.55693 -1.6764,4.14866 -0.762,1.778 -1.3716,3.06494 -2.048933,4.50427 -0.220133,0.4572 -0.08467,1.10067 0.524933,1.1684 0.5588,0.0677 1.1176,-0.22013 1.557867,-1.03293 0.287867,-0.54187 1.032933,-2.09974 1.6256,-3.48827 0.8128,-1.84573 1.3208,-3.11573 1.9304,-4.79213 0.169333,-0.49107 -0.135467,-1.03294 -0.626534,-1.20227 z"
         style="font-weight:bold"
         id="path4780"
         inkscape:connector-curvature="0" />
      <path
         d="m 19.230392,107.68998 c -0.592667,0.13546 -1.303867,0.6096 -1.811867,1.1176 -0.440266,0.44026 -0.778933,1.1176 -0.846666,1.59173 -0.08467,0.57573 -0.03387,1.20227 0.338666,1.4224 0.423334,0.27093 1.286934,0.18627 1.913467,-0.254 0.931333,-0.6604 1.439333,-1.50707 1.862667,-2.25213 0.4572,-0.8128 1.540933,-3.2004 2.0828,-4.5212 0.948266,-2.30294 2.302933,-5.791202 3.674533,-7.416802 0.5588,-0.6604 1.1684,-1.0668 1.8288,-1.286934 1.049866,-0.338666 1.777999,-0.287866 2.556933,0.1524 0.440266,0.270934 0.931333,0.524934 1.354666,0.1016 0.220134,-0.220133 -0.1524,-0.914399 -0.575733,-1.253066 -1.1176,-0.829733 -2.5908,-0.931333 -4.1148,-0.4064 -1.3208,0.474133 -2.556933,1.456266 -3.589866,2.9464 -0.7112,1.032933 -1.27,2.252133 -1.947333,3.826932 l -1.913467,4.65667 c 0,0 -0.491067,1.0668 -0.8128,1.5748 z"
         style="font-weight:bold"
         id="path4782"
         inkscape:connector-curvature="0" />
      <path
         d="m -6.1018302,104.03238 c -0.4233333,0.32173 -0.6773333,0.9144 -0.4572,1.28693 0.254,0.42333 0.8805333,0.6096 1.3885333,0.3556 1.1853333,-0.59267 2.5569332,-0.99907 4.19946645,-0.89747 1.23613326,0.0847 2.38759985,0.77894 3.09879985,1.69334 0.508,0.6604 0.5757333,1.6764 0.3217333,2.42146 -0.2878667,0.82974 -0.8636,1.524 -1.64253325,0.9652 -0.94826662,-0.6604 -1.10066661,-1.016 -1.87959985,-1.778 -0.9482667,-0.89746 -2.2013333,-0.8636 -2.9125332,0 -0.4741333,0.57574 -0.8466667,1.0668 -1.3208,1.76107 -0.3555999,0.508 -0.4910666,1.13453 -0.0508,1.54093 0.3725334,0.38947 0.9990667,0.33867 1.3885333,-0.0508 0.508,-0.52493 0.6942666,-1.03293 1.1683999,-1.54093 0.3217334,-0.3556 0.4741333,-0.33867 0.7112,-0.22013 0.2032,0.0847 0.5588,0.33866 0.8128,0.67733 0.71119992,0.9144 1.64253321,1.59173 2.7770665,1.5748 0.9482666,0 1.9303999,-0.94827 2.4045332,-2.09973 0.6604,-1.6256 0.4233333,-3.43747 -0.3556,-4.4704 -1.1345333,-1.54094 -2.70933318,-2.2352 -4.8259997,-2.31987 -1.8457333,-0.0677 -3.8099998,0.3048 -4.8259998,1.10067 z"
         style="font-weight:bold"
         id="path4784"
         inkscape:connector-curvature="0" />
      <path
         d="m -9.7086142,103.60904 c -0.2878667,0.59267 -0.5926668,1.30387 -0.9651998,1.9812 -0.270933,0.49107 -0.08467,1.1176 0.423333,1.3716 0.3386668,0.16934 1.0498667,0.0508 1.3208001,-0.42333 0.3217333,-0.5588 0.8805333,-1.6256 1.0837332,-2.09973 0.2201334,-0.49107 0.1524,-1.08374 -0.3386666,-1.33774 -0.508,-0.27093 -1.2361333,-0.0508 -1.5239999,0.508 z"
         style="font-weight:bold"
         id="path4786"
         inkscape:connector-curvature="0" />
      <path
         d="m -14.077402,103.47358 c -0.6604,2.032 -2.319867,6.12986 -3.268134,8.4836 -0.6604,1.60866 -2.438399,5.55413 -3.776133,7.89093 -0.270933,0.4572 -0.270933,1.0668 0.186267,1.33773 0.474133,0.3048 1.032933,0 1.354667,-0.4572 1.2192,-1.79493 3.268133,-6.1976 4.148666,-8.21266 0.9144,-2.16747 2.353733,-5.75734 3.2004,-8.41587 0.1524,-0.508 -0.06773,-1.10067 -0.575733,-1.28693 -0.541867,-0.16934 -1.100667,0.13546 -1.27,0.6604 z"
         style="font-weight:bold"
         id="path4788"
         inkscape:connector-curvature="0" />
      <path
         d="m -36.530968,108.33344 c -0.338666,-1.28693 0.3048,-2.35373 1.253067,-3.13266 0.795867,-0.6604 1.8796,-0.74507 2.607733,-0.57574 0.5588,0.13547 0.524933,1.08374 -0.745067,2.15054 -0.677333,0.5588 -1.761066,1.08373 -3.115733,1.55786 z m 7.7724,0.23707 c -0.423333,-0.33867 -0.9652,-0.0677 -1.3716,0.2032 -0.8636,0.57573 -1.845733,0.93133 -2.9464,1.1176 -0.728133,0.13547 -1.9812,0.1524 -2.472266,-0.22013 1.727199,-0.62654 2.607733,-1.08374 3.301999,-1.60867 0.6096,-0.4572 1.202267,-1.08373 1.540934,-1.778 0.389466,-0.79587 0.4572,-1.6764 0.1016,-2.3876 -0.270934,-0.54187 -0.795867,-0.89747 -1.591734,-1.03293 -0.9144,-0.1524 -2.015066,-0.13547 -2.929466,0.23706 -1.151467,0.47414 -1.947333,1.1684 -2.370667,1.74414 -0.5588,0.79586 -0.982133,1.71026 -1.032933,2.70933 -0.0508,1.03293 0.237067,2.15053 0.762,2.794 0.6096,0.74507 1.4732,1.20227 2.404533,1.35467 1.659467,0.27093 4.131733,-0.0847 5.418667,-0.82974 0.677333,-0.38946 1.049866,-0.762 1.27,-1.0668 0.220133,-0.3048 0.3048,-0.9144 -0.08467,-1.23613 z"
         style="font-weight:bold"
         id="path4790"
         inkscape:connector-curvature="0" />
      <path
         d="m -52.075737,110.65331 c -0.1524,0.33867 -0.03387,0.9144 0.389467,1.08373 0.440266,0.2032 0.880533,-0.0508 1.151466,-0.47413 0.643467,-1.016 1.286933,-2.45533 1.964267,-3.62373 0.135466,-0.254 0.524933,-0.27094 0.694266,0.0847 0.3048,0.62654 1.032934,1.9812 1.4732,2.70934 0.491067,0.84666 1.253067,1.33773 2.099734,1.33773 0.880533,0 1.642533,-0.4572 2.133599,-1.6256 1.27,-3.01413 2.286,-5.16467 3.6068,-7.89093 0.389467,-0.82974 0.118534,-1.38854 -0.321733,-1.59174 -0.491067,-0.22013 -1.1684,0.0169 -1.591733,0.89747 -0.474134,0.99907 -2.861733,6.11293 -3.3528,7.09507 -0.2032,0.38946 -0.6604,0.9652 -1.032933,0.3556 -0.897467,-1.40547 -1.3716,-2.3368 -2.032,-3.57294 -0.626534,-1.13453 -1.862667,-0.99906 -2.4384,-0.254 -0.728133,0.94827 -1.100667,1.9812 -1.778,3.42054 -0.389467,0.8128 -0.524933,1.03293 -0.9652,2.04893 z"
         style="font-weight:bold"
         id="path4792"
         inkscape:connector-curvature="0" />
      <path
         d="m -53.802921,103.60904 c -0.287867,0.59267 -0.592667,1.30387 -0.9652,1.9812 -0.270933,0.49107 -0.08467,1.1176 0.423333,1.3716 0.338667,0.16934 1.049867,0.0508 1.3208,-0.42333 0.321733,-0.5588 0.880533,-1.6256 1.083733,-2.09973 0.220134,-0.49107 0.1524,-1.08374 -0.338666,-1.33774 -0.508,-0.27093 -1.236134,-0.0508 -1.524,0.508 z"
         style="font-weight:bold"
         id="path4794"
         inkscape:connector-curvature="0" />
      <path
         d="m -66.401303,107.11424 c 0.491067,-0.88053 1.388534,-1.64253 2.624667,-2.0828 1.134533,-0.38946 2.472266,-0.28786 3.589866,0.254 0.846667,0.4064 1.507067,1.65947 1.016,2.76014 -0.541866,1.1684 -1.642533,1.94733 -3.048,2.06586 -1.015999,0.0677 -1.794933,-0.0847 -2.760133,-0.62653 -0.745066,-0.4064 -1.27,-0.98213 -1.507066,-1.55787 -0.135467,-0.28786 -0.08467,-0.52493 0.08467,-0.8128 z m -2.54,-0.6604 c -0.06773,0.23707 -0.118533,0.64347 -0.203199,1.04987 -0.338667,1.59173 -0.8128,3.13267 -1.3208,4.70747 -0.169334,0.49106 -0.08467,1.08373 0.4064,1.25306 0.524933,0.2032 1.032933,-0.4064 1.219199,-0.79586 0.491067,-1.016 0.897467,-2.06587 1.253067,-3.23427 0.389467,0.47413 0.7112,0.84667 1.439333,1.35467 1.2192,0.88053 2.624667,0.99906 3.725333,0.99906 2.472267,0 4.605867,-1.35466 5.198534,-3.7084 0.3048,-1.23613 0.0508,-2.65853 -0.846667,-3.6068 -1.202267,-1.25306 -2.5908,-1.5748 -4.131733,-1.60866 -1.032933,-0.0169 -2.269067,0.23706 -3.234267,0.74506 -1.253066,0.6604 -1.778,1.13454 -2.523066,2.30294 -0.254,0.38946 -0.897467,0.22013 -0.982134,0.54186 z"
         style="font-weight:bold"
         id="path4796"
         inkscape:connector-curvature="0" />
      <path
         d="m -81.708996,101.20451 c -0.5588,-0.1524 -1.100667,0.16933 -1.286934,0.69427 -0.5588,1.4732 -0.999066,2.55693 -1.676399,4.14866 -0.762,1.778 -1.3716,3.06494 -2.048934,4.50427 -0.220133,0.4572 -0.08467,1.10067 0.524934,1.1684 0.5588,0.0677 1.1176,-0.22013 1.557866,-1.03293 0.287867,-0.54187 1.032933,-2.09974 1.6256,-3.48827 0.8128,-1.84573 1.3208,-3.11573 1.9304,-4.79213 0.169333,-0.49107 -0.135467,-1.03294 -0.626533,-1.20227 z"
         style="font-weight:bold"
         id="path4798"
         inkscape:connector-curvature="0" />
      <path
         d="m -88.634725,104.25251 c -1.016,-0.52493 -2.523067,-0.4572 -3.589867,0.18627 -1.845733,1.10066 -2.421466,2.794 -2.404533,4.04706 0,1.1684 0.6096,2.09974 1.5748,2.70934 0.9652,0.62653 2.3368,0.72813 2.9972,0.64346 0.4572,-0.0508 1.27,-0.16933 1.2192,-0.8128 -0.0508,-0.47413 -0.5588,-0.69426 -1.032933,-0.6604 -0.3556,0.0339 -0.728134,0 -1.185334,-0.11853 -0.694266,-0.1524 -1.5748,-0.74507 -1.608666,-1.8288 -0.03387,-0.94827 0.694266,-1.94733 1.439333,-2.286 0.575733,-0.254 1.202267,-0.23707 1.811867,-0.0847 0.508,0.13547 0.999066,0.0339 1.27,-0.4064 0.220133,-0.37253 0,-1.1176 -0.491067,-1.38853 z m -3.014133,-8.889999 c -0.3556,0.541867 -0.643467,1.083733 -0.982134,1.794933 -0.677333,1.405467 -1.151466,2.455334 -1.828799,4.030136 -0.762,1.76106 -1.253067,2.91253 -2.032,4.74133 -0.795867,1.84573 -1.151467,2.65853 -2.1844,4.826 -0.254,0.508 -0.0508,0.9144 0.220133,1.03293 0.4064,0.2032 0.8128,0.0169 1.1684,-0.44026 0.3556,-0.47414 1.2192,-2.06587 1.6764,-2.8956 0.440267,-0.8128 1.151467,-2.4384 1.6256,-3.52214 0.643466,-1.49013 1.016,-2.40453 1.7272,-3.9116 0.948266,-1.998129 1.964266,-3.996262 2.353733,-4.910662 0.186267,-0.440267 0,-1.032933 -0.474133,-1.202267 -0.4572,-0.1524 -0.9652,-0.01693 -1.27,0.4572 z"
         style="font-weight:bold"
         id="path4800"
         inkscape:connector-curvature="0" />
      <path
         d="m -108.00645,105.38704 c -0.254,0.52494 -0.13547,1.18534 0.38947,1.40547 0.3048,0.13547 0.94826,-0.0339 1.27,-0.44027 0.69426,-0.8636 1.81186,-1.6256 3.11573,-1.5748 1.15147,0.0508 2.032,0.93134 2.2352,1.8288 0.22013,1.04987 -0.1016,2.30294 -0.84667,3.4544 -0.33866,0.52494 -0.69426,1.2192 -0.18626,1.5748 0.57573,0.44027 1.27,-0.1524 1.69333,-0.77893 1.320801,-1.96427 1.490134,-3.77613 1.016001,-5.30013 -0.474133,-1.49014 -1.845731,-2.60774 -3.742271,-2.72627 -1.94733,-0.11853 -4.09786,0.8128 -4.94453,2.55693 z"
         style="font-weight:bold"
         id="path4802"
         inkscape:connector-curvature="0" />
      <path
         d="m -116.10058,105.92891 -0.13546,0.18627 c 0,0 -0.49107,1.0668 -0.8128,1.5748 -0.59267,0.13546 -1.28694,0.6096 -1.81187,1.1176 -0.44027,0.44026 -0.77893,1.1176 -0.84667,1.59173 -0.0677,0.57573 -0.0339,1.20227 0.33867,1.4224 0.44027,0.27093 1.30387,0.18627 1.91347,-0.254 0.93133,-0.6604 1.43933,-1.50707 1.86266,-2.25213 0.42334,-0.72814 1.33774,-2.7432 1.91347,-4.1148 1.50707,-0.69427 2.21827,-1.15147 2.86173,-1.55787 0.64347,-0.4064 1.28693,-0.82973 2.032,-1.50707 0.88053,-0.79586 1.8796,-1.96426 2.3876,-3.098796 0.508,-1.151466 0.64347,-2.556933 0.13547,-3.335866 -0.47414,-0.694267 -1.0668,-0.897467 -1.96427,-0.897467 -1.6256,0 -2.9972,1.202267 -4.13173,2.827867 -0.72813,1.049866 -1.27,2.252133 -1.94733,3.826932 l -0.93134,2.21827 c -0.8128,0.254 -1.1684,0.37253 -1.99813,0.4572 -1.79493,0.18626 -2.55693,0 -2.7432,-1.03294 -0.11853,-0.64346 0.16933,-1.25306 0.69427,-1.81186 0.42333,-0.4572 1.1176,-0.8128 1.69333,-0.98214 0.4572,-0.13546 1.04987,-0.22013 1.7272,-0.27093 0.47413,-0.0339 0.9652,-0.355599 0.9144,-0.846666 -0.0508,-0.423333 -0.54187,-0.541866 -0.9652,-0.5588 -1.10067,-0.01693 -2.3876,0.169334 -3.6068,0.880534 -0.88053,0.508002 -1.71027,1.388532 -2.06587,2.252132 -0.33866,0.8128 -0.42333,1.8288 -0.13546,2.5908 0.2032,0.5588 0.6604,1.15147 1.3208,1.4224 0.74506,0.32173 1.40546,0.42333 2.4384,0.38947 0.72813,-0.0169 1.13453,-0.1016 1.86266,-0.23707 z m 3.42054,-3.13267 c 0.82973,-1.9304 1.74413,-3.725329 2.65853,-4.927596 0.77893,-1.032933 1.30386,-1.202266 1.7272,-0.999066 0.52493,0.270933 0.54186,0.948266 0.0677,1.761066 -0.5588,0.9652 -0.9652,1.473196 -1.64253,2.150536 -0.52494,0.52493 -1.4224,1.2192 -2.032,1.59173 -0.23707,0.1524 -0.49107,0.28787 -0.77893,0.42333 z"
         style="font-weight:bold"
         id="path4804"
         inkscape:connector-curvature="0" />
      <path
         d="m -126.00657,109.72198 c -0.4064,-0.27094 -0.89747,-0.1524 -1.15147,0.49106 -0.23707,0.6096 -0.0677,1.0668 0.3048,1.27 0.52493,0.28787 0.8128,0.0677 1.03293,-0.28786 0.18627,-0.33867 0.2032,-1.23614 -0.18626,-1.4732 z"
         style="font-style:normal;font-variant:normal;font-weight:normal;font-stretch:normal;font-family:'Ktav Yad CLM';-inkscape-font-specification:'Ktav Yad CLM';stroke-width:0.26458332px"
         id="path4806"
         inkscape:connector-curvature="0" />
    </g>
  </g>
</svg>
