<?xml version="1.0" encoding="UTF-8" standalone="no"?>
<!-- Created with Inkscape (http://www.inkscape.org/) -->

<svg
   xmlns:dc="http://purl.org/dc/elements/1.1/"
   xmlns:cc="http://creativecommons.org/ns#"
   xmlns:rdf="http://www.w3.org/1999/02/22-rdf-syntax-ns#"
   xmlns:svg="http://www.w3.org/2000/svg"
   xmlns="http://www.w3.org/2000/svg"
   xmlns:sodipodi="http://sodipodi.sourceforge.net/DTD/sodipodi-0.dtd"
   xmlns:inkscape="http://www.inkscape.org/namespaces/inkscape"
   width="100%"
   height="100%"
   viewBox="0 0 297.68615 54.996994"
   version="1.1"
   id="svg8"
   inkscape:version="0.92.5 (2060ec1f9f, 2020-04-08)"
   sodipodi:docname="lulav.svg">
  <defs
     id="defs2" />
  <sodipodi:namedview
     id="base"
     pagecolor="#ffffff"
     bordercolor="#666666"
     borderopacity="1.0"
     inkscape:pageopacity="0.0"
     inkscape:pageshadow="2"
     inkscape:zoom="1"
     inkscape:cx="503.45167"
     inkscape:cy="133.04991"
     inkscape:document-units="mm"
     inkscape:current-layer="layer1"
     showgrid="false"
     fit-margin-top="1"
     fit-margin-left="1"
     fit-margin-bottom="1"
     fit-margin-right="1"
     inkscape:window-width="1600"
     inkscape:window-height="1105"
     inkscape:window-x="0"
     inkscape:window-y="0"
     inkscape:window-maximized="1" />
  <metadata
     id="metadata5">
    <rdf:RDF>
      <cc:Work
         rdf:about="">
        <dc:format>image/svg+xml</dc:format>
        <dc:type
           rdf:resource="http://purl.org/dc/dcmitype/StillImage" />
        <dc:title></dc:title>
      </cc:Work>
    </rdf:RDF>
  </metadata>
  <g
     inkscape:label="Layer 1"
     inkscape:groupmode="layer"
     id="layer1"
     transform="translate(-181.29356,-91.732875)">
    <g
       aria-label="בואו עננה ועב מקצוי המערב
בוא הגשם בוא וקרב וברכנו שפע רב"
       style="font-style:normal;font-variant:normal;font-weight:bold;font-stretch:normal;font-size:16.93333244px;line-height:125%;font-family:'לולב';-inkscape-font-specification:'לולב, Bold';font-variant-ligatures:normal;font-variant-caps:normal;font-variant-numeric:normal;font-feature-settings:normal;text-align:end;letter-spacing:0px;word-spacing:0px;writing-mode:lr-tb;text-anchor:end;fill:#000000;fill-opacity:1;stroke:none;stroke-width:0.26458332px;stroke-linecap:butt;stroke-linejoin:miter;stroke-opacity:1"
       id="text817">
      <path
         d="m 469.37445,96.950814 c 1.70873,0.323273 2.54,-0.277091 4.35648,-0.277091 1.04679,0 1.81649,0.646546 2.06279,1.431637 0.33867,1.046787 0.30788,2.13976 0.0924,3.38667 -3.00181,-0.27709 -6.31151,-0.24631 -7.89709,0.53878 -0.0616,1.06219 -0.47721,2.10897 -1.29309,2.98643 l 0.23091,0.18473 c 0.66194,-0.5234 1.49321,-0.80049 2.60158,-0.92364 2.47842,-0.29249 4.89527,-0.10776 7.03503,0.27709 0.0924,-1.10836 0.61576,-2.10897 1.41624,-2.83248 -0.52339,-0.0616 -1.07758,-0.13855 -1.63176,-0.18473 0.53879,-2.001214 1.13915,-3.956244 0.55418,-5.834305 -0.35406,-1.169939 -1.23151,-1.847272 -2.49381,-1.985818 -1.67794,-0.169333 -2.8017,0.415637 -4.03322,0.246303 -0.64654,-0.09236 -1.18533,-0.461818 -1.33927,-1.200727 h -0.21551 c -0.15394,0.954424 -0.72352,2.078182 -1.2777,2.770909 0.38485,0.800485 0.96982,1.246909 1.83188,1.416242 z"
         id="path901"
         inkscape:connector-curvature="0" />
      <path
         d="m 465.14114,97.243299 c 0.49261,-1.185333 0.89285,-2.54 0,-3.171151 -0.30788,-0.215515 -0.64655,-0.277091 -1.03139,-0.307879 -1.00061,-0.06158 -1.524,-0.123152 -1.87806,-1.031394 l -0.2617,0.01539 c -0.077,0.969818 -0.56958,2.001212 -1.23152,2.663151 0.27709,0.800485 1.09297,1.277697 1.81649,1.524 0.67733,0.230909 1.46242,0.292485 2.10897,0.307879 -0.67734,1.108364 -1.15455,2.293697 -1.38546,3.848485 -0.20012,1.35467 -0.18472,2.63237 0.0616,3.84849 h 0.21551 c 0.49261,-1.016 1.40085,-1.70873 2.49382,-2.10897 -1.0006,-1.07758 -1.43163,-2.23212 -1.38545,-3.494429 0.0308,-0.877455 0.23091,-1.477818 0.47721,-2.093576 z"
         id="path903"
         inkscape:connector-curvature="0" />
      <path
         d="m 450.13208,92.825239 c -0.2463,0.93903 -0.7543,1.631757 -1.38545,2.324484 0.0924,1.046788 0.53878,1.801091 1.13915,2.524606 -0.69273,1.016 -1.21612,1.647152 -1.21612,2.878671 0,1.03139 0.30787,1.7549 0.86206,2.50921 -0.20012,0.63115 -0.508,1.21612 -0.95443,1.73951 l 0.18473,0.21552 c 0.63115,-0.508 1.44703,-0.78509 2.44764,-0.78509 0.84666,0 1.37006,0.2463 2.12436,0.47721 0.2617,-0.93903 0.63115,-1.75491 1.12376,-2.46303 -1.44703,-0.32327 -2.67855,-0.63115 -3.50982,-1.24691 -0.67733,-0.49261 -1.016,-1.200727 -1.016,-1.985818 0,-0.400242 0.077,-0.738909 0.2617,-1.016 1.07757,0.846667 1.98581,1.354667 3.34048,2.016608 1.32388,0.64654 2.33988,1.30848 3.18655,2.04739 0.58497,0.508 1.07757,1.0314 1.04678,1.70873 -0.0154,0.508 -0.13854,0.69273 -0.35406,0.96982 l 0.18473,0.18472 c 0.7543,-0.61575 1.33927,-1.53939 1.38545,-2.72472 0.0462,-1.21612 -0.36945,-2.00121 -0.89284,-2.601578 0.72351,-1.123758 1.12375,-2.155152 1.12375,-3.248121 0,-1.046788 -0.60036,-1.816485 -1.58557,-2.124364 -0.80049,-0.246303 -1.2777,-0.692727 -1.524,-1.462424 l -0.21552,-0.01539 c -0.2463,0.785091 -0.53878,1.539394 -0.95442,2.232121 0.20012,0.815879 0.84667,1.185333 1.7703,1.631758 0.7543,0.35406 1.24691,0.908242 1.24691,1.724121 0,0.323272 -0.077,0.615757 -0.23091,0.877454 -1.0006,-0.785091 -2.13976,-1.508606 -3.66376,-2.185939 -0.98521,-0.446424 -2.21672,-1.200727 -2.89406,-2.139758 -0.41563,-0.569575 -0.76969,-1.200727 -0.81587,-2.031999 z"
         id="path905"
         inkscape:connector-curvature="0" />
      <path
         d="m 445.80641,97.243299 c 0.4926,-1.185333 0.89285,-2.54 0,-3.171151 -0.30788,-0.215515 -0.64655,-0.277091 -1.0314,-0.307879 -1.0006,-0.06158 -1.524,-0.123152 -1.87806,-1.031394 l -0.26169,0.01539 c -0.077,0.969818 -0.56958,2.001212 -1.23152,2.663151 0.27709,0.800485 1.09297,1.277697 1.81649,1.524 0.67733,0.230909 1.46242,0.292485 2.10897,0.307879 -0.67734,1.108364 -1.15455,2.293697 -1.38546,3.848485 -0.20012,1.35467 -0.18473,2.63237 0.0616,3.84849 h 0.21551 c 0.49261,-1.016 1.40085,-1.70873 2.49382,-2.10897 -1.00061,-1.07758 -1.43164,-2.23212 -1.38545,-3.494429 0.0308,-0.877455 0.2309,-1.477818 0.47721,-2.093576 z"
         id="path907"
         inkscape:connector-curvature="0" />
      <path
         d="m 432.18282,100.7839 c -0.72352,0.47722 -2.01661,0.61576 -3.34049,0.75431 -1.18533,-1.06218 -1.95503,-3.50982 -0.61576,-7.57382 -0.55418,0.01539 -1.10836,0 -1.73951,-0.200121 -0.63115,-0.200121 -1.12376,-0.415636 -1.49321,-1.000606 h -0.23091 c -0.077,0.954424 -0.73891,2.247515 -1.35467,2.940242 0.58497,0.800485 1.29309,1.246909 2.46303,1.416243 0.32327,0.04618 0.78509,0.07697 1.18533,0.04618 -0.35406,1.216122 -0.40024,2.971032 0.21552,4.556612 -0.66194,0.10775 -1.2623,0.2463 -1.70873,0.4926 -1.03139,0.56958 -1.61636,1.524 -1.58557,2.69394 0.0154,0.78509 0.16933,1.37006 0.46181,2.032 l 0.29249,-0.0616 c -0.077,-0.55418 0.0154,-1.04678 0.40024,-1.41624 0.92364,-0.87745 3.86388,-0.90824 5.11079,-1.20072 2.77091,-0.64655 3.77151,-3.40207 3.91006,-6.373096 0.0616,-1.431637 -0.077,-2.647758 -0.30788,-3.802303 -0.27709,0 -0.86206,-0.07697 -1.20073,-0.200122 -0.53878,-0.200121 -0.95442,-0.415636 -1.23151,-1.015999 l -0.23091,0.01539 c -0.13855,0.954425 -0.49261,2.232122 -1.03139,2.924849 0.41563,0.800485 0.84666,1.139151 1.73951,1.416242 0.46182,0.138546 1.16994,0.200121 1.81649,0.138546 -0.0924,1.616363 -0.508,2.755523 -1.524,3.417453 z"
         id="path909"
         inkscape:connector-curvature="0" />
      <path
         d="m 420.66816,101.59978 c -1.80109,-0.18472 -2.67855,0.0154 -3.63297,0.43103 -0.077,1.07758 -0.52339,2.09358 -1.33927,2.97103 l 0.21551,0.20013 c 1.81649,-1.35467 4.09479,-0.96982 5.24933,-0.56958 0.15394,-1.15455 0.53879,-1.92424 1.16994,-2.54 -0.58497,-0.64655 -0.83127,-1.50861 -0.95442,-2.663152 -0.10776,-1.031394 0.0924,-2.278303 0.20012,-3.047999 0.15394,-1.046788 0.0462,-1.862667 -0.52339,-2.309091 -0.27709,-0.215515 -0.58497,-0.277091 -0.92364,-0.307879 -0.87745,-0.06158 -1.30848,-0.153939 -1.72412,-1.031394 l -0.21552,0.01539 c -0.0308,0.969818 -0.30787,1.847273 -0.92363,2.663151 0.29248,0.800485 0.7543,1.185334 1.44703,1.431637 0.58497,0.200121 1.40085,0.307878 2.18594,0.292485 -0.36946,1.508606 -0.49261,2.971032 -0.23091,4.464242 z"
         id="path911"
         inkscape:connector-curvature="0" />
      <path
         d="m 413.61776,101.59978 c -1.80109,-0.18472 -2.67855,0.0154 -3.63297,0.43103 -0.077,1.07758 -0.52339,2.09358 -1.33927,2.97103 l 0.21551,0.20013 c 1.81649,-1.35467 4.09479,-0.96982 5.24933,-0.56958 0.15394,-1.15455 0.53879,-1.92424 1.16994,-2.54 -0.58497,-0.64655 -0.83127,-1.50861 -0.95442,-2.663152 -0.10776,-1.031394 0.0924,-2.278303 0.20012,-3.047999 0.15394,-1.046788 0.0462,-1.862667 -0.52339,-2.309091 -0.27709,-0.215515 -0.58497,-0.277091 -0.92364,-0.307879 -0.87745,-0.06158 -1.30848,-0.153939 -1.72412,-1.031394 l -0.21552,0.01539 c -0.0308,0.969818 -0.30787,1.847273 -0.92363,2.663151 0.29248,0.800485 0.7543,1.185334 1.44703,1.431637 0.58497,0.200121 1.40085,0.307878 2.18594,0.292485 -0.36946,1.508606 -0.49261,2.971032 -0.23091,4.464242 z"
         id="path913"
         inkscape:connector-curvature="0" />
      <path
         d="m 400.40976,98.921238 c -1.80109,1.062182 -2.67855,2.278302 -2.63236,3.709942 0.0308,0.70812 0.26169,1.57018 0.86206,2.23212 h 0.23091 c 0.53878,-0.92364 1.33927,-1.5394 2.72472,-1.97043 -1.40085,-0.33866 -1.84727,-1.016 -1.86266,-1.57018 -0.0308,-0.70812 0.20012,-1.493209 0.95442,-2.062785 z m 5.46485,5.957452 c 0.43103,-0.78509 1.44703,-1.5086 2.35527,-1.75491 -0.78509,-1.16994 -1.35467,-2.09357 -0.90824,-3.802299 0.29248,-1.185333 0.60036,-2.447636 0.4926,-3.617576 -0.10775,-1.169939 -0.64654,-1.847272 -1.98581,-1.985818 -1.77031,-0.169333 -4.03322,0.415637 -5.38788,0.246303 -0.69273,-0.09236 -1.33928,-0.384848 -1.49321,-1.200727 h -0.21552 c -0.16933,0.954424 -0.80048,2.078182 -1.40085,2.770909 0.41564,0.800485 1.04679,1.246909 2.00121,1.416242 1.86267,0.323273 3.54061,-0.277091 5.54182,-0.277091 1.32388,0 1.97043,0.631152 2.06279,1.354667 0.077,0.615758 -0.0616,1.370061 -0.508,2.30909 -0.44642,0.92364 -1.35467,2.40146 -0.81588,4.54121 z"
         id="path915"
         inkscape:connector-curvature="0" />
      <path
         d="m 388.7566,97.243299 c 0.49261,-1.185333 0.89285,-2.54 0,-3.171151 -0.30788,-0.215515 -0.64654,-0.277091 -1.03139,-0.307879 -1.00061,-0.06158 -1.524,-0.123152 -1.87806,-1.031394 l -0.2617,0.01539 c -0.077,0.969818 -0.56957,2.001212 -1.23151,2.663151 0.27709,0.800485 1.09297,1.277697 1.81648,1.524 0.67733,0.230909 1.46243,0.292485 2.10897,0.307879 -0.67733,1.108364 -1.15454,2.293697 -1.38545,3.848485 -0.20012,1.35467 -0.18473,2.63237 0.0616,3.84849 h 0.21552 c 0.4926,-1.016 1.40085,-1.70873 2.49382,-2.10897 -1.00061,-1.07758 -1.43164,-2.23212 -1.38546,-3.494429 0.0308,-0.877455 0.23091,-1.477818 0.47721,-2.093576 z"
         id="path917"
         inkscape:connector-curvature="0" />
      <path
         d="m 381.05965,100.7839 c -0.72352,0.47722 -2.01661,0.61576 -3.34049,0.75431 -1.18533,-1.06218 -1.95503,-3.50982 -0.61576,-7.57382 -0.55418,0.01539 -1.10836,0 -1.73951,-0.200121 -0.63115,-0.200121 -1.12376,-0.415636 -1.49321,-1.000606 h -0.23091 c -0.077,0.954424 -0.73891,2.247515 -1.35467,2.940242 0.58497,0.800485 1.29309,1.246909 2.46303,1.416243 0.32327,0.04618 0.78509,0.07697 1.18534,0.04618 -0.35407,1.216122 -0.40025,2.971032 0.21551,4.556612 -0.66194,0.10775 -1.2623,0.2463 -1.70873,0.4926 -1.03139,0.56958 -1.61636,1.524 -1.58557,2.69394 0.0154,0.78509 0.16933,1.37006 0.46182,2.032 l 0.29248,-0.0616 c -0.077,-0.55418 0.0154,-1.04678 0.40024,-1.41624 0.92364,-0.87745 3.86388,-0.90824 5.11079,-1.20072 2.77091,-0.64655 3.77152,-3.40207 3.91006,-6.373096 0.0616,-1.431637 -0.077,-2.647758 -0.30788,-3.802303 -0.27709,0 -0.86206,-0.07697 -1.20073,-0.200122 -0.53878,-0.200121 -0.95442,-0.415636 -1.23151,-1.015999 l -0.23091,0.01539 c -0.13854,0.954425 -0.49261,2.232122 -1.03139,2.924849 0.41563,0.800485 0.84666,1.139151 1.73951,1.416242 0.46182,0.138546 1.16994,0.200121 1.81649,0.138546 -0.0924,1.616363 -0.508,2.755523 -1.524,3.417453 z"
         id="path919"
         inkscape:connector-curvature="0" />
      <path
         d="m 363.03337,96.950814 c 1.70873,0.323273 2.54,-0.277091 4.35648,-0.277091 1.04679,0 1.81649,0.646546 2.06279,1.431637 0.33867,1.046787 0.30788,2.13976 0.0924,3.38667 -3.00181,-0.27709 -6.31151,-0.24631 -7.89709,0.53878 -0.0616,1.06219 -0.47721,2.10897 -1.29309,2.98643 l 0.23091,0.18473 c 0.66194,-0.5234 1.49321,-0.80049 2.60158,-0.92364 2.47842,-0.29249 4.89527,-0.10776 7.03503,0.27709 0.0924,-1.10836 0.61576,-2.10897 1.41624,-2.83248 -0.52339,-0.0616 -1.07758,-0.13855 -1.63176,-0.18473 0.53879,-2.001214 1.13915,-3.956244 0.55418,-5.834305 -0.35406,-1.169939 -1.23151,-1.847272 -2.49381,-1.985818 -1.67794,-0.169333 -2.8017,0.415637 -4.03322,0.246303 -0.64654,-0.09236 -1.18533,-0.461818 -1.33927,-1.200727 h -0.21551 c -0.15394,0.954424 -0.72352,2.078182 -1.2777,2.770909 0.38485,0.800485 0.96982,1.246909 1.83188,1.416242 z"
         id="path921"
         inkscape:connector-curvature="0" />
      <path
         d="m 349.02493,93.61033 c -0.12315,1.693333 -0.64654,2.170545 -1.7703,2.97103 0.18473,-0.769697 0.36945,-1.924243 -0.36946,-2.509212 -0.27709,-0.215515 -0.56957,-0.277091 -0.90824,-0.307879 -0.87745,-0.06158 -1.30848,-0.153939 -1.70873,-1.031394 l -0.16933,0.04618 c -0.0462,0.969818 -0.46182,1.970424 -1.016,2.632363 0.2617,0.800485 0.67733,1.185334 1.32388,1.431637 0.52339,0.200121 1.32388,0.277091 1.84727,0.292485 -1.7703,1.416242 -2.75551,4.29491 -2.0166,7.77394 h 0.29248 c 0.12315,-1.20073 0.69273,-2.40145 1.35467,-3.32509 -0.2463,-0.81588 -0.35406,-1.739517 -0.10776,-2.57079 0.20012,-0.646545 0.61576,-1.354667 1.30849,-1.754909 0.87745,-0.508 1.53939,-0.554182 2.47842,-0.554182 1.41624,0 2.61697,0.58497 3.24812,1.477818 0.60036,0.846667 0.7697,2.062793 0.49261,3.340483 -1.72412,-0.33866 -3.87928,-0.36945 -5.63418,0 -0.0462,0.81588 -0.61576,1.86267 -1.23152,2.94025 l 0.0924,0.20012 c 1.95503,-0.72352 4.49503,-0.64655 6.38849,-0.21552 0.64654,-1.38545 1.04679,-2.92485 1.13915,-4.49503 0.10776,-1.785697 0.0616,-3.232727 -0.56958,-4.618181 -0.60036,-1.293091 -1.84727,-1.908849 -3.14036,-1.908849 -0.55418,0 -0.90824,0.03079 -1.32388,0.184728 z"
         id="path923"
         inkscape:connector-curvature="0" />
      <path
         d="m 335.13963,97.997602 c -0.86206,0.877455 -2.04739,2.324488 -2.21673,4.140968 -0.10775,1.20073 0.27709,2.00121 0.66194,2.90946 0.43103,1.016 0.56958,2.24751 -0.10775,3.89466 l 0.20012,0.13855 c 1.03139,-1.06218 1.89345,-2.52461 2.06278,-3.89467 0.20013,-1.55479 -0.87745,-2.77091 -1.016,-4.3103 -0.10775,-1.139153 0.23091,-1.924244 0.61576,-2.755516 z m 1.41624,3.648368 c 0.43103,0.61575 0.69273,1.7703 0.60037,2.80169 1.5086,-0.55418 2.5246,-1.35466 3.24812,-2.69394 0.96982,-1.801088 1.33927,-3.987027 1.47782,-6.049815 0.077,-1.169939 -0.508,-1.847272 -1.72412,-1.985818 -1.60097,-0.169333 -3.84849,0.415637 -5.08,0.246303 -0.63116,-0.09236 -1.18534,-0.35406 -1.2777,-1.200727 h -0.23091 c -0.18473,0.954424 -0.78509,2.078182 -1.35467,2.770909 0.35406,0.800485 0.90825,1.246909 1.77031,1.416242 1.69333,0.323273 3.32509,-0.277091 5.14157,-0.277091 1.20073,0 1.7703,0.631152 1.83188,1.354667 0.0462,0.615758 -0.077,1.60097 -0.53879,2.30909 -0.67733,1.03139 -2.43224,1.32388 -3.86388,1.30849 z"
         id="path925"
         inkscape:connector-curvature="0" />
      <path
         d="m 326.14958,101.33809 c -2.09357,-0.0308 -4.0486,0.15394 -5.17236,0.69272 -0.077,1.07758 -0.508,2.09358 -1.32388,2.97103 l 0.21552,0.20013 c 0.67733,-0.53879 1.524,-0.80049 2.61696,-0.92364 2.49382,-0.27709 4.91067,-0.12315 7.03503,0.27709 0.077,-0.89285 0.46182,-1.72412 1.0314,-2.38606 -1.38546,-0.49261 -2.47843,-1.04679 -3.34049,-1.72412 0.077,-1.108365 0.18473,-2.293699 0.24631,-3.50982 0.20012,0.06158 0.55418,0.138546 0.81588,0.184728 1.016,0.200121 1.61636,-0.07697 2.35527,-0.66194 -0.27709,-0.846666 -0.38485,-2.278303 -0.13855,-3.217333 l -0.16933,-0.123151 c -0.49261,0.477212 -1.00061,0.554181 -1.58558,0.554181 -0.58497,0 -1.03139,-0.138545 -1.47781,-0.323272 -0.0924,2.370666 -0.24631,4.587393 -1.00061,6.157575 -1.03139,-1.262303 -1.55479,-2.986424 -1.64715,-5.541818 -0.55418,0.01539 -1.12376,0.03079 -1.75491,-0.169333 -0.63115,-0.200121 -1.09297,-0.492606 -1.46242,-1.062182 l -0.21552,0.03079 c -0.0924,0.954424 -0.78509,2.247515 -1.41624,2.940242 0.56957,0.800485 1.35466,1.246909 2.2783,1.416243 0.7697,0.138545 1.66255,0.138545 2.44764,-0.107758 0.16933,0.754303 0.23091,1.431636 0.15394,2.355273 0.26169,0.600363 0.80048,1.323875 1.5086,1.970425 z"
         id="path927"
         inkscape:connector-curvature="0" />
      <path
         d="m 317.51361,97.243299 c 0.4926,-1.185333 0.89285,-2.54 0,-3.171151 -0.30788,-0.215515 -0.64655,-0.277091 -1.0314,-0.307879 -1.0006,-0.06158 -1.524,-0.123152 -1.87806,-1.031394 l -0.26169,0.01539 c -0.077,0.969818 -0.56958,2.001212 -1.23152,2.663151 0.27709,0.800485 1.09297,1.277697 1.81648,1.524 0.67734,0.230909 1.46243,0.292485 2.10897,0.307879 -0.67733,1.108364 -1.15454,2.293697 -1.38545,3.848485 -0.20012,1.35467 -0.18473,2.63237 0.0616,3.84849 h 0.21551 c 0.49261,-1.016 1.40085,-1.70873 2.49382,-2.10897 -1.00061,-1.07758 -1.43164,-2.23212 -1.38546,-3.494429 0.0308,-0.877455 0.23091,-1.477818 0.47722,-2.093576 z"
         id="path929"
         inkscape:connector-curvature="0" />
      <path
         d="m 310.23228,99.598572 c 0.84666,-1.477818 1.32387,-3.155758 1.2623,-4.325697 -0.0616,-1.123758 -1.06218,-1.60097 -2.032,-1.462424 -0.96982,0.138545 -1.55479,-0.15394 -1.90885,-0.831273 h -0.2463 c -0.0462,1.108364 -0.38485,2.124364 -1.00061,3.001818 0.29249,0.769697 1.16994,0.846667 2.30909,0.846667 0.78509,0 1.44703,0.461818 1.49321,1.323878 0.0154,0.384849 -0.0924,0.800485 -0.30787,1.231516 z"
         id="path931"
         inkscape:connector-curvature="0" />
      <path
         d="m 291.42091,98.921238 c -1.80109,1.062182 -2.67854,2.278302 -2.63236,3.709942 0.0308,0.70812 0.2617,1.57018 0.86206,2.23212 h 0.23091 c 0.53879,-0.92364 1.33927,-1.5394 2.72473,-1.97043 -1.40085,-0.33866 -1.84728,-1.016 -1.86267,-1.57018 -0.0308,-0.70812 0.20012,-1.493209 0.95442,-2.062785 z m 5.46485,5.957452 c 0.43103,-0.78509 1.44703,-1.5086 2.35527,-1.75491 -0.78509,-1.16994 -1.35466,-2.09357 -0.90824,-3.802299 0.29249,-1.185333 0.60037,-2.447636 0.49261,-3.617576 -0.10776,-1.169939 -0.64655,-1.847272 -1.98582,-1.985818 -1.7703,-0.169333 -4.03321,0.415637 -5.38788,0.246303 -0.69273,-0.09236 -1.33927,-0.384848 -1.49321,-1.200727 h -0.21552 c -0.16933,0.954424 -0.80048,2.078182 -1.40084,2.770909 0.41563,0.800485 1.04678,1.246909 2.00121,1.416242 1.86266,0.323273 3.5406,-0.277091 5.54182,-0.277091 1.32387,0 1.97042,0.631152 2.06278,1.354667 0.077,0.615758 -0.0616,1.370061 -0.508,2.30909 -0.44642,0.92364 -1.35466,2.40146 -0.81587,4.54121 z"
         id="path933"
         inkscape:connector-curvature="0" />
      <path
         d="m 281.8459,93.61033 c -0.12315,1.693333 -0.64654,2.170545 -1.7703,2.97103 0.18473,-0.769697 0.36946,-1.924243 -0.36945,-2.509212 -0.27709,-0.215515 -0.56958,-0.277091 -0.90825,-0.307879 -0.87745,-0.06158 -1.30848,-0.153939 -1.70872,-1.031394 l -0.16934,0.04618 c -0.0462,0.969818 -0.46181,1.970424 -1.016,2.632363 0.2617,0.800485 0.67734,1.185334 1.32388,1.431637 0.5234,0.200121 1.32388,0.277091 1.84728,0.292485 -1.77031,1.416242 -2.75552,4.29491 -2.01661,7.77394 h 0.29248 c 0.12316,-1.20073 0.69273,-2.40145 1.35467,-3.32509 -0.2463,-0.81588 -0.35406,-1.739517 -0.10776,-2.57079 0.20012,-0.646545 0.61576,-1.354667 1.30849,-1.754909 0.87745,-0.508 1.53939,-0.554182 2.47842,-0.554182 1.41624,0 2.61697,0.58497 3.24812,1.477818 0.60037,0.846667 0.7697,2.062793 0.49261,3.340483 -1.72412,-0.33866 -3.87927,-0.36945 -5.63418,0 -0.0462,0.81588 -0.61576,1.86267 -1.23152,2.94025 l 0.0924,0.20012 c 1.95503,-0.72352 4.49503,-0.64655 6.38848,-0.21552 0.64655,-1.38545 1.04679,-2.92485 1.13915,-4.49503 0.10776,-1.785697 0.0616,-3.232727 -0.56957,-4.618181 -0.60037,-1.293091 -1.84728,-1.908849 -3.14037,-1.908849 -0.55418,0 -0.90824,0.03079 -1.32388,0.184728 z"
         id="path935"
         inkscape:connector-curvature="0" />
      <path
         d="m 272.60956,100.7839 c -0.72351,0.47722 -2.01661,0.61576 -3.34048,0.75431 -1.18534,-1.06218 -1.95503,-3.50982 -0.61576,-7.57382 -0.55418,0.01539 -1.10837,0 -1.73952,-0.200121 -0.63115,-0.200121 -1.12375,-0.415636 -1.49321,-1.000606 h -0.23091 c -0.077,0.954424 -0.73891,2.247515 -1.35466,2.940242 0.58496,0.800485 1.29309,1.246909 2.46303,1.416243 0.32327,0.04618 0.78509,0.07697 1.18533,0.04618 -0.35406,1.216122 -0.40024,2.971032 0.21551,4.556612 -0.66194,0.10775 -1.2623,0.2463 -1.70872,0.4926 -1.0314,0.56958 -1.61637,1.524 -1.58558,2.69394 0.0154,0.78509 0.16933,1.37006 0.46182,2.032 l 0.29248,-0.0616 c -0.077,-0.55418 0.0154,-1.04678 0.40025,-1.41624 0.92363,-0.87745 3.86387,-0.90824 5.11078,-1.20072 2.77091,-0.64655 3.77152,-3.40207 3.91006,-6.373096 0.0616,-1.431637 -0.077,-2.647758 -0.30787,-3.802303 -0.2771,0 -0.86207,-0.07697 -1.20073,-0.200122 -0.53879,-0.200121 -0.95443,-0.415636 -1.23152,-1.015999 l -0.23091,0.01539 c -0.13854,0.954425 -0.4926,2.232122 -1.03139,2.924849 0.41564,0.800485 0.84667,1.139151 1.73952,1.416242 0.46181,0.138546 1.16993,0.200121 1.81648,0.138546 -0.0924,1.616363 -0.508,2.755523 -1.524,3.417453 z"
         id="path937"
         inkscape:connector-curvature="0" />
      <path
         d="m 260.34061,104.94027 c 0.44642,-0.87746 1.30848,-1.57018 2.13975,-1.81649 -0.69272,-1.16994 -1.03139,-2.09357 -0.60036,-3.802299 0.29248,-1.185333 0.55418,-2.447636 0.47721,-3.617576 -0.077,-1.169939 -0.52339,-1.847272 -1.67794,-1.985818 -1.524,-0.169333 -3.63297,0.415637 -4.80291,0.246303 -0.60036,-0.09236 -1.18533,-0.400242 -1.2623,-1.200727 h -0.20012 c -0.15394,0.954424 -0.72352,2.078182 -1.24691,2.770909 0.33867,0.800485 0.89285,1.246909 1.70873,1.416242 1.61636,0.323273 3.07879,-0.277091 4.80291,-0.277091 1.13915,0 1.63175,0.631152 1.70872,1.354667 0.0616,0.615758 -0.0616,1.370061 -0.4926,2.30909 -0.41564,0.92364 -1.2777,2.44764 -0.80049,4.55661 z"
         id="path939"
         inkscape:connector-curvature="0" />
      <path
         d="m 243.9153,96.950814 c 1.70873,0.323273 2.54,-0.277091 4.35648,-0.277091 1.04679,0 1.81649,0.646546 2.06279,1.431637 0.33867,1.046787 0.30788,2.13976 0.0924,3.38667 -3.00181,-0.27709 -6.31151,-0.24631 -7.89709,0.53878 -0.0616,1.06219 -0.47721,2.10897 -1.29309,2.98643 l 0.23091,0.18473 c 0.66194,-0.5234 1.49321,-0.80049 2.60158,-0.92364 2.47842,-0.29249 4.89527,-0.10776 7.03503,0.27709 0.0924,-1.10836 0.61576,-2.10897 1.41624,-2.83248 -0.52339,-0.0616 -1.07758,-0.13855 -1.63176,-0.18473 0.53879,-2.001214 1.13915,-3.956244 0.55418,-5.834305 -0.35406,-1.169939 -1.23151,-1.847272 -2.49381,-1.985818 -1.67794,-0.169333 -2.8017,0.415637 -4.03322,0.246303 -0.64654,-0.09236 -1.18533,-0.461818 -1.33927,-1.200727 h -0.21551 c -0.15394,0.954424 -0.72352,2.078182 -1.2777,2.770909 0.38485,0.800485 0.96982,1.246909 1.83188,1.416242 z"
         id="path941"
         inkscape:connector-curvature="0" />
      <path
         d="m 469.37447,118.11748 c 1.70873,0.32327 2.54,-0.27709 4.35648,-0.27709 1.04679,0 1.81649,0.64654 2.06279,1.43164 0.33867,1.04678 0.30788,2.13975 0.0924,3.38666 -3.00182,-0.27709 -6.31152,-0.2463 -7.8971,0.53879 -0.0616,1.06218 -0.47721,2.10897 -1.29309,2.98642 l 0.23091,0.18473 c 0.66194,-0.52339 1.49322,-0.80048 2.60158,-0.92364 2.47842,-0.29248 4.89527,-0.10775 7.03503,0.2771 0.0924,-1.10837 0.61576,-2.10897 1.41624,-2.83249 -0.52339,-0.0616 -1.07757,-0.13854 -1.63176,-0.18473 0.53879,-2.00121 1.13915,-3.95624 0.55419,-5.8343 -0.35407,-1.16994 -1.23152,-1.84727 -2.49382,-1.98582 -1.67794,-0.16933 -2.8017,0.41564 -4.03321,0.24631 -0.64655,-0.0924 -1.18534,-0.46182 -1.33928,-1.20073 h -0.21551 c -0.15394,0.95442 -0.72352,2.07818 -1.2777,2.77091 0.38485,0.80048 0.96982,1.24691 1.83188,1.41624 z"
         id="path943"
         inkscape:connector-curvature="0" />
      <path
         d="m 465.14114,118.40996 c 0.49261,-1.18533 0.89285,-2.54 0,-3.17115 -0.30787,-0.21551 -0.64654,-0.27709 -1.03139,-0.30788 -1.0006,-0.0616 -1.524,-0.12315 -1.87806,-1.03139 l -0.2617,0.0154 c -0.077,0.96982 -0.56957,2.00122 -1.23151,2.66316 0.27709,0.80048 1.09297,1.27769 1.81648,1.524 0.67734,0.2309 1.46243,0.29248 2.10897,0.30787 -0.67733,1.10837 -1.15454,2.2937 -1.38545,3.84849 -0.20012,1.35467 -0.18473,2.63236 0.0616,3.84848 h 0.21552 c 0.49261,-1.016 1.40085,-1.70872 2.49382,-2.10897 -1.00061,-1.07757 -1.43164,-2.23212 -1.38546,-3.49442 0.0308,-0.87745 0.23091,-1.47782 0.47721,-2.09358 z"
         id="path945"
         inkscape:connector-curvature="0" />
      <path
         d="m 450.13209,113.9919 c -0.24631,0.93903 -0.75431,1.63176 -1.38546,2.32449 0.0924,1.04679 0.53879,1.80109 1.13915,2.5246 -0.69272,1.016 -1.21612,1.64716 -1.21612,2.87867 0,1.0314 0.30788,1.75491 0.86206,2.50921 -0.20012,0.63115 -0.508,1.21612 -0.95442,1.73952 l 0.18472,0.21551 c 0.63116,-0.508 1.44704,-0.78509 2.44764,-0.78509 0.84667,0 1.37006,0.24631 2.12436,0.47721 0.2617,-0.93903 0.63116,-1.7549 1.12376,-2.46303 -1.44703,-0.32327 -2.67854,-0.63115 -3.50982,-1.2469 -0.67733,-0.49261 -1.016,-1.20073 -1.016,-1.98582 0,-0.40024 0.077,-0.73891 0.2617,-1.016 1.07758,0.84666 1.98582,1.35466 3.34049,2.0166 1.32387,0.64655 2.33987,1.30849 3.18654,2.0474 0.58497,0.508 1.07758,1.03139 1.04679,1.70872 -0.0154,0.508 -0.13855,0.69273 -0.35406,0.96982 l 0.18473,0.18473 c 0.7543,-0.61576 1.33927,-1.53939 1.38545,-2.72473 0.0462,-1.21612 -0.36945,-2.00121 -0.89285,-2.60157 0.72352,-1.12376 1.12376,-2.15515 1.12376,-3.24812 0,-1.04679 -0.60036,-1.81649 -1.58558,-2.12437 -0.80048,-0.2463 -1.27769,-0.69272 -1.524,-1.46242 l -0.21551,-0.0154 c -0.2463,0.7851 -0.53879,1.5394 -0.95443,2.23213 0.20013,0.81587 0.84667,1.18533 1.77031,1.63175 0.7543,0.35406 1.24691,0.90825 1.24691,1.72412 0,0.32328 -0.077,0.61576 -0.23091,0.87746 -1.00061,-0.78509 -2.13976,-1.50861 -3.66376,-2.18594 -0.98521,-0.44642 -2.21673,-1.20073 -2.89406,-2.13976 -0.41564,-0.56957 -0.7697,-1.20073 -0.81588,-2.032 z"
         id="path947"
         inkscape:connector-curvature="0" />
      <path
         d="m 433.32194,120.0879 c -1.8011,1.06219 -2.67855,2.27831 -2.63237,3.70994 0.0308,0.70812 0.2617,1.57018 0.86206,2.23212 h 0.23091 c 0.53879,-0.92363 1.33927,-1.53939 2.72473,-1.97042 -1.40085,-0.33867 -1.84727,-1.016 -1.86267,-1.57018 -0.0308,-0.70812 0.20012,-1.49321 0.95443,-2.06279 z m 5.46484,5.95746 c 0.43103,-0.78509 1.44703,-1.50861 2.35528,-1.75491 -0.78509,-1.16994 -1.35467,-2.09358 -0.90825,-3.8023 0.29249,-1.18534 0.60037,-2.44764 0.49261,-3.61758 -0.10776,-1.16994 -0.64655,-1.84727 -1.98582,-1.98582 -1.7703,-0.16933 -4.03321,0.41564 -5.38788,0.24631 -0.69272,-0.0924 -1.33927,-0.38485 -1.49321,-1.20073 H 431.644 c -0.16934,0.95442 -0.80049,2.07818 -1.40085,2.77091 0.41563,0.80048 1.04679,1.24691 2.00121,1.41624 1.86267,0.32327 3.54061,-0.27709 5.54182,-0.27709 1.32388,0 1.97042,0.63115 2.06279,1.35467 0.077,0.61575 -0.0616,1.37006 -0.508,2.30909 -0.44643,0.92363 -1.35467,2.40145 -0.81588,4.54121 z"
         id="path949"
         inkscape:connector-curvature="0" />
      <path
         d="m 427.3183,126.09154 h 0.20012 c 0.27709,-1.32388 0.89284,-2.24752 1.92424,-3.12497 -1.30849,-0.52339 -2.21673,-1.24691 -2.47843,-2.63236 -0.15393,-0.81588 -0.0924,-1.61637 0.15394,-2.67855 0.23091,-1.0006 0.0154,-1.86266 -0.76969,-2.30909 -0.63115,-0.36945 -1.33928,-0.2617 -2.17055,-0.33867 -0.64654,-0.0924 -1.32388,-0.2463 -1.44703,-1.07757 h -0.21551 c -0.10776,0.95442 -0.61576,2.07818 -1.12376,2.77091 0.41564,0.80048 1.016,1.16994 1.89345,1.41624 1.10837,0.30788 2.17055,0.38485 3.24812,0.2463 -0.43103,1.30849 -0.78509,2.57079 -0.67733,4.01782 -1.43164,1.49321 -2.87867,1.80109 -4.86448,1.60097 0.10775,1.33927 -0.10776,2.60158 -0.64655,3.84849 l 0.10776,0.15393 c 2.83248,-0.92363 4.5566,-2.81709 5.46485,-5.0646 0.0308,0.20012 0.077,0.41564 0.12315,0.61576 0.23091,0.93903 0.66194,1.75491 1.2777,2.55539 z"
         id="path951"
         inkscape:connector-curvature="0" />
      <path
         d="m 415.09554,120.96536 c -0.58497,-1.29309 -0.72351,-3.12497 -0.0462,-5.91127 -0.41564,0.0154 -0.90824,0.0154 -1.40085,-0.18473 -0.4926,-0.20012 -0.84666,-0.49261 -1.06218,-1.016 h -0.21551 c -0.0462,0.95442 -0.53879,2.15515 -1.016,2.84788 0.46181,0.80048 0.89284,1.24691 1.78569,1.41624 0.23091,0.0462 0.63115,0.077 0.81588,0.0924 -0.66194,1.18534 -1.2777,2.63237 -0.95442,4.3257 l 0.43103,-0.0154 c 0.16933,-0.69273 0.64654,-1.24691 1.66254,-1.55479 z m 3.95625,-2.70933 c -0.15394,2.67854 -1.09297,3.74072 -2.43225,4.32569 -1.66254,0.73891 -4.46424,0.64655 -6.21915,-0.0462 -0.83127,-1.06218 -1.2777,-3.15576 0.077,-7.23515 -0.41563,0.0154 -0.89285,0.0308 -1.35467,-0.16933 -0.46181,-0.20013 -0.78509,-0.47722 -1.0006,-1.0314 H 407.922 c -0.13855,0.95443 -0.73891,2.15515 -1.2777,2.84788 0.38485,0.80049 0.7697,1.2623 1.66255,1.43164 0.23091,0.0462 0.73891,0.0616 0.92363,0.077 -0.58497,1.90884 -1.0006,4.83369 0.61576,7.14278 1.43164,0.33867 2.89406,0.41564 4.54121,0.20013 1.93964,-0.2617 3.20194,-1.21613 3.92546,-2.46303 0.7543,-1.30849 1.12375,-2.90946 1.21612,-4.64897 0.077,-1.43164 -0.0462,-2.47843 -0.23091,-3.63297 -0.2463,0 -0.81588,-0.0616 -1.10837,-0.18473 -0.46181,-0.20012 -0.81587,-0.5234 -1.0006,-1.016 h -0.18473 c -0.13854,0.95442 -0.46182,2.15515 -0.93903,2.84788 0.35406,0.80048 0.72352,1.13915 1.49321,1.41624 0.40025,0.13855 0.92364,0.20012 1.49322,0.13855 z"
         id="path953"
         inkscape:connector-curvature="0" />
      <path
         d="m 396.2226,125.87602 c 2.87867,-0.63115 6.17297,-0.47721 8.71297,0.0924 0.0616,-1.07758 0.32327,-2.35527 0.60036,-3.41746 0.87746,-3.40206 0.38485,-5.09539 -0.2463,-6.20375 -0.56958,-1.00061 -1.75491,-1.5394 -2.87867,-1.69334 -2.032,-0.29248 -3.43284,0.66194 -4.77212,0.27709 -0.4926,-0.13854 -0.86206,-0.41563 -1.016,-1.0006 h -0.21551 c -0.15394,0.95442 -0.78509,2.24751 -1.32388,2.94024 0.41564,0.66194 1.016,1.07758 1.55479,1.21612 -0.72352,1.46243 -1.06218,3.34049 -0.83128,4.95685 0.13855,1.00061 0.41564,1.80109 0.41564,2.83248 z m 0.87746,-7.71236 c 2.12436,0.2617 3.46363,-0.7697 5.55721,-0.40024 0.98521,0.16933 1.84727,0.64654 2.20133,1.46242 0.38485,0.90825 0.38485,2.33988 0.0616,3.72534 -2.38606,-0.38485 -5.18776,-0.43103 -7.45067,-0.0154 -0.70812,-0.87745 -0.84667,-2.7863 -0.36945,-4.77212 z"
         id="path955"
         inkscape:connector-curvature="0" />
      <path
         d="m 379.8127,118.11748 c 1.70873,0.32327 2.54,-0.27709 4.35649,-0.27709 1.04678,0 1.81648,0.64654 2.06278,1.43164 0.33867,1.04678 0.30788,2.13975 0.0924,3.38666 -3.00182,-0.27709 -6.31152,-0.2463 -7.89709,0.53879 -0.0616,1.06218 -0.47721,2.10897 -1.29309,2.98642 l 0.23091,0.18473 c 0.66193,-0.52339 1.49321,-0.80048 2.60157,-0.92364 2.47843,-0.29248 4.89527,-0.10775 7.03503,0.2771 0.0924,-1.10837 0.61576,-2.10897 1.41624,-2.83249 -0.52339,-0.0616 -1.07757,-0.13854 -1.63175,-0.18473 0.53878,-2.00121 1.13915,-3.95624 0.55418,-5.8343 -0.35406,-1.16994 -1.23152,-1.84727 -2.49382,-1.98582 -1.67794,-0.16933 -2.8017,0.41564 -4.03321,0.24631 -0.64655,-0.0924 -1.18534,-0.46182 -1.33928,-1.20073 h -0.21551 c -0.15394,0.95442 -0.72352,2.07818 -1.2777,2.77091 0.38485,0.80048 0.96982,1.24691 1.83188,1.41624 z"
         id="path957"
         inkscape:connector-curvature="0" />
      <path
         d="m 375.57941,118.40996 c 0.4926,-1.18533 0.89285,-2.54 0,-3.17115 -0.30788,-0.21551 -0.64655,-0.27709 -1.0314,-0.30788 -1.0006,-0.0616 -1.524,-0.12315 -1.87806,-1.03139 l -0.26169,0.0154 c -0.077,0.96982 -0.56958,2.00122 -1.23152,2.66316 0.27709,0.80048 1.09297,1.27769 1.81649,1.524 0.67733,0.2309 1.46242,0.29248 2.10897,0.30787 -0.67734,1.10837 -1.15455,2.2937 -1.38546,3.84849 -0.20012,1.35467 -0.18473,2.63236 0.0616,3.84848 h 0.21551 c 0.49261,-1.016 1.40085,-1.70872 2.49382,-2.10897 -1.00061,-1.07757 -1.43164,-2.23212 -1.38545,-3.49442 0.0308,-0.87745 0.2309,-1.47782 0.47721,-2.09358 z"
         id="path959"
         inkscape:connector-curvature="0" />
      <path
         d="m 360.57035,113.9919 c -0.2463,0.93903 -0.7543,1.63176 -1.38546,2.32449 0.0924,1.04679 0.53879,1.80109 1.13916,2.5246 -0.69273,1.016 -1.21613,1.64716 -1.21613,2.87867 0,1.0314 0.30788,1.75491 0.86206,2.50921 -0.20012,0.63115 -0.508,1.21612 -0.95442,1.73952 l 0.18473,0.21551 c 0.63115,-0.508 1.44703,-0.78509 2.44763,-0.78509 0.84667,0 1.37006,0.24631 2.12437,0.47721 0.26169,-0.93903 0.63115,-1.7549 1.12376,-2.46303 -1.44704,-0.32327 -2.67855,-0.63115 -3.50982,-1.2469 -0.67734,-0.49261 -1.016,-1.20073 -1.016,-1.98582 0,-0.40024 0.077,-0.73891 0.26169,-1.016 1.07758,0.84666 1.98582,1.35466 3.34049,2.0166 1.32388,0.64655 2.33988,1.30849 3.18654,2.0474 0.58497,0.508 1.07758,1.03139 1.04679,1.70872 -0.0154,0.508 -0.13854,0.69273 -0.35406,0.96982 l 0.18473,0.18473 c 0.7543,-0.61576 1.33927,-1.53939 1.38545,-2.72473 0.0462,-1.21612 -0.36945,-2.00121 -0.89285,-2.60157 0.72352,-1.12376 1.12376,-2.15515 1.12376,-3.24812 0,-1.04679 -0.60036,-1.81649 -1.58557,-2.12437 -0.80049,-0.2463 -1.2777,-0.69272 -1.524,-1.46242 l -0.21552,-0.0154 c -0.2463,0.7851 -0.53879,1.5394 -0.95442,2.23213 0.20012,0.81587 0.84666,1.18533 1.7703,1.63175 0.7543,0.35406 1.24691,0.90825 1.24691,1.72412 0,0.32328 -0.077,0.61576 -0.23091,0.87746 -1.00061,-0.78509 -2.13976,-1.50861 -3.66376,-2.18594 -0.98521,-0.44642 -2.21672,-1.20073 -2.89406,-2.13976 -0.41563,-0.56957 -0.76969,-1.20073 -0.81588,-2.032 z"
         id="path961"
         inkscape:connector-curvature="0" />
      <path
         d="m 350.31802,118.40996 c 0.49261,-1.18533 0.89285,-2.54 0,-3.17115 -0.30787,-0.21551 -0.64654,-0.27709 -1.03139,-0.30788 -1.00061,-0.0616 -1.524,-0.12315 -1.87806,-1.03139 l -0.2617,0.0154 c -0.077,0.96982 -0.56957,2.00122 -1.23151,2.66316 0.27709,0.80048 1.09297,1.27769 1.81648,1.524 0.67734,0.2309 1.46243,0.29248 2.10897,0.30787 -0.67733,1.10837 -1.15454,2.2937 -1.38545,3.84849 -0.20012,1.35467 -0.18473,2.63236 0.0616,3.84848 h 0.21552 c 0.49261,-1.016 1.40085,-1.70872 2.49382,-2.10897 -1.00061,-1.07757 -1.43164,-2.23212 -1.38546,-3.49442 0.0308,-0.87745 0.23091,-1.47782 0.47721,-2.09358 z"
         id="path963"
         inkscape:connector-curvature="0" />
      <path
         d="m 337.97211,119.16427 c -0.86206,0.87745 -2.04739,2.32448 -2.21673,4.14097 -0.10775,1.20072 0.27709,2.00121 0.66194,2.90945 0.43103,1.016 0.56958,2.24752 -0.10776,3.89467 l 0.20013,0.13854 c 1.03139,-1.06218 1.89345,-2.5246 2.06278,-3.89466 0.20013,-1.55479 -0.87745,-2.77091 -1.016,-4.31031 -0.10775,-1.13915 0.23091,-1.92424 0.61576,-2.75551 z m 1.41624,3.64836 c 0.43103,0.61576 0.69273,1.7703 0.60037,2.8017 1.5086,-0.55418 2.5246,-1.35467 3.24812,-2.69394 0.96982,-1.80109 1.33927,-3.98703 1.47782,-6.04982 0.077,-1.16994 -0.508,-1.84727 -1.72413,-1.98582 -1.60097,-0.16933 -3.84848,0.41564 -5.08,0.24631 -0.63115,-0.0924 -1.18533,-0.35406 -1.27769,-1.20073 h -0.23091 c -0.18473,0.95442 -0.78509,2.07818 -1.35467,2.77091 0.35406,0.80048 0.90824,1.24691 1.7703,1.41624 1.69334,0.32327 3.3251,-0.27709 5.14158,-0.27709 1.20073,0 1.7703,0.63115 1.83188,1.35467 0.0462,0.61575 -0.077,1.60097 -0.53879,2.30909 -0.67733,1.03139 -2.43224,1.32388 -3.86388,1.30848 z"
         id="path965"
         inkscape:connector-curvature="0" />
      <path
         d="m 331.1834,126.10693 c 0.44642,-0.87745 1.30848,-1.57018 2.13976,-1.81648 -0.69273,-1.16994 -1.0314,-2.09358 -0.60037,-3.8023 0.29249,-1.18534 0.55418,-2.44764 0.47721,-3.61758 -0.077,-1.16994 -0.52339,-1.84727 -1.67793,-1.98582 -1.524,-0.16933 -3.63297,0.41564 -4.80291,0.24631 -0.60037,-0.0924 -1.18534,-0.40025 -1.26231,-1.20073 h -0.20012 c -0.15394,0.95442 -0.72351,2.07818 -1.24691,2.77091 0.33867,0.80048 0.89285,1.24691 1.70873,1.41624 1.61636,0.32327 3.07879,-0.27709 4.80291,-0.27709 1.13915,0 1.63176,0.63115 1.70873,1.35467 0.0616,0.61575 -0.0616,1.37006 -0.49261,2.30909 -0.41564,0.92363 -1.2777,2.44763 -0.80048,4.5566 z"
         id="path967"
         inkscape:connector-curvature="0" />
      <path
         d="m 314.75809,118.11748 c 1.70873,0.32327 2.54,-0.27709 4.35649,-0.27709 1.04678,0 1.81648,0.64654 2.06278,1.43164 0.33867,1.04678 0.30788,2.13975 0.0924,3.38666 -3.00182,-0.27709 -6.31152,-0.2463 -7.89709,0.53879 -0.0616,1.06218 -0.47722,2.10897 -1.29309,2.98642 l 0.2309,0.18473 c 0.66194,-0.52339 1.49322,-0.80048 2.60158,-0.92364 2.47842,-0.29248 4.89527,-0.10775 7.03503,0.2771 0.0924,-1.10837 0.61576,-2.10897 1.41624,-2.83249 -0.52339,-0.0616 -1.07757,-0.13854 -1.63176,-0.18473 0.53879,-2.00121 1.13916,-3.95624 0.55419,-5.8343 -0.35406,-1.16994 -1.23152,-1.84727 -2.49382,-1.98582 -1.67794,-0.16933 -2.8017,0.41564 -4.03321,0.24631 -0.64655,-0.0924 -1.18534,-0.46182 -1.33928,-1.20073 h -0.21551 c -0.15394,0.95442 -0.72352,2.07818 -1.2777,2.77091 0.38485,0.80048 0.96982,1.24691 1.83188,1.41624 z"
         id="path969"
         inkscape:connector-curvature="0" />
      <path
         d="m 304.59815,118.40996 c 0.4926,-1.18533 0.89284,-2.54 0,-3.17115 -0.30788,-0.21551 -0.64655,-0.27709 -1.0314,-0.30788 -1.0006,-0.0616 -1.524,-0.12315 -1.87806,-1.03139 l -0.2617,0.0154 c -0.077,0.96982 -0.56957,2.00122 -1.23151,2.66316 0.27709,0.80048 1.09297,1.27769 1.81648,1.524 0.67734,0.2309 1.46243,0.29248 2.10897,0.30787 -0.67733,1.10837 -1.15454,2.2937 -1.38545,3.84849 -0.20012,1.35467 -0.18473,2.63236 0.0616,3.84848 h 0.21552 c 0.49261,-1.016 1.40085,-1.70872 2.49382,-2.10897 -1.00061,-1.07757 -1.43164,-2.23212 -1.38546,-3.49442 0.0308,-0.87745 0.23091,-1.47782 0.47722,-2.09358 z"
         id="path971"
         inkscape:connector-curvature="0" />
      <path
         d="m 290.85138,118.11748 c 1.70873,0.32327 2.54,-0.27709 4.35649,-0.27709 1.04679,0 1.81648,0.64654 2.06279,1.43164 0.33866,1.04678 0.30787,2.13975 0.0924,3.38666 -3.00182,-0.27709 -6.31152,-0.2463 -7.89709,0.53879 -0.0616,1.06218 -0.47721,2.10897 -1.29309,2.98642 l 0.23091,0.18473 c 0.66194,-0.52339 1.49321,-0.80048 2.60157,-0.92364 2.47843,-0.29248 4.89527,-0.10775 7.03503,0.2771 0.0924,-1.10837 0.61576,-2.10897 1.41624,-2.83249 -0.52339,-0.0616 -1.07757,-0.13854 -1.63175,-0.18473 0.53878,-2.00121 1.13915,-3.95624 0.55418,-5.8343 -0.35406,-1.16994 -1.23152,-1.84727 -2.49382,-1.98582 -1.67794,-0.16933 -2.8017,0.41564 -4.03321,0.24631 -0.64655,-0.0924 -1.18533,-0.46182 -1.33927,-1.20073 h -0.21552 c -0.15394,0.95442 -0.72351,2.07818 -1.2777,2.77091 0.38485,0.80048 0.96982,1.24691 1.83188,1.41624 z"
         id="path973"
         inkscape:connector-curvature="0" />
      <path
         d="m 285.46352,126.10693 c 0.44642,-0.87745 1.30848,-1.57018 2.13976,-1.81648 -0.69273,-1.16994 -1.0314,-2.09358 -0.60037,-3.8023 0.29249,-1.18534 0.55419,-2.44764 0.47722,-3.61758 -0.077,-1.16994 -0.5234,-1.84727 -1.67794,-1.98582 -1.524,-0.16933 -3.63297,0.41564 -4.80291,0.24631 -0.60037,-0.0924 -1.18534,-0.40025 -1.26231,-1.20073 h -0.20012 c -0.15394,0.95442 -0.72351,2.07818 -1.24691,2.77091 0.33867,0.80048 0.89285,1.24691 1.70873,1.41624 1.61636,0.32327 3.07879,-0.27709 4.80291,-0.27709 1.13915,0 1.63176,0.63115 1.70873,1.35467 0.0616,0.61575 -0.0616,1.37006 -0.49261,2.30909 -0.41563,0.92363 -1.2777,2.44763 -0.80048,4.5566 z"
         id="path975"
         inkscape:connector-curvature="0" />
      <path
         d="m 276.78134,121.30403 c -0.43103,0.55418 -1.06218,0.90824 -1.90885,1.27769 -1.66255,0.72352 -4.38727,0.67734 -6.14218,-0.0154 -0.13855,1.21612 -0.508,2.13976 -1.09297,3.0326 1.43164,0.33867 3.94085,0.47722 5.66497,0.20013 1.60097,-0.2617 2.72473,-0.86207 3.38666,-2.41685 0.80049,-1.87806 0.87746,-4.51043 0.32328,-6.51164 -0.32328,-1.16994 -1.13915,-1.84727 -2.33988,-1.98582 -1.58558,-0.16933 -2.61697,0.41564 -3.78691,0.24631 -0.60036,-0.0924 -1.13915,-0.38485 -1.2623,-1.20073 h -0.24631 c -0.15394,0.95442 -0.72351,2.07818 -1.24691,2.77091 0.33867,0.80048 0.90825,1.24691 1.72413,1.41624 1.61636,0.32327 2.75551,-0.27709 4.47963,-0.27709 1.13915,0 1.90885,0.63115 2.21673,1.35467 0.2617,0.61575 0.29248,1.38545 0.23091,2.10897 z"
         id="path977"
         inkscape:connector-curvature="0" />
      <path
         d="m 264.9896,122.76645 c -1.80109,-0.18473 -2.67855,0.0154 -3.63297,0.43103 -0.077,1.07758 -0.5234,2.09358 -1.33927,2.97103 l 0.21551,0.20012 c 1.81649,-1.35467 4.09479,-0.96982 5.24933,-0.56957 0.15394,-1.15455 0.53879,-1.92425 1.16994,-2.54 -0.58497,-0.64655 -0.83127,-1.50861 -0.95442,-2.66316 -0.10776,-1.03139 0.0924,-2.2783 0.20012,-3.048 0.15394,-1.04678 0.0462,-1.86266 -0.52339,-2.30909 -0.27709,-0.21551 -0.58497,-0.27709 -0.92364,-0.30788 -0.87745,-0.0616 -1.30848,-0.15393 -1.72412,-1.03139 l -0.21552,0.0154 c -0.0308,0.96982 -0.30787,1.84728 -0.92363,2.66316 0.29248,0.80048 0.7543,1.18533 1.44703,1.43163 0.58497,0.20012 1.40085,0.30788 2.18594,0.29249 -0.36946,1.5086 -0.49261,2.97103 -0.23091,4.46424 z"
         id="path979"
         inkscape:connector-curvature="0" />
      <path
         d="m 258.33944,118.40996 c 0.49261,-1.18533 0.89285,-2.54 0,-3.17115 -0.30788,-0.21551 -0.64654,-0.27709 -1.03139,-0.30788 -1.00061,-0.0616 -1.524,-0.12315 -1.87806,-1.03139 l -0.2617,0.0154 c -0.077,0.96982 -0.56958,2.00122 -1.23152,2.66316 0.27709,0.80048 1.09297,1.27769 1.81649,1.524 0.67733,0.2309 1.46242,0.29248 2.10897,0.30787 -0.67733,1.10837 -1.15455,2.2937 -1.38546,3.84849 -0.20012,1.35467 -0.18472,2.63236 0.0616,3.84848 h 0.21551 c 0.49261,-1.016 1.40085,-1.70872 2.49382,-2.10897 -1.0006,-1.07757 -1.43163,-2.23212 -1.38545,-3.49442 0.0308,-0.87745 0.23091,-1.47782 0.47721,-2.09358 z"
         id="path981"
         inkscape:connector-curvature="0" />
      <path
         d="m 242.16047,120.96536 c -0.58497,-1.29309 -0.72352,-3.12497 -0.0462,-5.91127 -0.41563,0.0154 -0.90824,0.0154 -1.40084,-0.18473 -0.49261,-0.20012 -0.84667,-0.49261 -1.06219,-1.016 h -0.21551 c -0.0462,0.95442 -0.53879,2.15515 -1.016,2.84788 0.46182,0.80048 0.89285,1.24691 1.7857,1.41624 0.2309,0.0462 0.63115,0.077 0.81587,0.0924 -0.66194,1.18534 -1.27769,2.63237 -0.95442,4.3257 l 0.43103,-0.0154 c 0.16933,-0.69273 0.64655,-1.24691 1.66255,-1.55479 z m 3.95624,-2.70933 c -0.15394,2.67854 -1.09297,3.74072 -2.43224,4.32569 -1.66255,0.73891 -4.46425,0.64655 -6.21916,-0.0462 -0.83127,-1.06218 -1.27769,-3.15576 0.077,-7.23515 -0.41563,0.0154 -0.89284,0.0308 -1.35466,-0.16933 -0.46182,-0.20013 -0.78509,-0.47722 -1.00061,-1.0314 h -0.20012 c -0.13855,0.95443 -0.73891,2.15515 -1.2777,2.84788 0.38485,0.80049 0.7697,1.2623 1.66255,1.43164 0.23091,0.0462 0.73891,0.0616 0.92363,0.077 -0.58496,1.90884 -1.0006,4.83369 0.61576,7.14278 1.43164,0.33867 2.89406,0.41564 4.54121,0.20013 1.93964,-0.2617 3.20194,-1.21613 3.92546,-2.46303 0.7543,-1.30849 1.12376,-2.90946 1.21612,-4.64897 0.077,-1.43164 -0.0462,-2.47843 -0.23091,-3.63297 -0.2463,0 -0.81588,-0.0616 -1.10836,-0.18473 -0.46182,-0.20012 -0.81588,-0.5234 -1.00061,-1.016 h -0.18473 c -0.13854,0.95442 -0.46181,2.15515 -0.93903,2.84788 0.35406,0.80048 0.72352,1.13915 1.49322,1.41624 0.40024,0.13855 0.92363,0.20012 1.49321,0.13855 z"
         id="path983"
         inkscape:connector-curvature="0" />
      <path
         d="m 223.78013,122.75106 c -0.0616,1.06218 -0.46182,2.0166 -1.07758,2.80169 1.46243,0.40024 4.11019,0.81588 6.63479,0.24631 1.49321,-0.33867 2.57079,-1.21613 3.07879,-2.46303 0.33867,-0.84667 0.52339,-1.60097 0.56958,-2.52461 0.0924,-1.50861 0.0462,-3.03261 -0.56958,-4.46424 -0.46182,-1.07758 -1.63176,-1.5394 -2.70933,-1.69334 -1.93964,-0.29248 -3.38667,0.60037 -4.34109,0.32328 -0.58497,-0.16934 -0.98522,-0.47722 -1.18534,-1.04679 h -0.20012 c -0.0616,0.95442 -0.55418,2.24751 -1.0006,2.94024 0.4926,0.73891 1.18533,1.13915 1.73951,1.24691 0.13855,0.0308 0.27709,0.0462 0.41564,0.0616 -0.80049,2.44763 -1.67794,4.44884 2.47842,3.70993 0.16933,-0.93903 0.508,-1.86266 0.93903,-2.57078 -2.32448,0.27709 -2.95563,0.23091 -2.92485,-1.10837 1.66255,0.0308 2.66315,-0.76969 4.49503,-0.44642 0.90825,0.15394 2.24752,0.7697 2.43225,1.95503 0,1.41624 -0.60037,2.2783 -1.61637,2.86327 -1.58557,0.92364 -5.09539,0.95443 -7.15818,0.16934 z"
         id="path985"
         inkscape:connector-curvature="0" />
      <path
         d="m 219.593,121.95057 c -0.72352,0.47721 -2.01661,0.61576 -3.34049,0.7543 -1.18533,-1.06218 -1.95503,-3.50981 -0.61575,-7.57381 -0.55419,0.0154 -1.10837,0 -1.73952,-0.20013 -0.63115,-0.20012 -1.12376,-0.41563 -1.49321,-1.0006 h -0.23091 c -0.077,0.95442 -0.73891,2.24751 -1.35467,2.94024 0.58497,0.80049 1.29309,1.24691 2.46303,1.41624 0.32328,0.0462 0.78509,0.077 1.18534,0.0462 -0.35406,1.21613 -0.40025,2.97104 0.21551,4.55661 -0.66194,0.10776 -1.2623,0.2463 -1.70873,0.49261 -1.03139,0.56957 -1.61636,1.524 -1.58557,2.69394 0.0154,0.78509 0.16933,1.37006 0.46182,2.032 l 0.29248,-0.0616 c -0.077,-0.55418 0.0154,-1.04679 0.40024,-1.41624 0.92364,-0.87746 3.86388,-0.90824 5.11079,-1.20073 2.77091,-0.64654 3.77152,-3.40206 3.91006,-6.37309 0.0616,-1.43164 -0.077,-2.64776 -0.30788,-3.8023 -0.27709,0 -0.86206,-0.077 -1.20072,-0.20012 -0.53879,-0.20013 -0.95443,-0.41564 -1.23152,-1.016 l -0.23091,0.0154 c -0.13854,0.95442 -0.4926,2.23212 -1.03139,2.92485 0.41563,0.80048 0.84667,1.13915 1.73951,1.41624 0.46182,0.13855 1.16994,0.20012 1.81649,0.13855 -0.0924,1.61636 -0.508,2.75551 -1.524,3.41745 z"
         id="path987"
         inkscape:connector-curvature="0" />
      <path
         d="m 201.3974,126.10693 c 0.44643,-0.87745 1.30849,-1.57018 2.13976,-1.81648 -0.69273,-1.16994 -1.03139,-2.09358 -0.60036,-3.8023 0.29248,-1.18534 0.55418,-2.44764 0.47721,-3.61758 -0.077,-1.16994 -0.5234,-1.84727 -1.67794,-1.98582 -1.524,-0.16933 -3.63297,0.41564 -4.80291,0.24631 -0.60036,-0.0924 -1.18533,-0.40025 -1.2623,-1.20073 h -0.20012 c -0.15394,0.95442 -0.72352,2.07818 -1.24691,2.77091 0.33866,0.80048 0.89285,1.24691 1.70872,1.41624 1.61637,0.32327 3.07879,-0.27709 4.80291,-0.27709 1.13915,0 1.63176,0.63115 1.70873,1.35467 0.0616,0.61575 -0.0616,1.37006 -0.49261,2.30909 -0.41563,0.92363 -1.27769,2.44763 -0.80048,4.5566 z"
         id="path989"
         inkscape:connector-curvature="0" />
      <path
         d="m 184.9721,118.11748 c 1.70872,0.32327 2.54,-0.27709 4.35648,-0.27709 1.04679,0 1.81649,0.64654 2.06279,1.43164 0.33867,1.04678 0.30788,2.13975 0.0924,3.38666 -3.00181,-0.27709 -6.31151,-0.2463 -7.89709,0.53879 -0.0616,1.06218 -0.47721,2.10897 -1.29309,2.98642 l 0.23091,0.18473 c 0.66194,-0.52339 1.49321,-0.80048 2.60158,-0.92364 2.47842,-0.29248 4.89527,-0.10775 7.03503,0.2771 0.0924,-1.10837 0.61575,-2.10897 1.41624,-2.83249 -0.52339,-0.0616 -1.07758,-0.13854 -1.63176,-0.18473 0.53879,-2.00121 1.13915,-3.95624 0.55418,-5.8343 -0.35406,-1.16994 -1.23151,-1.84727 -2.49381,-1.98582 -1.67794,-0.16933 -2.8017,0.41564 -4.03322,0.24631 -0.64654,-0.0924 -1.18533,-0.46182 -1.33927,-1.20073 h -0.21551 c -0.15394,0.95442 -0.72352,2.07818 -1.2777,2.77091 0.38485,0.80048 0.96982,1.24691 1.83188,1.41624 z"
         id="path991"
         inkscape:connector-curvature="0" />
    </g>
    <g
       aria-label="פניה ברגשטיין    בוא הגשם"
       style="font-style:normal;font-variant:normal;font-weight:normal;font-stretch:normal;font-size:16.93333244px;line-height:125%;font-family:Sans;-inkscape-font-specification:'Adobe Helvetica';letter-spacing:0px;word-spacing:0px;fill:#000000;fill-opacity:1;stroke:none;stroke-width:0.26458332px;stroke-linecap:butt;stroke-linejoin:miter;stroke-opacity:1"
       id="text837">
      <path
         d="m 290.83599,141.096 c -0.0308,0.53109 -0.23091,1.0083 -0.53879,1.40085 0.73121,0.20012 2.05509,0.40794 3.31739,0.12315 0.74661,-0.16934 1.2854,-0.60806 1.5394,-1.23152 0.16933,-0.42333 0.26169,-0.80048 0.28479,-1.2623 0.0462,-0.7543 0.0231,-1.5163 -0.28479,-2.23212 -0.23091,-0.53879 -0.81588,-0.7697 -1.35467,-0.84667 -0.96982,-0.14624 -1.69333,0.30018 -2.17054,0.16164 -0.29249,-0.0847 -0.49261,-0.23861 -0.59267,-0.5234 h -0.10006 c -0.0308,0.47722 -0.27709,1.12376 -0.5003,1.47013 0.2463,0.36945 0.59266,0.56957 0.86975,0.62345 0.0693,0.0154 0.13855,0.0231 0.20782,0.0308 -0.40024,1.22382 -0.83897,2.22442 1.23921,1.85497 0.0847,-0.46952 0.254,-0.93134 0.46952,-1.2854 -1.16224,0.13855 -1.47782,0.11546 -1.46243,-0.55418 0.83128,0.0154 1.33158,-0.38485 2.24752,-0.22321 0.45412,0.077 1.12376,0.38485 1.21612,0.97751 0,0.70813 -0.30018,1.13916 -0.80818,1.43164 -0.79279,0.46182 -2.5477,0.47721 -3.57909,0.0847 z"
         style="font-style:normal;font-variant:normal;font-weight:bold;font-stretch:normal;font-size:8.46666622px;font-family:'לולב';-inkscape-font-specification:'לולב, Bold';font-variant-ligatures:normal;font-variant-caps:normal;font-variant-numeric:normal;font-feature-settings:normal;text-align:start;writing-mode:lr-tb;text-anchor:start"
         id="path843"
         inkscape:connector-curvature="0" />
      <path
         d="m 288.97333,141.10369 c -0.90054,-0.0924 -1.33927,0.008 -1.81648,0.21552 -0.0385,0.53879 -0.2617,1.04679 -0.66964,1.48551 l 0.10776,0.10007 c 0.90824,-0.67734 2.04739,-0.48491 2.62467,-0.28479 0.077,-0.57728 0.26939,-0.96212 0.58497,-1.27 -0.29249,-0.32328 -0.41564,-0.75431 -0.47722,-1.33158 -0.0539,-0.5157 0.0462,-1.13915 0.10006,-1.524 0.077,-0.52339 0.0231,-0.93133 -0.26169,-1.15454 -0.13855,-0.10776 -0.29249,-0.13855 -0.46182,-0.15394 -0.43873,-0.0308 -0.65424,-0.077 -0.86206,-0.5157 l -0.10776,0.008 c -0.0154,0.48491 -0.15394,0.92363 -0.46182,1.33157 0.14625,0.40025 0.37715,0.59267 0.72352,0.71582 0.29248,0.10006 0.70042,0.15394 1.09297,0.14624 -0.18473,0.75431 -0.24631,1.48552 -0.11546,2.23212 z"
         style="font-style:normal;font-variant:normal;font-weight:bold;font-stretch:normal;font-size:8.46666622px;font-family:'לולב';-inkscape-font-specification:'לולב, Bold';font-variant-ligatures:normal;font-variant-caps:normal;font-variant-numeric:normal;font-feature-settings:normal;text-align:start;writing-mode:lr-tb;text-anchor:start"
         id="path845"
         inkscape:connector-curvature="0" />
      <path
         d="m 285.42503,140.10309 c 0.42333,-0.73891 0.66194,-1.57788 0.63115,-2.16285 -0.0308,-0.56188 -0.53109,-0.80048 -1.016,-0.73121 -0.48491,0.0693 -0.77739,-0.077 -0.95442,-0.41564 h -0.12315 c -0.0231,0.55418 -0.19243,1.06218 -0.50031,1.50091 0.14625,0.38485 0.58497,0.42333 1.15455,0.42333 0.39255,0 0.72351,0.23091 0.74661,0.66194 0.008,0.19243 -0.0462,0.40025 -0.15394,0.61576 z"
         style="font-style:normal;font-variant:normal;font-weight:bold;font-stretch:normal;font-size:8.46666622px;font-family:'לולב';-inkscape-font-specification:'לולב, Bold';font-variant-ligatures:normal;font-variant-caps:normal;font-variant-numeric:normal;font-feature-settings:normal;text-align:start;writing-mode:lr-tb;text-anchor:start"
         id="path847"
         inkscape:connector-curvature="0" />
      <path
         d="m 278.98267,139.76442 c -0.90055,0.53109 -1.33927,1.13915 -1.31618,1.85497 0.0154,0.35406 0.13084,0.78509 0.43103,1.11606 h 0.11545 c 0.2694,-0.46182 0.66964,-0.7697 1.36236,-0.98521 -0.70042,-0.16933 -0.92363,-0.508 -0.93133,-0.78509 -0.0154,-0.35406 0.10006,-0.74661 0.47721,-1.03139 z m 2.73242,2.97873 c 0.21552,-0.39255 0.72352,-0.7543 1.17764,-0.87746 -0.39255,-0.58497 -0.67733,-1.04678 -0.45412,-1.90115 0.14624,-0.59266 0.30018,-1.22382 0.2463,-1.80878 -0.0539,-0.58497 -0.32327,-0.92364 -0.99291,-0.99291 -0.88515,-0.0847 -2.0166,0.20781 -2.69394,0.12315 -0.34636,-0.0462 -0.66963,-0.19243 -0.7466,-0.60037 h -0.10776 c -0.0847,0.47722 -0.40024,1.03909 -0.70043,1.38546 0.20782,0.40024 0.5234,0.62345 1.00061,0.70812 0.93133,0.16164 1.7703,-0.13855 2.77091,-0.13855 0.66194,0 0.98521,0.31558 1.03139,0.67734 0.0385,0.30788 -0.0308,0.68503 -0.254,1.15454 -0.22321,0.46182 -0.67733,1.20073 -0.40794,2.27061 z"
         style="font-style:normal;font-variant:normal;font-weight:bold;font-stretch:normal;font-size:8.46666622px;font-family:'לולב';-inkscape-font-specification:'לולב, Bold';font-variant-ligatures:normal;font-variant-caps:normal;font-variant-numeric:normal;font-feature-settings:normal;text-align:start;writing-mode:lr-tb;text-anchor:start"
         id="path849"
         inkscape:connector-curvature="0" />
      <path
         d="m 269.70015,138.77921 c 0.85436,0.16164 1.27,-0.13855 2.17824,-0.13855 0.5234,0 0.90825,0.32328 1.0314,0.71582 0.16933,0.5234 0.15394,1.06988 0.0462,1.69334 -1.50091,-0.13855 -3.15576,-0.12316 -3.94855,0.26939 -0.0308,0.53109 -0.2386,1.05448 -0.64654,1.49321 l 0.11545,0.0924 c 0.33097,-0.2617 0.74661,-0.40025 1.30079,-0.46182 1.23921,-0.14625 2.44764,-0.0539 3.51752,0.13854 0.0462,-0.55418 0.30787,-1.05448 0.70812,-1.41624 -0.2617,-0.0308 -0.53879,-0.0693 -0.81588,-0.0924 0.26939,-1.00061 0.56957,-1.97812 0.27709,-2.91715 -0.17703,-0.58497 -0.61576,-0.92364 -1.24691,-0.99291 -0.83897,-0.0847 -1.40085,0.20781 -2.01661,0.12315 -0.32327,-0.0462 -0.59266,-0.23091 -0.66963,-0.60037 h -0.10776 c -0.077,0.47722 -0.36176,1.03909 -0.63885,1.38546 0.19243,0.40024 0.48491,0.62345 0.91594,0.70812 z"
         style="font-style:normal;font-variant:normal;font-weight:bold;font-stretch:normal;font-size:8.46666622px;font-family:'לולב';-inkscape-font-specification:'לולב, Bold';font-variant-ligatures:normal;font-variant-caps:normal;font-variant-numeric:normal;font-feature-settings:normal;text-align:start;writing-mode:lr-tb;text-anchor:start"
         id="path851"
         inkscape:connector-curvature="0" />
      <path
         d="m 267.00622,142.77394 c 0.22321,-0.43873 0.65424,-0.78509 1.06988,-0.90825 -0.34637,-0.58497 -0.5157,-1.04678 -0.30018,-1.90115 0.14624,-0.59266 0.27709,-1.22382 0.2386,-1.80878 -0.0385,-0.58497 -0.26169,-0.92364 -0.83897,-0.99291 -0.762,-0.0847 -1.81648,0.20781 -2.40145,0.12315 -0.30018,-0.0462 -0.59267,-0.20012 -0.63115,-0.60037 h -0.10006 c -0.077,0.47722 -0.36176,1.03909 -0.62346,1.38546 0.16933,0.40024 0.44643,0.62345 0.85437,0.70812 0.80818,0.16164 1.53939,-0.13855 2.40145,-0.13855 0.56958,0 0.81588,0.31558 0.85436,0.67734 0.0308,0.30788 -0.0308,0.68503 -0.2463,1.15454 -0.20782,0.46182 -0.63885,1.22382 -0.40024,2.27831 z"
         style="font-style:normal;font-variant:normal;font-weight:bold;font-stretch:normal;font-size:8.46666622px;font-family:'לולב';-inkscape-font-specification:'לולב, Bold';font-variant-ligatures:normal;font-variant-caps:normal;font-variant-numeric:normal;font-feature-settings:normal;text-align:start;writing-mode:lr-tb;text-anchor:start"
         id="path853"
         inkscape:connector-curvature="0" />
      <path
         d="m 262.11094,142.76624 h 0.10007 c 0.13854,-0.66194 0.44642,-1.12376 0.96212,-1.56249 -0.65425,-0.26169 -1.10837,-0.62345 -1.23922,-1.31618 -0.077,-0.40794 -0.0462,-0.80818 0.077,-1.33927 0.11546,-0.5003 0.008,-0.93133 -0.38484,-1.15454 -0.31558,-0.18473 -0.66964,-0.13085 -1.08528,-0.16934 -0.32327,-0.0462 -0.66194,-0.12315 -0.72351,-0.53879 h -0.10776 c -0.0539,0.47722 -0.30788,1.03909 -0.56188,1.38546 0.20782,0.40024 0.508,0.58497 0.94673,0.70812 0.55418,0.15394 1.08527,0.19242 1.62406,0.12315 -0.21552,0.65424 -0.39255,1.2854 -0.33867,2.00891 -0.71582,0.74661 -1.43933,0.90055 -2.43224,0.80048 0.0539,0.66964 -0.0539,1.30079 -0.32327,1.92425 l 0.0539,0.077 c 1.41624,-0.46182 2.2783,-1.40855 2.73242,-2.53231 0.0154,0.10006 0.0385,0.20782 0.0616,0.30788 0.11545,0.46952 0.33097,0.87746 0.63884,1.2777 z"
         style="font-style:normal;font-variant:normal;font-weight:bold;font-stretch:normal;font-size:8.46666622px;font-family:'לולב';-inkscape-font-specification:'לולב, Bold';font-variant-ligatures:normal;font-variant-caps:normal;font-variant-numeric:normal;font-feature-settings:normal;text-align:start;writing-mode:lr-tb;text-anchor:start"
         id="path855"
         inkscape:connector-curvature="0" />
      <path
         d="m 255.99958,140.20315 c -0.29249,-0.64655 -0.36176,-1.56249 -0.0231,-2.95564 -0.20782,0.008 -0.45413,0.008 -0.70043,-0.0924 -0.2463,-0.10006 -0.42333,-0.2463 -0.53109,-0.508 h -0.10776 c -0.0231,0.47721 -0.26939,1.07757 -0.508,1.42394 0.23091,0.40024 0.44643,0.62345 0.89285,0.70812 0.11546,0.0231 0.31558,0.0385 0.40794,0.0462 -0.33097,0.59267 -0.63885,1.31618 -0.47721,2.16285 l 0.21551,-0.008 c 0.0847,-0.34636 0.32328,-0.62345 0.83128,-0.77739 z m 1.97812,-1.35467 c -0.077,1.33928 -0.54649,1.87037 -1.21612,2.16285 -0.83128,0.36946 -2.23213,0.32327 -3.10958,-0.0231 -0.41564,-0.53109 -0.63885,-1.57788 0.0385,-3.61758 -0.20782,0.008 -0.44643,0.0154 -0.67734,-0.0847 -0.23091,-0.10006 -0.39254,-0.23861 -0.5003,-0.5157 h -0.10006 c -0.0693,0.47721 -0.36946,1.07758 -0.63885,1.42394 0.19242,0.40024 0.38485,0.63115 0.83127,0.71582 0.11546,0.0231 0.36946,0.0308 0.46182,0.0385 -0.29248,0.95443 -0.5003,2.41685 0.30788,3.5714 0.71582,0.16933 1.44703,0.20781 2.27061,0.10006 0.96981,-0.13085 1.60097,-0.60806 1.96272,-1.23152 0.37715,-0.65424 0.56188,-1.45472 0.60806,-2.32448 0.0385,-0.71582 -0.0231,-1.23921 -0.11545,-1.81649 -0.12315,0 -0.40794,-0.0308 -0.55418,-0.0924 -0.23091,-0.10006 -0.40794,-0.2617 -0.50031,-0.508 h -0.0924 c -0.0693,0.47721 -0.23091,1.07757 -0.46951,1.42394 0.17703,0.40024 0.36175,0.56957 0.7466,0.70812 0.20012,0.0693 0.46182,0.10006 0.74661,0.0693 z"
         style="font-style:normal;font-variant:normal;font-weight:bold;font-stretch:normal;font-size:8.46666622px;font-family:'לולב';-inkscape-font-specification:'לולב, Bold';font-variant-ligatures:normal;font-variant-caps:normal;font-variant-numeric:normal;font-feature-settings:normal;text-align:start;writing-mode:lr-tb;text-anchor:start"
         id="path857"
         inkscape:connector-curvature="0" />
      <path
         d="m 247.60218,137.286 c -0.19242,0.0231 -0.42333,0 -0.66194,-0.10006 -0.2386,-0.10006 -0.42333,-0.21552 -0.53109,-0.50031 h -0.10006 c -0.0616,0.47722 -0.35406,1.12376 -0.61575,1.47013 0.20012,0.40024 0.40024,0.62345 0.84666,0.70812 0.11546,0.0231 0.35406,0.0385 0.44643,0.0462 -0.2694,0.95442 -0.44643,2.49382 0.38485,3.60988 0.60036,0.16933 1.16993,0.20781 1.89345,0.10006 0.84667,-0.13085 1.40085,-0.60806 1.70103,-1.23152 0.20012,-0.42333 0.32327,-0.80048 0.37715,-1.2623 0.0924,-0.7543 0.10776,-1.50861 -0.16933,-2.23212 -0.2463,-0.64655 -0.78509,-0.99291 -1.5317,-0.99291 -0.41564,0 -0.60806,0.0462 -1.03139,0.26939 -0.0308,0.5234 -0.23091,1.13146 -0.49261,1.62406 l 0.11546,0.10776 c 0.36945,-0.27709 1.05448,-0.38485 1.67024,-0.30018 0.46951,0.0616 1.17763,0.38485 1.23921,0.97751 -0.0385,0.70813 -0.39255,1.13916 -0.94673,1.43164 -0.68503,0.36946 -1.83957,0.33867 -2.57848,-0.008 -0.42334,-0.51569 -0.65424,-1.67794 -0.0154,-3.71763 z"
         style="font-style:normal;font-variant:normal;font-weight:bold;font-stretch:normal;font-size:8.46666622px;font-family:'לולב';-inkscape-font-specification:'לולב, Bold';font-variant-ligatures:normal;font-variant-caps:normal;font-variant-numeric:normal;font-feature-settings:normal;text-align:start;writing-mode:lr-tb;text-anchor:start"
         id="path859"
         inkscape:connector-curvature="0" />
      <path
         d="m 244.44644,140.10309 c 0.42333,-0.73891 0.66194,-1.57788 0.63115,-2.16285 -0.0308,-0.56188 -0.53109,-0.80048 -1.016,-0.73121 -0.48491,0.0693 -0.7774,-0.077 -0.95443,-0.41564 h -0.12315 c -0.0231,0.55418 -0.19242,1.06218 -0.5003,1.50091 0.14624,0.38485 0.58497,0.42333 1.15454,0.42333 0.39255,0 0.72352,0.23091 0.74661,0.66194 0.008,0.19243 -0.0462,0.40025 -0.15394,0.61576 z"
         style="font-style:normal;font-variant:normal;font-weight:bold;font-stretch:normal;font-size:8.46666622px;font-family:'לולב';-inkscape-font-specification:'לולב, Bold';font-variant-ligatures:normal;font-variant-caps:normal;font-variant-numeric:normal;font-feature-settings:normal;text-align:start;writing-mode:lr-tb;text-anchor:start"
         id="path861"
         inkscape:connector-curvature="0" />
      <path
         d="m 241.05977,140.10309 c 0.42333,-0.73891 0.66194,-1.57788 0.63115,-2.16285 -0.0308,-0.56188 -0.53109,-0.80048 -1.016,-0.73121 -0.48491,0.0693 -0.77739,-0.077 -0.95442,-0.41564 h -0.12315 c -0.0231,0.55418 -0.19243,1.06218 -0.50031,1.50091 0.14625,0.38485 0.58497,0.42333 1.15455,0.42333 0.39254,0 0.72351,0.23091 0.7466,0.66194 0.008,0.19243 -0.0462,0.40025 -0.15393,0.61576 z"
         style="font-style:normal;font-variant:normal;font-weight:bold;font-stretch:normal;font-size:8.46666622px;font-family:'לולב';-inkscape-font-specification:'לולב, Bold';font-variant-ligatures:normal;font-variant-caps:normal;font-variant-numeric:normal;font-feature-settings:normal;text-align:start;writing-mode:lr-tb;text-anchor:start"
         id="path863"
         inkscape:connector-curvature="0" />
      <path
         d="m 238.26578,138.49442 c 0.14624,-0.60806 0.12315,-0.93133 -0.18472,-1.15454 -0.15394,-0.10776 -0.32328,-0.13855 -0.5157,-0.15394 -0.5003,-0.0308 -0.74661,-0.0616 -0.91594,-0.5157 l -0.13855,0.008 c -0.0539,0.48491 -0.31557,1.0006 -0.65424,1.33157 0.13085,0.40025 0.53109,0.63885 0.89285,0.762 0.30788,0.10006 0.7543,0.13085 1.11606,0.10006 -0.14624,0.64655 -0.60036,2.27831 -0.74661,3.81 -0.0924,0.99291 -0.13854,1.99352 0.0616,3.048 h 0.10776 c 0.2386,-0.508 0.58497,-0.84666 0.95442,-1.0083 -0.37715,-1.03139 -0.46182,-2.2937 -0.37715,-3.70224 0.0539,-0.98521 0.2617,-1.95503 0.40024,-2.52461 z"
         style="font-style:normal;font-variant:normal;font-weight:bold;font-stretch:normal;font-size:8.46666622px;font-family:'לולב';-inkscape-font-specification:'לולב, Bold';font-variant-ligatures:normal;font-variant-caps:normal;font-variant-numeric:normal;font-feature-settings:normal;text-align:start;writing-mode:lr-tb;text-anchor:start"
         id="path865"
         inkscape:connector-curvature="0" />
      <path
         d="m 219.43906,138.77921 c 0.85436,0.16164 1.27,-0.13855 2.17824,-0.13855 0.5234,0 0.90825,0.32328 1.0314,0.71582 0.16933,0.5234 0.15394,1.06988 0.0462,1.69334 -1.50091,-0.13855 -3.15576,-0.12316 -3.94855,0.26939 -0.0308,0.53109 -0.2386,1.05448 -0.64654,1.49321 l 0.11545,0.0924 c 0.33097,-0.2617 0.74661,-0.40025 1.30079,-0.46182 1.23921,-0.14625 2.44764,-0.0539 3.51752,0.13854 0.0462,-0.55418 0.30787,-1.05448 0.70812,-1.41624 -0.2617,-0.0308 -0.53879,-0.0693 -0.81588,-0.0924 0.26939,-1.00061 0.56957,-1.97812 0.27709,-2.91715 -0.17703,-0.58497 -0.61576,-0.92364 -1.24691,-0.99291 -0.83897,-0.0847 -1.40085,0.20781 -2.01661,0.12315 -0.32327,-0.0462 -0.59266,-0.23091 -0.66963,-0.60037 h -0.10776 c -0.077,0.47722 -0.36176,1.03909 -0.63885,1.38546 0.19243,0.40024 0.48491,0.62345 0.91594,0.70812 z"
         style="font-style:normal;font-variant:normal;font-weight:bold;font-stretch:normal;font-size:8.46666622px;font-family:'לולב';-inkscape-font-specification:'לולב, Bold';font-variant-ligatures:normal;font-variant-caps:normal;font-variant-numeric:normal;font-feature-settings:normal;text-align:start;writing-mode:lr-tb;text-anchor:start"
         id="path867"
         inkscape:connector-curvature="0" />
      <path
         d="m 217.32241,138.92545 c 0.2463,-0.59266 0.44642,-1.27 0,-1.58557 -0.15394,-0.10776 -0.32328,-0.13855 -0.5157,-0.15394 -0.5003,-0.0308 -0.762,-0.0616 -0.93903,-0.5157 l -0.13085,0.008 c -0.0385,0.48491 -0.28479,1.0006 -0.61576,1.33157 0.13855,0.40025 0.54649,0.63885 0.90825,0.762 0.33866,0.11546 0.73121,0.14625 1.05448,0.15394 -0.33867,0.55418 -0.57727,1.14685 -0.69273,1.92424 -0.10006,0.67734 -0.0924,1.31619 0.0308,1.92425 h 0.10776 c 0.2463,-0.508 0.70042,-0.85437 1.24691,-1.05449 -0.50031,-0.53879 -0.71582,-1.11606 -0.69273,-1.74721 0.0154,-0.43873 0.11546,-0.73891 0.23861,-1.04679 z"
         style="font-style:normal;font-variant:normal;font-weight:bold;font-stretch:normal;font-size:8.46666622px;font-family:'לולב';-inkscape-font-specification:'לולב, Bold';font-variant-ligatures:normal;font-variant-caps:normal;font-variant-numeric:normal;font-feature-settings:normal;text-align:start;writing-mode:lr-tb;text-anchor:start"
         id="path869"
         inkscape:connector-curvature="0" />
      <path
         d="m 209.81788,136.71642 c -0.12316,0.46952 -0.37716,0.81588 -0.69273,1.16224 0.0462,0.5234 0.26939,0.90055 0.56957,1.26231 -0.34636,0.508 -0.60806,0.82357 -0.60806,1.43933 0,0.5157 0.15394,0.87745 0.43103,1.25461 -0.10006,0.31557 -0.254,0.60806 -0.47721,0.86975 l 0.0924,0.10776 c 0.31558,-0.254 0.72352,-0.39254 1.22382,-0.39254 0.42334,0 0.68503,0.12315 1.06218,0.2386 0.13085,-0.46951 0.31558,-0.87745 0.56188,-1.23151 -0.72351,-0.16164 -1.33927,-0.31558 -1.75491,-0.62346 -0.33866,-0.2463 -0.508,-0.60036 -0.508,-0.99291 0,-0.20012 0.0385,-0.36945 0.13085,-0.508 0.53879,0.42334 0.99291,0.67734 1.67025,1.00831 0.66193,0.32327 1.16993,0.65424 1.59327,1.02369 0.29248,0.254 0.53879,0.5157 0.52339,0.85437 -0.008,0.254 -0.0693,0.34636 -0.17703,0.48491 l 0.0924,0.0924 c 0.37715,-0.30788 0.66963,-0.7697 0.69272,-1.36236 0.0231,-0.60806 -0.18472,-1.00061 -0.44642,-1.30079 0.36176,-0.56188 0.56188,-1.07758 0.56188,-1.62406 0,-0.5234 -0.30018,-0.90824 -0.79279,-1.06218 -0.40024,-0.12316 -0.63885,-0.34637 -0.762,-0.73122 l -0.10776,-0.008 c -0.12315,0.39254 -0.26939,0.76969 -0.47721,1.11606 0.10006,0.40794 0.42333,0.59266 0.88515,0.81588 0.37715,0.17703 0.62346,0.45412 0.62346,0.86206 0,0.16163 -0.0385,0.30788 -0.11546,0.43872 -0.5003,-0.39254 -1.06988,-0.7543 -1.83188,-1.09297 -0.4926,-0.22321 -1.10836,-0.60036 -1.44703,-1.06987 -0.20782,-0.28479 -0.38485,-0.60037 -0.40794,-1.016 z"
         style="font-style:normal;font-variant:normal;font-weight:bold;font-stretch:normal;font-size:8.46666622px;font-family:'לולב';-inkscape-font-specification:'לולב, Bold';font-variant-ligatures:normal;font-variant-caps:normal;font-variant-numeric:normal;font-feature-settings:normal;text-align:start;writing-mode:lr-tb;text-anchor:start"
         id="path871"
         inkscape:connector-curvature="0" />
      <path
         d="m 201.4128,139.76442 c -0.90055,0.53109 -1.33927,1.13915 -1.31618,1.85497 0.0154,0.35406 0.13084,0.78509 0.43103,1.11606 h 0.11545 c 0.2694,-0.46182 0.66964,-0.7697 1.36236,-0.98521 -0.70042,-0.16933 -0.92363,-0.508 -0.93133,-0.78509 -0.0154,-0.35406 0.10006,-0.74661 0.47721,-1.03139 z m 2.73242,2.97873 c 0.21552,-0.39255 0.72352,-0.7543 1.17764,-0.87746 -0.39255,-0.58497 -0.67733,-1.04678 -0.45412,-1.90115 0.14624,-0.59266 0.30018,-1.22382 0.2463,-1.80878 -0.0539,-0.58497 -0.32327,-0.92364 -0.99291,-0.99291 -0.88515,-0.0847 -2.0166,0.20781 -2.69394,0.12315 -0.34636,-0.0462 -0.66963,-0.19243 -0.7466,-0.60037 h -0.10776 c -0.0847,0.47722 -0.40024,1.03909 -0.70043,1.38546 0.20782,0.40024 0.5234,0.62345 1.00061,0.70812 0.93133,0.16164 1.7703,-0.13855 2.77091,-0.13855 0.66194,0 0.98521,0.31558 1.03139,0.67734 0.0385,0.30788 -0.0308,0.68503 -0.254,1.15454 -0.22321,0.46182 -0.67733,1.20073 -0.40794,2.27061 z"
         style="font-style:normal;font-variant:normal;font-weight:bold;font-stretch:normal;font-size:8.46666622px;font-family:'לולב';-inkscape-font-specification:'לולב, Bold';font-variant-ligatures:normal;font-variant-caps:normal;font-variant-numeric:normal;font-feature-settings:normal;text-align:start;writing-mode:lr-tb;text-anchor:start"
         id="path873"
         inkscape:connector-curvature="0" />
      <path
         d="m 198.41098,142.76624 h 0.10006 c 0.13855,-0.66194 0.44643,-1.12376 0.96212,-1.56249 -0.65424,-0.26169 -1.10836,-0.62345 -1.23921,-1.31618 -0.077,-0.40794 -0.0462,-0.80818 0.077,-1.33927 0.11545,-0.5003 0.008,-0.93133 -0.38485,-1.15454 -0.31557,-0.18473 -0.66963,-0.13085 -1.08527,-0.16934 -0.32327,-0.0462 -0.66194,-0.12315 -0.72352,-0.53879 h -0.10775 c -0.0539,0.47722 -0.30788,1.03909 -0.56188,1.38546 0.20782,0.40024 0.508,0.58497 0.94673,0.70812 0.55418,0.15394 1.08527,0.19242 1.62406,0.12315 -0.21552,0.65424 -0.39255,1.2854 -0.33867,2.00891 -0.71582,0.74661 -1.43933,0.90055 -2.43224,0.80048 0.0539,0.66964 -0.0539,1.30079 -0.32328,1.92425 l 0.0539,0.077 c 1.41625,-0.46182 2.27831,-1.40855 2.73243,-2.53231 0.0154,0.10006 0.0385,0.20782 0.0616,0.30788 0.11546,0.46952 0.33097,0.87746 0.63885,1.2777 z"
         style="font-style:normal;font-variant:normal;font-weight:bold;font-stretch:normal;font-size:8.46666622px;font-family:'לולב';-inkscape-font-specification:'לולב, Bold';font-variant-ligatures:normal;font-variant-caps:normal;font-variant-numeric:normal;font-feature-settings:normal;text-align:start;writing-mode:lr-tb;text-anchor:start"
         id="path875"
         inkscape:connector-curvature="0" />
      <path
         d="m 192.2996,140.20315 c -0.29248,-0.64655 -0.36176,-1.56249 -0.0231,-2.95564 -0.20782,0.008 -0.45412,0.008 -0.70042,-0.0924 -0.24631,-0.10006 -0.42334,-0.2463 -0.53109,-0.508 h -0.10776 c -0.0231,0.47721 -0.2694,1.07757 -0.508,1.42394 0.23091,0.40024 0.44642,0.62345 0.89285,0.70812 0.11545,0.0231 0.31557,0.0385 0.40794,0.0462 -0.33097,0.59267 -0.63885,1.31618 -0.47722,2.16285 l 0.21552,-0.008 c 0.0847,-0.34636 0.32327,-0.62345 0.83127,-0.77739 z m 1.97812,-1.35467 c -0.077,1.33928 -0.54648,1.87037 -1.21612,2.16285 -0.83127,0.36946 -2.23212,0.32327 -3.10957,-0.0231 -0.41564,-0.53109 -0.63885,-1.57788 0.0385,-3.61758 -0.20782,0.008 -0.44642,0.0154 -0.67733,-0.0847 -0.23091,-0.10006 -0.39255,-0.23861 -0.50031,-0.5157 h -0.10006 c -0.0693,0.47721 -0.36945,1.07758 -0.63884,1.42394 0.19242,0.40024 0.38484,0.63115 0.83127,0.71582 0.11545,0.0231 0.36945,0.0308 0.46182,0.0385 -0.29249,0.95443 -0.50031,2.41685 0.30788,3.5714 0.71581,0.16933 1.44703,0.20781 2.2706,0.10006 0.96982,-0.13085 1.60097,-0.60806 1.96273,-1.23152 0.37715,-0.65424 0.56188,-1.45472 0.60806,-2.32448 0.0385,-0.71582 -0.0231,-1.23921 -0.11546,-1.81649 -0.12315,0 -0.40793,-0.0308 -0.55418,-0.0924 -0.23091,-0.10006 -0.40794,-0.2617 -0.5003,-0.508 h -0.0924 c -0.0693,0.47721 -0.23091,1.07757 -0.46952,1.42394 0.17703,0.40024 0.36176,0.56957 0.74661,0.70812 0.20012,0.0693 0.46182,0.10006 0.7466,0.0693 z"
         style="font-style:normal;font-variant:normal;font-weight:bold;font-stretch:normal;font-size:8.46666622px;font-family:'לולב';-inkscape-font-specification:'לולב, Bold';font-variant-ligatures:normal;font-variant-caps:normal;font-variant-numeric:normal;font-feature-settings:normal;text-align:start;writing-mode:lr-tb;text-anchor:start"
         id="path877"
         inkscape:connector-curvature="0" />
      <path
         d="m 182.86313,142.65848 c 1.43934,-0.31557 3.08649,-0.2386 4.35649,0.0462 0.0308,-0.53878 0.16163,-1.17763 0.30018,-1.70872 0.43873,-1.70103 0.19242,-2.5477 -0.12315,-3.10188 -0.28479,-0.5003 -0.87746,-0.7697 -1.43934,-0.84667 -1.016,-0.14624 -1.71642,0.33097 -2.38606,0.13855 -0.2463,-0.0693 -0.43103,-0.20782 -0.508,-0.50031 h -0.10775 c -0.077,0.47722 -0.39255,1.12376 -0.66194,1.47013 0.20781,0.33096 0.508,0.53878 0.77739,0.60806 -0.36176,0.73121 -0.53109,1.67024 -0.41564,2.47842 0.0693,0.5003 0.20782,0.90055 0.20782,1.41624 z m 0.43873,-3.85618 c 1.06218,0.13085 1.73182,-0.38485 2.77861,-0.20012 0.4926,0.0847 0.92363,0.32327 1.10066,0.73121 0.19243,0.45412 0.19243,1.16994 0.0308,1.86267 -1.19303,-0.19243 -2.59388,-0.21552 -3.72533,-0.008 -0.35406,-0.43873 -0.42334,-1.39315 -0.18473,-2.38606 z"
         style="font-style:normal;font-variant:normal;font-weight:bold;font-stretch:normal;font-size:8.46666622px;font-family:'לולב';-inkscape-font-specification:'לולב, Bold';font-variant-ligatures:normal;font-variant-caps:normal;font-variant-numeric:normal;font-feature-settings:normal;text-align:start;writing-mode:lr-tb;text-anchor:start"
         id="path879"
         inkscape:connector-curvature="0" />
    </g>
  </g>
</svg>
