<?xml version="1.0" encoding="UTF-8" standalone="no"?>
<!-- Created with Inkscape (http://www.inkscape.org/) -->

<svg
   width="100%"
   height="100%"
   viewBox="0 0 218.57659 112.48374"
   version="1.1"
   id="svg5"
   xmlns="http://www.w3.org/2000/svg"
   xmlns:svg="http://www.w3.org/2000/svg">
  <defs
     id="defs2" />
  <g
     id="layer1"
     transform="translate(83.349601,-109.12288)">
    <g
       aria-label="לא, לא יפעת שמש אביב, -
עדנת שירה לי גוועה,
תור חלומות העלומים,
תקופת חיי הנפלאה!"
       id="text1463"
       style="font-size:16.9333px;line-height:125%;font-family:Sans;-inkscape-font-specification:'Adobe Helvetica';letter-spacing:0px;word-spacing:0px;direction:rtl;stroke-width:0.264583px">
      <path
         d="m 126.47152,112.32421 0.52493,-1.69333 c -0.99906,0 -1.76106,-0.11853 -2.50612,-0.508 l -0.67734,2.20133 z m 0.9144,10.56638 -0.47413,1.84573 5.28319,-1.016 1.69333,-7.61999 -1.69333,0.42334 -1.55787,5.67265 z m -1.1176,-8.65292 0.16934,-1.74413 -1.35467,0.33867 -0.62653,3.09879 h 9.48265 l 0.23706,-1.69333 z"
         style="font-family:'Ozrad CLM';-inkscape-font-specification:'Ozrad CLM'"
         id="path4176" />
      <path
         d="m 114.55051,122.70432 0.47413,-4.53812 -1.40546,0.1016 -0.89747,4.43652 -0.59267,2.032 2.98027,-0.508 0.28786,-1.524 z m 6.40078,-6.77332 -1.28693,4.30106 h 2.1336 l 0.8128,-5.99439 c -0.93133,0 -1.76107,-0.1524 -2.45533,-0.508 l -0.67733,2.20133 z m -8.39891,-1.4732 7.75545,10.27852 2.37066,-0.508 -8.36505,-10.41398 z"
         style="font-family:'Ozrad CLM';-inkscape-font-specification:'Ozrad CLM'"
         id="path4178" />
      <path
         d="m 108.20054,126.88685 1.30387,-0.33867 0.88053,-3.94546 -2.55693,0.1016 -0.0677,1.49013 0.77893,0.0677 z"
         style="font-family:'Ozrad CLM';-inkscape-font-specification:'Ozrad CLM'"
         id="path4180" />
      <path
         d="m 92.029246,112.32421 0.524932,-1.69333 c -0.999065,0 -1.761063,-0.11853 -2.506128,-0.508 l -0.677332,2.20133 z m 0.914398,10.56638 -0.474132,1.84573 5.283189,-1.016 1.69333,-7.61999 -1.69333,0.42334 -1.557863,5.67265 z m -1.117598,-8.65292 0.169333,-1.74413 -1.354664,0.33867 -0.626532,3.09879 h 9.482648 l 0.237066,-1.69333 z"
         style="font-family:'Ozrad CLM';-inkscape-font-specification:'Ozrad CLM'"
         id="path4182" />
      <path
         d="m 80.108231,122.70432 0.474132,-4.53812 -1.405464,0.1016 -0.897465,4.43652 -0.592665,2.032 2.980261,-0.508 0.287866,-1.524 z m 6.400787,-6.77332 -1.286931,4.30106 h 2.133596 l 0.812799,-5.99439 c -0.931332,0 -1.761064,-0.1524 -2.455329,-0.508 l -0.677332,2.20133 z m -8.398917,-1.4732 7.755452,10.27852 2.370662,-0.508 -8.36505,-10.41398 z"
         style="font-family:'Ozrad CLM';-inkscape-font-specification:'Ozrad CLM'"
         id="path4184" />
      <path
         d="m 68.762953,116.10033 -1.540931,0.38947 -0.507999,2.91253 1.879597,-0.4572 z m 0.0508,-0.16933 0.524932,-1.69333 h -0.880532 c -0.999064,0 -1.761063,-0.11853 -2.506128,-0.508 l -0.677332,2.20133 z"
         style="font-family:'Ozrad CLM';-inkscape-font-specification:'Ozrad CLM'"
         id="path4186" />
      <path
         d="m 61.380041,115.931 0.778932,3.01413 -0.728132,3.47133 1.981196,-0.508 0.575733,-3.0988 -1.557864,-4.57199 h -4.470391 c -0.999065,0 -1.761063,-0.11853 -2.506129,-0.508 l -0.677332,2.20133 z m -7.450652,8.80532 8.41585,-0.508 0.914399,-1.69333 -8.805316,0.16933 z m 3.623727,-8.63599 -1.557864,0.33867 -0.745065,2.70933 0.846665,1.59173 2.031996,-0.508 -1.253064,-1.6256 z"
         style="font-family:'Ozrad CLM';-inkscape-font-specification:'Ozrad CLM'"
         id="path4188" />
      <path
         d="m 44.616089,115.931 0.863598,7.02732 1.930397,-0.69426 -1.727197,-8.02639 c -0.931331,0 -1.761063,-0.1524 -2.455328,-0.508 l -0.677332,2.20133 z m 6.519321,0 -1.557864,6.40079 -6.366921,1.25306 -0.474132,1.89653 8.534383,-1.62559 1.117598,-7.92479 0.524932,-1.69333 h -0.711198 c -0.999065,0 -1.761064,-0.11853 -2.506129,-0.508 l -0.677332,2.20133 z"
         style="font-family:'Ozrad CLM';-inkscape-font-specification:'Ozrad CLM'"
         id="path4190" />
      <path
         d="m 32.068524,122.67046 -1.625596,0.0339 -0.524933,2.032 3.979326,-0.508 0.169333,-8.12799 -1.354664,0.33867 z m 8.77145,-6.57013 -1.354664,0.33867 -0.338666,8.29732 2.031996,-0.508 z m 0.0508,-0.16933 0.524932,-1.69333 h -6.82412 c -0.999065,0 -1.761063,-0.11853 -2.506128,-0.508 l -0.677332,2.20133 z"
         style="font-family:'Ozrad CLM';-inkscape-font-specification:'Ozrad CLM'"
         id="path4192" />
      <path
         d="m 16.252851,115.931 -0.965198,4.30106 h 2.133596 l 0.491066,-5.99439 c -0.931332,0 -1.761063,-0.1524 -2.455329,-0.508 l -0.677332,2.20133 z m -4.385724,0 0.220133,6.60399 1.964262,-0.37253 -1.117597,-7.92479 c -0.931332,0 -1.422398,-0.1524 -2.116663,-0.508 L 10.13993,115.931 Z m 8.991582,0 -1.557864,6.60399 -7.196652,0.16933 0.06773,2.032 8.822249,-0.508 1.117598,-8.29732 0.524933,-1.69333 h -0.711199 c -0.999065,0 -1.422397,-0.11853 -2.167462,-0.508 L 19.08071,115.931 Z"
         style="font-family:'Ozrad CLM';-inkscape-font-specification:'Ozrad CLM'"
         id="path4194" />
      <path
         d="M 1.7071657,118.1662 4.7890263,115.931 H 8.2434195 L 7.7862204,114.23767 H 4.1116943 l -1.9134629,2.1336 z m 7.5861184,6.06212 -1.015998,-8.12799 -1.3377307,0.33867 0.2201329,6.16372 -3.5729263,0.1016 -0.5249323,2.032 z m -8.97464896,-8.29732 -1.55786364,8.80532 2.09972924,-0.508 1.08373116,-9.99065 c -0.9313315,0 -1.76106316,-0.1524 -2.45532846,-0.508 L -1.1884286,115.931 Z"
         style="font-family:'Ozrad CLM';-inkscape-font-specification:'Ozrad CLM'"
         id="path4196" />
      <path
         d="m -8.7067814,115.931 -0.9651981,4.30106 h 2.1335958 l 0.4910657,-5.99439 c -0.9313315,0 -1.7610632,-0.1524 -2.4553285,-0.508 l -0.6773325,2.20133 z m -4.3857246,0 0.220133,6.60399 1.964263,-0.37253 -1.117598,-7.92479 c -0.931332,0 -1.422397,-0.1524 -2.116663,-0.508 l -0.677332,2.20133 z m 8.9915822,0 -1.5578636,6.60399 -7.1966526,0.16933 0.06773,2.032 8.8222496,-0.508 1.1175978,-8.29732 0.5249323,-1.69333 h -0.7111986 c -0.9990647,0 -1.4223972,-0.11853 -2.1674624,-0.508 l -0.677332,2.20133 z"
         style="font-family:'Ozrad CLM';-inkscape-font-specification:'Ozrad CLM'"
         id="path4198" />
      <path
         d="m -31.109504,122.70432 0.474132,-4.53812 -1.405464,0.1016 -0.897465,4.43652 -0.592665,2.032 2.98026,-0.508 0.287867,-1.524 z m 6.400787,-6.77332 -1.286931,4.30106 h 2.133596 l 0.812798,-5.99439 c -0.931331,0 -1.761063,-0.1524 -2.455328,-0.508 l -0.677332,2.20133 z m -8.398917,-1.4732 7.755452,10.27852 2.370662,-0.508 -8.365051,-10.41398 z"
         style="font-family:'Ozrad CLM';-inkscape-font-specification:'Ozrad CLM'"
         id="path4200" />
      <path
         d="m -37.442556,115.931 -0.609599,6.48546 2.031996,-0.508 -0.237066,-7.67079 h -4.639725 c -0.999064,0 -1.761063,-0.11853 -2.506128,-0.508 l -0.677332,2.20133 z m -7.484519,8.80532 9.804381,-0.508 0.524932,-1.69333 -9.804381,0.16933 z"
         style="font-family:'Ozrad CLM';-inkscape-font-specification:'Ozrad CLM'"
         id="path4202" />
      <path
         d="m -46.857443,116.10033 -1.54093,0.38947 -0.507999,2.91253 1.879596,-0.4572 z m 0.0508,-0.16933 0.524932,-1.69333 h -0.880531 c -0.999065,0 -1.761064,-0.11853 -2.506129,-0.508 l -0.677332,2.20133 z"
         style="font-family:'Ozrad CLM';-inkscape-font-specification:'Ozrad CLM'"
         id="path4204" />
      <path
         d="m -54.375826,115.931 -0.609599,6.48546 2.031996,-0.508 -0.237066,-7.67079 h -4.639724 c -0.999065,0 -1.761063,-0.11853 -2.506129,-0.508 l -0.677332,2.20133 z m -7.484519,8.80532 9.804381,-0.508 0.524932,-1.69333 -9.80438,0.16933 z"
         style="font-family:'Ozrad CLM';-inkscape-font-specification:'Ozrad CLM'"
         id="path4206" />
      <path
         d="m -65.568714,126.88685 1.303864,-0.33867 0.880531,-3.94546 -2.556928,0.1016 -0.06773,1.49013 0.778932,0.0677 z"
         style="font-family:'Ozrad CLM';-inkscape-font-specification:'Ozrad CLM'"
         id="path4208" />
      <path
         d="m -82.349601,120.33366 7.349052,-0.2032 0.507999,-1.69333 -7.332119,-0.13547 z"
         style="font-family:'Ozrad CLM';-inkscape-font-specification:'Ozrad CLM'"
         id="path4210" />
      <path
         d="m 125.92967,137.35374 0.8636,7.02732 1.9304,-0.69427 -1.7272,-8.02638 c -0.93133,0 -1.76106,-0.1524 -2.45533,-0.508 l -0.67733,2.20133 z m 6.51932,0 -1.55786,6.40079 -6.36692,1.25306 -0.47413,1.89653 8.53438,-1.6256 1.1176,-7.92478 0.52493,-1.69333 h -0.7112 c -0.99906,0 -1.76106,-0.11853 -2.50613,-0.508 l -0.67733,2.20133 z"
         style="font-family:'Ozrad CLM';-inkscape-font-specification:'Ozrad CLM'"
         id="path4212" />
      <path
         d="m 120.62956,137.52307 -1.35467,0.33867 -0.67733,8.29732 2.032,-0.508 z m 1.59173,-0.16933 0.508,-1.69333 h -6.80719 c -0.99906,0 -1.76106,-0.11853 -2.50613,-0.508 l -0.67733,2.20133 z"
         style="font-family:'Ozrad CLM';-inkscape-font-specification:'Ozrad CLM'"
         id="path4214" />
      <path
         d="m 109.9616,137.35374 -0.6096,6.48545 2.032,-0.508 -0.23707,-7.67078 h -1.25306 c -0.99907,0 -1.76106,-0.11853 -2.50613,-0.508 l -0.67733,2.20133 z m -5.01225,8.80532 5.92665,-0.508 0.508,-1.69333 -5.90972,0.16933 z"
         style="font-family:'Ozrad CLM';-inkscape-font-specification:'Ozrad CLM'"
         id="path4216" />
      <path
         d="m 95.094167,144.09319 -1.625596,0.0339 -0.524933,2.032 3.979326,-0.508 0.169333,-8.12799 -1.354664,0.33867 z m 8.771453,-6.57012 -1.35467,0.33867 -0.33866,8.29732 2.03199,-0.508 z m 0.0508,-0.16933 0.52493,-1.69333 h -6.824121 c -0.999065,0 -1.761063,-0.11853 -2.506128,-0.508 l -0.677332,2.20133 z"
         style="font-family:'Ozrad CLM';-inkscape-font-specification:'Ozrad CLM'"
         id="path4218" />
      <path
         d="m 79.278502,137.35374 -0.965198,4.30106 H 80.4469 l 0.491066,-5.99439 c -0.931332,0 -1.761064,-0.1524 -2.455329,-0.508 l -0.677332,2.20133 z m -4.385725,0 0.220133,6.60399 1.964263,-0.37254 -1.117598,-7.92478 c -0.931331,0 -1.422397,-0.1524 -2.116662,-0.508 l -0.677332,2.20133 z m 8.991583,0 -1.557864,6.60399 -7.196652,0.16933 0.06773,2.032 8.822249,-0.508 1.117598,-8.29732 0.524932,-1.69333 h -0.711198 c -0.999065,0 -1.422398,-0.11853 -2.167463,-0.508 l -0.677332,2.20133 z"
         style="font-family:'Ozrad CLM';-inkscape-font-specification:'Ozrad CLM'"
         id="path4220" />
      <path
         d="m 71.235213,137.52307 -1.54093,0.38947 -0.507999,2.91253 1.879596,-0.4572 z m 0.0508,-0.16933 0.524932,-1.69333 h -0.880532 c -0.999064,0 -1.761063,-0.11853 -2.506128,-0.508 l -0.677332,2.20133 z"
         style="font-family:'Ozrad CLM';-inkscape-font-specification:'Ozrad CLM'"
         id="path4222" />
      <path
         d="m 65.714978,137.52307 -1.405464,0.23707 -0.423333,8.31425 2.031996,-0.508 z m -0.03387,-0.16933 -0.931331,-1.69333 h -4.487325 c -0.999064,0 -1.761063,-0.11853 -2.506128,-0.508 l -0.677332,2.20133 z"
         style="font-family:'Ozrad CLM';-inkscape-font-specification:'Ozrad CLM'"
         id="path4224" />
      <path
         d="m 54.776091,137.52307 -1.354664,0.33867 0.03387,8.29732 2.031996,-0.508 z m -6.841054,3.2512 -1.54093,0.37253 -0.491066,5.01226 2.031996,-0.508 z m 7.281319,-3.42053 0.507999,-1.69333 h -6.807186 c -0.999065,0 -1.761063,-0.11853 -2.506129,-0.508 l -0.677332,2.20133 z"
         style="font-family:'Ozrad CLM';-inkscape-font-specification:'Ozrad CLM'"
         id="path4226" />
      <path
         d="m 29.850287,133.74695 0.524933,-1.69333 c -0.999065,0 -1.761063,-0.11854 -2.506129,-0.508 l -0.677332,2.20133 z m 0.914399,10.56638 -0.474133,1.84573 5.28319,-1.016 1.69333,-7.61999 -1.69333,0.42334 -1.557864,5.67265 z m -1.117598,-8.65292 0.169333,-1.74413 -1.354664,0.33867 -0.626532,3.09879 h 9.482648 l 0.237066,-1.69333 z"
         style="font-family:'Ozrad CLM';-inkscape-font-specification:'Ozrad CLM'"
         id="path4228" />
      <path
         d="m 25.515387,137.52307 -1.54093,0.38947 -0.507999,2.91253 1.879596,-0.4572 z m 0.0508,-0.16933 0.524932,-1.69333 h -0.880531 c -0.999065,0 -1.761063,-0.11853 -2.506129,-0.508 l -0.677332,2.20133 z"
         style="font-family:'Ozrad CLM';-inkscape-font-specification:'Ozrad CLM'"
         id="path4230" />
      <path
         d="m 12.476758,137.52307 -1.354664,0.33867 0.406399,8.29732 2.031996,-0.508 z m -1.608664,5.41866 -3.8777256,1.60866 0.1354664,1.91347 4.1317252,-2.09973 z m 1.659463,-5.58799 0.524933,-1.69333 h -1.69333 c -0.999065,0 -1.7610634,-0.11853 -2.5061286,-0.508 l -0.677332,2.20133 z"
         style="font-family:'Ozrad CLM';-inkscape-font-specification:'Ozrad CLM'"
         id="path4232" />
      <path
         d="m 5.2970652,137.52307 -1.354664,0.33867 -0.677332,8.29732 2.031996,-0.508 z m -0.016933,-0.16933 0.5249323,-1.69333 H 5.0938656 c -0.9990647,0 -1.7610632,-0.11853 -2.5061284,-0.508 l -0.677332,2.20133 z"
         style="font-family:'Ozrad CLM';-inkscape-font-specification:'Ozrad CLM'"
         id="path4234" />
      <path
         d="m -0.62956477,137.52307 -1.35466403,0.33867 -0.677332,8.29732 2.03199603,-0.508 z m -0.0169333,-0.16933 0.5249323,-1.69333 h -0.7111986 c -0.99906473,0 -1.76106323,-0.11853 -2.50612843,-0.508 l -0.677332,2.20133 z"
         style="font-family:'Ozrad CLM';-inkscape-font-specification:'Ozrad CLM'"
         id="path4236" />
      <path
         d="m -13.668185,137.35374 0.863598,7.02732 1.930396,-0.69427 -1.727196,-8.02638 c -0.931332,0 -1.761064,-0.1524 -2.455329,-0.508 l -0.677332,2.20133 z m 6.5193202,0 -1.5578636,6.40079 -6.3669206,1.25306 -0.474133,1.89653 8.5343836,-1.6256 1.1175978,-7.92478 0.5249323,-1.69333 h -0.7111986 c -0.9990647,0 -1.7610632,-0.11853 -2.5061284,-0.508 l -0.677332,2.20133 z"
         style="font-family:'Ozrad CLM';-inkscape-font-specification:'Ozrad CLM'"
         id="path4238" />
      <path
         d="m -18.155488,137.52307 -1.354664,0.33867 0.03387,8.29732 2.031996,-0.508 z m -6.841054,3.2512 -1.54093,0.37253 -0.491066,5.01226 2.031996,-0.508 z m 7.281319,-3.42053 0.507999,-1.69333 h -6.807186 c -0.999065,0 -1.761063,-0.11853 -2.506129,-0.508 l -0.677332,2.20133 z"
         style="font-family:'Ozrad CLM';-inkscape-font-specification:'Ozrad CLM'"
         id="path4240" />
      <path
         d="m -31.244905,148.30958 1.303864,-0.33866 0.880531,-3.94546 -2.556928,0.1016 -0.06773,1.49013 0.778932,0.0677 z"
         style="font-family:'Ozrad CLM';-inkscape-font-specification:'Ozrad CLM'"
         id="path4242" />
      <path
         d="m 124.8798,165.51593 -1.6256,0.0339 -0.52493,2.03199 3.97932,-0.508 0.16934,-8.12798 -1.35467,0.33867 z m 8.77145,-6.57012 -1.35467,0.33867 -0.33866,8.29731 2.03199,-0.508 z m 0.0508,-0.16933 0.52493,-1.69333 h -6.82412 c -0.99906,0 -1.76106,-0.11854 -2.50613,-0.508 l -0.67733,2.20133 z"
         style="font-family:'Ozrad CLM';-inkscape-font-specification:'Ozrad CLM'"
         id="path4244" />
      <path
         d="m 121.03596,158.94581 -1.35467,0.33867 -0.67733,8.29731 2.032,-0.508 z m -0.0169,-0.16933 0.52493,-1.69333 h -0.7112 c -0.99907,0 -1.76106,-0.11854 -2.50613,-0.508 l -0.67733,2.20133 z"
         style="font-family:'Ozrad CLM';-inkscape-font-specification:'Ozrad CLM'"
         id="path4246" />
      <path
         d="m 115.61733,158.94581 -1.40546,0.23707 -0.42334,8.31425 2.032,-0.508 z m -0.0339,-0.16933 -0.93133,-1.69333 h -4.48732 c -0.99907,0 -1.76107,-0.11854 -2.50613,-0.508 l -0.67733,2.20133 z"
         style="font-family:'Ozrad CLM';-inkscape-font-specification:'Ozrad CLM'"
         id="path4248" />
      <path
         d="m 98.277661,158.94581 -1.354664,0.33867 -0.338666,8.29731 2.031996,-0.508 z m -7.044253,0 -1.354664,0.33867 -0.846665,8.29731 2.031996,-0.508 z m 7.111986,-0.16933 0.507999,-1.69333 h -6.807187 c -0.999064,0 -1.761063,-0.11854 -2.506128,-0.508 l -0.677332,2.20133 z"
         style="font-family:'Ozrad CLM';-inkscape-font-specification:'Ozrad CLM'"
         id="path4250" />
      <path
         d="m 79.752637,155.16968 0.524932,-1.69333 c -0.999065,0 -1.761063,-0.11853 -2.506128,-0.50799 l -0.677332,2.20132 z m 0.914398,10.56638 -0.474133,1.84573 5.28319,-1.01599 1.69333,-7.61999 -1.69333,0.42333 -1.557864,5.67266 z m -1.117598,-8.65291 0.169333,-1.74413 -1.354664,0.33866 -0.626532,3.0988 h 9.482648 l 0.237066,-1.69333 z"
         style="font-family:'Ozrad CLM';-inkscape-font-specification:'Ozrad CLM'"
         id="path4252" />
      <path
         d="m 75.146798,158.94581 -1.354664,0.33867 -0.677332,8.29731 2.031996,-0.508 z m -0.01693,-0.16933 0.524932,-1.69333 h -0.711198 c -0.999065,0 -1.761064,-0.11854 -2.506129,-0.508 l -0.677332,2.20133 z"
         style="font-family:'Ozrad CLM';-inkscape-font-specification:'Ozrad CLM'"
         id="path4254" />
      <path
         d="m 62.988708,161.01167 3.08186,-2.23519 h 3.454394 l -0.457199,-1.69333 h -3.674527 l -1.913462,2.13359 z m 7.586118,6.06212 -1.015998,-8.12798 -1.33773,0.33867 0.220132,6.16372 -3.572926,0.1016 -0.524932,2.03199 z m -8.974649,-8.29731 -1.557863,8.80531 2.099729,-0.508 1.083731,-9.99064 c -0.931331,0 -1.761063,-0.1524 -2.455328,-0.508 l -0.677332,2.20133 z"
         style="font-family:'Ozrad CLM';-inkscape-font-specification:'Ozrad CLM'"
         id="path4256" />
      <path
         d="m 57.773278,158.94581 -1.354664,0.33867 -0.677332,8.29731 2.031996,-0.508 z m -0.01693,-0.16933 0.524932,-1.69333 h -0.711198 c -0.999065,0 -1.761063,-0.11854 -2.506129,-0.508 l -0.677332,2.20133 z"
         style="font-family:'Ozrad CLM';-inkscape-font-specification:'Ozrad CLM'"
         id="path4258" />
      <path
         d="m 43.684776,165.51593 -1.625597,0.0339 -0.524932,2.03199 3.979325,-0.508 0.169333,-8.12798 -1.354664,0.33867 z m 8.771449,-6.57012 -1.354664,0.33867 -0.338666,8.29731 2.031996,-0.508 z m 0.0508,-0.16933 0.524932,-1.69333 h -6.82412 c -0.999064,0 -1.761063,-0.11854 -2.506128,-0.508 l -0.677332,2.20133 z"
         style="font-family:'Ozrad CLM';-inkscape-font-specification:'Ozrad CLM'"
         id="path4260" />
      <path
         d="m 32.966034,158.94581 -1.354664,0.33867 0.03387,8.29731 2.031996,-0.508 z m -6.841054,3.25119 -1.54093,0.37254 -0.491066,5.01225 2.031996,-0.508 z m 7.281319,-3.42052 0.507999,-1.69333 h -6.807186 c -0.999065,0 -1.761063,-0.11854 -2.506129,-0.508 l -0.677332,2.20133 z"
         style="font-family:'Ozrad CLM';-inkscape-font-specification:'Ozrad CLM'"
         id="path4262" />
      <path
         d="m 14.271689,158.77648 0.863598,7.02732 1.930397,-0.69427 -1.727197,-8.02638 c -0.931332,0 -1.761063,-0.1524 -2.455329,-0.508 l -0.677332,2.20133 z m 6.519321,0 -1.557864,6.40079 -6.366921,1.25306 -0.474132,1.89653 8.534383,-1.6256 1.117598,-7.92478 0.524932,-1.69333 h -0.711199 c -0.999064,0 -1.761063,-0.11854 -2.506128,-0.508 l -0.677332,2.20133 z"
         style="font-family:'Ozrad CLM';-inkscape-font-specification:'Ozrad CLM'"
         id="path4264" />
      <path
         d="m 3.3158423,155.16968 0.5249323,-1.69333 c -0.9990647,0 -1.7610632,-0.11853 -2.5061284,-0.50799 l -0.67733198,2.20132 z m 0.9143982,10.56638 -0.4741324,1.84573 5.2831896,-1.01599 1.6933303,-7.61999 -1.6933303,0.42333 -1.5578636,5.67266 z m -1.1175978,-8.65291 0.169333,-1.74413 -1.354664,0.33866 -0.6265321,3.0988 h 9.4826484 l 0.237066,-1.69333 z"
         style="font-family:'Ozrad CLM';-inkscape-font-specification:'Ozrad CLM'"
         id="path4266" />
      <path
         d="m -1.2899884,158.94581 -1.354664,0.33867 -0.677332,8.29731 2.031996,-0.508 z m -0.016933,-0.16933 0.52493232,-1.69333 H -1.493188 c -0.9990647,0 -1.7610632,-0.11854 -2.5061284,-0.508 l -0.677332,2.20133 z"
         style="font-family:'Ozrad CLM';-inkscape-font-specification:'Ozrad CLM'"
         id="path4268" />
      <path
         d="m -13.448075,161.01167 3.081861,-2.23519 h 3.4543929 l -0.4571991,-1.69333 h -3.6745258 l -1.913463,2.13359 z m 7.5861185,6.06212 -1.015998,-8.12798 -1.3377307,0.33867 0.2201329,6.16372 -3.5729267,0.1016 -0.524932,2.03199 z m -8.9746495,-8.29731 -1.557863,8.80531 2.099729,-0.508 1.083731,-9.99064 c -0.931331,0 -1.761063,-0.1524 -2.455328,-0.508 l -0.677332,2.20133 z"
         style="font-family:'Ozrad CLM';-inkscape-font-specification:'Ozrad CLM'"
         id="path4270" />
      <path
         d="m -18.392568,158.94581 -1.540931,0.38947 -0.507999,2.91252 1.879597,-0.45719 z m 0.0508,-0.16933 0.524932,-1.69333 h -0.880532 c -0.999064,0 -1.761063,-0.11854 -2.506128,-0.508 l -0.677332,2.20133 z"
         style="font-family:'Ozrad CLM';-inkscape-font-specification:'Ozrad CLM'"
         id="path4272" />
      <path
         d="m -23.692679,165.4482 -7.738518,0.28786 -0.01693,-6.79025 -1.354664,0.33867 -0.592665,8.29731 9.770514,-0.508 z m -1.94733,-0.0847 1.89653,-0.42333 -0.575732,-7.85705 h -6.570121 c -0.999065,0 -1.761063,-0.11854 -2.506128,-0.508 l -0.677332,2.20133 h 8.500516 z"
         style="font-family:'Ozrad CLM';-inkscape-font-specification:'Ozrad CLM'"
         id="path4274" />
      <path
         d="m -38.119828,169.73232 1.303864,-0.33866 0.880532,-3.94546 -2.556929,0.1016 -0.06773,1.49013 0.778932,0.0677 z"
         style="font-family:'Ozrad CLM';-inkscape-font-specification:'Ozrad CLM'"
         id="path4276" />
      <path
         d="m 124.8798,186.93867 -1.6256,0.0339 -0.52493,2.03199 3.97932,-0.508 0.16934,-8.12798 -1.35467,0.33866 z m 8.77145,-6.57012 -1.35467,0.33866 -0.33866,8.29732 2.03199,-0.508 z m 0.0508,-0.16933 0.52493,-1.69333 h -6.82412 c -0.99907,0 -1.76107,-0.11854 -2.50613,-0.508 l -0.67733,2.20133 z"
         style="font-family:'Ozrad CLM';-inkscape-font-specification:'Ozrad CLM'"
         id="path4278" />
      <path
         d="m 119.86754,180.72415 -0.16933,4.33492 -4.14866,1.99813 1.18533,1.23613 4.84293,-1.86266 -0.32174,-6.06212 z m -5.53718,1.67639 -1.35467,0.33867 -0.64346,11.51464 2.30292,-0.50799 z m 6.92571,-2.20132 -0.11853,-1.69333 h -6.57012 c -0.99906,0 -1.76106,-0.11854 -2.50613,-0.508 l -0.67733,2.20133 z"
         style="font-family:'Ozrad CLM';-inkscape-font-specification:'Ozrad CLM'"
         id="path4280" />
      <path
         d="m 108.84399,180.36855 -1.35467,0.33866 -0.67733,8.29732 2.032,-0.508 z m -0.0169,-0.16933 0.52493,-1.69333 h -0.71119 c -0.99907,0 -1.76107,-0.11854 -2.50613,-0.508 l -0.67733,2.20133 z"
         style="font-family:'Ozrad CLM';-inkscape-font-specification:'Ozrad CLM'"
         id="path4282" />
      <path
         d="m 101.56269,180.19922 0.77893,3.01412 -0.72813,3.47133 1.98119,-0.508 0.57574,-3.09879 -1.55787,-4.57199 h -4.470388 c -0.999064,0 -1.761063,-0.11854 -2.506128,-0.508 l -0.677332,2.20133 z m -7.450653,8.80531 8.415853,-0.508 0.9144,-1.69333 -8.805321,0.16934 z m 3.623726,-8.63598 -1.557863,0.33866 -0.745066,2.70933 0.846665,1.59173 2.031996,-0.508 -1.253064,-1.62559 z"
         style="font-family:'Ozrad CLM';-inkscape-font-specification:'Ozrad CLM'"
         id="path4284" />
      <path
         d="m 83.74886,186.93867 -1.625597,0.0339 -0.524932,2.03199 3.979326,-0.508 0.169333,-8.12798 -1.354664,0.33866 z m 8.77145,-6.57012 -1.354664,0.33866 -0.338666,8.29732 2.031996,-0.508 z m 0.0508,-0.16933 0.524932,-1.69333 h -6.82412 c -0.999065,0 -1.761063,-0.11854 -2.506128,-0.508 l -0.677332,2.20133 z"
         style="font-family:'Ozrad CLM';-inkscape-font-specification:'Ozrad CLM'"
         id="path4286" />
      <path
         d="m 73.402643,180.36855 -1.354664,0.33866 -0.338666,8.29732 2.031996,-0.508 z m -7.044253,0 -1.354664,0.33866 -0.846665,8.29732 2.031996,-0.508 z m 7.111986,-0.16933 0.507999,-1.69333 h -6.807186 c -0.999065,0 -1.761063,-0.11854 -2.506129,-0.508 l -0.677332,2.20133 z"
         style="font-family:'Ozrad CLM';-inkscape-font-specification:'Ozrad CLM'"
         id="path4288" />
      <path
         d="m 61.718694,180.36855 -1.54093,0.38946 -0.507999,2.91253 1.879596,-0.4572 z m 0.0508,-0.16933 0.524933,-1.69333 h -0.880532 c -0.999065,0 -1.761063,-0.11854 -2.506128,-0.508 l -0.677332,2.20133 z"
         style="font-family:'Ozrad CLM';-inkscape-font-specification:'Ozrad CLM'"
         id="path4290" />
      <path
         d="m 55.961401,180.36855 -1.540931,0.38946 -0.507999,2.91253 1.879597,-0.4572 z m 0.0508,-0.16933 0.524932,-1.69333 h -0.880532 c -0.999064,0 -1.761063,-0.11854 -2.506128,-0.508 l -0.677332,2.20133 z"
         style="font-family:'Ozrad CLM';-inkscape-font-specification:'Ozrad CLM'"
         id="path4292" />
      <path
         d="m 43.058263,180.36855 -1.354664,0.33866 0.03387,8.29732 2.031996,-0.508 z m -6.841053,3.25119 -1.54093,0.37254 -0.491066,5.01225 2.031996,-0.508 z m 7.281319,-3.42052 0.507999,-1.69333 h -6.807187 c -0.999064,0 -1.761063,-0.11854 -2.506128,-0.508 l -0.677332,2.20133 z"
         style="font-family:'Ozrad CLM';-inkscape-font-specification:'Ozrad CLM'"
         id="path4294" />
      <path
         d="m 30.900177,180.19922 -0.609599,6.48545 2.031996,-0.508 -0.237066,-7.67078 h -1.253064 c -0.999065,0 -1.761064,-0.11854 -2.506129,-0.508 l -0.677332,2.20133 z m -5.012257,8.80531 5.926655,-0.508 0.507999,-1.69333 -5.909722,0.16934 z"
         style="font-family:'Ozrad CLM';-inkscape-font-specification:'Ozrad CLM'"
         id="path4296" />
      <path
         d="m 22.839933,180.19922 0.778932,3.01412 -0.728132,3.47133 1.981196,-0.508 0.575733,-3.09879 -1.557864,-4.57199 h -4.470391 c -0.999065,0 -1.761063,-0.11854 -2.506129,-0.508 l -0.677332,2.20133 z m -7.450652,8.80531 8.415851,-0.508 0.914398,-1.69333 -8.805316,0.16934 z m 3.623727,-8.63598 -1.557864,0.33866 -0.745065,2.70933 0.846665,1.59173 2.031996,-0.508 -1.253064,-1.62559 z"
         style="font-family:'Ozrad CLM';-inkscape-font-specification:'Ozrad CLM'"
         id="path4298" />
      <path
         d="m 6.6178343,176.59242 0.5249323,-1.69333 c -0.9990647,0 -1.7610632,-0.11853 -2.5061284,-0.508 l -0.677332,2.20133 z m 0.9143982,10.56638 -0.4741324,1.84573 5.2831899,-1.016 1.69333,-7.61998 -1.69333,0.42333 -1.557864,5.67266 z m -1.1175978,-8.65291 0.169333,-1.74413 -1.354664,0.33866 -0.6265321,3.0988 H 14.08542 l 0.237066,-1.69333 z"
         style="font-family:'Ozrad CLM';-inkscape-font-specification:'Ozrad CLM'"
         id="path4300" />
      <path
         d="m -5.3031844,186.97254 0.4741324,-4.53813 -1.4054639,0.1016 -0.8974649,4.43653 -0.5926655,2.03199 2.9802608,-0.508 0.2878661,-1.52399 z m 6.4007874,-6.77332 -1.28693079,4.30105 H 1.944268 l 0.8127984,-5.99438 c -0.9313315,0 -1.76106319,-0.1524 -2.45532849,-0.508 l -0.677332,2.20133 z m -8.3989168,-1.4732 7.75545141,10.27851 2.37066199,-0.508 -8.3650502,-10.41398 z"
         style="font-family:'Ozrad CLM';-inkscape-font-specification:'Ozrad CLM'"
         id="path4302" />
      <path
         d="m -10.247685,180.36855 -1.354664,0.33866 0.03387,8.29732 2.0319958,-0.508 z m -6.841053,3.25119 -1.54093,0.37254 -0.491066,5.01225 2.031996,-0.508 z m 7.281319,-3.42052 0.507999,-1.69333 h -6.807187 c -0.999064,0 -1.761063,-0.11854 -2.506128,-0.508 l -0.677332,2.20133 z"
         style="font-family:'Ozrad CLM';-inkscape-font-specification:'Ozrad CLM'"
         id="path4304" />
      <path
         d="m -23.997494,188.66587 1.354664,0.2032 0.270933,-1.99813 -1.79493,0.1016 z m 0.06773,-3.1496 1.354665,-0.33866 0.406399,-8.02639 -2.031996,0.508 z"
         style="font-family:'Ozrad CLM';-inkscape-font-specification:'Ozrad CLM'"
         id="path4306" />
    </g>
    <g
       aria-label="א&quot;נ גנסין, אלגיה."
       id="text15803"
       style="font-size:12.7px;line-height:125%;font-family:Sans;-inkscape-font-specification:'Adobe Helvetica';letter-spacing:0px;word-spacing:0px;direction:rtl;stroke-width:0.264583px">
      <path
         d="m 11.388903,215.14562 0.3556,-3.4036 -1.0541,0.0762 -0.6731,3.3274 -0.4444999,1.524 2.2351999,-0.381 0.2159,-1.143 z m 4.8006,-5.08 -0.9652,3.2258 h 1.6002 l 0.6096,-4.4958 c -0.6985,0 -1.3208,-0.1143 -1.8415,-0.381 l -0.508,1.651 z m -6.2991999,-1.1049 5.8165999,7.7089 1.778,-0.381 -6.2738,-7.8105 z"
         style="font-family:'Ozrad CLM';-inkscape-font-specification:'Ozrad CLM'"
         id="path4327" />
      <path
         d="m 6.9312257,210.92922 1.1049,-0.2921 0.8636,-3.2258 -1.5748,0.3429 z m -2.5399999,0 1.1049,-0.2921 0.8635999,-3.2258 -1.5747999,0.3429 z"
         style="font-family:'Ozrad CLM';-inkscape-font-specification:'Ozrad CLM'"
         id="path4329" />
      <path
         d="m 2.0544348,210.06562 -0.4572,4.8641 1.524,-0.381 -0.1778,-5.7531 h -0.9398 c -0.7493,0 -1.32079996,-0.0889 -1.87959995,-0.381 l -0.508,1.651 z m -3.7591999,6.604 4.4449999,-0.381 0.381,-1.27 -4.4322999,0.127 z"
         style="font-family:'Ozrad CLM';-inkscape-font-specification:'Ozrad CLM'"
         id="path4331" />
      <path
         d="m -8.2325509,210.19262 -1.016,0.254 0.3048,6.223 1.5239999,-0.381 z m -1.2065,4.064 -2.9083001,1.2065 0.1016,1.4351 3.0988001,-1.5748 z m 1.2446,-4.191 0.3937,-1.27 h -1.27 c -0.7493,0 -1.3208001,-0.0889 -1.8796001,-0.381 l -0.508,1.651 z"
         style="font-family:'Ozrad CLM';-inkscape-font-specification:'Ozrad CLM'"
         id="path4333" />
      <path
         d="m -14.049134,210.06562 -0.4572,4.8641 1.524,-0.381 -0.1778,-5.7531 h -0.9398 c -0.7493,0 -1.3208,-0.0889 -1.8796,-0.381 l -0.508,1.651 z m -3.7592,6.604 4.445,-0.381 0.381,-1.27 -4.4323,0.127 z"
         style="font-family:'Ozrad CLM';-inkscape-font-specification:'Ozrad CLM'"
         id="path4335" />
      <path
         d="m -19.332316,215.06942 -3.9878,0.2159 -1.0287,-5.0927 -1.016,0.254 0.7239,6.223 5.0927,-0.381 z m -1.3589,-0.0635 1.4224,-0.3175 0.8509,-4.6228 -0.3556,-1.27 h -5.1562 c -0.7493,0 -1.3208,-0.0889 -1.8796,-0.381 l -0.508,1.651 h 6.6294 z"
         style="font-family:'Ozrad CLM';-inkscape-font-specification:'Ozrad CLM'"
         id="path4337" />
      <path
         d="m -28.019098,210.19262 -1.1557,0.2921 -0.381,2.1844 1.4097,-0.3429 z m 0.0381,-0.127 0.3937,-1.27 h -0.6604 c -0.7493,0 -1.3208,-0.0889 -1.8796,-0.381 l -0.508,1.651 z"
         style="font-family:'Ozrad CLM';-inkscape-font-specification:'Ozrad CLM'"
         id="path4339" />
      <path
         d="m -32.565697,210.19262 -1.016,0.254 -0.7112,10.16 1.7272,-0.381 z m 0.5334,-0.127 0.381,-1.27 h -0.8636 c -0.7493,0 -1.3208,-0.0889 -1.8796,-0.381 l -0.508,1.651 z"
         style="font-family:'Ozrad CLM';-inkscape-font-specification:'Ozrad CLM'"
         id="path4341" />
      <path
         d="m -37.683783,218.28252 0.9779,-0.254 0.6604,-2.9591 -1.9177,0.0762 -0.0508,1.1176 0.5842,0.0508 z"
         style="font-family:'Ozrad CLM';-inkscape-font-specification:'Ozrad CLM'"
         id="path4343" />
      <path
         d="m -50.371059,215.14562 0.3556,-3.4036 -1.0541,0.0762 -0.6731,3.3274 -0.4445,1.524 2.2352,-0.381 0.2159,-1.143 z m 4.8006,-5.08 -0.9652,3.2258 h 1.6002 l 0.6096,-4.4958 c -0.6985,0 -1.3208,-0.1143 -1.8415,-0.381 l -0.508,1.651 z m -6.2992,-1.1049 5.8166,7.7089 1.778,-0.381 -6.2738,-7.8105 z"
         style="font-family:'Ozrad CLM';-inkscape-font-specification:'Ozrad CLM'"
         id="path4345" />
      <path
         d="m -58.930855,207.36052 0.3937,-1.27 c -0.7493,0 -1.3208,-0.0889 -1.8796,-0.381 l -0.508,1.651 z m 0.6858,7.9248 -0.3556,1.3843 3.9624,-0.762 1.27,-5.715 -1.27,0.3175 -1.1684,4.2545 z m -0.8382,-6.4897 0.127,-1.3081 -1.016,0.254 -0.4699,2.3241 h 7.112 l 0.1778,-1.27 z"
         style="font-family:'Ozrad CLM';-inkscape-font-specification:'Ozrad CLM'"
         id="path4347" />
      <path
         d="m -62.563052,210.19262 -1.016,0.254 0.3048,6.223 1.523999,-0.381 z m -1.2065,4.064 -2.9083,1.2065 0.1016,1.4351 3.0988,-1.5748 z m 1.2446,-4.191 0.393699,-1.27 h -1.269999 c -0.7493,0 -1.3208,-0.0889 -1.8796,-0.381 l -0.508,1.651 z"
         style="font-family:'Ozrad CLM';-inkscape-font-specification:'Ozrad CLM'"
         id="path4349" />
      <path
         d="m -67.744628,210.19262 -1.1557,0.2921 -0.381,2.1844 1.4097,-0.3429 z m 0.0381,-0.127 0.3937,-1.27 h -0.6604 c -0.7493,0 -1.3208,-0.0889 -1.8796,-0.381 l -0.508,1.651 z"
         style="font-family:'Ozrad CLM';-inkscape-font-specification:'Ozrad CLM'"
         id="path4351" />
      <path
         d="m -72.342011,210.19262 -1.016,0.254 0.0254,6.223 1.524,-0.381 z m -5.1308,2.4384 -1.1557,0.2794 -0.3683,3.7592 1.524,-0.381 z m 5.461,-2.5654 0.381,-1.27 h -5.1054 c -0.7493,0 -1.3208,-0.0889 -1.8796,-0.381 l -0.508,1.651 z"
         style="font-family:'Ozrad CLM';-inkscape-font-specification:'Ozrad CLM'"
         id="path4353" />
      <path
         d="m -82.349598,216.41562 1.4478,0.3175 0.381,-1.6637 -1.7526,0.0762 z"
         style="font-family:'Ozrad CLM';-inkscape-font-specification:'Ozrad CLM'"
         id="path4355" />
    </g>
  </g>
</svg>
