<?xml version="1.0" encoding="UTF-8" standalone="no"?>
<!-- Created with Inkscape (http://www.inkscape.org/) -->

<svg
   xmlns:dc="http://purl.org/dc/elements/1.1/"
   xmlns:cc="http://creativecommons.org/ns#"
   xmlns:rdf="http://www.w3.org/1999/02/22-rdf-syntax-ns#"
   xmlns:svg="http://www.w3.org/2000/svg"
   xmlns="http://www.w3.org/2000/svg"
   version="1.1"
   height="100%"
   width="100%"
   viewBox="0 0 460.98602 106.57762"
   preserveAspectRatio="xMidYMid meet"
   id="svg2">
  <defs
     id="defs4" />
  <metadata
     id="metadata7">
    <rdf:RDF>
      <cc:Work
         rdf:about="">
        <dc:format>image/svg+xml</dc:format>
        <dc:type
           rdf:resource="http://purl.org/dc/dcmitype/StillImage" />
        <dc:title></dc:title>
      </cc:Work>
    </rdf:RDF>
  </metadata>
  <g
     id="text3895"
     style="font-size:40px;font-style:normal;font-variant:normal;font-weight:800;font-stretch:condensed;text-align:end;line-height:100%;letter-spacing:0px;word-spacing:0px;writing-mode:lr-tb;text-anchor:end;fill:#000000;fill-opacity:1;stroke:none;font-family:Horev CLM;-inkscape-font-specification:Horev CLM Ultra-Bold Condensed">
    <path
       d="m 436.90416,21.666666 -1.93333,8.866666 c 2.36666,0.733333 4.6,0.699999 6.73333,-0.266666 l -0.9,-8.633334 c -1.3,-0.266666 -2.6,-0.233333 -3.9,0.03333 M 435.83749,9.5999991 c -0.7,2.0666649 -0.96666,4.2333359 -0.36666,6.5333329 l 12.63333,-2.766666 c 2.2,-0.433333 3.16667,0.433335 3.03333,2.533333 l -1.13333,14.733333 c 1.96666,0.466667 4.23333,0.266666 5.96667,-0.466666 l -0.66667,-15.933334 c -0.23333,-4.8999947 -3.53334,-5.3999994 -7.16667,-5.2333329 l -12.3,0.6"
       id="path2996"
       style="font-weight:bold;font-stretch:normal;line-height:100%;font-family:Trashim CLM;-inkscape-font-specification:Trashim CLM Bold" />
    <path
       d="m 415.70833,9.2333324 c -0.26667,1.3333316 -0.33334,2.9000016 0.0333,4.3999996 l 10.23333,0.933334 c 1.33333,0.166666 1.7,1.166667 1.63334,2.2 l -1.23334,14.2 c 1.83333,0.333333 3.73334,0.266666 5.3,-0.366667 l -0.7,-16.766667 c -0.13333,-3.066663 -2.1,-5.2999994 -6,-5.0999996 l -9.26666,0.5"
       id="path2998"
       style="font-weight:bold;font-stretch:normal;line-height:100%;font-family:Trashim CLM;-inkscape-font-specification:Trashim CLM Bold" />
    <path
       d="m 404.17603,9.4666658 c -0.43333,1.1666652 -0.5,2.3333342 -0.23333,3.5000002 l 2.66667,0.966666 c 0.66666,0.266667 1.33333,0.500001 1.26666,1.433334 l -0.53333,6.1 c 1.9,0.166666 3.7,-0.03333 5.43333,-0.8 l -0.0333,-9.433334 c 0,-1.6666646 -1.63333,-2.4666661 -3.06667,-2.3333329 l -5.5,0.5666667"
       id="path3000"
       style="font-weight:bold;font-stretch:normal;line-height:100%;font-family:Trashim CLM;-inkscape-font-specification:Trashim CLM Bold" />
    <path
       d="m 369.4677,8.3666658 c -1.1,2.0333312 -1.56667,4.1000022 -1.33333,6.2666662 l 2.66666,0.9 c 0.8,0.3 1.2,0.733335 1.03334,1.566667 l -2.4,13.133333 c 1.63333,0.6 3.53333,0.733333 5.1,0.2 l 0.83333,-14.133333 c 0.0667,-0.999999 0.5,-1.466667 1.26667,-1.466667 l 5.76666,0.1 c 1.56667,0.03333 2.23334,1.000002 2.06667,2.666667 l -0.7,7.533333 c -0.0667,0.866666 -0.46667,1.266667 -1.13333,1.133334 l -4.53334,-0.666667 c -0.16666,1.599999 0,3.900002 0.8,5.4 l 7.03334,-0.266667 c 1.83333,-0.06667 2.53333,-1.266668 2.43333,-3 l -0.7,-14.166666 c -0.13333,-2.733331 -1.66667,-3.9333334 -4.43333,-3.7666669 l -7.9,0.3999999 c -1.13334,0.06667 -2.16667,0.03333 -3.1,-0.4333332 l -2.76667,-1.4"
       id="path3002"
       style="font-weight:bold;font-stretch:normal;line-height:100%;font-family:Trashim CLM;-inkscape-font-specification:Trashim CLM Bold" />
    <path
       d="m 355.45833,8.3666658 c -0.9,1.8666652 -1.36667,3.5666682 -1.43334,5.5333332 l 4.33334,-0.06667 c 1.26666,0 1.76666,0.600002 1.66666,1.666667 l -0.93333,9.3 c -0.1,0.833333 -0.56667,1.233333 -1.46667,1.2 l -4.16666,-0.133333 c -0.7,1.699998 -1.1,3.466668 -1.13334,5.4 l 9.16667,-0.566667 c 1.23333,-0.1 2.06667,-0.966668 2.03333,-2.3 l -0.43333,-16.566667 c -0.0667,-2.1333308 -0.86667,-2.6999998 -3.13333,-2.9333329 l -4.5,-0.5333333"
       id="path3004"
       style="font-weight:bold;font-stretch:normal;line-height:100%;font-family:Trashim CLM;-inkscape-font-specification:Trashim CLM Bold" />
    <path
       d="m 340.61353,8.6666658 c -0.9,2.3999972 -0.86666,4.4333352 -0.43333,6.6000002 l 3.5,0.4 c 1,0.06667 1.2,0.866667 1.06667,1.866666 l -1.8,13.666667 c 1.99999,-0.166666 3.76666,-0.600001 5.23333,-1.466667 l -0.2,-17.7 c -0.0333,-1.699998 -1.1,-2 -2.5,-2.2666662 l -4.86667,-1.1"
       id="path3006"
       style="font-weight:bold;font-stretch:normal;line-height:100%;font-family:Trashim CLM;-inkscape-font-specification:Trashim CLM Bold" />
    <path
       d="m 317.50624,9.5333324 c -0.63333,1.1999986 -0.86666,2.8333346 -0.56666,4.2666666 l 1.46666,0.03333 -1.66666,17 c 2.09999,0.06667 4.46666,-0.333334 5.66666,-1.433333 l -0.86666,-15.5 8.83333,0.133333 c 1.23333,0.03333 1.73333,0.633335 1.66667,1.366667 l -0.3,15.8 c 1.63333,0 4,-0.466668 5.16666,-1.666667 l -1.8,-17.633333 c -0.3,-2.8666637 -2.16667,-3.5666664 -4.8,-3.3666666 l -12.8,1"
       id="path3008"
       style="font-weight:bold;font-stretch:normal;line-height:100%;font-family:Trashim CLM;-inkscape-font-specification:Trashim CLM Bold" />
    <path
       d="m 293.38853,21.666666 -1.93333,8.866666 c 2.36666,0.733333 4.6,0.699999 6.73333,-0.266666 l -0.9,-8.633334 c -1.3,-0.266666 -2.6,-0.233333 -3.9,0.03333 M 292.32187,9.5999991 c -0.7,2.0666649 -0.96667,4.2333359 -0.36667,6.5333329 l 12.63333,-2.766666 c 2.2,-0.433333 3.16667,0.433335 3.03334,2.533333 l -1.13334,14.733333 c 1.96667,0.466667 4.23334,0.266666 5.96667,-0.466666 L 311.78853,14.233332 C 311.5552,9.3333373 308.2552,8.8333326 304.62187,8.9999991 l -12.3,0.6"
       id="path3010"
       style="font-weight:bold;font-stretch:normal;line-height:100%;font-family:Trashim CLM;-inkscape-font-specification:Trashim CLM Bold" />
    <path
       d="m 280.86145,35.833332 c 1.56667,-0.03333 2.8,-0.133334 4.63333,-1.066666 l 2.96667,-8.433334 c -1.76666,-0.499999 -4.13334,-0.666665 -6.03333,0.1 l -1.56667,9.4"
       id="path3012"
       style="font-weight:bold;font-stretch:normal;line-height:100%;font-family:Trashim CLM;-inkscape-font-specification:Trashim CLM Bold" />
    <path
       d="m 250.03853,8.4333324 c -0.8,1.6666646 -1.6,4.3666686 -1.3,6.3333336 l 11.96667,-0.366667 c 0.7,0 1.4,0.266668 1.53333,1.133333 0.63334,3.233331 0.13334,7.133336 -1,9.466667 -0.4,0.833333 -1.03333,1.533333 -1.83333,1.5 l -9.93333,-0.7 c -1.06667,1.599999 -1.4,3.500002 -1.23334,5.4 l 13.6,-0.6 c 1.46667,-0.1 2.63334,-0.333334 3,-1.3 1.76667,-4.699995 1.83334,-11.466671 0.4,-16.233333 -0.46666,-1.466665 -1.43333,-2.766667 -3.16666,-3 L 250.03853,8.4333324"
       id="path3014"
       style="font-weight:bold;font-stretch:normal;line-height:100%;font-family:Trashim CLM;-inkscape-font-specification:Trashim CLM Bold" />
    <path
       d="m 228.43958,2.7333324 -0.36667,11.5333336 11.56667,-1.133334 c 0.73333,-0.06667 1.49999,0.600001 0.96666,1.4 l -9.7,14.566667 c 1.16667,1.333332 4.13334,1.866667 5.96667,1.9 l 7.9,-17.566667 c 1.43333,-3.166663 -0.66667,-4.4666662 -3.56667,-4.4333329 l -9.63333,0.1333333 3.1,-7.1333333 c -2.3,-0.2333331 -4.23334,-0.2333324 -6.23333,0.7333333"
       id="path3016"
       style="font-weight:bold;font-stretch:normal;line-height:100%;font-family:Trashim CLM;-inkscape-font-specification:Trashim CLM Bold" />
    <path
       d="m 200.3927,14.066666 6.76667,-0.9 c 1.16666,-0.133333 1.9,0.400001 1.76666,1.666666 l -1.06666,8.666667 c -0.16667,1.133332 -0.76667,1.933334 -1.9,2.166667 l -2.53334,0.566666 c -2.26666,0.533333 -3.33333,-0.166668 -3.46666,-2.2 l -0.53334,-8.6 C 199.35937,14.6 199.6927,14.166666 200.3927,14.066666 m -6.9,-5.3333336 c -0.93333,1.9333316 -1.2,3.8333356 -0.73333,5.7666666 l 1.7,0.266667 c 0.86666,0.166666 0.86666,1.300001 1,2.1 l 1.3,9.766666 c 0.33333,2.366665 2.1,4.133334 4.76666,4.2 l 3.66667,0.1 c 3.16666,0.1 4.56667,-1.46667 5.5,-5 l 3.06667,-12 c 0.7,-2.766663 -0.80001,-4.4333329 -3.26667,-4.4333329 l -11.8,0 c -0.96667,0 -1.83333,-0.1333335 -2.66667,-0.3 L 193.4927,8.7333324"
       id="path3018"
       style="font-weight:bold;font-stretch:normal;line-height:100%;font-family:Trashim CLM;-inkscape-font-specification:Trashim CLM Bold" />
    <path
       d="m 173.12708,2.7333324 -0.36667,11.5333336 11.56667,-1.133334 c 0.73333,-0.06667 1.49999,0.600001 0.96666,1.4 l -9.7,14.566667 c 1.16667,1.333332 4.13334,1.866667 5.96667,1.9 l 7.9,-17.566667 c 1.43333,-3.166663 -0.66667,-4.4666662 -3.56667,-4.4333329 l -9.63333,0.1333333 3.1,-7.1333333 c -2.3,-0.2333331 -4.23334,-0.2333324 -6.23333,0.7333333"
       id="path3020"
       style="font-weight:bold;font-stretch:normal;line-height:100%;font-family:Trashim CLM;-inkscape-font-specification:Trashim CLM Bold" />
    <path
       d="m 150.19478,9.6666658 5.6,16.9000002 c 0.33334,0.999999 0.1,1.6 -0.66666,1.633333 l -4.9,0.333333 c -0.0333,2.233332 0.4,4.233335 1.4,5.9 l 8.63333,-2.766666 c 2.4,-0.766666 4.86667,-3.100003 5.5,-5.533334 l 4.3,-16.7666662 c -1.86666,-0.4333329 -4.36667,-0.066666 -6.13333,0.7666662 l -1.03334,13.066667 c -0.2,2.533331 -2,3.966666 -3.13333,3.6 -1.03333,-0.3 -1.13333,-1.766668 -1.33333,-3.233333 L 156.36145,9.0666658 c -2.13333,-0.4666662 -4.26667,-0.1333326 -6.16667,0.6"
       id="path3022"
       style="font-weight:bold;font-stretch:normal;line-height:100%;font-family:Trashim CLM;-inkscape-font-specification:Trashim CLM Bold" />
    <path
       d="m 138.62916,9.4666658 c -0.43333,1.1666652 -0.5,2.3333342 -0.23333,3.5000002 l 2.66666,0.966666 c 0.66667,0.266667 1.33334,0.500001 1.26667,1.433334 l -0.53333,6.1 c 1.89999,0.166666 3.7,-0.03333 5.43333,-0.8 l -0.0333,-9.433334 c 0,-1.6666646 -1.63334,-2.4666661 -3.06667,-2.3333329 l -5.5,0.5666667"
       id="path3024"
       style="font-weight:bold;font-stretch:normal;line-height:100%;font-family:Trashim CLM;-inkscape-font-specification:Trashim CLM Bold" />
    <path
       d="m 103.92083,8.3666658 c -1.1,2.0333312 -1.56667,4.1000022 -1.33334,6.2666662 l 2.66667,0.9 c 0.8,0.3 1.2,0.733335 1.03333,1.566667 l -2.4,13.133333 c 1.63333,0.6 3.53334,0.733333 5.1,0.2 l 0.83334,-14.133333 c 0.0667,-0.999999 0.5,-1.466667 1.26666,-1.466667 l 5.76667,0.1 c 1.56666,0.03333 2.23333,1.000002 2.06667,2.666667 l -0.7,7.533333 c -0.0667,0.866666 -0.46667,1.266667 -1.13334,1.133334 l -4.53333,-0.666667 c -0.16667,1.599999 0,3.900002 0.8,5.4 l 7.03333,-0.266667 c 1.83333,-0.06667 2.53334,-1.266668 2.43334,-3 l -0.7,-14.166666 c -0.13334,-2.733331 -1.66667,-3.9333334 -4.43334,-3.7666669 l -7.9,0.3999999 c -1.13333,0.06667 -2.16667,0.03333 -3.1,-0.4333332 l -2.76666,-1.4"
       id="path3026"
       style="font-weight:bold;font-stretch:normal;line-height:100%;font-family:Trashim CLM;-inkscape-font-specification:Trashim CLM Bold" />
    <path
       d="m 81.958325,9.2333324 c -0.266666,1.3333316 -0.333333,2.9000016 0.03333,4.3999996 l 10.233333,0.933334 c 1.333332,0.166666 1.7,1.166667 1.633333,2.2 l -1.233333,14.2 c 1.833331,0.333333 3.733335,0.266666 5.3,-0.366667 l -0.7,-16.766667 c -0.133333,-3.066663 -2.100004,-5.2999994 -6,-5.0999996 l -9.266667,0.5"
       id="path3028"
       style="font-weight:bold;font-stretch:normal;line-height:100%;font-family:Trashim CLM;-inkscape-font-specification:Trashim CLM Bold" />
    <path
       d="M 68.597909,8.3666658 C 67.831243,9.9666642 68.231242,12.9 68.364575,14.199999 c 3.13333,0.5 4.766667,0.566669 4.966667,2.566667 l 0.433333,4.466666 -7.133333,3.266667 c -0.5,1.966665 -0.733332,5.100003 0.3,7.5 l 7.533333,-6.366667 0.06667,5.966667 c 1.733331,0.166667 3.566668,-0.466667 4.666667,-1.333333 l -2.866667,-16.5 c -0.5,-2.899997 -1.733336,-4.4333339 -3.966667,-4.8000002 l -3.766666,-0.6"
       id="path3030"
       style="font-weight:bold;font-stretch:normal;line-height:100%;font-family:Trashim CLM;-inkscape-font-specification:Trashim CLM Bold" />
    <path
       d="m 54.519784,8.6666658 c -0.9,2.3999972 -0.866667,4.4333352 -0.433334,6.6000002 l 3.5,0.4 c 0.999999,0.06667 1.2,0.866667 1.066667,1.866666 l -1.8,13.666667 c 1.999998,-0.166666 3.766668,-0.600001 5.233333,-1.466667 l -0.2,-17.7 c -0.03333,-1.699998 -1.100001,-2 -2.5,-2.2666662 l -4.866666,-1.1"
       id="path3032"
       style="font-weight:bold;font-stretch:normal;line-height:100%;font-family:Trashim CLM;-inkscape-font-specification:Trashim CLM Bold" />
    <path
       d="m 31.054159,9.6666658 5.6,16.9000002 c 0.333333,0.999999 0.1,1.6 -0.666667,1.633333 l -4.9,0.333333 c -0.03333,2.233332 0.400001,4.233335 1.4,5.9 l 8.633333,-2.766666 c 2.399998,-0.766666 4.866667,-3.100003 5.5,-5.533334 l 4.3,-16.7666662 C 49.05416,8.9333329 46.554157,9.2999999 44.787492,10.133332 l -1.033333,13.066667 c -0.2,2.533331 -2.000002,3.966666 -3.133334,3.6 -1.033332,-0.3 -1.133333,-1.766668 -1.333333,-3.233333 L 37.220825,9.0666658 c -2.133331,-0.4666662 -4.266668,-0.1333326 -6.166666,0.6"
       id="path3034"
       style="font-weight:bold;font-stretch:normal;line-height:100%;font-family:Trashim CLM;-inkscape-font-specification:Trashim CLM Bold" />
    <path
       d="m 20.627075,35.833332 c 1.566665,-0.03333 2.800002,-0.133334 4.633334,-1.066666 l 2.966666,-8.433334 c -1.766665,-0.499999 -4.133335,-0.666665 -6.033333,0.1 l -1.566667,9.4"
       id="path3036"
       style="font-weight:bold;font-stretch:normal;line-height:100%;font-family:Trashim CLM;-inkscape-font-specification:Trashim CLM Bold" />
    <path
       d="m 436.90416,61.666666 -1.93333,8.866666 c 2.36666,0.733333 4.6,0.699999 6.73333,-0.266666 l -0.9,-8.633334 c -1.3,-0.266666 -2.6,-0.233333 -3.9,0.03333 m -1.06667,-12.066667 c -0.7,2.066665 -0.96666,4.233336 -0.36666,6.533333 l 12.63333,-2.766666 c 2.2,-0.433333 3.16667,0.433335 3.03333,2.533333 l -1.13333,14.733333 c 1.96666,0.466667 4.23333,0.266666 5.96667,-0.466666 l -0.66667,-15.933334 c -0.23333,-4.899995 -3.53334,-5.399999 -7.16667,-5.233333 l -12.3,0.6"
       id="path3038"
       style="font-weight:bold;font-stretch:normal;line-height:100%;font-family:Trashim CLM;-inkscape-font-specification:Trashim CLM Bold" />
    <path
       d="m 413.62499,48.633332 c -0.5,2.133332 -0.2,4.000002 0.73334,5.666667 l 7.83333,-0.833333 c 2.23333,-0.233333 3.56667,1.000002 3.46667,3 l -0.56667,9.666666 -10.1,-0.766666 c -1.76667,1.933331 -2.76667,3.900002 -3.33333,5.866666 l 19.83333,-0.6 c 0.83333,-1.566665 1.23333,-3.200001 0.8,-5.066666 l -4.2,0.366666 2.8,-11.266666 c 0.73333,-3.099997 -0.63334,-4.666667 -4.06667,-4.966667 l -13.2,-1.066667"
       id="path3040"
       style="font-weight:bold;font-stretch:normal;line-height:100%;font-family:Trashim CLM;-inkscape-font-specification:Trashim CLM Bold" />
    <path
       d="m 400.61353,48.666666 c -0.9,2.399997 -0.86666,4.433335 -0.43333,6.6 l 3.5,0.4 c 1,0.06667 1.2,0.866667 1.06667,1.866666 l -1.8,13.666667 c 1.99999,-0.166666 3.76666,-0.600001 5.23333,-1.466667 l -0.2,-17.7 c -0.0333,-1.699998 -1.1,-2 -2.5,-2.266666 l -4.86667,-1.1"
       id="path3042"
       style="font-weight:bold;font-stretch:normal;line-height:100%;font-family:Trashim CLM;-inkscape-font-specification:Trashim CLM Bold" />
    <path
       d="m 377.20728,48.833332 c -1.06666,1.966665 -1.4,4.000003 -1.36666,6.1 l 10.36666,-0.733333 c 1.43334,-0.1 2.43334,0.933335 2.2,2.8 l -1.83333,14.333333 c 2.6,0.133334 4.23334,-0.300001 6.3,-1.8 l -0.53333,-11.066666 c -0.1,-2.366665 0.26667,-3.8 3.63333,-3.833334 0.56667,-2.166664 0.56667,-3.500002 -0.0333,-5.866666 l -3.16667,0.833333 c -2.16666,0.533333 -4.3,0.833333 -6.83333,0.466667 l -8.73334,-1.233334"
       id="path3044"
       style="font-weight:bold;font-stretch:normal;line-height:100%;font-family:Trashim CLM;-inkscape-font-specification:Trashim CLM Bold" />
    <path
       d="m 353.30103,48.833332 c -1.06666,1.966665 -1.4,4.000003 -1.36666,6.1 l 10.36666,-0.733333 c 1.43334,-0.1 2.43334,0.933335 2.2,2.8 l -1.83333,14.333333 c 2.6,0.133334 4.23334,-0.300001 6.3,-1.8 l -0.53333,-11.066666 c -0.1,-2.366665 0.26667,-3.8 3.63333,-3.833334 0.56667,-2.166664 0.56667,-3.500002 -0.0333,-5.866666 l -3.16667,0.833333 c -2.16666,0.533333 -4.3,0.833333 -6.83333,0.466667 l -8.73334,-1.233334"
       id="path3046"
       style="font-weight:bold;font-stretch:normal;line-height:100%;font-family:Trashim CLM;-inkscape-font-specification:Trashim CLM Bold" />
    <path
       d="m 329.64374,64.033332 c -0.36666,2.499998 -2,2.433334 -2.06666,2.433334 l -7.13334,-0.6 c -0.83333,-0.06667 -1.43333,-0.700001 -1.46666,-1.7 -0.0333,-0.933333 0.56666,-1.566667 1.6,-1.733334 2.56666,-0.366666 5.73333,-0.56667 6.13333,-4.7 l 0.83333,-8.766666 c -1.86666,-0.6 -4.03333,-0.566666 -6,-0.03333 l 0.36667,8.133334 c 0.13333,3.466663 -3.03334,3.43333 -3.36667,0.233333 l -1.1,-8.533333 c -2.43333,-0.366667 -4.7,0.06667 -6.23333,0.8 l 4.6,18.566666 c 0.53333,2.199998 1.4,3.066667 3.4,2.9 l 8.96667,-0.766666 c 2.29999,-0.166667 3.4,-1.133336 4.06666,-3.2 l 5.03334,-16.133334 c -0.96667,-1.533331 -3.20001,-2.3 -5.26667,-2.366666 l -2.36667,15.466666"
       id="path3048"
       style="font-weight:bold;font-stretch:normal;line-height:100%;font-family:Trashim CLM;-inkscape-font-specification:Trashim CLM Bold" />
    <path
       d="m 292.11145,42.733332 -0.36667,11.533334 11.56667,-1.133334 c 0.73333,-0.06667 1.5,0.600001 0.96667,1.4 l -9.7,14.566667 c 1.16666,1.333332 4.13333,1.866667 5.96666,1.9 l 7.9,-17.566667 c 1.43334,-3.166663 -0.66667,-4.466666 -3.56666,-4.433333 l -9.63334,0.133333 3.1,-7.133333 c -2.29999,-0.233333 -4.23333,-0.233332 -6.23333,0.733333"
       id="path3050"
       style="font-weight:bold;font-stretch:normal;line-height:100%;font-family:Trashim CLM;-inkscape-font-specification:Trashim CLM Bold" />
    <path
       d="m 280.06666,48.666666 c -0.9,2.399997 -0.86667,4.433335 -0.43333,6.6 l 3.5,0.4 c 0.99999,0.06667 1.2,0.866667 1.06666,1.866666 l -1.8,13.666667 c 2,-0.166666 3.76667,-0.600001 5.23334,-1.466667 l -0.2,-17.7 c -0.0333,-1.699998 -1.10001,-2 -2.5,-2.266666 l -4.86667,-1.1"
       id="path3052"
       style="font-weight:bold;font-stretch:normal;line-height:100%;font-family:Trashim CLM;-inkscape-font-specification:Trashim CLM Bold" />
    <path
       d="m 267.48853,48.666666 c -0.9,2.399997 -0.86666,4.433335 -0.43333,6.6 l 3.5,0.4 c 1,0.06667 1.2,0.866667 1.06667,1.866666 l -1.8,13.666667 c 1.99999,-0.166666 3.76666,-0.600001 5.23333,-1.466667 l -0.2,-17.7 c -0.0333,-1.699998 -1.1,-2 -2.5,-2.266666 l -4.86667,-1.1"
       id="path3054"
       style="font-weight:bold;font-stretch:normal;line-height:100%;font-family:Trashim CLM;-inkscape-font-specification:Trashim CLM Bold" />
    <path
       d="m 244.40416,61.666666 -1.93333,8.866666 c 2.36666,0.733333 4.6,0.699999 6.73333,-0.266666 l -0.9,-8.633334 c -1.3,-0.266666 -2.6,-0.233333 -3.9,0.03333 m -1.06667,-12.066667 c -0.7,2.066665 -0.96666,4.233336 -0.36666,6.533333 l 12.63333,-2.766666 c 2.2,-0.433333 3.16667,0.433335 3.03333,2.533333 l -1.13333,14.733333 c 1.96666,0.466667 4.23333,0.266666 5.96667,-0.466666 l -0.66667,-15.933334 c -0.23333,-4.899995 -3.53334,-5.399999 -7.16667,-5.233333 l -12.3,0.6"
       id="path3056"
       style="font-weight:bold;font-stretch:normal;line-height:100%;font-family:Trashim CLM;-inkscape-font-specification:Trashim CLM Bold" />
    <path
       d="m 219.28541,48.666666 c -0.9,2.399997 -0.86667,4.433335 -0.43333,6.6 l 3.5,0.4 c 0.99999,0.06667 1.2,0.866667 1.06666,1.866666 l -1.8,13.666667 c 2,-0.166666 3.76667,-0.600001 5.23334,-1.466667 l -0.2,-17.7 c -0.0333,-1.699998 -1.10001,-2 -2.5,-2.266666 l -4.86667,-1.1"
       id="path3058"
       style="font-weight:bold;font-stretch:normal;line-height:100%;font-family:Trashim CLM;-inkscape-font-specification:Trashim CLM Bold" />
    <path
       d="m 195.7177,48.366666 c -1.1,2.033331 -1.56667,4.100002 -1.33333,6.266666 l 2.66666,0.9 c 0.8,0.3 1.2,0.733335 1.03334,1.566667 l -2.4,13.133333 c 1.63333,0.6 3.53333,0.733333 5.1,0.2 l 0.83333,-14.133333 c 0.0667,-0.999999 0.5,-1.466667 1.26667,-1.466667 l 5.76666,0.1 c 1.56667,0.03333 2.23334,1.000002 2.06667,2.666667 l -0.7,7.533333 c -0.0667,0.866666 -0.46667,1.266667 -1.13333,1.133334 l -4.53334,-0.666667 c -0.16666,1.599999 0,3.900002 0.8,5.4 l 7.03334,-0.266667 c 1.83333,-0.06667 2.53333,-1.266668 2.43333,-3 l -0.7,-14.166666 c -0.13333,-2.733331 -1.66667,-3.933333 -4.43333,-3.766667 l -7.9,0.4 c -1.13334,0.06667 -2.16667,0.03333 -3.1,-0.433333 l -2.76667,-1.4"
       id="path3060"
       style="font-weight:bold;font-stretch:normal;line-height:100%;font-family:Trashim CLM;-inkscape-font-specification:Trashim CLM Bold" />
    <path
       d="m 186.07812,49.599999 -9.6,-1.166667 c -1.9,-0.1 -3.06667,1.100002 -3.2,2.733334 l -0.46667,4.933333 c -0.2,2.366664 0,4.400001 1.96667,5.566667 l 3,1.766666 c 2.19999,-1.033332 3.8,-2.566668 4.56666,-4.666666 l -5.5,-1.366667 c -1.16666,-0.266666 -1.53333,-3.066667 0.36667,-3.266667 l 6.73333,-0.03333 c 1.33334,0 2.13334,0.666668 2,2.033333 l -0.86666,8.866667 c -0.13334,1.199999 -0.76667,1.9 -1.96667,1.7 l -9.2,-1.366667 c -0.96667,1.666665 -1.43333,4.533336 -1.3,6.266667 l 13.8,-1.033333 c 1.56667,-0.1 3.66667,-1.033336 3.53333,-3.7 l -0.46666,-13.133334 c -0.0667,-2.53333 -1.46667,-3.966666 -3.4,-4.133333"
       id="path3062"
       style="font-weight:bold;font-stretch:normal;line-height:100%;font-family:Trashim CLM;-inkscape-font-specification:Trashim CLM Bold" />
    <path
       d="m 159.87916,49.466666 c -0.43333,1.166665 -0.5,2.333334 -0.23333,3.5 l 2.66666,0.966666 c 0.66667,0.266667 1.33334,0.500001 1.26667,1.433334 l -0.53333,6.1 c 1.89999,0.166666 3.7,-0.03333 5.43333,-0.8 l -0.0333,-9.433334 c 0,-1.666665 -1.63334,-2.466666 -3.06667,-2.333333 l -5.5,0.566667"
       id="path3064"
       style="font-weight:bold;font-stretch:normal;line-height:100%;font-family:Trashim CLM;-inkscape-font-specification:Trashim CLM Bold" />
    <path
       d="m 139.20208,61.099999 -0.6,17.3 c 1.79999,-0.06667 3.43333,-0.566668 4.93333,-1.533333 l -0.5,-18.033334 c -1.5,0.4 -2.93334,1.266668 -3.86667,2.266667 l 0.0333,0 m -0.66667,-12.866667 c -0.33333,2.266665 -0.4,4.666669 0.63333,6.633334 l 11.2,-1.166667 c 1.53333,-0.166666 2.3,0.566668 2.06667,1.866667 l -2.06667,9.5 c -0.2,1.033332 -1.03333,1.7 -1.96666,2 l -3.4,0.4 c 0.19999,1.833331 0,2.266668 1,3.633333 l 5.63333,0.06667 c 2.3,0.03333 3.56667,-1.26667 3.93333,-4.3 l 0.43334,-12.266667 c 0.16666,-3.866663 -1.90001,-5.333333 -5.23334,-5.6 l -12.23333,-0.766667"
       id="path3066"
       style="font-weight:bold;font-stretch:normal;line-height:100%;font-family:Trashim CLM;-inkscape-font-specification:Trashim CLM Bold" />
    <path
       d="m 125.26978,49.466666 c -0.43333,1.166665 -0.5,2.333334 -0.23333,3.5 l 2.66667,0.966666 c 0.66666,0.266667 1.33333,0.500001 1.26666,1.433334 l -0.53333,6.1 c 1.9,0.166666 3.7,-0.03333 5.43333,-0.8 l -0.0333,-9.433334 c 0,-1.666665 -1.63333,-2.466666 -3.06667,-2.333333 l -5.5,0.566667"
       id="path3068"
       style="font-weight:bold;font-stretch:normal;line-height:100%;font-family:Trashim CLM;-inkscape-font-specification:Trashim CLM Bold" />
    <path
       d="m 102.39999,49.066666 c -1.66666,1.533332 -2.833332,3.333335 -3.199998,5.4 l 4.999998,-0.266667 -3.2,12.266667 c -0.86666,3.299996 0.63334,4.933333 4.06667,4.5 l 13.83333,-1.633334 c 1.5,-0.166666 2.23334,-1.166668 2.3,-2.566666 l 0.4,-12.466667 c 0.0667,-2.899997 -0.83334,-4.833333 -4.53333,-4.9 l -14.66667,-0.333333 m 5.66667,4.866666 7.5,-0.566666 c 1.06666,-0.1 1.66667,0.533334 1.56667,1.8 l -1.1,10.766666 c -0.1,0.833333 -0.76667,1.333334 -1.56667,1.233334 l -7.26667,-0.833334 c -1.13333,-0.133333 -1.36666,-0.8 -1.13333,-1.633333 l 2,-10.766667"
       id="path3070"
       style="font-weight:bold;font-stretch:normal;line-height:100%;font-family:Trashim CLM;-inkscape-font-specification:Trashim CLM Bold" />
    <path
       d="m 76.909367,64.033332 c -0.366666,2.499998 -2,2.433334 -2.066667,2.433334 l -7.133333,-0.6 c -0.833333,-0.06667 -1.433334,-0.700001 -1.466667,-1.7 -0.03333,-0.933333 0.566668,-1.566667 1.6,-1.733334 2.566664,-0.366666 5.733334,-0.56667 6.133334,-4.7 l 0.833333,-8.766666 c -1.866665,-0.6 -4.033335,-0.566666 -6,-0.03333 l 0.366667,8.133334 C 69.309367,60.533333 66.1427,60.5 65.809367,57.300003 l -1.1,-8.533333 c -2.433331,-0.366667 -4.700002,0.06667 -6.233333,0.8 l 4.6,18.566666 c 0.533332,2.199998 1.400002,3.066667 3.4,2.9 l 8.966666,-0.76667 c 2.299998,-0.166667 3.400001,-1.133336 4.066667,-3.2 L 84.5427,50.933332 c -0.966666,-1.533331 -3.200002,-2.3 -5.266666,-2.366666 l -2.366667,15.466666"
       id="path3072"
       style="font-weight:bold;font-stretch:normal;line-height:100%;font-family:Trashim CLM;-inkscape-font-specification:Trashim CLM Bold" />
    <path
       d="m 38.49895,61.099999 -0.6,17.3 c 1.799998,-0.06667 3.433335,-0.566668 4.933334,-1.533333 l -0.5,-18.033334 c -1.499999,0.4 -2.933335,1.266668 -3.866667,2.266667 l 0.03333,0 M 37.832284,48.233332 c -0.333333,2.266665 -0.399999,4.666669 0.633333,6.633334 l 11.2,-1.166667 c 1.533332,-0.166666 2.3,0.566668 2.066667,1.866667 l -2.066667,9.5 c -0.2,1.033332 -1.033334,1.7 -1.966667,2 l -3.4,0.4 c 0.2,1.833331 1e-6,2.266668 1,3.633333 l 5.633334,0.06667 c 2.299997,0.03333 3.566667,-1.26667 3.933333,-4.3 l 0.433333,-12.26667 c 0.166667,-3.866663 -1.900003,-5.333333 -5.233333,-5.6 L 37.832284,48.233332"
       id="path3074"
       style="font-weight:bold;font-stretch:normal;line-height:100%;font-family:Trashim CLM;-inkscape-font-specification:Trashim CLM Bold" />
    <path
       d="m 17.199992,48.466666 c -2.233331,0.299999 -4.100002,0.966668 -5.5,2.2 l 3.9,17.933333 c 0.366666,1.733332 1.266668,2.7 3.066667,2.633333 l 8.5,-0.233333 c 1.433331,-0.03333 2.533333,-0.500002 2.866666,-2.2 L 33.099992,52.866666 C 33.666658,49.766669 31.433322,48.2 28.633325,48.633332 l -7.866666,1.3 c -0.533333,1.699999 -0.366667,3.133335 0,4.7 l 5.033333,0 c 0.699999,0 1.5,0.333335 1.466667,1.1 l -0.2,8.5 c -0.03333,0.9 -0.466668,1.400001 -1.166667,1.5 l -5.833333,0.9 c -0.766666,0.133334 -1.266667,-0.166667 -1.3,-0.866666 l -1.566667,-17.3"
       id="path3076"
       style="font-weight:bold;font-stretch:normal;line-height:100%;font-family:Trashim CLM;-inkscape-font-specification:Trashim CLM Bold" />
    <path
       d="m 1.9999919,70.066666 c 1.7999982,0.633332 4.033335,0.733332 5.7,0.1 l 0.033333,-5.033334 c -1.8333315,-0.599999 -3.7666685,-0.666666 -5.6333333,0 l -0.1,4.933334"
       id="path3078"
       style="font-weight:bold;font-stretch:normal;line-height:100%;font-family:Trashim CLM;-inkscape-font-specification:Trashim CLM Bold" />
  </g>
  <g
     id="text3901"
     style="font-size:20px;font-style:normal;font-variant:normal;font-weight:800;font-stretch:condensed;text-align:start;line-height:125%;letter-spacing:0px;word-spacing:0px;writing-mode:lr-tb;text-anchor:start;fill:#000000;fill-opacity:1;stroke:none;font-family:Horev CLM;-inkscape-font-specification:Horev CLM Ultra-Bold Condensed">
    <path
       d="m 304.32709,91.277617 c -0.13333,0.666666 -0.16667,1.450001 0.0167,2.2 l 5.11666,0.466667 c 0.66667,0.08333 0.85,0.583333 0.81667,1.1 l -0.61667,7.099996 c 0.91667,0.16667 1.86667,0.13334 2.65,-0.18333 l -0.35,-8.383333 c -0.0667,-1.533332 -1.05,-2.65 -3,-2.55 l -4.63333,0.25"
       id="path3081"
       style="font-weight:bold;font-stretch:normal;font-family:Trashim CLM;-inkscape-font-specification:Trashim CLM Bold" />
    <path
       d="m 300.81042,88.877617 -0.21666,5.683333 c 0.98333,0.15 0.93333,0.06667 2.03333,-0.266666 l 1.21667,-4.9 c -1.31667,-0.4 -1.71667,-0.5 -3.03334,-0.516667"
       id="path3083"
       style="font-weight:bold;font-stretch:normal;font-family:Trashim CLM;-inkscape-font-specification:Trashim CLM Bold" />
    <path
       d="m 283.58959,90.844284 c -0.55,1.016665 -0.78333,2.050001 -0.66667,3.133333 l 1.33334,0.45 c 0.4,0.15 0.6,0.366667 0.51666,0.783333 l -1.2,6.56667 c 0.81667,0.3 1.76667,0.36666 2.55,0.1 l 0.41667,-7.06667 c 0.0333,-0.499999 0.25,-0.733333 0.63333,-0.733333 l 2.88334,0.05 c 0.78333,0.01667 1.11666,0.500001 1.03333,1.333333 l -0.35,3.766667 c -0.0333,0.433333 -0.23333,0.633333 -0.56667,0.566667 l -2.26666,-0.333334 c -0.0833,0.8 0,1.95 0.4,2.7 l 3.51666,-0.13333 c 0.91667,-0.0333 1.26667,-0.63334 1.21667,-1.5 l -0.35,-7.083336 c -0.0667,-1.366666 -0.83333,-1.966667 -2.21667,-1.883334 l -3.95,0.2 c -0.56666,0.03333 -1.08333,0.01667 -1.55,-0.216666 l -1.38333,-0.7"
       id="path3085"
       style="font-weight:bold;font-stretch:normal;font-family:Trashim CLM;-inkscape-font-specification:Trashim CLM Bold" />
    <path
       d="m 276.99792,98.677617 c -0.18333,1.249999 -1,1.216667 -1.03333,1.216667 l -3.56667,-0.3 c -0.41666,-0.03333 -0.71666,-0.350001 -0.73333,-0.85 -0.0167,-0.466667 0.28334,-0.783334 0.8,-0.866667 1.28333,-0.183333 2.86667,-0.283336 3.06667,-2.35 l 0.41666,-4.383333 c -0.93333,-0.3 -2.01666,-0.283334 -3,-0.01667 l 0.18334,4.066667 c 0.0667,1.733331 -1.51667,1.716665 -1.68334,0.116666 l -0.55,-4.266666 c -1.21666,-0.183334 -2.35,0.03333 -3.11666,0.4 l 2.3,9.283339 c 0.26666,1.1 0.7,1.53333 1.7,1.45 l 4.48333,-0.38334 c 1.15,-0.0833 1.7,-0.56666 2.03333,-1.6 l 2.51667,-8.066666 c -0.48333,-0.766666 -1.6,-1.15 -2.63333,-1.183333 l -1.18334,7.733333"
       id="path3087"
       style="font-weight:bold;font-stretch:normal;font-family:Trashim CLM;-inkscape-font-specification:Trashim CLM Bold" />
    <path
       d="m 256.83907,97.494284 -0.96667,4.433336 c 1.18334,0.36666 2.30001,0.35 3.36667,-0.13334 l -0.45,-4.316663 c -0.65,-0.133333 -1.3,-0.116667 -1.95,0.01667 m -0.53333,-6.033334 c -0.35,1.033333 -0.48334,2.116668 -0.18334,3.266667 l 6.31667,-1.383333 c 1.1,-0.216667 1.58333,0.216667 1.51667,1.266666 l -0.56667,7.366667 c 0.98333,0.23333 2.11667,0.13333 2.98333,-0.23334 l -0.33333,-7.96666 c -0.11667,-2.449998 -1.76667,-2.7 -3.58333,-2.616667 l -6.15,0.3"
       id="path3089"
       style="font-weight:bold;font-stretch:normal;font-family:Trashim CLM;-inkscape-font-specification:Trashim CLM Bold" />
    <path
       d="m 239.01511,91.427617 c -0.31666,0.599999 -0.43333,1.416667 -0.28333,2.133333 l 0.73333,0.01667 -0.83333,8.5 c 1.05,0.0333 2.23333,-0.16667 2.83333,-0.71667 l -0.43333,-7.749997 4.41667,0.06667 c 0.61666,0.01667 0.86666,0.316667 0.83333,0.683333 l -0.15,7.900004 c 0.81666,0 2,-0.23333 2.58333,-0.83333 l -0.9,-8.816674 c -0.15,-1.433332 -1.08333,-1.783333 -2.4,-1.683333 l -6.4,0.5"
       id="path3091"
       style="font-weight:bold;font-stretch:normal;font-family:Trashim CLM;-inkscape-font-specification:Trashim CLM Bold" />
    <path
       d="m 232.11563,91.394284 c -0.21666,0.583332 -0.25,1.166667 -0.11666,1.75 l 1.33333,0.483333 c 0.33333,0.133333 0.66667,0.25 0.63333,0.716667 l -0.26666,3.05 c 0.95,0.08333 1.85,-0.01667 2.71666,-0.4 l -0.0167,-4.716667 c 0,-0.833333 -0.81667,-1.233333 -1.53334,-1.166667 l -2.75,0.283334"
       id="path3093"
       style="font-weight:bold;font-stretch:normal;font-family:Trashim CLM;-inkscape-font-specification:Trashim CLM Bold" />
    <path
       d="m 225.98282,91.394284 c -0.21667,0.583332 -0.25,1.166667 -0.11667,1.75 l 1.33334,0.483333 c 0.33333,0.133333 0.66666,0.25 0.63333,0.716667 l -0.26667,3.05 c 0.95,0.08333 1.85,-0.01667 2.71667,-0.4 l -0.0167,-4.716667 c 0,-0.833333 -0.81666,-1.233333 -1.53333,-1.166667 l -2.75,0.283334"
       id="path3095"
       style="font-weight:bold;font-stretch:normal;font-family:Trashim CLM;-inkscape-font-specification:Trashim CLM Bold" />
    <path
       d="m 214.54792,91.194284 c -0.83333,0.766665 -1.41666,1.666667 -1.6,2.7 l 2.5,-0.133334 -1.6,6.133334 c -0.43333,1.649996 0.31667,2.466666 2.03334,2.249996 l 6.91666,-0.81666 c 0.75,-0.0833 1.11667,-0.58334 1.15,-1.28334 l 0.2,-6.23333 c 0.0333,-1.449998 -0.41666,-2.416666 -2.26666,-2.45 l -7.33334,-0.166666 m 2.83334,2.433333 3.75,-0.283333 c 0.53333,-0.05 0.83333,0.266667 0.78333,0.9 l -0.55,5.383333 c -0.05,0.416663 -0.38333,0.666663 -0.78333,0.616663 l -3.63334,-0.416663 c -0.56666,-0.06667 -0.68333,-0.400001 -0.56666,-0.816667 l 1,-5.383333"
       id="path3097"
       style="font-weight:bold;font-stretch:normal;font-family:Trashim CLM;-inkscape-font-specification:Trashim CLM Bold" />
    <path
       d="m 197.41147,88.027617 -0.18334,5.766667 5.78334,-0.566667 c 0.36666,-0.03333 0.75,0.3 0.48333,0.7 l -4.85,7.283333 c 0.58333,0.66667 2.06667,0.93333 2.98333,0.95 l 3.95,-8.783333 c 0.71667,-1.583332 -0.33333,-2.233333 -1.78333,-2.216667 l -4.81667,0.06667 1.55,-3.566667 c -1.15,-0.116666 -2.11666,-0.116666 -3.11666,0.366667"
       id="path3099"
       style="font-weight:bold;font-stretch:normal;font-family:Trashim CLM;-inkscape-font-specification:Trashim CLM Bold" />
    <path
       d="m 191.38907,90.994284 c -0.45,1.199998 -0.43333,2.216667 -0.21667,3.3 l 1.75,0.2 c 0.5,0.03333 0.6,0.433333 0.53334,0.933333 l -0.9,6.833333 c 1,-0.0833 1.88333,-0.3 2.61666,-0.73333 l -0.1,-8.850003 c -0.0167,-0.849999 -0.55,-1 -1.25,-1.133333 l -2.43333,-0.55"
       id="path3101"
       style="font-weight:bold;font-stretch:normal;font-family:Trashim CLM;-inkscape-font-specification:Trashim CLM Bold" />
    <path
       d="m 179.61459,92.027617 2.46667,3.8 c 0.73333,1.099999 1.46667,1.95 2.38333,2.466667 l 1.56667,0.883333 c 0.28333,0.183333 0.11666,0.7 -0.28334,0.633333 l -5.58333,-0.766666 c -0.43333,0.999996 -0.51666,2.099996 -0.31667,3.116666 l 7.56667,-0.26667 c 1.4,-0.0833 2.28333,-2.349998 0.78333,-3.466663 l -1.8,-1.333333 3.48334,-4.9 c -0.66667,-0.733333 -1.68334,-1.133334 -2.75,-1.233334 l -2.36667,5.233334 -2.28333,-5.25 c -0.75,0.08333 -2.21667,0.55 -2.86667,1.083333"
       id="path3103"
       style="font-weight:bold;font-stretch:normal;font-family:Trashim CLM;-inkscape-font-specification:Trashim CLM Bold" />
    <path
       d="m 168.01147,90.627617 c -0.78334,0.833332 -1.31667,1.666667 -1.48334,2.566667 l 2.13334,2.15 -2.08334,4.1 c -0.55,1.133336 -0.2,2.333336 1.01667,2.599996 l 1.76667,0.4 c 0.55,-0.68333 0.88333,-1.53333 1.01666,-2.43333 l -0.65,-0.2 c -0.53333,-0.15 -0.68333,-0.466667 -0.56666,-0.966666 l 0.66666,-2.533334 5.7,6.2 c 0.78334,-0.5 1.31667,-1.15 1.73334,-1.83333 l -2.16667,-2.06667 2.01667,-4.733333 c 0.58333,-1.466665 0,-2.466667 -1.35,-2.7 l -1.43334,-0.233333 c -0.88333,0.616666 -1.4,1.45 -1.71666,2.4 l 0.98333,0.15 c 0.66667,0.116666 0.88333,0.666667 0.7,1.3 l -0.66667,2.45 -5.61666,-6.616667"
       id="path3105"
       style="font-weight:bold;font-stretch:normal;font-family:Trashim CLM;-inkscape-font-specification:Trashim CLM Bold" />
    <path
       d="m 156.36199,90.894284 c -1.11667,0.149999 -2.05,0.483333 -2.75,1.1 l 1.95,8.966666 c 0.18333,0.86667 0.63333,1.35 1.53333,1.31667 l 4.25,-0.11667 c 0.71667,-0.0167 1.26667,-0.25 1.43333,-1.1 l 1.53334,-7.966666 c 0.28333,-1.549999 -0.83334,-2.333334 -2.23334,-2.116667 l -3.93333,0.65 c -0.26667,0.849999 -0.18333,1.566667 0,2.35 l 2.51667,0 c 0.35,0 0.75,0.166667 0.73333,0.55 l -0.1,4.25 c -0.0167,0.449999 -0.23333,0.7 -0.58333,0.75 l -2.91667,0.45 c -0.38333,0.06666 -0.63333,-0.08333 -0.65,-0.433333 l -0.78333,-8.65"
       id="path3107"
       style="font-weight:bold;font-stretch:normal;font-family:Trashim CLM;-inkscape-font-specification:Trashim CLM Bold" />
    <path
       d="m 147.75626,90.994284 c -0.45,1.199998 -0.43333,2.216667 -0.21667,3.3 l 1.75,0.2 c 0.5,0.03333 0.6,0.433333 0.53333,0.933333 l -0.9,6.833333 c 1,-0.0833 1.88334,-0.3 2.61667,-0.73333 l -0.1,-8.850003 c -0.0167,-0.849999 -0.55,-1 -1.25,-1.133333 l -2.43333,-0.55"
       id="path3109"
       style="font-weight:bold;font-stretch:normal;font-family:Trashim CLM;-inkscape-font-specification:Trashim CLM Bold" />
    <path
       d="m 141.94272,104.57762 c 0.78333,-0.0167 1.4,-0.0667 2.31666,-0.53334 l 1.48334,-4.216663 c -0.88334,-0.25 -2.06667,-0.333333 -3.01667,0.05 l -0.78333,4.700003"
       id="path3111"
       style="font-weight:bold;font-stretch:normal;font-family:Trashim CLM;-inkscape-font-specification:Trashim CLM Bold" />
    <path
       d="m 132.30834,89.06095 -0.3,5.583334 c 0.75,0.199999 1.51667,0.1 2.3,-0.2 l 0.98333,-4.866667 c -0.94999,-0.4 -1.81666,-0.566667 -2.98333,-0.516667 m -4.33333,-0.183333 -0.35,5.533333 c 0.73333,0.333333 1.41667,0.333333 2.13333,0.06667 l 1.18333,-4.733333 c -0.88333,-0.5 -1.83333,-0.816667 -2.96666,-0.866667"
       id="path3113"
       style="font-weight:bold;font-stretch:normal;font-family:Trashim CLM;-inkscape-font-specification:Trashim CLM Bold" />
    <path
       d="m 118.07553,88.027617 -0.18333,5.766667 5.78333,-0.566667 c 0.36667,-0.03333 0.75,0.3 0.48333,0.7 l -4.85,7.283333 c 0.58334,0.66667 2.06667,0.93333 2.98334,0.95 l 3.95,-8.783333 c 0.71666,-1.583332 -0.33334,-2.233333 -1.78334,-2.216667 l -4.81666,0.06667 1.55,-3.566667 c -1.15,-0.116666 -2.11667,-0.116666 -3.11667,0.366667"
       id="path3115"
       style="font-weight:bold;font-stretch:normal;font-family:Trashim CLM;-inkscape-font-specification:Trashim CLM Bold" />
    <path
       d="m 111.95938,91.394284 c -0.21666,0.583332 -0.25,1.166667 -0.11666,1.75 l 1.33333,0.483333 c 0.33333,0.133333 0.66667,0.25 0.63333,0.716667 l -0.26666,3.05 c 0.95,0.08333 1.85,-0.01667 2.71666,-0.4 l -0.0167,-4.716667 c 0,-0.833333 -0.81667,-1.233333 -1.53334,-1.166667 l -2.75,0.283334"
       id="path3117"
       style="font-weight:bold;font-stretch:normal;font-family:Trashim CLM;-inkscape-font-specification:Trashim CLM Bold" />
    <path
       d="m 106.45105,98.677617 c -0.18333,1.249999 -1,1.216667 -1.03333,1.216667 l -3.56667,-0.3 c -0.41667,-0.03333 -0.71667,-0.350001 -0.73333,-0.85 -0.0167,-0.466667 0.28333,-0.783334 0.8,-0.866667 1.28333,-0.183333 2.86666,-0.283336 3.06666,-2.35 l 0.41667,-4.383333 c -0.93333,-0.3 -2.01667,-0.283334 -3,-0.01667 l 0.18333,4.066667 c 0.0667,1.733331 -1.51666,1.716665 -1.68333,0.116666 l -0.55,-4.266666 c -1.216666,-0.183334 -2.350001,0.03333 -3.116667,0.4 l 2.3,9.283339 c 0.266667,1.1 0.699997,1.53333 1.699997,1.45 l 4.48334,-0.38334 c 1.15,-0.0833 1.7,-0.56666 2.03333,-1.6 l 2.51667,-8.066666 c -0.48334,-0.766666 -1.6,-1.15 -2.63334,-1.183333 l -1.18333,7.733333"
       id="path3119"
       style="font-weight:bold;font-stretch:normal;font-family:Trashim CLM;-inkscape-font-specification:Trashim CLM Bold" />
    <path
       d="m 87.686466,91.277617 c -0.133333,0.666666 -0.166666,1.450001 0.01667,2.2 l 5.116667,0.466667 c 0.666666,0.08333 0.85,0.583333 0.816666,1.1 L 93.0198,102.14428 c 0.916666,0.16667 1.866667,0.13334 2.65,-0.18333 l -0.35,-8.383333 c -0.06667,-1.533332 -1.050002,-2.65 -3,-2.55 l -4.633334,0.25"
       id="path3121"
       style="font-weight:bold;font-stretch:normal;font-family:Trashim CLM;-inkscape-font-specification:Trashim CLM Bold" />
    <path
       d="m 81.920321,91.394284 c -0.216667,0.583332 -0.25,1.166667 -0.116667,1.75 l 1.333333,0.483333 c 0.333333,0.133333 0.666667,0.25 0.633334,0.716667 l -0.266667,3.05 c 0.949999,0.08333 1.850001,-0.01667 2.716667,-0.4 l -0.01667,-4.716667 c 0,-0.833333 -0.816667,-1.233333 -1.533333,-1.166667 l -2.75,0.283334"
       id="path3123"
       style="font-weight:bold;font-stretch:normal;font-family:Trashim CLM;-inkscape-font-specification:Trashim CLM Bold" />
    <path
       d="m 70.485425,91.194284 c -0.833333,0.766665 -1.416667,1.666667 -1.6,2.7 l 2.5,-0.133334 -1.6,6.133334 c -0.433333,1.649996 0.316668,2.466666 2.033333,2.249996 l 6.916667,-0.81666 c 0.749999,-0.0833 1.116667,-0.58334 1.15,-1.28334 l 0.2,-6.23333 c 0.03333,-1.449998 -0.416669,-2.416666 -2.266667,-2.45 l -7.333333,-0.166666 m 2.833333,2.433333 3.75,-0.283333 c 0.533333,-0.05 0.833333,0.266667 0.783333,0.9 l -0.55,5.383333 c -0.05,0.416663 -0.383333,0.666663 -0.783333,0.616663 L 72.885425,99.827617 C 72.318759,99.76095 72.202092,99.427616 72.318758,99.01095 l 1,-5.383333"
       id="path3125"
       style="font-weight:bold;font-stretch:normal;font-family:Trashim CLM;-inkscape-font-specification:Trashim CLM Bold" />
    <path
       d="m 51.364071,90.927617 c -0.3,0.833332 -0.366667,2.033334 -0.183334,2.9 l 1.783334,-0.15 -0.116667,5.083333 c -0.01667,0.666666 -0.216667,1.15 -0.85,1.066667 l -1.05,-0.2 c -0.2,0.833333 -0.266667,1.716663 -0.15,2.666663 l 3,-0.35 c 0.999999,-0.1 1.366667,-1.03333 1.283333,-2.03333 l -0.5,-6.366666 3.85,-0.2 c 0.583333,-0.01667 0.8,0.566667 0.75,1.2 l -0.516666,7.783336 c 1.066665,-0.0333 2,-0.26667 2.7,-0.93334 l -0.55,-7.949996 c -0.08333,-1.283333 -0.633335,-2.000001 -1.966667,-2.083334 l -7.483333,-0.433333"
       id="path3127"
       style="font-weight:bold;font-stretch:normal;font-family:Trashim CLM;-inkscape-font-specification:Trashim CLM Bold" />
    <path
       d="m 39.221883,97.494284 -0.966667,4.433336 c 1.183333,0.36666 2.300002,0.35 3.366667,-0.13334 l -0.45,-4.316663 c -0.649999,-0.133333 -1.300001,-0.116667 -1.95,0.01667 M 38.68855,91.46095 c -0.35,1.033333 -0.483333,2.116668 -0.183334,3.266667 l 6.316667,-1.383333 c 1.099999,-0.216667 1.583333,0.216667 1.516667,1.266666 l -0.566667,7.36667 c 0.983332,0.23333 2.116668,0.13333 2.983333,-0.23334 l -0.333333,-7.966663 c -0.116666,-2.449998 -1.766668,-2.7 -3.583333,-2.616667 l -6.15,0.3"
       id="path3129"
       style="font-weight:bold;font-stretch:normal;font-family:Trashim CLM;-inkscape-font-specification:Trashim CLM Bold" />
    <path
       d="m 32.389071,91.394284 c -0.216667,0.583332 -0.25,1.166667 -0.116667,1.75 l 1.333333,0.483333 c 0.333333,0.133333 0.666667,0.25 0.633334,0.716667 l -0.266667,3.05 c 0.949999,0.08333 1.850001,-0.01667 2.716667,-0.4 l -0.01667,-4.716667 c 0,-0.833333 -0.816667,-1.233333 -1.533333,-1.166667 l -2.75,0.283334"
       id="path3131"
       style="font-weight:bold;font-stretch:normal;font-family:Trashim CLM;-inkscape-font-specification:Trashim CLM Bold" />
    <path
       d="m 22.489591,88.027617 -0.183333,5.766667 5.783333,-0.566667 c 0.366667,-0.03333 0.75,0.3 0.483334,0.7 l -4.85,7.283333 c 0.583333,0.66667 2.066667,0.93333 2.983333,0.95 l 3.95,-8.783333 c 0.716666,-1.583332 -0.333335,-2.233333 -1.783333,-2.216667 l -4.816667,0.06667 1.55,-3.566667 C 24.456259,87.544287 23.48959,87.544287 22.489591,88.02762"
       id="path3133"
       style="font-weight:bold;font-stretch:normal;font-family:Trashim CLM;-inkscape-font-specification:Trashim CLM Bold" />
    <path
       d="m 11.214071,97.494284 -0.966667,4.433336 c 1.183332,0.36666 2.300001,0.35 3.366667,-0.13334 l -0.45,-4.316663 c -0.65,-0.133333 -1.300001,-0.116667 -1.95,0.01667 M 10.680737,91.46095 c -0.349999,1.033333 -0.483333,2.116668 -0.183333,3.266667 l 6.316667,-1.383333 c 1.099999,-0.216667 1.583333,0.216667 1.516666,1.266666 l -0.566666,7.36667 c 0.983332,0.23333 2.116667,0.13333 2.983333,-0.23334 l -0.333333,-7.966663 c -0.116667,-2.449998 -1.766669,-2.7 -3.583334,-2.616667 l -6.15,0.3"
       id="path3135"
       style="font-weight:bold;font-stretch:normal;font-family:Trashim CLM;-inkscape-font-specification:Trashim CLM Bold" />
    <path
       d="m 6.6833415,89.06095 -0.3,5.583334 c 0.7499992,0.199999 1.5166674,0.1 2.3,-0.2 l 0.9833333,-4.866667 c -0.949999,-0.4 -1.8166678,-0.566667 -2.9833333,-0.516667 m -4.3333334,-0.183333 -0.35,5.533333 c 0.7333326,0.333333 1.4166674,0.333333 2.1333334,0.06667 l 1.1833333,-4.733333 c -0.8833324,-0.5 -1.8333345,-0.816667 -2.9666667,-0.866667"
       id="path3137"
       style="font-weight:bold;font-stretch:normal;font-family:Trashim CLM;-inkscape-font-specification:Trashim CLM Bold" />
  </g>
</svg>
