<?xml version="1.0" encoding="UTF-8" standalone="no"?>
<!-- Created with Inkscape (http://www.inkscape.org/) -->
<svg
   xmlns:svg="http://www.w3.org/2000/svg"
   xmlns="http://www.w3.org/2000/svg"
   version="1.0"
   viewBox="0 0 28.040001 28.027033"
   id="svg2">
  <defs
     id="defs4" />
  <g
     transform="translate(-395.88571,-418.64402)"
     id="layer1">
    <path
       d="M 395.88571,427.96789 C 395.88571,431.88788 399.40571,435.28789 405.16571,436.76789 C 405.52571,436.84789 405.80571,436.64789 405.88571,436.28789 C 406.04571,435.56789 406.04571,434.52789 405.84571,433.84789 C 405.76571,433.48789 405.52571,433.24789 405.16571,433.16789 C 401.56571,432.16789 399.40571,430.12789 399.40571,427.96789 C 399.40571,425.64789 402.00571,422.72789 408.68571,422.12789 C 409.12571,422.08789 409.04571,421.84789 408.80571,421.72789 C 408.40571,421.52789 408.12571,421.04789 408.12571,420.48789 C 408.12571,419.84789 408.44571,419.36789 408.84571,419.08789 C 409.08571,418.88789 409.00571,418.64789 408.56571,418.68789 C 401.40571,419.08789 395.88571,423.08789 395.88571,427.96789"
       id="path2392"
       style="font-size:40px;font-style:normal;font-variant:normal;font-weight:normal;font-stretch:normal;fill:#0e3d08;fill-opacity:1;stroke:none;stroke-width:1px;stroke-linecap:butt;stroke-linejoin:miter;stroke-opacity:1;font-family:Caladings CLM;-inkscape-font-specification:Caladings CLM" />
    <path
       d="M 414.64571,436.76789 C 414.24571,436.84789 414.00571,436.64789 413.92571,436.28789 C 413.72571,435.56789 413.76571,434.52789 413.96571,433.84789 C 414.04571,433.48789 414.28571,433.24789 414.64571,433.16789 C 418.2457,432.16789 420.40571,430.12789 420.40571,427.96789 C 420.40571,425.00789 416.4057,422.48789 411.12571,422.16789 C 410.68571,422.12789 410.76571,421.88789 411.00571,421.76789 C 411.40571,421.56789 411.64571,421.04789 411.64571,420.44789 C 411.64571,419.84789 411.36571,419.36789 410.96571,419.04789 C 410.72571,418.88789 410.80571,418.60789 411.24571,418.64789 C 418.3657,419.08789 423.92571,423.08789 423.92571,427.96789 C 423.92571,431.88788 420.4057,435.28789 414.64571,436.76789"
       id="path2390"
       style="font-size:40px;font-style:normal;font-variant:normal;font-weight:normal;font-stretch:normal;fill:#008b00;fill-opacity:1;stroke:none;stroke-width:1px;stroke-linecap:butt;stroke-linejoin:miter;stroke-opacity:1;font-family:Caladings CLM;-inkscape-font-specification:Caladings CLM" />
    <path
       d="M 406.40571,445.88789 C 405.84571,446.40789 406.12571,446.76789 406.72571,446.64789 C 409.0457,446.24789 410.72571,446.24789 413.12571,446.64789 C 413.68571,446.72789 414.0057,446.40789 413.40571,445.88789 C 412.28571,444.92789 411.64571,443.52789 411.64571,441.96789 L 411.64571,424.72789 C 411.64571,424.56789 411.56571,424.36789 411.32571,424.28789 C 410.40571,424.08789 409.3257,424.08789 408.52571,424.32789 C 408.32571,424.40789 408.16571,424.56789 408.16571,424.76789 L 408.16571,441.96789 L 408.16571,441.96789 C 408.16571,443.52789 407.4857,444.88789 406.40571,445.88789"
       id="text2383"
       style="font-size:40px;font-style:normal;font-variant:normal;font-weight:normal;font-stretch:normal;fill:#008b00;fill-opacity:1;stroke:none;stroke-width:1px;stroke-linecap:butt;stroke-linejoin:miter;stroke-opacity:1;font-family:Caladings CLM;-inkscape-font-specification:Caladings CLM" />
  </g>
</svg>
