<?xml version="1.0" encoding="UTF-8" standalone="no"?>
<!-- Created with Inkscape (http://www.inkscape.org/) -->

<svg
   xmlns:dc="http://purl.org/dc/elements/1.1/"
   xmlns:cc="http://creativecommons.org/ns#"
   xmlns:rdf="http://www.w3.org/1999/02/22-rdf-syntax-ns#"
   xmlns:svg="http://www.w3.org/2000/svg"
   xmlns="http://www.w3.org/2000/svg"
   xmlns:sodipodi="http://sodipodi.sourceforge.net/DTD/sodipodi-0.dtd"
   xmlns:inkscape="http://www.inkscape.org/namespaces/inkscape"
   viewBox="0 0 118.71875 53.8125"
   id="svg2"
   version="1.1"
   inkscape:version="0.48.4 r9939"
   sodipodi:docname="New document 1">
  <defs
     id="defs4" />
  <sodipodi:namedview
     id="base"
     pagecolor="#ffffff"
     bordercolor="#666666"
     borderopacity="1.0"
     inkscape:pageopacity="0.0"
     inkscape:pageshadow="2"
     inkscape:zoom="0.98994949"
     inkscape:cx="406.5161"
     inkscape:cy="-87.081461"
     inkscape:document-units="px"
     inkscape:current-layer="layer1"
     showgrid="false"
     fit-margin-top="2"
     fit-margin-left="2"
     fit-margin-right="2"
     fit-margin-bottom="2"
     inkscape:window-width="1364"
     inkscape:window-height="1059"
     inkscape:window-x="0"
     inkscape:window-y="0"
     inkscape:window-maximized="0" />
  <metadata
     id="metadata7">
    <rdf:RDF>
      <cc:Work
         rdf:about="">
        <dc:format>image/svg+xml</dc:format>
        <dc:type
           rdf:resource="http://purl.org/dc/dcmitype/StillImage" />
        <dc:title></dc:title>
      </cc:Work>
    </rdf:RDF>
  </metadata>
  <g
     inkscape:label="Layer 1"
     inkscape:groupmode="layer"
     id="layer1"
     transform="translate(-85.23214,-186.95148)">
    <g
       style="font-size:64px;font-style:normal;font-variant:normal;font-weight:normal;font-stretch:normal;line-height:125%;letter-spacing:0px;word-spacing:0px;fill:#000000;fill-opacity:1;stroke:none;font-family:Sans;-inkscape-font-specification:Adobe Helvetica"
       id="text2985">
      <path
         d="m 182.07589,202.54523 c -10e-6,1.00003 0.28124,1.67711 0.84375,2.03125 0.58332,0.33336 1.53124,0.50003 2.84375,0.5 l 10.1875,0 c 1.91664,3e-5 3.40623,0.46878 4.46875,1.40625 1.02081,0.95836 1.53122,3.25003 1.53125,6.875 l 0,3.375 c -3e-5,2.72918 -0.60419,4.76043 -1.8125,6.09375 l -5.9375,6.65625 c -1.43752,1.60417 -2.15627,3.17709 -2.15625,4.71875 -2e-5,0.3125 0.0312,0.71875 0.0937,1.21875 0.0833,0.47917 0.12498,0.82292 0.125,1.03125 -2e-5,1.54166 -0.69793,2.3125 -2.09375,2.3125 -0.68751,0 -1.27085,-0.33334 -1.75,-1 -0.45835,-0.66667 -0.68751,-1.4375 -0.6875,-2.3125 -10e-6,-1.125 0.37499,-2.22916 1.125,-3.3125 0.77082,-1.10416 2.05207,-2.56249 3.84375,-4.375 l 4.5625,-4.71875 c 1.29164,-1.35415 1.93748,-3.08332 1.9375,-5.1875 l 0,-1.875 c -2e-5,-1.49998 -0.35419,-2.42706 -1.0625,-2.78125 -0.68752,-0.37498 -2.25002,-0.56248 -4.6875,-0.5625 l -9.0625,0 c -1.58334,2e-5 -2.80209,-0.45831 -3.65625,-1.375 -0.83334,-0.93748 -1.25,-2.15622 -1.25,-3.65625 0,-1.8958 0.38541,-3.99997 1.15625,-6.3125 l 0.90625,-2.65625 c 0.14583,-0.43746 0.21874,-0.79163 0.21875,-1.0625 -10e-6,-0.60413 -0.37501,-1.09371 -1.125,-1.46875 l -1.75,-0.84375 c -0.89584,-0.43746 -1.34375,-1.05204 -1.34375,-1.84375 0,-0.49996 0.15625,-1.23954 0.46875,-2.21875 0.33333,-0.97912 0.67708,-1.72912 1.03125,-2.25 l 0.78125,0 c 0.0833,0.64588 0.52083,1.12505 1.3125,1.4375 l 1.1875,0.46875 c 1.31249,0.52088 1.96874,1.32296 1.96875,2.40625 -10e-6,0.14588 -0.44793,1.89587 -1.34375,5.25 l -0.4375,1.59375 c -0.29167,1.12503 -0.43751,1.93753 -0.4375,2.4375"
         style="font-family:Taamey Frank CLM;-inkscape-font-specification:Taamey Frank CLM Medium"
         id="path3024" />
      <path
         d="m 131.01339,220.85773 c 0.60415,0.70835 1.20831,1.57293 1.8125,2.59375 0.62498,1.02084 1.26039,2.20834 1.90625,3.5625 l -2.25,0 c -1.20835,-1.41666 -2.4896,-2.70832 -3.84375,-3.875 -1.35418,-1.16665 -2.88543,-2.18749 -4.59375,-3.0625 l 0,-1.125 c 1.70832,-0.87498 3.23957,-1.89582 4.59375,-3.0625 1.35415,-1.16665 2.6354,-2.45831 3.84375,-3.875 l 2.25,0 c -0.64586,1.35419 -1.28127,2.54169 -1.90625,3.5625 -0.60419,1.02085 -1.20835,1.88543 -1.8125,2.59375 l 30.90625,0 0,2.6875 -30.90625,0"
         style="font-weight:normal;font-family:Liberation Sans;-inkscape-font-specification:Liberation Sans"
         id="path3026" />
      <path
         d="m 93.63839,205.07648 10.1875,0 c 1.91664,3e-5 3.40623,0.46878 4.46875,1.40625 1.02081,0.95836 1.53122,3.25003 1.53125,6.875 l 0,3.375 c -3e-5,2.72918 -0.60419,4.76043 -1.8125,6.09375 l -5.9375,6.65625 c -1.43752,1.60417 -2.156267,3.17709 -2.15625,4.71875 -1.7e-5,0.3125 0.03123,0.71875 0.09375,1.21875 0.0833,0.47917 0.12498,0.82292 0.125,1.03125 -2e-5,1.54166 -0.697934,2.3125 -2.09375,2.3125 -0.687515,0 -1.270848,-0.33334 -1.75,-1 -0.458347,-0.66667 -0.687513,-1.4375 -0.6875,-2.3125 -1.3e-5,-1.125 0.374986,-2.22916 1.125,-3.3125 0.770818,-1.10416 2.052067,-2.56249 3.84375,-4.375 l 4.5625,-4.71875 c 1.29164,-1.35415 1.93748,-3.08332 1.9375,-5.1875 l 0,-1.875 c -2e-5,-1.49998 -0.35419,-2.42706 -1.0625,-2.78125 -0.68752,-0.37498 -2.25002,-0.56248 -4.6875,-0.5625 l -9.0625,0 c -1.583342,2e-5 -2.80209,-0.45831 -3.65625,-1.375 -0.833339,-0.93748 -1.250005,-2.15622 -1.25,-3.65625 -5e-6,-0.27081 -0.02084,-0.76039 -0.0625,-1.46875 -0.04167,-0.72914 -0.06251,-1.30205 -0.0625,-1.71875 -5e-6,-1.68747 0.260412,-3.11455 0.78125,-4.28125 0.937493,-2.10413 2.291659,-3.15621 4.0625,-3.15625 0.979156,4e-5 2.510405,0.40629 4.59375,1.21875 2.083317,0.7917 3.6354,1.18754 4.65625,1.1875 0.49998,4e-5 0.90623,-0.24996 1.21875,-0.75 0.33331,-0.5208 0.56248,-1.09371 0.6875,-1.71875 0.12498,-0.62496 0.35415,-1.18746 0.6875,-1.6875 0.33331,-0.52079 0.77081,-0.78121 1.3125,-0.78125 0.77081,4e-5 1.53123,0.19796 2.28125,0.59375 0.74997,0.39587 1.43747,0.59379 2.0625,0.59375 l 0,0.84375 c -0.52086,0.39587 -0.86461,0.7917 -1.03125,1.1875 -0.10419,0.2292 -0.23961,0.6042 -0.40625,1.125 -0.14586,0.52087 -0.29169,0.93754 -0.4375,1.25 -0.14586,0.31253 -0.35419,0.65628 -0.625,1.03125 -0.27086,0.3542 -0.63544,0.62503 -1.09375,0.8125 -0.43752,0.18753 -0.96877,0.28128 -1.59375,0.28125 -1.47919,3e-5 -2.97919,-0.21872 -4.5,-0.65625 -1.500016,-0.4583 -2.906265,-0.90622 -4.21875,-1.34375 -1.291679,-0.4583 -2.437511,-0.68746 -3.4375,-0.6875 -0.666676,4e-5 -1.208342,0.28129 -1.625,0.84375 -0.416674,0.56253 -0.625008,1.21878 -0.625,1.96875 -8e-6,1.8542 1.218741,2.78128 3.65625,2.78125"
         style="font-weight:500;font-family:Frank CurledLamed;-inkscape-font-specification:Frank CurledLamed Medium"
         id="path3028" />
    </g>
  </g>
</svg>
