<?xml version="1.0" encoding="UTF-8" standalone="no"?>
<!-- Created with Inkscape (http://www.inkscape.org/) -->
<svg
   xmlns:svg="http://www.w3.org/2000/svg"
   xmlns="http://www.w3.org/2000/svg"
   version="1.0"
   viewBox="0 0 101.5055 57.539322"
   id="svg2">
  <defs
     id="defs4" />
  <g
     transform="translate(-29.306603,-155.3757)"
     id="layer1">
    <text
       x="85.714287"
       y="212.36218"
       id="text2383"
       xml:space="preserve"
       style="font-size:40px;font-style:normal;font-variant:normal;font-weight:normal;font-stretch:normal;fill:#000000;fill-opacity:1;stroke:none;stroke-width:1px;stroke-linecap:butt;stroke-linejoin:miter;stroke-opacity:1;font-family:David CLM;-inkscape-font-specification:David CLM"><tspan
         x="85.714287"
         y="212.36218"
         id="tspan2385" /></text>
    <path
       d="M 40.026912,155.88169 C 40.138017,156.65949 40.282461,157.14838 40.460245,157.34836 L 49.593579,157.34836 C 49.46023,157.90393 49.226897,158.53727 48.893579,159.24836 C 48.560231,159.93727 48.204675,160.51504 47.826912,160.98169 L 39.926912,160.98169 C 39.882461,162.62615 39.926906,164.15948 40.060245,165.58169 C 43.882457,165.44837 46.471344,166.23726 47.826912,167.94836 C 48.493564,168.77059 48.871341,169.77059 48.960245,170.94836 C 49.049119,172.12614 48.904675,173.2817 48.526912,174.41502 C 48.14912,175.52614 47.615787,176.55947 46.926912,177.51502 C 46.104677,178.62614 45.226901,179.44836 44.293579,179.98169 C 43.382458,180.4928 42.249126,180.77058 40.893579,180.81502 C 40.07135,180.85947 39.138018,180.75947 38.093579,180.51502 C 37.071353,180.27058 36.260243,180.00391 35.660245,179.71502 C 36.193576,178.47058 36.83802,177.33725 37.593579,176.31502 C 39.193573,176.95947 40.638016,177.25947 41.926912,177.21502 C 43.260236,177.17058 44.371346,176.81503 45.260245,176.14836 C 46.171344,175.45947 46.649121,174.4817 46.693579,173.21502 C 46.73801,172.25948 46.449122,171.41503 45.826912,170.68169 C 45.226901,169.94837 44.438012,169.42614 43.460245,169.11502 C 42.838014,168.91503 42.226904,168.80392 41.626912,168.78169 C 41.026905,168.73726 40.326905,168.74837 39.526912,168.81502 C 38.749129,168.8817 38.238019,168.91503 37.993579,168.91502 C 37.571353,165.15948 37.482464,162.04837 37.726912,159.58169 C 38.282463,158.29282 39.049129,157.05949 40.026912,155.88169 M 53.092537,171.84836 C 53.381424,170.51503 53.836979,169.41503 54.459204,168.54836 L 64.82587,168.54836 C 64.603635,169.77059 64.214746,170.87059 63.659204,171.84836 L 53.092537,171.84836 M 71.949829,157.04836 C 75.260931,156.44838 77.660929,156.94838 79.149829,158.54836 C 79.727593,159.19282 80.094259,160.03727 80.249829,161.08169 C 80.427592,162.10393 80.360926,162.99282 80.049829,163.74836 C 79.583149,164.97059 78.760927,166.04837 77.583162,166.98169 C 78.427594,167.07059 79.283149,167.41504 80.149829,168.01502 C 81.016481,168.61503 81.572036,169.3817 81.816495,170.31502 C 82.127591,171.27059 82.149813,172.39281 81.883162,173.68169 C 81.61648,174.94836 81.072036,176.10392 80.249829,177.14836 C 79.316482,178.34836 78.316483,179.24836 77.249829,179.84836 C 76.183152,180.44836 74.938709,180.78169 73.516495,180.84836 C 72.716489,180.8928 71.827601,180.78169 70.849829,180.51502 C 69.89427,180.27058 69.049826,179.94836 68.316495,179.54836 C 68.805382,178.34836 69.560937,177.27058 70.583162,176.31502 C 72.205378,177.11503 73.605377,177.48169 74.783162,177.41502 C 77.738706,177.23725 79.283149,176.01503 79.416495,173.74836 C 79.460927,172.94836 79.29426,172.27059 78.916495,171.71502 C 78.538705,171.15948 77.98315,170.75948 77.249829,170.51502 C 76.538707,170.24837 75.783153,170.05948 74.983162,169.94836 C 74.205376,169.83726 73.294266,169.7817 72.249829,169.78169 C 72.205378,168.91503 72.383156,168.07059 72.783162,167.24836 C 74.005377,166.95948 75.094264,166.42615 76.049829,165.64836 C 77.005374,164.84837 77.416484,164.02615 77.283162,163.18169 C 77.194262,162.60393 76.983151,162.11504 76.649829,161.71502 C 76.338708,161.31504 75.938708,161.01504 75.449829,160.81502 C 74.983153,160.61504 74.43871,160.45949 73.816495,160.34836 C 73.216489,160.23727 72.594267,160.18171 71.949829,160.18169 C 71.327602,160.18171 70.694269,160.18171 70.049829,160.18169 C 70.516491,158.93727 71.149824,157.89282 71.949829,157.04836 M 88.815454,171.78169 L 105.48212,171.78169 C 105.25988,172.87059 104.90432,173.80392 104.41545,174.58169 L 87.748787,174.58169 C 87.971005,173.47059 88.32656,172.53725 88.815454,171.78169 M 88.815454,165.58169 L 105.48212,165.58169 C 105.25988,166.67059 104.90432,167.60392 104.41545,168.38169 L 87.748787,168.38169 C 87.971005,167.27059 88.32656,166.33726 88.815454,165.58169 M 113.95191,157.21502 C 115.21857,156.9706 116.31857,156.84838 117.25191,156.84836 C 118.18524,156.82616 119.12968,156.99282 120.08525,157.34836 C 121.04079,157.68171 121.88523,158.23727 122.61858,159.01502 C 123.48523,159.94838 123.92968,161.14838 123.95191,162.61502 C 123.97412,164.05948 123.59634,165.34837 122.81858,166.48169 C 122.26301,167.30392 121.30746,168.30392 119.95191,169.48169 C 118.59635,170.65948 117.66301,171.51503 117.15191,172.04836 C 116.50746,172.73725 115.94079,173.51503 115.45191,174.38169 C 114.98524,175.24836 114.71857,176.07058 114.65191,176.84836 L 124.38525,176.84836 C 124.09634,178.0928 123.51856,179.30391 122.65191,180.48169 L 111.48525,180.48169 C 111.41858,179.41502 111.45191,178.47058 111.58525,177.64836 C 111.71858,176.82614 111.98524,175.93725 112.38525,174.98169 C 112.49635,174.69281 112.61858,174.41503 112.75191,174.14836 C 112.90746,173.85947 113.05191,173.60392 113.18525,173.38169 C 113.31857,173.15947 113.49635,172.91503 113.71858,172.64836 C 113.9408,172.35948 114.10746,172.12614 114.21858,171.94836 C 114.35191,171.77059 114.56302,171.52614 114.85191,171.21502 C 115.1408,170.90392 115.34079,170.6817 115.45191,170.54836 C 115.58524,170.41503 115.81857,170.1817 116.15191,169.84836 C 116.50746,169.49281 116.74079,169.27059 116.85191,169.18169 C 116.96302,169.07059 117.21857,168.82615 117.61858,168.44836 C 118.04079,168.04837 118.30746,167.80392 118.41858,167.71502 C 119.17412,166.9817 119.69635,166.1817 119.98525,165.31502 C 120.29635,164.44837 120.36301,163.64837 120.18525,162.91502 C 120.00746,162.18171 119.62968,161.58171 119.05191,161.11502 C 117.62968,159.98171 115.40746,159.74838 112.38525,160.41502 C 112.69635,159.28171 113.21857,158.21505 113.95191,157.21502 M 35.534724,187.88169 C 35.645829,188.65949 35.790274,189.14838 35.968058,189.34836 L 45.101391,189.34836 C 44.968042,189.90393 44.734709,190.53727 44.401391,191.24836 C 44.068043,191.93727 43.712488,192.51504 43.334724,192.98169 L 35.434724,192.98169 C 35.390274,194.62615 35.434718,196.15948 35.568058,197.58169 C 39.39027,197.44837 41.979156,198.23726 43.334724,199.94836 C 44.001376,200.77059 44.379154,201.77059 44.468058,202.94836 C 44.556931,204.12614 44.412487,205.2817 44.034724,206.41502 C 43.656932,207.52614 43.1236,208.55947 42.434724,209.51502 C 41.61249,210.62614 40.734713,211.44836 39.801391,211.98169 C 38.89027,212.4928 37.756938,212.77058 36.401391,212.81502 C 35.579163,212.85947 34.64583,212.75947 33.601391,212.51502 C 32.579166,212.27058 31.768055,212.00391 31.168058,211.71502 C 31.701389,210.47058 32.345833,209.33725 33.101391,208.31502 C 34.701386,208.95947 36.145829,209.25947 37.434724,209.21502 C 38.768048,209.17058 39.879158,208.81503 40.768058,208.14836 C 41.679157,207.45947 42.156934,206.4817 42.201391,205.21502 C 42.245823,204.25948 41.956934,203.41503 41.334724,202.68169 C 40.734713,201.94837 39.945825,201.42615 38.968058,201.11502 C 38.345827,200.91503 37.734716,200.80392 37.134724,200.78169 C 36.534717,200.73726 35.834718,200.74837 35.034724,200.81502 C 34.256942,200.8817 33.745831,200.91503 33.501391,200.91502 C 33.079165,197.15948 32.990276,194.04838 33.234724,191.58169 C 33.790276,190.29282 34.556941,189.05949 35.534724,187.88169 M 51.000349,200.41502 L 67.667016,200.41502 C 67.444773,201.50392 67.089218,202.43726 66.600349,203.21502 L 49.933683,203.21502 C 50.155901,202.10392 50.511457,201.17059 51.000349,200.41502 M 76.442016,189.04836 C 79.753118,188.44838 82.153116,188.94838 83.642016,190.54836 C 84.219781,191.19282 84.586447,192.03727 84.742016,193.08169 C 84.91978,194.10393 84.853113,194.99282 84.542016,195.74836 C 84.075336,196.97059 83.253115,198.04837 82.075349,198.98169 C 82.919782,199.07059 83.775337,199.41504 84.642016,200.01502 C 85.508668,200.61504 86.064223,201.3817 86.308683,202.31502 C 86.619778,203.27059 86.642,204.39281 86.375349,205.68169 C 86.108668,206.94836 85.564224,208.10392 84.742016,209.14836 C 83.80867,210.34836 82.808671,211.24836 81.742016,211.84836 C 80.67534,212.44836 79.430897,212.78169 78.008683,212.84836 C 77.208677,212.8928 76.319789,212.78169 75.342016,212.51502 C 74.386457,212.27058 73.542014,211.94836 72.808683,211.54836 C 73.297569,210.34836 74.053124,209.27058 75.075349,208.31502 C 76.697566,209.11503 78.097565,209.48169 79.275349,209.41502 C 82.230894,209.23725 83.775337,208.01503 83.908683,205.74836 C 83.953114,204.94836 83.786448,204.27059 83.408683,203.71502 C 83.030893,203.15948 82.475338,202.75948 81.742016,202.51502 C 81.030895,202.24837 80.27534,202.05948 79.475349,201.94836 C 78.697564,201.83726 77.786454,201.7817 76.742016,201.78169 C 76.697566,200.91503 76.875344,200.07059 77.275349,199.24836 C 78.497564,198.95948 79.586452,198.42615 80.542016,197.64836 C 81.497561,196.84837 81.908672,196.02615 81.775349,195.18169 C 81.68645,194.60393 81.475339,194.11504 81.142016,193.71502 C 80.830895,193.31504 80.430896,193.01504 79.942016,192.81502 C 79.475341,192.61504 78.930897,192.45949 78.308683,192.34836 C 77.708676,192.23727 77.086454,192.18171 76.442016,192.18169 C 75.819789,192.18171 75.186456,192.18171 74.542016,192.18169 C 75.008679,190.93727 75.642011,189.89282 76.442016,189.04836 M 93.307641,203.78169 L 109.97431,203.78169 C 109.75206,204.87059 109.39651,205.80392 108.90764,206.58169 L 92.240974,206.58169 C 92.463192,205.47059 92.818748,204.53725 93.307641,203.78169 M 93.307641,197.58169 L 109.97431,197.58169 C 109.75206,198.67059 109.39651,199.60393 108.90764,200.38169 L 92.240974,200.38169 C 92.463192,199.27059 92.818748,198.33726 93.307641,197.58169 M 118.4441,189.21502 C 119.71076,188.9706 120.81076,188.84838 121.7441,188.84836 C 122.67742,188.82616 123.62187,188.99282 124.57743,189.34836 C 125.53298,189.68171 126.37742,190.23727 127.11077,191.01502 C 127.97742,191.94838 128.42186,193.14838 128.4441,194.61502 C 128.46631,196.05948 128.08853,197.34837 127.31077,198.48169 C 126.7552,199.30393 125.79964,200.30392 124.4441,201.48169 C 123.08853,202.65948 122.1552,203.51503 121.6441,204.04836 C 120.99965,204.73725 120.43298,205.51503 119.9441,206.38169 C 119.47743,207.24836 119.21076,208.07058 119.1441,208.84836 L 128.87743,208.84836 C 128.58853,210.0928 128.01075,211.30391 127.1441,212.48169 L 115.97743,212.48169 C 115.91076,211.41502 115.9441,210.47058 116.07743,209.64836 C 116.21076,208.82614 116.47743,207.93725 116.87743,206.98169 C 116.98854,206.69281 117.11076,206.41503 117.2441,206.14836 C 117.39965,205.85947 117.5441,205.60392 117.67743,205.38169 C 117.81076,205.15948 117.98854,204.91503 118.21077,204.64836 C 118.43298,204.35948 118.59965,204.12614 118.71077,203.94836 C 118.84409,203.77059 119.05521,203.52614 119.3441,203.21502 C 119.63298,202.90392 119.83298,202.6817 119.9441,202.54836 C 120.07743,202.41503 120.31076,202.1817 120.6441,201.84836 C 120.99965,201.49281 121.23298,201.27059 121.3441,201.18169 C 121.4552,201.07059 121.71076,200.82615 122.11077,200.44836 C 122.53298,200.04837 122.79965,199.80392 122.91077,199.71502 C 123.66631,198.9817 124.18853,198.1817 124.47743,197.31502 C 124.78853,196.44837 124.8552,195.64837 124.67743,194.91502 C 124.49964,194.18171 124.12187,193.58171 123.5441,193.11502 C 122.12187,191.98171 119.89965,191.74838 116.87743,192.41502 C 117.18854,191.28171 117.71076,190.21505 118.4441,189.21502"
       id="text2387"
       style="font-size:40px;font-style:normal;font-variant:normal;font-weight:normal;font-stretch:normal;text-align:center;line-height:80.00000119%;writing-mode:lr-tb;text-anchor:middle;fill:#000000;fill-opacity:1;stroke:none;stroke-width:1px;stroke-linecap:butt;stroke-linejoin:miter;stroke-opacity:1;font-family:David CLM;-inkscape-font-specification:David CLM" />
    <path
       d="M -51.369267,26.897097 L 48.136236,0.49401182"
       transform="translate(81.67587,155.88169)"
       id="path2393"
       style="fill:none;fill-rule:evenodd;stroke:#ff0000;stroke-width:2;stroke-linecap:butt;stroke-linejoin:miter;stroke-miterlimit:4;stroke-dasharray:none;stroke-opacity:1" />
  </g>
</svg>
