<?xml version="1.0" encoding="UTF-8" standalone="no"?>
<!-- Created with Inkscape (http://www.inkscape.org/) -->
<svg
   xmlns:svg="http://www.w3.org/2000/svg"
   xmlns="http://www.w3.org/2000/svg"
   version="1.0"
   viewBox="0 0 184.61395 24.800001"
   id="svg2">
  <defs
     id="defs4" />
  <g
     transform="translate(-82.591655,-272.81933)"
     id="layer1">
    <path
       d="M 89.29714,294.97933 C 90.417138,295.33933 91.657141,295.41933 93.01714,295.41933 C 94.457138,295.41933 95.577141,295.17933 96.57714,294.61933 C 97.457139,294.09933 98.17714,293.29933 98.65714,292.37933 C 99.417139,290.89933 99.97714,289.33933 100.21714,287.45933 C 100.45714,285.69933 100.53714,283.89933 100.37714,282.05933 C 100.21714,280.37933 99.697139,278.77933 98.89714,277.61933 C 98.21714,276.61933 97.137138,275.81933 95.93714,275.45933 C 94.817141,275.09933 93.617138,275.01933 92.21714,275.01933 C 90.737141,275.01933 89.657139,275.25933 88.65714,275.81933 C 87.77714,276.33933 87.057139,277.13933 86.57714,278.05933 C 85.81714,279.53933 85.297139,281.09933 85.01714,282.97933 C 84.77714,284.73933 84.69714,286.53933 84.85714,288.37933 C 85.017139,290.05933 85.57714,291.65933 86.33714,292.81933 C 87.017139,293.81933 88.097141,294.61933 89.29714,294.97933 M 92.53714,291.81933 C 91.377141,291.81933 90.497139,291.61933 89.81714,291.17933 C 89.13714,290.73933 88.657139,290.25933 88.29714,289.53933 C 87.69714,288.29933 87.41714,286.97933 87.41714,285.25933 C 87.37714,283.17933 87.49714,281.41933 88.21714,280.13933 C 88.777139,279.17933 89.537141,278.61933 90.81714,278.61933 L 92.69714,278.61933 C 93.857138,278.61933 94.73714,278.81933 95.41714,279.25933 C 96.097139,279.69933 96.57714,280.17933 96.93714,280.89933 C 97.577139,282.13933 97.81714,283.45933 97.85714,285.17933 C 97.85714,287.25933 97.737139,289.01933 97.01714,290.29933 C 96.45714,291.25933 95.697138,291.81933 94.41714,291.81933 L 92.53714,291.81933 M 110.79026,290.25933 L 111.35026,276.53933 C 111.39026,275.41933 110.95026,274.81933 109.67026,275.01933 L 105.95026,275.53933 C 105.35027,275.61933 104.99026,276.05933 104.95026,276.65933 L 104.87026,278.29933 C 104.83026,278.89933 105.35027,279.29933 106.07026,279.17933 L 107.39026,278.97933 C 107.95026,278.85933 108.23026,279.05933 108.27026,279.61933 L 108.55026,290.25933 C 108.55026,291.17933 107.95026,291.61933 107.07026,291.61933 L 106.27026,291.61933 C 105.67027,291.61933 105.23026,291.97933 105.07026,292.53933 L 104.71026,294.13933 C 104.55026,294.73933 104.99027,295.21933 105.71026,295.21933 L 112.95026,295.21933 C 113.79026,295.21933 114.23026,294.85933 114.11026,294.17933 L 113.79026,292.69933 C 113.67026,292.05933 113.15026,291.61933 112.31026,291.61933 L 112.27026,291.61933 C 111.39027,291.61933 110.75026,291.17933 110.79026,290.25933 M 126.49089,278.81933 C 127.57089,278.81933 128.61089,278.85933 129.13089,279.29933 C 129.81089,279.89933 130.01089,280.73933 129.85089,281.77933 C 129.77089,282.53933 129.65089,283.25933 129.05089,284.01933 C 128.17089,285.05933 126.65089,286.17933 125.57089,286.97933 L 119.73089,291.21933 C 119.25089,291.57933 119.01089,291.77933 118.85089,292.33933 L 118.41089,294.13933 C 118.25089,294.73933 118.69089,295.21933 119.41089,295.21933 L 133.17089,295.21933 C 134.01089,295.21933 134.45089,294.85933 134.33089,294.17933 L 134.01089,292.69933 C 133.89089,292.05933 133.37089,291.61933 132.53089,291.61933 L 124.57089,291.61933 C 123.41089,291.61933 123.41089,290.85933 124.29089,290.33933 L 129.57089,287.29933 C 131.45089,286.17933 131.93089,284.65933 132.41089,282.89933 C 132.93089,280.89933 132.97089,278.61933 132.21089,277.13933 C 131.89089,276.57933 131.37089,275.93933 130.57089,275.61933 C 129.81089,275.29933 128.89089,275.21933 127.85089,275.21933 L 120.93089,275.21933 C 120.21089,275.21933 119.77089,275.69933 119.93089,276.29933 L 120.33089,277.89933 C 120.45089,278.45933 120.89089,278.81933 121.49089,278.81933 L 126.49089,278.81933 M 148.45651,283.21933 C 148.09651,283.05933 147.93651,282.57933 148.17651,282.25933 L 150.41651,279.61933 C 150.97651,279.05933 151.05651,278.53933 151.21651,277.73933 L 151.49651,276.25933 C 151.57651,275.57933 151.17651,275.21933 150.33651,275.21933 L 139.17651,275.21933 C 138.45652,275.21933 138.01651,275.69933 138.17651,276.29933 L 138.53651,277.89933 C 138.69651,278.45933 139.13652,278.81933 139.73651,278.81933 L 146.37651,278.81933 C 147.25651,278.81933 147.49651,279.41933 146.97651,280.17933 L 143.81651,284.73933 C 143.57651,285.05933 143.61652,285.53933 144.17651,285.73933 L 146.33651,286.45933 C 147.69651,286.93933 149.97651,287.81933 150.17651,288.93933 C 150.33651,289.85933 150.13651,290.61933 149.49651,291.05933 C 148.97652,291.41933 148.25651,291.65933 147.25651,291.85933 L 139.33651,293.33933 C 138.73652,293.41933 138.33651,293.81933 138.33651,294.41933 L 138.25651,296.05933 C 138.21651,296.69933 138.73652,297.09933 139.41651,296.97933 L 146.17651,295.61933 C 148.69651,295.13933 150.21652,294.33933 151.05651,293.29933 C 152.13651,291.97933 152.61651,290.65933 152.61651,288.93933 C 152.61651,287.13933 152.13651,285.85933 151.13651,284.89933 C 150.37652,284.21933 149.41651,283.73933 148.45651,283.21933 M 167.56651,279.81933 L 167.28651,284.73933 C 167.24651,285.45933 166.84651,285.65933 166.24651,285.65933 L 160.52651,285.65933 C 160.00652,285.65933 159.88651,285.37933 160.12651,285.01933 L 168.32651,274.57933 C 168.64651,274.13933 168.88651,273.73933 168.80651,273.41933 C 168.76651,273.01933 168.44651,272.85933 167.88651,272.85933 L 165.80651,272.85933 C 165.16652,272.85933 164.60651,273.29933 164.28651,273.81933 L 158.28651,283.77933 C 157.76652,284.65933 157.16651,285.41933 156.92651,286.37933 L 156.52651,287.97933 C 156.40651,288.57933 156.84652,289.05933 157.52651,289.05933 L 166.00651,289.05933 C 166.60651,289.05933 167.04651,289.25933 167.00651,289.97933 L 166.80651,293.77933 C 166.76651,294.33933 166.80651,294.65933 166.92651,294.97933 C 167.12651,295.29933 167.72652,295.57933 168.24651,295.33933 L 169.36651,294.85933 C 169.84651,294.65933 170.12651,294.17933 170.12651,293.61933 L 170.04651,289.97933 C 170.04651,289.25933 170.48652,289.05933 171.04651,289.05933 L 171.80651,289.05933 C 172.64651,289.05933 173.12651,288.69933 172.96651,288.01933 L 172.72651,286.73933 C 172.56651,286.09933 172.08651,285.65933 171.24651,285.65933 L 170.92651,285.65933 C 170.32652,285.65933 169.96651,285.45933 169.96651,284.73933 L 169.84651,279.81933 C 169.84651,279.37933 169.84651,279.09933 169.72651,278.85933 C 169.60651,278.57933 169.08651,278.33933 168.68651,278.57933 L 168.20651,278.81933 C 167.84651,279.01933 167.60651,279.37933 167.56651,279.81933 M 190.65776,288.97933 C 190.65776,286.85933 189.85776,285.69933 189.65776,285.41933 C 188.93777,284.17933 187.65776,283.33933 185.93776,282.81933 L 180.73776,281.17933 C 180.13777,280.97933 179.57776,280.61933 179.77776,279.93933 C 180.01776,279.21933 180.17777,278.81933 180.97776,278.81933 L 188.73776,278.81933 C 189.33776,278.81933 189.81776,278.45933 189.93776,277.89933 L 190.33776,276.29933 C 190.49776,275.69933 190.01776,275.21933 189.33776,275.21933 L 179.85776,275.21933 C 179.05777,275.21933 178.53776,275.49933 178.41776,276.13933 L 177.13776,282.01933 C 176.93776,283.09933 177.25777,283.81933 178.17776,284.09933 L 185.21776,286.45933 C 186.61776,286.89933 188.21776,287.81933 188.29776,288.97933 C 188.33776,290.01933 188.21776,290.57933 187.57776,291.09933 C 187.13777,291.53933 186.37776,291.69933 185.37776,291.89933 L 177.93776,293.33933 C 177.33777,293.41933 176.97776,293.85933 176.93776,294.41933 L 176.85776,296.05933 C 176.81776,296.69933 177.33777,297.09933 178.05776,296.97933 L 184.49776,295.61933 C 186.97776,295.09933 188.41777,294.29933 189.29776,293.29933 C 190.37776,291.97933 190.65776,290.65933 190.65776,288.97933 M 200.57339,281.85933 C 200.13339,282.01933 199.85339,281.57933 200.17339,281.21933 L 206.25339,274.53933 C 206.97339,273.77933 207.05339,272.81933 205.85339,272.81933 L 203.73339,272.81933 C 203.13339,272.85933 202.57339,273.29933 202.21339,273.77933 L 197.57339,280.65933 C 196.61339,282.05933 195.45339,284.21933 195.09339,286.41933 C 194.97339,287.13933 194.93339,287.85933 194.93339,288.57933 C 194.93339,289.13933 194.97339,289.73933 195.05339,290.29933 C 195.17339,291.53933 195.69339,292.69933 196.45339,293.53933 C 197.09339,294.25933 198.09339,294.85933 199.25339,295.09933 C 200.29339,295.33933 201.45339,295.41933 202.73339,295.41933 C 204.09339,295.41933 205.17339,295.25933 206.13339,294.81933 C 206.97339,294.45933 207.61339,293.89933 208.09339,293.21933 C 208.81339,292.13933 209.29339,291.01933 209.57339,289.65933 C 209.69339,288.81933 209.77339,287.97933 209.77339,287.13933 C 209.77339,286.69933 209.77339,286.25933 209.69339,285.81933 C 209.57339,284.61933 209.05339,283.45933 208.29339,282.65933 C 207.65339,281.93933 206.65339,281.37933 205.49339,281.09933 C 204.93339,280.97933 204.17339,281.01933 203.45339,281.09933 C 202.49339,281.17933 201.41339,281.49933 200.57339,281.85933 M 202.29339,291.81933 C 201.17339,291.81933 200.33339,291.69933 199.69339,291.41933 C 199.05339,291.17933 198.61339,290.89933 198.25339,290.49933 C 197.69339,289.81933 197.37339,289.01933 197.37339,287.89933 C 197.37339,286.89933 197.57339,286.21933 198.05339,285.53933 C 198.81339,284.49933 200.09339,284.05933 201.57339,284.05933 C 202.85339,284.05933 203.89339,284.17933 205.01339,284.61933 C 205.65339,284.85933 206.13339,285.13933 206.45339,285.53933 C 207.13339,286.33933 207.33339,287.13933 207.33339,288.33933 C 207.33339,289.37933 207.05339,290.25933 206.41339,290.93933 C 205.89339,291.49933 205.17339,291.81933 203.93339,291.81933 L 202.29339,291.81933 M 213.80526,275.21933 C 213.08527,275.21933 212.64526,275.69933 212.76526,276.29933 L 213.16526,277.89933 C 213.28526,278.45933 213.76527,278.81933 214.36526,278.81933 L 223.48526,278.81933 C 224.36526,278.81933 224.96526,279.13933 224.40526,280.17933 L 217.56526,293.65933 C 217.28526,294.13933 217.20526,294.57933 217.32526,294.89933 C 217.48526,295.25933 217.84527,295.37933 218.36526,295.25933 L 220.40526,294.81933 C 221.00526,294.65933 221.44526,294.09933 221.68526,293.53933 L 226.68526,280.09933 C 226.96526,279.37933 227.16526,278.53933 227.24526,277.73933 L 227.40526,276.25933 C 227.44526,275.57933 227.08526,275.21933 226.24526,275.21933 L 213.80526,275.21933 M 244.95276,277.25933 C 244.19277,276.21933 243.23276,275.77933 242.15276,275.45933 C 240.99277,275.09933 239.71276,275.01933 238.27276,275.01933 C 236.67277,275.01933 235.55276,275.25933 234.51276,275.85933 C 233.59277,276.33933 232.75276,277.01933 232.31276,278.09933 C 231.99276,278.93933 231.83276,279.69933 231.83276,280.41933 C 231.83276,281.09933 231.99276,281.73933 232.23276,282.41933 C 232.59276,283.29933 233.07277,283.89933 233.75276,284.37933 C 231.03277,286.37933 230.79276,288.01933 230.79276,289.65933 C 230.79276,290.89933 231.07277,291.81933 231.71276,292.77933 C 232.43276,293.81933 233.51277,294.61933 234.75276,294.97933 C 235.91276,295.33933 237.19277,295.41933 238.59276,295.41933 C 240.35276,295.41933 241.55277,295.33933 242.87276,294.85933 C 244.31276,294.33933 245.31277,293.45933 245.95276,292.33933 C 246.43276,291.45933 246.67276,290.33933 246.67276,289.29933 C 246.67276,288.41933 246.47276,287.61933 246.19276,286.97933 C 245.59277,285.81933 244.63276,285.05933 243.43276,284.41933 C 244.39276,283.61933 245.11276,282.57933 245.47276,281.53933 C 245.63276,281.01933 245.71276,280.45933 245.71276,279.93933 C 245.71276,278.89933 245.43276,277.93933 244.95276,277.25933 M 241.63276,283.65933 L 235.51276,281.33933 C 234.75277,281.05933 234.11276,280.57933 234.11276,279.81933 C 234.15276,279.01933 234.95277,278.65933 235.75276,278.53933 C 237.27276,278.33933 238.99277,278.33933 240.51276,278.49933 C 241.27276,278.53933 241.91277,278.81933 242.35276,279.17933 C 242.87276,279.61933 243.11276,280.09933 243.11276,280.93933 C 243.11276,281.49933 242.95276,282.13933 242.51276,282.77933 C 242.23276,283.13933 241.95276,283.41933 241.63276,283.65933 M 235.35276,285.21933 L 235.75276,285.33933 L 242.83276,288.01933 C 243.83276,288.37933 244.47276,289.09933 244.43276,289.93933 C 244.43276,291.49933 243.27276,291.89933 242.03276,292.05933 C 240.91277,292.17933 239.79276,292.17933 238.39276,292.09933 C 237.23277,292.01933 236.27276,291.89933 235.51276,291.45933 C 234.51277,290.89933 233.75276,289.93933 233.79276,288.49933 C 233.79276,287.57933 234.15277,286.77933 234.67276,286.05933 C 234.91276,285.69933 235.15276,285.41933 235.35276,285.21933 M 259.72026,288.57933 C 260.12026,288.41933 260.44026,288.85933 260.08026,289.21933 L 254.00026,295.89933 C 253.32027,296.65933 253.24027,297.61933 254.44026,297.61933 L 256.52026,297.61933 C 257.16026,297.57933 257.72026,297.13933 258.08026,296.61933 L 262.72026,289.77933 C 263.64026,288.37933 264.80026,286.21933 265.20026,283.97933 C 265.32026,283.29933 265.32026,282.57933 265.32026,281.85933 C 265.32026,281.29933 265.28026,280.69933 265.24026,280.13933 C 265.08026,278.89933 264.56026,277.73933 263.84026,276.89933 C 263.20027,276.17933 262.20026,275.57933 261.04026,275.33933 C 260.00027,275.09933 258.80026,275.01933 257.52026,275.01933 C 256.16027,275.01933 255.08026,275.17933 254.16026,275.61933 C 253.32027,275.97933 252.64026,276.53933 252.20026,277.21933 C 251.48027,278.29933 250.96026,279.41933 250.72026,280.77933 C 250.56026,281.61933 250.48026,282.45933 250.48026,283.29933 C 250.48026,283.73933 250.52026,284.17933 250.56026,284.61933 C 250.72026,285.81933 251.24027,286.97933 251.96026,287.77933 C 252.60026,288.49933 253.60027,289.05933 254.76026,289.33933 C 255.36026,289.45933 256.12027,289.41933 256.80026,289.33933 C 257.80026,289.25933 258.84027,288.93933 259.72026,288.57933 M 258.00026,278.61933 C 259.08026,278.61933 259.92027,278.73933 260.60026,279.01933 C 261.24026,279.25933 261.68026,279.53933 262.04026,279.93933 C 262.60026,280.61933 262.88026,281.41933 262.88026,282.53933 C 262.88026,283.53933 262.72026,284.21933 262.20026,284.89933 C 261.48027,285.93933 260.16026,286.37933 258.68026,286.37933 C 257.40027,286.37933 256.36026,286.25933 255.24026,285.81933 C 254.60027,285.57933 254.16026,285.29933 253.80026,284.89933 C 253.16027,284.09933 252.96026,283.29933 252.96026,282.09933 C 252.96026,281.05933 253.20027,280.17933 253.84026,279.49933 C 254.36026,278.93933 255.12027,278.61933 256.32026,278.61933 L 258.00026,278.61933"
       id="text2383"
       style="font-size:40px;font-style:normal;font-variant:normal;font-weight:normal;font-stretch:normal;fill:#000000;fill-opacity:1;stroke:none;stroke-width:1px;stroke-linecap:butt;stroke-linejoin:miter;stroke-opacity:1;font-family:Hillel CLM;-inkscape-font-specification:Hillel CLM" />
  </g>
  <path
     d="M 184.41149,2.2731934 L 0.7482659,2.2731934"
     id="path2384"
     style="fill:none;fill-rule:evenodd;stroke:#0000ff;stroke-width:0.5;stroke-linecap:butt;stroke-linejoin:miter;stroke-miterlimit:4;stroke-dasharray:none;stroke-opacity:1" />
  <path
     d="M 0.1,22.51828 L 184.51395,22.51828"
     id="path2386"
     style="fill:none;fill-rule:evenodd;stroke:#0000ff;stroke-width:0.5;stroke-linecap:butt;stroke-linejoin:miter;stroke-miterlimit:4;stroke-dasharray:none;stroke-opacity:1" />
</svg>
